<svg xmlns="http://www.w3.org/2000/svg" width="760" height="460" viewBox="0 0 760 460" role="img" aria-label="Time Series with Shaded Peak Intervals">
<title>Time Series with Shaded Peak Intervals</title>
<rect class="algraf-background" x="0" y="0" width="760" height="460" fill="#ffffff" />
<text class="algraf-title" x="60" y="24" font-family="system-ui, sans-serif" font-size="18" font-weight="600" fill="#222222">Time Series with Shaded Peak Intervals</text>
<rect class="algraf-plot-area" x="60" y="66" width="670" height="344" fill="#ffffff" />
<g class="algraf-grid">
  <line x1="107.857" y1="66" x2="107.857" y2="410" stroke="#f2f2f2" stroke-width="0.6" />
  <line x1="203.571" y1="66" x2="203.571" y2="410" stroke="#f2f2f2" stroke-width="0.6" />
  <line x1="299.286" y1="66" x2="299.286" y2="410" stroke="#f2f2f2" stroke-width="0.6" />
  <line x1="395" y1="66" x2="395" y2="410" stroke="#f2f2f2" stroke-width="0.6" />
  <line x1="490.714" y1="66" x2="490.714" y2="410" stroke="#f2f2f2" stroke-width="0.6" />
  <line x1="586.429" y1="66" x2="586.429" y2="410" stroke="#f2f2f2" stroke-width="0.6" />
  <line x1="682.143" y1="66" x2="682.143" y2="410" stroke="#f2f2f2" stroke-width="0.6" />
  <line x1="60" y1="388.765" x2="730" y2="388.765" stroke="#f2f2f2" stroke-width="0.6" />
  <line x1="60" y1="346.296" x2="730" y2="346.296" stroke="#f2f2f2" stroke-width="0.6" />
  <line x1="60" y1="303.827" x2="730" y2="303.827" stroke="#f2f2f2" stroke-width="0.6" />
  <line x1="60" y1="261.358" x2="730" y2="261.358" stroke="#f2f2f2" stroke-width="0.6" />
  <line x1="60" y1="218.889" x2="730" y2="218.889" stroke="#f2f2f2" stroke-width="0.6" />
  <line x1="60" y1="176.42" x2="730" y2="176.42" stroke="#f2f2f2" stroke-width="0.6" />
  <line x1="60" y1="133.951" x2="730" y2="133.951" stroke="#f2f2f2" stroke-width="0.6" />
  <line x1="60" y1="91.481" x2="730" y2="91.481" stroke="#f2f2f2" stroke-width="0.6" />
  <line x1="60" y1="66" x2="60" y2="410" stroke="#e6e6e6" stroke-width="1" />
  <line x1="155.714" y1="66" x2="155.714" y2="410" stroke="#e6e6e6" stroke-width="1" />
  <line x1="251.429" y1="66" x2="251.429" y2="410" stroke="#e6e6e6" stroke-width="1" />
  <line x1="347.143" y1="66" x2="347.143" y2="410" stroke="#e6e6e6" stroke-width="1" />
  <line x1="442.857" y1="66" x2="442.857" y2="410" stroke="#e6e6e6" stroke-width="1" />
  <line x1="538.571" y1="66" x2="538.571" y2="410" stroke="#e6e6e6" stroke-width="1" />
  <line x1="634.286" y1="66" x2="634.286" y2="410" stroke="#e6e6e6" stroke-width="1" />
  <line x1="730" y1="66" x2="730" y2="410" stroke="#e6e6e6" stroke-width="1" />
  <line x1="60" y1="410" x2="730" y2="410" stroke="#e6e6e6" stroke-width="1" />
  <line x1="60" y1="367.531" x2="730" y2="367.531" stroke="#e6e6e6" stroke-width="1" />
  <line x1="60" y1="325.062" x2="730" y2="325.062" stroke="#e6e6e6" stroke-width="1" />
  <line x1="60" y1="282.593" x2="730" y2="282.593" stroke="#e6e6e6" stroke-width="1" />
  <line x1="60" y1="240.123" x2="730" y2="240.123" stroke="#e6e6e6" stroke-width="1" />
  <line x1="60" y1="197.654" x2="730" y2="197.654" stroke="#e6e6e6" stroke-width="1" />
  <line x1="60" y1="155.185" x2="730" y2="155.185" stroke="#e6e6e6" stroke-width="1" />
  <line x1="60" y1="112.716" x2="730" y2="112.716" stroke="#e6e6e6" stroke-width="1" />
  <line x1="60" y1="70.247" x2="730" y2="70.247" stroke="#e6e6e6" stroke-width="1" />
</g>
<g class="algraf-layer algraf-geom-rect">
  <rect x="91.905" y="197.654" width="95.714" height="212.346" fill="#e2e2e2" opacity="0.6" />
  <rect x="251.429" y="240.123" width="95.714" height="169.877" fill="#e2e2e2" opacity="0.6" />
  <rect x="410.952" y="155.185" width="127.619" height="254.815" fill="#e2e2e2" opacity="0.6" />
  <rect x="602.381" y="91.481" width="127.619" height="21.235" fill="#e2e2e2" opacity="0.6" />
</g>
<g class="algraf-layer algraf-geom-line">
  <path d="M60 197.654 L219.524 240.123 L379.048 155.185 L570.476 112.716" fill="none" stroke="blue" stroke-width="2" opacity="1" />
</g>
<g class="algraf-layer algraf-geom-point">
  <circle cx="60" cy="197.654" r="6" fill="blue" opacity="1" />
  <circle cx="219.524" cy="240.123" r="6" fill="blue" opacity="1" />
  <circle cx="379.048" cy="155.185" r="6" fill="blue" opacity="1" />
  <circle cx="570.476" cy="112.716" r="6" fill="blue" opacity="1" />
</g>
<g class="algraf-layer algraf-geom-text">
  <text x="60" y="189.654" text-anchor="middle" font-family="system-ui, sans-serif" font-size="9" fill="#333333" opacity="1">100</text>
  <text x="219.524" y="232.123" text-anchor="middle" font-family="system-ui, sans-serif" font-size="9" fill="#333333" opacity="1">80</text>
  <text x="379.048" y="147.185" text-anchor="middle" font-family="system-ui, sans-serif" font-size="9" fill="#333333" opacity="1">120</text>
  <text x="570.476" y="104.716" text-anchor="middle" font-family="system-ui, sans-serif" font-size="9" fill="#333333" opacity="1">140</text>
</g>
<g class="algraf-axes">
  <line x1="60" y1="410" x2="730" y2="410" stroke="#333333" stroke-width="1" />
  <line x1="60" y1="410" x2="60" y2="415" stroke="#333333" stroke-width="1" />
  <text x="60" y="428" text-anchor="middle" font-family="system-ui, sans-serif" font-size="12" fill="#222222">2026-01-01</text>
  <line x1="155.714" y1="410" x2="155.714" y2="415" stroke="#333333" stroke-width="1" />
  <text x="155.714" y="428" text-anchor="middle" font-family="system-ui, sans-serif" font-size="12" fill="#222222">2026-01-04</text>
  <line x1="251.429" y1="410" x2="251.429" y2="415" stroke="#333333" stroke-width="1" />
  <text x="251.429" y="428" text-anchor="middle" font-family="system-ui, sans-serif" font-size="12" fill="#222222">2026-01-07</text>
  <line x1="347.143" y1="410" x2="347.143" y2="415" stroke="#333333" stroke-width="1" />
  <text x="347.143" y="428" text-anchor="middle" font-family="system-ui, sans-serif" font-size="12" fill="#222222">2026-01-10</text>
  <line x1="442.857" y1="410" x2="442.857" y2="415" stroke="#333333" stroke-width="1" />
  <text x="442.857" y="428" text-anchor="middle" font-family="system-ui, sans-serif" font-size="12" fill="#222222">2026-01-13</text>
  <line x1="538.571" y1="410" x2="538.571" y2="415" stroke="#333333" stroke-width="1" />
  <text x="538.571" y="428" text-anchor="middle" font-family="system-ui, sans-serif" font-size="12" fill="#222222">2026-01-16</text>
  <line x1="634.286" y1="410" x2="634.286" y2="415" stroke="#333333" stroke-width="1" />
  <text x="634.286" y="428" text-anchor="middle" font-family="system-ui, sans-serif" font-size="12" fill="#222222">2026-01-19</text>
  <line x1="730" y1="410" x2="730" y2="415" stroke="#333333" stroke-width="1" />
  <text x="730" y="428" text-anchor="middle" font-family="system-ui, sans-serif" font-size="12" fill="#222222">2026-01-22</text>
  <text x="395" y="448" text-anchor="middle" font-family="system-ui, sans-serif" font-size="12" fill="#222222">time</text>
  <line x1="60" y1="66" x2="60" y2="410" stroke="#333333" stroke-width="1" />
  <line x1="55" y1="410" x2="60" y2="410" stroke="#333333" stroke-width="1" />
  <text x="52" y="414" text-anchor="end" font-family="system-ui, sans-serif" font-size="12" fill="#222222">0</text>
  <line x1="55" y1="367.531" x2="60" y2="367.531" stroke="#333333" stroke-width="1" />
  <text x="52" y="371.531" text-anchor="end" font-family="system-ui, sans-serif" font-size="12" fill="#222222">20</text>
  <line x1="55" y1="325.062" x2="60" y2="325.062" stroke="#333333" stroke-width="1" />
  <text x="52" y="329.062" text-anchor="end" font-family="system-ui, sans-serif" font-size="12" fill="#222222">40</text>
  <line x1="55" y1="282.593" x2="60" y2="282.593" stroke="#333333" stroke-width="1" />
  <text x="52" y="286.593" text-anchor="end" font-family="system-ui, sans-serif" font-size="12" fill="#222222">60</text>
  <line x1="55" y1="240.123" x2="60" y2="240.123" stroke="#333333" stroke-width="1" />
  <text x="52" y="244.123" text-anchor="end" font-family="system-ui, sans-serif" font-size="12" fill="#222222">80</text>
  <line x1="55" y1="197.654" x2="60" y2="197.654" stroke="#333333" stroke-width="1" />
  <text x="52" y="201.654" text-anchor="end" font-family="system-ui, sans-serif" font-size="12" fill="#222222">100</text>
  <line x1="55" y1="155.185" x2="60" y2="155.185" stroke="#333333" stroke-width="1" />
  <text x="52" y="159.185" text-anchor="end" font-family="system-ui, sans-serif" font-size="12" fill="#222222">120</text>
  <line x1="55" y1="112.716" x2="60" y2="112.716" stroke="#333333" stroke-width="1" />
  <text x="52" y="116.716" text-anchor="end" font-family="system-ui, sans-serif" font-size="12" fill="#222222">140</text>
  <line x1="55" y1="70.247" x2="60" y2="70.247" stroke="#333333" stroke-width="1" />
  <text x="52" y="74.247" text-anchor="end" font-family="system-ui, sans-serif" font-size="12" fill="#222222">160</text>
  <text x="18.4" y="238" text-anchor="middle" transform="rotate(-90 18.4 238)" font-family="system-ui, sans-serif" font-size="12" fill="#222222">peak value</text>
</g>
</svg>
