<svg xmlns="http://www.w3.org/2000/svg" width="420" height="420" viewBox="0 0 420 420" role="img" aria-label="Sessions by day and period">
<title>Sessions by day and period</title>
<rect class="algraf-background" x="0" y="0" width="420" height="420" fill="#ffffff" />
<text class="algraf-title" x="76.4" y="24" font-family="system-ui, sans-serif" font-size="18" font-weight="600" fill="#222222">Sessions by day and period</text>
<rect class="algraf-plot-area" x="76.4" y="66" width="193.6" height="304" fill="#ffffff" />
<g class="algraf-polar-grid">
  <circle cx="173.2" cy="218" r="36.3" fill="none" stroke="#e6e6e6" stroke-width="1" />
  <circle cx="173.2" cy="218" r="60.5" fill="none" stroke="#e6e6e6" stroke-width="1" />
  <circle cx="173.2" cy="218" r="84.7" fill="none" stroke="#e6e6e6" stroke-width="1" />
  <circle cx="173.2" cy="218" r="96.8" fill="none" stroke="#e6e6e6" stroke-width="1" />
  <line x1="194.158" y1="205.9" x2="257.031" y2="169.6" stroke="#e6e6e6" stroke-width="1" />
  <line x1="173.2" y1="242.2" x2="173.2" y2="314.8" stroke="#e6e6e6" stroke-width="1" />
  <line x1="152.242" y1="205.9" x2="89.369" y2="169.6" stroke="#e6e6e6" stroke-width="1" />
</g>
<g class="algraf-polar-theta-labels">
  <text x="267.424" y="163.6" text-anchor="start" font-family="system-ui, sans-serif" font-size="12" fill="#222222">Mon</text>
  <text x="173.2" y="326.8" text-anchor="middle" font-family="system-ui, sans-serif" font-size="12" fill="#222222">Tue</text>
  <text x="78.976" y="163.6" text-anchor="end" font-family="system-ui, sans-serif" font-size="12" fill="#222222">Wed</text>
</g>
<g class="algraf-polar-radius-labels">
  <text x="176.2" y="179.7" text-anchor="start" font-family="system-ui, sans-serif" font-size="12" fill="#222222">Morning</text>
  <text x="176.2" y="155.5" text-anchor="start" font-family="system-ui, sans-serif" font-size="12" fill="#222222">Midday</text>
  <text x="176.2" y="131.3" text-anchor="start" font-family="system-ui, sans-serif" font-size="12" fill="#222222">Evening</text>
</g>
<g class="algraf-layer algraf-geom-tile">
  <path d="M 173.2 169.6 A 48.4 48.4 0 0 1 215.116 242.2 L 194.158 230.1 A 24.2 24.2 0 0 0 173.2 193.8 Z" fill="#99cf4f" opacity="1" />
  <path d="M 173.2 145.4 A 72.6 72.6 0 0 1 236.073 254.3 L 215.116 242.2 A 48.4 48.4 0 0 0 173.2 169.6 Z" fill="#31688e" opacity="1" />
  <path d="M 173.2 121.2 A 96.8 96.8 0 0 1 257.031 266.4 L 236.073 254.3 A 72.6 72.6 0 0 0 173.2 145.4 Z" fill="#440154" opacity="1" />
  <path d="M 215.116 242.2 A 48.4 48.4 0 0 1 131.284 242.2 L 152.242 230.1 A 24.2 24.2 0 0 0 194.158 230.1 Z" fill="#339084" opacity="1" />
  <path d="M 236.073 254.3 A 72.6 72.6 0 0 1 110.327 254.3 L 131.284 242.2 A 48.4 48.4 0 0 0 215.116 242.2 Z" fill="#35b779" opacity="1" />
  <path d="M 257.031 266.4 A 96.8 96.8 0 0 1 89.369 266.4 L 110.327 254.3 A 72.6 72.6 0 0 0 236.073 254.3 Z" fill="#3b3571" opacity="1" />
  <path d="M 131.284 242.2 A 48.4 48.4 0 0 1 173.2 169.6 L 173.2 193.8 A 24.2 24.2 0 0 0 152.242 230.1 Z" fill="#fde725" opacity="1" />
  <path d="M 110.327 254.3 A 72.6 72.6 0 0 1 173.2 145.4 L 173.2 169.6 A 48.4 48.4 0 0 0 131.284 242.2 Z" fill="#339084" opacity="1" />
  <path d="M 89.369 266.4 A 96.8 96.8 0 0 1 173.2 121.2 L 173.2 145.4 A 72.6 72.6 0 0 0 110.327 254.3 Z" fill="#31688e" opacity="1" />
</g>
<g class="algraf-legends">
  <text x="286" y="70" text-anchor="start" font-family="system-ui, sans-serif" font-size="12" fill="#222222">sessions</text>
  <rect x="286" y="78" width="12" height="16" fill="#fde725" />
  <text x="304" y="88" text-anchor="start" font-family="system-ui, sans-serif" font-size="12" fill="#222222">9</text>
  <rect x="286" y="94" width="12" height="16" fill="#67c364" />
  <text x="304" y="104" text-anchor="start" font-family="system-ui, sans-serif" font-size="12" fill="#222222">7.5</text>
  <rect x="286" y="110" width="12" height="16" fill="#339084" />
  <text x="304" y="120" text-anchor="start" font-family="system-ui, sans-serif" font-size="12" fill="#222222">6</text>
  <rect x="286" y="126" width="12" height="16" fill="#364e80" />
  <text x="304" y="136" text-anchor="start" font-family="system-ui, sans-serif" font-size="12" fill="#222222">4.5</text>
  <rect x="286" y="142" width="12" height="16" fill="#440154" />
  <text x="304" y="152" text-anchor="start" font-family="system-ui, sans-serif" font-size="12" fill="#222222">3</text>
</g>
</svg>
