<svg xmlns="http://www.w3.org/2000/svg" width="420" height="420" viewBox="0 0 420 420" role="img" aria-label="Sessions by day and period">
<title>Sessions by day and period</title>
<rect class="algraf-background" x="0" y="0" width="420" height="420" fill="#ffffff" />
<text class="algraf-title" x="76.4" y="24" font-family="system-ui, sans-serif" font-size="18" font-weight="600" fill="#222222">Sessions by day and period</text>
<rect class="algraf-plot-area" x="76.4" y="66" width="193.6" height="304" fill="#ffffff" />
<g class="algraf-polar-grid">
  <circle cx="173.2" cy="218" r="23.7" fill="none" stroke="#e6e6e6" stroke-width="1" />
  <circle cx="173.2" cy="218" r="39.5" fill="none" stroke="#e6e6e6" stroke-width="1" />
  <circle cx="173.2" cy="218" r="55.3" fill="none" stroke="#e6e6e6" stroke-width="1" />
  <circle cx="173.2" cy="218" r="63.2" fill="none" stroke="#e6e6e6" stroke-width="1" />
  <line x1="186.883" y1="210.1" x2="227.933" y2="186.4" stroke="#e6e6e6" stroke-width="1" />
  <line x1="173.2" y1="233.8" x2="173.2" y2="281.2" stroke="#e6e6e6" stroke-width="1" />
  <line x1="159.517" y1="210.1" x2="118.467" y2="186.4" stroke="#e6e6e6" stroke-width="1" />
</g>
<g class="algraf-polar-theta-labels">
  <text x="238.325" y="180.4" text-anchor="start" font-family="system-ui, sans-serif" font-size="12" fill="#222222">Mon</text>
  <text x="173.2" y="293.2" text-anchor="middle" font-family="system-ui, sans-serif" font-size="12" fill="#222222">Tue</text>
  <text x="108.075" y="180.4" text-anchor="end" font-family="system-ui, sans-serif" font-size="12" fill="#222222">Wed</text>
</g>
<g class="algraf-polar-radius-labels">
  <text x="176.2" y="192.3" text-anchor="start" font-family="system-ui, sans-serif" font-size="12" fill="#222222">Morning</text>
  <text x="176.2" y="176.5" text-anchor="start" font-family="system-ui, sans-serif" font-size="12" fill="#222222">Midday</text>
  <text x="176.2" y="160.7" text-anchor="start" font-family="system-ui, sans-serif" font-size="12" fill="#222222">Evening</text>
</g>
<g class="algraf-layer algraf-geom-tile">
  <path d="M 173.2 186.4 A 31.6 31.6 0 0 1 200.566 233.8 L 186.883 225.9 A 15.8 15.8 0 0 0 173.2 202.2 Z" fill="#99cf4f" opacity="1" />
  <path d="M 173.2 170.6 A 47.4 47.4 0 0 1 214.25 241.7 L 200.566 233.8 A 31.6 31.6 0 0 0 173.2 186.4 Z" fill="#31688e" opacity="1" />
  <path d="M 173.2 154.8 A 63.2 63.2 0 0 1 227.933 249.6 L 214.25 241.7 A 47.4 47.4 0 0 0 173.2 170.6 Z" fill="#440154" opacity="1" />
  <path d="M 200.566 233.8 A 31.6 31.6 0 0 1 145.834 233.8 L 159.517 225.9 A 15.8 15.8 0 0 0 186.883 225.9 Z" fill="#339084" opacity="1" />
  <path d="M 214.25 241.7 A 47.4 47.4 0 0 1 132.15 241.7 L 145.834 233.8 A 31.6 31.6 0 0 0 200.566 233.8 Z" fill="#35b779" opacity="1" />
  <path d="M 227.933 249.6 A 63.2 63.2 0 0 1 118.467 249.6 L 132.15 241.7 A 47.4 47.4 0 0 0 214.25 241.7 Z" fill="#3b3571" opacity="1" />
  <path d="M 145.834 233.8 A 31.6 31.6 0 0 1 173.2 186.4 L 173.2 202.2 A 15.8 15.8 0 0 0 159.517 225.9 Z" fill="#fde725" opacity="1" />
  <path d="M 132.15 241.7 A 47.4 47.4 0 0 1 173.2 170.6 L 173.2 186.4 A 31.6 31.6 0 0 0 145.834 233.8 Z" fill="#339084" opacity="1" />
  <path d="M 118.467 249.6 A 63.2 63.2 0 0 1 173.2 154.8 L 173.2 170.6 A 47.4 47.4 0 0 0 132.15 241.7 Z" fill="#31688e" opacity="1" />
</g>
<g class="algraf-legends">
  <text x="286" y="70" text-anchor="start" font-family="system-ui, sans-serif" font-size="12" fill="#222222">sessions</text>
  <rect x="286" y="78" width="12" height="16" fill="#fde725" />
  <text x="304" y="88" text-anchor="start" font-family="system-ui, sans-serif" font-size="12" fill="#222222">9</text>
  <rect x="286" y="94" width="12" height="16" fill="#67c364" />
  <text x="304" y="104" text-anchor="start" font-family="system-ui, sans-serif" font-size="12" fill="#222222">7.5</text>
  <rect x="286" y="110" width="12" height="16" fill="#339084" />
  <text x="304" y="120" text-anchor="start" font-family="system-ui, sans-serif" font-size="12" fill="#222222">6</text>
  <rect x="286" y="126" width="12" height="16" fill="#364e80" />
  <text x="304" y="136" text-anchor="start" font-family="system-ui, sans-serif" font-size="12" fill="#222222">4.5</text>
  <rect x="286" y="142" width="12" height="16" fill="#440154" />
  <text x="304" y="152" text-anchor="start" font-family="system-ui, sans-serif" font-size="12" fill="#222222">3</text>
</g>
</svg>
