<svg xmlns="http://www.w3.org/2000/svg" width="420" height="420" viewBox="0 0 420 420" role="img" aria-label="Sessions by day and period">
<title>Sessions by day and period</title>
<rect class="algraf-background" x="0" y="0" width="420" height="420" fill="#ffffff" />
<text class="algraf-title" x="10" y="24" font-family="system-ui, sans-serif" font-size="18" font-weight="600" fill="#222222">Sessions by day and period</text>
<rect class="algraf-plot-area" x="10" y="36" width="280" height="374" fill="#ffffff" />
<g class="algraf-polar-grid">
  <circle cx="150" cy="223" r="40.985" fill="none" stroke="#e6e6e6" stroke-width="1" />
  <circle cx="150" cy="223" r="68.309" fill="none" stroke="#e6e6e6" stroke-width="1" />
  <circle cx="150" cy="223" r="95.632" fill="none" stroke="#e6e6e6" stroke-width="1" />
  <circle cx="150" cy="223" r="109.294" fill="none" stroke="#e6e6e6" stroke-width="1" />
  <line x1="173.663" y1="209.338" x2="244.651" y2="168.353" stroke="#e6e6e6" stroke-width="1" />
  <line x1="150" y1="250.323" x2="150" y2="332.294" stroke="#e6e6e6" stroke-width="1" />
  <line x1="126.337" y1="209.338" x2="55.349" y2="168.353" stroke="#e6e6e6" stroke-width="1" />
</g>
<g class="algraf-layer algraf-geom-tile">
  <path d="M 150 168.353 A 54.647 54.647 0 0 1 197.326 250.323 L 173.663 236.662 A 27.323 27.323 0 0 0 150 195.677 Z" fill="#a4593b" opacity="1" />
  <path d="M 150 141.03 A 81.97 81.97 0 0 1 220.988 263.985 L 197.326 250.323 A 54.647 54.647 0 0 0 150 168.353 Z" fill="#c69784" opacity="1" />
  <path d="M 150 113.706 A 109.294 109.294 0 0 1 244.651 277.647 L 220.988 263.985 A 81.97 81.97 0 0 0 150 141.03 Z" fill="#ddc1b5" opacity="1" />
  <path d="M 197.326 250.323 A 54.647 54.647 0 0 1 102.674 250.323 L 126.337 236.662 A 27.323 27.323 0 0 0 173.663 236.662 Z" fill="#bb826c" opacity="1" />
  <path d="M 220.988 263.985 A 81.97 81.97 0 0 1 79.012 263.985 L 102.674 250.323 A 54.647 54.647 0 0 0 197.326 250.323 Z" fill="#b06e53" opacity="1" />
  <path d="M 244.651 277.647 A 109.294 109.294 0 0 1 55.349 277.647 L 79.012 263.985 A 81.97 81.97 0 0 0 220.988 263.985 Z" fill="#d2ac9d" opacity="1" />
  <path d="M 102.674 250.323 A 54.647 54.647 0 0 1 150 168.353 L 150 195.677 A 27.323 27.323 0 0 0 126.337 236.662 Z" fill="#994422" opacity="1" />
  <path d="M 79.012 263.985 A 81.97 81.97 0 0 1 150 141.03 L 150 168.353 A 54.647 54.647 0 0 0 102.674 250.323 Z" fill="#bb826c" opacity="1" />
  <path d="M 55.349 277.647 A 109.294 109.294 0 0 1 150 113.706 L 150 141.03 A 81.97 81.97 0 0 0 79.012 263.985 Z" fill="#c69784" opacity="1" />
</g>
<g class="algraf-polar-theta-labels">
  <text x="255.044" y="162.353" text-anchor="start" font-family="system-ui, sans-serif" font-size="12" fill="#222222">Mon</text>
  <text x="150" y="344.294" text-anchor="middle" font-family="system-ui, sans-serif" font-size="12" fill="#222222">Tue</text>
  <text x="44.956" y="162.353" text-anchor="end" font-family="system-ui, sans-serif" font-size="12" fill="#222222">Wed</text>
</g>
<g class="algraf-polar-radius-labels">
  <text x="153" y="180.015" text-anchor="start" font-family="system-ui, sans-serif" font-size="12" fill="#222222">Morning</text>
  <text x="153" y="152.691" text-anchor="start" font-family="system-ui, sans-serif" font-size="12" fill="#222222">Midday</text>
  <text x="153" y="125.368" text-anchor="start" font-family="system-ui, sans-serif" font-size="12" fill="#222222">Evening</text>
</g>
<g class="algraf-legends">
  <text x="306" y="40" text-anchor="start" font-family="system-ui, sans-serif" font-size="12" fill="#222222">sessions</text>
  <rect x="306" y="48" width="12" height="16" fill="#994422" />
  <text x="324" y="58" text-anchor="start" font-family="system-ui, sans-serif" font-size="12" fill="#222222">9</text>
  <rect x="306" y="64" width="12" height="16" fill="#aa6347" />
  <text x="324" y="74" text-anchor="start" font-family="system-ui, sans-serif" font-size="12" fill="#222222">7.5</text>
  <rect x="306" y="80" width="12" height="16" fill="#bb826c" />
  <text x="324" y="90" text-anchor="start" font-family="system-ui, sans-serif" font-size="12" fill="#222222">6</text>
  <rect x="306" y="96" width="12" height="16" fill="#cca291" />
  <text x="324" y="106" text-anchor="start" font-family="system-ui, sans-serif" font-size="12" fill="#222222">4.5</text>
  <rect x="306" y="112" width="12" height="16" fill="#ddc1b5" />
  <text x="324" y="122" text-anchor="start" font-family="system-ui, sans-serif" font-size="12" fill="#222222">3</text>
</g>
</svg>
