<svg xmlns="http://www.w3.org/2000/svg" width="760" height="420" viewBox="0 0 760 420" role="img">
<rect class="algraf-background" x="0" y="0" width="760" height="420" fill="#ffffff" />
<rect class="algraf-plot-area" x="60" y="40" width="550" height="330" fill="#ffffff" />
<g class="algraf-grid">
  <line x1="151.667" y1="40" x2="151.667" y2="370" stroke="#f2f2f2" stroke-width="0.6" />
  <line x1="335" y1="40" x2="335" y2="370" stroke="#f2f2f2" stroke-width="0.6" />
  <line x1="518.333" y1="40" x2="518.333" y2="370" stroke="#f2f2f2" stroke-width="0.6" />
  <line x1="60" y1="338.171" x2="610" y2="338.171" stroke="#f2f2f2" stroke-width="0.6" />
  <line x1="60" y1="274.514" x2="610" y2="274.514" stroke="#f2f2f2" stroke-width="0.6" />
  <line x1="60" y1="210.856" x2="610" y2="210.856" stroke="#f2f2f2" stroke-width="0.6" />
  <line x1="60" y1="147.199" x2="610" y2="147.199" stroke="#f2f2f2" stroke-width="0.6" />
  <line x1="60" y1="83.542" x2="610" y2="83.542" stroke="#f2f2f2" stroke-width="0.6" />
  <line x1="60" y1="40" x2="60" y2="370" stroke="#e6e6e6" stroke-width="1" />
  <line x1="243.333" y1="40" x2="243.333" y2="370" stroke="#e6e6e6" stroke-width="1" />
  <line x1="426.667" y1="40" x2="426.667" y2="370" stroke="#e6e6e6" stroke-width="1" />
  <line x1="610" y1="40" x2="610" y2="370" stroke="#e6e6e6" stroke-width="1" />
  <line x1="60" y1="370" x2="610" y2="370" stroke="#e6e6e6" stroke-width="1" />
  <line x1="60" y1="306.343" x2="610" y2="306.343" stroke="#e6e6e6" stroke-width="1" />
  <line x1="60" y1="242.685" x2="610" y2="242.685" stroke="#e6e6e6" stroke-width="1" />
  <line x1="60" y1="179.028" x2="610" y2="179.028" stroke="#e6e6e6" stroke-width="1" />
  <line x1="60" y1="115.37" x2="610" y2="115.37" stroke="#e6e6e6" stroke-width="1" />
  <line x1="60" y1="51.713" x2="610" y2="51.713" stroke="#e6e6e6" stroke-width="1" />
</g>
<g class="algraf-layer algraf-geom-area">
  <path d="M60 236.319 L243.333 176.481 L426.667 181.574 L610 140.833 L610 370 L426.667 370 L243.333 370 L60 370 Z" fill="#4E79A7" opacity="0.35" />
  <path d="M60 88.634 L243.333 121.736 L426.667 64.444 L610 98.819 L610 370 L426.667 370 L243.333 370 L60 370 Z" fill="#F28E2B" opacity="0.35" />
</g>
<g class="algraf-layer algraf-geom-line">
  <path d="M60 236.319 L243.333 176.481 L426.667 181.574 L610 140.833" fill="none" stroke="#4E79A7" stroke-width="2" opacity="1" />
  <path d="M60 88.634 L243.333 121.736 L426.667 64.444 L610 98.819" fill="none" stroke="#F28E2B" stroke-width="2" opacity="1" />
</g>
<g class="algraf-axes">
  <line x1="60" y1="370" x2="610" y2="370" stroke="#333333" stroke-width="1" />
  <line x1="60" y1="370" x2="60" y2="375" stroke="#333333" stroke-width="1" />
  <text x="60" y="388" text-anchor="middle" font-family="system-ui, sans-serif" font-size="12" fill="#222222">2026-01-01</text>
  <line x1="243.333" y1="370" x2="243.333" y2="375" stroke="#333333" stroke-width="1" />
  <text x="243.333" y="388" text-anchor="middle" font-family="system-ui, sans-serif" font-size="12" fill="#222222">2026-01-02</text>
  <line x1="426.667" y1="370" x2="426.667" y2="375" stroke="#333333" stroke-width="1" />
  <text x="426.667" y="388" text-anchor="middle" font-family="system-ui, sans-serif" font-size="12" fill="#222222">2026-01-03</text>
  <line x1="610" y1="370" x2="610" y2="375" stroke="#333333" stroke-width="1" />
  <text x="610" y="388" text-anchor="middle" font-family="system-ui, sans-serif" font-size="12" fill="#222222">2026-01-04</text>
  <text x="335" y="408" text-anchor="middle" font-family="system-ui, sans-serif" font-size="12" fill="#222222">time</text>
  <line x1="60" y1="40" x2="60" y2="370" stroke="#333333" stroke-width="1" />
  <line x1="55" y1="370" x2="60" y2="370" stroke="#333333" stroke-width="1" />
  <text x="52" y="374" text-anchor="end" font-family="system-ui, sans-serif" font-size="12" fill="#222222">0</text>
  <line x1="55" y1="306.343" x2="60" y2="306.343" stroke="#333333" stroke-width="1" />
  <text x="52" y="310.343" text-anchor="end" font-family="system-ui, sans-serif" font-size="12" fill="#222222">5</text>
  <line x1="55" y1="242.685" x2="60" y2="242.685" stroke="#333333" stroke-width="1" />
  <text x="52" y="246.685" text-anchor="end" font-family="system-ui, sans-serif" font-size="12" fill="#222222">10</text>
  <line x1="55" y1="179.028" x2="60" y2="179.028" stroke="#333333" stroke-width="1" />
  <text x="52" y="183.028" text-anchor="end" font-family="system-ui, sans-serif" font-size="12" fill="#222222">15</text>
  <line x1="55" y1="115.37" x2="60" y2="115.37" stroke="#333333" stroke-width="1" />
  <text x="52" y="119.37" text-anchor="end" font-family="system-ui, sans-serif" font-size="12" fill="#222222">20</text>
  <line x1="55" y1="51.713" x2="60" y2="51.713" stroke="#333333" stroke-width="1" />
  <text x="52" y="55.713" text-anchor="end" font-family="system-ui, sans-serif" font-size="12" fill="#222222">25</text>
  <text x="25.6" y="205" text-anchor="middle" transform="rotate(-90 25.6 205)" font-family="system-ui, sans-serif" font-size="12" fill="#222222">value</text>
</g>
<g class="algraf-legends">
  <text x="626" y="44" text-anchor="start" font-family="system-ui, sans-serif" font-size="12" fill="#222222">series</text>
  <rect x="626" y="52" width="12" height="12" fill="#4E79A7" stroke="#4E79A7" stroke-width="2" />
  <text x="644" y="62" text-anchor="start" font-family="system-ui, sans-serif" font-size="12" fill="#222222">Alpha</text>
  <rect x="626" y="70" width="12" height="12" fill="#F28E2B" stroke="#F28E2B" stroke-width="2" />
  <text x="644" y="80" text-anchor="start" font-family="system-ui, sans-serif" font-size="12" fill="#222222">Beta</text>
</g>
</svg>
