<svg xmlns="http://www.w3.org/2000/svg" width="640" height="420" viewBox="0 0 640 420" role="img" aria-label="Sample distribution by gender">
<title>Sample distribution by gender</title>
<rect class="algraf-background" x="0" y="0" width="640" height="420" fill="#ffffff" />
<text class="algraf-title" x="60" y="24" font-family="system-ui, sans-serif" font-size="18" font-weight="600" fill="#222222">Sample distribution by gender</text>
<rect class="algraf-plot-area" x="60" y="66" width="430" height="304" fill="#ffffff" />
<g class="algraf-grid">
  <line x1="60" y1="341.852" x2="490" y2="341.852" stroke="#f2f2f2" stroke-width="0.6" />
  <line x1="60" y1="285.556" x2="490" y2="285.556" stroke="#f2f2f2" stroke-width="0.6" />
  <line x1="60" y1="229.259" x2="490" y2="229.259" stroke="#f2f2f2" stroke-width="0.6" />
  <line x1="60" y1="172.963" x2="490" y2="172.963" stroke="#f2f2f2" stroke-width="0.6" />
  <line x1="60" y1="116.667" x2="490" y2="116.667" stroke="#f2f2f2" stroke-width="0.6" />
  <line x1="60" y1="370" x2="490" y2="370" stroke="#e6e6e6" stroke-width="1" />
  <line x1="60" y1="313.704" x2="490" y2="313.704" stroke="#e6e6e6" stroke-width="1" />
  <line x1="60" y1="257.407" x2="490" y2="257.407" stroke="#e6e6e6" stroke-width="1" />
  <line x1="60" y1="201.111" x2="490" y2="201.111" stroke="#e6e6e6" stroke-width="1" />
  <line x1="60" y1="144.815" x2="490" y2="144.815" stroke="#e6e6e6" stroke-width="1" />
  <line x1="60" y1="88.519" x2="490" y2="88.519" stroke="#e6e6e6" stroke-width="1" />
</g>
<g class="algraf-layer algraf-geom-bar">
  <rect x="74.333" y="88.519" width="114.667" height="281.481" fill="#4E79A7" opacity="0.85" />
  <rect x="217.667" y="88.519" width="114.667" height="281.481" fill="#F28E2B" opacity="0.85" />
  <rect x="361" y="201.111" width="114.667" height="168.889" fill="#E15759" opacity="0.85" />
</g>
<g class="algraf-axes">
  <line x1="60" y1="370" x2="490" y2="370" stroke="#333333" stroke-width="1" />
  <line x1="131.667" y1="370" x2="131.667" y2="375" stroke="#333333" stroke-width="1" />
  <text x="131.667" y="388" text-anchor="middle" font-family="system-ui, sans-serif" font-size="12" fill="#222222">Female</text>
  <line x1="275" y1="370" x2="275" y2="375" stroke="#333333" stroke-width="1" />
  <text x="275" y="388" text-anchor="middle" font-family="system-ui, sans-serif" font-size="12" fill="#222222">Male</text>
  <line x1="418.333" y1="370" x2="418.333" y2="375" stroke="#333333" stroke-width="1" />
  <text x="418.333" y="388" text-anchor="middle" font-family="system-ui, sans-serif" font-size="12" fill="#222222">Non-binary</text>
  <text x="275" y="408" text-anchor="middle" font-family="system-ui, sans-serif" font-size="12" fill="#222222">gender</text>
  <line x1="60" y1="66" x2="60" y2="370" stroke="#333333" stroke-width="1" />
  <line x1="55" y1="370" x2="60" y2="370" stroke="#333333" stroke-width="1" />
  <text x="52" y="374" text-anchor="end" font-family="system-ui, sans-serif" font-size="12" fill="#222222">0</text>
  <line x1="55" y1="313.704" x2="60" y2="313.704" stroke="#333333" stroke-width="1" />
  <text x="52" y="317.704" text-anchor="end" font-family="system-ui, sans-serif" font-size="12" fill="#222222">1</text>
  <line x1="55" y1="257.407" x2="60" y2="257.407" stroke="#333333" stroke-width="1" />
  <text x="52" y="261.407" text-anchor="end" font-family="system-ui, sans-serif" font-size="12" fill="#222222">2</text>
  <line x1="55" y1="201.111" x2="60" y2="201.111" stroke="#333333" stroke-width="1" />
  <text x="52" y="205.111" text-anchor="end" font-family="system-ui, sans-serif" font-size="12" fill="#222222">3</text>
  <line x1="55" y1="144.815" x2="60" y2="144.815" stroke="#333333" stroke-width="1" />
  <text x="52" y="148.815" text-anchor="end" font-family="system-ui, sans-serif" font-size="12" fill="#222222">4</text>
  <line x1="55" y1="88.519" x2="60" y2="88.519" stroke="#333333" stroke-width="1" />
  <text x="52" y="92.519" text-anchor="end" font-family="system-ui, sans-serif" font-size="12" fill="#222222">5</text>
  <text x="32.8" y="218" text-anchor="middle" transform="rotate(-90 32.8 218)" font-family="system-ui, sans-serif" font-size="12" fill="#222222">count</text>
</g>
<g class="algraf-legends">
  <text x="506" y="70" text-anchor="start" font-family="system-ui, sans-serif" font-size="12" fill="#222222">gender</text>
  <rect x="506" y="78" width="12" height="12" fill="#4E79A7" />
  <text x="524" y="88" text-anchor="start" font-family="system-ui, sans-serif" font-size="12" fill="#222222">Female</text>
  <rect x="506" y="96" width="12" height="12" fill="#F28E2B" />
  <text x="524" y="106" text-anchor="start" font-family="system-ui, sans-serif" font-size="12" fill="#222222">Male</text>
  <rect x="506" y="114" width="12" height="12" fill="#E15759" />
  <text x="524" y="124" text-anchor="start" font-family="system-ui, sans-serif" font-size="12" fill="#222222">Non-binary</text>
</g>
</svg>
