<svg xmlns="http://www.w3.org/2000/svg" width="800" height="520" viewBox="0 0 800 520" role="img">
<rect class="algraf-background" x="0" y="0" width="800" height="520" fill="#ffffff" />
<rect class="algraf-plot-area" x="60" y="40" width="590" height="430" fill="#ffffff" />
<g class="algraf-grid">
  <line x1="60" y1="399.157" x2="650" y2="399.157" stroke="#f2f2f2" stroke-width="0.6" />
  <line x1="60" y1="316.782" x2="650" y2="316.782" stroke="#f2f2f2" stroke-width="0.6" />
  <line x1="60" y1="234.406" x2="650" y2="234.406" stroke="#f2f2f2" stroke-width="0.6" />
  <line x1="60" y1="152.031" x2="650" y2="152.031" stroke="#f2f2f2" stroke-width="0.6" />
  <line x1="60" y1="440.345" x2="650" y2="440.345" stroke="#e6e6e6" stroke-width="1" />
  <line x1="60" y1="357.969" x2="650" y2="357.969" stroke="#e6e6e6" stroke-width="1" />
  <line x1="60" y1="275.594" x2="650" y2="275.594" stroke="#e6e6e6" stroke-width="1" />
  <line x1="60" y1="193.218" x2="650" y2="193.218" stroke="#e6e6e6" stroke-width="1" />
  <line x1="60" y1="110.843" x2="650" y2="110.843" stroke="#e6e6e6" stroke-width="1" />
</g>
<g class="algraf-layer algraf-geom-point">
  <circle cx="158.333" cy="354.674" r="3" fill="#4E79A7" opacity="0.4" />
  <circle cx="158.333" cy="440.345" r="3" fill="#4E79A7" opacity="0.4" />
  <circle cx="158.333" cy="267.356" r="3" fill="#4E79A7" opacity="0.4" />
  <circle cx="158.333" cy="306.897" r="3" fill="#4E79A7" opacity="0.4" />
  <circle cx="158.333" cy="400.805" r="3" fill="#4E79A7" opacity="0.4" />
  <circle cx="355" cy="180.038" r="3" fill="#F28E2B" opacity="0.4" />
  <circle cx="355" cy="107.548" r="3" fill="#F28E2B" opacity="0.4" />
  <circle cx="355" cy="143.793" r="3" fill="#F28E2B" opacity="0.4" />
  <circle cx="355" cy="69.655" r="3" fill="#F28E2B" opacity="0.4" />
  <circle cx="355" cy="194.866" r="3" fill="#F28E2B" opacity="0.4" />
  <circle cx="551.667" cy="275.594" r="3" fill="#E15759" opacity="0.4" />
  <circle cx="551.667" cy="201.456" r="3" fill="#E15759" opacity="0.4" />
  <circle cx="551.667" cy="295.364" r="3" fill="#E15759" opacity="0.4" />
</g>
<g class="algraf-axes">
  <line x1="60" y1="470" x2="650" y2="470" stroke="#333333" stroke-width="1" />
  <line x1="158.333" y1="470" x2="158.333" y2="475" stroke="#333333" stroke-width="1" />
  <text x="158.333" y="488" text-anchor="middle" font-family="system-ui, sans-serif" font-size="12" fill="#222222">Female</text>
  <line x1="355" y1="470" x2="355" y2="475" stroke="#333333" stroke-width="1" />
  <text x="355" y="488" text-anchor="middle" font-family="system-ui, sans-serif" font-size="12" fill="#222222">Male</text>
  <line x1="551.667" y1="470" x2="551.667" y2="475" stroke="#333333" stroke-width="1" />
  <text x="551.667" y="488" text-anchor="middle" font-family="system-ui, sans-serif" font-size="12" fill="#222222">Non-binary</text>
  <text x="355" y="508" text-anchor="middle" font-family="system-ui, sans-serif" font-size="12" fill="#222222">gender</text>
  <line x1="60" y1="40" x2="60" y2="470" stroke="#333333" stroke-width="1" />
  <line x1="55" y1="440.345" x2="60" y2="440.345" stroke="#333333" stroke-width="1" />
  <text x="52" y="444.345" text-anchor="end" font-family="system-ui, sans-serif" font-size="12" fill="#222222">160</text>
  <line x1="55" y1="357.969" x2="60" y2="357.969" stroke="#333333" stroke-width="1" />
  <text x="52" y="361.969" text-anchor="end" font-family="system-ui, sans-serif" font-size="12" fill="#222222">165</text>
  <line x1="55" y1="275.594" x2="60" y2="275.594" stroke="#333333" stroke-width="1" />
  <text x="52" y="279.594" text-anchor="end" font-family="system-ui, sans-serif" font-size="12" fill="#222222">170</text>
  <line x1="55" y1="193.218" x2="60" y2="193.218" stroke="#333333" stroke-width="1" />
  <text x="52" y="197.218" text-anchor="end" font-family="system-ui, sans-serif" font-size="12" fill="#222222">175</text>
  <line x1="55" y1="110.843" x2="60" y2="110.843" stroke="#333333" stroke-width="1" />
  <text x="52" y="114.843" text-anchor="end" font-family="system-ui, sans-serif" font-size="12" fill="#222222">180</text>
  <text x="18.4" y="255" text-anchor="middle" transform="rotate(-90 18.4 255)" font-family="system-ui, sans-serif" font-size="12" fill="#222222">height</text>
</g>
<g class="algraf-legends">
  <text x="666" y="44" text-anchor="start" font-family="system-ui, sans-serif" font-size="12" fill="#222222">gender</text>
  <rect x="666" y="52" width="12" height="12" fill="#4E79A7" />
  <text x="684" y="62" text-anchor="start" font-family="system-ui, sans-serif" font-size="12" fill="#222222">Female</text>
  <rect x="666" y="70" width="12" height="12" fill="#F28E2B" />
  <text x="684" y="80" text-anchor="start" font-family="system-ui, sans-serif" font-size="12" fill="#222222">Male</text>
  <rect x="666" y="88" width="12" height="12" fill="#E15759" />
  <text x="684" y="98" text-anchor="start" font-family="system-ui, sans-serif" font-size="12" fill="#222222">Non-binary</text>
</g>
</svg>
