<svg xmlns="http://www.w3.org/2000/svg" width="720" height="500" viewBox="0 0 720 500" role="img" aria-label="2D rectangular bins">
<title>2D rectangular bins</title>
<rect class="algraf-background" x="0" y="0" width="720" height="500" fill="#ffffff" />
<text class="algraf-title" x="60.8" y="24" font-family="system-ui, sans-serif" font-size="18" font-weight="600" fill="#222222">2D rectangular bins</text>
<rect class="algraf-plot-area" x="60.8" y="66" width="509.2" height="384" fill="#ffffff" />
<g class="algraf-grid">
  <line x1="111.72" y1="66" x2="111.72" y2="450" stroke="#f2f2f2" stroke-width="0.6" />
  <line x1="184.463" y1="66" x2="184.463" y2="450" stroke="#f2f2f2" stroke-width="0.6" />
  <line x1="257.206" y1="66" x2="257.206" y2="450" stroke="#f2f2f2" stroke-width="0.6" />
  <line x1="329.949" y1="66" x2="329.949" y2="450" stroke="#f2f2f2" stroke-width="0.6" />
  <line x1="402.691" y1="66" x2="402.691" y2="450" stroke="#f2f2f2" stroke-width="0.6" />
  <line x1="475.434" y1="66" x2="475.434" y2="450" stroke="#f2f2f2" stroke-width="0.6" />
  <line x1="60.8" y1="409.326" x2="570" y2="409.326" stroke="#f2f2f2" stroke-width="0.6" />
  <line x1="60.8" y1="362.022" x2="570" y2="362.022" stroke="#f2f2f2" stroke-width="0.6" />
  <line x1="60.8" y1="314.718" x2="570" y2="314.718" stroke="#f2f2f2" stroke-width="0.6" />
  <line x1="60.8" y1="267.414" x2="570" y2="267.414" stroke="#f2f2f2" stroke-width="0.6" />
  <line x1="60.8" y1="220.109" x2="570" y2="220.109" stroke="#f2f2f2" stroke-width="0.6" />
  <line x1="60.8" y1="172.805" x2="570" y2="172.805" stroke="#f2f2f2" stroke-width="0.6" />
  <line x1="60.8" y1="125.501" x2="570" y2="125.501" stroke="#f2f2f2" stroke-width="0.6" />
  <line x1="75.349" y1="66" x2="75.349" y2="450" stroke="#e6e6e6" stroke-width="1" />
  <line x1="148.091" y1="66" x2="148.091" y2="450" stroke="#e6e6e6" stroke-width="1" />
  <line x1="220.834" y1="66" x2="220.834" y2="450" stroke="#e6e6e6" stroke-width="1" />
  <line x1="293.577" y1="66" x2="293.577" y2="450" stroke="#e6e6e6" stroke-width="1" />
  <line x1="366.32" y1="66" x2="366.32" y2="450" stroke="#e6e6e6" stroke-width="1" />
  <line x1="439.063" y1="66" x2="439.063" y2="450" stroke="#e6e6e6" stroke-width="1" />
  <line x1="511.806" y1="66" x2="511.806" y2="450" stroke="#e6e6e6" stroke-width="1" />
  <line x1="60.8" y1="432.978" x2="570" y2="432.978" stroke="#e6e6e6" stroke-width="1" />
  <line x1="60.8" y1="385.674" x2="570" y2="385.674" stroke="#e6e6e6" stroke-width="1" />
  <line x1="60.8" y1="338.37" x2="570" y2="338.37" stroke="#e6e6e6" stroke-width="1" />
  <line x1="60.8" y1="291.066" x2="570" y2="291.066" stroke="#e6e6e6" stroke-width="1" />
  <line x1="60.8" y1="243.761" x2="570" y2="243.761" stroke="#e6e6e6" stroke-width="1" />
  <line x1="60.8" y1="196.457" x2="570" y2="196.457" stroke="#e6e6e6" stroke-width="1" />
  <line x1="60.8" y1="149.153" x2="570" y2="149.153" stroke="#e6e6e6" stroke-width="1" />
  <line x1="60.8" y1="101.849" x2="570" y2="101.849" stroke="#e6e6e6" stroke-width="1" />
</g>
<g class="algraf-layer algraf-geom-rect">
  <rect x="60.8" y="395.931" width="42.433" height="27.586" fill="#3f1e65" opacity="1" />
  <rect x="103.233" y="395.931" width="42.433" height="27.586" fill="#440154" opacity="1" />
  <rect x="145.667" y="395.931" width="42.433" height="27.586" fill="#440154" opacity="1" />
  <rect x="60.8" y="368.345" width="42.433" height="27.586" fill="#41105c" opacity="1" />
  <rect x="103.233" y="368.345" width="42.433" height="27.586" fill="#3f1e65" opacity="1" />
  <rect x="145.667" y="368.345" width="42.433" height="27.586" fill="#3c2d6d" opacity="1" />
  <rect x="103.233" y="340.759" width="42.433" height="27.586" fill="#41105c" opacity="1" />
  <rect x="145.667" y="340.759" width="42.433" height="27.586" fill="#3f1e65" opacity="1" />
  <rect x="188.1" y="340.759" width="42.433" height="27.586" fill="#41105c" opacity="1" />
  <rect x="230.533" y="340.759" width="42.433" height="27.586" fill="#41105c" opacity="1" />
  <rect x="145.667" y="313.172" width="42.433" height="27.586" fill="#364b7d" opacity="1" />
  <rect x="188.1" y="313.172" width="42.433" height="27.586" fill="#fde725" opacity="1" />
  <rect x="230.533" y="313.172" width="42.433" height="27.586" fill="#6ec561" opacity="1" />
  <rect x="272.967" y="313.172" width="42.433" height="27.586" fill="#31688e" opacity="1" />
  <rect x="315.4" y="313.172" width="42.433" height="27.586" fill="#41105c" opacity="1" />
  <rect x="60.8" y="285.586" width="42.433" height="27.586" fill="#440154" opacity="1" />
  <rect x="145.667" y="285.586" width="42.433" height="27.586" fill="#41105c" opacity="1" />
  <rect x="188.1" y="285.586" width="42.433" height="27.586" fill="#c4d93d" opacity="1" />
  <rect x="230.533" y="285.586" width="42.433" height="27.586" fill="#c4d93d" opacity="1" />
  <rect x="272.967" y="285.586" width="42.433" height="27.586" fill="#327f88" opacity="1" />
  <rect x="315.4" y="285.586" width="42.433" height="27.586" fill="#3f1e65" opacity="1" />
  <rect x="188.1" y="258" width="42.433" height="27.586" fill="#440154" opacity="1" />
  <rect x="230.533" y="258" width="42.433" height="27.586" fill="#34a07f" opacity="1" />
  <rect x="272.967" y="258" width="42.433" height="27.586" fill="#31688e" opacity="1" />
  <rect x="315.4" y="258" width="42.433" height="27.586" fill="#34a07f" opacity="1" />
  <rect x="357.833" y="258" width="42.433" height="27.586" fill="#393c75" opacity="1" />
  <rect x="188.1" y="230.414" width="42.433" height="27.586" fill="#41105c" opacity="1" />
  <rect x="230.533" y="230.414" width="42.433" height="27.586" fill="#440154" opacity="1" />
  <rect x="272.967" y="230.414" width="42.433" height="27.586" fill="#32738b" opacity="1" />
  <rect x="315.4" y="230.414" width="42.433" height="27.586" fill="#31688e" opacity="1" />
  <rect x="357.833" y="230.414" width="42.433" height="27.586" fill="#31688e" opacity="1" />
  <rect x="400.267" y="230.414" width="42.433" height="27.586" fill="#3f1e65" opacity="1" />
  <rect x="442.7" y="230.414" width="42.433" height="27.586" fill="#440154" opacity="1" />
  <rect x="272.967" y="202.828" width="42.433" height="27.586" fill="#393c75" opacity="1" />
  <rect x="315.4" y="202.828" width="42.433" height="27.586" fill="#52be6d" opacity="1" />
  <rect x="357.833" y="202.828" width="42.433" height="27.586" fill="#32738b" opacity="1" />
  <rect x="400.267" y="202.828" width="42.433" height="27.586" fill="#345986" opacity="1" />
  <rect x="442.7" y="202.828" width="42.433" height="27.586" fill="#3f1e65" opacity="1" />
  <rect x="230.533" y="175.241" width="42.433" height="27.586" fill="#41105c" opacity="1" />
  <rect x="272.967" y="175.241" width="42.433" height="27.586" fill="#440154" opacity="1" />
  <rect x="315.4" y="175.241" width="42.433" height="27.586" fill="#41105c" opacity="1" />
  <rect x="357.833" y="175.241" width="42.433" height="27.586" fill="#339582" opacity="1" />
  <rect x="400.267" y="175.241" width="42.433" height="27.586" fill="#339582" opacity="1" />
  <rect x="442.7" y="175.241" width="42.433" height="27.586" fill="#3f1e65" opacity="1" />
  <rect x="315.4" y="147.655" width="42.433" height="27.586" fill="#3f1e65" opacity="1" />
  <rect x="357.833" y="147.655" width="42.433" height="27.586" fill="#440154" opacity="1" />
  <rect x="400.267" y="147.655" width="42.433" height="27.586" fill="#393c75" opacity="1" />
  <rect x="442.7" y="147.655" width="42.433" height="27.586" fill="#364b7d" opacity="1" />
  <rect x="485.133" y="147.655" width="42.433" height="27.586" fill="#440154" opacity="1" />
  <rect x="357.833" y="120.069" width="42.433" height="27.586" fill="#41105c" opacity="1" />
  <rect x="400.267" y="120.069" width="42.433" height="27.586" fill="#3f1e65" opacity="1" />
  <rect x="442.7" y="120.069" width="42.433" height="27.586" fill="#3c2d6d" opacity="1" />
  <rect x="485.133" y="120.069" width="42.433" height="27.586" fill="#41105c" opacity="1" />
  <rect x="527.567" y="120.069" width="42.433" height="27.586" fill="#440154" opacity="1" />
  <rect x="400.267" y="92.483" width="42.433" height="27.586" fill="#440154" opacity="1" />
  <rect x="485.133" y="92.483" width="42.433" height="27.586" fill="#41105c" opacity="1" />
  <rect x="527.567" y="92.483" width="42.433" height="27.586" fill="#440154" opacity="1" />
</g>
<g class="algraf-axes">
  <line x1="60.8" y1="450" x2="570" y2="450" stroke="#333333" stroke-width="1" />
  <line x1="75.349" y1="450" x2="75.349" y2="455" stroke="#333333" stroke-width="1" />
  <text x="75.349" y="468" text-anchor="middle" font-family="system-ui, sans-serif" font-size="12" fill="#222222">170</text>
  <line x1="148.091" y1="450" x2="148.091" y2="455" stroke="#333333" stroke-width="1" />
  <text x="148.091" y="468" text-anchor="middle" font-family="system-ui, sans-serif" font-size="12" fill="#222222">180</text>
  <line x1="220.834" y1="450" x2="220.834" y2="455" stroke="#333333" stroke-width="1" />
  <text x="220.834" y="468" text-anchor="middle" font-family="system-ui, sans-serif" font-size="12" fill="#222222">190</text>
  <line x1="293.577" y1="450" x2="293.577" y2="455" stroke="#333333" stroke-width="1" />
  <text x="293.577" y="468" text-anchor="middle" font-family="system-ui, sans-serif" font-size="12" fill="#222222">200</text>
  <line x1="366.32" y1="450" x2="366.32" y2="455" stroke="#333333" stroke-width="1" />
  <text x="366.32" y="468" text-anchor="middle" font-family="system-ui, sans-serif" font-size="12" fill="#222222">210</text>
  <line x1="439.063" y1="450" x2="439.063" y2="455" stroke="#333333" stroke-width="1" />
  <text x="439.063" y="468" text-anchor="middle" font-family="system-ui, sans-serif" font-size="12" fill="#222222">220</text>
  <line x1="511.806" y1="450" x2="511.806" y2="455" stroke="#333333" stroke-width="1" />
  <text x="511.806" y="468" text-anchor="middle" font-family="system-ui, sans-serif" font-size="12" fill="#222222">230</text>
  <text x="315.4" y="488" text-anchor="middle" font-family="system-ui, sans-serif" font-size="12" fill="#222222">x start + x end</text>
  <line x1="60.8" y1="66" x2="60.8" y2="450" stroke="#333333" stroke-width="1" />
  <line x1="55.8" y1="432.978" x2="60.8" y2="432.978" stroke="#333333" stroke-width="1" />
  <text x="52.8" y="436.978" text-anchor="end" font-family="system-ui, sans-serif" font-size="12" fill="#222222">2500</text>
  <line x1="55.8" y1="385.674" x2="60.8" y2="385.674" stroke="#333333" stroke-width="1" />
  <text x="52.8" y="389.674" text-anchor="end" font-family="system-ui, sans-serif" font-size="12" fill="#222222">3000</text>
  <line x1="55.8" y1="338.37" x2="60.8" y2="338.37" stroke="#333333" stroke-width="1" />
  <text x="52.8" y="342.37" text-anchor="end" font-family="system-ui, sans-serif" font-size="12" fill="#222222">3500</text>
  <line x1="55.8" y1="291.066" x2="60.8" y2="291.066" stroke="#333333" stroke-width="1" />
  <text x="52.8" y="295.066" text-anchor="end" font-family="system-ui, sans-serif" font-size="12" fill="#222222">4000</text>
  <line x1="55.8" y1="243.761" x2="60.8" y2="243.761" stroke="#333333" stroke-width="1" />
  <text x="52.8" y="247.761" text-anchor="end" font-family="system-ui, sans-serif" font-size="12" fill="#222222">4500</text>
  <line x1="55.8" y1="196.457" x2="60.8" y2="196.457" stroke="#333333" stroke-width="1" />
  <text x="52.8" y="200.457" text-anchor="end" font-family="system-ui, sans-serif" font-size="12" fill="#222222">5000</text>
  <line x1="55.8" y1="149.153" x2="60.8" y2="149.153" stroke="#333333" stroke-width="1" />
  <text x="52.8" y="153.153" text-anchor="end" font-family="system-ui, sans-serif" font-size="12" fill="#222222">5500</text>
  <line x1="55.8" y1="101.849" x2="60.8" y2="101.849" stroke="#333333" stroke-width="1" />
  <text x="52.8" y="105.849" text-anchor="end" font-family="system-ui, sans-serif" font-size="12" fill="#222222">6000</text>
  <text x="12" y="258" text-anchor="middle" transform="rotate(-90 12 258)" font-family="system-ui, sans-serif" font-size="12" fill="#222222">y start + y end</text>
</g>
<g class="algraf-legends">
  <text x="586" y="70" text-anchor="start" font-family="system-ui, sans-serif" font-size="12" fill="#222222">count</text>
  <rect x="586" y="84" width="22" height="1.75" fill="#fce726" />
  <rect x="586" y="85" width="22" height="1.75" fill="#f9e627" />
  <rect x="586" y="86" width="22" height="1.75" fill="#f6e528" />
  <rect x="586" y="87" width="22" height="1.75" fill="#f3e529" />
  <rect x="586" y="88" width="22" height="1.75" fill="#f1e42a" />
  <rect x="586" y="89" width="22" height="1.75" fill="#eee32b" />
  <rect x="586" y="90" width="22" height="1.75" fill="#ebe32c" />
  <rect x="586" y="91" width="22" height="1.75" fill="#e9e22e" />
  <rect x="586" y="92" width="22" height="1.75" fill="#e6e12f" />
  <rect x="586" y="93" width="22" height="1.75" fill="#e3e130" />
  <rect x="586" y="94" width="22" height="1.75" fill="#e0e031" />
  <rect x="586" y="95" width="22" height="1.75" fill="#dedf32" />
  <rect x="586" y="96" width="22" height="1.75" fill="#dbdf33" />
  <rect x="586" y="97" width="22" height="1.75" fill="#d8de34" />
  <rect x="586" y="98" width="22" height="1.75" fill="#d5de36" />
  <rect x="586" y="99" width="22" height="1.75" fill="#d3dd37" />
  <rect x="586" y="100" width="22" height="1.75" fill="#d0dc38" />
  <rect x="586" y="101" width="22" height="1.75" fill="#cddc39" />
  <rect x="586" y="102" width="22" height="1.75" fill="#cbdb3a" />
  <rect x="586" y="103" width="22" height="1.75" fill="#c8da3b" />
  <rect x="586" y="104" width="22" height="1.75" fill="#c5da3c" />
  <rect x="586" y="105" width="22" height="1.75" fill="#c2d93e" />
  <rect x="586" y="106" width="22" height="1.75" fill="#c0d83f" />
  <rect x="586" y="107" width="22" height="1.75" fill="#bdd840" />
  <rect x="586" y="108" width="22" height="1.75" fill="#bad741" />
  <rect x="586" y="109" width="22" height="1.75" fill="#b7d642" />
  <rect x="586" y="110" width="22" height="1.75" fill="#b5d643" />
  <rect x="586" y="111" width="22" height="1.75" fill="#b2d545" />
  <rect x="586" y="112" width="22" height="1.75" fill="#afd446" />
  <rect x="586" y="113" width="22" height="1.75" fill="#add447" />
  <rect x="586" y="114" width="22" height="1.75" fill="#aad348" />
  <rect x="586" y="115" width="22" height="1.75" fill="#a7d249" />
  <rect x="586" y="116" width="22" height="1.75" fill="#a4d24a" />
  <rect x="586" y="117" width="22" height="1.75" fill="#a2d14b" />
  <rect x="586" y="118" width="22" height="1.75" fill="#9fd04d" />
  <rect x="586" y="119" width="22" height="1.75" fill="#9cd04e" />
  <rect x="586" y="120" width="22" height="1.75" fill="#99cf4f" />
  <rect x="586" y="121" width="22" height="1.75" fill="#97ce50" />
  <rect x="586" y="122" width="22" height="1.75" fill="#94ce51" />
  <rect x="586" y="123" width="22" height="1.75" fill="#91cd52" />
  <rect x="586" y="124" width="22" height="1.75" fill="#8fcc53" />
  <rect x="586" y="125" width="22" height="1.75" fill="#8ccc55" />
  <rect x="586" y="126" width="22" height="1.75" fill="#89cb56" />
  <rect x="586" y="127" width="22" height="1.75" fill="#86cb57" />
  <rect x="586" y="128" width="22" height="1.75" fill="#84ca58" />
  <rect x="586" y="129" width="22" height="1.75" fill="#81c959" />
  <rect x="586" y="130" width="22" height="1.75" fill="#7ec95a" />
  <rect x="586" y="131" width="22" height="1.75" fill="#7bc85b" />
  <rect x="586" y="132" width="22" height="1.75" fill="#79c75d" />
  <rect x="586" y="133" width="22" height="1.75" fill="#76c75e" />
  <rect x="586" y="134" width="22" height="1.75" fill="#73c65f" />
  <rect x="586" y="135" width="22" height="1.75" fill="#71c560" />
  <rect x="586" y="136" width="22" height="1.75" fill="#6ec561" />
  <rect x="586" y="137" width="22" height="1.75" fill="#6bc462" />
  <rect x="586" y="138" width="22" height="1.75" fill="#68c363" />
  <rect x="586" y="139" width="22" height="1.75" fill="#66c365" />
  <rect x="586" y="140" width="22" height="1.75" fill="#63c266" />
  <rect x="586" y="141" width="22" height="1.75" fill="#60c167" />
  <rect x="586" y="142" width="22" height="1.75" fill="#5dc168" />
  <rect x="586" y="143" width="22" height="1.75" fill="#5bc069" />
  <rect x="586" y="144" width="22" height="1.75" fill="#58bf6a" />
  <rect x="586" y="145" width="22" height="1.75" fill="#55bf6b" />
  <rect x="586" y="146" width="22" height="1.75" fill="#53be6d" />
  <rect x="586" y="147" width="22" height="1.75" fill="#50bd6e" />
  <rect x="586" y="148" width="22" height="1.75" fill="#4dbd6f" />
  <rect x="586" y="149" width="22" height="1.75" fill="#4abc70" />
  <rect x="586" y="150" width="22" height="1.75" fill="#48bb71" />
  <rect x="586" y="151" width="22" height="1.75" fill="#45bb72" />
  <rect x="586" y="152" width="22" height="1.75" fill="#42ba73" />
  <rect x="586" y="153" width="22" height="1.75" fill="#3fba75" />
  <rect x="586" y="154" width="22" height="1.75" fill="#3db976" />
  <rect x="586" y="155" width="22" height="1.75" fill="#3ab877" />
  <rect x="586" y="156" width="22" height="1.75" fill="#37b878" />
  <rect x="586" y="157" width="22" height="1.75" fill="#35b779" />
  <rect x="586" y="158" width="22" height="1.75" fill="#35b679" />
  <rect x="586" y="159" width="22" height="1.75" fill="#35b57a" />
  <rect x="586" y="160" width="22" height="1.75" fill="#35b47a" />
  <rect x="586" y="161" width="22" height="1.75" fill="#35b37a" />
  <rect x="586" y="162" width="22" height="1.75" fill="#35b17a" />
  <rect x="586" y="163" width="22" height="1.75" fill="#35b07b" />
  <rect x="586" y="164" width="22" height="1.75" fill="#35af7b" />
  <rect x="586" y="165" width="22" height="1.75" fill="#35ae7b" />
  <rect x="586" y="166" width="22" height="1.75" fill="#35ad7c" />
  <rect x="586" y="167" width="22" height="1.75" fill="#34ac7c" />
  <rect x="586" y="168" width="22" height="1.75" fill="#34ab7c" />
  <rect x="586" y="169" width="22" height="1.75" fill="#34aa7c" />
  <rect x="586" y="170" width="22" height="1.75" fill="#34a97d" />
  <rect x="586" y="171" width="22" height="1.75" fill="#34a87d" />
  <rect x="586" y="172" width="22" height="1.75" fill="#34a77d" />
  <rect x="586" y="173" width="22" height="1.75" fill="#34a67e" />
  <rect x="586" y="174" width="22" height="1.75" fill="#34a57e" />
  <rect x="586" y="175" width="22" height="1.75" fill="#34a37e" />
  <rect x="586" y="176" width="22" height="1.75" fill="#34a27e" />
  <rect x="586" y="177" width="22" height="1.75" fill="#34a17f" />
  <rect x="586" y="178" width="22" height="1.75" fill="#34a07f" />
  <rect x="586" y="179" width="22" height="1.75" fill="#349f7f" />
  <rect x="586" y="180" width="22" height="1.75" fill="#349e80" />
  <rect x="586" y="181" width="22" height="1.75" fill="#349d80" />
  <rect x="586" y="182" width="22" height="1.75" fill="#349c80" />
  <rect x="586" y="183" width="22" height="1.75" fill="#349b80" />
  <rect x="586" y="184" width="22" height="1.75" fill="#349a81" />
  <rect x="586" y="185" width="22" height="1.75" fill="#339981" />
  <rect x="586" y="186" width="22" height="1.75" fill="#339881" />
  <rect x="586" y="187" width="22" height="1.75" fill="#339782" />
  <rect x="586" y="188" width="22" height="1.75" fill="#339582" />
  <rect x="586" y="189" width="22" height="1.75" fill="#339482" />
  <rect x="586" y="190" width="22" height="1.75" fill="#339382" />
  <rect x="586" y="191" width="22" height="1.75" fill="#339283" />
  <rect x="586" y="192" width="22" height="1.75" fill="#339183" />
  <rect x="586" y="193" width="22" height="1.75" fill="#339083" />
  <rect x="586" y="194" width="22" height="1.75" fill="#338f84" />
  <rect x="586" y="195" width="22" height="1.75" fill="#338e84" />
  <rect x="586" y="196" width="22" height="1.75" fill="#338d84" />
  <rect x="586" y="197" width="22" height="1.75" fill="#338c85" />
  <rect x="586" y="198" width="22" height="1.75" fill="#338b85" />
  <rect x="586" y="199" width="22" height="1.75" fill="#338a85" />
  <rect x="586" y="200" width="22" height="1.75" fill="#338885" />
  <rect x="586" y="201" width="22" height="1.75" fill="#338786" />
  <rect x="586" y="202" width="22" height="1.75" fill="#338686" />
  <rect x="586" y="203" width="22" height="1.75" fill="#328586" />
  <rect x="586" y="204" width="22" height="1.75" fill="#328487" />
  <rect x="586" y="205" width="22" height="1.75" fill="#328387" />
  <rect x="586" y="206" width="22" height="1.75" fill="#328287" />
  <rect x="586" y="207" width="22" height="1.75" fill="#328187" />
  <rect x="586" y="208" width="22" height="1.75" fill="#328088" />
  <rect x="586" y="209" width="22" height="1.75" fill="#327f88" />
  <rect x="586" y="210" width="22" height="1.75" fill="#327e88" />
  <rect x="586" y="211" width="22" height="1.75" fill="#327d89" />
  <rect x="586" y="212" width="22" height="1.75" fill="#327c89" />
  <rect x="586" y="213" width="22" height="1.75" fill="#327a89" />
  <rect x="586" y="214" width="22" height="1.75" fill="#327989" />
  <rect x="586" y="215" width="22" height="1.75" fill="#32788a" />
  <rect x="586" y="216" width="22" height="1.75" fill="#32778a" />
  <rect x="586" y="217" width="22" height="1.75" fill="#32768a" />
  <rect x="586" y="218" width="22" height="1.75" fill="#32758b" />
  <rect x="586" y="219" width="22" height="1.75" fill="#32748b" />
  <rect x="586" y="220" width="22" height="1.75" fill="#32738b" />
  <rect x="586" y="221" width="22" height="1.75" fill="#32728b" />
  <rect x="586" y="222" width="22" height="1.75" fill="#31718c" />
  <rect x="586" y="223" width="22" height="1.75" fill="#31708c" />
  <rect x="586" y="224" width="22" height="1.75" fill="#316f8c" />
  <rect x="586" y="225" width="22" height="1.75" fill="#316e8d" />
  <rect x="586" y="226" width="22" height="1.75" fill="#316c8d" />
  <rect x="586" y="227" width="22" height="1.75" fill="#316b8d" />
  <rect x="586" y="228" width="22" height="1.75" fill="#316a8d" />
  <rect x="586" y="229" width="22" height="1.75" fill="#31698e" />
  <rect x="586" y="230" width="22" height="1.75" fill="#31688e" />
  <rect x="586" y="231" width="22" height="1.75" fill="#31678d" />
  <rect x="586" y="232" width="22" height="1.75" fill="#31658d" />
  <rect x="586" y="233" width="22" height="1.75" fill="#32648c" />
  <rect x="586" y="234" width="22" height="1.75" fill="#32638b" />
  <rect x="586" y="235" width="22" height="1.75" fill="#32618a" />
  <rect x="586" y="236" width="22" height="1.75" fill="#336089" />
  <rect x="586" y="237" width="22" height="1.75" fill="#335e89" />
  <rect x="586" y="238" width="22" height="1.75" fill="#335d88" />
  <rect x="586" y="239" width="22" height="1.75" fill="#335c87" />
  <rect x="586" y="240" width="22" height="1.75" fill="#345a86" />
  <rect x="586" y="241" width="22" height="1.75" fill="#345985" />
  <rect x="586" y="242" width="22" height="1.75" fill="#345785" />
  <rect x="586" y="243" width="22" height="1.75" fill="#345684" />
  <rect x="586" y="244" width="22" height="1.75" fill="#355583" />
  <rect x="586" y="245" width="22" height="1.75" fill="#355382" />
  <rect x="586" y="246" width="22" height="1.75" fill="#355281" />
  <rect x="586" y="247" width="22" height="1.75" fill="#355081" />
  <rect x="586" y="248" width="22" height="1.75" fill="#364f80" />
  <rect x="586" y="249" width="22" height="1.75" fill="#364e7f" />
  <rect x="586" y="250" width="22" height="1.75" fill="#364c7e" />
  <rect x="586" y="251" width="22" height="1.75" fill="#364b7e" />
  <rect x="586" y="252" width="22" height="1.75" fill="#37497d" />
  <rect x="586" y="253" width="22" height="1.75" fill="#37487c" />
  <rect x="586" y="254" width="22" height="1.75" fill="#37477b" />
  <rect x="586" y="255" width="22" height="1.75" fill="#37457a" />
  <rect x="586" y="256" width="22" height="1.75" fill="#38447a" />
  <rect x="586" y="257" width="22" height="1.75" fill="#384279" />
  <rect x="586" y="258" width="22" height="1.75" fill="#384178" />
  <rect x="586" y="259" width="22" height="1.75" fill="#384077" />
  <rect x="586" y="260" width="22" height="1.75" fill="#393e76" />
  <rect x="586" y="261" width="22" height="1.75" fill="#393d76" />
  <rect x="586" y="262" width="22" height="1.75" fill="#393b75" />
  <rect x="586" y="263" width="22" height="1.75" fill="#3a3a74" />
  <rect x="586" y="264" width="22" height="1.75" fill="#3a3873" />
  <rect x="586" y="265" width="22" height="1.75" fill="#3a3772" />
  <rect x="586" y="266" width="22" height="1.75" fill="#3a3672" />
  <rect x="586" y="267" width="22" height="1.75" fill="#3b3471" />
  <rect x="586" y="268" width="22" height="1.75" fill="#3b3370" />
  <rect x="586" y="269" width="22" height="1.75" fill="#3b316f" />
  <rect x="586" y="270" width="22" height="1.75" fill="#3b306e" />
  <rect x="586" y="271" width="22" height="1.75" fill="#3c2f6e" />
  <rect x="586" y="272" width="22" height="1.75" fill="#3c2d6d" />
  <rect x="586" y="273" width="22" height="1.75" fill="#3c2c6c" />
  <rect x="586" y="274" width="22" height="1.75" fill="#3c2a6b" />
  <rect x="586" y="275" width="22" height="1.75" fill="#3d296b" />
  <rect x="586" y="276" width="22" height="1.75" fill="#3d286a" />
  <rect x="586" y="277" width="22" height="1.75" fill="#3d2669" />
  <rect x="586" y="278" width="22" height="1.75" fill="#3d2568" />
  <rect x="586" y="279" width="22" height="1.75" fill="#3e2367" />
  <rect x="586" y="280" width="22" height="1.75" fill="#3e2267" />
  <rect x="586" y="281" width="22" height="1.75" fill="#3e2166" />
  <rect x="586" y="282" width="22" height="1.75" fill="#3e1f65" />
  <rect x="586" y="283" width="22" height="1.75" fill="#3f1e64" />
  <rect x="586" y="284" width="22" height="1.75" fill="#3f1c63" />
  <rect x="586" y="285" width="22" height="1.75" fill="#3f1b63" />
  <rect x="586" y="286" width="22" height="1.75" fill="#3f1a62" />
  <rect x="586" y="287" width="22" height="1.75" fill="#401861" />
  <rect x="586" y="288" width="22" height="1.75" fill="#401760" />
  <rect x="586" y="289" width="22" height="1.75" fill="#40155f" />
  <rect x="586" y="290" width="22" height="1.75" fill="#41145f" />
  <rect x="586" y="291" width="22" height="1.75" fill="#41135e" />
  <rect x="586" y="292" width="22" height="1.75" fill="#41115d" />
  <rect x="586" y="293" width="22" height="1.75" fill="#41105c" />
  <rect x="586" y="294" width="22" height="1.75" fill="#420e5c" />
  <rect x="586" y="295" width="22" height="1.75" fill="#420d5b" />
  <rect x="586" y="296" width="22" height="1.75" fill="#420c5a" />
  <rect x="586" y="297" width="22" height="1.75" fill="#420a59" />
  <rect x="586" y="298" width="22" height="1.75" fill="#430958" />
  <rect x="586" y="299" width="22" height="1.75" fill="#430758" />
  <rect x="586" y="300" width="22" height="1.75" fill="#430657" />
  <rect x="586" y="301" width="22" height="1.75" fill="#430556" />
  <rect x="586" y="302" width="22" height="1.75" fill="#440355" />
  <rect x="586" y="303" width="22" height="1" fill="#440254" />
  <text x="616" y="308" text-anchor="start" font-family="system-ui, sans-serif" font-size="12" fill="#222222">1</text>
  <text x="616" y="253" text-anchor="start" font-family="system-ui, sans-serif" font-size="12" fill="#222222">6.25</text>
  <text x="616" y="198" text-anchor="start" font-family="system-ui, sans-serif" font-size="12" fill="#222222">11.5</text>
  <text x="616" y="143" text-anchor="start" font-family="system-ui, sans-serif" font-size="12" fill="#222222">16.75</text>
  <text x="616" y="88" text-anchor="start" font-family="system-ui, sans-serif" font-size="12" fill="#222222">22</text>
</g>
</svg>
