<svg xmlns="http://www.w3.org/2000/svg" width="720" height="500" viewBox="0 0 720 500" role="img" aria-label="2D rectangular bins">
<title>2D rectangular bins</title>
<rect class="algraf-background" x="0" y="0" width="720" height="500" fill="#ffffff" />
<text class="algraf-title" x="60.8" y="24" font-family="system-ui, sans-serif" font-size="18" font-weight="600" fill="#222222">2D rectangular bins</text>
<rect class="algraf-plot-area" x="60.8" y="66" width="509.2" height="384" fill="#ffffff" />
<g class="algraf-grid">
  <line x1="111.72" y1="66" x2="111.72" y2="450" stroke="#f2f2f2" stroke-width="0.6" />
  <line x1="184.463" y1="66" x2="184.463" y2="450" stroke="#f2f2f2" stroke-width="0.6" />
  <line x1="257.206" y1="66" x2="257.206" y2="450" stroke="#f2f2f2" stroke-width="0.6" />
  <line x1="329.949" y1="66" x2="329.949" y2="450" stroke="#f2f2f2" stroke-width="0.6" />
  <line x1="402.691" y1="66" x2="402.691" y2="450" stroke="#f2f2f2" stroke-width="0.6" />
  <line x1="475.434" y1="66" x2="475.434" y2="450" stroke="#f2f2f2" stroke-width="0.6" />
  <line x1="60.8" y1="409.326" x2="570" y2="409.326" stroke="#f2f2f2" stroke-width="0.6" />
  <line x1="60.8" y1="362.022" x2="570" y2="362.022" stroke="#f2f2f2" stroke-width="0.6" />
  <line x1="60.8" y1="314.718" x2="570" y2="314.718" stroke="#f2f2f2" stroke-width="0.6" />
  <line x1="60.8" y1="267.414" x2="570" y2="267.414" stroke="#f2f2f2" stroke-width="0.6" />
  <line x1="60.8" y1="220.109" x2="570" y2="220.109" stroke="#f2f2f2" stroke-width="0.6" />
  <line x1="60.8" y1="172.805" x2="570" y2="172.805" stroke="#f2f2f2" stroke-width="0.6" />
  <line x1="60.8" y1="125.501" x2="570" y2="125.501" stroke="#f2f2f2" stroke-width="0.6" />
  <line x1="75.349" y1="66" x2="75.349" y2="450" stroke="#e6e6e6" stroke-width="1" />
  <line x1="148.091" y1="66" x2="148.091" y2="450" stroke="#e6e6e6" stroke-width="1" />
  <line x1="220.834" y1="66" x2="220.834" y2="450" stroke="#e6e6e6" stroke-width="1" />
  <line x1="293.577" y1="66" x2="293.577" y2="450" stroke="#e6e6e6" stroke-width="1" />
  <line x1="366.32" y1="66" x2="366.32" y2="450" stroke="#e6e6e6" stroke-width="1" />
  <line x1="439.063" y1="66" x2="439.063" y2="450" stroke="#e6e6e6" stroke-width="1" />
  <line x1="511.806" y1="66" x2="511.806" y2="450" stroke="#e6e6e6" stroke-width="1" />
  <line x1="60.8" y1="432.978" x2="570" y2="432.978" stroke="#e6e6e6" stroke-width="1" />
  <line x1="60.8" y1="385.674" x2="570" y2="385.674" stroke="#e6e6e6" stroke-width="1" />
  <line x1="60.8" y1="338.37" x2="570" y2="338.37" stroke="#e6e6e6" stroke-width="1" />
  <line x1="60.8" y1="291.066" x2="570" y2="291.066" stroke="#e6e6e6" stroke-width="1" />
  <line x1="60.8" y1="243.761" x2="570" y2="243.761" stroke="#e6e6e6" stroke-width="1" />
  <line x1="60.8" y1="196.457" x2="570" y2="196.457" stroke="#e6e6e6" stroke-width="1" />
  <line x1="60.8" y1="149.153" x2="570" y2="149.153" stroke="#e6e6e6" stroke-width="1" />
  <line x1="60.8" y1="101.849" x2="570" y2="101.849" stroke="#e6e6e6" stroke-width="1" />
</g>
<g class="algraf-layer algraf-geom-rect">
  <rect x="60.8" y="395.931" width="42.433" height="27.586" fill="#3f1e65" opacity="1" />
  <rect x="103.233" y="395.931" width="42.433" height="27.586" fill="#440154" opacity="1" />
  <rect x="145.667" y="395.931" width="42.433" height="27.586" fill="#440154" opacity="1" />
  <rect x="60.8" y="368.345" width="42.433" height="27.586" fill="#41105c" opacity="1" />
  <rect x="103.233" y="368.345" width="42.433" height="27.586" fill="#3f1e65" opacity="1" />
  <rect x="145.667" y="368.345" width="42.433" height="27.586" fill="#3c2d6d" opacity="1" />
  <rect x="103.233" y="340.759" width="42.433" height="27.586" fill="#41105c" opacity="1" />
  <rect x="145.667" y="340.759" width="42.433" height="27.586" fill="#3f1e65" opacity="1" />
  <rect x="188.1" y="340.759" width="42.433" height="27.586" fill="#41105c" opacity="1" />
  <rect x="230.533" y="340.759" width="42.433" height="27.586" fill="#41105c" opacity="1" />
  <rect x="145.667" y="313.172" width="42.433" height="27.586" fill="#364b7d" opacity="1" />
  <rect x="188.1" y="313.172" width="42.433" height="27.586" fill="#fde725" opacity="1" />
  <rect x="230.533" y="313.172" width="42.433" height="27.586" fill="#6ec561" opacity="1" />
  <rect x="272.967" y="313.172" width="42.433" height="27.586" fill="#31688e" opacity="1" />
  <rect x="315.4" y="313.172" width="42.433" height="27.586" fill="#41105c" opacity="1" />
  <rect x="60.8" y="285.586" width="42.433" height="27.586" fill="#440154" opacity="1" />
  <rect x="145.667" y="285.586" width="42.433" height="27.586" fill="#41105c" opacity="1" />
  <rect x="188.1" y="285.586" width="42.433" height="27.586" fill="#c4d93d" opacity="1" />
  <rect x="230.533" y="285.586" width="42.433" height="27.586" fill="#c4d93d" opacity="1" />
  <rect x="272.967" y="285.586" width="42.433" height="27.586" fill="#327f88" opacity="1" />
  <rect x="315.4" y="285.586" width="42.433" height="27.586" fill="#3f1e65" opacity="1" />
  <rect x="188.1" y="258" width="42.433" height="27.586" fill="#440154" opacity="1" />
  <rect x="230.533" y="258" width="42.433" height="27.586" fill="#34a07f" opacity="1" />
  <rect x="272.967" y="258" width="42.433" height="27.586" fill="#31688e" opacity="1" />
  <rect x="315.4" y="258" width="42.433" height="27.586" fill="#34a07f" opacity="1" />
  <rect x="357.833" y="258" width="42.433" height="27.586" fill="#393c75" opacity="1" />
  <rect x="188.1" y="230.414" width="42.433" height="27.586" fill="#41105c" opacity="1" />
  <rect x="230.533" y="230.414" width="42.433" height="27.586" fill="#440154" opacity="1" />
  <rect x="272.967" y="230.414" width="42.433" height="27.586" fill="#32738b" opacity="1" />
  <rect x="315.4" y="230.414" width="42.433" height="27.586" fill="#31688e" opacity="1" />
  <rect x="357.833" y="230.414" width="42.433" height="27.586" fill="#31688e" opacity="1" />
  <rect x="400.267" y="230.414" width="42.433" height="27.586" fill="#3f1e65" opacity="1" />
  <rect x="442.7" y="230.414" width="42.433" height="27.586" fill="#440154" opacity="1" />
  <rect x="272.967" y="202.828" width="42.433" height="27.586" fill="#393c75" opacity="1" />
  <rect x="315.4" y="202.828" width="42.433" height="27.586" fill="#52be6d" opacity="1" />
  <rect x="357.833" y="202.828" width="42.433" height="27.586" fill="#32738b" opacity="1" />
  <rect x="400.267" y="202.828" width="42.433" height="27.586" fill="#345986" opacity="1" />
  <rect x="442.7" y="202.828" width="42.433" height="27.586" fill="#3f1e65" opacity="1" />
  <rect x="230.533" y="175.241" width="42.433" height="27.586" fill="#41105c" opacity="1" />
  <rect x="272.967" y="175.241" width="42.433" height="27.586" fill="#440154" opacity="1" />
  <rect x="315.4" y="175.241" width="42.433" height="27.586" fill="#41105c" opacity="1" />
  <rect x="357.833" y="175.241" width="42.433" height="27.586" fill="#339582" opacity="1" />
  <rect x="400.267" y="175.241" width="42.433" height="27.586" fill="#339582" opacity="1" />
  <rect x="442.7" y="175.241" width="42.433" height="27.586" fill="#3f1e65" opacity="1" />
  <rect x="315.4" y="147.655" width="42.433" height="27.586" fill="#3f1e65" opacity="1" />
  <rect x="357.833" y="147.655" width="42.433" height="27.586" fill="#440154" opacity="1" />
  <rect x="400.267" y="147.655" width="42.433" height="27.586" fill="#393c75" opacity="1" />
  <rect x="442.7" y="147.655" width="42.433" height="27.586" fill="#364b7d" opacity="1" />
  <rect x="485.133" y="147.655" width="42.433" height="27.586" fill="#440154" opacity="1" />
  <rect x="357.833" y="120.069" width="42.433" height="27.586" fill="#41105c" opacity="1" />
  <rect x="400.267" y="120.069" width="42.433" height="27.586" fill="#3f1e65" opacity="1" />
  <rect x="442.7" y="120.069" width="42.433" height="27.586" fill="#3c2d6d" opacity="1" />
  <rect x="485.133" y="120.069" width="42.433" height="27.586" fill="#41105c" opacity="1" />
  <rect x="527.567" y="120.069" width="42.433" height="27.586" fill="#440154" opacity="1" />
  <rect x="400.267" y="92.483" width="42.433" height="27.586" fill="#440154" opacity="1" />
  <rect x="485.133" y="92.483" width="42.433" height="27.586" fill="#41105c" opacity="1" />
  <rect x="527.567" y="92.483" width="42.433" height="27.586" fill="#440154" opacity="1" />
</g>
<g class="algraf-axes">
  <line x1="60.8" y1="450" x2="570" y2="450" stroke="#333333" stroke-width="1" />
  <line x1="75.349" y1="450" x2="75.349" y2="455" stroke="#333333" stroke-width="1" />
  <text x="75.349" y="468" text-anchor="middle" font-family="system-ui, sans-serif" font-size="12" fill="#222222">170</text>
  <line x1="148.091" y1="450" x2="148.091" y2="455" stroke="#333333" stroke-width="1" />
  <text x="148.091" y="468" text-anchor="middle" font-family="system-ui, sans-serif" font-size="12" fill="#222222">180</text>
  <line x1="220.834" y1="450" x2="220.834" y2="455" stroke="#333333" stroke-width="1" />
  <text x="220.834" y="468" text-anchor="middle" font-family="system-ui, sans-serif" font-size="12" fill="#222222">190</text>
  <line x1="293.577" y1="450" x2="293.577" y2="455" stroke="#333333" stroke-width="1" />
  <text x="293.577" y="468" text-anchor="middle" font-family="system-ui, sans-serif" font-size="12" fill="#222222">200</text>
  <line x1="366.32" y1="450" x2="366.32" y2="455" stroke="#333333" stroke-width="1" />
  <text x="366.32" y="468" text-anchor="middle" font-family="system-ui, sans-serif" font-size="12" fill="#222222">210</text>
  <line x1="439.063" y1="450" x2="439.063" y2="455" stroke="#333333" stroke-width="1" />
  <text x="439.063" y="468" text-anchor="middle" font-family="system-ui, sans-serif" font-size="12" fill="#222222">220</text>
  <line x1="511.806" y1="450" x2="511.806" y2="455" stroke="#333333" stroke-width="1" />
  <text x="511.806" y="468" text-anchor="middle" font-family="system-ui, sans-serif" font-size="12" fill="#222222">230</text>
  <text x="315.4" y="488" text-anchor="middle" font-family="system-ui, sans-serif" font-size="12" fill="#222222">x start + x end</text>
  <line x1="60.8" y1="66" x2="60.8" y2="450" stroke="#333333" stroke-width="1" />
  <line x1="55.8" y1="432.978" x2="60.8" y2="432.978" stroke="#333333" stroke-width="1" />
  <text x="52.8" y="436.978" text-anchor="end" font-family="system-ui, sans-serif" font-size="12" fill="#222222">2500</text>
  <line x1="55.8" y1="385.674" x2="60.8" y2="385.674" stroke="#333333" stroke-width="1" />
  <text x="52.8" y="389.674" text-anchor="end" font-family="system-ui, sans-serif" font-size="12" fill="#222222">3000</text>
  <line x1="55.8" y1="338.37" x2="60.8" y2="338.37" stroke="#333333" stroke-width="1" />
  <text x="52.8" y="342.37" text-anchor="end" font-family="system-ui, sans-serif" font-size="12" fill="#222222">3500</text>
  <line x1="55.8" y1="291.066" x2="60.8" y2="291.066" stroke="#333333" stroke-width="1" />
  <text x="52.8" y="295.066" text-anchor="end" font-family="system-ui, sans-serif" font-size="12" fill="#222222">4000</text>
  <line x1="55.8" y1="243.761" x2="60.8" y2="243.761" stroke="#333333" stroke-width="1" />
  <text x="52.8" y="247.761" text-anchor="end" font-family="system-ui, sans-serif" font-size="12" fill="#222222">4500</text>
  <line x1="55.8" y1="196.457" x2="60.8" y2="196.457" stroke="#333333" stroke-width="1" />
  <text x="52.8" y="200.457" text-anchor="end" font-family="system-ui, sans-serif" font-size="12" fill="#222222">5000</text>
  <line x1="55.8" y1="149.153" x2="60.8" y2="149.153" stroke="#333333" stroke-width="1" />
  <text x="52.8" y="153.153" text-anchor="end" font-family="system-ui, sans-serif" font-size="12" fill="#222222">5500</text>
  <line x1="55.8" y1="101.849" x2="60.8" y2="101.849" stroke="#333333" stroke-width="1" />
  <text x="52.8" y="105.849" text-anchor="end" font-family="system-ui, sans-serif" font-size="12" fill="#222222">6000</text>
  <text x="12" y="258" text-anchor="middle" transform="rotate(-90 12 258)" font-family="system-ui, sans-serif" font-size="12" fill="#222222">y start + y end</text>
</g>
<g class="algraf-legends">
  <text x="586" y="70" text-anchor="start" font-family="system-ui, sans-serif" font-size="12" fill="#222222">count</text>
  <rect x="586" y="78" width="12" height="16" fill="#fde725" />
  <text x="604" y="88" text-anchor="start" font-family="system-ui, sans-serif" font-size="12" fill="#222222">22</text>
  <rect x="586" y="94" width="12" height="16" fill="#67c364" />
  <text x="604" y="104" text-anchor="start" font-family="system-ui, sans-serif" font-size="12" fill="#222222">16.75</text>
  <rect x="586" y="110" width="12" height="16" fill="#339084" />
  <text x="604" y="120" text-anchor="start" font-family="system-ui, sans-serif" font-size="12" fill="#222222">11.5</text>
  <rect x="586" y="126" width="12" height="16" fill="#364e80" />
  <text x="604" y="136" text-anchor="start" font-family="system-ui, sans-serif" font-size="12" fill="#222222">6.25</text>
  <rect x="586" y="142" width="12" height="16" fill="#440154" />
  <text x="604" y="152" text-anchor="start" font-family="system-ui, sans-serif" font-size="12" fill="#222222">1</text>
</g>
</svg>
