<svg xmlns="http://www.w3.org/2000/svg" width="700" height="460" viewBox="0 0 700 460" role="img">
<rect class="algraf-background" x="0" y="0" width="700" height="460" fill="#ffffff" />
<rect class="algraf-plot-area" x="60" y="40" width="490" height="370" fill="#ffffff" />
<g class="algraf-grid">
  <line x1="60" y1="349.042" x2="550" y2="349.042" stroke="#f2f2f2" stroke-width="0.6" />
  <line x1="60" y1="278.161" x2="550" y2="278.161" stroke="#f2f2f2" stroke-width="0.6" />
  <line x1="60" y1="207.28" x2="550" y2="207.28" stroke="#f2f2f2" stroke-width="0.6" />
  <line x1="60" y1="136.398" x2="550" y2="136.398" stroke="#f2f2f2" stroke-width="0.6" />
  <line x1="60" y1="384.483" x2="550" y2="384.483" stroke="#e6e6e6" stroke-width="1" />
  <line x1="60" y1="313.602" x2="550" y2="313.602" stroke="#e6e6e6" stroke-width="1" />
  <line x1="60" y1="242.72" x2="550" y2="242.72" stroke="#e6e6e6" stroke-width="1" />
  <line x1="60" y1="171.839" x2="550" y2="171.839" stroke="#e6e6e6" stroke-width="1" />
  <line x1="60" y1="100.958" x2="550" y2="100.958" stroke="#e6e6e6" stroke-width="1" />
</g>
<g class="algraf-layer algraf-geom-boxplot">
  <line x1="141.667" y1="384.483" x2="141.667" y2="235.632" stroke="#333333" stroke-width="1" opacity="0.78" />
  <line x1="123.373" y1="384.483" x2="159.96" y2="384.483" stroke="#333333" stroke-width="1" opacity="0.78" />
  <line x1="123.373" y1="235.632" x2="159.96" y2="235.632" stroke="#333333" stroke-width="1" opacity="0.78" />
  <rect x="95.933" y="269.655" width="91.467" height="80.805" fill="#4E79A7" stroke="#333333" stroke-width="1" opacity="0.78" />
  <line x1="95.933" y1="310.766" x2="187.4" y2="310.766" stroke="#333333" stroke-width="1" opacity="0.78" />
  <line x1="305" y1="173.257" x2="305" y2="65.517" stroke="#333333" stroke-width="1" opacity="0.78" />
  <line x1="286.707" y1="173.257" x2="323.293" y2="173.257" stroke="#333333" stroke-width="1" opacity="0.78" />
  <line x1="286.707" y1="65.517" x2="323.293" y2="65.517" stroke="#333333" stroke-width="1" opacity="0.78" />
  <rect x="259.267" y="98.123" width="91.467" height="62.375" fill="#F28E2B" stroke="#333333" stroke-width="1" opacity="0.78" />
  <line x1="259.267" y1="129.31" x2="350.733" y2="129.31" stroke="#333333" stroke-width="1" opacity="0.78" />
  <line x1="468.333" y1="259.732" x2="468.333" y2="178.927" stroke="#333333" stroke-width="1" opacity="0.78" />
  <line x1="450.04" y1="259.732" x2="486.627" y2="259.732" stroke="#333333" stroke-width="1" opacity="0.78" />
  <line x1="450.04" y1="178.927" x2="486.627" y2="178.927" stroke="#333333" stroke-width="1" opacity="0.78" />
  <rect x="422.6" y="210.824" width="91.467" height="40.402" fill="#E15759" stroke="#333333" stroke-width="1" opacity="0.78" />
  <line x1="422.6" y1="242.72" x2="514.067" y2="242.72" stroke="#333333" stroke-width="1" opacity="0.78" />
</g>
<g class="algraf-layer algraf-geom-rug">
  <line x1="60" y1="310.766" x2="66" y2="310.766" stroke="#333333" stroke-width="1.5" opacity="0.35" />
  <line x1="60" y1="384.483" x2="66" y2="384.483" stroke="#333333" stroke-width="1.5" opacity="0.35" />
  <line x1="60" y1="235.632" x2="66" y2="235.632" stroke="#333333" stroke-width="1.5" opacity="0.35" />
  <line x1="60" y1="269.655" x2="66" y2="269.655" stroke="#333333" stroke-width="1.5" opacity="0.35" />
  <line x1="60" y1="350.46" x2="66" y2="350.46" stroke="#333333" stroke-width="1.5" opacity="0.35" />
  <line x1="60" y1="160.498" x2="66" y2="160.498" stroke="#333333" stroke-width="1.5" opacity="0.35" />
  <line x1="60" y1="98.123" x2="66" y2="98.123" stroke="#333333" stroke-width="1.5" opacity="0.35" />
  <line x1="60" y1="129.31" x2="66" y2="129.31" stroke="#333333" stroke-width="1.5" opacity="0.35" />
  <line x1="60" y1="65.517" x2="66" y2="65.517" stroke="#333333" stroke-width="1.5" opacity="0.35" />
  <line x1="60" y1="173.257" x2="66" y2="173.257" stroke="#333333" stroke-width="1.5" opacity="0.35" />
  <line x1="60" y1="242.72" x2="66" y2="242.72" stroke="#333333" stroke-width="1.5" opacity="0.35" />
  <line x1="60" y1="178.927" x2="66" y2="178.927" stroke="#333333" stroke-width="1.5" opacity="0.35" />
  <line x1="60" y1="259.732" x2="66" y2="259.732" stroke="#333333" stroke-width="1.5" opacity="0.35" />
</g>
<g class="algraf-axes">
  <line x1="60" y1="410" x2="550" y2="410" stroke="#333333" stroke-width="1" />
  <line x1="141.667" y1="410" x2="141.667" y2="415" stroke="#333333" stroke-width="1" />
  <text x="141.667" y="428" text-anchor="middle" font-family="system-ui, sans-serif" font-size="12" fill="#222222">Female</text>
  <line x1="305" y1="410" x2="305" y2="415" stroke="#333333" stroke-width="1" />
  <text x="305" y="428" text-anchor="middle" font-family="system-ui, sans-serif" font-size="12" fill="#222222">Male</text>
  <line x1="468.333" y1="410" x2="468.333" y2="415" stroke="#333333" stroke-width="1" />
  <text x="468.333" y="428" text-anchor="middle" font-family="system-ui, sans-serif" font-size="12" fill="#222222">Non-binary</text>
  <text x="305" y="448" text-anchor="middle" font-family="system-ui, sans-serif" font-size="12" fill="#222222">gender</text>
  <line x1="60" y1="40" x2="60" y2="410" stroke="#333333" stroke-width="1" />
  <line x1="55" y1="384.483" x2="60" y2="384.483" stroke="#333333" stroke-width="1" />
  <text x="52" y="388.483" text-anchor="end" font-family="system-ui, sans-serif" font-size="12" fill="#222222">160</text>
  <line x1="55" y1="313.602" x2="60" y2="313.602" stroke="#333333" stroke-width="1" />
  <text x="52" y="317.602" text-anchor="end" font-family="system-ui, sans-serif" font-size="12" fill="#222222">165</text>
  <line x1="55" y1="242.72" x2="60" y2="242.72" stroke="#333333" stroke-width="1" />
  <text x="52" y="246.72" text-anchor="end" font-family="system-ui, sans-serif" font-size="12" fill="#222222">170</text>
  <line x1="55" y1="171.839" x2="60" y2="171.839" stroke="#333333" stroke-width="1" />
  <text x="52" y="175.839" text-anchor="end" font-family="system-ui, sans-serif" font-size="12" fill="#222222">175</text>
  <line x1="55" y1="100.958" x2="60" y2="100.958" stroke="#333333" stroke-width="1" />
  <text x="52" y="104.958" text-anchor="end" font-family="system-ui, sans-serif" font-size="12" fill="#222222">180</text>
  <text x="18.4" y="225" text-anchor="middle" transform="rotate(-90 18.4 225)" font-family="system-ui, sans-serif" font-size="12" fill="#222222">height</text>
</g>
<g class="algraf-legends">
  <text x="566" y="44" text-anchor="start" font-family="system-ui, sans-serif" font-size="12" fill="#222222">gender</text>
  <rect x="566" y="52" width="12" height="12" fill="#4E79A7" />
  <text x="584" y="62" text-anchor="start" font-family="system-ui, sans-serif" font-size="12" fill="#222222">Female</text>
  <rect x="566" y="70" width="12" height="12" fill="#F28E2B" />
  <text x="584" y="80" text-anchor="start" font-family="system-ui, sans-serif" font-size="12" fill="#222222">Male</text>
  <rect x="566" y="88" width="12" height="12" fill="#E15759" />
  <text x="584" y="98" text-anchor="start" font-family="system-ui, sans-serif" font-size="12" fill="#222222">Non-binary</text>
</g>
</svg>
