<svg xmlns="http://www.w3.org/2000/svg" width="760" height="460" viewBox="0 0 760 460" role="img" aria-label="Revenue against target">
<title>Revenue against target</title>
<rect class="algraf-background" x="0" y="0" width="760" height="460" fill="#ffffff" />
<text class="algraf-title" x="60.8" y="24" font-family="system-ui, sans-serif" font-size="18" font-weight="600" fill="#222222">Revenue against target</text>
<rect class="algraf-plot-area" x="60.8" y="66" width="549.2" height="328" fill="#ffffff" />
<g class="algraf-grid">
  <line x1="60.8" y1="353" x2="610" y2="353" stroke="#f2f2f2" stroke-width="0.6" />
  <line x1="60.8" y1="271" x2="610" y2="271" stroke="#f2f2f2" stroke-width="0.6" />
  <line x1="60.8" y1="189" x2="610" y2="189" stroke="#f2f2f2" stroke-width="0.6" />
  <line x1="60.8" y1="107" x2="610" y2="107" stroke="#f2f2f2" stroke-width="0.6" />
  <line x1="60.8" y1="394" x2="610" y2="394" stroke="#e6e6e6" stroke-width="1" />
  <line x1="60.8" y1="312" x2="610" y2="312" stroke="#e6e6e6" stroke-width="1" />
  <line x1="60.8" y1="230" x2="610" y2="230" stroke="#e6e6e6" stroke-width="1" />
  <line x1="60.8" y1="148" x2="610" y2="148" stroke="#e6e6e6" stroke-width="1" />
  <line x1="60.8" y1="66" x2="610" y2="66" stroke="#e6e6e6" stroke-width="1" />
</g>
<defs>
<clipPath id="algraf-clip-0"><rect x="0" y="66" width="760" height="328" /></clipPath>
</defs>
<g clip-path="url(#algraf-clip-0)">
  <g class="algraf-layer algraf-geom-bar">
    <rect x="67.665" y="321.84" width="54.92" height="72.16" fill="#006BA4" opacity="1" />
    <rect x="136.315" y="274.28" width="54.92" height="119.72" fill="#006BA4" opacity="1" />
    <rect x="204.965" y="193.92" width="54.92" height="200.08" fill="#006BA4" opacity="1" />
    <rect x="273.615" y="125.04" width="54.92" height="268.96" fill="#006BA4" opacity="1" />
    <rect x="342.265" y="334.96" width="54.92" height="59.04" fill="#FF800E" opacity="1" />
    <rect x="410.915" y="290.68" width="54.92" height="103.32" fill="#FF800E" opacity="1" />
    <rect x="479.565" y="216.88" width="54.92" height="177.12" fill="#FF800E" opacity="1" />
    <rect x="548.215" y="144.72" width="54.92" height="249.28" fill="#FF800E" opacity="1" />
  </g>
</g>
<g class="algraf-axes">
  <line x1="60.8" y1="394" x2="610" y2="394" stroke="#333333" stroke-width="1" />
  <line x1="95.125" y1="394" x2="95.125" y2="399" stroke="#333333" stroke-width="1" />
  <text x="95.125" y="412" text-anchor="middle" font-family="system-ui, sans-serif" font-size="12" fill="#222222">FY26 Q1 North</text>
  <line x1="163.775" y1="394" x2="163.775" y2="399" stroke="#333333" stroke-width="1" />
  <text x="163.775" y="428" text-anchor="middle" font-family="system-ui, sans-serif" font-size="12" fill="#222222">FY26 Q2 North</text>
  <line x1="232.425" y1="394" x2="232.425" y2="399" stroke="#333333" stroke-width="1" />
  <text x="232.425" y="412" text-anchor="middle" font-family="system-ui, sans-serif" font-size="12" fill="#222222">FY26 Q3 North</text>
  <line x1="301.075" y1="394" x2="301.075" y2="399" stroke="#333333" stroke-width="1" />
  <text x="301.075" y="428" text-anchor="middle" font-family="system-ui, sans-serif" font-size="12" fill="#222222">FY26 Q4 North</text>
  <line x1="369.725" y1="394" x2="369.725" y2="399" stroke="#333333" stroke-width="1" />
  <text x="369.725" y="412" text-anchor="middle" font-family="system-ui, sans-serif" font-size="12" fill="#222222">FY26 Q1 South</text>
  <line x1="438.375" y1="394" x2="438.375" y2="399" stroke="#333333" stroke-width="1" />
  <text x="438.375" y="428" text-anchor="middle" font-family="system-ui, sans-serif" font-size="12" fill="#222222">FY26 Q2 South</text>
  <line x1="507.025" y1="394" x2="507.025" y2="399" stroke="#333333" stroke-width="1" />
  <text x="507.025" y="412" text-anchor="middle" font-family="system-ui, sans-serif" font-size="12" fill="#222222">FY26 Q3 South</text>
  <line x1="575.675" y1="394" x2="575.675" y2="399" stroke="#333333" stroke-width="1" />
  <text x="575.675" y="428" text-anchor="middle" font-family="system-ui, sans-serif" font-size="12" fill="#222222">FY26 Q4 South</text>
  <text x="335.4" y="448" text-anchor="middle" font-family="system-ui, sans-serif" font-size="12" fill="#222222">quarter</text>
  <line x1="60.8" y1="66" x2="60.8" y2="394" stroke="#333333" stroke-width="1" />
  <line x1="55.8" y1="394" x2="60.8" y2="394" stroke="#333333" stroke-width="1" />
  <text x="52.8" y="398" text-anchor="end" font-family="system-ui, sans-serif" font-size="12" fill="#222222">0</text>
  <line x1="55.8" y1="312" x2="60.8" y2="312" stroke="#333333" stroke-width="1" />
  <text x="52.8" y="316" text-anchor="end" font-family="system-ui, sans-serif" font-size="12" fill="#222222">250k</text>
  <line x1="55.8" y1="230" x2="60.8" y2="230" stroke="#333333" stroke-width="1" />
  <text x="52.8" y="234" text-anchor="end" font-family="system-ui, sans-serif" font-size="12" fill="#222222">500k</text>
  <line x1="55.8" y1="148" x2="60.8" y2="148" stroke="#333333" stroke-width="1" />
  <text x="52.8" y="152" text-anchor="end" font-family="system-ui, sans-serif" font-size="12" fill="#222222">750k</text>
  <line x1="55.8" y1="66" x2="60.8" y2="66" stroke="#333333" stroke-width="1" />
  <text x="52.8" y="70" text-anchor="end" font-family="system-ui, sans-serif" font-size="12" fill="#222222">1M</text>
  <text x="12" y="230" text-anchor="middle" transform="rotate(-90 12 230)" font-family="system-ui, sans-serif" font-size="12" fill="#222222">Revenue</text>
</g>
<g class="algraf-legends">
  <text x="626" y="70" text-anchor="start" font-family="system-ui, sans-serif" font-size="12" fill="#222222">region</text>
  <rect x="626" y="78" width="12" height="12" fill="#006BA4" />
  <text x="644" y="88" text-anchor="start" font-family="system-ui, sans-serif" font-size="12" fill="#222222">North</text>
  <rect x="626" y="96" width="12" height="12" fill="#FF800E" />
  <text x="644" y="106" text-anchor="start" font-family="system-ui, sans-serif" font-size="12" fill="#222222">South</text>
</g>
</svg>
