<svg xmlns="http://www.w3.org/2000/svg" width="800" height="500" viewBox="0 0 800 500" role="img" aria-label="CO2 Emissions vs. GDP per Capita (2024)">
<title>CO2 Emissions vs. GDP per Capita (2024)</title>
<rect class="algraf-background" x="0" y="0" width="800" height="500" fill="#ffffff" />
<text class="algraf-title" x="60" y="24" font-family="system-ui, sans-serif" font-size="18" font-weight="600" fill="#222222">CO2 Emissions vs. GDP per Capita (2024)</text>
<rect class="algraf-plot-area" x="60" y="66" width="590" height="384" fill="#ffffff" />
<g class="algraf-grid">
  <line x1="83.709" y1="66" x2="83.709" y2="450" stroke="#e6e6e6" stroke-width="1" />
  <line x1="164.57" y1="66" x2="164.57" y2="450" stroke="#e6e6e6" stroke-width="1" />
  <line x1="245.432" y1="66" x2="245.432" y2="450" stroke="#e6e6e6" stroke-width="1" />
  <line x1="326.294" y1="66" x2="326.294" y2="450" stroke="#e6e6e6" stroke-width="1" />
  <line x1="407.156" y1="66" x2="407.156" y2="450" stroke="#e6e6e6" stroke-width="1" />
  <line x1="488.018" y1="66" x2="488.018" y2="450" stroke="#e6e6e6" stroke-width="1" />
  <line x1="568.879" y1="66" x2="568.879" y2="450" stroke="#e6e6e6" stroke-width="1" />
  <line x1="649.741" y1="66" x2="649.741" y2="450" stroke="#e6e6e6" stroke-width="1" />
  <line x1="60" y1="418.649" x2="650" y2="418.649" stroke="#e6e6e6" stroke-width="1" />
  <line x1="60" y1="369.968" x2="650" y2="369.968" stroke="#e6e6e6" stroke-width="1" />
  <line x1="60" y1="321.286" x2="650" y2="321.286" stroke="#e6e6e6" stroke-width="1" />
  <line x1="60" y1="272.604" x2="650" y2="272.604" stroke="#e6e6e6" stroke-width="1" />
  <line x1="60" y1="223.923" x2="650" y2="223.923" stroke="#e6e6e6" stroke-width="1" />
  <line x1="60" y1="175.241" x2="650" y2="175.241" stroke="#e6e6e6" stroke-width="1" />
  <line x1="60" y1="126.56" x2="650" y2="126.56" stroke="#e6e6e6" stroke-width="1" />
  <line x1="60" y1="77.878" x2="650" y2="77.878" stroke="#e6e6e6" stroke-width="1" />
</g>
<g class="algraf-layer algraf-geom-point">
  <circle cx="609.31" cy="114.389" r="8.667" fill="#4E79A7" opacity="0.6" />
  <circle cx="168.614" cy="289.643" r="25" fill="#F28E2B" opacity="0.6" />
  <circle cx="100.69" cy="423.517" r="24.664" fill="#F28E2B" opacity="0.6" />
  <circle cx="455.673" cy="275.039" r="4.885" fill="#E15759" opacity="0.6" />
  <circle cx="407.156" cy="260.434" r="5.54" fill="#F28E2B" opacity="0.6" />
  <circle cx="423.328" cy="340.759" r="4.641" fill="#E15759" opacity="0.6" />
  <circle cx="154.058" cy="416.215" r="6.852" fill="#76B7B2" opacity="0.6" />
  <circle cx="455.673" cy="92.483" r="4.198" fill="#4E79A7" opacity="0.6" />
  <circle cx="520.362" cy="97.351" r="4" fill="#59A14F" opacity="0.6" />
  <circle cx="132.226" cy="284.775" r="4.519" fill="#EDC948" opacity="0.6" />
  <circle cx="407.156" cy="355.363" r="4.641" fill="#E15759" opacity="0.6" />
  <circle cx="334.38" cy="182.544" r="4.397" fill="#F28E2B" opacity="0.6" />
</g>
<g class="algraf-layer algraf-geom-text">
  <text x="609.31" y="100.389" text-anchor="middle" font-family="system-ui, sans-serif" font-size="8" fill="#444444" opacity="1">United States</text>
  <text x="168.614" y="275.643" text-anchor="middle" font-family="system-ui, sans-serif" font-size="8" fill="#444444" opacity="1">China</text>
  <text x="100.69" y="409.517" text-anchor="middle" font-family="system-ui, sans-serif" font-size="8" fill="#444444" opacity="1">India</text>
  <text x="455.673" y="261.039" text-anchor="middle" font-family="system-ui, sans-serif" font-size="8" fill="#444444" opacity="1">Germany</text>
  <text x="407.156" y="246.434" text-anchor="middle" font-family="system-ui, sans-serif" font-size="8" fill="#444444" opacity="1">Japan</text>
  <text x="423.328" y="326.759" text-anchor="middle" font-family="system-ui, sans-serif" font-size="8" fill="#444444" opacity="1">United Kingdom</text>
  <text x="154.058" y="402.215" text-anchor="middle" font-family="system-ui, sans-serif" font-size="8" fill="#444444" opacity="1">Brazil</text>
  <text x="455.673" y="78.483" text-anchor="middle" font-family="system-ui, sans-serif" font-size="8" fill="#444444" opacity="1">Canada</text>
  <text x="520.362" y="83.351" text-anchor="middle" font-family="system-ui, sans-serif" font-size="8" fill="#444444" opacity="1">Australia</text>
  <text x="132.226" y="270.775" text-anchor="middle" font-family="system-ui, sans-serif" font-size="8" fill="#444444" opacity="1">South Africa</text>
  <text x="407.156" y="341.363" text-anchor="middle" font-family="system-ui, sans-serif" font-size="8" fill="#444444" opacity="1">France</text>
  <text x="334.38" y="168.544" text-anchor="middle" font-family="system-ui, sans-serif" font-size="8" fill="#444444" opacity="1">South Korea</text>
</g>
<g class="algraf-axes">
  <line x1="60" y1="450" x2="650" y2="450" stroke="#333333" stroke-width="1" />
  <line x1="83.709" y1="450" x2="83.709" y2="455" stroke="#333333" stroke-width="1" />
  <text x="83.709" y="468" text-anchor="middle" font-family="system-ui, sans-serif" font-size="12" fill="#222222">0</text>
  <line x1="164.57" y1="450" x2="164.57" y2="455" stroke="#333333" stroke-width="1" />
  <text x="164.57" y="468" text-anchor="middle" font-family="system-ui, sans-serif" font-size="12" fill="#222222">10000</text>
  <line x1="245.432" y1="450" x2="245.432" y2="455" stroke="#333333" stroke-width="1" />
  <text x="245.432" y="468" text-anchor="middle" font-family="system-ui, sans-serif" font-size="12" fill="#222222">20000</text>
  <line x1="326.294" y1="450" x2="326.294" y2="455" stroke="#333333" stroke-width="1" />
  <text x="326.294" y="468" text-anchor="middle" font-family="system-ui, sans-serif" font-size="12" fill="#222222">30000</text>
  <line x1="407.156" y1="450" x2="407.156" y2="455" stroke="#333333" stroke-width="1" />
  <text x="407.156" y="468" text-anchor="middle" font-family="system-ui, sans-serif" font-size="12" fill="#222222">40000</text>
  <line x1="488.018" y1="450" x2="488.018" y2="455" stroke="#333333" stroke-width="1" />
  <text x="488.018" y="468" text-anchor="middle" font-family="system-ui, sans-serif" font-size="12" fill="#222222">50000</text>
  <line x1="568.879" y1="450" x2="568.879" y2="455" stroke="#333333" stroke-width="1" />
  <text x="568.879" y="468" text-anchor="middle" font-family="system-ui, sans-serif" font-size="12" fill="#222222">60000</text>
  <line x1="649.741" y1="450" x2="649.741" y2="455" stroke="#333333" stroke-width="1" />
  <text x="649.741" y="468" text-anchor="middle" font-family="system-ui, sans-serif" font-size="12" fill="#222222">70000</text>
  <text x="355" y="488" text-anchor="middle" font-family="system-ui, sans-serif" font-size="12" fill="#222222">GDP per Capita ($)</text>
  <line x1="60" y1="66" x2="60" y2="450" stroke="#333333" stroke-width="1" />
  <line x1="55" y1="418.649" x2="60" y2="418.649" stroke="#333333" stroke-width="1" />
  <text x="52" y="422.649" text-anchor="end" font-family="system-ui, sans-serif" font-size="12" fill="#222222">2</text>
  <line x1="55" y1="369.968" x2="60" y2="369.968" stroke="#333333" stroke-width="1" />
  <text x="52" y="373.968" text-anchor="end" font-family="system-ui, sans-serif" font-size="12" fill="#222222">4</text>
  <line x1="55" y1="321.286" x2="60" y2="321.286" stroke="#333333" stroke-width="1" />
  <text x="52" y="325.286" text-anchor="end" font-family="system-ui, sans-serif" font-size="12" fill="#222222">6</text>
  <line x1="55" y1="272.604" x2="60" y2="272.604" stroke="#333333" stroke-width="1" />
  <text x="52" y="276.604" text-anchor="end" font-family="system-ui, sans-serif" font-size="12" fill="#222222">8</text>
  <line x1="55" y1="223.923" x2="60" y2="223.923" stroke="#333333" stroke-width="1" />
  <text x="52" y="227.923" text-anchor="end" font-family="system-ui, sans-serif" font-size="12" fill="#222222">10</text>
  <line x1="55" y1="175.241" x2="60" y2="175.241" stroke="#333333" stroke-width="1" />
  <text x="52" y="179.241" text-anchor="end" font-family="system-ui, sans-serif" font-size="12" fill="#222222">12</text>
  <line x1="55" y1="126.56" x2="60" y2="126.56" stroke="#333333" stroke-width="1" />
  <text x="52" y="130.56" text-anchor="end" font-family="system-ui, sans-serif" font-size="12" fill="#222222">14</text>
  <line x1="55" y1="77.878" x2="60" y2="77.878" stroke="#333333" stroke-width="1" />
  <text x="52" y="81.878" text-anchor="end" font-family="system-ui, sans-serif" font-size="12" fill="#222222">16</text>
  <text x="25.6" y="258" text-anchor="middle" transform="rotate(-90 25.6 258)" font-family="system-ui, sans-serif" font-size="12" fill="#222222">CO2 Emissions per Capita (Tons)</text>
</g>
<g class="algraf-legends">
  <text x="666" y="70" text-anchor="start" font-family="system-ui, sans-serif" font-size="12" fill="#222222">continent</text>
  <rect x="666" y="78" width="12" height="12" fill="#4E79A7" />
  <text x="684" y="88" text-anchor="start" font-family="system-ui, sans-serif" font-size="12" fill="#222222">North America</text>
  <rect x="666" y="96" width="12" height="12" fill="#F28E2B" />
  <text x="684" y="106" text-anchor="start" font-family="system-ui, sans-serif" font-size="12" fill="#222222">Asia</text>
  <rect x="666" y="114" width="12" height="12" fill="#E15759" />
  <text x="684" y="124" text-anchor="start" font-family="system-ui, sans-serif" font-size="12" fill="#222222">Europe</text>
  <rect x="666" y="132" width="12" height="12" fill="#76B7B2" />
  <text x="684" y="142" text-anchor="start" font-family="system-ui, sans-serif" font-size="12" fill="#222222">South America</text>
  <rect x="666" y="150" width="12" height="12" fill="#59A14F" />
  <text x="684" y="160" text-anchor="start" font-family="system-ui, sans-serif" font-size="12" fill="#222222">Oceania</text>
  <rect x="666" y="168" width="12" height="12" fill="#EDC948" />
  <text x="684" y="178" text-anchor="start" font-family="system-ui, sans-serif" font-size="12" fill="#222222">Africa</text>
  <text x="666" y="212" text-anchor="start" font-family="system-ui, sans-serif" font-size="12" fill="#222222">Population (M)</text>
  <circle cx="691" cy="227" r="4" fill="#222222" />
  <text x="724" y="231" text-anchor="start" font-family="system-ui, sans-serif" font-size="12" fill="#222222">25</text>
  <circle cx="691" cy="248.25" r="9.25" fill="#222222" />
  <text x="724" y="252.25" text-anchor="start" font-family="system-ui, sans-serif" font-size="12" fill="#222222">369.25</text>
  <circle cx="691" cy="278" r="14.5" fill="#222222" />
  <text x="724" y="282" text-anchor="start" font-family="system-ui, sans-serif" font-size="12" fill="#222222">713.5</text>
  <circle cx="691" cy="318.25" r="19.75" fill="#222222" />
  <text x="724" y="322.25" text-anchor="start" font-family="system-ui, sans-serif" font-size="12" fill="#222222">1057.75</text>
  <circle cx="691" cy="369" r="25" fill="#222222" />
  <text x="724" y="373" text-anchor="start" font-family="system-ui, sans-serif" font-size="12" fill="#222222">1402</text>
</g>
</svg>
