<svg xmlns="http://www.w3.org/2000/svg" width="800" height="500" viewBox="0 0 800 500" role="img" aria-label="CO2 Emissions vs. GDP per Capita (2024)">
<title>CO2 Emissions vs. GDP per Capita (2024)</title>
<rect class="algraf-background" x="0" y="0" width="800" height="500" fill="#ffffff" />
<text class="algraf-title" x="60" y="24" font-family="system-ui, sans-serif" font-size="18" font-weight="600" fill="#222222">CO2 Emissions vs. GDP per Capita (2024)</text>
<rect class="algraf-plot-area" x="60" y="66" width="578.4" height="384" fill="#ffffff" />
<g class="algraf-grid">
  <line x1="122.879" y1="66" x2="122.879" y2="450" stroke="#f2f2f2" stroke-width="0.6" />
  <line x1="202.15" y1="66" x2="202.15" y2="450" stroke="#f2f2f2" stroke-width="0.6" />
  <line x1="281.422" y1="66" x2="281.422" y2="450" stroke="#f2f2f2" stroke-width="0.6" />
  <line x1="360.694" y1="66" x2="360.694" y2="450" stroke="#f2f2f2" stroke-width="0.6" />
  <line x1="439.966" y1="66" x2="439.966" y2="450" stroke="#f2f2f2" stroke-width="0.6" />
  <line x1="519.238" y1="66" x2="519.238" y2="450" stroke="#f2f2f2" stroke-width="0.6" />
  <line x1="598.51" y1="66" x2="598.51" y2="450" stroke="#f2f2f2" stroke-width="0.6" />
  <line x1="60" y1="394.308" x2="638.4" y2="394.308" stroke="#f2f2f2" stroke-width="0.6" />
  <line x1="60" y1="345.627" x2="638.4" y2="345.627" stroke="#f2f2f2" stroke-width="0.6" />
  <line x1="60" y1="296.945" x2="638.4" y2="296.945" stroke="#f2f2f2" stroke-width="0.6" />
  <line x1="60" y1="248.264" x2="638.4" y2="248.264" stroke="#f2f2f2" stroke-width="0.6" />
  <line x1="60" y1="199.582" x2="638.4" y2="199.582" stroke="#f2f2f2" stroke-width="0.6" />
  <line x1="60" y1="150.901" x2="638.4" y2="150.901" stroke="#f2f2f2" stroke-width="0.6" />
  <line x1="60" y1="102.219" x2="638.4" y2="102.219" stroke="#f2f2f2" stroke-width="0.6" />
  <line x1="83.243" y1="66" x2="83.243" y2="450" stroke="#e6e6e6" stroke-width="1" />
  <line x1="162.515" y1="66" x2="162.515" y2="450" stroke="#e6e6e6" stroke-width="1" />
  <line x1="241.786" y1="66" x2="241.786" y2="450" stroke="#e6e6e6" stroke-width="1" />
  <line x1="321.058" y1="66" x2="321.058" y2="450" stroke="#e6e6e6" stroke-width="1" />
  <line x1="400.33" y1="66" x2="400.33" y2="450" stroke="#e6e6e6" stroke-width="1" />
  <line x1="479.602" y1="66" x2="479.602" y2="450" stroke="#e6e6e6" stroke-width="1" />
  <line x1="558.874" y1="66" x2="558.874" y2="450" stroke="#e6e6e6" stroke-width="1" />
  <line x1="638.146" y1="66" x2="638.146" y2="450" stroke="#e6e6e6" stroke-width="1" />
  <line x1="60" y1="418.649" x2="638.4" y2="418.649" stroke="#e6e6e6" stroke-width="1" />
  <line x1="60" y1="369.968" x2="638.4" y2="369.968" stroke="#e6e6e6" stroke-width="1" />
  <line x1="60" y1="321.286" x2="638.4" y2="321.286" stroke="#e6e6e6" stroke-width="1" />
  <line x1="60" y1="272.604" x2="638.4" y2="272.604" stroke="#e6e6e6" stroke-width="1" />
  <line x1="60" y1="223.923" x2="638.4" y2="223.923" stroke="#e6e6e6" stroke-width="1" />
  <line x1="60" y1="175.241" x2="638.4" y2="175.241" stroke="#e6e6e6" stroke-width="1" />
  <line x1="60" y1="126.56" x2="638.4" y2="126.56" stroke="#e6e6e6" stroke-width="1" />
  <line x1="60" y1="77.878" x2="638.4" y2="77.878" stroke="#e6e6e6" stroke-width="1" />
</g>
<g class="algraf-layer algraf-geom-point">
  <circle cx="598.51" cy="114.389" r="8.667" fill="#4E79A7" opacity="0.6" />
  <circle cx="166.478" cy="289.643" r="25" fill="#F28E2B" opacity="0.6" />
  <circle cx="99.89" cy="423.517" r="24.664" fill="#F28E2B" opacity="0.6" />
  <circle cx="447.894" cy="275.039" r="4.885" fill="#E15759" opacity="0.6" />
  <circle cx="400.33" cy="260.434" r="5.54" fill="#F28E2B" opacity="0.6" />
  <circle cx="416.185" cy="340.759" r="4.641" fill="#E15759" opacity="0.6" />
  <circle cx="152.209" cy="416.215" r="6.852" fill="#76B7B2" opacity="0.6" />
  <circle cx="447.894" cy="92.483" r="4.198" fill="#4E79A7" opacity="0.6" />
  <circle cx="511.311" cy="97.351" r="4" fill="#59A14F" opacity="0.6" />
  <circle cx="130.806" cy="284.775" r="4.519" fill="#EDC948" opacity="0.6" />
  <circle cx="400.33" cy="355.363" r="4.641" fill="#E15759" opacity="0.6" />
  <circle cx="328.986" cy="182.544" r="4.397" fill="#F28E2B" opacity="0.6" />
</g>
<g class="algraf-layer algraf-geom-text">
  <text x="598.51" y="100.389" text-anchor="middle" font-family="system-ui, sans-serif" font-size="8" fill="#444444" opacity="1">United States</text>
  <text x="166.478" y="275.643" text-anchor="middle" font-family="system-ui, sans-serif" font-size="8" fill="#444444" opacity="1">China</text>
  <text x="99.89" y="409.517" text-anchor="middle" font-family="system-ui, sans-serif" font-size="8" fill="#444444" opacity="1">India</text>
  <text x="447.894" y="261.039" text-anchor="middle" font-family="system-ui, sans-serif" font-size="8" fill="#444444" opacity="1">Germany</text>
  <text x="400.33" y="246.434" text-anchor="middle" font-family="system-ui, sans-serif" font-size="8" fill="#444444" opacity="1">Japan</text>
  <text x="416.185" y="326.759" text-anchor="middle" font-family="system-ui, sans-serif" font-size="8" fill="#444444" opacity="1">United Kingdom</text>
  <text x="152.209" y="402.215" text-anchor="middle" font-family="system-ui, sans-serif" font-size="8" fill="#444444" opacity="1">Brazil</text>
  <text x="447.894" y="78.483" text-anchor="middle" font-family="system-ui, sans-serif" font-size="8" fill="#444444" opacity="1">Canada</text>
  <text x="511.311" y="83.351" text-anchor="middle" font-family="system-ui, sans-serif" font-size="8" fill="#444444" opacity="1">Australia</text>
  <text x="130.806" y="270.775" text-anchor="middle" font-family="system-ui, sans-serif" font-size="8" fill="#444444" opacity="1">South Africa</text>
  <text x="400.33" y="341.363" text-anchor="middle" font-family="system-ui, sans-serif" font-size="8" fill="#444444" opacity="1">France</text>
  <text x="328.986" y="168.544" text-anchor="middle" font-family="system-ui, sans-serif" font-size="8" fill="#444444" opacity="1">South Korea</text>
</g>
<g class="algraf-axes">
  <line x1="60" y1="450" x2="638.4" y2="450" stroke="#333333" stroke-width="1" />
  <line x1="83.243" y1="450" x2="83.243" y2="455" stroke="#333333" stroke-width="1" />
  <text x="83.243" y="468" text-anchor="middle" font-family="system-ui, sans-serif" font-size="12" fill="#222222">0</text>
  <line x1="162.515" y1="450" x2="162.515" y2="455" stroke="#333333" stroke-width="1" />
  <text x="162.515" y="468" text-anchor="middle" font-family="system-ui, sans-serif" font-size="12" fill="#222222">10000</text>
  <line x1="241.786" y1="450" x2="241.786" y2="455" stroke="#333333" stroke-width="1" />
  <text x="241.786" y="468" text-anchor="middle" font-family="system-ui, sans-serif" font-size="12" fill="#222222">20000</text>
  <line x1="321.058" y1="450" x2="321.058" y2="455" stroke="#333333" stroke-width="1" />
  <text x="321.058" y="468" text-anchor="middle" font-family="system-ui, sans-serif" font-size="12" fill="#222222">30000</text>
  <line x1="400.33" y1="450" x2="400.33" y2="455" stroke="#333333" stroke-width="1" />
  <text x="400.33" y="468" text-anchor="middle" font-family="system-ui, sans-serif" font-size="12" fill="#222222">40000</text>
  <line x1="479.602" y1="450" x2="479.602" y2="455" stroke="#333333" stroke-width="1" />
  <text x="479.602" y="468" text-anchor="middle" font-family="system-ui, sans-serif" font-size="12" fill="#222222">50000</text>
  <line x1="558.874" y1="450" x2="558.874" y2="455" stroke="#333333" stroke-width="1" />
  <text x="558.874" y="468" text-anchor="middle" font-family="system-ui, sans-serif" font-size="12" fill="#222222">60000</text>
  <line x1="638.146" y1="450" x2="638.146" y2="455" stroke="#333333" stroke-width="1" />
  <text x="638.146" y="468" text-anchor="middle" font-family="system-ui, sans-serif" font-size="12" fill="#222222">70000</text>
  <text x="349.2" y="488" text-anchor="middle" font-family="system-ui, sans-serif" font-size="12" fill="#222222">GDP per Capita ($)</text>
  <line x1="60" y1="66" x2="60" y2="450" stroke="#333333" stroke-width="1" />
  <line x1="55" y1="418.649" x2="60" y2="418.649" stroke="#333333" stroke-width="1" />
  <text x="52" y="422.649" text-anchor="end" font-family="system-ui, sans-serif" font-size="12" fill="#222222">2</text>
  <line x1="55" y1="369.968" x2="60" y2="369.968" stroke="#333333" stroke-width="1" />
  <text x="52" y="373.968" text-anchor="end" font-family="system-ui, sans-serif" font-size="12" fill="#222222">4</text>
  <line x1="55" y1="321.286" x2="60" y2="321.286" stroke="#333333" stroke-width="1" />
  <text x="52" y="325.286" text-anchor="end" font-family="system-ui, sans-serif" font-size="12" fill="#222222">6</text>
  <line x1="55" y1="272.604" x2="60" y2="272.604" stroke="#333333" stroke-width="1" />
  <text x="52" y="276.604" text-anchor="end" font-family="system-ui, sans-serif" font-size="12" fill="#222222">8</text>
  <line x1="55" y1="223.923" x2="60" y2="223.923" stroke="#333333" stroke-width="1" />
  <text x="52" y="227.923" text-anchor="end" font-family="system-ui, sans-serif" font-size="12" fill="#222222">10</text>
  <line x1="55" y1="175.241" x2="60" y2="175.241" stroke="#333333" stroke-width="1" />
  <text x="52" y="179.241" text-anchor="end" font-family="system-ui, sans-serif" font-size="12" fill="#222222">12</text>
  <line x1="55" y1="126.56" x2="60" y2="126.56" stroke="#333333" stroke-width="1" />
  <text x="52" y="130.56" text-anchor="end" font-family="system-ui, sans-serif" font-size="12" fill="#222222">14</text>
  <line x1="55" y1="77.878" x2="60" y2="77.878" stroke="#333333" stroke-width="1" />
  <text x="52" y="81.878" text-anchor="end" font-family="system-ui, sans-serif" font-size="12" fill="#222222">16</text>
  <text x="25.6" y="258" text-anchor="middle" transform="rotate(-90 25.6 258)" font-family="system-ui, sans-serif" font-size="12" fill="#222222">CO2 Emissions per Capita (Tons)</text>
</g>
<g class="algraf-legends">
  <text x="654.4" y="70" text-anchor="start" font-family="system-ui, sans-serif" font-size="12" fill="#222222">continent</text>
  <rect x="654.4" y="78" width="12" height="12" fill="#4E79A7" />
  <text x="672.4" y="88" text-anchor="start" font-family="system-ui, sans-serif" font-size="12" fill="#222222">North America</text>
  <rect x="654.4" y="96" width="12" height="12" fill="#F28E2B" />
  <text x="672.4" y="106" text-anchor="start" font-family="system-ui, sans-serif" font-size="12" fill="#222222">Asia</text>
  <rect x="654.4" y="114" width="12" height="12" fill="#E15759" />
  <text x="672.4" y="124" text-anchor="start" font-family="system-ui, sans-serif" font-size="12" fill="#222222">Europe</text>
  <rect x="654.4" y="132" width="12" height="12" fill="#76B7B2" />
  <text x="672.4" y="142" text-anchor="start" font-family="system-ui, sans-serif" font-size="12" fill="#222222">South America</text>
  <rect x="654.4" y="150" width="12" height="12" fill="#59A14F" />
  <text x="672.4" y="160" text-anchor="start" font-family="system-ui, sans-serif" font-size="12" fill="#222222">Oceania</text>
  <rect x="654.4" y="168" width="12" height="12" fill="#EDC948" />
  <text x="672.4" y="178" text-anchor="start" font-family="system-ui, sans-serif" font-size="12" fill="#222222">Africa</text>
  <text x="654.4" y="216" text-anchor="start" font-family="system-ui, sans-serif" font-size="12" fill="#222222">Population (M)</text>
  <circle cx="679.369" cy="231" r="4" fill="#222222" />
  <text x="712.339" y="235" text-anchor="start" font-family="system-ui, sans-serif" font-size="12" fill="#222222">25</text>
  <circle cx="679.369" cy="249" r="5.144" fill="#222222" />
  <text x="712.339" y="253" text-anchor="start" font-family="system-ui, sans-serif" font-size="12" fill="#222222">100</text>
  <circle cx="679.369" cy="272.244" r="11.244" fill="#222222" />
  <text x="712.339" y="276.244" text-anchor="start" font-family="system-ui, sans-serif" font-size="12" fill="#222222">500</text>
  <circle cx="679.369" cy="308.357" r="18.869" fill="#222222" />
  <text x="712.339" y="312.357" text-anchor="start" font-family="system-ui, sans-serif" font-size="12" fill="#222222">1000</text>
  <circle cx="679.369" cy="358.196" r="24.969" fill="#222222" />
  <text x="712.339" y="362.196" text-anchor="start" font-family="system-ui, sans-serif" font-size="12" fill="#222222">1400</text>
</g>
</svg>
