<svg xmlns="http://www.w3.org/2000/svg" width="720" height="480" viewBox="0 0 720 480" role="img">
<rect class="algraf-background" x="0" y="0" width="720" height="480" fill="#ffffff" />
<rect class="algraf-plot-area" x="60" y="40" width="630" height="390" fill="#ffffff" />
<g class="algraf-layer algraf-geom-point">
  <circle cx="103.448" cy="355.074" r="4" fill="#4E79A7" opacity="0.75" />
  <circle cx="171.336" cy="347.069" r="4" fill="#4E79A7" opacity="0.75" />
  <circle cx="293.534" cy="251.01" r="4" fill="#4E79A7" opacity="0.75" />
  <circle cx="266.379" cy="403.103" r="4" fill="#F28E2B" opacity="0.75" />
  <circle cx="320.69" cy="367.081" r="4" fill="#F28E2B" opacity="0.75" />
  <circle cx="375" cy="267.02" r="4" fill="#F28E2B" opacity="0.75" />
  <circle cx="497.198" cy="202.98" r="4" fill="#E15759" opacity="0.75" />
  <circle cx="578.664" cy="154.951" r="4" fill="#E15759" opacity="0.75" />
  <circle cx="646.552" cy="66.897" r="4" fill="#E15759" opacity="0.75" />
</g>
<g class="algraf-axes">
  <line x1="60" y1="430" x2="690" y2="430" stroke="#333333" stroke-width="1" />
  <line x1="89.871" y1="430" x2="89.871" y2="435" stroke="#333333" stroke-width="1" />
  <text x="89.871" y="448" text-anchor="middle" font-family="system-ui, sans-serif" font-size="12" fill="#222222">180</text>
  <line x1="225.647" y1="430" x2="225.647" y2="435" stroke="#333333" stroke-width="1" />
  <text x="225.647" y="448" text-anchor="middle" font-family="system-ui, sans-serif" font-size="12" fill="#222222">190</text>
  <line x1="361.422" y1="430" x2="361.422" y2="435" stroke="#333333" stroke-width="1" />
  <text x="361.422" y="448" text-anchor="middle" font-family="system-ui, sans-serif" font-size="12" fill="#222222">200</text>
  <line x1="497.198" y1="430" x2="497.198" y2="435" stroke="#333333" stroke-width="1" />
  <text x="497.198" y="448" text-anchor="middle" font-family="system-ui, sans-serif" font-size="12" fill="#222222">210</text>
  <line x1="632.974" y1="430" x2="632.974" y2="435" stroke="#333333" stroke-width="1" />
  <text x="632.974" y="448" text-anchor="middle" font-family="system-ui, sans-serif" font-size="12" fill="#222222">220</text>
  <text x="375" y="468" text-anchor="middle" font-family="system-ui, sans-serif" font-size="12" fill="#222222">flipper length</text>
  <line x1="60" y1="40" x2="60" y2="430" stroke="#333333" stroke-width="1" />
  <line x1="55" y1="395.099" x2="60" y2="395.099" stroke="#333333" stroke-width="1" />
  <text x="52" y="399.099" text-anchor="end" font-family="system-ui, sans-serif" font-size="12" fill="#222222">3500</text>
  <line x1="55" y1="315.049" x2="60" y2="315.049" stroke="#333333" stroke-width="1" />
  <text x="52" y="319.049" text-anchor="end" font-family="system-ui, sans-serif" font-size="12" fill="#222222">4000</text>
  <line x1="55" y1="235" x2="60" y2="235" stroke="#333333" stroke-width="1" />
  <text x="52" y="239" text-anchor="end" font-family="system-ui, sans-serif" font-size="12" fill="#222222">4500</text>
  <line x1="55" y1="154.951" x2="60" y2="154.951" stroke="#333333" stroke-width="1" />
  <text x="52" y="158.951" text-anchor="end" font-family="system-ui, sans-serif" font-size="12" fill="#222222">5000</text>
  <line x1="55" y1="74.901" x2="60" y2="74.901" stroke="#333333" stroke-width="1" />
  <text x="52" y="78.901" text-anchor="end" font-family="system-ui, sans-serif" font-size="12" fill="#222222">5500</text>
  <text x="17.2" y="235" text-anchor="middle" transform="rotate(-90 17.2 235)" font-family="system-ui, sans-serif" font-size="12" fill="#222222">body mass</text>
</g>
</svg>
