<svg xmlns="http://www.w3.org/2000/svg" width="720" height="480" viewBox="0 0 720 480" role="img" aria-label="Contour lines from a z field">
<title>Contour lines from a z field</title>
<rect class="algraf-background" x="0" y="0" width="720" height="480" fill="#ffffff" />
<text class="algraf-title" x="60" y="24" font-family="system-ui, sans-serif" font-size="18" font-weight="600" fill="#222222">Contour lines from a z field</text>
<rect class="algraf-plot-area" x="60" y="66" width="510" height="364" fill="#ffffff" />
<g class="algraf-grid">
  <line x1="131.81" y1="66" x2="131.81" y2="430" stroke="#f2f2f2" stroke-width="0.6" />
  <line x1="205.086" y1="66" x2="205.086" y2="430" stroke="#f2f2f2" stroke-width="0.6" />
  <line x1="278.362" y1="66" x2="278.362" y2="430" stroke="#f2f2f2" stroke-width="0.6" />
  <line x1="351.638" y1="66" x2="351.638" y2="430" stroke="#f2f2f2" stroke-width="0.6" />
  <line x1="424.914" y1="66" x2="424.914" y2="430" stroke="#f2f2f2" stroke-width="0.6" />
  <line x1="498.19" y1="66" x2="498.19" y2="430" stroke="#f2f2f2" stroke-width="0.6" />
  <line x1="60" y1="378.747" x2="570" y2="378.747" stroke="#f2f2f2" stroke-width="0.6" />
  <line x1="60" y1="326.448" x2="570" y2="326.448" stroke="#f2f2f2" stroke-width="0.6" />
  <line x1="60" y1="274.149" x2="570" y2="274.149" stroke="#f2f2f2" stroke-width="0.6" />
  <line x1="60" y1="221.851" x2="570" y2="221.851" stroke="#f2f2f2" stroke-width="0.6" />
  <line x1="60" y1="169.552" x2="570" y2="169.552" stroke="#f2f2f2" stroke-width="0.6" />
  <line x1="60" y1="117.253" x2="570" y2="117.253" stroke="#f2f2f2" stroke-width="0.6" />
  <line x1="95.172" y1="66" x2="95.172" y2="430" stroke="#e6e6e6" stroke-width="1" />
  <line x1="168.448" y1="66" x2="168.448" y2="430" stroke="#e6e6e6" stroke-width="1" />
  <line x1="241.724" y1="66" x2="241.724" y2="430" stroke="#e6e6e6" stroke-width="1" />
  <line x1="315" y1="66" x2="315" y2="430" stroke="#e6e6e6" stroke-width="1" />
  <line x1="388.276" y1="66" x2="388.276" y2="430" stroke="#e6e6e6" stroke-width="1" />
  <line x1="461.552" y1="66" x2="461.552" y2="430" stroke="#e6e6e6" stroke-width="1" />
  <line x1="534.828" y1="66" x2="534.828" y2="430" stroke="#e6e6e6" stroke-width="1" />
  <line x1="60" y1="404.897" x2="570" y2="404.897" stroke="#e6e6e6" stroke-width="1" />
  <line x1="60" y1="352.598" x2="570" y2="352.598" stroke="#e6e6e6" stroke-width="1" />
  <line x1="60" y1="300.299" x2="570" y2="300.299" stroke="#e6e6e6" stroke-width="1" />
  <line x1="60" y1="248" x2="570" y2="248" stroke="#e6e6e6" stroke-width="1" />
  <line x1="60" y1="195.701" x2="570" y2="195.701" stroke="#e6e6e6" stroke-width="1" />
  <line x1="60" y1="143.402" x2="570" y2="143.402" stroke="#e6e6e6" stroke-width="1" />
  <line x1="60" y1="91.103" x2="570" y2="91.103" stroke="#e6e6e6" stroke-width="1" />
</g>
<defs>
<clipPath id="algraf-clip-0"><rect x="60" y="66" width="510" height="364" /></clipPath>
</defs>
<g clip-path="url(#algraf-clip-0)">
  <g class="algraf-layer algraf-geom-path">
    <path d="M168.448 378.747 L144.023 370.031" fill="none" stroke="#6b7280" stroke-width="1.4" opacity="1" />
    <path d="M144.023 370.031 L131.81 352.598" fill="none" stroke="#6b7280" stroke-width="1.4" opacity="1" />
    <path d="M241.724 404.897 L186.767 391.822" fill="none" stroke="#6b7280" stroke-width="1.4" opacity="1" />
    <path d="M186.767 391.822 L168.448 378.747" fill="none" stroke="#6b7280" stroke-width="1.4" opacity="1" />
    <path d="M388.276 404.897 L461.552 378.747" fill="none" stroke="#6b7280" stroke-width="1.4" opacity="1" />
    <path d="M498.19 352.598 L461.552 378.747" fill="none" stroke="#6b7280" stroke-width="1.4" opacity="1" />
    <path d="M131.81 352.598 L113.491 339.523" fill="none" stroke="#6b7280" stroke-width="1.4" opacity="1" />
    <path d="M113.491 339.523 L95.172 300.299" fill="none" stroke="#6b7280" stroke-width="1.4" opacity="1" />
    <path d="M498.19 352.598 L534.828 300.299" fill="none" stroke="#6b7280" stroke-width="1.4" opacity="1" />
    <path d="M95.172 195.701 L131.81 143.402" fill="none" stroke="#6b7280" stroke-width="1.4" opacity="1" />
    <path d="M534.828 195.701 L516.509 156.477" fill="none" stroke="#6b7280" stroke-width="1.4" opacity="1" />
    <path d="M516.509 156.477 L498.19 143.402" fill="none" stroke="#6b7280" stroke-width="1.4" opacity="1" />
    <path d="M131.81 143.402 L168.448 117.253" fill="none" stroke="#6b7280" stroke-width="1.4" opacity="1" />
    <path d="M241.724 91.103 L168.448 117.253" fill="none" stroke="#6b7280" stroke-width="1.4" opacity="1" />
    <path d="M461.552 117.253 L443.233 104.178" fill="none" stroke="#6b7280" stroke-width="1.4" opacity="1" />
    <path d="M443.233 104.178 L388.276 91.103" fill="none" stroke="#6b7280" stroke-width="1.4" opacity="1" />
    <path d="M498.19 143.402 L485.977 125.969" fill="none" stroke="#6b7280" stroke-width="1.4" opacity="1" />
    <path d="M485.977 125.969 L461.552 117.253" fill="none" stroke="#6b7280" stroke-width="1.4" opacity="1" />
    <path d="M315 370.031 L296.681 365.672" fill="none" stroke="#4d5462" stroke-width="1.4" opacity="1" />
    <path d="M296.681 365.672 L241.724 352.598" fill="none" stroke="#4d5462" stroke-width="1.4" opacity="1" />
    <path d="M388.276 352.598 L315 370.031" fill="none" stroke="#4d5462" stroke-width="1.4" opacity="1" />
    <path d="M241.724 352.598 L192.874 335.165" fill="none" stroke="#4d5462" stroke-width="1.4" opacity="1" />
    <path d="M192.874 335.165 L168.448 300.299" fill="none" stroke="#4d5462" stroke-width="1.4" opacity="1" />
    <path d="M388.276 352.598 L461.552 300.299" fill="none" stroke="#4d5462" stroke-width="1.4" opacity="1" />
    <path d="M461.552 300.299 L388.276 352.598" fill="none" stroke="#4d5462" stroke-width="1.4" opacity="1" />
    <path d="M168.448 300.299 L150.129 261.075" fill="none" stroke="#4d5462" stroke-width="1.4" opacity="1" />
    <path d="M150.129 261.075 L144.023 248" fill="none" stroke="#4d5462" stroke-width="1.4" opacity="1" />
    <path d="M461.552 300.299 L485.977 248" fill="none" stroke="#4d5462" stroke-width="1.4" opacity="1" />
    <path d="M144.023 248 L168.448 195.701" fill="none" stroke="#4d5462" stroke-width="1.4" opacity="1" />
    <path d="M485.977 248 L479.871 234.925" fill="none" stroke="#4d5462" stroke-width="1.4" opacity="1" />
    <path d="M479.871 234.925 L461.552 195.701" fill="none" stroke="#4d5462" stroke-width="1.4" opacity="1" />
    <path d="M168.448 195.701 L241.724 143.402" fill="none" stroke="#4d5462" stroke-width="1.4" opacity="1" />
    <path d="M241.724 143.402 L168.448 195.701" fill="none" stroke="#4d5462" stroke-width="1.4" opacity="1" />
    <path d="M461.552 195.701 L437.126 160.835" fill="none" stroke="#4d5462" stroke-width="1.4" opacity="1" />
    <path d="M437.126 160.835 L388.276 143.402" fill="none" stroke="#4d5462" stroke-width="1.4" opacity="1" />
    <path d="M241.724 143.402 L315 125.969" fill="none" stroke="#4d5462" stroke-width="1.4" opacity="1" />
    <path d="M388.276 143.402 L333.319 130.328" fill="none" stroke="#4d5462" stroke-width="1.4" opacity="1" />
    <path d="M333.319 130.328 L315 125.969" fill="none" stroke="#4d5462" stroke-width="1.4" opacity="1" />
    <path d="M241.724 313.374 L229.511 309.015" fill="none" stroke="#2f3645" stroke-width="1.4" opacity="1" />
    <path d="M229.511 309.015 L223.405 300.299" fill="none" stroke="#2f3645" stroke-width="1.4" opacity="1" />
    <path d="M315 331.678 L278.362 326.448" fill="none" stroke="#2f3645" stroke-width="1.4" opacity="1" />
    <path d="M278.362 326.448 L241.724 313.374" fill="none" stroke="#2f3645" stroke-width="1.4" opacity="1" />
    <path d="M388.276 313.374 L363.851 317.732" fill="none" stroke="#2f3645" stroke-width="1.4" opacity="1" />
    <path d="M363.851 317.732 L315 331.678" fill="none" stroke="#2f3645" stroke-width="1.4" opacity="1" />
    <path d="M406.595 300.299 L388.276 313.374" fill="none" stroke="#2f3645" stroke-width="1.4" opacity="1" />
    <path d="M223.405 300.299 L205.086 274.149" fill="none" stroke="#2f3645" stroke-width="1.4" opacity="1" />
    <path d="M205.086 274.149 L197.759 248" fill="none" stroke="#2f3645" stroke-width="1.4" opacity="1" />
    <path d="M406.595 300.299 L412.701 282.866" fill="none" stroke="#2f3645" stroke-width="1.4" opacity="1" />
    <path d="M412.701 282.866 L432.241 248" fill="none" stroke="#2f3645" stroke-width="1.4" opacity="1" />
    <path d="M197.759 248 L217.299 213.134" fill="none" stroke="#2f3645" stroke-width="1.4" opacity="1" />
    <path d="M217.299 213.134 L223.405 195.701" fill="none" stroke="#2f3645" stroke-width="1.4" opacity="1" />
    <path d="M432.241 248 L424.914 221.851" fill="none" stroke="#2f3645" stroke-width="1.4" opacity="1" />
    <path d="M424.914 221.851 L406.595 195.701" fill="none" stroke="#2f3645" stroke-width="1.4" opacity="1" />
    <path d="M223.405 195.701 L241.724 182.626" fill="none" stroke="#2f3645" stroke-width="1.4" opacity="1" />
    <path d="M315 164.322 L266.149 178.268" fill="none" stroke="#2f3645" stroke-width="1.4" opacity="1" />
    <path d="M266.149 178.268 L241.724 182.626" fill="none" stroke="#2f3645" stroke-width="1.4" opacity="1" />
    <path d="M388.276 182.626 L351.638 169.552" fill="none" stroke="#2f3645" stroke-width="1.4" opacity="1" />
    <path d="M351.638 169.552 L315 164.322" fill="none" stroke="#2f3645" stroke-width="1.4" opacity="1" />
    <path d="M406.595 195.701 L400.489 186.985" fill="none" stroke="#2f3645" stroke-width="1.4" opacity="1" />
    <path d="M400.489 186.985 L388.276 182.626" fill="none" stroke="#2f3645" stroke-width="1.4" opacity="1" />
    <path d="M315 300.299 L271.034 279.379" fill="none" stroke="#111827" stroke-width="1.4" opacity="1" />
    <path d="M271.034 279.379 L241.724 248" fill="none" stroke="#111827" stroke-width="1.4" opacity="1" />
    <path d="M315 300.299 L388.276 248" fill="none" stroke="#111827" stroke-width="1.4" opacity="1" />
    <path d="M388.276 248 L315 300.299" fill="none" stroke="#111827" stroke-width="1.4" opacity="1" />
    <path d="M241.724 248 L315 195.701" fill="none" stroke="#111827" stroke-width="1.4" opacity="1" />
    <path d="M315 195.701 L241.724 248" fill="none" stroke="#111827" stroke-width="1.4" opacity="1" />
    <path d="M388.276 248 L358.966 216.621" fill="none" stroke="#111827" stroke-width="1.4" opacity="1" />
    <path d="M358.966 216.621 L315 195.701" fill="none" stroke="#111827" stroke-width="1.4" opacity="1" />
  </g>
</g>
<g class="algraf-axes">
  <line x1="60" y1="430" x2="570" y2="430" stroke="#333333" stroke-width="1" />
  <line x1="95.172" y1="430" x2="95.172" y2="435" stroke="#333333" stroke-width="1" />
  <text x="95.172" y="448" text-anchor="middle" font-family="system-ui, sans-serif" font-size="12" fill="#222222">0</text>
  <line x1="168.448" y1="430" x2="168.448" y2="435" stroke="#333333" stroke-width="1" />
  <text x="168.448" y="448" text-anchor="middle" font-family="system-ui, sans-serif" font-size="12" fill="#222222">1</text>
  <line x1="241.724" y1="430" x2="241.724" y2="435" stroke="#333333" stroke-width="1" />
  <text x="241.724" y="448" text-anchor="middle" font-family="system-ui, sans-serif" font-size="12" fill="#222222">2</text>
  <line x1="315" y1="430" x2="315" y2="435" stroke="#333333" stroke-width="1" />
  <text x="315" y="448" text-anchor="middle" font-family="system-ui, sans-serif" font-size="12" fill="#222222">3</text>
  <line x1="388.276" y1="430" x2="388.276" y2="435" stroke="#333333" stroke-width="1" />
  <text x="388.276" y="448" text-anchor="middle" font-family="system-ui, sans-serif" font-size="12" fill="#222222">4</text>
  <line x1="461.552" y1="430" x2="461.552" y2="435" stroke="#333333" stroke-width="1" />
  <text x="461.552" y="448" text-anchor="middle" font-family="system-ui, sans-serif" font-size="12" fill="#222222">5</text>
  <line x1="534.828" y1="430" x2="534.828" y2="435" stroke="#333333" stroke-width="1" />
  <text x="534.828" y="448" text-anchor="middle" font-family="system-ui, sans-serif" font-size="12" fill="#222222">6</text>
  <text x="315" y="468" text-anchor="middle" font-family="system-ui, sans-serif" font-size="12" fill="#222222">Grid x</text>
  <line x1="60" y1="66" x2="60" y2="430" stroke="#333333" stroke-width="1" />
  <line x1="55" y1="404.897" x2="60" y2="404.897" stroke="#333333" stroke-width="1" />
  <text x="52" y="408.897" text-anchor="end" font-family="system-ui, sans-serif" font-size="12" fill="#222222">0</text>
  <line x1="55" y1="352.598" x2="60" y2="352.598" stroke="#333333" stroke-width="1" />
  <text x="52" y="356.598" text-anchor="end" font-family="system-ui, sans-serif" font-size="12" fill="#222222">1</text>
  <line x1="55" y1="300.299" x2="60" y2="300.299" stroke="#333333" stroke-width="1" />
  <text x="52" y="304.299" text-anchor="end" font-family="system-ui, sans-serif" font-size="12" fill="#222222">2</text>
  <line x1="55" y1="248" x2="60" y2="248" stroke="#333333" stroke-width="1" />
  <text x="52" y="252" text-anchor="end" font-family="system-ui, sans-serif" font-size="12" fill="#222222">3</text>
  <line x1="55" y1="195.701" x2="60" y2="195.701" stroke="#333333" stroke-width="1" />
  <text x="52" y="199.701" text-anchor="end" font-family="system-ui, sans-serif" font-size="12" fill="#222222">4</text>
  <line x1="55" y1="143.402" x2="60" y2="143.402" stroke="#333333" stroke-width="1" />
  <text x="52" y="147.402" text-anchor="end" font-family="system-ui, sans-serif" font-size="12" fill="#222222">5</text>
  <line x1="55" y1="91.103" x2="60" y2="91.103" stroke="#333333" stroke-width="1" />
  <text x="52" y="95.103" text-anchor="end" font-family="system-ui, sans-serif" font-size="12" fill="#222222">6</text>
  <text x="32.8" y="248" text-anchor="middle" transform="rotate(-90 32.8 248)" font-family="system-ui, sans-serif" font-size="12" fill="#222222">Grid y</text>
</g>
<g class="algraf-legends">
  <text x="586" y="70" text-anchor="start" font-family="system-ui, sans-serif" font-size="12" fill="#222222">level</text>
  <rect x="586" y="78" width="12" height="16" fill="#111827" />
  <text x="604" y="88" text-anchor="start" font-family="system-ui, sans-serif" font-size="12" fill="#222222">13</text>
  <rect x="586" y="94" width="12" height="16" fill="#282f3d" />
  <text x="604" y="104" text-anchor="start" font-family="system-ui, sans-serif" font-size="12" fill="#222222">10.75</text>
  <rect x="586" y="110" width="12" height="16" fill="#3e4554" />
  <text x="604" y="120" text-anchor="start" font-family="system-ui, sans-serif" font-size="12" fill="#222222">8.5</text>
  <rect x="586" y="126" width="12" height="16" fill="#555c6a" />
  <text x="604" y="136" text-anchor="start" font-family="system-ui, sans-serif" font-size="12" fill="#222222">6.25</text>
  <rect x="586" y="142" width="12" height="16" fill="#6b7280" />
  <text x="604" y="152" text-anchor="start" font-family="system-ui, sans-serif" font-size="12" fill="#222222">4</text>
</g>
</svg>
