<svg xmlns="http://www.w3.org/2000/svg" width="720" height="480" viewBox="0 0 720 480" role="img" aria-label="Contour lines from a z field">
<title>Contour lines from a z field</title>
<rect class="algraf-background" x="0" y="0" width="720" height="480" fill="#ffffff" />
<text class="algraf-title" x="60" y="24" font-family="system-ui, sans-serif" font-size="18" font-weight="600" fill="#222222">Contour lines from a z field</text>
<rect class="algraf-plot-area" x="60" y="66" width="510" height="364" fill="#ffffff" />
<g class="algraf-grid">
  <line x1="131.81" y1="66" x2="131.81" y2="430" stroke="#f2f2f2" stroke-width="0.6" />
  <line x1="205.086" y1="66" x2="205.086" y2="430" stroke="#f2f2f2" stroke-width="0.6" />
  <line x1="278.362" y1="66" x2="278.362" y2="430" stroke="#f2f2f2" stroke-width="0.6" />
  <line x1="351.638" y1="66" x2="351.638" y2="430" stroke="#f2f2f2" stroke-width="0.6" />
  <line x1="424.914" y1="66" x2="424.914" y2="430" stroke="#f2f2f2" stroke-width="0.6" />
  <line x1="498.19" y1="66" x2="498.19" y2="430" stroke="#f2f2f2" stroke-width="0.6" />
  <line x1="60" y1="378.747" x2="570" y2="378.747" stroke="#f2f2f2" stroke-width="0.6" />
  <line x1="60" y1="326.448" x2="570" y2="326.448" stroke="#f2f2f2" stroke-width="0.6" />
  <line x1="60" y1="274.149" x2="570" y2="274.149" stroke="#f2f2f2" stroke-width="0.6" />
  <line x1="60" y1="221.851" x2="570" y2="221.851" stroke="#f2f2f2" stroke-width="0.6" />
  <line x1="60" y1="169.552" x2="570" y2="169.552" stroke="#f2f2f2" stroke-width="0.6" />
  <line x1="60" y1="117.253" x2="570" y2="117.253" stroke="#f2f2f2" stroke-width="0.6" />
  <line x1="95.172" y1="66" x2="95.172" y2="430" stroke="#e6e6e6" stroke-width="1" />
  <line x1="168.448" y1="66" x2="168.448" y2="430" stroke="#e6e6e6" stroke-width="1" />
  <line x1="241.724" y1="66" x2="241.724" y2="430" stroke="#e6e6e6" stroke-width="1" />
  <line x1="315" y1="66" x2="315" y2="430" stroke="#e6e6e6" stroke-width="1" />
  <line x1="388.276" y1="66" x2="388.276" y2="430" stroke="#e6e6e6" stroke-width="1" />
  <line x1="461.552" y1="66" x2="461.552" y2="430" stroke="#e6e6e6" stroke-width="1" />
  <line x1="534.828" y1="66" x2="534.828" y2="430" stroke="#e6e6e6" stroke-width="1" />
  <line x1="60" y1="404.897" x2="570" y2="404.897" stroke="#e6e6e6" stroke-width="1" />
  <line x1="60" y1="352.598" x2="570" y2="352.598" stroke="#e6e6e6" stroke-width="1" />
  <line x1="60" y1="300.299" x2="570" y2="300.299" stroke="#e6e6e6" stroke-width="1" />
  <line x1="60" y1="248" x2="570" y2="248" stroke="#e6e6e6" stroke-width="1" />
  <line x1="60" y1="195.701" x2="570" y2="195.701" stroke="#e6e6e6" stroke-width="1" />
  <line x1="60" y1="143.402" x2="570" y2="143.402" stroke="#e6e6e6" stroke-width="1" />
  <line x1="60" y1="91.103" x2="570" y2="91.103" stroke="#e6e6e6" stroke-width="1" />
</g>
<g class="algraf-layer algraf-geom-path">
  <path d="M168.448 378.747 L144.023 370.031" fill="none" stroke="#6b7280" stroke-width="1.4" opacity="1" />
  <path d="M144.023 370.031 L131.81 352.598" fill="none" stroke="#6b7280" stroke-width="1.4" opacity="1" />
  <path d="M241.724 404.897 L186.767 391.822" fill="none" stroke="#6b7280" stroke-width="1.4" opacity="1" />
  <path d="M186.767 391.822 L168.448 378.747" fill="none" stroke="#6b7280" stroke-width="1.4" opacity="1" />
  <path d="M388.276 404.897 L461.552 378.747" fill="none" stroke="#6b7280" stroke-width="1.4" opacity="1" />
  <path d="M498.19 352.598 L461.552 378.747" fill="none" stroke="#6b7280" stroke-width="1.4" opacity="1" />
  <path d="M131.81 352.598 L113.491 339.523" fill="none" stroke="#6b7280" stroke-width="1.4" opacity="1" />
  <path d="M113.491 339.523 L95.172 300.299" fill="none" stroke="#6b7280" stroke-width="1.4" opacity="1" />
  <path d="M498.19 352.598 L534.828 300.299" fill="none" stroke="#6b7280" stroke-width="1.4" opacity="1" />
  <path d="M95.172 195.701 L131.81 143.402" fill="none" stroke="#6b7280" stroke-width="1.4" opacity="1" />
  <path d="M534.828 195.701 L516.509 156.477" fill="none" stroke="#6b7280" stroke-width="1.4" opacity="1" />
  <path d="M516.509 156.477 L498.19 143.402" fill="none" stroke="#6b7280" stroke-width="1.4" opacity="1" />
  <path d="M131.81 143.402 L168.448 117.253" fill="none" stroke="#6b7280" stroke-width="1.4" opacity="1" />
  <path d="M241.724 91.103 L168.448 117.253" fill="none" stroke="#6b7280" stroke-width="1.4" opacity="1" />
  <path d="M461.552 117.253 L443.233 104.178" fill="none" stroke="#6b7280" stroke-width="1.4" opacity="1" />
  <path d="M443.233 104.178 L388.276 91.103" fill="none" stroke="#6b7280" stroke-width="1.4" opacity="1" />
  <path d="M498.19 143.402 L485.977 125.969" fill="none" stroke="#6b7280" stroke-width="1.4" opacity="1" />
  <path d="M485.977 125.969 L461.552 117.253" fill="none" stroke="#6b7280" stroke-width="1.4" opacity="1" />
  <path d="M315 370.031 L296.681 365.672" fill="none" stroke="#4d5462" stroke-width="1.4" opacity="1" />
  <path d="M296.681 365.672 L241.724 352.598" fill="none" stroke="#4d5462" stroke-width="1.4" opacity="1" />
  <path d="M388.276 352.598 L315 370.031" fill="none" stroke="#4d5462" stroke-width="1.4" opacity="1" />
  <path d="M241.724 352.598 L192.874 335.165" fill="none" stroke="#4d5462" stroke-width="1.4" opacity="1" />
  <path d="M192.874 335.165 L168.448 300.299" fill="none" stroke="#4d5462" stroke-width="1.4" opacity="1" />
  <path d="M388.276 352.598 L461.552 300.299" fill="none" stroke="#4d5462" stroke-width="1.4" opacity="1" />
  <path d="M461.552 300.299 L388.276 352.598" fill="none" stroke="#4d5462" stroke-width="1.4" opacity="1" />
  <path d="M168.448 300.299 L150.129 261.075" fill="none" stroke="#4d5462" stroke-width="1.4" opacity="1" />
  <path d="M150.129 261.075 L144.023 248" fill="none" stroke="#4d5462" stroke-width="1.4" opacity="1" />
  <path d="M461.552 300.299 L485.977 248" fill="none" stroke="#4d5462" stroke-width="1.4" opacity="1" />
  <path d="M144.023 248 L168.448 195.701" fill="none" stroke="#4d5462" stroke-width="1.4" opacity="1" />
  <path d="M485.977 248 L479.871 234.925" fill="none" stroke="#4d5462" stroke-width="1.4" opacity="1" />
  <path d="M479.871 234.925 L461.552 195.701" fill="none" stroke="#4d5462" stroke-width="1.4" opacity="1" />
  <path d="M168.448 195.701 L241.724 143.402" fill="none" stroke="#4d5462" stroke-width="1.4" opacity="1" />
  <path d="M241.724 143.402 L168.448 195.701" fill="none" stroke="#4d5462" stroke-width="1.4" opacity="1" />
  <path d="M461.552 195.701 L437.126 160.835" fill="none" stroke="#4d5462" stroke-width="1.4" opacity="1" />
  <path d="M437.126 160.835 L388.276 143.402" fill="none" stroke="#4d5462" stroke-width="1.4" opacity="1" />
  <path d="M241.724 143.402 L315 125.969" fill="none" stroke="#4d5462" stroke-width="1.4" opacity="1" />
  <path d="M388.276 143.402 L333.319 130.328" fill="none" stroke="#4d5462" stroke-width="1.4" opacity="1" />
  <path d="M333.319 130.328 L315 125.969" fill="none" stroke="#4d5462" stroke-width="1.4" opacity="1" />
  <path d="M241.724 313.374 L229.511 309.015" fill="none" stroke="#2f3645" stroke-width="1.4" opacity="1" />
  <path d="M229.511 309.015 L223.405 300.299" fill="none" stroke="#2f3645" stroke-width="1.4" opacity="1" />
  <path d="M315 331.678 L278.362 326.448" fill="none" stroke="#2f3645" stroke-width="1.4" opacity="1" />
  <path d="M278.362 326.448 L241.724 313.374" fill="none" stroke="#2f3645" stroke-width="1.4" opacity="1" />
  <path d="M388.276 313.374 L363.851 317.732" fill="none" stroke="#2f3645" stroke-width="1.4" opacity="1" />
  <path d="M363.851 317.732 L315 331.678" fill="none" stroke="#2f3645" stroke-width="1.4" opacity="1" />
  <path d="M406.595 300.299 L388.276 313.374" fill="none" stroke="#2f3645" stroke-width="1.4" opacity="1" />
  <path d="M223.405 300.299 L205.086 274.149" fill="none" stroke="#2f3645" stroke-width="1.4" opacity="1" />
  <path d="M205.086 274.149 L197.759 248" fill="none" stroke="#2f3645" stroke-width="1.4" opacity="1" />
  <path d="M406.595 300.299 L412.701 282.866" fill="none" stroke="#2f3645" stroke-width="1.4" opacity="1" />
  <path d="M412.701 282.866 L432.241 248" fill="none" stroke="#2f3645" stroke-width="1.4" opacity="1" />
  <path d="M197.759 248 L217.299 213.134" fill="none" stroke="#2f3645" stroke-width="1.4" opacity="1" />
  <path d="M217.299 213.134 L223.405 195.701" fill="none" stroke="#2f3645" stroke-width="1.4" opacity="1" />
  <path d="M432.241 248 L424.914 221.851" fill="none" stroke="#2f3645" stroke-width="1.4" opacity="1" />
  <path d="M424.914 221.851 L406.595 195.701" fill="none" stroke="#2f3645" stroke-width="1.4" opacity="1" />
  <path d="M223.405 195.701 L241.724 182.626" fill="none" stroke="#2f3645" stroke-width="1.4" opacity="1" />
  <path d="M315 164.322 L266.149 178.268" fill="none" stroke="#2f3645" stroke-width="1.4" opacity="1" />
  <path d="M266.149 178.268 L241.724 182.626" fill="none" stroke="#2f3645" stroke-width="1.4" opacity="1" />
  <path d="M388.276 182.626 L351.638 169.552" fill="none" stroke="#2f3645" stroke-width="1.4" opacity="1" />
  <path d="M351.638 169.552 L315 164.322" fill="none" stroke="#2f3645" stroke-width="1.4" opacity="1" />
  <path d="M406.595 195.701 L400.489 186.985" fill="none" stroke="#2f3645" stroke-width="1.4" opacity="1" />
  <path d="M400.489 186.985 L388.276 182.626" fill="none" stroke="#2f3645" stroke-width="1.4" opacity="1" />
  <path d="M315 300.299 L271.034 279.379" fill="none" stroke="#111827" stroke-width="1.4" opacity="1" />
  <path d="M271.034 279.379 L241.724 248" fill="none" stroke="#111827" stroke-width="1.4" opacity="1" />
  <path d="M315 300.299 L388.276 248" fill="none" stroke="#111827" stroke-width="1.4" opacity="1" />
  <path d="M388.276 248 L315 300.299" fill="none" stroke="#111827" stroke-width="1.4" opacity="1" />
  <path d="M241.724 248 L315 195.701" fill="none" stroke="#111827" stroke-width="1.4" opacity="1" />
  <path d="M315 195.701 L241.724 248" fill="none" stroke="#111827" stroke-width="1.4" opacity="1" />
  <path d="M388.276 248 L358.966 216.621" fill="none" stroke="#111827" stroke-width="1.4" opacity="1" />
  <path d="M358.966 216.621 L315 195.701" fill="none" stroke="#111827" stroke-width="1.4" opacity="1" />
</g>
<g class="algraf-axes">
  <line x1="60" y1="430" x2="570" y2="430" stroke="#333333" stroke-width="1" />
  <line x1="95.172" y1="430" x2="95.172" y2="435" stroke="#333333" stroke-width="1" />
  <text x="95.172" y="448" text-anchor="middle" font-family="system-ui, sans-serif" font-size="12" fill="#222222">0</text>
  <line x1="168.448" y1="430" x2="168.448" y2="435" stroke="#333333" stroke-width="1" />
  <text x="168.448" y="448" text-anchor="middle" font-family="system-ui, sans-serif" font-size="12" fill="#222222">1</text>
  <line x1="241.724" y1="430" x2="241.724" y2="435" stroke="#333333" stroke-width="1" />
  <text x="241.724" y="448" text-anchor="middle" font-family="system-ui, sans-serif" font-size="12" fill="#222222">2</text>
  <line x1="315" y1="430" x2="315" y2="435" stroke="#333333" stroke-width="1" />
  <text x="315" y="448" text-anchor="middle" font-family="system-ui, sans-serif" font-size="12" fill="#222222">3</text>
  <line x1="388.276" y1="430" x2="388.276" y2="435" stroke="#333333" stroke-width="1" />
  <text x="388.276" y="448" text-anchor="middle" font-family="system-ui, sans-serif" font-size="12" fill="#222222">4</text>
  <line x1="461.552" y1="430" x2="461.552" y2="435" stroke="#333333" stroke-width="1" />
  <text x="461.552" y="448" text-anchor="middle" font-family="system-ui, sans-serif" font-size="12" fill="#222222">5</text>
  <line x1="534.828" y1="430" x2="534.828" y2="435" stroke="#333333" stroke-width="1" />
  <text x="534.828" y="448" text-anchor="middle" font-family="system-ui, sans-serif" font-size="12" fill="#222222">6</text>
  <text x="315" y="468" text-anchor="middle" font-family="system-ui, sans-serif" font-size="12" fill="#222222">Grid x</text>
  <line x1="60" y1="66" x2="60" y2="430" stroke="#333333" stroke-width="1" />
  <line x1="55" y1="404.897" x2="60" y2="404.897" stroke="#333333" stroke-width="1" />
  <text x="52" y="408.897" text-anchor="end" font-family="system-ui, sans-serif" font-size="12" fill="#222222">0</text>
  <line x1="55" y1="352.598" x2="60" y2="352.598" stroke="#333333" stroke-width="1" />
  <text x="52" y="356.598" text-anchor="end" font-family="system-ui, sans-serif" font-size="12" fill="#222222">1</text>
  <line x1="55" y1="300.299" x2="60" y2="300.299" stroke="#333333" stroke-width="1" />
  <text x="52" y="304.299" text-anchor="end" font-family="system-ui, sans-serif" font-size="12" fill="#222222">2</text>
  <line x1="55" y1="248" x2="60" y2="248" stroke="#333333" stroke-width="1" />
  <text x="52" y="252" text-anchor="end" font-family="system-ui, sans-serif" font-size="12" fill="#222222">3</text>
  <line x1="55" y1="195.701" x2="60" y2="195.701" stroke="#333333" stroke-width="1" />
  <text x="52" y="199.701" text-anchor="end" font-family="system-ui, sans-serif" font-size="12" fill="#222222">4</text>
  <line x1="55" y1="143.402" x2="60" y2="143.402" stroke="#333333" stroke-width="1" />
  <text x="52" y="147.402" text-anchor="end" font-family="system-ui, sans-serif" font-size="12" fill="#222222">5</text>
  <line x1="55" y1="91.103" x2="60" y2="91.103" stroke="#333333" stroke-width="1" />
  <text x="52" y="95.103" text-anchor="end" font-family="system-ui, sans-serif" font-size="12" fill="#222222">6</text>
  <text x="32.8" y="248" text-anchor="middle" transform="rotate(-90 32.8 248)" font-family="system-ui, sans-serif" font-size="12" fill="#222222">Grid y</text>
</g>
<g class="algraf-legends">
  <text x="586" y="70" text-anchor="start" font-family="system-ui, sans-serif" font-size="12" fill="#222222">level</text>
  <rect x="586" y="84" width="22" height="1.75" fill="#111827" />
  <rect x="586" y="85" width="22" height="1.75" fill="#121928" />
  <rect x="586" y="86" width="22" height="1.75" fill="#121928" />
  <rect x="586" y="87" width="22" height="1.75" fill="#121928" />
  <rect x="586" y="88" width="22" height="1.75" fill="#131a29" />
  <rect x="586" y="89" width="22" height="1.75" fill="#131a29" />
  <rect x="586" y="90" width="22" height="1.75" fill="#141b2a" />
  <rect x="586" y="91" width="22" height="1.75" fill="#141b2a" />
  <rect x="586" y="92" width="22" height="1.75" fill="#141b2a" />
  <rect x="586" y="93" width="22" height="1.75" fill="#151c2b" />
  <rect x="586" y="94" width="22" height="1.75" fill="#151c2b" />
  <rect x="586" y="95" width="22" height="1.75" fill="#161d2c" />
  <rect x="586" y="96" width="22" height="1.75" fill="#161d2c" />
  <rect x="586" y="97" width="22" height="1.75" fill="#171e2c" />
  <rect x="586" y="98" width="22" height="1.75" fill="#171e2d" />
  <rect x="586" y="99" width="22" height="1.75" fill="#171e2d" />
  <rect x="586" y="100" width="22" height="1.75" fill="#181f2e" />
  <rect x="586" y="101" width="22" height="1.75" fill="#181f2e" />
  <rect x="586" y="102" width="22" height="1.75" fill="#19202e" />
  <rect x="586" y="103" width="22" height="1.75" fill="#19202f" />
  <rect x="586" y="104" width="22" height="1.75" fill="#19202f" />
  <rect x="586" y="105" width="22" height="1.75" fill="#1a2130" />
  <rect x="586" y="106" width="22" height="1.75" fill="#1a2130" />
  <rect x="586" y="107" width="22" height="1.75" fill="#1b2231" />
  <rect x="586" y="108" width="22" height="1.75" fill="#1b2231" />
  <rect x="586" y="109" width="22" height="1.75" fill="#1b2231" />
  <rect x="586" y="110" width="22" height="1.75" fill="#1c2332" />
  <rect x="586" y="111" width="22" height="1.75" fill="#1c2332" />
  <rect x="586" y="112" width="22" height="1.75" fill="#1d2433" />
  <rect x="586" y="113" width="22" height="1.75" fill="#1d2433" />
  <rect x="586" y="114" width="22" height="1.75" fill="#1d2433" />
  <rect x="586" y="115" width="22" height="1.75" fill="#1e2534" />
  <rect x="586" y="116" width="22" height="1.75" fill="#1e2534" />
  <rect x="586" y="117" width="22" height="1.75" fill="#1f2635" />
  <rect x="586" y="118" width="22" height="1.75" fill="#1f2635" />
  <rect x="586" y="119" width="22" height="1.75" fill="#202735" />
  <rect x="586" y="120" width="22" height="1.75" fill="#202736" />
  <rect x="586" y="121" width="22" height="1.75" fill="#202736" />
  <rect x="586" y="122" width="22" height="1.75" fill="#212837" />
  <rect x="586" y="123" width="22" height="1.75" fill="#212837" />
  <rect x="586" y="124" width="22" height="1.75" fill="#222937" />
  <rect x="586" y="125" width="22" height="1.75" fill="#222938" />
  <rect x="586" y="126" width="22" height="1.75" fill="#222938" />
  <rect x="586" y="127" width="22" height="1.75" fill="#232a39" />
  <rect x="586" y="128" width="22" height="1.75" fill="#232a39" />
  <rect x="586" y="129" width="22" height="1.75" fill="#242b39" />
  <rect x="586" y="130" width="22" height="1.75" fill="#242b3a" />
  <rect x="586" y="131" width="22" height="1.75" fill="#242b3a" />
  <rect x="586" y="132" width="22" height="1.75" fill="#252c3b" />
  <rect x="586" y="133" width="22" height="1.75" fill="#252c3b" />
  <rect x="586" y="134" width="22" height="1.75" fill="#262d3b" />
  <rect x="586" y="135" width="22" height="1.75" fill="#262d3c" />
  <rect x="586" y="136" width="22" height="1.75" fill="#262d3c" />
  <rect x="586" y="137" width="22" height="1.75" fill="#272e3d" />
  <rect x="586" y="138" width="22" height="1.75" fill="#272e3d" />
  <rect x="586" y="139" width="22" height="1.75" fill="#282f3d" />
  <rect x="586" y="140" width="22" height="1.75" fill="#282f3e" />
  <rect x="586" y="141" width="22" height="1.75" fill="#29303e" />
  <rect x="586" y="142" width="22" height="1.75" fill="#29303f" />
  <rect x="586" y="143" width="22" height="1.75" fill="#29303f" />
  <rect x="586" y="144" width="22" height="1.75" fill="#2a313f" />
  <rect x="586" y="145" width="22" height="1.75" fill="#2a3140" />
  <rect x="586" y="146" width="22" height="1.75" fill="#2b3240" />
  <rect x="586" y="147" width="22" height="1.75" fill="#2b3241" />
  <rect x="586" y="148" width="22" height="1.75" fill="#2b3241" />
  <rect x="586" y="149" width="22" height="1.75" fill="#2c3341" />
  <rect x="586" y="150" width="22" height="1.75" fill="#2c3342" />
  <rect x="586" y="151" width="22" height="1.75" fill="#2d3442" />
  <rect x="586" y="152" width="22" height="1.75" fill="#2d3443" />
  <rect x="586" y="153" width="22" height="1.75" fill="#2d3443" />
  <rect x="586" y="154" width="22" height="1.75" fill="#2e3544" />
  <rect x="586" y="155" width="22" height="1.75" fill="#2e3544" />
  <rect x="586" y="156" width="22" height="1.75" fill="#2f3644" />
  <rect x="586" y="157" width="22" height="1.75" fill="#2f3645" />
  <rect x="586" y="158" width="22" height="1.75" fill="#2f3645" />
  <rect x="586" y="159" width="22" height="1.75" fill="#303746" />
  <rect x="586" y="160" width="22" height="1.75" fill="#303746" />
  <rect x="586" y="161" width="22" height="1.75" fill="#313846" />
  <rect x="586" y="162" width="22" height="1.75" fill="#313847" />
  <rect x="586" y="163" width="22" height="1.75" fill="#323947" />
  <rect x="586" y="164" width="22" height="1.75" fill="#323948" />
  <rect x="586" y="165" width="22" height="1.75" fill="#323948" />
  <rect x="586" y="166" width="22" height="1.75" fill="#333a48" />
  <rect x="586" y="167" width="22" height="1.75" fill="#333a49" />
  <rect x="586" y="168" width="22" height="1.75" fill="#343b49" />
  <rect x="586" y="169" width="22" height="1.75" fill="#343b4a" />
  <rect x="586" y="170" width="22" height="1.75" fill="#343b4a" />
  <rect x="586" y="171" width="22" height="1.75" fill="#353c4a" />
  <rect x="586" y="172" width="22" height="1.75" fill="#353c4b" />
  <rect x="586" y="173" width="22" height="1.75" fill="#363d4b" />
  <rect x="586" y="174" width="22" height="1.75" fill="#363d4c" />
  <rect x="586" y="175" width="22" height="1.75" fill="#363d4c" />
  <rect x="586" y="176" width="22" height="1.75" fill="#373e4c" />
  <rect x="586" y="177" width="22" height="1.75" fill="#373e4d" />
  <rect x="586" y="178" width="22" height="1.75" fill="#383f4d" />
  <rect x="586" y="179" width="22" height="1.75" fill="#383f4e" />
  <rect x="586" y="180" width="22" height="1.75" fill="#383f4e" />
  <rect x="586" y="181" width="22" height="1.75" fill="#39404e" />
  <rect x="586" y="182" width="22" height="1.75" fill="#39404f" />
  <rect x="586" y="183" width="22" height="1.75" fill="#3a414f" />
  <rect x="586" y="184" width="22" height="1.75" fill="#3a4150" />
  <rect x="586" y="185" width="22" height="1.75" fill="#3b4250" />
  <rect x="586" y="186" width="22" height="1.75" fill="#3b4250" />
  <rect x="586" y="187" width="22" height="1.75" fill="#3b4251" />
  <rect x="586" y="188" width="22" height="1.75" fill="#3c4351" />
  <rect x="586" y="189" width="22" height="1.75" fill="#3c4352" />
  <rect x="586" y="190" width="22" height="1.75" fill="#3d4452" />
  <rect x="586" y="191" width="22" height="1.75" fill="#3d4452" />
  <rect x="586" y="192" width="22" height="1.75" fill="#3d4453" />
  <rect x="586" y="193" width="22" height="1.75" fill="#3e4553" />
  <rect x="586" y="194" width="22" height="1.75" fill="#3e4554" />
  <rect x="586" y="195" width="22" height="1.75" fill="#3f4654" />
  <rect x="586" y="196" width="22" height="1.75" fill="#3f4655" />
  <rect x="586" y="197" width="22" height="1.75" fill="#3f4655" />
  <rect x="586" y="198" width="22" height="1.75" fill="#404755" />
  <rect x="586" y="199" width="22" height="1.75" fill="#404756" />
  <rect x="586" y="200" width="22" height="1.75" fill="#414856" />
  <rect x="586" y="201" width="22" height="1.75" fill="#414857" />
  <rect x="586" y="202" width="22" height="1.75" fill="#414857" />
  <rect x="586" y="203" width="22" height="1.75" fill="#424957" />
  <rect x="586" y="204" width="22" height="1.75" fill="#424958" />
  <rect x="586" y="205" width="22" height="1.75" fill="#434a58" />
  <rect x="586" y="206" width="22" height="1.75" fill="#434a59" />
  <rect x="586" y="207" width="22" height="1.75" fill="#444b59" />
  <rect x="586" y="208" width="22" height="1.75" fill="#444b59" />
  <rect x="586" y="209" width="22" height="1.75" fill="#444b5a" />
  <rect x="586" y="210" width="22" height="1.75" fill="#454c5a" />
  <rect x="586" y="211" width="22" height="1.75" fill="#454c5b" />
  <rect x="586" y="212" width="22" height="1.75" fill="#464d5b" />
  <rect x="586" y="213" width="22" height="1.75" fill="#464d5b" />
  <rect x="586" y="214" width="22" height="1.75" fill="#464d5c" />
  <rect x="586" y="215" width="22" height="1.75" fill="#474e5c" />
  <rect x="586" y="216" width="22" height="1.75" fill="#474e5d" />
  <rect x="586" y="217" width="22" height="1.75" fill="#484f5d" />
  <rect x="586" y="218" width="22" height="1.75" fill="#484f5d" />
  <rect x="586" y="219" width="22" height="1.75" fill="#484f5e" />
  <rect x="586" y="220" width="22" height="1.75" fill="#49505e" />
  <rect x="586" y="221" width="22" height="1.75" fill="#49505f" />
  <rect x="586" y="222" width="22" height="1.75" fill="#4a515f" />
  <rect x="586" y="223" width="22" height="1.75" fill="#4a515f" />
  <rect x="586" y="224" width="22" height="1.75" fill="#4a5160" />
  <rect x="586" y="225" width="22" height="1.75" fill="#4b5260" />
  <rect x="586" y="226" width="22" height="1.75" fill="#4b5261" />
  <rect x="586" y="227" width="22" height="1.75" fill="#4c5361" />
  <rect x="586" y="228" width="22" height="1.75" fill="#4c5361" />
  <rect x="586" y="229" width="22" height="1.75" fill="#4d5462" />
  <rect x="586" y="230" width="22" height="1.75" fill="#4d5462" />
  <rect x="586" y="231" width="22" height="1.75" fill="#4d5463" />
  <rect x="586" y="232" width="22" height="1.75" fill="#4e5563" />
  <rect x="586" y="233" width="22" height="1.75" fill="#4e5563" />
  <rect x="586" y="234" width="22" height="1.75" fill="#4f5664" />
  <rect x="586" y="235" width="22" height="1.75" fill="#4f5664" />
  <rect x="586" y="236" width="22" height="1.75" fill="#4f5665" />
  <rect x="586" y="237" width="22" height="1.75" fill="#505765" />
  <rect x="586" y="238" width="22" height="1.75" fill="#505766" />
  <rect x="586" y="239" width="22" height="1.75" fill="#515866" />
  <rect x="586" y="240" width="22" height="1.75" fill="#515866" />
  <rect x="586" y="241" width="22" height="1.75" fill="#515867" />
  <rect x="586" y="242" width="22" height="1.75" fill="#525967" />
  <rect x="586" y="243" width="22" height="1.75" fill="#525968" />
  <rect x="586" y="244" width="22" height="1.75" fill="#535a68" />
  <rect x="586" y="245" width="22" height="1.75" fill="#535a68" />
  <rect x="586" y="246" width="22" height="1.75" fill="#535a69" />
  <rect x="586" y="247" width="22" height="1.75" fill="#545b69" />
  <rect x="586" y="248" width="22" height="1.75" fill="#545b6a" />
  <rect x="586" y="249" width="22" height="1.75" fill="#555c6a" />
  <rect x="586" y="250" width="22" height="1.75" fill="#555c6a" />
  <rect x="586" y="251" width="22" height="1.75" fill="#565d6b" />
  <rect x="586" y="252" width="22" height="1.75" fill="#565d6b" />
  <rect x="586" y="253" width="22" height="1.75" fill="#565d6c" />
  <rect x="586" y="254" width="22" height="1.75" fill="#575e6c" />
  <rect x="586" y="255" width="22" height="1.75" fill="#575e6c" />
  <rect x="586" y="256" width="22" height="1.75" fill="#585f6d" />
  <rect x="586" y="257" width="22" height="1.75" fill="#585f6d" />
  <rect x="586" y="258" width="22" height="1.75" fill="#585f6e" />
  <rect x="586" y="259" width="22" height="1.75" fill="#59606e" />
  <rect x="586" y="260" width="22" height="1.75" fill="#59606e" />
  <rect x="586" y="261" width="22" height="1.75" fill="#5a616f" />
  <rect x="586" y="262" width="22" height="1.75" fill="#5a616f" />
  <rect x="586" y="263" width="22" height="1.75" fill="#5a6170" />
  <rect x="586" y="264" width="22" height="1.75" fill="#5b6270" />
  <rect x="586" y="265" width="22" height="1.75" fill="#5b6270" />
  <rect x="586" y="266" width="22" height="1.75" fill="#5c6371" />
  <rect x="586" y="267" width="22" height="1.75" fill="#5c6371" />
  <rect x="586" y="268" width="22" height="1.75" fill="#5c6372" />
  <rect x="586" y="269" width="22" height="1.75" fill="#5d6472" />
  <rect x="586" y="270" width="22" height="1.75" fill="#5d6472" />
  <rect x="586" y="271" width="22" height="1.75" fill="#5e6573" />
  <rect x="586" y="272" width="22" height="1.75" fill="#5e6573" />
  <rect x="586" y="273" width="22" height="1.75" fill="#5f6674" />
  <rect x="586" y="274" width="22" height="1.75" fill="#5f6674" />
  <rect x="586" y="275" width="22" height="1.75" fill="#5f6674" />
  <rect x="586" y="276" width="22" height="1.75" fill="#606775" />
  <rect x="586" y="277" width="22" height="1.75" fill="#606775" />
  <rect x="586" y="278" width="22" height="1.75" fill="#616876" />
  <rect x="586" y="279" width="22" height="1.75" fill="#616876" />
  <rect x="586" y="280" width="22" height="1.75" fill="#616876" />
  <rect x="586" y="281" width="22" height="1.75" fill="#626977" />
  <rect x="586" y="282" width="22" height="1.75" fill="#626977" />
  <rect x="586" y="283" width="22" height="1.75" fill="#636a78" />
  <rect x="586" y="284" width="22" height="1.75" fill="#636a78" />
  <rect x="586" y="285" width="22" height="1.75" fill="#636a79" />
  <rect x="586" y="286" width="22" height="1.75" fill="#646b79" />
  <rect x="586" y="287" width="22" height="1.75" fill="#646b79" />
  <rect x="586" y="288" width="22" height="1.75" fill="#656c7a" />
  <rect x="586" y="289" width="22" height="1.75" fill="#656c7a" />
  <rect x="586" y="290" width="22" height="1.75" fill="#656c7b" />
  <rect x="586" y="291" width="22" height="1.75" fill="#666d7b" />
  <rect x="586" y="292" width="22" height="1.75" fill="#666d7b" />
  <rect x="586" y="293" width="22" height="1.75" fill="#676e7c" />
  <rect x="586" y="294" width="22" height="1.75" fill="#676e7c" />
  <rect x="586" y="295" width="22" height="1.75" fill="#686f7d" />
  <rect x="586" y="296" width="22" height="1.75" fill="#686f7d" />
  <rect x="586" y="297" width="22" height="1.75" fill="#686f7d" />
  <rect x="586" y="298" width="22" height="1.75" fill="#69707e" />
  <rect x="586" y="299" width="22" height="1.75" fill="#69707e" />
  <rect x="586" y="300" width="22" height="1.75" fill="#6a717f" />
  <rect x="586" y="301" width="22" height="1.75" fill="#6a717f" />
  <rect x="586" y="302" width="22" height="1.75" fill="#6a717f" />
  <rect x="586" y="303" width="22" height="1" fill="#6b7280" />
  <text x="616" y="308" text-anchor="start" font-family="system-ui, sans-serif" font-size="12" fill="#222222">4</text>
  <text x="616" y="253" text-anchor="start" font-family="system-ui, sans-serif" font-size="12" fill="#222222">6.25</text>
  <text x="616" y="198" text-anchor="start" font-family="system-ui, sans-serif" font-size="12" fill="#222222">8.5</text>
  <text x="616" y="143" text-anchor="start" font-family="system-ui, sans-serif" font-size="12" fill="#222222">10.75</text>
  <text x="616" y="88" text-anchor="start" font-family="system-ui, sans-serif" font-size="12" fill="#222222">13</text>
</g>
</svg>
