<svg xmlns="http://www.w3.org/2000/svg" width="720" height="480" viewBox="0 0 720 480" role="img" aria-label="Filled contour bands">
<title>Filled contour bands</title>
<rect class="algraf-background" x="0" y="0" width="720" height="480" fill="#ffffff" />
<text class="algraf-title" x="60" y="24" font-family="system-ui, sans-serif" font-size="18" font-weight="600" fill="#222222">Filled contour bands</text>
<rect class="algraf-plot-area" x="60" y="66" width="510" height="364" fill="#ffffff" />
<g class="algraf-layer algraf-geom-geo">
  <path d="M133 430L193.667 430L193.667 369.333L133 430Z" fill="#2b6cb0" fill-rule="evenodd" stroke="#ffffff" stroke-width="0.1"/>
  <path d="M133 430L193.667 369.333L133 369.333L133 430Z" fill="#2b6cb0" fill-rule="evenodd" stroke="#ffffff" stroke-width="0.1"/>
  <path d="M224 399.667L193.667 430L254.333 430L254.333 409.778L224 399.667Z" fill="#2b6cb0" fill-rule="evenodd" stroke="#ffffff" stroke-width="0.1"/>
  <path d="M193.667 430L224 399.667L193.667 369.333L193.667 430Z" fill="#2b6cb0" fill-rule="evenodd" stroke="#ffffff" stroke-width="0.1"/>
  <path d="M269.5 414.833L254.333 430L315 430L269.5 414.833Z" fill="#2b6cb0" fill-rule="evenodd" stroke="#ffffff" stroke-width="0.1"/>
  <path d="M254.333 409.778L254.333 430L269.5 414.833L254.333 409.778Z" fill="#2b6cb0" fill-rule="evenodd" stroke="#ffffff" stroke-width="0.1"/>
  <path d="M315 430L375.667 430L375.667 409.778L315 430Z" fill="#2b6cb0" fill-rule="evenodd" stroke="#ffffff" stroke-width="0.1"/>
  <path d="M375.667 430L436.333 430L436.333 369.333L375.667 430Z" fill="#2b6cb0" fill-rule="evenodd" stroke="#ffffff" stroke-width="0.1"/>
  <path d="M375.667 409.778L375.667 430L436.333 369.333L375.667 409.778Z" fill="#2b6cb0" fill-rule="evenodd" stroke="#ffffff" stroke-width="0.1"/>
  <path d="M436.333 430L497 430L497 369.333L436.333 430Z" fill="#2b6cb0" fill-rule="evenodd" stroke="#ffffff" stroke-width="0.1"/>
  <path d="M436.333 430L497 369.333L436.333 369.333L436.333 430Z" fill="#2b6cb0" fill-rule="evenodd" stroke="#ffffff" stroke-width="0.1"/>
  <path d="M163.333 339L133 369.333L193.667 369.333L163.333 339Z" fill="#2b6cb0" fill-rule="evenodd" stroke="#ffffff" stroke-width="0.1"/>
  <path d="M133 369.333L163.333 339L153.222 308.667L133 308.667L133 369.333Z" fill="#2b6cb0" fill-rule="evenodd" stroke="#ffffff" stroke-width="0.1"/>
  <path d="M436.333 369.333L497 369.333L497 308.667L436.333 369.333Z" fill="#2b6cb0" fill-rule="evenodd" stroke="#ffffff" stroke-width="0.1"/>
  <path d="M436.333 369.333L497 308.667L476.778 308.667L436.333 369.333Z" fill="#2b6cb0" fill-rule="evenodd" stroke="#ffffff" stroke-width="0.1"/>
  <path d="M148.167 293.5L133 308.667L153.222 308.667L148.167 293.5Z" fill="#2b6cb0" fill-rule="evenodd" stroke="#ffffff" stroke-width="0.1"/>
  <path d="M133 308.667L148.167 293.5L133 248L133 308.667Z" fill="#2b6cb0" fill-rule="evenodd" stroke="#ffffff" stroke-width="0.1"/>
  <path d="M497 248L476.778 308.667L497 308.667L497 248Z" fill="#2b6cb0" fill-rule="evenodd" stroke="#ffffff" stroke-width="0.1"/>
  <path d="M133 248L153.222 187.333L133 187.333L133 248Z" fill="#2b6cb0" fill-rule="evenodd" stroke="#ffffff" stroke-width="0.1"/>
  <path d="M481.833 202.5L497 248L497 187.333L481.833 202.5Z" fill="#2b6cb0" fill-rule="evenodd" stroke="#ffffff" stroke-width="0.1"/>
  <path d="M481.833 202.5L497 187.333L476.778 187.333L481.833 202.5Z" fill="#2b6cb0" fill-rule="evenodd" stroke="#ffffff" stroke-width="0.1"/>
  <path d="M133 187.333L153.222 187.333L193.667 126.667L133 187.333Z" fill="#2b6cb0" fill-rule="evenodd" stroke="#ffffff" stroke-width="0.1"/>
  <path d="M133 187.333L193.667 126.667L133 126.667L133 187.333Z" fill="#2b6cb0" fill-rule="evenodd" stroke="#ffffff" stroke-width="0.1"/>
  <path d="M466.667 157L476.778 187.333L497 187.333L497 126.667L466.667 157Z" fill="#2b6cb0" fill-rule="evenodd" stroke="#ffffff" stroke-width="0.1"/>
  <path d="M436.333 126.667L466.667 157L497 126.667L436.333 126.667Z" fill="#2b6cb0" fill-rule="evenodd" stroke="#ffffff" stroke-width="0.1"/>
  <path d="M133 126.667L193.667 126.667L193.667 66L133 126.667Z" fill="#2b6cb0" fill-rule="evenodd" stroke="#ffffff" stroke-width="0.1"/>
  <path d="M133 126.667L193.667 66L133 66L133 126.667Z" fill="#2b6cb0" fill-rule="evenodd" stroke="#ffffff" stroke-width="0.1"/>
  <path d="M193.667 126.667L254.333 86.222L254.333 66L193.667 126.667Z" fill="#2b6cb0" fill-rule="evenodd" stroke="#ffffff" stroke-width="0.1"/>
  <path d="M193.667 126.667L254.333 66L193.667 66L193.667 126.667Z" fill="#2b6cb0" fill-rule="evenodd" stroke="#ffffff" stroke-width="0.1"/>
  <path d="M254.333 86.222L315 66L254.333 66L254.333 86.222Z" fill="#2b6cb0" fill-rule="evenodd" stroke="#ffffff" stroke-width="0.1"/>
  <path d="M360.5 81.167L375.667 86.222L375.667 66L360.5 81.167Z" fill="#2b6cb0" fill-rule="evenodd" stroke="#ffffff" stroke-width="0.1"/>
  <path d="M315 66L360.5 81.167L375.667 66L315 66Z" fill="#2b6cb0" fill-rule="evenodd" stroke="#ffffff" stroke-width="0.1"/>
  <path d="M406 96.333L436.333 126.667L436.333 66L406 96.333Z" fill="#2b6cb0" fill-rule="evenodd" stroke="#ffffff" stroke-width="0.1"/>
  <path d="M375.667 86.222L406 96.333L436.333 66L375.667 66L375.667 86.222Z" fill="#2b6cb0" fill-rule="evenodd" stroke="#ffffff" stroke-width="0.1"/>
  <path d="M436.333 126.667L497 126.667L497 66L436.333 126.667Z" fill="#2b6cb0" fill-rule="evenodd" stroke="#ffffff" stroke-width="0.1"/>
  <path d="M436.333 126.667L497 66L436.333 66L436.333 126.667Z" fill="#2b6cb0" fill-rule="evenodd" stroke="#ffffff" stroke-width="0.1"/>
  <path d="M224 399.667L254.333 409.778L254.333 369.333L224 399.667Z" fill="#89b6d5" fill-rule="evenodd" stroke="#ffffff" stroke-width="0.1"/>
  <path d="M193.667 369.333L224 399.667L254.333 369.333L193.667 369.333Z" fill="#89b6d5" fill-rule="evenodd" stroke="#ffffff" stroke-width="0.1"/>
  <path d="M269.5 414.833L315 430L315 369.333L269.5 414.833Z" fill="#89b6d5" fill-rule="evenodd" stroke="#ffffff" stroke-width="0.1"/>
  <path d="M254.333 409.778L269.5 414.833L315 369.333L254.333 369.333L254.333 409.778Z" fill="#89b6d5" fill-rule="evenodd" stroke="#ffffff" stroke-width="0.1"/>
  <path d="M315 430L375.667 409.778L375.667 369.333L315 430Z" fill="#89b6d5" fill-rule="evenodd" stroke="#ffffff" stroke-width="0.1"/>
  <path d="M315 430L375.667 369.333L315 369.333L315 430Z" fill="#89b6d5" fill-rule="evenodd" stroke="#ffffff" stroke-width="0.1"/>
  <path d="M375.667 409.778L436.333 369.333L375.667 369.333L375.667 409.778Z" fill="#89b6d5" fill-rule="evenodd" stroke="#ffffff" stroke-width="0.1"/>
  <path d="M163.333 339L193.667 369.333L193.667 308.667L163.333 339Z" fill="#89b6d5" fill-rule="evenodd" stroke="#ffffff" stroke-width="0.1"/>
  <path d="M163.333 339L193.667 308.667L153.222 308.667L163.333 339Z" fill="#89b6d5" fill-rule="evenodd" stroke="#ffffff" stroke-width="0.1"/>
  <path d="M224 339L193.667 369.333L254.333 369.333L254.333 354.167L224 339Z" fill="#89b6d5" fill-rule="evenodd" stroke="#ffffff" stroke-width="0.1"/>
  <path d="M193.667 369.333L224 339L208.833 308.667L193.667 308.667L193.667 369.333Z" fill="#89b6d5" fill-rule="evenodd" stroke="#ffffff" stroke-width="0.1"/>
  <path d="M264.444 359.222L254.333 369.333L315 369.333L264.444 359.222Z" fill="#89b6d5" fill-rule="evenodd" stroke="#ffffff" stroke-width="0.1"/>
  <path d="M254.333 354.167L254.333 369.333L264.444 359.222L254.333 354.167Z" fill="#89b6d5" fill-rule="evenodd" stroke="#ffffff" stroke-width="0.1"/>
  <path d="M315 369.333L375.667 369.333L375.667 354.167L315 369.333Z" fill="#89b6d5" fill-rule="evenodd" stroke="#ffffff" stroke-width="0.1"/>
  <path d="M375.667 369.333L436.333 369.333L436.333 308.667L375.667 369.333Z" fill="#89b6d5" fill-rule="evenodd" stroke="#ffffff" stroke-width="0.1"/>
  <path d="M375.667 354.167L375.667 369.333L436.333 308.667L421.167 308.667L375.667 354.167Z" fill="#89b6d5" fill-rule="evenodd" stroke="#ffffff" stroke-width="0.1"/>
  <path d="M436.333 369.333L476.778 308.667L436.333 308.667L436.333 369.333Z" fill="#89b6d5" fill-rule="evenodd" stroke="#ffffff" stroke-width="0.1"/>
  <path d="M148.167 293.5L153.222 308.667L193.667 308.667L193.667 248L148.167 293.5Z" fill="#89b6d5" fill-rule="evenodd" stroke="#ffffff" stroke-width="0.1"/>
  <path d="M133 248L148.167 293.5L193.667 248L133 248Z" fill="#89b6d5" fill-rule="evenodd" stroke="#ffffff" stroke-width="0.1"/>
  <path d="M203.778 298.556L193.667 308.667L208.833 308.667L203.778 298.556Z" fill="#89b6d5" fill-rule="evenodd" stroke="#ffffff" stroke-width="0.1"/>
  <path d="M193.667 308.667L203.778 298.556L193.667 248L193.667 308.667Z" fill="#89b6d5" fill-rule="evenodd" stroke="#ffffff" stroke-width="0.1"/>
  <path d="M436.333 248L421.167 308.667L436.333 308.667L436.333 248Z" fill="#89b6d5" fill-rule="evenodd" stroke="#ffffff" stroke-width="0.1"/>
  <path d="M436.333 308.667L476.778 308.667L497 248L436.333 308.667Z" fill="#89b6d5" fill-rule="evenodd" stroke="#ffffff" stroke-width="0.1"/>
  <path d="M436.333 308.667L497 248L436.333 248L436.333 308.667Z" fill="#89b6d5" fill-rule="evenodd" stroke="#ffffff" stroke-width="0.1"/>
  <path d="M133 248L193.667 248L193.667 187.333L133 248Z" fill="#89b6d5" fill-rule="evenodd" stroke="#ffffff" stroke-width="0.1"/>
  <path d="M133 248L193.667 187.333L153.222 187.333L133 248Z" fill="#89b6d5" fill-rule="evenodd" stroke="#ffffff" stroke-width="0.1"/>
  <path d="M193.667 248L208.833 187.333L193.667 187.333L193.667 248Z" fill="#89b6d5" fill-rule="evenodd" stroke="#ffffff" stroke-width="0.1"/>
  <path d="M426.222 197.444L436.333 248L436.333 187.333L426.222 197.444Z" fill="#89b6d5" fill-rule="evenodd" stroke="#ffffff" stroke-width="0.1"/>
  <path d="M426.222 197.444L436.333 187.333L421.167 187.333L426.222 197.444Z" fill="#89b6d5" fill-rule="evenodd" stroke="#ffffff" stroke-width="0.1"/>
  <path d="M481.833 202.5L436.333 248L497 248L481.833 202.5Z" fill="#89b6d5" fill-rule="evenodd" stroke="#ffffff" stroke-width="0.1"/>
  <path d="M436.333 248L481.833 202.5L476.778 187.333L436.333 187.333L436.333 248Z" fill="#89b6d5" fill-rule="evenodd" stroke="#ffffff" stroke-width="0.1"/>
  <path d="M193.667 126.667L153.222 187.333L193.667 187.333L193.667 126.667Z" fill="#89b6d5" fill-rule="evenodd" stroke="#ffffff" stroke-width="0.1"/>
  <path d="M193.667 187.333L208.833 187.333L254.333 141.833L254.333 126.667L193.667 187.333Z" fill="#89b6d5" fill-rule="evenodd" stroke="#ffffff" stroke-width="0.1"/>
  <path d="M193.667 187.333L254.333 126.667L193.667 126.667L193.667 187.333Z" fill="#89b6d5" fill-rule="evenodd" stroke="#ffffff" stroke-width="0.1"/>
  <path d="M254.333 141.833L315 126.667L254.333 126.667L254.333 141.833Z" fill="#89b6d5" fill-rule="evenodd" stroke="#ffffff" stroke-width="0.1"/>
  <path d="M365.556 136.778L375.667 141.833L375.667 126.667L365.556 136.778Z" fill="#89b6d5" fill-rule="evenodd" stroke="#ffffff" stroke-width="0.1"/>
  <path d="M315 126.667L365.556 136.778L375.667 126.667L315 126.667Z" fill="#89b6d5" fill-rule="evenodd" stroke="#ffffff" stroke-width="0.1"/>
  <path d="M406 157L421.167 187.333L436.333 187.333L436.333 126.667L406 157Z" fill="#89b6d5" fill-rule="evenodd" stroke="#ffffff" stroke-width="0.1"/>
  <path d="M375.667 141.833L406 157L436.333 126.667L375.667 126.667L375.667 141.833Z" fill="#89b6d5" fill-rule="evenodd" stroke="#ffffff" stroke-width="0.1"/>
  <path d="M466.667 157L436.333 187.333L476.778 187.333L466.667 157Z" fill="#89b6d5" fill-rule="evenodd" stroke="#ffffff" stroke-width="0.1"/>
  <path d="M436.333 187.333L466.667 157L436.333 126.667L436.333 187.333Z" fill="#89b6d5" fill-rule="evenodd" stroke="#ffffff" stroke-width="0.1"/>
  <path d="M193.667 126.667L254.333 126.667L254.333 86.222L193.667 126.667Z" fill="#89b6d5" fill-rule="evenodd" stroke="#ffffff" stroke-width="0.1"/>
  <path d="M254.333 126.667L315 126.667L315 66L254.333 126.667Z" fill="#89b6d5" fill-rule="evenodd" stroke="#ffffff" stroke-width="0.1"/>
  <path d="M254.333 86.222L254.333 126.667L315 66L254.333 86.222Z" fill="#89b6d5" fill-rule="evenodd" stroke="#ffffff" stroke-width="0.1"/>
  <path d="M360.5 81.167L315 126.667L375.667 126.667L375.667 86.222L360.5 81.167Z" fill="#89b6d5" fill-rule="evenodd" stroke="#ffffff" stroke-width="0.1"/>
  <path d="M315 126.667L360.5 81.167L315 66L315 126.667Z" fill="#89b6d5" fill-rule="evenodd" stroke="#ffffff" stroke-width="0.1"/>
  <path d="M406 96.333L375.667 126.667L436.333 126.667L406 96.333Z" fill="#89b6d5" fill-rule="evenodd" stroke="#ffffff" stroke-width="0.1"/>
  <path d="M375.667 86.222L375.667 126.667L406 96.333L375.667 86.222Z" fill="#89b6d5" fill-rule="evenodd" stroke="#ffffff" stroke-width="0.1"/>
  <path d="M224 339L254.333 354.167L254.333 308.667L224 339Z" fill="#e6fffa" fill-rule="evenodd" stroke="#ffffff" stroke-width="0.1"/>
  <path d="M224 339L254.333 308.667L208.833 308.667L224 339Z" fill="#e6fffa" fill-rule="evenodd" stroke="#ffffff" stroke-width="0.1"/>
  <path d="M294.778 328.889L264.444 359.222L315 369.333L315 332.933L294.778 328.889Z" fill="#e6fffa" fill-rule="evenodd" stroke="#ffffff" stroke-width="0.1"/>
  <path d="M254.333 354.167L264.444 359.222L294.778 328.889L254.333 308.667L254.333 354.167Z" fill="#e6fffa" fill-rule="evenodd" stroke="#ffffff" stroke-width="0.1"/>
  <path d="M315 369.333L375.667 354.167L375.667 308.667L315 369.333Z" fill="#e6fffa" fill-rule="evenodd" stroke="#ffffff" stroke-width="0.1"/>
  <path d="M315 332.933L315 369.333L375.667 308.667L315 332.933Z" fill="#e6fffa" fill-rule="evenodd" stroke="#ffffff" stroke-width="0.1"/>
  <path d="M375.667 354.167L421.167 308.667L375.667 308.667L375.667 354.167Z" fill="#e6fffa" fill-rule="evenodd" stroke="#ffffff" stroke-width="0.1"/>
  <path d="M234.111 268.222L203.778 298.556L208.833 308.667L254.333 308.667L234.111 268.222Z" fill="#e6fffa" fill-rule="evenodd" stroke="#ffffff" stroke-width="0.1"/>
  <path d="M230.067 248L193.667 248L203.778 298.556L234.111 268.222L230.067 248Z" fill="#e6fffa" fill-rule="evenodd" stroke="#ffffff" stroke-width="0.1"/>
  <path d="M375.667 308.667L421.167 308.667L436.333 248L375.667 308.667Z" fill="#e6fffa" fill-rule="evenodd" stroke="#ffffff" stroke-width="0.1"/>
  <path d="M375.667 308.667L436.333 248L399.933 248L375.667 308.667Z" fill="#e6fffa" fill-rule="evenodd" stroke="#ffffff" stroke-width="0.1"/>
  <path d="M193.667 248L230.067 248L254.333 187.333L193.667 248Z" fill="#e6fffa" fill-rule="evenodd" stroke="#ffffff" stroke-width="0.1"/>
  <path d="M193.667 248L254.333 187.333L208.833 187.333L193.667 248Z" fill="#e6fffa" fill-rule="evenodd" stroke="#ffffff" stroke-width="0.1"/>
  <path d="M426.222 197.444L395.889 227.778L399.933 248L436.333 248L426.222 197.444Z" fill="#e6fffa" fill-rule="evenodd" stroke="#ffffff" stroke-width="0.1"/>
  <path d="M375.667 187.333L395.889 227.778L426.222 197.444L421.167 187.333L375.667 187.333Z" fill="#e6fffa" fill-rule="evenodd" stroke="#ffffff" stroke-width="0.1"/>
  <path d="M208.833 187.333L254.333 187.333L254.333 141.833L208.833 187.333Z" fill="#e6fffa" fill-rule="evenodd" stroke="#ffffff" stroke-width="0.1"/>
  <path d="M254.333 187.333L315 163.067L315 126.667L254.333 187.333Z" fill="#e6fffa" fill-rule="evenodd" stroke="#ffffff" stroke-width="0.1"/>
  <path d="M254.333 141.833L254.333 187.333L315 126.667L254.333 141.833Z" fill="#e6fffa" fill-rule="evenodd" stroke="#ffffff" stroke-width="0.1"/>
  <path d="M365.556 136.778L335.222 167.111L375.667 187.333L375.667 141.833L365.556 136.778Z" fill="#e6fffa" fill-rule="evenodd" stroke="#ffffff" stroke-width="0.1"/>
  <path d="M315 163.067L335.222 167.111L365.556 136.778L315 126.667L315 163.067Z" fill="#e6fffa" fill-rule="evenodd" stroke="#ffffff" stroke-width="0.1"/>
  <path d="M406 157L375.667 187.333L421.167 187.333L406 157Z" fill="#e6fffa" fill-rule="evenodd" stroke="#ffffff" stroke-width="0.1"/>
  <path d="M375.667 141.833L375.667 187.333L406 157L375.667 141.833Z" fill="#e6fffa" fill-rule="evenodd" stroke="#ffffff" stroke-width="0.1"/>
  <path d="M294.778 328.889L315 332.933L315 308.667L294.778 328.889Z" fill="#d69895" fill-rule="evenodd" stroke="#ffffff" stroke-width="0.1"/>
  <path d="M254.333 308.667L294.778 328.889L315 308.667L254.333 308.667Z" fill="#d69895" fill-rule="evenodd" stroke="#ffffff" stroke-width="0.1"/>
  <path d="M315 332.933L375.667 308.667L315 308.667L315 332.933Z" fill="#d69895" fill-rule="evenodd" stroke="#ffffff" stroke-width="0.1"/>
  <path d="M234.111 268.222L254.333 308.667L254.333 248L234.111 268.222Z" fill="#d69895" fill-rule="evenodd" stroke="#ffffff" stroke-width="0.1"/>
  <path d="M234.111 268.222L254.333 248L230.067 248L234.111 268.222Z" fill="#d69895" fill-rule="evenodd" stroke="#ffffff" stroke-width="0.1"/>
  <path d="M290.733 272.267L254.333 308.667L315 308.667L315 288.444L290.733 272.267Z" fill="#d69895" fill-rule="evenodd" stroke="#ffffff" stroke-width="0.1"/>
  <path d="M254.333 308.667L290.733 272.267L274.556 248L254.333 248L254.333 308.667Z" fill="#d69895" fill-rule="evenodd" stroke="#ffffff" stroke-width="0.1"/>
  <path d="M315 308.667L375.667 308.667L375.667 248L315 308.667Z" fill="#d69895" fill-rule="evenodd" stroke="#ffffff" stroke-width="0.1"/>
  <path d="M315 288.444L315 308.667L375.667 248L355.444 248L315 288.444Z" fill="#d69895" fill-rule="evenodd" stroke="#ffffff" stroke-width="0.1"/>
  <path d="M375.667 308.667L399.933 248L375.667 248L375.667 308.667Z" fill="#d69895" fill-rule="evenodd" stroke="#ffffff" stroke-width="0.1"/>
  <path d="M254.333 187.333L230.067 248L254.333 248L254.333 187.333Z" fill="#d69895" fill-rule="evenodd" stroke="#ffffff" stroke-width="0.1"/>
  <path d="M254.333 248L274.556 248L315 207.556L315 187.333L254.333 248Z" fill="#d69895" fill-rule="evenodd" stroke="#ffffff" stroke-width="0.1"/>
  <path d="M254.333 248L315 187.333L254.333 187.333L254.333 248Z" fill="#d69895" fill-rule="evenodd" stroke="#ffffff" stroke-width="0.1"/>
  <path d="M339.267 223.733L355.444 248L375.667 248L375.667 187.333L339.267 223.733Z" fill="#d69895" fill-rule="evenodd" stroke="#ffffff" stroke-width="0.1"/>
  <path d="M315 207.556L339.267 223.733L375.667 187.333L315 187.333L315 207.556Z" fill="#d69895" fill-rule="evenodd" stroke="#ffffff" stroke-width="0.1"/>
  <path d="M395.889 227.778L375.667 248L399.933 248L395.889 227.778Z" fill="#d69895" fill-rule="evenodd" stroke="#ffffff" stroke-width="0.1"/>
  <path d="M375.667 248L395.889 227.778L375.667 187.333L375.667 248Z" fill="#d69895" fill-rule="evenodd" stroke="#ffffff" stroke-width="0.1"/>
  <path d="M254.333 187.333L315 187.333L315 163.067L254.333 187.333Z" fill="#d69895" fill-rule="evenodd" stroke="#ffffff" stroke-width="0.1"/>
  <path d="M335.222 167.111L315 187.333L375.667 187.333L335.222 167.111Z" fill="#d69895" fill-rule="evenodd" stroke="#ffffff" stroke-width="0.1"/>
  <path d="M315 163.067L315 187.333L335.222 167.111L315 163.067Z" fill="#d69895" fill-rule="evenodd" stroke="#ffffff" stroke-width="0.1"/>
  <path d="M290.733 272.267L315 288.444L315 248L290.733 272.267Z" fill="#c53030" fill-rule="evenodd" stroke="#ffffff" stroke-width="0.1"/>
  <path d="M290.733 272.267L315 248L274.556 248L290.733 272.267Z" fill="#c53030" fill-rule="evenodd" stroke="#ffffff" stroke-width="0.1"/>
  <path d="M315 288.444L355.444 248L315 248L315 288.444Z" fill="#c53030" fill-rule="evenodd" stroke="#ffffff" stroke-width="0.1"/>
  <path d="M274.556 248L315 248L315 207.556L274.556 248Z" fill="#c53030" fill-rule="evenodd" stroke="#ffffff" stroke-width="0.1"/>
  <path d="M339.267 223.733L315 248L355.444 248L339.267 223.733Z" fill="#c53030" fill-rule="evenodd" stroke="#ffffff" stroke-width="0.1"/>
  <path d="M315 207.556L315 248L339.267 223.733L315 207.556Z" fill="#c53030" fill-rule="evenodd" stroke="#ffffff" stroke-width="0.1"/>
</g>
<g class="algraf-legends">
  <text x="586" y="70" text-anchor="start" font-family="system-ui, sans-serif" font-size="12" fill="#222222">level mid</text>
  <rect x="586" y="84" width="22" height="1.75" fill="#c53131" />
  <rect x="586" y="85" width="22" height="1.75" fill="#c53333" />
  <rect x="586" y="86" width="22" height="1.75" fill="#c63535" />
  <rect x="586" y="87" width="22" height="1.75" fill="#c63736" />
  <rect x="586" y="88" width="22" height="1.75" fill="#c63838" />
  <rect x="586" y="89" width="22" height="1.75" fill="#c73a3a" />
  <rect x="586" y="90" width="22" height="1.75" fill="#c73c3c" />
  <rect x="586" y="91" width="22" height="1.75" fill="#c73e3e" />
  <rect x="586" y="92" width="22" height="1.75" fill="#c84040" />
  <rect x="586" y="93" width="22" height="1.75" fill="#c84241" />
  <rect x="586" y="94" width="22" height="1.75" fill="#c84443" />
  <rect x="586" y="95" width="22" height="1.75" fill="#c84645" />
  <rect x="586" y="96" width="22" height="1.75" fill="#c94847" />
  <rect x="586" y="97" width="22" height="1.75" fill="#c94949" />
  <rect x="586" y="98" width="22" height="1.75" fill="#c94b4b" />
  <rect x="586" y="99" width="22" height="1.75" fill="#ca4d4c" />
  <rect x="586" y="100" width="22" height="1.75" fill="#ca4f4e" />
  <rect x="586" y="101" width="22" height="1.75" fill="#ca5150" />
  <rect x="586" y="102" width="22" height="1.75" fill="#cb5352" />
  <rect x="586" y="103" width="22" height="1.75" fill="#cb5554" />
  <rect x="586" y="104" width="22" height="1.75" fill="#cb5756" />
  <rect x="586" y="105" width="22" height="1.75" fill="#cb5857" />
  <rect x="586" y="106" width="22" height="1.75" fill="#cc5a59" />
  <rect x="586" y="107" width="22" height="1.75" fill="#cc5c5b" />
  <rect x="586" y="108" width="22" height="1.75" fill="#cc5e5d" />
  <rect x="586" y="109" width="22" height="1.75" fill="#cd605f" />
  <rect x="586" y="110" width="22" height="1.75" fill="#cd6261" />
  <rect x="586" y="111" width="22" height="1.75" fill="#cd6463" />
  <rect x="586" y="112" width="22" height="1.75" fill="#ce6664" />
  <rect x="586" y="113" width="22" height="1.75" fill="#ce6866" />
  <rect x="586" y="114" width="22" height="1.75" fill="#ce6968" />
  <rect x="586" y="115" width="22" height="1.75" fill="#ce6b6a" />
  <rect x="586" y="116" width="22" height="1.75" fill="#cf6d6c" />
  <rect x="586" y="117" width="22" height="1.75" fill="#cf6f6e" />
  <rect x="586" y="118" width="22" height="1.75" fill="#cf716f" />
  <rect x="586" y="119" width="22" height="1.75" fill="#d07371" />
  <rect x="586" y="120" width="22" height="1.75" fill="#d07573" />
  <rect x="586" y="121" width="22" height="1.75" fill="#d07775" />
  <rect x="586" y="122" width="22" height="1.75" fill="#d17877" />
  <rect x="586" y="123" width="22" height="1.75" fill="#d17a79" />
  <rect x="586" y="124" width="22" height="1.75" fill="#d17c7a" />
  <rect x="586" y="125" width="22" height="1.75" fill="#d17e7c" />
  <rect x="586" y="126" width="22" height="1.75" fill="#d2807e" />
  <rect x="586" y="127" width="22" height="1.75" fill="#d28280" />
  <rect x="586" y="128" width="22" height="1.75" fill="#d28482" />
  <rect x="586" y="129" width="22" height="1.75" fill="#d38684" />
  <rect x="586" y="130" width="22" height="1.75" fill="#d38885" />
  <rect x="586" y="131" width="22" height="1.75" fill="#d38987" />
  <rect x="586" y="132" width="22" height="1.75" fill="#d48b89" />
  <rect x="586" y="133" width="22" height="1.75" fill="#d48d8b" />
  <rect x="586" y="134" width="22" height="1.75" fill="#d48f8d" />
  <rect x="586" y="135" width="22" height="1.75" fill="#d4918f" />
  <rect x="586" y="136" width="22" height="1.75" fill="#d59390" />
  <rect x="586" y="137" width="22" height="1.75" fill="#d59592" />
  <rect x="586" y="138" width="22" height="1.75" fill="#d59794" />
  <rect x="586" y="139" width="22" height="1.75" fill="#d69896" />
  <rect x="586" y="140" width="22" height="1.75" fill="#d69a98" />
  <rect x="586" y="141" width="22" height="1.75" fill="#d69c9a" />
  <rect x="586" y="142" width="22" height="1.75" fill="#d79e9b" />
  <rect x="586" y="143" width="22" height="1.75" fill="#d7a09d" />
  <rect x="586" y="144" width="22" height="1.75" fill="#d7a29f" />
  <rect x="586" y="145" width="22" height="1.75" fill="#d7a4a1" />
  <rect x="586" y="146" width="22" height="1.75" fill="#d8a6a3" />
  <rect x="586" y="147" width="22" height="1.75" fill="#d8a7a5" />
  <rect x="586" y="148" width="22" height="1.75" fill="#d8a9a6" />
  <rect x="586" y="149" width="22" height="1.75" fill="#d9aba8" />
  <rect x="586" y="150" width="22" height="1.75" fill="#d9adaa" />
  <rect x="586" y="151" width="22" height="1.75" fill="#d9afac" />
  <rect x="586" y="152" width="22" height="1.75" fill="#dab1ae" />
  <rect x="586" y="153" width="22" height="1.75" fill="#dab3b0" />
  <rect x="586" y="154" width="22" height="1.75" fill="#dab5b1" />
  <rect x="586" y="155" width="22" height="1.75" fill="#dab7b3" />
  <rect x="586" y="156" width="22" height="1.75" fill="#dbb8b5" />
  <rect x="586" y="157" width="22" height="1.75" fill="#dbbab7" />
  <rect x="586" y="158" width="22" height="1.75" fill="#dbbcb9" />
  <rect x="586" y="159" width="22" height="1.75" fill="#dcbebb" />
  <rect x="586" y="160" width="22" height="1.75" fill="#dcc0bc" />
  <rect x="586" y="161" width="22" height="1.75" fill="#dcc2be" />
  <rect x="586" y="162" width="22" height="1.75" fill="#ddc4c0" />
  <rect x="586" y="163" width="22" height="1.75" fill="#ddc6c2" />
  <rect x="586" y="164" width="22" height="1.75" fill="#ddc7c4" />
  <rect x="586" y="165" width="22" height="1.75" fill="#ddc9c6" />
  <rect x="586" y="166" width="22" height="1.75" fill="#decbc8" />
  <rect x="586" y="167" width="22" height="1.75" fill="#decdc9" />
  <rect x="586" y="168" width="22" height="1.75" fill="#decfcb" />
  <rect x="586" y="169" width="22" height="1.75" fill="#dfd1cd" />
  <rect x="586" y="170" width="22" height="1.75" fill="#dfd3cf" />
  <rect x="586" y="171" width="22" height="1.75" fill="#dfd5d1" />
  <rect x="586" y="172" width="22" height="1.75" fill="#e0d7d3" />
  <rect x="586" y="173" width="22" height="1.75" fill="#e0d8d4" />
  <rect x="586" y="174" width="22" height="1.75" fill="#e0dad6" />
  <rect x="586" y="175" width="22" height="1.75" fill="#e0dcd8" />
  <rect x="586" y="176" width="22" height="1.75" fill="#e1deda" />
  <rect x="586" y="177" width="22" height="1.75" fill="#e1e0dc" />
  <rect x="586" y="178" width="22" height="1.75" fill="#e1e2de" />
  <rect x="586" y="179" width="22" height="1.75" fill="#e2e4df" />
  <rect x="586" y="180" width="22" height="1.75" fill="#e2e6e1" />
  <rect x="586" y="181" width="22" height="1.75" fill="#e2e7e3" />
  <rect x="586" y="182" width="22" height="1.75" fill="#e3e9e5" />
  <rect x="586" y="183" width="22" height="1.75" fill="#e3ebe7" />
  <rect x="586" y="184" width="22" height="1.75" fill="#e3ede9" />
  <rect x="586" y="185" width="22" height="1.75" fill="#e3efea" />
  <rect x="586" y="186" width="22" height="1.75" fill="#e4f1ec" />
  <rect x="586" y="187" width="22" height="1.75" fill="#e4f3ee" />
  <rect x="586" y="188" width="22" height="1.75" fill="#e4f5f0" />
  <rect x="586" y="189" width="22" height="1.75" fill="#e5f7f2" />
  <rect x="586" y="190" width="22" height="1.75" fill="#e5f8f4" />
  <rect x="586" y="191" width="22" height="1.75" fill="#e5faf5" />
  <rect x="586" y="192" width="22" height="1.75" fill="#e6fcf7" />
  <rect x="586" y="193" width="22" height="1.75" fill="#e6fef9" />
  <rect x="586" y="194" width="22" height="1.75" fill="#e5fefa" />
  <rect x="586" y="195" width="22" height="1.75" fill="#e3fdf9" />
  <rect x="586" y="196" width="22" height="1.75" fill="#e2fcf8" />
  <rect x="586" y="197" width="22" height="1.75" fill="#e0faf8" />
  <rect x="586" y="198" width="22" height="1.75" fill="#def9f7" />
  <rect x="586" y="199" width="22" height="1.75" fill="#ddf8f6" />
  <rect x="586" y="200" width="22" height="1.75" fill="#dbf6f6" />
  <rect x="586" y="201" width="22" height="1.75" fill="#d9f5f5" />
  <rect x="586" y="202" width="22" height="1.75" fill="#d8f4f4" />
  <rect x="586" y="203" width="22" height="1.75" fill="#d6f2f4" />
  <rect x="586" y="204" width="22" height="1.75" fill="#d4f1f3" />
  <rect x="586" y="205" width="22" height="1.75" fill="#d2f0f2" />
  <rect x="586" y="206" width="22" height="1.75" fill="#d1eef2" />
  <rect x="586" y="207" width="22" height="1.75" fill="#cfedf1" />
  <rect x="586" y="208" width="22" height="1.75" fill="#cdecf0" />
  <rect x="586" y="209" width="22" height="1.75" fill="#cceaf0" />
  <rect x="586" y="210" width="22" height="1.75" fill="#cae9ef" />
  <rect x="586" y="211" width="22" height="1.75" fill="#c8e8ee" />
  <rect x="586" y="212" width="22" height="1.75" fill="#c7e6ee" />
  <rect x="586" y="213" width="22" height="1.75" fill="#c5e5ed" />
  <rect x="586" y="214" width="22" height="1.75" fill="#c3e4ec" />
  <rect x="586" y="215" width="22" height="1.75" fill="#c1e2ec" />
  <rect x="586" y="216" width="22" height="1.75" fill="#c0e1eb" />
  <rect x="586" y="217" width="22" height="1.75" fill="#bee0ea" />
  <rect x="586" y="218" width="22" height="1.75" fill="#bcdeea" />
  <rect x="586" y="219" width="22" height="1.75" fill="#bbdde9" />
  <rect x="586" y="220" width="22" height="1.75" fill="#b9dce8" />
  <rect x="586" y="221" width="22" height="1.75" fill="#b7dae8" />
  <rect x="586" y="222" width="22" height="1.75" fill="#b6d9e7" />
  <rect x="586" y="223" width="22" height="1.75" fill="#b4d8e6" />
  <rect x="586" y="224" width="22" height="1.75" fill="#b2d6e5" />
  <rect x="586" y="225" width="22" height="1.75" fill="#b0d5e5" />
  <rect x="586" y="226" width="22" height="1.75" fill="#afd4e4" />
  <rect x="586" y="227" width="22" height="1.75" fill="#add2e3" />
  <rect x="586" y="228" width="22" height="1.75" fill="#abd1e3" />
  <rect x="586" y="229" width="22" height="1.75" fill="#aad0e2" />
  <rect x="586" y="230" width="22" height="1.75" fill="#a8cee1" />
  <rect x="586" y="231" width="22" height="1.75" fill="#a6cde1" />
  <rect x="586" y="232" width="22" height="1.75" fill="#a5cce0" />
  <rect x="586" y="233" width="22" height="1.75" fill="#a3cadf" />
  <rect x="586" y="234" width="22" height="1.75" fill="#a1c9df" />
  <rect x="586" y="235" width="22" height="1.75" fill="#9fc8de" />
  <rect x="586" y="236" width="22" height="1.75" fill="#9ec6dd" />
  <rect x="586" y="237" width="22" height="1.75" fill="#9cc5dd" />
  <rect x="586" y="238" width="22" height="1.75" fill="#9ac4dc" />
  <rect x="586" y="239" width="22" height="1.75" fill="#99c2db" />
  <rect x="586" y="240" width="22" height="1.75" fill="#97c1db" />
  <rect x="586" y="241" width="22" height="1.75" fill="#95c0da" />
  <rect x="586" y="242" width="22" height="1.75" fill="#94bed9" />
  <rect x="586" y="243" width="22" height="1.75" fill="#92bdd9" />
  <rect x="586" y="244" width="22" height="1.75" fill="#90bcd8" />
  <rect x="586" y="245" width="22" height="1.75" fill="#8ebad7" />
  <rect x="586" y="246" width="22" height="1.75" fill="#8db9d7" />
  <rect x="586" y="247" width="22" height="1.75" fill="#8bb8d6" />
  <rect x="586" y="248" width="22" height="1.75" fill="#89b6d5" />
  <rect x="586" y="249" width="22" height="1.75" fill="#88b5d5" />
  <rect x="586" y="250" width="22" height="1.75" fill="#86b3d4" />
  <rect x="586" y="251" width="22" height="1.75" fill="#84b2d3" />
  <rect x="586" y="252" width="22" height="1.75" fill="#83b1d3" />
  <rect x="586" y="253" width="22" height="1.75" fill="#81afd2" />
  <rect x="586" y="254" width="22" height="1.75" fill="#7faed1" />
  <rect x="586" y="255" width="22" height="1.75" fill="#7dadd1" />
  <rect x="586" y="256" width="22" height="1.75" fill="#7cabd0" />
  <rect x="586" y="257" width="22" height="1.75" fill="#7aaacf" />
  <rect x="586" y="258" width="22" height="1.75" fill="#78a9cf" />
  <rect x="586" y="259" width="22" height="1.75" fill="#77a7ce" />
  <rect x="586" y="260" width="22" height="1.75" fill="#75a6cd" />
  <rect x="586" y="261" width="22" height="1.75" fill="#73a5cd" />
  <rect x="586" y="262" width="22" height="1.75" fill="#72a3cc" />
  <rect x="586" y="263" width="22" height="1.75" fill="#70a2cb" />
  <rect x="586" y="264" width="22" height="1.75" fill="#6ea1cb" />
  <rect x="586" y="265" width="22" height="1.75" fill="#6c9fca" />
  <rect x="586" y="266" width="22" height="1.75" fill="#6b9ec9" />
  <rect x="586" y="267" width="22" height="1.75" fill="#699dc9" />
  <rect x="586" y="268" width="22" height="1.75" fill="#679bc8" />
  <rect x="586" y="269" width="22" height="1.75" fill="#669ac7" />
  <rect x="586" y="270" width="22" height="1.75" fill="#6499c7" />
  <rect x="586" y="271" width="22" height="1.75" fill="#6297c6" />
  <rect x="586" y="272" width="22" height="1.75" fill="#6196c5" />
  <rect x="586" y="273" width="22" height="1.75" fill="#5f95c5" />
  <rect x="586" y="274" width="22" height="1.75" fill="#5d93c4" />
  <rect x="586" y="275" width="22" height="1.75" fill="#5b92c3" />
  <rect x="586" y="276" width="22" height="1.75" fill="#5a91c3" />
  <rect x="586" y="277" width="22" height="1.75" fill="#588fc2" />
  <rect x="586" y="278" width="22" height="1.75" fill="#568ec1" />
  <rect x="586" y="279" width="22" height="1.75" fill="#558dc0" />
  <rect x="586" y="280" width="22" height="1.75" fill="#538bc0" />
  <rect x="586" y="281" width="22" height="1.75" fill="#518abf" />
  <rect x="586" y="282" width="22" height="1.75" fill="#5089be" />
  <rect x="586" y="283" width="22" height="1.75" fill="#4e87be" />
  <rect x="586" y="284" width="22" height="1.75" fill="#4c86bd" />
  <rect x="586" y="285" width="22" height="1.75" fill="#4a85bc" />
  <rect x="586" y="286" width="22" height="1.75" fill="#4983bc" />
  <rect x="586" y="287" width="22" height="1.75" fill="#4782bb" />
  <rect x="586" y="288" width="22" height="1.75" fill="#4581ba" />
  <rect x="586" y="289" width="22" height="1.75" fill="#447fba" />
  <rect x="586" y="290" width="22" height="1.75" fill="#427eb9" />
  <rect x="586" y="291" width="22" height="1.75" fill="#407db8" />
  <rect x="586" y="292" width="22" height="1.75" fill="#3f7bb8" />
  <rect x="586" y="293" width="22" height="1.75" fill="#3d7ab7" />
  <rect x="586" y="294" width="22" height="1.75" fill="#3b79b6" />
  <rect x="586" y="295" width="22" height="1.75" fill="#3977b6" />
  <rect x="586" y="296" width="22" height="1.75" fill="#3876b5" />
  <rect x="586" y="297" width="22" height="1.75" fill="#3675b4" />
  <rect x="586" y="298" width="22" height="1.75" fill="#3473b4" />
  <rect x="586" y="299" width="22" height="1.75" fill="#3372b3" />
  <rect x="586" y="300" width="22" height="1.75" fill="#3171b2" />
  <rect x="586" y="301" width="22" height="1.75" fill="#2f6fb2" />
  <rect x="586" y="302" width="22" height="1.75" fill="#2e6eb1" />
  <rect x="586" y="303" width="22" height="1" fill="#2c6db0" />
  <text x="616" y="308" text-anchor="start" font-family="system-ui, sans-serif" font-size="12" fill="#222222">3.5</text>
  <text x="616" y="253" text-anchor="start" font-family="system-ui, sans-serif" font-size="12" fill="#222222">6.5</text>
  <text x="616" y="198" text-anchor="start" font-family="system-ui, sans-serif" font-size="12" fill="#222222">9.5</text>
  <text x="616" y="143" text-anchor="start" font-family="system-ui, sans-serif" font-size="12" fill="#222222">12.5</text>
  <text x="616" y="88" text-anchor="start" font-family="system-ui, sans-serif" font-size="12" fill="#222222">15.5</text>
</g>
</svg>
