<svg xmlns="http://www.w3.org/2000/svg" width="720" height="440" viewBox="0 0 720 440" role="img" aria-label="Visual coordinate zoom">
<title>Visual coordinate zoom</title>
<rect class="algraf-background" x="0" y="0" width="720" height="440" fill="#ffffff" />
<text class="algraf-title" x="60" y="24" font-family="system-ui, sans-serif" font-size="18" font-weight="600" fill="#222222">Visual coordinate zoom</text>
<rect class="algraf-plot-area" x="60" y="66" width="510" height="324" fill="#ffffff" />
<g class="algraf-grid">
  <line x1="60" y1="66" x2="60" y2="390" stroke="#e6e6e6" stroke-width="1" />
  <line x1="187.5" y1="66" x2="187.5" y2="390" stroke="#e6e6e6" stroke-width="1" />
  <line x1="315" y1="66" x2="315" y2="390" stroke="#e6e6e6" stroke-width="1" />
  <line x1="442.5" y1="66" x2="442.5" y2="390" stroke="#e6e6e6" stroke-width="1" />
  <line x1="570" y1="66" x2="570" y2="390" stroke="#e6e6e6" stroke-width="1" />
  <line x1="60" y1="390" x2="570" y2="390" stroke="#e6e6e6" stroke-width="1" />
  <line x1="60" y1="349.5" x2="570" y2="349.5" stroke="#e6e6e6" stroke-width="1" />
  <line x1="60" y1="309" x2="570" y2="309" stroke="#e6e6e6" stroke-width="1" />
  <line x1="60" y1="268.5" x2="570" y2="268.5" stroke="#e6e6e6" stroke-width="1" />
  <line x1="60" y1="228" x2="570" y2="228" stroke="#e6e6e6" stroke-width="1" />
  <line x1="60" y1="187.5" x2="570" y2="187.5" stroke="#e6e6e6" stroke-width="1" />
  <line x1="60" y1="147" x2="570" y2="147" stroke="#e6e6e6" stroke-width="1" />
  <line x1="60" y1="106.5" x2="570" y2="106.5" stroke="#e6e6e6" stroke-width="1" />
  <line x1="60" y1="66" x2="570" y2="66" stroke="#e6e6e6" stroke-width="1" />
</g>
<defs>
<clipPath id="algraf-clip-0"><rect x="60" y="66" width="510" height="324" /></clipPath>
</defs>
<g clip-path="url(#algraf-clip-0)">
  <g class="algraf-layer algraf-geom-point">
    <circle cx="85.5" cy="349.5" r="4" fill="#4E79A7" opacity="0.75" />
    <circle cx="111" cy="309" r="4" fill="#4E79A7" opacity="0.75" />
    <circle cx="136.5" cy="268.5" r="4" fill="#4E79A7" opacity="0.75" />
    <circle cx="315" cy="228" r="4" fill="#4E79A7" opacity="0.75" />
    <circle cx="2610" cy="-96" r="4" fill="#F28E2B" opacity="0.75" />
    <circle cx="3885" cy="-339" r="4" fill="#F28E2B" opacity="0.75" />
    <circle cx="5160" cy="-622.5" r="4" fill="#F28E2B" opacity="0.75" />
    <circle cx="6435" cy="-825" r="4" fill="#F28E2B" opacity="0.75" />
  </g>
  <g class="algraf-layer algraf-geom-smooth">
    <path d="M85.5 310.292 L6435 -818.592" fill="none" stroke="#2f2f2f" stroke-width="1.5" opacity="1" />
  </g>
</g>
<g class="algraf-axes">
  <line x1="60" y1="390" x2="570" y2="390" stroke="#333333" stroke-width="1" />
  <line x1="60" y1="390" x2="60" y2="395" stroke="#333333" stroke-width="1" />
  <text x="60" y="408" text-anchor="middle" font-family="system-ui, sans-serif" font-size="12" fill="#222222">0</text>
  <line x1="187.5" y1="390" x2="187.5" y2="395" stroke="#333333" stroke-width="1" />
  <text x="187.5" y="408" text-anchor="middle" font-family="system-ui, sans-serif" font-size="12" fill="#222222">5</text>
  <line x1="315" y1="390" x2="315" y2="395" stroke="#333333" stroke-width="1" />
  <text x="315" y="408" text-anchor="middle" font-family="system-ui, sans-serif" font-size="12" fill="#222222">10</text>
  <line x1="442.5" y1="390" x2="442.5" y2="395" stroke="#333333" stroke-width="1" />
  <text x="442.5" y="408" text-anchor="middle" font-family="system-ui, sans-serif" font-size="12" fill="#222222">15</text>
  <line x1="570" y1="390" x2="570" y2="395" stroke="#333333" stroke-width="1" />
  <text x="570" y="408" text-anchor="middle" font-family="system-ui, sans-serif" font-size="12" fill="#222222">20</text>
  <text x="315" y="428" text-anchor="middle" font-family="system-ui, sans-serif" font-size="12" fill="#222222">x (zoomed view)</text>
  <line x1="60" y1="66" x2="60" y2="390" stroke="#333333" stroke-width="1" />
  <line x1="55" y1="390" x2="60" y2="390" stroke="#333333" stroke-width="1" />
  <text x="52" y="394" text-anchor="end" font-family="system-ui, sans-serif" font-size="12" fill="#222222">0</text>
  <line x1="55" y1="349.5" x2="60" y2="349.5" stroke="#333333" stroke-width="1" />
  <text x="52" y="353.5" text-anchor="end" font-family="system-ui, sans-serif" font-size="12" fill="#222222">1</text>
  <line x1="55" y1="309" x2="60" y2="309" stroke="#333333" stroke-width="1" />
  <text x="52" y="313" text-anchor="end" font-family="system-ui, sans-serif" font-size="12" fill="#222222">2</text>
  <line x1="55" y1="268.5" x2="60" y2="268.5" stroke="#333333" stroke-width="1" />
  <text x="52" y="272.5" text-anchor="end" font-family="system-ui, sans-serif" font-size="12" fill="#222222">3</text>
  <line x1="55" y1="228" x2="60" y2="228" stroke="#333333" stroke-width="1" />
  <text x="52" y="232" text-anchor="end" font-family="system-ui, sans-serif" font-size="12" fill="#222222">4</text>
  <line x1="55" y1="187.5" x2="60" y2="187.5" stroke="#333333" stroke-width="1" />
  <text x="52" y="191.5" text-anchor="end" font-family="system-ui, sans-serif" font-size="12" fill="#222222">5</text>
  <line x1="55" y1="147" x2="60" y2="147" stroke="#333333" stroke-width="1" />
  <text x="52" y="151" text-anchor="end" font-family="system-ui, sans-serif" font-size="12" fill="#222222">6</text>
  <line x1="55" y1="106.5" x2="60" y2="106.5" stroke="#333333" stroke-width="1" />
  <text x="52" y="110.5" text-anchor="end" font-family="system-ui, sans-serif" font-size="12" fill="#222222">7</text>
  <line x1="55" y1="66" x2="60" y2="66" stroke="#333333" stroke-width="1" />
  <text x="52" y="70" text-anchor="end" font-family="system-ui, sans-serif" font-size="12" fill="#222222">8</text>
  <text x="32.8" y="228" text-anchor="middle" transform="rotate(-90 32.8 228)" font-family="system-ui, sans-serif" font-size="12" fill="#222222">y (zoomed view)</text>
</g>
<g class="algraf-legends">
  <text x="586" y="70" text-anchor="start" font-family="system-ui, sans-serif" font-size="12" fill="#222222">series</text>
  <rect x="586" y="78" width="12" height="12" fill="#4E79A7" />
  <text x="604" y="88" text-anchor="start" font-family="system-ui, sans-serif" font-size="12" fill="#222222">A</text>
  <rect x="586" y="96" width="12" height="12" fill="#F28E2B" />
  <text x="604" y="106" text-anchor="start" font-family="system-ui, sans-serif" font-size="12" fill="#222222">B</text>
</g>
</svg>
