<svg xmlns="http://www.w3.org/2000/svg" width="760" height="460" viewBox="0 0 760 460" role="img" aria-label="Estimated density">
<title>Estimated density</title>
<rect class="algraf-background" x="0" y="0" width="760" height="460" fill="#ffffff" />
<text class="algraf-title" x="60" y="24" font-family="system-ui, sans-serif" font-size="18" font-weight="600" fill="#222222">Estimated density</text>
<rect class="algraf-plot-area" x="60" y="66" width="670" height="344" fill="#ffffff" />
<g class="algraf-grid">
  <line x1="115.179" y1="66" x2="115.179" y2="410" stroke="#e6e6e6" stroke-width="1" />
  <line x1="196.879" y1="66" x2="196.879" y2="410" stroke="#e6e6e6" stroke-width="1" />
  <line x1="278.578" y1="66" x2="278.578" y2="410" stroke="#e6e6e6" stroke-width="1" />
  <line x1="360.278" y1="66" x2="360.278" y2="410" stroke="#e6e6e6" stroke-width="1" />
  <line x1="441.977" y1="66" x2="441.977" y2="410" stroke="#e6e6e6" stroke-width="1" />
  <line x1="523.677" y1="66" x2="523.677" y2="410" stroke="#e6e6e6" stroke-width="1" />
  <line x1="605.376" y1="66" x2="605.376" y2="410" stroke="#e6e6e6" stroke-width="1" />
  <line x1="687.076" y1="66" x2="687.076" y2="410" stroke="#e6e6e6" stroke-width="1" />
  <line x1="60" y1="410" x2="730" y2="410" stroke="#e6e6e6" stroke-width="1" />
  <line x1="60" y1="364.745" x2="730" y2="364.745" stroke="#e6e6e6" stroke-width="1" />
  <line x1="60" y1="319.489" x2="730" y2="319.489" stroke="#e6e6e6" stroke-width="1" />
  <line x1="60" y1="274.234" x2="730" y2="274.234" stroke="#e6e6e6" stroke-width="1" />
  <line x1="60" y1="228.979" x2="730" y2="228.979" stroke="#e6e6e6" stroke-width="1" />
  <line x1="60" y1="183.724" x2="730" y2="183.724" stroke="#e6e6e6" stroke-width="1" />
  <line x1="60" y1="138.468" x2="730" y2="138.468" stroke="#e6e6e6" stroke-width="1" />
  <line x1="60" y1="93.213" x2="730" y2="93.213" stroke="#e6e6e6" stroke-width="1" />
</g>
<g class="algraf-layer algraf-geom-area">
  <path d="M106.207 409.433 L108.472 409.334 L110.737 409.218 L113.002 409.086 L115.267 408.933 L117.532 408.758 L119.797 408.557 L122.062 408.328 L124.327 408.068 L126.592 407.772 L128.857 407.438 L131.122 407.06 L133.387 406.635 L135.652 406.158 L137.918 405.623 L140.183 405.026 L142.448 404.361 L144.713 403.622 L146.978 402.804 L149.243 401.899 L151.508 400.901 L153.773 399.805 L156.038 398.603 L158.303 397.289 L160.568 395.855 L162.833 394.295 L165.098 392.604 L167.363 390.773 L169.628 388.797 L171.893 386.67 L174.158 384.386 L176.423 381.94 L178.688 379.328 L180.953 376.545 L183.218 373.588 L185.483 370.453 L187.748 367.139 L190.014 363.645 L192.279 359.969 L194.544 356.111 L196.809 352.074 L199.074 347.86 L201.339 343.47 L203.604 338.91 L205.869 334.183 L208.134 329.297 L210.399 324.257 L212.664 319.071 L214.929 313.748 L217.194 308.296 L219.459 302.725 L221.724 297.046 L223.989 291.27 L226.254 285.408 L228.519 279.471 L230.784 273.473 L233.049 267.425 L235.314 261.34 L237.579 255.231 L239.844 249.109 L242.11 242.988 L244.375 236.88 L246.64 230.797 L248.905 224.751 L251.17 218.752 L253.435 212.813 L255.7 206.944 L257.965 201.154 L260.23 195.453 L262.495 189.852 L264.76 184.357 L267.025 178.978 L269.29 173.721 L271.555 168.595 L273.82 163.605 L276.085 158.758 L278.35 154.058 L280.615 149.512 L282.88 145.124 L285.145 140.897 L287.41 136.836 L289.675 132.945 L291.941 129.225 L294.206 125.68 L296.471 122.311 L298.736 119.12 L301.001 116.108 L303.266 113.277 L305.531 110.626 L307.796 108.156 L310.061 105.865 L312.326 103.754 L314.591 101.821 L316.856 100.065 L319.121 98.482 L321.386 97.071 L323.651 95.829 L325.916 94.752 L328.181 93.836 L330.446 93.078 L332.711 92.472 L334.976 92.015 L337.241 91.701 L339.506 91.525 L341.771 91.481 L344.037 91.564 L346.302 91.768 L348.567 92.087 L350.832 92.515 L353.097 93.046 L355.362 93.674 L357.627 94.393 L359.892 95.198 L362.157 96.082 L364.422 97.04 L366.687 98.067 L368.952 99.158 L371.217 100.307 L373.482 101.51 L375.747 102.761 L378.012 104.058 L380.277 105.394 L382.542 106.766 L384.807 108.171 L387.072 109.604 L389.337 111.062 L391.602 112.541 L393.867 114.038 L396.133 115.55 L398.398 117.073 L400.663 118.605 L402.928 120.143 L405.193 121.683 L407.458 123.223 L409.723 124.759 L411.988 126.291 L414.253 127.814 L416.518 129.326 L418.783 130.826 L421.048 132.311 L423.313 133.778 L425.578 135.227 L427.843 136.656 L430.108 138.063 L432.373 139.447 L434.638 140.808 L436.903 142.146 L439.168 143.459 L441.433 144.75 L443.698 146.018 L445.963 147.265 L448.229 148.492 L450.494 149.702 L452.759 150.897 L455.024 152.079 L457.289 153.254 L459.554 154.424 L461.819 155.595 L464.084 156.77 L466.349 157.955 L468.614 159.157 L470.879 160.381 L473.144 161.633 L475.409 162.92 L477.674 164.25 L479.939 165.63 L482.204 167.066 L484.469 168.568 L486.734 170.141 L488.999 171.794 L491.264 173.535 L493.529 175.371 L495.794 177.309 L498.059 179.356 L500.325 181.519 L502.59 183.804 L504.855 186.218 L507.12 188.765 L509.385 191.449 L511.65 194.276 L513.915 197.248 L516.18 200.368 L518.445 203.637 L520.71 207.056 L522.975 210.625 L525.24 214.342 L527.505 218.205 L529.77 222.212 L532.035 226.356 L534.3 230.634 L536.565 235.038 L538.83 239.562 L541.095 244.197 L543.36 248.934 L545.625 253.763 L547.89 258.673 L550.156 263.652 L552.421 268.689 L554.686 273.77 L556.951 278.884 L559.216 284.015 L561.481 289.152 L563.746 294.279 L566.011 299.384 L568.276 304.454 L570.541 309.474 L572.806 314.433 L575.071 319.317 L577.336 324.115 L579.601 328.816 L581.866 333.41 L584.131 337.886 L586.396 342.237 L588.661 346.454 L590.926 350.529 L593.191 354.459 L595.456 358.236 L597.721 361.859 L599.986 365.322 L602.252 368.625 L604.517 371.767 L606.782 374.746 L609.047 377.565 L611.312 380.224 L613.577 382.725 L615.842 385.072 L618.107 387.269 L620.372 389.318 L622.637 391.226 L624.902 392.996 L627.167 394.635 L629.432 396.148 L631.697 397.541 L633.962 398.82 L636.227 399.991 L638.492 401.06 L640.757 402.034 L643.022 402.919 L645.287 403.72 L647.552 404.444 L649.817 405.097 L652.082 405.683 L654.348 406.208 L656.613 406.677 L658.878 407.095 L661.143 407.467 L663.408 407.797 L665.673 408.088 L667.938 408.345 L670.203 408.571 L672.468 408.769 L674.733 408.942 L676.998 409.093 L679.263 409.225 L681.528 409.339 L683.793 409.437 L683.793 410 L106.207 410 Z" fill="#4c78a8" stroke="#1f3b57" stroke-width="1.5" opacity="0.6" />
</g>
<g class="algraf-axes">
  <line x1="60" y1="410" x2="730" y2="410" stroke="#333333" stroke-width="1" />
  <line x1="115.179" y1="410" x2="115.179" y2="415" stroke="#333333" stroke-width="1" />
  <text x="115.179" y="428" text-anchor="middle" font-family="system-ui, sans-serif" font-size="12" fill="#222222">-2</text>
  <line x1="196.879" y1="410" x2="196.879" y2="415" stroke="#333333" stroke-width="1" />
  <text x="196.879" y="428" text-anchor="middle" font-family="system-ui, sans-serif" font-size="12" fill="#222222">0</text>
  <line x1="278.578" y1="410" x2="278.578" y2="415" stroke="#333333" stroke-width="1" />
  <text x="278.578" y="428" text-anchor="middle" font-family="system-ui, sans-serif" font-size="12" fill="#222222">2</text>
  <line x1="360.278" y1="410" x2="360.278" y2="415" stroke="#333333" stroke-width="1" />
  <text x="360.278" y="428" text-anchor="middle" font-family="system-ui, sans-serif" font-size="12" fill="#222222">4</text>
  <line x1="441.977" y1="410" x2="441.977" y2="415" stroke="#333333" stroke-width="1" />
  <text x="441.977" y="428" text-anchor="middle" font-family="system-ui, sans-serif" font-size="12" fill="#222222">6</text>
  <line x1="523.677" y1="410" x2="523.677" y2="415" stroke="#333333" stroke-width="1" />
  <text x="523.677" y="428" text-anchor="middle" font-family="system-ui, sans-serif" font-size="12" fill="#222222">8</text>
  <line x1="605.376" y1="410" x2="605.376" y2="415" stroke="#333333" stroke-width="1" />
  <text x="605.376" y="428" text-anchor="middle" font-family="system-ui, sans-serif" font-size="12" fill="#222222">10</text>
  <line x1="687.076" y1="410" x2="687.076" y2="415" stroke="#333333" stroke-width="1" />
  <text x="687.076" y="428" text-anchor="middle" font-family="system-ui, sans-serif" font-size="12" fill="#222222">12</text>
  <text x="395" y="448" text-anchor="middle" font-family="system-ui, sans-serif" font-size="12" fill="#222222">density x</text>
  <line x1="60" y1="66" x2="60" y2="410" stroke="#333333" stroke-width="1" />
  <line x1="55" y1="410" x2="60" y2="410" stroke="#333333" stroke-width="1" />
  <text x="52" y="414" text-anchor="end" font-family="system-ui, sans-serif" font-size="12" fill="#222222">0</text>
  <line x1="55" y1="364.745" x2="60" y2="364.745" stroke="#333333" stroke-width="1" />
  <text x="52" y="368.745" text-anchor="end" font-family="system-ui, sans-serif" font-size="12" fill="#222222">0.02</text>
  <line x1="55" y1="319.489" x2="60" y2="319.489" stroke="#333333" stroke-width="1" />
  <text x="52" y="323.489" text-anchor="end" font-family="system-ui, sans-serif" font-size="12" fill="#222222">0.04</text>
  <line x1="55" y1="274.234" x2="60" y2="274.234" stroke="#333333" stroke-width="1" />
  <text x="52" y="278.234" text-anchor="end" font-family="system-ui, sans-serif" font-size="12" fill="#222222">0.06</text>
  <line x1="55" y1="228.979" x2="60" y2="228.979" stroke="#333333" stroke-width="1" />
  <text x="52" y="232.979" text-anchor="end" font-family="system-ui, sans-serif" font-size="12" fill="#222222">0.08</text>
  <line x1="55" y1="183.724" x2="60" y2="183.724" stroke="#333333" stroke-width="1" />
  <text x="52" y="187.724" text-anchor="end" font-family="system-ui, sans-serif" font-size="12" fill="#222222">0.1</text>
  <line x1="55" y1="138.468" x2="60" y2="138.468" stroke="#333333" stroke-width="1" />
  <text x="52" y="142.468" text-anchor="end" font-family="system-ui, sans-serif" font-size="12" fill="#222222">0.12</text>
  <line x1="55" y1="93.213" x2="60" y2="93.213" stroke="#333333" stroke-width="1" />
  <text x="52" y="97.213" text-anchor="end" font-family="system-ui, sans-serif" font-size="12" fill="#222222">0.14</text>
  <text x="17.2" y="238" text-anchor="middle" transform="rotate(-90 17.2 238)" font-family="system-ui, sans-serif" font-size="12" fill="#222222">density</text>
</g>
</svg>
