<svg xmlns="http://www.w3.org/2000/svg" width="760" height="460" viewBox="0 0 760 460" role="img" aria-label="Estimated density">
<title>Estimated density</title>
<rect class="algraf-background" x="0" y="0" width="760" height="460" fill="#ffffff" />
<text class="algraf-title" x="60" y="24" font-family="system-ui, sans-serif" font-size="18" font-weight="600" fill="#222222">Estimated density</text>
<rect class="algraf-plot-area" x="60" y="66" width="670" height="344" fill="#ffffff" />
<g class="algraf-grid">
  <line x1="76.58" y1="66" x2="76.58" y2="410" stroke="#e6e6e6" stroke-width="1" />
  <line x1="156.185" y1="66" x2="156.185" y2="410" stroke="#e6e6e6" stroke-width="1" />
  <line x1="235.79" y1="66" x2="235.79" y2="410" stroke="#e6e6e6" stroke-width="1" />
  <line x1="315.395" y1="66" x2="315.395" y2="410" stroke="#e6e6e6" stroke-width="1" />
  <line x1="395" y1="66" x2="395" y2="410" stroke="#e6e6e6" stroke-width="1" />
  <line x1="474.605" y1="66" x2="474.605" y2="410" stroke="#e6e6e6" stroke-width="1" />
  <line x1="554.21" y1="66" x2="554.21" y2="410" stroke="#e6e6e6" stroke-width="1" />
  <line x1="633.815" y1="66" x2="633.815" y2="410" stroke="#e6e6e6" stroke-width="1" />
  <line x1="713.42" y1="66" x2="713.42" y2="410" stroke="#e6e6e6" stroke-width="1" />
  <line x1="60" y1="410" x2="730" y2="410" stroke="#e6e6e6" stroke-width="1" />
  <line x1="60" y1="330.422" x2="730" y2="330.422" stroke="#e6e6e6" stroke-width="1" />
  <line x1="60" y1="250.844" x2="730" y2="250.844" stroke="#e6e6e6" stroke-width="1" />
  <line x1="60" y1="171.266" x2="730" y2="171.266" stroke="#e6e6e6" stroke-width="1" />
  <line x1="60" y1="91.687" x2="730" y2="91.687" stroke="#e6e6e6" stroke-width="1" />
</g>
<g class="algraf-layer algraf-geom-area">
  <path d="M106.207 409.912 L108.472 409.882 L110.737 409.842 L113.002 409.79 L115.267 409.724 L117.532 409.641 L119.797 409.537 L122.062 409.407 L124.327 409.249 L126.592 409.056 L128.857 408.824 L131.122 408.547 L133.387 408.221 L135.652 407.841 L137.918 407.401 L140.183 406.898 L142.448 406.328 L144.713 405.69 L146.978 404.982 L149.243 404.207 L151.508 403.364 L153.773 402.46 L156.038 401.5 L158.303 400.492 L160.568 399.444 L162.833 398.368 L165.098 397.275 L167.363 396.177 L169.628 395.086 L171.893 394.014 L174.158 392.971 L176.423 391.966 L178.688 391.005 L180.953 390.093 L183.218 389.231 L185.483 388.415 L187.748 387.64 L190.014 386.896 L192.279 386.17 L194.544 385.447 L196.809 384.709 L199.074 383.935 L201.339 383.104 L203.604 382.195 L205.869 381.188 L208.134 380.062 L210.399 378.801 L212.664 377.39 L214.929 375.818 L217.194 374.078 L219.459 372.166 L221.724 370.083 L223.989 367.834 L226.254 365.428 L228.519 362.875 L230.784 360.191 L233.049 357.392 L235.314 354.496 L237.579 351.523 L239.844 348.493 L242.11 345.425 L244.375 342.339 L246.64 339.252 L248.905 336.182 L251.17 333.145 L253.435 330.155 L255.7 327.224 L257.965 324.363 L260.23 321.579 L262.495 318.88 L264.76 316.269 L267.025 313.748 L269.29 311.316 L271.555 308.968 L273.82 306.7 L276.085 304.503 L278.35 302.365 L280.615 300.275 L282.88 298.216 L285.145 296.175 L287.41 294.134 L289.675 292.077 L291.941 289.988 L294.206 287.85 L296.471 285.65 L298.736 283.375 L301.001 281.011 L303.266 278.549 L305.531 275.979 L307.796 273.293 L310.061 270.483 L312.326 267.541 L314.591 264.461 L316.856 261.235 L319.121 257.857 L321.386 254.318 L323.651 250.615 L325.916 246.739 L328.181 242.688 L330.446 238.46 L332.711 234.055 L334.976 229.476 L337.241 224.731 L339.506 219.833 L341.771 214.797 L344.037 209.643 L346.302 204.397 L348.567 199.086 L350.832 193.741 L353.097 188.395 L355.362 183.081 L357.627 177.831 L359.892 172.676 L362.157 167.645 L364.422 162.759 L366.687 158.039 L368.952 153.497 L371.217 149.14 L373.482 144.968 L375.747 140.978 L378.012 137.161 L380.277 133.503 L382.542 129.989 L384.807 126.603 L387.072 123.33 L389.337 120.157 L391.602 117.073 L393.867 114.076 L396.133 111.166 L398.398 108.352 L400.663 105.649 L402.928 103.08 L405.193 100.673 L407.458 98.463 L409.723 96.485 L411.988 94.782 L414.253 93.392 L416.518 92.356 L418.783 91.709 L421.048 91.481 L423.313 91.699 L425.578 92.379 L427.843 93.528 L430.108 95.147 L432.373 97.226 L434.638 99.747 L436.903 102.682 L439.168 105.999 L441.433 109.658 L443.698 113.616 L445.963 117.827 L448.229 122.245 L450.494 126.823 L452.759 131.518 L455.024 136.29 L457.289 141.105 L459.554 145.931 L461.819 150.748 L464.084 155.535 L466.349 160.284 L468.614 164.989 L470.879 169.651 L473.144 174.275 L475.409 178.872 L477.674 183.455 L479.939 188.042 L482.204 192.651 L484.469 197.304 L486.734 202.023 L488.999 206.83 L491.264 211.748 L493.529 216.8 L495.794 222.004 L498.059 227.381 L500.325 232.944 L502.59 238.705 L504.855 244.671 L507.12 250.844 L509.385 257.219 L511.65 263.785 L513.915 270.524 L516.18 277.413 L518.445 284.42 L520.71 291.509 L522.975 298.64 L525.24 305.766 L527.505 312.841 L529.77 319.815 L532.035 326.642 L534.3 333.273 L536.565 339.667 L538.83 345.785 L541.095 351.594 L543.36 357.066 L545.625 362.18 L547.89 366.923 L550.156 371.287 L552.421 375.27 L554.686 378.876 L556.951 382.115 L559.216 385 L561.481 387.548 L563.746 389.779 L566.011 391.715 L568.276 393.38 L570.541 394.796 L572.806 395.99 L575.071 396.987 L577.336 397.809 L579.601 398.481 L581.866 399.025 L584.131 399.463 L586.396 399.816 L588.661 400.101 L590.926 400.336 L593.191 400.538 L595.456 400.719 L597.721 400.892 L599.986 401.067 L602.252 401.254 L604.517 401.458 L606.782 401.686 L609.047 401.939 L611.312 402.221 L613.577 402.531 L615.842 402.867 L618.107 403.229 L620.372 403.612 L622.637 404.012 L624.902 404.425 L627.167 404.845 L629.432 405.268 L631.697 405.688 L633.962 406.1 L636.227 406.499 L638.492 406.882 L640.757 407.246 L643.022 407.586 L645.287 407.901 L647.552 408.191 L649.817 408.453 L652.082 408.688 L654.348 408.898 L656.613 409.081 L658.878 409.241 L661.143 409.378 L663.408 409.495 L665.673 409.594 L667.938 409.676 L670.203 409.744 L672.468 409.799 L674.733 409.844 L676.998 409.88 L679.263 409.909 L681.528 409.931 L683.793 409.948 L683.793 410 L106.207 410 Z" fill="#4c78a8" stroke="#1f3b57" stroke-width="1.5" opacity="0.6" />
</g>
<g class="algraf-axes">
  <line x1="60" y1="410" x2="730" y2="410" stroke="#333333" stroke-width="1" />
  <line x1="76.58" y1="410" x2="76.58" y2="415" stroke="#333333" stroke-width="1" />
  <text x="76.58" y="428" text-anchor="middle" font-family="system-ui, sans-serif" font-size="12" fill="#222222">-2</text>
  <line x1="156.185" y1="410" x2="156.185" y2="415" stroke="#333333" stroke-width="1" />
  <text x="156.185" y="428" text-anchor="middle" font-family="system-ui, sans-serif" font-size="12" fill="#222222">0</text>
  <line x1="235.79" y1="410" x2="235.79" y2="415" stroke="#333333" stroke-width="1" />
  <text x="235.79" y="428" text-anchor="middle" font-family="system-ui, sans-serif" font-size="12" fill="#222222">2</text>
  <line x1="315.395" y1="410" x2="315.395" y2="415" stroke="#333333" stroke-width="1" />
  <text x="315.395" y="428" text-anchor="middle" font-family="system-ui, sans-serif" font-size="12" fill="#222222">4</text>
  <line x1="395" y1="410" x2="395" y2="415" stroke="#333333" stroke-width="1" />
  <text x="395" y="428" text-anchor="middle" font-family="system-ui, sans-serif" font-size="12" fill="#222222">6</text>
  <line x1="474.605" y1="410" x2="474.605" y2="415" stroke="#333333" stroke-width="1" />
  <text x="474.605" y="428" text-anchor="middle" font-family="system-ui, sans-serif" font-size="12" fill="#222222">8</text>
  <line x1="554.21" y1="410" x2="554.21" y2="415" stroke="#333333" stroke-width="1" />
  <text x="554.21" y="428" text-anchor="middle" font-family="system-ui, sans-serif" font-size="12" fill="#222222">10</text>
  <line x1="633.815" y1="410" x2="633.815" y2="415" stroke="#333333" stroke-width="1" />
  <text x="633.815" y="428" text-anchor="middle" font-family="system-ui, sans-serif" font-size="12" fill="#222222">12</text>
  <line x1="713.42" y1="410" x2="713.42" y2="415" stroke="#333333" stroke-width="1" />
  <text x="713.42" y="428" text-anchor="middle" font-family="system-ui, sans-serif" font-size="12" fill="#222222">14</text>
  <text x="395" y="448" text-anchor="middle" font-family="system-ui, sans-serif" font-size="12" fill="#222222">density x</text>
  <line x1="60" y1="66" x2="60" y2="410" stroke="#333333" stroke-width="1" />
  <line x1="55" y1="410" x2="60" y2="410" stroke="#333333" stroke-width="1" />
  <text x="52" y="414" text-anchor="end" font-family="system-ui, sans-serif" font-size="12" fill="#222222">0</text>
  <line x1="55" y1="330.422" x2="60" y2="330.422" stroke="#333333" stroke-width="1" />
  <text x="52" y="334.422" text-anchor="end" font-family="system-ui, sans-serif" font-size="12" fill="#222222">0.05</text>
  <line x1="55" y1="250.844" x2="60" y2="250.844" stroke="#333333" stroke-width="1" />
  <text x="52" y="254.844" text-anchor="end" font-family="system-ui, sans-serif" font-size="12" fill="#222222">0.1</text>
  <line x1="55" y1="171.266" x2="60" y2="171.266" stroke="#333333" stroke-width="1" />
  <text x="52" y="175.266" text-anchor="end" font-family="system-ui, sans-serif" font-size="12" fill="#222222">0.15</text>
  <line x1="55" y1="91.687" x2="60" y2="91.687" stroke="#333333" stroke-width="1" />
  <text x="52" y="95.687" text-anchor="end" font-family="system-ui, sans-serif" font-size="12" fill="#222222">0.2</text>
  <text x="17.2" y="238" text-anchor="middle" transform="rotate(-90 17.2 238)" font-family="system-ui, sans-serif" font-size="12" fill="#222222">density</text>
</g>
</svg>
