<svg xmlns="http://www.w3.org/2000/svg" width="760" height="460" viewBox="0 0 760 460" role="img" aria-label="Estimated density">
<title>Estimated density</title>
<rect class="algraf-background" x="0" y="0" width="760" height="460" fill="#ffffff" />
<text class="algraf-title" x="60.8" y="24" font-family="system-ui, sans-serif" font-size="18" font-weight="600" fill="#222222">Estimated density</text>
<rect class="algraf-plot-area" x="60.8" y="66" width="669.2" height="344" fill="#ffffff" />
<g class="algraf-grid">
  <line x1="117.115" y1="66" x2="117.115" y2="410" stroke="#f2f2f2" stroke-width="0.6" />
  <line x1="196.625" y1="66" x2="196.625" y2="410" stroke="#f2f2f2" stroke-width="0.6" />
  <line x1="276.135" y1="66" x2="276.135" y2="410" stroke="#f2f2f2" stroke-width="0.6" />
  <line x1="355.645" y1="66" x2="355.645" y2="410" stroke="#f2f2f2" stroke-width="0.6" />
  <line x1="435.155" y1="66" x2="435.155" y2="410" stroke="#f2f2f2" stroke-width="0.6" />
  <line x1="514.665" y1="66" x2="514.665" y2="410" stroke="#f2f2f2" stroke-width="0.6" />
  <line x1="594.175" y1="66" x2="594.175" y2="410" stroke="#f2f2f2" stroke-width="0.6" />
  <line x1="673.685" y1="66" x2="673.685" y2="410" stroke="#f2f2f2" stroke-width="0.6" />
  <line x1="60.8" y1="370.211" x2="730" y2="370.211" stroke="#f2f2f2" stroke-width="0.6" />
  <line x1="60.8" y1="290.633" x2="730" y2="290.633" stroke="#f2f2f2" stroke-width="0.6" />
  <line x1="60.8" y1="211.055" x2="730" y2="211.055" stroke="#f2f2f2" stroke-width="0.6" />
  <line x1="60.8" y1="131.476" x2="730" y2="131.476" stroke="#f2f2f2" stroke-width="0.6" />
  <line x1="77.36" y1="66" x2="77.36" y2="410" stroke="#e6e6e6" stroke-width="1" />
  <line x1="156.87" y1="66" x2="156.87" y2="410" stroke="#e6e6e6" stroke-width="1" />
  <line x1="236.38" y1="66" x2="236.38" y2="410" stroke="#e6e6e6" stroke-width="1" />
  <line x1="315.89" y1="66" x2="315.89" y2="410" stroke="#e6e6e6" stroke-width="1" />
  <line x1="395.4" y1="66" x2="395.4" y2="410" stroke="#e6e6e6" stroke-width="1" />
  <line x1="474.91" y1="66" x2="474.91" y2="410" stroke="#e6e6e6" stroke-width="1" />
  <line x1="554.42" y1="66" x2="554.42" y2="410" stroke="#e6e6e6" stroke-width="1" />
  <line x1="633.93" y1="66" x2="633.93" y2="410" stroke="#e6e6e6" stroke-width="1" />
  <line x1="713.44" y1="66" x2="713.44" y2="410" stroke="#e6e6e6" stroke-width="1" />
  <line x1="60.8" y1="410" x2="730" y2="410" stroke="#e6e6e6" stroke-width="1" />
  <line x1="60.8" y1="330.422" x2="730" y2="330.422" stroke="#e6e6e6" stroke-width="1" />
  <line x1="60.8" y1="250.844" x2="730" y2="250.844" stroke="#e6e6e6" stroke-width="1" />
  <line x1="60.8" y1="171.266" x2="730" y2="171.266" stroke="#e6e6e6" stroke-width="1" />
  <line x1="60.8" y1="91.687" x2="730" y2="91.687" stroke="#e6e6e6" stroke-width="1" />
</g>
<g class="algraf-layer algraf-geom-area">
  <path d="M106.952 409.912 L109.214 409.882 L111.476 409.842 L113.739 409.79 L116.001 409.724 L118.263 409.641 L120.526 409.537 L122.788 409.407 L125.05 409.249 L127.313 409.056 L129.575 408.824 L131.837 408.547 L134.1 408.221 L136.362 407.841 L138.624 407.401 L140.887 406.898 L143.149 406.328 L145.411 405.69 L147.674 404.982 L149.936 404.207 L152.199 403.364 L154.461 402.46 L156.723 401.5 L158.986 400.492 L161.248 399.444 L163.51 398.368 L165.773 397.275 L168.035 396.177 L170.297 395.086 L172.56 394.014 L174.822 392.971 L177.084 391.966 L179.347 391.005 L181.609 390.093 L183.871 389.231 L186.134 388.415 L188.396 387.64 L190.658 386.896 L192.921 386.17 L195.183 385.447 L197.445 384.709 L199.708 383.935 L201.97 383.104 L204.232 382.195 L206.495 381.188 L208.757 380.062 L211.019 378.801 L213.282 377.39 L215.544 375.818 L217.806 374.078 L220.069 372.166 L222.331 370.083 L224.593 367.834 L226.856 365.428 L229.118 362.875 L231.38 360.191 L233.643 357.392 L235.905 354.496 L238.167 351.523 L240.43 348.493 L242.692 345.425 L244.954 342.339 L247.217 339.252 L249.479 336.182 L251.741 333.145 L254.004 330.155 L256.266 327.224 L258.528 324.363 L260.791 321.579 L263.053 318.88 L265.315 316.269 L267.578 313.748 L269.84 311.316 L272.103 308.968 L274.365 306.7 L276.627 304.503 L278.89 302.365 L281.152 300.275 L283.414 298.216 L285.677 296.175 L287.939 294.134 L290.201 292.077 L292.464 289.988 L294.726 287.85 L296.988 285.65 L299.251 283.375 L301.513 281.011 L303.775 278.549 L306.038 275.979 L308.3 273.293 L310.562 270.483 L312.825 267.541 L315.087 264.461 L317.349 261.235 L319.612 257.857 L321.874 254.318 L324.136 250.615 L326.399 246.739 L328.661 242.688 L330.923 238.46 L333.186 234.055 L335.448 229.476 L337.71 224.731 L339.973 219.833 L342.235 214.797 L344.497 209.643 L346.76 204.397 L349.022 199.086 L351.284 193.741 L353.547 188.395 L355.809 183.081 L358.071 177.831 L360.334 172.676 L362.596 167.645 L364.858 162.759 L367.121 158.039 L369.383 153.497 L371.645 149.14 L373.908 144.968 L376.17 140.978 L378.432 137.161 L380.695 133.503 L382.957 129.989 L385.219 126.603 L387.482 123.33 L389.744 120.157 L392.006 117.073 L394.269 114.076 L396.531 111.166 L398.794 108.352 L401.056 105.649 L403.318 103.08 L405.581 100.673 L407.843 98.463 L410.105 96.485 L412.368 94.782 L414.63 93.392 L416.892 92.356 L419.155 91.709 L421.417 91.481 L423.679 91.699 L425.942 92.379 L428.204 93.528 L430.466 95.147 L432.729 97.226 L434.991 99.747 L437.253 102.682 L439.516 105.999 L441.778 109.658 L444.04 113.616 L446.303 117.827 L448.565 122.245 L450.827 126.823 L453.09 131.518 L455.352 136.29 L457.614 141.105 L459.877 145.931 L462.139 150.748 L464.401 155.535 L466.664 160.284 L468.926 164.989 L471.188 169.651 L473.451 174.275 L475.713 178.872 L477.975 183.455 L480.238 188.042 L482.5 192.651 L484.762 197.304 L487.025 202.023 L489.287 206.83 L491.549 211.748 L493.812 216.8 L496.074 222.004 L498.336 227.381 L500.599 232.944 L502.861 238.705 L505.123 244.671 L507.386 250.844 L509.648 257.219 L511.91 263.785 L514.173 270.524 L516.435 277.413 L518.697 284.42 L520.96 291.509 L523.222 298.64 L525.485 305.766 L527.747 312.841 L530.009 319.815 L532.272 326.642 L534.534 333.273 L536.796 339.667 L539.059 345.785 L541.321 351.594 L543.583 357.066 L545.846 362.18 L548.108 366.923 L550.37 371.287 L552.633 375.27 L554.895 378.876 L557.157 382.115 L559.42 385 L561.682 387.548 L563.944 389.779 L566.207 391.715 L568.469 393.38 L570.731 394.796 L572.994 395.99 L575.256 396.987 L577.518 397.809 L579.781 398.481 L582.043 399.025 L584.305 399.463 L586.568 399.816 L588.83 400.101 L591.092 400.336 L593.355 400.538 L595.617 400.719 L597.879 400.892 L600.142 401.067 L602.404 401.254 L604.666 401.458 L606.929 401.686 L609.191 401.939 L611.453 402.221 L613.716 402.531 L615.978 402.867 L618.24 403.229 L620.503 403.612 L622.765 404.012 L625.027 404.425 L627.29 404.845 L629.552 405.268 L631.814 405.688 L634.077 406.1 L636.339 406.499 L638.601 406.882 L640.864 407.246 L643.126 407.586 L645.389 407.901 L647.651 408.191 L649.913 408.453 L652.176 408.688 L654.438 408.898 L656.7 409.081 L658.963 409.241 L661.225 409.378 L663.487 409.495 L665.75 409.594 L668.012 409.676 L670.274 409.744 L672.537 409.799 L674.799 409.844 L677.061 409.88 L679.324 409.909 L681.586 409.931 L683.848 409.948 L683.848 410 L681.586 410 L679.324 410 L677.061 410 L674.799 410 L672.537 410 L670.274 410 L668.012 410 L665.75 410 L663.487 410 L661.225 410 L658.963 410 L656.7 410 L654.438 410 L652.176 410 L649.913 410 L647.651 410 L645.389 410 L643.126 410 L640.864 410 L638.601 410 L636.339 410 L634.077 410 L631.814 410 L629.552 410 L627.29 410 L625.027 410 L622.765 410 L620.503 410 L618.24 410 L615.978 410 L613.716 410 L611.453 410 L609.191 410 L606.929 410 L604.666 410 L602.404 410 L600.142 410 L597.879 410 L595.617 410 L593.355 410 L591.092 410 L588.83 410 L586.568 410 L584.305 410 L582.043 410 L579.781 410 L577.518 410 L575.256 410 L572.994 410 L570.731 410 L568.469 410 L566.207 410 L563.944 410 L561.682 410 L559.42 410 L557.157 410 L554.895 410 L552.633 410 L550.37 410 L548.108 410 L545.846 410 L543.583 410 L541.321 410 L539.059 410 L536.796 410 L534.534 410 L532.272 410 L530.009 410 L527.747 410 L525.485 410 L523.222 410 L520.96 410 L518.697 410 L516.435 410 L514.173 410 L511.91 410 L509.648 410 L507.386 410 L505.123 410 L502.861 410 L500.599 410 L498.336 410 L496.074 410 L493.812 410 L491.549 410 L489.287 410 L487.025 410 L484.762 410 L482.5 410 L480.238 410 L477.975 410 L475.713 410 L473.451 410 L471.188 410 L468.926 410 L466.664 410 L464.401 410 L462.139 410 L459.877 410 L457.614 410 L455.352 410 L453.09 410 L450.827 410 L448.565 410 L446.303 410 L444.04 410 L441.778 410 L439.516 410 L437.253 410 L434.991 410 L432.729 410 L430.466 410 L428.204 410 L425.942 410 L423.679 410 L421.417 410 L419.155 410 L416.892 410 L414.63 410 L412.368 410 L410.105 410 L407.843 410 L405.581 410 L403.318 410 L401.056 410 L398.794 410 L396.531 410 L394.269 410 L392.006 410 L389.744 410 L387.482 410 L385.219 410 L382.957 410 L380.695 410 L378.432 410 L376.17 410 L373.908 410 L371.645 410 L369.383 410 L367.121 410 L364.858 410 L362.596 410 L360.334 410 L358.071 410 L355.809 410 L353.547 410 L351.284 410 L349.022 410 L346.76 410 L344.497 410 L342.235 410 L339.973 410 L337.71 410 L335.448 410 L333.186 410 L330.923 410 L328.661 410 L326.399 410 L324.136 410 L321.874 410 L319.612 410 L317.349 410 L315.087 410 L312.825 410 L310.562 410 L308.3 410 L306.038 410 L303.775 410 L301.513 410 L299.251 410 L296.988 410 L294.726 410 L292.464 410 L290.201 410 L287.939 410 L285.677 410 L283.414 410 L281.152 410 L278.89 410 L276.627 410 L274.365 410 L272.103 410 L269.84 410 L267.578 410 L265.315 410 L263.053 410 L260.791 410 L258.528 410 L256.266 410 L254.004 410 L251.741 410 L249.479 410 L247.217 410 L244.954 410 L242.692 410 L240.43 410 L238.167 410 L235.905 410 L233.643 410 L231.38 410 L229.118 410 L226.856 410 L224.593 410 L222.331 410 L220.069 410 L217.806 410 L215.544 410 L213.282 410 L211.019 410 L208.757 410 L206.495 410 L204.232 410 L201.97 410 L199.708 410 L197.445 410 L195.183 410 L192.921 410 L190.658 410 L188.396 410 L186.134 410 L183.871 410 L181.609 410 L179.347 410 L177.084 410 L174.822 410 L172.56 410 L170.297 410 L168.035 410 L165.773 410 L163.51 410 L161.248 410 L158.986 410 L156.723 410 L154.461 410 L152.199 410 L149.936 410 L147.674 410 L145.411 410 L143.149 410 L140.887 410 L138.624 410 L136.362 410 L134.1 410 L131.837 410 L129.575 410 L127.313 410 L125.05 410 L122.788 410 L120.526 410 L118.263 410 L116.001 410 L113.739 410 L111.476 410 L109.214 410 L106.952 410 Z" fill="#4c78a8" stroke="#1f3b57" stroke-width="1.5" opacity="0.6" />
</g>
<g class="algraf-axes">
  <line x1="60.8" y1="410" x2="730" y2="410" stroke="#333333" stroke-width="1" />
  <line x1="77.36" y1="410" x2="77.36" y2="415" stroke="#333333" stroke-width="1" />
  <text x="77.36" y="428" text-anchor="middle" font-family="system-ui, sans-serif" font-size="12" fill="#222222">-2</text>
  <line x1="156.87" y1="410" x2="156.87" y2="415" stroke="#333333" stroke-width="1" />
  <text x="156.87" y="428" text-anchor="middle" font-family="system-ui, sans-serif" font-size="12" fill="#222222">0</text>
  <line x1="236.38" y1="410" x2="236.38" y2="415" stroke="#333333" stroke-width="1" />
  <text x="236.38" y="428" text-anchor="middle" font-family="system-ui, sans-serif" font-size="12" fill="#222222">2</text>
  <line x1="315.89" y1="410" x2="315.89" y2="415" stroke="#333333" stroke-width="1" />
  <text x="315.89" y="428" text-anchor="middle" font-family="system-ui, sans-serif" font-size="12" fill="#222222">4</text>
  <line x1="395.4" y1="410" x2="395.4" y2="415" stroke="#333333" stroke-width="1" />
  <text x="395.4" y="428" text-anchor="middle" font-family="system-ui, sans-serif" font-size="12" fill="#222222">6</text>
  <line x1="474.91" y1="410" x2="474.91" y2="415" stroke="#333333" stroke-width="1" />
  <text x="474.91" y="428" text-anchor="middle" font-family="system-ui, sans-serif" font-size="12" fill="#222222">8</text>
  <line x1="554.42" y1="410" x2="554.42" y2="415" stroke="#333333" stroke-width="1" />
  <text x="554.42" y="428" text-anchor="middle" font-family="system-ui, sans-serif" font-size="12" fill="#222222">10</text>
  <line x1="633.93" y1="410" x2="633.93" y2="415" stroke="#333333" stroke-width="1" />
  <text x="633.93" y="428" text-anchor="middle" font-family="system-ui, sans-serif" font-size="12" fill="#222222">12</text>
  <line x1="713.44" y1="410" x2="713.44" y2="415" stroke="#333333" stroke-width="1" />
  <text x="713.44" y="428" text-anchor="middle" font-family="system-ui, sans-serif" font-size="12" fill="#222222">14</text>
  <text x="395.4" y="448" text-anchor="middle" font-family="system-ui, sans-serif" font-size="12" fill="#222222">density x</text>
  <line x1="60.8" y1="66" x2="60.8" y2="410" stroke="#333333" stroke-width="1" />
  <line x1="55.8" y1="410" x2="60.8" y2="410" stroke="#333333" stroke-width="1" />
  <text x="52.8" y="414" text-anchor="end" font-family="system-ui, sans-serif" font-size="12" fill="#222222">0</text>
  <line x1="55.8" y1="330.422" x2="60.8" y2="330.422" stroke="#333333" stroke-width="1" />
  <text x="52.8" y="334.422" text-anchor="end" font-family="system-ui, sans-serif" font-size="12" fill="#222222">0.05</text>
  <line x1="55.8" y1="250.844" x2="60.8" y2="250.844" stroke="#333333" stroke-width="1" />
  <text x="52.8" y="254.844" text-anchor="end" font-family="system-ui, sans-serif" font-size="12" fill="#222222">0.1</text>
  <line x1="55.8" y1="171.266" x2="60.8" y2="171.266" stroke="#333333" stroke-width="1" />
  <text x="52.8" y="175.266" text-anchor="end" font-family="system-ui, sans-serif" font-size="12" fill="#222222">0.15</text>
  <line x1="55.8" y1="91.687" x2="60.8" y2="91.687" stroke="#333333" stroke-width="1" />
  <text x="52.8" y="95.687" text-anchor="end" font-family="system-ui, sans-serif" font-size="12" fill="#222222">0.2</text>
  <text x="12" y="238" text-anchor="middle" transform="rotate(-90 12 238)" font-family="system-ui, sans-serif" font-size="12" fill="#222222">density</text>
</g>
</svg>
