<svg xmlns="http://www.w3.org/2000/svg" width="760" height="460" viewBox="0 0 760 460" role="img" aria-label="Exam scores by cohort (dodged)">
<title>Exam scores by cohort (dodged)</title>
<rect class="algraf-background" x="0" y="0" width="760" height="460" fill="#ffffff" />
<text class="algraf-title" x="60" y="24" font-family="system-ui, sans-serif" font-size="18" font-weight="600" fill="#222222">Exam scores by cohort (dodged)</text>
<rect class="algraf-plot-area" x="60" y="66" width="550" height="344" fill="#ffffff" />
<g class="algraf-grid">
  <line x1="151.667" y1="66" x2="151.667" y2="410" stroke="#f2f2f2" stroke-width="0.6" />
  <line x1="243.333" y1="66" x2="243.333" y2="410" stroke="#f2f2f2" stroke-width="0.6" />
  <line x1="335" y1="66" x2="335" y2="410" stroke="#f2f2f2" stroke-width="0.6" />
  <line x1="426.667" y1="66" x2="426.667" y2="410" stroke="#f2f2f2" stroke-width="0.6" />
  <line x1="518.333" y1="66" x2="518.333" y2="410" stroke="#f2f2f2" stroke-width="0.6" />
  <line x1="60" y1="372.081" x2="610" y2="372.081" stroke="#f2f2f2" stroke-width="0.6" />
  <line x1="60" y1="296.243" x2="610" y2="296.243" stroke="#f2f2f2" stroke-width="0.6" />
  <line x1="60" y1="220.406" x2="610" y2="220.406" stroke="#f2f2f2" stroke-width="0.6" />
  <line x1="60" y1="144.568" x2="610" y2="144.568" stroke="#f2f2f2" stroke-width="0.6" />
  <line x1="105.833" y1="66" x2="105.833" y2="410" stroke="#e6e6e6" stroke-width="1" />
  <line x1="197.5" y1="66" x2="197.5" y2="410" stroke="#e6e6e6" stroke-width="1" />
  <line x1="289.167" y1="66" x2="289.167" y2="410" stroke="#e6e6e6" stroke-width="1" />
  <line x1="380.833" y1="66" x2="380.833" y2="410" stroke="#e6e6e6" stroke-width="1" />
  <line x1="472.5" y1="66" x2="472.5" y2="410" stroke="#e6e6e6" stroke-width="1" />
  <line x1="564.167" y1="66" x2="564.167" y2="410" stroke="#e6e6e6" stroke-width="1" />
  <line x1="60" y1="410" x2="610" y2="410" stroke="#e6e6e6" stroke-width="1" />
  <line x1="60" y1="334.162" x2="610" y2="334.162" stroke="#e6e6e6" stroke-width="1" />
  <line x1="60" y1="258.325" x2="610" y2="258.325" stroke="#e6e6e6" stroke-width="1" />
  <line x1="60" y1="182.487" x2="610" y2="182.487" stroke="#e6e6e6" stroke-width="1" />
  <line x1="60" y1="106.649" x2="610" y2="106.649" stroke="#e6e6e6" stroke-width="1" />
</g>
<g class="algraf-layer algraf-geom-rect">
  <rect x="60" y="379.665" width="15.278" height="30.335" fill="#4E79A7" opacity="1" />
  <rect x="75.278" y="394.832" width="15.278" height="15.168" fill="#F28E2B" opacity="1" />
  <rect x="105.833" y="349.33" width="15.278" height="60.67" fill="#4E79A7" opacity="1" />
  <rect x="121.111" y="394.832" width="15.278" height="15.168" fill="#F28E2B" opacity="1" />
  <rect x="136.389" y="394.832" width="15.278" height="15.168" fill="#E15759" opacity="1" />
  <rect x="151.667" y="243.157" width="15.278" height="166.843" fill="#4E79A7" opacity="1" />
  <rect x="166.944" y="334.162" width="15.278" height="75.838" fill="#F28E2B" opacity="1" />
  <rect x="182.222" y="364.497" width="15.278" height="45.503" fill="#E15759" opacity="1" />
  <rect x="197.5" y="182.487" width="15.278" height="227.513" fill="#4E79A7" opacity="1" />
  <rect x="212.778" y="288.66" width="15.278" height="121.34" fill="#F28E2B" opacity="1" />
  <rect x="228.056" y="349.33" width="15.278" height="60.67" fill="#E15759" opacity="1" />
  <rect x="243.333" y="121.817" width="15.278" height="288.183" fill="#4E79A7" opacity="1" />
  <rect x="258.611" y="227.989" width="15.278" height="182.011" fill="#F28E2B" opacity="1" />
  <rect x="273.889" y="288.66" width="15.278" height="121.34" fill="#E15759" opacity="1" />
  <rect x="289.167" y="303.827" width="15.278" height="106.173" fill="#4E79A7" opacity="1" />
  <rect x="304.444" y="91.481" width="15.278" height="318.519" fill="#F28E2B" opacity="1" />
  <rect x="319.722" y="288.66" width="15.278" height="121.34" fill="#E15759" opacity="1" />
  <rect x="335" y="288.66" width="15.278" height="121.34" fill="#4E79A7" opacity="1" />
  <rect x="350.278" y="167.319" width="15.278" height="242.681" fill="#F28E2B" opacity="1" />
  <rect x="365.556" y="243.157" width="15.278" height="166.843" fill="#E15759" opacity="1" />
  <rect x="380.833" y="379.665" width="15.278" height="30.335" fill="#4E79A7" opacity="1" />
  <rect x="396.111" y="349.33" width="15.278" height="60.67" fill="#F28E2B" opacity="1" />
  <rect x="411.389" y="212.822" width="15.278" height="197.178" fill="#E15759" opacity="1" />
  <rect x="426.667" y="379.665" width="15.278" height="30.335" fill="#4E79A7" opacity="1" />
  <rect x="441.944" y="394.832" width="15.278" height="15.168" fill="#F28E2B" opacity="1" />
  <rect x="457.222" y="318.995" width="15.278" height="91.005" fill="#E15759" opacity="1" />
  <rect x="487.778" y="394.832" width="15.278" height="15.168" fill="#F28E2B" opacity="1" />
  <rect x="503.056" y="394.832" width="15.278" height="15.168" fill="#E15759" opacity="1" />
  <rect x="548.889" y="379.665" width="15.278" height="30.335" fill="#E15759" opacity="1" />
  <rect x="594.722" y="364.497" width="15.278" height="45.503" fill="#E15759" opacity="1" />
</g>
<g class="algraf-axes">
  <line x1="60" y1="410" x2="610" y2="410" stroke="#333333" stroke-width="1" />
  <line x1="105.833" y1="410" x2="105.833" y2="415" stroke="#333333" stroke-width="1" />
  <text x="105.833" y="428" text-anchor="middle" font-family="system-ui, sans-serif" font-size="12" fill="#222222">50</text>
  <line x1="197.5" y1="410" x2="197.5" y2="415" stroke="#333333" stroke-width="1" />
  <text x="197.5" y="428" text-anchor="middle" font-family="system-ui, sans-serif" font-size="12" fill="#222222">60</text>
  <line x1="289.167" y1="410" x2="289.167" y2="415" stroke="#333333" stroke-width="1" />
  <text x="289.167" y="428" text-anchor="middle" font-family="system-ui, sans-serif" font-size="12" fill="#222222">70</text>
  <line x1="380.833" y1="410" x2="380.833" y2="415" stroke="#333333" stroke-width="1" />
  <text x="380.833" y="428" text-anchor="middle" font-family="system-ui, sans-serif" font-size="12" fill="#222222">80</text>
  <line x1="472.5" y1="410" x2="472.5" y2="415" stroke="#333333" stroke-width="1" />
  <text x="472.5" y="428" text-anchor="middle" font-family="system-ui, sans-serif" font-size="12" fill="#222222">90</text>
  <line x1="564.167" y1="410" x2="564.167" y2="415" stroke="#333333" stroke-width="1" />
  <text x="564.167" y="428" text-anchor="middle" font-family="system-ui, sans-serif" font-size="12" fill="#222222">100</text>
  <text x="335" y="448" text-anchor="middle" font-family="system-ui, sans-serif" font-size="12" fill="#222222">Score</text>
  <line x1="60" y1="66" x2="60" y2="410" stroke="#333333" stroke-width="1" />
  <line x1="55" y1="410" x2="60" y2="410" stroke="#333333" stroke-width="1" />
  <text x="52" y="414" text-anchor="end" font-family="system-ui, sans-serif" font-size="12" fill="#222222">0</text>
  <line x1="55" y1="334.162" x2="60" y2="334.162" stroke="#333333" stroke-width="1" />
  <text x="52" y="338.162" text-anchor="end" font-family="system-ui, sans-serif" font-size="12" fill="#222222">5</text>
  <line x1="55" y1="258.325" x2="60" y2="258.325" stroke="#333333" stroke-width="1" />
  <text x="52" y="262.325" text-anchor="end" font-family="system-ui, sans-serif" font-size="12" fill="#222222">10</text>
  <line x1="55" y1="182.487" x2="60" y2="182.487" stroke="#333333" stroke-width="1" />
  <text x="52" y="186.487" text-anchor="end" font-family="system-ui, sans-serif" font-size="12" fill="#222222">15</text>
  <line x1="55" y1="106.649" x2="60" y2="106.649" stroke="#333333" stroke-width="1" />
  <text x="52" y="110.649" text-anchor="end" font-family="system-ui, sans-serif" font-size="12" fill="#222222">20</text>
  <text x="25.6" y="238" text-anchor="middle" transform="rotate(-90 25.6 238)" font-family="system-ui, sans-serif" font-size="12" fill="#222222">Count</text>
</g>
<g class="algraf-legends">
  <text x="626" y="70" text-anchor="start" font-family="system-ui, sans-serif" font-size="12" fill="#222222">cohort</text>
  <rect x="626" y="78" width="12" height="12" fill="#4E79A7" />
  <text x="644" y="88" text-anchor="start" font-family="system-ui, sans-serif" font-size="12" fill="#222222">Morning</text>
  <rect x="626" y="96" width="12" height="12" fill="#F28E2B" />
  <text x="644" y="106" text-anchor="start" font-family="system-ui, sans-serif" font-size="12" fill="#222222">Afternoon</text>
  <rect x="626" y="114" width="12" height="12" fill="#E15759" />
  <text x="644" y="124" text-anchor="start" font-family="system-ui, sans-serif" font-size="12" fill="#222222">Evening</text>
</g>
</svg>
