<svg xmlns="http://www.w3.org/2000/svg" width="360" height="360" viewBox="0 0 360 360" role="img" aria-label="Revenue share">
<title>Revenue share</title>
<rect class="algraf-background" x="0" y="0" width="360" height="360" fill="#ffffff" />
<text class="algraf-title" x="30" y="24" font-family="system-ui, sans-serif" font-size="18" font-weight="600" fill="#222222">Revenue share</text>
<rect class="algraf-plot-area" x="30" y="36" width="200" height="314" fill="#ffffff" />
<g class="algraf-polar-grid">
  <circle cx="130" cy="193" r="100" fill="none" stroke="#e6e6e6" stroke-width="1" />
</g>
<g class="algraf-layer algraf-geom-bar">
  <path d="M 130 93 A 100 100 0 0 1 160.902 288.106 L 146.996 245.308 A 55 55 0 0 0 130 138 Z" fill="#4E79A7" opacity="1" />
  <path d="M 160.902 288.106 A 100 100 0 0 1 30 193 L 75 193 A 55 55 0 0 0 146.996 245.308 Z" fill="#F28E2B" opacity="1" />
  <path d="M 30 193 A 100 100 0 0 1 130 93 L 130 138 A 55 55 0 0 0 75 193 Z" fill="#E15759" opacity="1" />
</g>
<g class="algraf-legends">
  <text x="246" y="40" text-anchor="start" font-family="system-ui, sans-serif" font-size="12" fill="#222222">product</text>
  <rect x="246" y="48" width="12" height="12" fill="#4E79A7" />
  <text x="264" y="58" text-anchor="start" font-family="system-ui, sans-serif" font-size="12" fill="#222222">Software</text>
  <rect x="246" y="66" width="12" height="12" fill="#F28E2B" />
  <text x="264" y="76" text-anchor="start" font-family="system-ui, sans-serif" font-size="12" fill="#222222">Hardware</text>
  <rect x="246" y="84" width="12" height="12" fill="#E15759" />
  <text x="264" y="94" text-anchor="start" font-family="system-ui, sans-serif" font-size="12" fill="#222222">Services</text>
</g>
</svg>
