<svg xmlns="http://www.w3.org/2000/svg" width="720" height="420" viewBox="0 0 720 420" role="img" aria-label="Annual temperature range by city">
<title>Annual temperature range by city</title>
<rect class="algraf-background" x="0" y="0" width="720" height="420" fill="#ffffff" />
<text class="algraf-title" x="96.8" y="24" font-family="system-ui, sans-serif" font-size="18" font-weight="600" fill="#222222">Annual temperature range by city</text>
<rect class="algraf-plot-area" x="96.8" y="66" width="593.2" height="304" fill="#ffffff" />
<g class="algraf-grid">
  <line x1="204" y1="66" x2="204" y2="370" stroke="#f2f2f2" stroke-width="0.6" />
  <line x1="298.7" y1="66" x2="298.7" y2="370" stroke="#f2f2f2" stroke-width="0.6" />
  <line x1="393.4" y1="66" x2="393.4" y2="370" stroke="#f2f2f2" stroke-width="0.6" />
  <line x1="488.1" y1="66" x2="488.1" y2="370" stroke="#f2f2f2" stroke-width="0.6" />
  <line x1="582.8" y1="66" x2="582.8" y2="370" stroke="#f2f2f2" stroke-width="0.6" />
  <line x1="156.65" y1="66" x2="156.65" y2="370" stroke="#e6e6e6" stroke-width="1" />
  <line x1="251.35" y1="66" x2="251.35" y2="370" stroke="#e6e6e6" stroke-width="1" />
  <line x1="346.05" y1="66" x2="346.05" y2="370" stroke="#e6e6e6" stroke-width="1" />
  <line x1="440.75" y1="66" x2="440.75" y2="370" stroke="#e6e6e6" stroke-width="1" />
  <line x1="535.45" y1="66" x2="535.45" y2="370" stroke="#e6e6e6" stroke-width="1" />
  <line x1="630.15" y1="66" x2="630.15" y2="370" stroke="#e6e6e6" stroke-width="1" />
</g>
<defs>
<clipPath id="algraf-clip-0"><rect x="96.8" y="66" width="593.2" height="304" /></clipPath>
</defs>
<g clip-path="url(#algraf-clip-0)">
  <g class="algraf-layer algraf-geom-segment">
    <line x1="393.4" y1="344.667" x2="649.09" y2="344.667" stroke="#bbbbbb" stroke-width="4" opacity="1" />
    <line x1="204" y1="294" x2="563.86" y2="294" stroke="#bbbbbb" stroke-width="4" opacity="1" />
    <line x1="279.76" y1="243.333" x2="497.57" y2="243.333" stroke="#bbbbbb" stroke-width="4" opacity="1" />
    <line x1="175.59" y1="192.667" x2="544.92" y2="192.667" stroke="#bbbbbb" stroke-width="4" opacity="1" />
    <line x1="421.81" y1="142" x2="573.33" y2="142" stroke="#bbbbbb" stroke-width="4" opacity="1" />
    <line x1="137.71" y1="91.333" x2="450.22" y2="91.333" stroke="#bbbbbb" stroke-width="4" opacity="1" />
  </g>
  <g class="algraf-layer algraf-geom-point">
    <circle cx="393.4" cy="344.667" r="6" fill="#1f77b4" opacity="1" />
    <circle cx="204" cy="294" r="6" fill="#1f77b4" opacity="1" />
    <circle cx="279.76" cy="243.333" r="6" fill="#1f77b4" opacity="1" />
    <circle cx="175.59" cy="192.667" r="6" fill="#1f77b4" opacity="1" />
    <circle cx="421.81" cy="142" r="6" fill="#1f77b4" opacity="1" />
    <circle cx="137.71" cy="91.333" r="6" fill="#1f77b4" opacity="1" />
  </g>
</g>
<g class="algraf-axes">
  <line x1="96.8" y1="370" x2="690" y2="370" stroke="#333333" stroke-width="1" />
  <line x1="156.65" y1="370" x2="156.65" y2="375" stroke="#333333" stroke-width="1" />
  <text x="156.65" y="388" text-anchor="middle" font-family="system-ui, sans-serif" font-size="12" fill="#222222">-10</text>
  <line x1="251.35" y1="370" x2="251.35" y2="375" stroke="#333333" stroke-width="1" />
  <text x="251.35" y="388" text-anchor="middle" font-family="system-ui, sans-serif" font-size="12" fill="#222222">0</text>
  <line x1="346.05" y1="370" x2="346.05" y2="375" stroke="#333333" stroke-width="1" />
  <text x="346.05" y="388" text-anchor="middle" font-family="system-ui, sans-serif" font-size="12" fill="#222222">10</text>
  <line x1="440.75" y1="370" x2="440.75" y2="375" stroke="#333333" stroke-width="1" />
  <text x="440.75" y="388" text-anchor="middle" font-family="system-ui, sans-serif" font-size="12" fill="#222222">20</text>
  <line x1="535.45" y1="370" x2="535.45" y2="375" stroke="#333333" stroke-width="1" />
  <text x="535.45" y="388" text-anchor="middle" font-family="system-ui, sans-serif" font-size="12" fill="#222222">30</text>
  <line x1="630.15" y1="370" x2="630.15" y2="375" stroke="#333333" stroke-width="1" />
  <text x="630.15" y="388" text-anchor="middle" font-family="system-ui, sans-serif" font-size="12" fill="#222222">40</text>
  <text x="393.4" y="408" text-anchor="middle" font-family="system-ui, sans-serif" font-size="12" fill="#222222">Temperature (°C)</text>
  <line x1="96.8" y1="66" x2="96.8" y2="370" stroke="#333333" stroke-width="1" />
  <line x1="91.8" y1="344.667" x2="96.8" y2="344.667" stroke="#333333" stroke-width="1" />
  <text x="88.8" y="348.667" text-anchor="end" font-family="system-ui, sans-serif" font-size="12" fill="#222222">Phoenix</text>
  <line x1="91.8" y1="294" x2="96.8" y2="294" stroke="#333333" stroke-width="1" />
  <text x="88.8" y="298" text-anchor="end" font-family="system-ui, sans-serif" font-size="12" fill="#222222">Denver</text>
  <line x1="91.8" y1="243.333" x2="96.8" y2="243.333" stroke="#333333" stroke-width="1" />
  <text x="88.8" y="247.333" text-anchor="end" font-family="system-ui, sans-serif" font-size="12" fill="#222222">Seattle</text>
  <line x1="91.8" y1="192.667" x2="96.8" y2="192.667" stroke="#333333" stroke-width="1" />
  <text x="88.8" y="196.667" text-anchor="end" font-family="system-ui, sans-serif" font-size="12" fill="#222222">Chicago</text>
  <line x1="91.8" y1="142" x2="96.8" y2="142" stroke="#333333" stroke-width="1" />
  <text x="88.8" y="146" text-anchor="end" font-family="system-ui, sans-serif" font-size="12" fill="#222222">Miami</text>
  <line x1="91.8" y1="91.333" x2="96.8" y2="91.333" stroke="#333333" stroke-width="1" />
  <text x="88.8" y="95.333" text-anchor="end" font-family="system-ui, sans-serif" font-size="12" fill="#222222">Anchorage</text>
  <text x="12" y="218" text-anchor="middle" transform="rotate(-90 12 218)" font-family="system-ui, sans-serif" font-size="12" fill="#222222">City</text>
</g>
</svg>
