<svg xmlns="http://www.w3.org/2000/svg" width="640" height="420" viewBox="0 0 640 420" role="img" aria-label="Events by category (NDJSON source)">
<title>Events by category (NDJSON source)</title>
<rect class="algraf-background" x="0" y="0" width="640" height="420" fill="#ffffff" />
<text class="algraf-title" x="60" y="24" font-family="system-ui, sans-serif" font-size="18" font-weight="600" fill="#222222">Events by category (NDJSON source)</text>
<rect class="algraf-plot-area" x="60" y="66" width="430" height="304" fill="#ffffff" />
<g class="algraf-grid">
  <line x1="60" y1="370" x2="490" y2="370" stroke="#e6e6e6" stroke-width="1" />
  <line x1="60" y1="322.291" x2="490" y2="322.291" stroke="#e6e6e6" stroke-width="1" />
  <line x1="60" y1="274.583" x2="490" y2="274.583" stroke="#e6e6e6" stroke-width="1" />
  <line x1="60" y1="226.874" x2="490" y2="226.874" stroke="#e6e6e6" stroke-width="1" />
  <line x1="60" y1="179.165" x2="490" y2="179.165" stroke="#e6e6e6" stroke-width="1" />
  <line x1="60" y1="131.456" x2="490" y2="131.456" stroke="#e6e6e6" stroke-width="1" />
  <line x1="60" y1="83.748" x2="490" y2="83.748" stroke="#e6e6e6" stroke-width="1" />
</g>
<g class="algraf-layer algraf-geom-bar">
  <rect x="70.75" y="293.666" width="86" height="76.334" fill="#4E79A7" opacity="0.85" />
  <rect x="178.25" y="88.519" width="86" height="281.481" fill="#F28E2B" opacity="0.85" />
  <rect x="285.75" y="347.338" width="86" height="22.662" fill="#E15759" opacity="0.85" />
  <rect x="393.25" y="358.788" width="86" height="11.212" fill="#76B7B2" opacity="0.85" />
</g>
<g class="algraf-axes">
  <line x1="60" y1="370" x2="490" y2="370" stroke="#333333" stroke-width="1" />
  <line x1="113.75" y1="370" x2="113.75" y2="375" stroke="#333333" stroke-width="1" />
  <text x="113.75" y="388" text-anchor="middle" font-family="system-ui, sans-serif" font-size="12" fill="#222222">click</text>
  <line x1="221.25" y1="370" x2="221.25" y2="375" stroke="#333333" stroke-width="1" />
  <text x="221.25" y="388" text-anchor="middle" font-family="system-ui, sans-serif" font-size="12" fill="#222222">view</text>
  <line x1="328.75" y1="370" x2="328.75" y2="375" stroke="#333333" stroke-width="1" />
  <text x="328.75" y="388" text-anchor="middle" font-family="system-ui, sans-serif" font-size="12" fill="#222222">signup</text>
  <line x1="436.25" y1="370" x2="436.25" y2="375" stroke="#333333" stroke-width="1" />
  <text x="436.25" y="388" text-anchor="middle" font-family="system-ui, sans-serif" font-size="12" fill="#222222">purchase</text>
  <text x="275" y="408" text-anchor="middle" font-family="system-ui, sans-serif" font-size="12" fill="#222222">category</text>
  <line x1="60" y1="66" x2="60" y2="370" stroke="#333333" stroke-width="1" />
  <line x1="55" y1="370" x2="60" y2="370" stroke="#333333" stroke-width="1" />
  <text x="52" y="374" text-anchor="end" font-family="system-ui, sans-serif" font-size="12" fill="#222222">0</text>
  <line x1="55" y1="322.291" x2="60" y2="322.291" stroke="#333333" stroke-width="1" />
  <text x="52" y="326.291" text-anchor="end" font-family="system-ui, sans-serif" font-size="12" fill="#222222">200</text>
  <line x1="55" y1="274.583" x2="60" y2="274.583" stroke="#333333" stroke-width="1" />
  <text x="52" y="278.583" text-anchor="end" font-family="system-ui, sans-serif" font-size="12" fill="#222222">400</text>
  <line x1="55" y1="226.874" x2="60" y2="226.874" stroke="#333333" stroke-width="1" />
  <text x="52" y="230.874" text-anchor="end" font-family="system-ui, sans-serif" font-size="12" fill="#222222">600</text>
  <line x1="55" y1="179.165" x2="60" y2="179.165" stroke="#333333" stroke-width="1" />
  <text x="52" y="183.165" text-anchor="end" font-family="system-ui, sans-serif" font-size="12" fill="#222222">800</text>
  <line x1="55" y1="131.456" x2="60" y2="131.456" stroke="#333333" stroke-width="1" />
  <text x="52" y="135.456" text-anchor="end" font-family="system-ui, sans-serif" font-size="12" fill="#222222">1000</text>
  <line x1="55" y1="83.748" x2="60" y2="83.748" stroke="#333333" stroke-width="1" />
  <text x="52" y="87.748" text-anchor="end" font-family="system-ui, sans-serif" font-size="12" fill="#222222">1200</text>
  <text x="17.2" y="218" text-anchor="middle" transform="rotate(-90 17.2 218)" font-family="system-ui, sans-serif" font-size="12" fill="#222222">count</text>
</g>
<g class="algraf-legends">
  <text x="506" y="70" text-anchor="start" font-family="system-ui, sans-serif" font-size="12" fill="#222222">category</text>
  <rect x="506" y="78" width="12" height="12" fill="#4E79A7" />
  <text x="524" y="88" text-anchor="start" font-family="system-ui, sans-serif" font-size="12" fill="#222222">click</text>
  <rect x="506" y="96" width="12" height="12" fill="#F28E2B" />
  <text x="524" y="106" text-anchor="start" font-family="system-ui, sans-serif" font-size="12" fill="#222222">view</text>
  <rect x="506" y="114" width="12" height="12" fill="#E15759" />
  <text x="524" y="124" text-anchor="start" font-family="system-ui, sans-serif" font-size="12" fill="#222222">signup</text>
  <rect x="506" y="132" width="12" height="12" fill="#76B7B2" />
  <text x="524" y="142" text-anchor="start" font-family="system-ui, sans-serif" font-size="12" fill="#222222">purchase</text>
</g>
</svg>
