<svg xmlns="http://www.w3.org/2000/svg" width="760" height="420" viewBox="0 0 760 420" role="img" aria-label="Zone selector">
<title>Zone selector</title>
<rect class="algraf-background" x="0" y="0" width="760" height="420" fill="#ffffff" />
<text class="algraf-title" x="60" y="24" font-family="system-ui, sans-serif" font-size="18" font-weight="600" fill="#222222">Zone selector</text>
<rect class="algraf-plot-area" x="60" y="66" width="550" height="304" fill="#ffffff" />
<g class="algraf-grid">
  <line x1="60" y1="345.309" x2="610" y2="345.309" stroke="#f2f2f2" stroke-width="0.6" />
  <line x1="60" y1="295.926" x2="610" y2="295.926" stroke="#f2f2f2" stroke-width="0.6" />
  <line x1="60" y1="246.543" x2="610" y2="246.543" stroke="#f2f2f2" stroke-width="0.6" />
  <line x1="60" y1="197.16" x2="610" y2="197.16" stroke="#f2f2f2" stroke-width="0.6" />
  <line x1="60" y1="147.778" x2="610" y2="147.778" stroke="#f2f2f2" stroke-width="0.6" />
  <line x1="60" y1="98.395" x2="610" y2="98.395" stroke="#f2f2f2" stroke-width="0.6" />
  <line x1="60" y1="370" x2="610" y2="370" stroke="#e6e6e6" stroke-width="1" />
  <line x1="60" y1="320.617" x2="610" y2="320.617" stroke="#e6e6e6" stroke-width="1" />
  <line x1="60" y1="271.235" x2="610" y2="271.235" stroke="#e6e6e6" stroke-width="1" />
  <line x1="60" y1="221.852" x2="610" y2="221.852" stroke="#e6e6e6" stroke-width="1" />
  <line x1="60" y1="172.469" x2="610" y2="172.469" stroke="#e6e6e6" stroke-width="1" />
  <line x1="60" y1="123.086" x2="610" y2="123.086" stroke="#e6e6e6" stroke-width="1" />
  <line x1="60" y1="73.704" x2="610" y2="73.704" stroke="#e6e6e6" stroke-width="1" />
</g>
<g class="algraf-layer algraf-geom-bar">
  <rect x="73.75" y="162.593" width="110" height="207.407" fill="#006BA4" opacity="1" data-algraf-event="click" data-algraf-emit-field="zone" data-algraf-emit-value="Riverfront"><title>zone: Riverfront
total_revenue: 42
orders: 18</title></rect>
  <rect x="211.25" y="88.519" width="110" height="281.481" fill="#FF800E" opacity="1" data-algraf-event="click" data-algraf-emit-field="zone" data-algraf-emit-value="Market"><title>zone: Market
total_revenue: 57
orders: 24</title></rect>
  <rect x="348.75" y="197.16" width="110" height="172.84" fill="#ABABAB" opacity="1" data-algraf-event="click" data-algraf-emit-field="zone" data-algraf-emit-value="Uptown"><title>zone: Uptown
total_revenue: 35
orders: 15</title></rect>
  <rect x="486.25" y="226.79" width="110" height="143.21" fill="#595959" opacity="1" data-algraf-event="click" data-algraf-emit-field="zone" data-algraf-emit-value="Industrial"><title>zone: Industrial
total_revenue: 29
orders: 12</title></rect>
</g>
<g class="algraf-axes">
  <line x1="60" y1="370" x2="610" y2="370" stroke="#333333" stroke-width="1" />
  <line x1="128.75" y1="370" x2="128.75" y2="375" stroke="#333333" stroke-width="1" />
  <text x="128.75" y="388" text-anchor="middle" font-family="system-ui, sans-serif" font-size="12" fill="#222222">Riverfront</text>
  <line x1="266.25" y1="370" x2="266.25" y2="375" stroke="#333333" stroke-width="1" />
  <text x="266.25" y="388" text-anchor="middle" font-family="system-ui, sans-serif" font-size="12" fill="#222222">Market</text>
  <line x1="403.75" y1="370" x2="403.75" y2="375" stroke="#333333" stroke-width="1" />
  <text x="403.75" y="388" text-anchor="middle" font-family="system-ui, sans-serif" font-size="12" fill="#222222">Uptown</text>
  <line x1="541.25" y1="370" x2="541.25" y2="375" stroke="#333333" stroke-width="1" />
  <text x="541.25" y="388" text-anchor="middle" font-family="system-ui, sans-serif" font-size="12" fill="#222222">Industrial</text>
  <text x="335" y="408" text-anchor="middle" font-family="system-ui, sans-serif" font-size="12" fill="#222222">Zone</text>
  <line x1="60" y1="66" x2="60" y2="370" stroke="#333333" stroke-width="1" />
  <line x1="55" y1="370" x2="60" y2="370" stroke="#333333" stroke-width="1" />
  <text x="52" y="374" text-anchor="end" font-family="system-ui, sans-serif" font-size="12" fill="#222222">0</text>
  <line x1="55" y1="320.617" x2="60" y2="320.617" stroke="#333333" stroke-width="1" />
  <text x="52" y="324.617" text-anchor="end" font-family="system-ui, sans-serif" font-size="12" fill="#222222">10</text>
  <line x1="55" y1="271.235" x2="60" y2="271.235" stroke="#333333" stroke-width="1" />
  <text x="52" y="275.235" text-anchor="end" font-family="system-ui, sans-serif" font-size="12" fill="#222222">20</text>
  <line x1="55" y1="221.852" x2="60" y2="221.852" stroke="#333333" stroke-width="1" />
  <text x="52" y="225.852" text-anchor="end" font-family="system-ui, sans-serif" font-size="12" fill="#222222">30</text>
  <line x1="55" y1="172.469" x2="60" y2="172.469" stroke="#333333" stroke-width="1" />
  <text x="52" y="176.469" text-anchor="end" font-family="system-ui, sans-serif" font-size="12" fill="#222222">40</text>
  <line x1="55" y1="123.086" x2="60" y2="123.086" stroke="#333333" stroke-width="1" />
  <text x="52" y="127.086" text-anchor="end" font-family="system-ui, sans-serif" font-size="12" fill="#222222">50</text>
  <line x1="55" y1="73.704" x2="60" y2="73.704" stroke="#333333" stroke-width="1" />
  <text x="52" y="77.704" text-anchor="end" font-family="system-ui, sans-serif" font-size="12" fill="#222222">60</text>
  <text x="25.6" y="218" text-anchor="middle" transform="rotate(-90 25.6 218)" font-family="system-ui, sans-serif" font-size="12" fill="#222222">Revenue</text>
</g>
<g class="algraf-legends">
  <text x="626" y="70" text-anchor="start" font-family="system-ui, sans-serif" font-size="12" fill="#222222">zone</text>
  <rect x="626" y="78" width="12" height="12" fill="#006BA4" />
  <text x="644" y="88" text-anchor="start" font-family="system-ui, sans-serif" font-size="12" fill="#222222">Riverfront</text>
  <rect x="626" y="96" width="12" height="12" fill="#FF800E" />
  <text x="644" y="106" text-anchor="start" font-family="system-ui, sans-serif" font-size="12" fill="#222222">Market</text>
  <rect x="626" y="114" width="12" height="12" fill="#ABABAB" />
  <text x="644" y="124" text-anchor="start" font-family="system-ui, sans-serif" font-size="12" fill="#222222">Uptown</text>
  <rect x="626" y="132" width="12" height="12" fill="#595959" />
  <text x="644" y="142" text-anchor="start" font-family="system-ui, sans-serif" font-size="12" fill="#222222">Industrial</text>
</g>
</svg>
