<svg xmlns="http://www.w3.org/2000/svg" width="800" height="480" viewBox="0 0 800 480" role="img" aria-label="Regional Sales Performance vs. Target">
<title>Regional Sales Performance vs. Target</title>
<rect class="algraf-background" x="0" y="0" width="800" height="480" fill="#ffffff" />
<text class="algraf-title" x="60" y="24" font-family="system-ui, sans-serif" font-size="18" font-weight="600" fill="#222222">Regional Sales Performance vs. Target</text>
<rect class="algraf-plot-area algraf-facet-panel" x="60" y="90" width="259" height="126" fill="#ffffff" />
<rect class="algraf-plot-area algraf-facet-panel" x="391" y="90" width="259" height="126" fill="#ffffff" />
<rect class="algraf-plot-area algraf-facet-panel" x="60" y="304" width="259" height="126" fill="#ffffff" />
<rect class="algraf-plot-area algraf-facet-panel" x="391" y="304" width="259" height="126" fill="#ffffff" />
<g class="algraf-facet-strip">
  <rect x="60" y="66" width="259" height="18" fill="#ffffff" />
  <text x="189.5" y="80" text-anchor="middle" font-family="system-ui, sans-serif" font-size="12" fill="#222222">North</text>
</g>
<g class="algraf-facet-strip">
  <rect x="391" y="66" width="259" height="18" fill="#ffffff" />
  <text x="520.5" y="80" text-anchor="middle" font-family="system-ui, sans-serif" font-size="12" fill="#222222">South</text>
</g>
<g class="algraf-facet-strip">
  <rect x="60" y="280" width="259" height="18" fill="#ffffff" />
  <text x="189.5" y="294" text-anchor="middle" font-family="system-ui, sans-serif" font-size="12" fill="#222222">East</text>
</g>
<g class="algraf-facet-strip">
  <rect x="391" y="280" width="259" height="18" fill="#ffffff" />
  <text x="520.5" y="294" text-anchor="middle" font-family="system-ui, sans-serif" font-size="12" fill="#222222">West</text>
</g>
<g class="algraf-grid">
  <line x1="60" y1="90" x2="60" y2="216" stroke="#e6e6e6" stroke-width="1" />
  <line x1="189.5" y1="90" x2="189.5" y2="216" stroke="#e6e6e6" stroke-width="1" />
  <line x1="319" y1="90" x2="319" y2="216" stroke="#e6e6e6" stroke-width="1" />
  <line x1="60" y1="216" x2="319" y2="216" stroke="#e6e6e6" stroke-width="1" />
  <line x1="60" y1="184.5" x2="319" y2="184.5" stroke="#e6e6e6" stroke-width="1" />
  <line x1="60" y1="153" x2="319" y2="153" stroke="#e6e6e6" stroke-width="1" />
  <line x1="60" y1="121.5" x2="319" y2="121.5" stroke="#e6e6e6" stroke-width="1" />
  <line x1="60" y1="90" x2="319" y2="90" stroke="#e6e6e6" stroke-width="1" />
</g>
<g class="algraf-grid">
  <line x1="391" y1="90" x2="391" y2="216" stroke="#e6e6e6" stroke-width="1" />
  <line x1="520.5" y1="90" x2="520.5" y2="216" stroke="#e6e6e6" stroke-width="1" />
  <line x1="650" y1="90" x2="650" y2="216" stroke="#e6e6e6" stroke-width="1" />
  <line x1="391" y1="216" x2="650" y2="216" stroke="#e6e6e6" stroke-width="1" />
  <line x1="391" y1="184.5" x2="650" y2="184.5" stroke="#e6e6e6" stroke-width="1" />
  <line x1="391" y1="153" x2="650" y2="153" stroke="#e6e6e6" stroke-width="1" />
  <line x1="391" y1="121.5" x2="650" y2="121.5" stroke="#e6e6e6" stroke-width="1" />
  <line x1="391" y1="90" x2="650" y2="90" stroke="#e6e6e6" stroke-width="1" />
</g>
<g class="algraf-grid">
  <line x1="60" y1="304" x2="60" y2="430" stroke="#e6e6e6" stroke-width="1" />
  <line x1="189.5" y1="304" x2="189.5" y2="430" stroke="#e6e6e6" stroke-width="1" />
  <line x1="319" y1="304" x2="319" y2="430" stroke="#e6e6e6" stroke-width="1" />
  <line x1="60" y1="430" x2="319" y2="430" stroke="#e6e6e6" stroke-width="1" />
  <line x1="60" y1="398.5" x2="319" y2="398.5" stroke="#e6e6e6" stroke-width="1" />
  <line x1="60" y1="367" x2="319" y2="367" stroke="#e6e6e6" stroke-width="1" />
  <line x1="60" y1="335.5" x2="319" y2="335.5" stroke="#e6e6e6" stroke-width="1" />
  <line x1="60" y1="304" x2="319" y2="304" stroke="#e6e6e6" stroke-width="1" />
</g>
<g class="algraf-grid">
  <line x1="391" y1="304" x2="391" y2="430" stroke="#e6e6e6" stroke-width="1" />
  <line x1="520.5" y1="304" x2="520.5" y2="430" stroke="#e6e6e6" stroke-width="1" />
  <line x1="650" y1="304" x2="650" y2="430" stroke="#e6e6e6" stroke-width="1" />
  <line x1="391" y1="430" x2="650" y2="430" stroke="#e6e6e6" stroke-width="1" />
  <line x1="391" y1="398.5" x2="650" y2="398.5" stroke="#e6e6e6" stroke-width="1" />
  <line x1="391" y1="367" x2="650" y2="367" stroke="#e6e6e6" stroke-width="1" />
  <line x1="391" y1="335.5" x2="650" y2="335.5" stroke="#e6e6e6" stroke-width="1" />
  <line x1="391" y1="304" x2="650" y2="304" stroke="#e6e6e6" stroke-width="1" />
</g>
<g class="algraf-layer algraf-geom-line">
  <path d="M60 153 L189.5 121.5 L319 134.1" fill="none" stroke="#006BA4" stroke-width="2.5" opacity="1" />
  <path d="M60 190.8 L189.5 178.2 L319 181.35" fill="none" stroke="#FF800E" stroke-width="2.5" opacity="1" />
</g>
<g class="algraf-layer algraf-geom-point">
  <circle cx="60" cy="153" r="5" fill="#006BA4" opacity="1" />
  <circle cx="189.5" cy="121.5" r="5" fill="#006BA4" opacity="1" />
  <circle cx="319" cy="134.1" r="5" fill="#006BA4" opacity="1" />
  <circle cx="60" cy="190.8" r="5" fill="#FF800E" opacity="1" />
  <circle cx="189.5" cy="178.2" r="5" fill="#FF800E" opacity="1" />
  <circle cx="319" cy="181.35" r="5" fill="#FF800E" opacity="1" />
</g>
<g class="algraf-layer algraf-geom-hline">
  <line x1="60" y1="153" x2="319" y2="153" stroke="#ff4444" stroke-width="1.5" opacity="1" />
  <text x="315" y="149" text-anchor="end" font-family="system-ui, sans-serif" font-size="12" fill="#222222">Daily Target</text>
</g>
<g class="algraf-layer algraf-geom-line">
  <path d="M391 115.2 L520.5 127.8 L650 108.9" fill="none" stroke="#006BA4" stroke-width="2.5" opacity="1" />
  <path d="M391 165.6 L520.5 159.3 L650 146.7" fill="none" stroke="#FF800E" stroke-width="2.5" opacity="1" />
</g>
<g class="algraf-layer algraf-geom-point">
  <circle cx="391" cy="115.2" r="5" fill="#006BA4" opacity="1" />
  <circle cx="520.5" cy="127.8" r="5" fill="#006BA4" opacity="1" />
  <circle cx="650" cy="108.9" r="5" fill="#006BA4" opacity="1" />
  <circle cx="391" cy="165.6" r="5" fill="#FF800E" opacity="1" />
  <circle cx="520.5" cy="159.3" r="5" fill="#FF800E" opacity="1" />
  <circle cx="650" cy="146.7" r="5" fill="#FF800E" opacity="1" />
</g>
<g class="algraf-layer algraf-geom-hline">
  <line x1="391" y1="153" x2="650" y2="153" stroke="#ff4444" stroke-width="1.5" opacity="1" />
  <text x="646" y="149" text-anchor="end" font-family="system-ui, sans-serif" font-size="12" fill="#222222">Daily Target</text>
</g>
<g class="algraf-layer algraf-geom-line">
  <path d="M60 385.9 L189.5 379.6 L319 373.3" fill="none" stroke="#006BA4" stroke-width="2.5" opacity="1" />
  <path d="M60 411.1 L189.5 404.8 L319 398.5" fill="none" stroke="#FF800E" stroke-width="2.5" opacity="1" />
</g>
<g class="algraf-layer algraf-geom-point">
  <circle cx="60" cy="385.9" r="5" fill="#006BA4" opacity="1" />
  <circle cx="189.5" cy="379.6" r="5" fill="#006BA4" opacity="1" />
  <circle cx="319" cy="373.3" r="5" fill="#006BA4" opacity="1" />
  <circle cx="60" cy="411.1" r="5" fill="#FF800E" opacity="1" />
  <circle cx="189.5" cy="404.8" r="5" fill="#FF800E" opacity="1" />
  <circle cx="319" cy="398.5" r="5" fill="#FF800E" opacity="1" />
</g>
<g class="algraf-layer algraf-geom-hline">
  <line x1="60" y1="367" x2="319" y2="367" stroke="#ff4444" stroke-width="1.5" opacity="1" />
  <text x="315" y="363" text-anchor="end" font-family="system-ui, sans-serif" font-size="12" fill="#222222">Daily Target</text>
</g>
<g class="algraf-layer algraf-geom-line">
  <path d="M391 354.4 L520.5 348.1 L650 341.8" fill="none" stroke="#006BA4" stroke-width="2.5" opacity="1" />
  <path d="M391 398.5 L520.5 392.2 L650 385.9" fill="none" stroke="#FF800E" stroke-width="2.5" opacity="1" />
</g>
<g class="algraf-layer algraf-geom-point">
  <circle cx="391" cy="354.4" r="5" fill="#006BA4" opacity="1" />
  <circle cx="520.5" cy="348.1" r="5" fill="#006BA4" opacity="1" />
  <circle cx="650" cy="341.8" r="5" fill="#006BA4" opacity="1" />
  <circle cx="391" cy="398.5" r="5" fill="#FF800E" opacity="1" />
  <circle cx="520.5" cy="392.2" r="5" fill="#FF800E" opacity="1" />
  <circle cx="650" cy="385.9" r="5" fill="#FF800E" opacity="1" />
</g>
<g class="algraf-layer algraf-geom-hline">
  <line x1="391" y1="367" x2="650" y2="367" stroke="#ff4444" stroke-width="1.5" opacity="1" />
  <text x="646" y="363" text-anchor="end" font-family="system-ui, sans-serif" font-size="12" fill="#222222">Daily Target</text>
</g>
<g class="algraf-axes">
  <line x1="60" y1="216" x2="319" y2="216" stroke="#333333" stroke-width="1" />
  <line x1="60" y1="216" x2="60" y2="221" stroke="#333333" stroke-width="1" />
  <text x="60" y="234" text-anchor="middle" font-family="system-ui, sans-serif" font-size="12" fill="#222222">2026-01-01</text>
  <line x1="189.5" y1="216" x2="189.5" y2="221" stroke="#333333" stroke-width="1" />
  <text x="189.5" y="234" text-anchor="middle" font-family="system-ui, sans-serif" font-size="12" fill="#222222">2026-01-02</text>
  <line x1="319" y1="216" x2="319" y2="221" stroke="#333333" stroke-width="1" />
  <text x="319" y="234" text-anchor="middle" font-family="system-ui, sans-serif" font-size="12" fill="#222222">2026-01-03</text>
  <text x="189.5" y="254" text-anchor="middle" font-family="system-ui, sans-serif" font-size="12" fill="#222222">Date</text>
  <line x1="60" y1="90" x2="60" y2="216" stroke="#333333" stroke-width="1" />
  <line x1="55" y1="216" x2="60" y2="216" stroke="#333333" stroke-width="1" />
  <text x="52" y="220" text-anchor="end" font-family="system-ui, sans-serif" font-size="12" fill="#222222">50</text>
  <line x1="55" y1="184.5" x2="60" y2="184.5" stroke="#333333" stroke-width="1" />
  <text x="52" y="188.5" text-anchor="end" font-family="system-ui, sans-serif" font-size="12" fill="#222222">100</text>
  <line x1="55" y1="153" x2="60" y2="153" stroke="#333333" stroke-width="1" />
  <text x="52" y="157" text-anchor="end" font-family="system-ui, sans-serif" font-size="12" fill="#222222">150</text>
  <line x1="55" y1="121.5" x2="60" y2="121.5" stroke="#333333" stroke-width="1" />
  <text x="52" y="125.5" text-anchor="end" font-family="system-ui, sans-serif" font-size="12" fill="#222222">200</text>
  <line x1="55" y1="90" x2="60" y2="90" stroke="#333333" stroke-width="1" />
  <text x="52" y="94" text-anchor="end" font-family="system-ui, sans-serif" font-size="12" fill="#222222">250</text>
  <text x="24.4" y="153" text-anchor="middle" transform="rotate(-90 24.4 153)" font-family="system-ui, sans-serif" font-size="12" fill="#222222">Sales (k$)</text>
</g>
<g class="algraf-axes">
  <line x1="391" y1="216" x2="650" y2="216" stroke="#333333" stroke-width="1" />
  <line x1="391" y1="216" x2="391" y2="221" stroke="#333333" stroke-width="1" />
  <text x="391" y="234" text-anchor="middle" font-family="system-ui, sans-serif" font-size="12" fill="#222222">2026-01-01</text>
  <line x1="520.5" y1="216" x2="520.5" y2="221" stroke="#333333" stroke-width="1" />
  <text x="520.5" y="234" text-anchor="middle" font-family="system-ui, sans-serif" font-size="12" fill="#222222">2026-01-02</text>
  <line x1="650" y1="216" x2="650" y2="221" stroke="#333333" stroke-width="1" />
  <text x="650" y="234" text-anchor="middle" font-family="system-ui, sans-serif" font-size="12" fill="#222222">2026-01-03</text>
  <text x="520.5" y="254" text-anchor="middle" font-family="system-ui, sans-serif" font-size="12" fill="#222222">Date</text>
  <line x1="391" y1="90" x2="391" y2="216" stroke="#333333" stroke-width="1" />
  <line x1="386" y1="216" x2="391" y2="216" stroke="#333333" stroke-width="1" />
  <text x="383" y="220" text-anchor="end" font-family="system-ui, sans-serif" font-size="12" fill="#222222">50</text>
  <line x1="386" y1="184.5" x2="391" y2="184.5" stroke="#333333" stroke-width="1" />
  <text x="383" y="188.5" text-anchor="end" font-family="system-ui, sans-serif" font-size="12" fill="#222222">100</text>
  <line x1="386" y1="153" x2="391" y2="153" stroke="#333333" stroke-width="1" />
  <text x="383" y="157" text-anchor="end" font-family="system-ui, sans-serif" font-size="12" fill="#222222">150</text>
  <line x1="386" y1="121.5" x2="391" y2="121.5" stroke="#333333" stroke-width="1" />
  <text x="383" y="125.5" text-anchor="end" font-family="system-ui, sans-serif" font-size="12" fill="#222222">200</text>
  <line x1="386" y1="90" x2="391" y2="90" stroke="#333333" stroke-width="1" />
  <text x="383" y="94" text-anchor="end" font-family="system-ui, sans-serif" font-size="12" fill="#222222">250</text>
  <text x="355.4" y="153" text-anchor="middle" transform="rotate(-90 355.4 153)" font-family="system-ui, sans-serif" font-size="12" fill="#222222">Sales (k$)</text>
</g>
<g class="algraf-axes">
  <line x1="60" y1="430" x2="319" y2="430" stroke="#333333" stroke-width="1" />
  <line x1="60" y1="430" x2="60" y2="435" stroke="#333333" stroke-width="1" />
  <text x="60" y="448" text-anchor="middle" font-family="system-ui, sans-serif" font-size="12" fill="#222222">2026-01-01</text>
  <line x1="189.5" y1="430" x2="189.5" y2="435" stroke="#333333" stroke-width="1" />
  <text x="189.5" y="448" text-anchor="middle" font-family="system-ui, sans-serif" font-size="12" fill="#222222">2026-01-02</text>
  <line x1="319" y1="430" x2="319" y2="435" stroke="#333333" stroke-width="1" />
  <text x="319" y="448" text-anchor="middle" font-family="system-ui, sans-serif" font-size="12" fill="#222222">2026-01-03</text>
  <text x="189.5" y="468" text-anchor="middle" font-family="system-ui, sans-serif" font-size="12" fill="#222222">Date</text>
  <line x1="60" y1="304" x2="60" y2="430" stroke="#333333" stroke-width="1" />
  <line x1="55" y1="430" x2="60" y2="430" stroke="#333333" stroke-width="1" />
  <text x="52" y="434" text-anchor="end" font-family="system-ui, sans-serif" font-size="12" fill="#222222">50</text>
  <line x1="55" y1="398.5" x2="60" y2="398.5" stroke="#333333" stroke-width="1" />
  <text x="52" y="402.5" text-anchor="end" font-family="system-ui, sans-serif" font-size="12" fill="#222222">100</text>
  <line x1="55" y1="367" x2="60" y2="367" stroke="#333333" stroke-width="1" />
  <text x="52" y="371" text-anchor="end" font-family="system-ui, sans-serif" font-size="12" fill="#222222">150</text>
  <line x1="55" y1="335.5" x2="60" y2="335.5" stroke="#333333" stroke-width="1" />
  <text x="52" y="339.5" text-anchor="end" font-family="system-ui, sans-serif" font-size="12" fill="#222222">200</text>
  <line x1="55" y1="304" x2="60" y2="304" stroke="#333333" stroke-width="1" />
  <text x="52" y="308" text-anchor="end" font-family="system-ui, sans-serif" font-size="12" fill="#222222">250</text>
  <text x="24.4" y="367" text-anchor="middle" transform="rotate(-90 24.4 367)" font-family="system-ui, sans-serif" font-size="12" fill="#222222">Sales (k$)</text>
</g>
<g class="algraf-axes">
  <line x1="391" y1="430" x2="650" y2="430" stroke="#333333" stroke-width="1" />
  <line x1="391" y1="430" x2="391" y2="435" stroke="#333333" stroke-width="1" />
  <text x="391" y="448" text-anchor="middle" font-family="system-ui, sans-serif" font-size="12" fill="#222222">2026-01-01</text>
  <line x1="520.5" y1="430" x2="520.5" y2="435" stroke="#333333" stroke-width="1" />
  <text x="520.5" y="448" text-anchor="middle" font-family="system-ui, sans-serif" font-size="12" fill="#222222">2026-01-02</text>
  <line x1="650" y1="430" x2="650" y2="435" stroke="#333333" stroke-width="1" />
  <text x="650" y="448" text-anchor="middle" font-family="system-ui, sans-serif" font-size="12" fill="#222222">2026-01-03</text>
  <text x="520.5" y="468" text-anchor="middle" font-family="system-ui, sans-serif" font-size="12" fill="#222222">Date</text>
  <line x1="391" y1="304" x2="391" y2="430" stroke="#333333" stroke-width="1" />
  <line x1="386" y1="430" x2="391" y2="430" stroke="#333333" stroke-width="1" />
  <text x="383" y="434" text-anchor="end" font-family="system-ui, sans-serif" font-size="12" fill="#222222">50</text>
  <line x1="386" y1="398.5" x2="391" y2="398.5" stroke="#333333" stroke-width="1" />
  <text x="383" y="402.5" text-anchor="end" font-family="system-ui, sans-serif" font-size="12" fill="#222222">100</text>
  <line x1="386" y1="367" x2="391" y2="367" stroke="#333333" stroke-width="1" />
  <text x="383" y="371" text-anchor="end" font-family="system-ui, sans-serif" font-size="12" fill="#222222">150</text>
  <line x1="386" y1="335.5" x2="391" y2="335.5" stroke="#333333" stroke-width="1" />
  <text x="383" y="339.5" text-anchor="end" font-family="system-ui, sans-serif" font-size="12" fill="#222222">200</text>
  <line x1="386" y1="304" x2="391" y2="304" stroke="#333333" stroke-width="1" />
  <text x="383" y="308" text-anchor="end" font-family="system-ui, sans-serif" font-size="12" fill="#222222">250</text>
  <text x="355.4" y="367" text-anchor="middle" transform="rotate(-90 355.4 367)" font-family="system-ui, sans-serif" font-size="12" fill="#222222">Sales (k$)</text>
</g>
<g class="algraf-legends">
  <text x="666" y="70" text-anchor="start" font-family="system-ui, sans-serif" font-size="12" fill="#222222">product</text>
  <rect x="666" y="78" width="12" height="12" fill="#006BA4" stroke="#006BA4" stroke-width="2" />
  <text x="684" y="88" text-anchor="start" font-family="system-ui, sans-serif" font-size="12" fill="#222222">Widgets</text>
  <rect x="666" y="96" width="12" height="12" fill="#FF800E" stroke="#FF800E" stroke-width="2" />
  <text x="684" y="106" text-anchor="start" font-family="system-ui, sans-serif" font-size="12" fill="#222222">Gadgets</text>
</g>
</svg>
