<svg xmlns="http://www.w3.org/2000/svg" width="840" height="500" viewBox="0 0 840 500" role="img" aria-label="Sales Distribution by Product and Region">
<title>Sales Distribution by Product and Region</title>
<rect class="algraf-background" x="0" y="0" width="840" height="500" fill="#ffffff" />
<text class="algraf-title" x="60" y="24" font-family="system-ui, sans-serif" font-size="18" font-weight="600" fill="#222222">Sales Distribution by Product and Region</text>
<rect class="algraf-plot-area algraf-facet-panel" x="60" y="90" width="279" height="136" fill="#ffffff" />
<rect class="algraf-plot-area algraf-facet-panel" x="411" y="90" width="279" height="136" fill="#ffffff" />
<rect class="algraf-plot-area algraf-facet-panel" x="60" y="314" width="279" height="136" fill="#ffffff" />
<rect class="algraf-plot-area algraf-facet-panel" x="411" y="314" width="279" height="136" fill="#ffffff" />
<g class="algraf-facet-strip">
  <rect x="60" y="66" width="279" height="18" fill="#ffffff" />
  <text x="199.5" y="80" text-anchor="middle" font-family="system-ui, sans-serif" font-size="12" fill="#222222">North</text>
</g>
<g class="algraf-facet-strip">
  <rect x="411" y="66" width="279" height="18" fill="#ffffff" />
  <text x="550.5" y="80" text-anchor="middle" font-family="system-ui, sans-serif" font-size="12" fill="#222222">South</text>
</g>
<g class="algraf-facet-strip">
  <rect x="60" y="290" width="279" height="18" fill="#ffffff" />
  <text x="199.5" y="304" text-anchor="middle" font-family="system-ui, sans-serif" font-size="12" fill="#222222">East</text>
</g>
<g class="algraf-facet-strip">
  <rect x="411" y="290" width="279" height="18" fill="#ffffff" />
  <text x="550.5" y="304" text-anchor="middle" font-family="system-ui, sans-serif" font-size="12" fill="#222222">West</text>
</g>
<g class="algraf-grid">
  <line x1="60" y1="203.11" x2="339" y2="203.11" stroke="#f2f2f2" stroke-width="0.6" />
  <line x1="60" y1="176.558" x2="339" y2="176.558" stroke="#f2f2f2" stroke-width="0.6" />
  <line x1="60" y1="150.005" x2="339" y2="150.005" stroke="#f2f2f2" stroke-width="0.6" />
  <line x1="60" y1="123.452" x2="339" y2="123.452" stroke="#f2f2f2" stroke-width="0.6" />
  <line x1="60" y1="216.387" x2="339" y2="216.387" stroke="#e6e6e6" stroke-width="1" />
  <line x1="60" y1="189.834" x2="339" y2="189.834" stroke="#e6e6e6" stroke-width="1" />
  <line x1="60" y1="163.281" x2="339" y2="163.281" stroke="#e6e6e6" stroke-width="1" />
  <line x1="60" y1="136.729" x2="339" y2="136.729" stroke="#e6e6e6" stroke-width="1" />
  <line x1="60" y1="110.176" x2="339" y2="110.176" stroke="#e6e6e6" stroke-width="1" />
</g>
<g class="algraf-grid">
  <line x1="411" y1="203.11" x2="690" y2="203.11" stroke="#f2f2f2" stroke-width="0.6" />
  <line x1="411" y1="176.558" x2="690" y2="176.558" stroke="#f2f2f2" stroke-width="0.6" />
  <line x1="411" y1="150.005" x2="690" y2="150.005" stroke="#f2f2f2" stroke-width="0.6" />
  <line x1="411" y1="123.452" x2="690" y2="123.452" stroke="#f2f2f2" stroke-width="0.6" />
  <line x1="411" y1="216.387" x2="690" y2="216.387" stroke="#e6e6e6" stroke-width="1" />
  <line x1="411" y1="189.834" x2="690" y2="189.834" stroke="#e6e6e6" stroke-width="1" />
  <line x1="411" y1="163.281" x2="690" y2="163.281" stroke="#e6e6e6" stroke-width="1" />
  <line x1="411" y1="136.729" x2="690" y2="136.729" stroke="#e6e6e6" stroke-width="1" />
  <line x1="411" y1="110.176" x2="690" y2="110.176" stroke="#e6e6e6" stroke-width="1" />
</g>
<g class="algraf-grid">
  <line x1="60" y1="427.11" x2="339" y2="427.11" stroke="#f2f2f2" stroke-width="0.6" />
  <line x1="60" y1="400.558" x2="339" y2="400.558" stroke="#f2f2f2" stroke-width="0.6" />
  <line x1="60" y1="374.005" x2="339" y2="374.005" stroke="#f2f2f2" stroke-width="0.6" />
  <line x1="60" y1="347.452" x2="339" y2="347.452" stroke="#f2f2f2" stroke-width="0.6" />
  <line x1="60" y1="440.387" x2="339" y2="440.387" stroke="#e6e6e6" stroke-width="1" />
  <line x1="60" y1="413.834" x2="339" y2="413.834" stroke="#e6e6e6" stroke-width="1" />
  <line x1="60" y1="387.281" x2="339" y2="387.281" stroke="#e6e6e6" stroke-width="1" />
  <line x1="60" y1="360.729" x2="339" y2="360.729" stroke="#e6e6e6" stroke-width="1" />
  <line x1="60" y1="334.176" x2="339" y2="334.176" stroke="#e6e6e6" stroke-width="1" />
</g>
<g class="algraf-grid">
  <line x1="411" y1="427.11" x2="690" y2="427.11" stroke="#f2f2f2" stroke-width="0.6" />
  <line x1="411" y1="400.558" x2="690" y2="400.558" stroke="#f2f2f2" stroke-width="0.6" />
  <line x1="411" y1="374.005" x2="690" y2="374.005" stroke="#f2f2f2" stroke-width="0.6" />
  <line x1="411" y1="347.452" x2="690" y2="347.452" stroke="#f2f2f2" stroke-width="0.6" />
  <line x1="411" y1="440.387" x2="690" y2="440.387" stroke="#e6e6e6" stroke-width="1" />
  <line x1="411" y1="413.834" x2="690" y2="413.834" stroke="#e6e6e6" stroke-width="1" />
  <line x1="411" y1="387.281" x2="690" y2="387.281" stroke="#e6e6e6" stroke-width="1" />
  <line x1="411" y1="360.729" x2="690" y2="360.729" stroke="#e6e6e6" stroke-width="1" />
  <line x1="411" y1="334.176" x2="690" y2="334.176" stroke="#e6e6e6" stroke-width="1" />
</g>
<g class="algraf-layer algraf-geom-violin">
  <path d="M130.116 184.612 L130.16 184.341 L130.208 184.069 L130.262 183.798 L130.321 183.526 L130.387 183.255 L130.458 182.983 L130.537 182.712 L130.623 182.441 L130.716 182.169 L130.819 181.898 L130.93 181.626 L131.052 181.355 L131.183 181.083 L131.326 180.812 L131.48 180.541 L131.647 180.269 L131.826 179.998 L132.02 179.726 L132.228 179.455 L132.451 179.184 L132.689 178.912 L132.944 178.641 L133.217 178.369 L133.507 178.098 L133.815 177.826 L134.142 177.555 L134.489 177.284 L134.856 177.012 L135.243 176.741 L135.651 176.469 L136.08 176.198 L136.53 175.926 L137.002 175.655 L137.496 175.384 L138.011 175.112 L138.548 174.841 L139.107 174.569 L139.686 174.298 L140.286 174.026 L140.906 173.755 L141.546 173.484 L142.205 173.212 L142.882 172.941 L143.575 172.669 L144.285 172.398 L145.009 172.126 L145.747 171.855 L146.496 171.584 L147.256 171.312 L148.025 171.041 L148.8 170.769 L149.581 170.498 L150.364 170.226 L151.149 169.955 L151.933 169.684 L152.714 169.412 L153.49 169.141 L154.259 168.869 L155.018 168.598 L155.766 168.326 L156.5 168.055 L157.218 167.784 L157.918 167.512 L158.599 167.241 L159.258 166.969 L159.893 166.698 L160.503 166.426 L161.087 166.155 L161.642 165.884 L162.168 165.612 L162.663 165.341 L163.127 165.069 L163.56 164.798 L163.959 164.526 L164.326 164.255 L164.659 163.984 L164.96 163.712 L165.228 163.441 L165.464 163.169 L165.668 162.898 L165.843 162.626 L165.987 162.355 L166.104 162.084 L166.194 161.812 L166.26 161.541 L166.302 161.269 L166.324 160.998 L166.326 160.726 L166.312 160.455 L166.283 160.184 L166.243 159.912 L166.192 159.641 L166.135 159.369 L166.073 159.098 L166.009 158.826 L165.945 158.555 L165.883 158.284 L165.827 158.012 L165.779 157.741 L165.739 157.469 L165.712 157.198 L165.697 156.926 L165.698 156.655 L165.716 156.384 L165.753 156.112 L165.809 155.841 L165.885 155.569 L165.983 155.298 L166.104 155.026 L166.247 154.755 L166.413 154.484 L166.603 154.212 L166.815 153.941 L167.051 153.669 L167.308 153.398 L167.587 153.126 L167.887 152.855 L168.206 152.584 L168.544 152.312 L168.9 152.041 L169.271 151.769 L169.657 151.498 L170.056 151.226 L170.467 150.955 L170.886 150.684 L171.314 150.412 L171.747 150.141 L172.185 149.869 L172.624 149.598 L173.065 149.326 L173.504 149.055 L173.94 148.784 L174.371 148.512 L174.796 148.241 L175.213 147.969 L175.62 147.698 L176.016 147.426 L176.399 147.155 L176.769 146.884 L177.123 146.612 L177.461 146.341 L177.782 146.069 L178.084 145.798 L178.366 145.526 L178.628 145.255 L178.869 144.984 L179.088 144.712 L179.284 144.441 L179.457 144.169 L179.606 143.898 L179.73 143.626 L179.829 143.355 L179.902 143.084 L179.949 142.812 L179.97 142.541 L179.964 142.269 L179.93 141.998 L179.869 141.726 L179.779 141.455 L179.661 141.184 L179.514 140.912 L179.338 140.641 L179.133 140.369 L178.898 140.098 L178.633 139.826 L178.339 139.555 L178.014 139.284 L177.659 139.012 L177.273 138.741 L176.857 138.469 L176.411 138.198 L175.935 137.927 L175.429 137.655 L174.894 137.384 L174.329 137.112 L173.736 136.841 L173.114 136.569 L172.464 136.298 L171.788 136.027 L171.085 135.755 L170.357 135.484 L169.606 135.212 L168.831 134.941 L168.034 134.669 L167.216 134.398 L166.38 134.127 L165.525 133.855 L164.655 133.584 L163.769 133.312 L162.871 133.041 L161.962 132.769 L161.043 132.498 L160.116 132.227 L159.184 131.955 L158.247 131.684 L157.309 131.412 L156.37 131.141 L155.433 130.869 L154.499 130.598 L153.57 130.327 L152.648 130.055 L151.734 129.784 L150.831 129.512 L149.94 129.241 L149.062 128.969 L148.198 128.698 L147.351 128.427 L146.521 128.155 L145.709 127.884 L144.917 127.612 L144.145 127.341 L143.394 127.069 L142.666 126.798 L141.96 126.527 L141.277 126.255 L140.617 125.984 L139.982 125.712 L139.371 125.441 L138.783 125.169 L138.22 124.898 L137.682 124.627 L137.167 124.355 L136.676 124.084 L136.209 123.812 L135.764 123.541 L135.343 123.269 L134.944 122.998 L134.566 122.727 L134.21 122.455 L133.874 122.184 L133.559 121.912 L133.262 121.641 L132.984 121.369 L132.724 121.098 L132.48 120.827 L132.254 120.555 L132.042 120.284 L131.846 120.012 L131.664 119.741 L131.495 119.469 L131.338 119.198 L131.194 118.927 L131.061 118.655 L130.938 118.384 L130.826 118.112 L130.722 117.841 L130.627 117.569 L130.541 117.298 L130.462 117.027 L130.39 116.755 L130.324 116.484 L130.264 116.212 L130.21 115.941 L130.161 115.669 L130.117 115.398 L129.383 115.398 L129.339 115.669 L129.29 115.941 L129.236 116.212 L129.176 116.484 L129.11 116.755 L129.038 117.027 L128.959 117.298 L128.873 117.569 L128.778 117.841 L128.674 118.112 L128.562 118.384 L128.439 118.655 L128.306 118.927 L128.162 119.198 L128.005 119.469 L127.836 119.741 L127.654 120.012 L127.458 120.284 L127.246 120.555 L127.02 120.827 L126.776 121.098 L126.516 121.369 L126.238 121.641 L125.941 121.912 L125.626 122.184 L125.29 122.455 L124.934 122.727 L124.556 122.998 L124.157 123.269 L123.736 123.541 L123.291 123.812 L122.824 124.084 L122.333 124.355 L121.818 124.627 L121.28 124.898 L120.717 125.169 L120.129 125.441 L119.518 125.712 L118.883 125.984 L118.223 126.255 L117.54 126.527 L116.834 126.798 L116.106 127.069 L115.355 127.341 L114.583 127.612 L113.791 127.884 L112.979 128.155 L112.149 128.427 L111.302 128.698 L110.438 128.969 L109.56 129.241 L108.669 129.512 L107.766 129.784 L106.852 130.055 L105.93 130.327 L105.001 130.598 L104.067 130.869 L103.13 131.141 L102.191 131.412 L101.253 131.684 L100.316 131.955 L99.384 132.227 L98.457 132.498 L97.538 132.769 L96.629 133.041 L95.731 133.312 L94.845 133.584 L93.975 133.855 L93.12 134.127 L92.284 134.398 L91.466 134.669 L90.669 134.941 L89.894 135.212 L89.143 135.484 L88.415 135.755 L87.712 136.027 L87.036 136.298 L86.386 136.569 L85.764 136.841 L85.171 137.112 L84.606 137.384 L84.071 137.655 L83.565 137.927 L83.089 138.198 L82.643 138.469 L82.227 138.741 L81.841 139.012 L81.486 139.284 L81.161 139.555 L80.867 139.826 L80.602 140.098 L80.367 140.369 L80.162 140.641 L79.986 140.912 L79.839 141.184 L79.721 141.455 L79.631 141.726 L79.57 141.998 L79.536 142.269 L79.53 142.541 L79.551 142.812 L79.598 143.084 L79.671 143.355 L79.77 143.626 L79.894 143.898 L80.043 144.169 L80.216 144.441 L80.412 144.712 L80.631 144.984 L80.872 145.255 L81.134 145.526 L81.416 145.798 L81.718 146.069 L82.039 146.341 L82.377 146.612 L82.731 146.884 L83.101 147.155 L83.484 147.426 L83.88 147.698 L84.287 147.969 L84.704 148.241 L85.129 148.512 L85.56 148.784 L85.996 149.055 L86.435 149.326 L86.876 149.598 L87.315 149.869 L87.753 150.141 L88.186 150.412 L88.614 150.684 L89.033 150.955 L89.444 151.226 L89.843 151.498 L90.229 151.769 L90.6 152.041 L90.956 152.312 L91.294 152.584 L91.613 152.855 L91.913 153.126 L92.192 153.398 L92.449 153.669 L92.685 153.941 L92.897 154.212 L93.087 154.484 L93.253 154.755 L93.396 155.026 L93.517 155.298 L93.615 155.569 L93.691 155.841 L93.747 156.112 L93.784 156.384 L93.802 156.655 L93.803 156.926 L93.788 157.198 L93.761 157.469 L93.721 157.741 L93.673 158.012 L93.617 158.284 L93.555 158.555 L93.491 158.826 L93.427 159.098 L93.365 159.369 L93.308 159.641 L93.257 159.912 L93.217 160.184 L93.188 160.455 L93.174 160.726 L93.176 160.998 L93.198 161.269 L93.24 161.541 L93.306 161.812 L93.396 162.084 L93.513 162.355 L93.657 162.626 L93.832 162.898 L94.036 163.169 L94.272 163.441 L94.54 163.712 L94.841 163.984 L95.174 164.255 L95.541 164.526 L95.94 164.798 L96.373 165.069 L96.837 165.341 L97.332 165.612 L97.858 165.884 L98.413 166.155 L98.997 166.426 L99.607 166.698 L100.242 166.969 L100.901 167.241 L101.582 167.512 L102.282 167.784 L103 168.055 L103.734 168.326 L104.482 168.598 L105.241 168.869 L106.01 169.141 L106.786 169.412 L107.567 169.684 L108.351 169.955 L109.136 170.226 L109.919 170.498 L110.7 170.769 L111.475 171.041 L112.244 171.312 L113.004 171.584 L113.753 171.855 L114.491 172.126 L115.215 172.398 L115.925 172.669 L116.618 172.941 L117.295 173.212 L117.954 173.484 L118.594 173.755 L119.214 174.026 L119.814 174.298 L120.393 174.569 L120.952 174.841 L121.489 175.112 L122.004 175.384 L122.498 175.655 L122.97 175.926 L123.42 176.198 L123.849 176.469 L124.257 176.741 L124.644 177.012 L125.011 177.284 L125.358 177.555 L125.685 177.826 L125.993 178.098 L126.283 178.369 L126.556 178.641 L126.811 178.912 L127.049 179.184 L127.272 179.455 L127.48 179.726 L127.674 179.998 L127.853 180.269 L128.02 180.541 L128.174 180.812 L128.317 181.083 L128.448 181.355 L128.57 181.626 L128.681 181.898 L128.784 182.169 L128.877 182.441 L128.963 182.712 L129.042 182.983 L129.113 183.255 L129.179 183.526 L129.238 183.798 L129.292 184.069 L129.34 184.341 L129.384 184.612 Z" fill="#006BA4" opacity="0.5" />
  <line x1="93.523" y1="155.316" x2="165.977" y2="155.316" stroke="#333333" stroke-width="1" opacity="1" />
  <line x1="83.376" y1="147.35" x2="176.124" y2="147.35" stroke="#333333" stroke-width="1" opacity="1" />
  <line x1="79.565" y1="142.039" x2="179.935" y2="142.039" stroke="#333333" stroke-width="1" opacity="1" />
  <path d="M269.56 203.677 L269.598 203.568 L269.639 203.46 L269.685 203.351 L269.735 203.243 L269.79 203.134 L269.851 203.025 L269.917 202.917 L269.99 202.808 L270.07 202.7 L270.157 202.591 L270.251 202.483 L270.354 202.374 L270.466 202.265 L270.586 202.157 L270.717 202.048 L270.859 201.94 L271.011 201.831 L271.175 201.723 L271.351 201.614 L271.54 201.505 L271.742 201.397 L271.958 201.288 L272.189 201.18 L272.435 201.071 L272.696 200.963 L272.973 200.854 L273.267 200.745 L273.577 200.637 L273.905 200.528 L274.25 200.42 L274.613 200.311 L274.994 200.203 L275.394 200.094 L275.811 199.985 L276.246 199.877 L276.7 199.768 L277.171 199.66 L277.66 199.551 L278.167 199.443 L278.69 199.334 L279.229 199.225 L279.783 199.117 L280.353 199.008 L280.936 198.9 L281.531 198.791 L282.139 198.683 L282.757 198.574 L283.384 198.465 L284.019 198.357 L284.66 198.248 L285.305 198.14 L285.954 198.031 L286.603 197.923 L287.252 197.814 L287.898 197.705 L288.54 197.597 L289.175 197.488 L289.801 197.38 L290.417 197.271 L291.02 197.163 L291.609 197.054 L292.181 196.945 L292.734 196.837 L293.266 196.728 L293.776 196.62 L294.262 196.511 L294.722 196.403 L295.154 196.294 L295.557 196.185 L295.93 196.077 L296.271 195.968 L296.58 195.86 L296.855 195.751 L297.096 195.643 L297.303 195.534 L297.474 195.425 L297.61 195.317 L297.71 195.208 L297.776 195.1 L297.808 194.991 L297.805 194.883 L297.77 194.774 L297.703 194.665 L297.605 194.557 L297.478 194.448 L297.324 194.34 L297.144 194.231 L296.94 194.123 L296.715 194.014 L296.47 193.905 L296.209 193.797 L295.933 193.688 L295.646 193.58 L295.35 193.471 L295.048 193.363 L294.742 193.254 L294.436 193.145 L294.133 193.037 L293.836 192.928 L293.546 192.82 L293.269 192.711 L293.005 192.603 L292.758 192.494 L292.532 192.385 L292.327 192.277 L292.147 192.168 L291.995 192.06 L291.872 191.951 L291.78 191.843 L291.722 191.734 L291.699 191.625 L291.713 191.517 L291.765 191.408 L291.857 191.3 L291.988 191.191 L292.161 191.083 L292.375 190.974 L292.632 190.865 L292.93 190.757 L293.27 190.648 L293.651 190.54 L294.073 190.431 L294.536 190.323 L295.037 190.214 L295.577 190.105 L296.152 189.997 L296.763 189.888 L297.407 189.78 L298.081 189.671 L298.784 189.563 L299.514 189.454 L300.268 189.345 L301.044 189.237 L301.838 189.128 L302.647 189.02 L303.47 188.911 L304.303 188.803 L305.142 188.694 L305.985 188.585 L306.828 188.477 L307.668 188.368 L308.502 188.26 L309.327 188.151 L310.139 188.043 L310.936 187.934 L311.713 187.825 L312.468 187.717 L313.199 187.608 L313.901 187.5 L314.573 187.391 L315.211 187.283 L315.812 187.174 L316.376 187.065 L316.898 186.957 L317.377 186.848 L317.811 186.74 L318.197 186.631 L318.535 186.523 L318.823 186.414 L319.059 186.305 L319.243 186.197 L319.373 186.088 L319.449 185.98 L319.47 185.871 L319.436 185.763 L319.346 185.654 L319.202 185.545 L319.002 185.437 L318.748 185.328 L318.441 185.22 L318.08 185.111 L317.667 185.003 L317.204 184.894 L316.691 184.785 L316.131 184.677 L315.524 184.568 L314.873 184.46 L314.179 184.351 L313.446 184.243 L312.674 184.134 L311.866 184.025 L311.024 183.917 L310.152 183.808 L309.251 183.7 L308.324 183.591 L307.373 183.483 L306.402 183.374 L305.413 183.265 L304.408 183.157 L303.391 183.048 L302.363 182.94 L301.327 182.831 L300.287 182.723 L299.244 182.614 L298.201 182.505 L297.16 182.397 L296.124 182.288 L295.094 182.18 L294.073 182.071 L293.063 181.963 L292.066 181.854 L291.084 181.745 L290.118 181.637 L289.169 181.528 L288.24 181.42 L287.331 181.311 L286.444 181.203 L285.58 181.094 L284.739 180.985 L283.923 180.877 L283.132 180.768 L282.367 180.66 L281.628 180.551 L280.915 180.443 L280.229 180.334 L279.57 180.225 L278.938 180.117 L278.333 180.008 L277.754 179.9 L277.202 179.791 L276.676 179.683 L276.175 179.574 L275.7 179.465 L275.249 179.357 L274.822 179.248 L274.419 179.14 L274.038 179.031 L273.68 178.923 L273.343 178.814 L273.026 178.705 L272.729 178.597 L272.451 178.488 L272.191 178.38 L271.949 178.271 L271.723 178.163 L271.513 178.054 L271.318 177.945 L271.138 177.837 L270.97 177.728 L270.816 177.62 L270.673 177.511 L270.541 177.403 L270.42 177.294 L270.309 177.185 L270.207 177.077 L270.114 176.968 L270.029 176.86 L269.951 176.751 L269.88 176.643 L269.815 176.534 L269.757 176.425 L269.704 176.317 L269.655 176.208 L269.612 176.1 L269.572 175.991 L268.928 175.991 L268.888 176.1 L268.845 176.208 L268.796 176.317 L268.743 176.425 L268.685 176.534 L268.62 176.643 L268.549 176.751 L268.471 176.86 L268.386 176.968 L268.293 177.077 L268.191 177.185 L268.08 177.294 L267.959 177.403 L267.827 177.511 L267.684 177.62 L267.53 177.728 L267.362 177.837 L267.182 177.945 L266.987 178.054 L266.777 178.163 L266.551 178.271 L266.309 178.38 L266.049 178.488 L265.771 178.597 L265.474 178.705 L265.157 178.814 L264.82 178.923 L264.462 179.031 L264.081 179.14 L263.678 179.248 L263.251 179.357 L262.8 179.465 L262.325 179.574 L261.824 179.683 L261.298 179.791 L260.746 179.9 L260.167 180.008 L259.562 180.117 L258.93 180.225 L258.271 180.334 L257.585 180.443 L256.872 180.551 L256.133 180.66 L255.368 180.768 L254.577 180.877 L253.761 180.985 L252.92 181.094 L252.056 181.203 L251.169 181.311 L250.26 181.42 L249.331 181.528 L248.382 181.637 L247.416 181.745 L246.434 181.854 L245.437 181.963 L244.427 182.071 L243.406 182.18 L242.376 182.288 L241.34 182.397 L240.299 182.505 L239.256 182.614 L238.213 182.723 L237.173 182.831 L236.137 182.94 L235.109 183.048 L234.092 183.157 L233.087 183.265 L232.098 183.374 L231.127 183.483 L230.176 183.591 L229.249 183.7 L228.348 183.808 L227.476 183.917 L226.634 184.025 L225.826 184.134 L225.054 184.243 L224.321 184.351 L223.627 184.46 L222.976 184.568 L222.369 184.677 L221.809 184.785 L221.296 184.894 L220.833 185.003 L220.42 185.111 L220.059 185.22 L219.752 185.328 L219.498 185.437 L219.298 185.545 L219.154 185.654 L219.064 185.763 L219.03 185.871 L219.051 185.98 L219.127 186.088 L219.257 186.197 L219.441 186.305 L219.677 186.414 L219.965 186.523 L220.303 186.631 L220.689 186.74 L221.123 186.848 L221.602 186.957 L222.124 187.065 L222.688 187.174 L223.289 187.283 L223.927 187.391 L224.599 187.5 L225.301 187.608 L226.032 187.717 L226.787 187.825 L227.564 187.934 L228.361 188.043 L229.173 188.151 L229.998 188.26 L230.832 188.368 L231.672 188.477 L232.515 188.585 L233.358 188.694 L234.197 188.803 L235.03 188.911 L235.853 189.02 L236.662 189.128 L237.456 189.237 L238.232 189.345 L238.986 189.454 L239.716 189.563 L240.419 189.671 L241.093 189.78 L241.737 189.888 L242.348 189.997 L242.923 190.105 L243.463 190.214 L243.964 190.323 L244.427 190.431 L244.849 190.54 L245.23 190.648 L245.57 190.757 L245.868 190.865 L246.125 190.974 L246.339 191.083 L246.512 191.191 L246.643 191.3 L246.735 191.408 L246.787 191.517 L246.801 191.625 L246.778 191.734 L246.72 191.843 L246.628 191.951 L246.505 192.06 L246.353 192.168 L246.173 192.277 L245.968 192.385 L245.742 192.494 L245.495 192.603 L245.231 192.711 L244.954 192.82 L244.664 192.928 L244.367 193.037 L244.064 193.145 L243.758 193.254 L243.452 193.363 L243.15 193.471 L242.854 193.58 L242.567 193.688 L242.291 193.797 L242.03 193.905 L241.785 194.014 L241.56 194.123 L241.356 194.231 L241.176 194.34 L241.022 194.448 L240.895 194.557 L240.797 194.665 L240.73 194.774 L240.695 194.883 L240.692 194.991 L240.724 195.1 L240.79 195.208 L240.89 195.317 L241.026 195.425 L241.197 195.534 L241.404 195.643 L241.645 195.751 L241.92 195.86 L242.229 195.968 L242.57 196.077 L242.943 196.185 L243.346 196.294 L243.778 196.403 L244.238 196.511 L244.724 196.62 L245.234 196.728 L245.766 196.837 L246.319 196.945 L246.891 197.054 L247.48 197.163 L248.083 197.271 L248.699 197.38 L249.325 197.488 L249.96 197.597 L250.602 197.705 L251.248 197.814 L251.897 197.923 L252.546 198.031 L253.195 198.14 L253.84 198.248 L254.481 198.357 L255.116 198.465 L255.743 198.574 L256.361 198.683 L256.969 198.791 L257.564 198.9 L258.147 199.008 L258.717 199.117 L259.271 199.225 L259.81 199.334 L260.333 199.443 L260.84 199.551 L261.329 199.66 L261.8 199.768 L262.254 199.877 L262.689 199.985 L263.106 200.094 L263.506 200.203 L263.887 200.311 L264.25 200.42 L264.595 200.528 L264.923 200.637 L265.233 200.745 L265.527 200.854 L265.804 200.963 L266.065 201.071 L266.311 201.18 L266.542 201.288 L266.758 201.397 L266.96 201.505 L267.149 201.614 L267.325 201.723 L267.489 201.831 L267.641 201.94 L267.783 202.048 L267.914 202.157 L268.034 202.265 L268.146 202.374 L268.249 202.483 L268.343 202.591 L268.43 202.7 L268.51 202.808 L268.583 202.917 L268.649 203.025 L268.71 203.134 L268.765 203.243 L268.815 203.351 L268.861 203.46 L268.902 203.568 L268.94 203.677 Z" fill="#FF800E" opacity="0.5" />
  <line x1="246.465" y1="191.162" x2="292.035" y2="191.162" stroke="#333333" stroke-width="1" opacity="1" />
  <line x1="222.714" y1="187.179" x2="315.786" y2="187.179" stroke="#333333" stroke-width="1" opacity="1" />
  <line x1="219.036" y1="185.851" x2="319.464" y2="185.851" stroke="#333333" stroke-width="1" opacity="1" />
</g>
<g class="algraf-layer algraf-geom-boxplot">
  <line x1="129.75" y1="163.281" x2="129.75" y2="136.729" stroke="#000000" stroke-width="1.2" opacity="0.9" />
  <line x1="129.55" y1="163.281" x2="129.95" y2="163.281" stroke="#000000" stroke-width="1.2" opacity="0.9" />
  <line x1="129.55" y1="136.729" x2="129.95" y2="136.729" stroke="#000000" stroke-width="1.2" opacity="0.9" />
  <rect x="129.25" y="142.039" width="1" height="13.276" fill="#ffffff" stroke="#000000" stroke-width="1.2" opacity="0.9" />
  <line x1="129.25" y1="147.35" x2="130.25" y2="147.35" stroke="#000000" stroke-width="1.2" opacity="0.9" />
  <line x1="269.25" y1="195.145" x2="269.25" y2="184.523" stroke="#000000" stroke-width="1.2" opacity="0.9" />
  <line x1="269.05" y1="195.145" x2="269.45" y2="195.145" stroke="#000000" stroke-width="1.2" opacity="0.9" />
  <line x1="269.05" y1="184.523" x2="269.45" y2="184.523" stroke="#000000" stroke-width="1.2" opacity="0.9" />
  <rect x="268.75" y="185.851" width="1" height="5.311" fill="#ffffff" stroke="#000000" stroke-width="1.2" opacity="0.9" />
  <line x1="268.75" y1="187.179" x2="269.75" y2="187.179" stroke="#000000" stroke-width="1.2" opacity="0.9" />
</g>
<g class="algraf-layer algraf-geom-rug">
  <line x1="60" y1="163.281" x2="66" y2="163.281" stroke="#006BA4" stroke-width="1.5" opacity="0.35" />
  <line x1="60" y1="136.729" x2="66" y2="136.729" stroke="#006BA4" stroke-width="1.5" opacity="0.35" />
  <line x1="60" y1="147.35" x2="66" y2="147.35" stroke="#006BA4" stroke-width="1.5" opacity="0.35" />
  <line x1="60" y1="195.145" x2="66" y2="195.145" stroke="#FF800E" stroke-width="1.5" opacity="0.35" />
  <line x1="60" y1="184.523" x2="66" y2="184.523" stroke="#FF800E" stroke-width="1.5" opacity="0.35" />
  <line x1="60" y1="187.179" x2="66" y2="187.179" stroke="#FF800E" stroke-width="1.5" opacity="0.35" />
</g>
<g class="algraf-layer algraf-geom-violin">
  <path d="M481.087 154.838 L481.128 154.675 L481.172 154.512 L481.222 154.349 L481.277 154.186 L481.337 154.023 L481.402 153.861 L481.475 153.698 L481.554 153.535 L481.64 153.372 L481.735 153.209 L481.837 153.046 L481.949 152.883 L482.07 152.721 L482.202 152.558 L482.344 152.395 L482.497 152.232 L482.663 152.069 L482.841 151.906 L483.032 151.743 L483.237 151.581 L483.457 151.418 L483.692 151.255 L483.943 151.092 L484.21 150.929 L484.493 150.766 L484.795 150.603 L485.114 150.441 L485.451 150.278 L485.807 150.115 L486.183 149.952 L486.577 149.789 L486.991 149.626 L487.425 149.463 L487.879 149.301 L488.353 149.138 L488.846 148.975 L489.359 148.812 L489.891 148.649 L490.441 148.486 L491.011 148.323 L491.597 148.161 L492.201 147.998 L492.821 147.835 L493.456 147.672 L494.106 147.509 L494.768 147.346 L495.442 147.183 L496.127 147.021 L496.82 146.858 L497.52 146.695 L498.226 146.532 L498.936 146.369 L499.647 146.206 L500.358 146.043 L501.068 145.881 L501.773 145.718 L502.472 145.555 L503.163 145.392 L503.844 145.229 L504.512 145.066 L505.165 144.903 L505.802 144.741 L506.42 144.578 L507.018 144.415 L507.593 144.252 L508.144 144.089 L508.669 143.926 L509.166 143.763 L509.634 143.601 L510.072 143.438 L510.479 143.275 L510.853 143.112 L511.194 142.949 L511.502 142.786 L511.775 142.623 L512.014 142.461 L512.219 142.298 L512.389 142.135 L512.526 141.972 L512.63 141.809 L512.702 141.646 L512.743 141.483 L512.754 141.321 L512.736 141.158 L512.692 140.995 L512.624 140.832 L512.532 140.669 L512.42 140.506 L512.289 140.343 L512.143 140.181 L511.983 140.018 L511.812 139.855 L511.633 139.692 L511.449 139.529 L511.262 139.366 L511.076 139.203 L510.892 139.041 L510.715 138.878 L510.546 138.715 L510.388 138.552 L510.244 138.389 L510.116 138.226 L510.007 138.063 L509.919 137.901 L509.854 137.738 L509.814 137.575 L509.801 137.412 L509.816 137.249 L509.86 137.086 L509.936 136.923 L510.043 136.761 L510.183 136.598 L510.356 136.435 L510.563 136.272 L510.803 136.109 L511.077 135.946 L511.383 135.783 L511.723 135.621 L512.094 135.458 L512.495 135.295 L512.927 135.132 L513.387 134.969 L513.874 134.806 L514.386 134.643 L514.921 134.481 L515.478 134.318 L516.054 134.155 L516.648 133.992 L517.257 133.829 L517.878 133.666 L518.509 133.503 L519.149 133.341 L519.793 133.178 L520.441 133.015 L521.088 132.852 L521.734 132.689 L522.375 132.526 L523.008 132.363 L523.632 132.201 L524.244 132.038 L524.841 131.875 L525.422 131.712 L525.984 131.549 L526.525 131.386 L527.042 131.223 L527.535 131.061 L528.001 130.898 L528.439 130.735 L528.846 130.572 L529.221 130.409 L529.564 130.246 L529.871 130.083 L530.143 129.921 L530.378 129.758 L530.576 129.595 L530.734 129.432 L530.853 129.269 L530.932 129.106 L530.97 128.943 L530.967 128.781 L530.922 128.618 L530.836 128.455 L530.707 128.292 L530.537 128.129 L530.325 127.966 L530.071 127.803 L529.775 127.641 L529.439 127.478 L529.063 127.315 L528.646 127.152 L528.19 126.989 L527.696 126.826 L527.164 126.663 L526.596 126.501 L525.992 126.338 L525.355 126.175 L524.684 126.012 L523.981 125.849 L523.248 125.686 L522.487 125.523 L521.698 125.361 L520.884 125.198 L520.046 125.035 L519.186 124.872 L518.306 124.709 L517.407 124.546 L516.493 124.383 L515.563 124.221 L514.622 124.058 L513.67 123.895 L512.709 123.732 L511.742 123.569 L510.771 123.406 L509.797 123.243 L508.822 123.081 L507.849 122.918 L506.879 122.755 L505.915 122.592 L504.957 122.429 L504.009 122.266 L503.07 122.103 L502.144 121.941 L501.231 121.778 L500.333 121.615 L499.451 121.452 L498.587 121.289 L497.741 121.126 L496.915 120.964 L496.11 120.801 L495.326 120.638 L494.565 120.475 L493.827 120.312 L493.112 120.149 L492.42 119.986 L491.754 119.824 L491.111 119.661 L490.494 119.498 L489.901 119.335 L489.332 119.172 L488.788 119.009 L488.269 118.846 L487.774 118.684 L487.302 118.521 L486.854 118.358 L486.429 118.195 L486.026 118.032 L485.645 117.869 L485.286 117.706 L484.947 117.544 L484.628 117.381 L484.328 117.218 L484.047 117.055 L483.784 116.892 L483.537 116.729 L483.308 116.566 L483.094 116.404 L482.895 116.241 L482.71 116.078 L482.538 115.915 L482.379 115.752 L482.233 115.589 L482.097 115.426 L481.972 115.264 L481.857 115.101 L481.752 114.938 L481.655 114.775 L481.567 114.612 L481.486 114.449 L481.412 114.286 L481.345 114.124 L481.284 113.961 L481.228 113.798 L481.178 113.635 L481.132 113.472 L481.091 113.309 L480.409 113.309 L480.368 113.472 L480.322 113.635 L480.272 113.798 L480.216 113.961 L480.155 114.124 L480.088 114.286 L480.014 114.449 L479.933 114.612 L479.845 114.775 L479.748 114.938 L479.643 115.101 L479.528 115.264 L479.403 115.426 L479.267 115.589 L479.121 115.752 L478.962 115.915 L478.79 116.078 L478.605 116.241 L478.406 116.404 L478.192 116.566 L477.963 116.729 L477.716 116.892 L477.453 117.055 L477.172 117.218 L476.872 117.381 L476.553 117.544 L476.214 117.706 L475.855 117.869 L475.474 118.032 L475.071 118.195 L474.646 118.358 L474.198 118.521 L473.726 118.684 L473.231 118.846 L472.712 119.009 L472.168 119.172 L471.599 119.335 L471.006 119.498 L470.389 119.661 L469.746 119.824 L469.08 119.986 L468.388 120.149 L467.673 120.312 L466.935 120.475 L466.174 120.638 L465.39 120.801 L464.585 120.964 L463.759 121.126 L462.913 121.289 L462.049 121.452 L461.167 121.615 L460.269 121.778 L459.356 121.941 L458.43 122.103 L457.491 122.266 L456.543 122.429 L455.585 122.592 L454.621 122.755 L453.651 122.918 L452.678 123.081 L451.703 123.243 L450.729 123.406 L449.758 123.569 L448.791 123.732 L447.83 123.895 L446.878 124.058 L445.937 124.221 L445.007 124.383 L444.093 124.546 L443.194 124.709 L442.314 124.872 L441.454 125.035 L440.616 125.198 L439.802 125.361 L439.013 125.523 L438.252 125.686 L437.519 125.849 L436.816 126.012 L436.145 126.175 L435.508 126.338 L434.904 126.501 L434.336 126.663 L433.804 126.826 L433.31 126.989 L432.854 127.152 L432.437 127.315 L432.061 127.478 L431.725 127.641 L431.429 127.803 L431.175 127.966 L430.963 128.129 L430.793 128.292 L430.664 128.455 L430.578 128.618 L430.533 128.781 L430.53 128.943 L430.568 129.106 L430.647 129.269 L430.766 129.432 L430.924 129.595 L431.122 129.758 L431.357 129.921 L431.629 130.083 L431.936 130.246 L432.279 130.409 L432.654 130.572 L433.061 130.735 L433.499 130.898 L433.965 131.061 L434.458 131.223 L434.975 131.386 L435.516 131.549 L436.078 131.712 L436.659 131.875 L437.256 132.038 L437.868 132.201 L438.492 132.363 L439.125 132.526 L439.766 132.689 L440.412 132.852 L441.059 133.015 L441.707 133.178 L442.351 133.341 L442.991 133.503 L443.622 133.666 L444.243 133.829 L444.852 133.992 L445.446 134.155 L446.022 134.318 L446.579 134.481 L447.114 134.643 L447.626 134.806 L448.113 134.969 L448.573 135.132 L449.005 135.295 L449.406 135.458 L449.777 135.621 L450.117 135.783 L450.423 135.946 L450.697 136.109 L450.937 136.272 L451.144 136.435 L451.317 136.598 L451.457 136.761 L451.564 136.923 L451.64 137.086 L451.684 137.249 L451.699 137.412 L451.686 137.575 L451.646 137.738 L451.581 137.901 L451.493 138.063 L451.384 138.226 L451.256 138.389 L451.112 138.552 L450.954 138.715 L450.785 138.878 L450.608 139.041 L450.424 139.203 L450.238 139.366 L450.051 139.529 L449.867 139.692 L449.688 139.855 L449.517 140.018 L449.357 140.181 L449.211 140.343 L449.08 140.506 L448.968 140.669 L448.876 140.832 L448.808 140.995 L448.764 141.158 L448.746 141.321 L448.757 141.483 L448.798 141.646 L448.87 141.809 L448.974 141.972 L449.111 142.135 L449.281 142.298 L449.486 142.461 L449.725 142.623 L449.998 142.786 L450.306 142.949 L450.647 143.112 L451.021 143.275 L451.428 143.438 L451.866 143.601 L452.334 143.763 L452.831 143.926 L453.356 144.089 L453.907 144.252 L454.482 144.415 L455.08 144.578 L455.698 144.741 L456.335 144.903 L456.988 145.066 L457.656 145.229 L458.337 145.392 L459.028 145.555 L459.727 145.718 L460.432 145.881 L461.142 146.043 L461.853 146.206 L462.564 146.369 L463.274 146.532 L463.98 146.695 L464.68 146.858 L465.373 147.021 L466.058 147.183 L466.732 147.346 L467.394 147.509 L468.044 147.672 L468.679 147.835 L469.299 147.998 L469.903 148.161 L470.489 148.323 L471.059 148.486 L471.609 148.649 L472.141 148.812 L472.654 148.975 L473.147 149.138 L473.621 149.301 L474.075 149.463 L474.509 149.626 L474.923 149.789 L475.317 149.952 L475.693 150.115 L476.049 150.278 L476.386 150.441 L476.705 150.603 L477.007 150.766 L477.29 150.929 L477.557 151.092 L477.808 151.255 L478.043 151.418 L478.263 151.581 L478.468 151.743 L478.659 151.906 L478.837 152.069 L479.003 152.232 L479.156 152.395 L479.298 152.558 L479.43 152.721 L479.551 152.883 L479.663 153.046 L479.765 153.209 L479.86 153.372 L479.946 153.535 L480.025 153.698 L480.098 153.861 L480.163 154.023 L480.223 154.186 L480.278 154.349 L480.328 154.512 L480.372 154.675 L480.413 154.838 Z" fill="#006BA4" opacity="0.5" />
  <line x1="451.429" y1="136.729" x2="510.071" y2="136.729" stroke="#333333" stroke-width="1" opacity="1" />
  <line x1="435.081" y1="131.418" x2="526.419" y2="131.418" stroke="#333333" stroke-width="1" opacity="1" />
  <line x1="430.538" y1="128.763" x2="530.962" y2="128.763" stroke="#333333" stroke-width="1" opacity="1" />
  <path d="M620.591 186.701 L620.632 186.538 L620.678 186.375 L620.728 186.212 L620.784 186.049 L620.845 185.887 L620.912 185.724 L620.986 185.561 L621.067 185.398 L621.155 185.235 L621.252 185.072 L621.357 184.909 L621.472 184.747 L621.597 184.584 L621.733 184.421 L621.879 184.258 L622.038 184.095 L622.21 183.932 L622.395 183.769 L622.594 183.607 L622.808 183.444 L623.037 183.281 L623.284 183.118 L623.547 182.955 L623.828 182.792 L624.128 182.629 L624.447 182.467 L624.786 182.304 L625.145 182.141 L625.526 181.978 L625.929 181.815 L626.354 181.652 L626.802 181.489 L627.274 181.327 L627.769 181.164 L628.288 181.001 L628.832 180.838 L629.401 180.675 L629.994 180.512 L630.611 180.349 L631.254 180.187 L631.92 180.024 L632.612 179.861 L633.327 179.698 L634.065 179.535 L634.826 179.372 L635.61 179.209 L636.415 179.047 L637.241 178.884 L638.087 178.721 L638.951 178.558 L639.833 178.395 L640.731 178.232 L641.644 178.069 L642.57 177.907 L643.509 177.744 L644.457 177.581 L645.415 177.418 L646.379 177.255 L647.349 177.092 L648.322 176.929 L649.297 176.767 L650.271 176.604 L651.242 176.441 L652.209 176.278 L653.17 176.115 L654.122 175.952 L655.063 175.789 L655.993 175.627 L656.907 175.464 L657.806 175.301 L658.686 175.138 L659.546 174.975 L660.384 174.812 L661.198 174.649 L661.987 174.487 L662.748 174.324 L663.481 174.161 L664.184 173.998 L664.855 173.835 L665.492 173.672 L666.096 173.509 L666.664 173.347 L667.196 173.184 L667.69 173.021 L668.146 172.858 L668.563 172.695 L668.939 172.532 L669.275 172.369 L669.571 172.207 L669.825 172.044 L670.037 171.881 L670.207 171.718 L670.336 171.555 L670.422 171.392 L670.467 171.229 L670.47 171.067 L670.432 170.904 L670.353 170.741 L670.234 170.578 L670.076 170.415 L669.878 170.252 L669.643 170.089 L669.371 169.927 L669.064 169.764 L668.721 169.601 L668.346 169.438 L667.939 169.275 L667.501 169.112 L667.035 168.949 L666.542 168.787 L666.025 168.624 L665.484 168.461 L664.922 168.298 L664.341 168.135 L663.744 167.972 L663.132 167.809 L662.508 167.647 L661.875 167.484 L661.234 167.321 L660.588 167.158 L659.941 166.995 L659.293 166.832 L658.649 166.669 L658.009 166.507 L657.378 166.344 L656.757 166.181 L656.148 166.018 L655.554 165.855 L654.978 165.692 L654.421 165.529 L653.886 165.367 L653.374 165.204 L652.887 165.041 L652.427 164.878 L651.995 164.715 L651.594 164.552 L651.223 164.389 L650.883 164.227 L650.577 164.064 L650.303 163.901 L650.063 163.738 L649.856 163.575 L649.683 163.412 L649.543 163.249 L649.436 163.087 L649.36 162.924 L649.316 162.761 L649.301 162.598 L649.314 162.435 L649.354 162.272 L649.419 162.109 L649.507 161.947 L649.616 161.784 L649.744 161.621 L649.888 161.458 L650.046 161.295 L650.215 161.132 L650.392 160.969 L650.576 160.807 L650.762 160.644 L650.949 160.481 L651.133 160.318 L651.312 160.155 L651.483 159.992 L651.643 159.829 L651.789 159.667 L651.92 159.504 L652.032 159.341 L652.124 159.178 L652.192 159.015 L652.236 158.852 L652.254 158.689 L652.243 158.527 L652.202 158.364 L652.13 158.201 L652.026 158.038 L651.889 157.875 L651.719 157.712 L651.514 157.55 L651.275 157.387 L651.002 157.224 L650.694 157.061 L650.353 156.898 L649.979 156.735 L649.572 156.572 L649.134 156.41 L648.666 156.247 L648.169 156.084 L647.644 155.921 L647.093 155.758 L646.518 155.595 L645.92 155.432 L645.302 155.27 L644.665 155.107 L644.012 154.944 L643.344 154.781 L642.663 154.618 L641.972 154.455 L641.273 154.292 L640.568 154.13 L639.858 153.967 L639.147 153.804 L638.436 153.641 L637.726 153.478 L637.02 153.315 L636.32 153.152 L635.627 152.99 L634.942 152.827 L634.268 152.664 L633.606 152.501 L632.956 152.338 L632.321 152.175 L631.701 152.012 L631.097 151.85 L630.511 151.687 L629.941 151.524 L629.391 151.361 L628.859 151.198 L628.346 151.035 L627.853 150.872 L627.379 150.71 L626.925 150.547 L626.491 150.384 L626.077 150.221 L625.683 150.058 L625.307 149.895 L624.951 149.732 L624.614 149.57 L624.295 149.407 L623.993 149.244 L623.71 149.081 L623.443 148.918 L623.192 148.755 L622.957 148.592 L622.737 148.43 L622.532 148.267 L622.341 148.104 L622.163 147.941 L621.997 147.778 L621.844 147.615 L621.702 147.452 L621.57 147.29 L621.449 147.127 L621.337 146.964 L621.235 146.801 L621.14 146.638 L621.054 146.475 L620.975 146.312 L620.902 146.15 L620.837 145.987 L620.777 145.824 L620.722 145.661 L620.672 145.498 L620.628 145.335 L620.587 145.172 L619.913 145.172 L619.872 145.335 L619.828 145.498 L619.778 145.661 L619.723 145.824 L619.663 145.987 L619.598 146.15 L619.525 146.312 L619.446 146.475 L619.36 146.638 L619.265 146.801 L619.163 146.964 L619.051 147.127 L618.93 147.29 L618.798 147.452 L618.656 147.615 L618.503 147.778 L618.337 147.941 L618.159 148.104 L617.968 148.267 L617.763 148.43 L617.543 148.592 L617.308 148.755 L617.057 148.918 L616.79 149.081 L616.507 149.244 L616.205 149.407 L615.886 149.57 L615.549 149.732 L615.193 149.895 L614.817 150.058 L614.423 150.221 L614.009 150.384 L613.575 150.547 L613.121 150.71 L612.647 150.872 L612.154 151.035 L611.641 151.198 L611.109 151.361 L610.559 151.524 L609.989 151.687 L609.403 151.85 L608.799 152.012 L608.179 152.175 L607.544 152.338 L606.894 152.501 L606.232 152.664 L605.558 152.827 L604.873 152.99 L604.18 153.152 L603.48 153.315 L602.774 153.478 L602.064 153.641 L601.353 153.804 L600.642 153.967 L599.932 154.13 L599.227 154.292 L598.528 154.455 L597.837 154.618 L597.156 154.781 L596.488 154.944 L595.835 155.107 L595.198 155.27 L594.58 155.432 L593.982 155.595 L593.407 155.758 L592.856 155.921 L592.331 156.084 L591.834 156.247 L591.366 156.41 L590.928 156.572 L590.521 156.735 L590.147 156.898 L589.806 157.061 L589.498 157.224 L589.225 157.387 L588.986 157.55 L588.781 157.712 L588.611 157.875 L588.474 158.038 L588.37 158.201 L588.298 158.364 L588.257 158.527 L588.246 158.689 L588.264 158.852 L588.308 159.015 L588.376 159.178 L588.468 159.341 L588.58 159.504 L588.711 159.667 L588.857 159.829 L589.017 159.992 L589.188 160.155 L589.367 160.318 L589.551 160.481 L589.738 160.644 L589.924 160.807 L590.108 160.969 L590.285 161.132 L590.454 161.295 L590.612 161.458 L590.756 161.621 L590.884 161.784 L590.993 161.947 L591.081 162.109 L591.146 162.272 L591.186 162.435 L591.199 162.598 L591.184 162.761 L591.14 162.924 L591.064 163.087 L590.957 163.249 L590.817 163.412 L590.644 163.575 L590.437 163.738 L590.197 163.901 L589.923 164.064 L589.617 164.227 L589.277 164.389 L588.906 164.552 L588.505 164.715 L588.073 164.878 L587.613 165.041 L587.126 165.204 L586.614 165.367 L586.079 165.529 L585.522 165.692 L584.946 165.855 L584.352 166.018 L583.743 166.181 L583.122 166.344 L582.491 166.507 L581.851 166.669 L581.207 166.832 L580.559 166.995 L579.912 167.158 L579.266 167.321 L578.625 167.484 L577.992 167.647 L577.368 167.809 L576.756 167.972 L576.159 168.135 L575.578 168.298 L575.016 168.461 L574.475 168.624 L573.958 168.787 L573.465 168.949 L572.999 169.112 L572.561 169.275 L572.154 169.438 L571.779 169.601 L571.436 169.764 L571.129 169.927 L570.857 170.089 L570.622 170.252 L570.424 170.415 L570.266 170.578 L570.147 170.741 L570.068 170.904 L570.03 171.067 L570.033 171.229 L570.078 171.392 L570.164 171.555 L570.293 171.718 L570.463 171.881 L570.675 172.044 L570.929 172.207 L571.225 172.369 L571.561 172.532 L571.937 172.695 L572.354 172.858 L572.81 173.021 L573.304 173.184 L573.836 173.347 L574.404 173.509 L575.008 173.672 L575.645 173.835 L576.316 173.998 L577.019 174.161 L577.752 174.324 L578.513 174.487 L579.302 174.649 L580.116 174.812 L580.954 174.975 L581.814 175.138 L582.694 175.301 L583.593 175.464 L584.507 175.627 L585.437 175.789 L586.378 175.952 L587.33 176.115 L588.291 176.278 L589.258 176.441 L590.229 176.604 L591.203 176.767 L592.178 176.929 L593.151 177.092 L594.121 177.255 L595.085 177.418 L596.043 177.581 L596.991 177.744 L597.93 177.907 L598.856 178.069 L599.769 178.232 L600.667 178.395 L601.549 178.558 L602.413 178.721 L603.259 178.884 L604.085 179.047 L604.89 179.209 L605.674 179.372 L606.435 179.535 L607.173 179.698 L607.888 179.861 L608.58 180.024 L609.246 180.187 L609.889 180.349 L610.506 180.512 L611.099 180.675 L611.668 180.838 L612.212 181.001 L612.731 181.164 L613.226 181.327 L613.698 181.489 L614.146 181.652 L614.571 181.815 L614.974 181.978 L615.355 182.141 L615.714 182.304 L616.053 182.467 L616.372 182.629 L616.672 182.792 L616.953 182.955 L617.216 183.118 L617.463 183.281 L617.692 183.444 L617.906 183.607 L618.105 183.769 L618.29 183.932 L618.462 184.095 L618.621 184.258 L618.767 184.421 L618.903 184.584 L619.028 184.747 L619.143 184.909 L619.248 185.072 L619.345 185.235 L619.433 185.398 L619.514 185.561 L619.588 185.724 L619.655 185.887 L619.716 186.049 L619.772 186.212 L619.822 186.375 L619.868 186.538 L619.909 186.701 Z" fill="#FF800E" opacity="0.5" />
  <line x1="570.038" y1="171.247" x2="670.462" y2="171.247" stroke="#333333" stroke-width="1" opacity="1" />
  <line x1="574.581" y1="168.592" x2="665.919" y2="168.592" stroke="#333333" stroke-width="1" opacity="1" />
  <line x1="590.929" y1="163.281" x2="649.571" y2="163.281" stroke="#333333" stroke-width="1" opacity="1" />
</g>
<g class="algraf-layer algraf-geom-boxplot">
  <line x1="480.75" y1="142.039" x2="480.75" y2="126.108" stroke="#000000" stroke-width="1.2" opacity="0.9" />
  <line x1="480.55" y1="142.039" x2="480.95" y2="142.039" stroke="#000000" stroke-width="1.2" opacity="0.9" />
  <line x1="480.55" y1="126.108" x2="480.95" y2="126.108" stroke="#000000" stroke-width="1.2" opacity="0.9" />
  <rect x="480.25" y="128.763" width="1" height="7.966" fill="#ffffff" stroke="#000000" stroke-width="1.2" opacity="0.9" />
  <line x1="480.25" y1="131.418" x2="481.25" y2="131.418" stroke="#000000" stroke-width="1.2" opacity="0.9" />
  <line x1="620.25" y1="173.902" x2="620.25" y2="157.971" stroke="#000000" stroke-width="1.2" opacity="0.9" />
  <line x1="620.05" y1="173.902" x2="620.45" y2="173.902" stroke="#000000" stroke-width="1.2" opacity="0.9" />
  <line x1="620.05" y1="157.971" x2="620.45" y2="157.971" stroke="#000000" stroke-width="1.2" opacity="0.9" />
  <rect x="619.75" y="163.281" width="1" height="7.966" fill="#ffffff" stroke="#000000" stroke-width="1.2" opacity="0.9" />
  <line x1="619.75" y1="168.592" x2="620.75" y2="168.592" stroke="#000000" stroke-width="1.2" opacity="0.9" />
</g>
<g class="algraf-layer algraf-geom-rug">
  <line x1="411" y1="131.418" x2="417" y2="131.418" stroke="#006BA4" stroke-width="1.5" opacity="0.35" />
  <line x1="411" y1="142.039" x2="417" y2="142.039" stroke="#006BA4" stroke-width="1.5" opacity="0.35" />
  <line x1="411" y1="126.108" x2="417" y2="126.108" stroke="#006BA4" stroke-width="1.5" opacity="0.35" />
  <line x1="411" y1="173.902" x2="417" y2="173.902" stroke="#FF800E" stroke-width="1.5" opacity="0.35" />
  <line x1="411" y1="168.592" x2="417" y2="168.592" stroke="#FF800E" stroke-width="1.5" opacity="0.35" />
  <line x1="411" y1="157.971" x2="417" y2="157.971" stroke="#FF800E" stroke-width="1.5" opacity="0.35" />
</g>
<g class="algraf-layer algraf-geom-violin">
  <path d="M130.164 411.745 L130.213 411.637 L130.269 411.528 L130.329 411.42 L130.396 411.311 L130.47 411.202 L130.551 411.094 L130.64 410.985 L130.737 410.877 L130.843 410.768 L130.959 410.66 L131.086 410.551 L131.223 410.442 L131.372 410.334 L131.534 410.225 L131.708 410.117 L131.897 410.008 L132.101 409.9 L132.32 409.791 L132.556 409.682 L132.809 409.574 L133.08 409.465 L133.369 409.357 L133.679 409.248 L134.008 409.14 L134.358 409.031 L134.731 408.922 L135.125 408.814 L135.542 408.705 L135.983 408.597 L136.448 408.488 L136.937 408.38 L137.451 408.271 L137.989 408.162 L138.553 408.054 L139.142 407.945 L139.757 407.837 L140.396 407.728 L141.061 407.62 L141.75 407.511 L142.463 407.402 L143.199 407.294 L143.959 407.185 L144.74 407.077 L145.542 406.968 L146.365 406.86 L147.206 406.751 L148.064 406.642 L148.938 406.534 L149.827 406.425 L150.729 406.317 L151.641 406.208 L152.563 406.1 L153.492 405.991 L154.426 405.882 L155.363 405.774 L156.301 405.665 L157.238 405.557 L158.172 405.448 L159.1 405.34 L160.021 405.231 L160.932 405.122 L161.831 405.014 L162.716 404.905 L163.585 404.797 L164.435 404.688 L165.267 404.58 L166.076 404.471 L166.863 404.362 L167.625 404.254 L168.361 404.145 L169.071 404.037 L169.752 403.928 L170.404 403.82 L171.027 403.711 L171.62 403.602 L172.183 403.494 L172.715 403.385 L173.216 403.277 L173.688 403.168 L174.13 403.06 L174.542 402.951 L174.926 402.842 L175.283 402.734 L175.612 402.625 L175.917 402.517 L176.196 402.408 L176.453 402.3 L176.688 402.191 L176.903 402.082 L177.099 401.974 L177.278 401.865 L177.441 401.757 L177.591 401.648 L177.727 401.54 L177.852 401.431 L177.968 401.322 L178.075 401.214 L178.175 401.105 L178.269 400.997 L178.358 400.888 L178.443 400.78 L178.525 400.671 L178.605 400.562 L178.683 400.454 L178.76 400.345 L178.836 400.237 L178.911 400.128 L178.986 400.02 L179.061 399.911 L179.135 399.802 L179.209 399.694 L179.282 399.585 L179.353 399.477 L179.423 399.368 L179.491 399.26 L179.556 399.151 L179.619 399.042 L179.678 398.934 L179.732 398.825 L179.783 398.717 L179.828 398.608 L179.867 398.5 L179.901 398.391 L179.928 398.282 L179.949 398.174 L179.963 398.065 L179.97 397.957 L179.97 397.848 L179.963 397.74 L179.949 397.631 L179.928 397.522 L179.901 397.414 L179.867 397.305 L179.828 397.197 L179.783 397.088 L179.732 396.98 L179.678 396.871 L179.619 396.762 L179.556 396.654 L179.491 396.545 L179.423 396.437 L179.353 396.328 L179.282 396.22 L179.209 396.111 L179.135 396.002 L179.061 395.894 L178.986 395.785 L178.911 395.677 L178.836 395.568 L178.76 395.46 L178.683 395.351 L178.605 395.242 L178.525 395.134 L178.443 395.025 L178.358 394.917 L178.269 394.808 L178.175 394.7 L178.075 394.591 L177.968 394.482 L177.852 394.374 L177.727 394.265 L177.591 394.157 L177.441 394.048 L177.278 393.94 L177.099 393.831 L176.903 393.722 L176.688 393.614 L176.453 393.505 L176.196 393.397 L175.917 393.288 L175.612 393.18 L175.283 393.071 L174.926 392.962 L174.542 392.854 L174.13 392.745 L173.688 392.637 L173.216 392.528 L172.715 392.42 L172.183 392.311 L171.62 392.202 L171.027 392.094 L170.404 391.985 L169.752 391.877 L169.071 391.768 L168.361 391.66 L167.625 391.551 L166.863 391.442 L166.076 391.334 L165.267 391.225 L164.435 391.117 L163.585 391.008 L162.716 390.9 L161.831 390.791 L160.932 390.682 L160.021 390.574 L159.1 390.465 L158.172 390.357 L157.238 390.248 L156.301 390.14 L155.363 390.031 L154.426 389.922 L153.492 389.814 L152.563 389.705 L151.641 389.597 L150.729 389.488 L149.827 389.38 L148.938 389.271 L148.064 389.162 L147.206 389.054 L146.365 388.945 L145.542 388.837 L144.74 388.728 L143.959 388.62 L143.199 388.511 L142.463 388.402 L141.75 388.294 L141.061 388.185 L140.396 388.077 L139.757 387.968 L139.142 387.86 L138.553 387.751 L137.989 387.642 L137.451 387.534 L136.937 387.425 L136.448 387.317 L135.983 387.208 L135.542 387.1 L135.125 386.991 L134.731 386.882 L134.358 386.774 L134.008 386.665 L133.679 386.557 L133.369 386.448 L133.08 386.34 L132.809 386.231 L132.556 386.122 L132.32 386.014 L132.101 385.905 L131.897 385.797 L131.708 385.688 L131.534 385.58 L131.372 385.471 L131.223 385.362 L131.086 385.254 L130.959 385.145 L130.843 385.037 L130.737 384.928 L130.64 384.82 L130.551 384.711 L130.47 384.602 L130.396 384.494 L130.329 384.385 L130.269 384.277 L130.213 384.168 L130.164 384.06 L129.336 384.06 L129.287 384.168 L129.231 384.277 L129.171 384.385 L129.104 384.494 L129.03 384.602 L128.949 384.711 L128.86 384.82 L128.763 384.928 L128.657 385.037 L128.541 385.145 L128.414 385.254 L128.277 385.362 L128.128 385.471 L127.966 385.58 L127.792 385.688 L127.603 385.797 L127.399 385.905 L127.18 386.014 L126.944 386.122 L126.691 386.231 L126.42 386.34 L126.131 386.448 L125.821 386.557 L125.492 386.665 L125.142 386.774 L124.769 386.882 L124.375 386.991 L123.958 387.1 L123.517 387.208 L123.052 387.317 L122.563 387.425 L122.049 387.534 L121.511 387.642 L120.947 387.751 L120.358 387.86 L119.743 387.968 L119.104 388.077 L118.439 388.185 L117.75 388.294 L117.037 388.402 L116.301 388.511 L115.541 388.62 L114.76 388.728 L113.958 388.837 L113.135 388.945 L112.294 389.054 L111.436 389.162 L110.562 389.271 L109.673 389.38 L108.771 389.488 L107.859 389.597 L106.937 389.705 L106.008 389.814 L105.074 389.922 L104.137 390.031 L103.199 390.14 L102.262 390.248 L101.328 390.357 L100.4 390.465 L99.479 390.574 L98.568 390.682 L97.669 390.791 L96.784 390.9 L95.915 391.008 L95.065 391.117 L94.233 391.225 L93.424 391.334 L92.637 391.442 L91.875 391.551 L91.139 391.66 L90.429 391.768 L89.748 391.877 L89.096 391.985 L88.473 392.094 L87.88 392.202 L87.317 392.311 L86.785 392.42 L86.284 392.528 L85.812 392.637 L85.37 392.745 L84.958 392.854 L84.574 392.962 L84.217 393.071 L83.888 393.18 L83.583 393.288 L83.304 393.397 L83.047 393.505 L82.812 393.614 L82.597 393.722 L82.401 393.831 L82.222 393.94 L82.059 394.048 L81.909 394.157 L81.773 394.265 L81.648 394.374 L81.532 394.482 L81.425 394.591 L81.325 394.7 L81.231 394.808 L81.142 394.917 L81.057 395.025 L80.975 395.134 L80.895 395.242 L80.817 395.351 L80.74 395.46 L80.664 395.568 L80.589 395.677 L80.514 395.785 L80.439 395.894 L80.365 396.002 L80.291 396.111 L80.218 396.22 L80.147 396.328 L80.077 396.437 L80.009 396.545 L79.944 396.654 L79.881 396.762 L79.822 396.871 L79.768 396.98 L79.717 397.088 L79.672 397.197 L79.633 397.305 L79.599 397.414 L79.572 397.522 L79.551 397.631 L79.537 397.74 L79.53 397.848 L79.53 397.957 L79.537 398.065 L79.551 398.174 L79.572 398.282 L79.599 398.391 L79.633 398.5 L79.672 398.608 L79.717 398.717 L79.768 398.825 L79.822 398.934 L79.881 399.042 L79.944 399.151 L80.009 399.26 L80.077 399.368 L80.147 399.477 L80.218 399.585 L80.291 399.694 L80.365 399.802 L80.439 399.911 L80.514 400.02 L80.589 400.128 L80.664 400.237 L80.74 400.345 L80.817 400.454 L80.895 400.562 L80.975 400.671 L81.057 400.78 L81.142 400.888 L81.231 400.997 L81.325 401.105 L81.425 401.214 L81.532 401.322 L81.648 401.431 L81.773 401.54 L81.909 401.648 L82.059 401.757 L82.222 401.865 L82.401 401.974 L82.597 402.082 L82.812 402.191 L83.047 402.3 L83.304 402.408 L83.583 402.517 L83.888 402.625 L84.217 402.734 L84.574 402.842 L84.958 402.951 L85.37 403.06 L85.812 403.168 L86.284 403.277 L86.785 403.385 L87.317 403.494 L87.88 403.602 L88.473 403.711 L89.096 403.82 L89.748 403.928 L90.429 404.037 L91.139 404.145 L91.875 404.254 L92.637 404.362 L93.424 404.471 L94.233 404.58 L95.065 404.688 L95.915 404.797 L96.784 404.905 L97.669 405.014 L98.568 405.122 L99.479 405.231 L100.4 405.34 L101.328 405.448 L102.262 405.557 L103.199 405.665 L104.137 405.774 L105.074 405.882 L106.008 405.991 L106.937 406.1 L107.859 406.208 L108.771 406.317 L109.673 406.425 L110.562 406.534 L111.436 406.642 L112.294 406.751 L113.135 406.86 L113.958 406.968 L114.76 407.077 L115.541 407.185 L116.301 407.294 L117.037 407.402 L117.75 407.511 L118.439 407.62 L119.104 407.728 L119.743 407.837 L120.358 407.945 L120.947 408.054 L121.511 408.162 L122.049 408.271 L122.563 408.38 L123.052 408.488 L123.517 408.597 L123.958 408.705 L124.375 408.814 L124.769 408.922 L125.142 409.031 L125.492 409.14 L125.821 409.248 L126.131 409.357 L126.42 409.465 L126.691 409.574 L126.944 409.682 L127.18 409.791 L127.399 409.9 L127.603 410.008 L127.792 410.117 L127.966 410.225 L128.128 410.334 L128.277 410.442 L128.414 410.551 L128.541 410.66 L128.657 410.768 L128.763 410.877 L128.86 410.985 L128.949 411.094 L129.03 411.202 L129.104 411.311 L129.171 411.42 L129.231 411.528 L129.287 411.637 L129.336 411.745 Z" fill="#006BA4" opacity="0.5" />
  <line x1="80.892" y1="400.558" x2="178.608" y2="400.558" stroke="#333333" stroke-width="1" opacity="1" />
  <line x1="79.53" y1="397.902" x2="179.97" y2="397.902" stroke="#333333" stroke-width="1" opacity="1" />
  <line x1="80.892" y1="395.247" x2="178.608" y2="395.247" stroke="#333333" stroke-width="1" opacity="1" />
  <path d="M269.664 432.987 L269.713 432.879 L269.769 432.77 L269.829 432.662 L269.896 432.553 L269.97 432.444 L270.051 432.336 L270.14 432.227 L270.237 432.119 L270.343 432.01 L270.459 431.902 L270.586 431.793 L270.723 431.684 L270.872 431.576 L271.034 431.467 L271.208 431.359 L271.397 431.25 L271.601 431.142 L271.82 431.033 L272.056 430.924 L272.309 430.816 L272.58 430.707 L272.869 430.599 L273.179 430.49 L273.508 430.382 L273.858 430.273 L274.231 430.164 L274.625 430.056 L275.042 429.947 L275.483 429.839 L275.948 429.73 L276.437 429.622 L276.951 429.513 L277.489 429.404 L278.053 429.296 L278.642 429.187 L279.257 429.079 L279.896 428.97 L280.561 428.862 L281.25 428.753 L281.963 428.644 L282.699 428.536 L283.459 428.427 L284.24 428.319 L285.042 428.21 L285.865 428.102 L286.706 427.993 L287.564 427.884 L288.438 427.776 L289.327 427.667 L290.229 427.559 L291.141 427.45 L292.063 427.342 L292.992 427.233 L293.926 427.124 L294.863 427.016 L295.801 426.907 L296.738 426.799 L297.672 426.69 L298.6 426.582 L299.521 426.473 L300.432 426.364 L301.331 426.256 L302.216 426.147 L303.085 426.039 L303.935 425.93 L304.767 425.822 L305.576 425.713 L306.363 425.604 L307.125 425.496 L307.861 425.387 L308.571 425.279 L309.252 425.17 L309.904 425.062 L310.527 424.953 L311.12 424.844 L311.683 424.736 L312.215 424.627 L312.716 424.519 L313.188 424.41 L313.63 424.302 L314.042 424.193 L314.426 424.084 L314.783 423.976 L315.112 423.867 L315.417 423.759 L315.696 423.65 L315.953 423.542 L316.188 423.433 L316.403 423.324 L316.599 423.216 L316.778 423.107 L316.941 422.999 L317.091 422.89 L317.227 422.782 L317.352 422.673 L317.468 422.565 L317.575 422.456 L317.675 422.347 L317.769 422.239 L317.858 422.13 L317.943 422.022 L318.025 421.913 L318.105 421.805 L318.183 421.696 L318.26 421.587 L318.336 421.479 L318.411 421.37 L318.486 421.262 L318.561 421.153 L318.635 421.045 L318.709 420.936 L318.782 420.827 L318.853 420.719 L318.923 420.61 L318.991 420.502 L319.056 420.393 L319.119 420.285 L319.178 420.176 L319.232 420.067 L319.283 419.959 L319.328 419.85 L319.367 419.742 L319.401 419.633 L319.428 419.525 L319.449 419.416 L319.463 419.307 L319.47 419.199 L319.47 419.09 L319.463 418.982 L319.449 418.873 L319.428 418.765 L319.401 418.656 L319.367 418.547 L319.328 418.439 L319.283 418.33 L319.232 418.222 L319.178 418.113 L319.119 418.005 L319.056 417.896 L318.991 417.787 L318.923 417.679 L318.853 417.57 L318.782 417.462 L318.709 417.353 L318.635 417.245 L318.561 417.136 L318.486 417.027 L318.411 416.919 L318.336 416.81 L318.26 416.702 L318.183 416.593 L318.105 416.485 L318.025 416.376 L317.943 416.267 L317.858 416.159 L317.769 416.05 L317.675 415.942 L317.575 415.833 L317.468 415.725 L317.352 415.616 L317.227 415.507 L317.091 415.399 L316.941 415.29 L316.778 415.182 L316.599 415.073 L316.403 414.965 L316.188 414.856 L315.953 414.747 L315.696 414.639 L315.417 414.53 L315.112 414.422 L314.783 414.313 L314.426 414.205 L314.042 414.096 L313.63 413.987 L313.188 413.879 L312.716 413.77 L312.215 413.662 L311.683 413.553 L311.12 413.445 L310.527 413.336 L309.904 413.227 L309.252 413.119 L308.571 413.01 L307.861 412.902 L307.125 412.793 L306.363 412.685 L305.576 412.576 L304.767 412.467 L303.935 412.359 L303.085 412.25 L302.216 412.142 L301.331 412.033 L300.432 411.925 L299.521 411.816 L298.6 411.707 L297.672 411.599 L296.738 411.49 L295.801 411.382 L294.863 411.273 L293.926 411.165 L292.992 411.056 L292.063 410.947 L291.141 410.839 L290.229 410.73 L289.327 410.622 L288.438 410.513 L287.564 410.405 L286.706 410.296 L285.865 410.187 L285.042 410.079 L284.24 409.97 L283.459 409.862 L282.699 409.753 L281.963 409.645 L281.25 409.536 L280.561 409.427 L279.896 409.319 L279.257 409.21 L278.642 409.102 L278.053 408.993 L277.489 408.885 L276.951 408.776 L276.437 408.667 L275.948 408.559 L275.483 408.45 L275.042 408.342 L274.625 408.233 L274.231 408.125 L273.858 408.016 L273.508 407.907 L273.179 407.799 L272.869 407.69 L272.58 407.582 L272.309 407.473 L272.056 407.365 L271.82 407.256 L271.601 407.147 L271.397 407.039 L271.208 406.93 L271.034 406.822 L270.872 406.713 L270.723 406.605 L270.586 406.496 L270.459 406.387 L270.343 406.279 L270.237 406.17 L270.14 406.062 L270.051 405.953 L269.97 405.845 L269.896 405.736 L269.829 405.627 L269.769 405.519 L269.713 405.41 L269.664 405.302 L268.836 405.302 L268.787 405.41 L268.731 405.519 L268.671 405.627 L268.604 405.736 L268.53 405.845 L268.449 405.953 L268.36 406.062 L268.263 406.17 L268.157 406.279 L268.041 406.387 L267.914 406.496 L267.777 406.605 L267.628 406.713 L267.466 406.822 L267.292 406.93 L267.103 407.039 L266.899 407.147 L266.68 407.256 L266.444 407.365 L266.191 407.473 L265.92 407.582 L265.631 407.69 L265.321 407.799 L264.992 407.907 L264.642 408.016 L264.269 408.125 L263.875 408.233 L263.458 408.342 L263.017 408.45 L262.552 408.559 L262.063 408.667 L261.549 408.776 L261.011 408.885 L260.447 408.993 L259.858 409.102 L259.243 409.21 L258.604 409.319 L257.939 409.427 L257.25 409.536 L256.537 409.645 L255.801 409.753 L255.041 409.862 L254.26 409.97 L253.458 410.079 L252.635 410.187 L251.794 410.296 L250.936 410.405 L250.062 410.513 L249.173 410.622 L248.271 410.73 L247.359 410.839 L246.437 410.947 L245.508 411.056 L244.574 411.165 L243.637 411.273 L242.699 411.382 L241.762 411.49 L240.828 411.599 L239.9 411.707 L238.979 411.816 L238.068 411.925 L237.169 412.033 L236.284 412.142 L235.415 412.25 L234.565 412.359 L233.733 412.467 L232.924 412.576 L232.137 412.685 L231.375 412.793 L230.639 412.902 L229.929 413.01 L229.248 413.119 L228.596 413.227 L227.973 413.336 L227.38 413.445 L226.817 413.553 L226.285 413.662 L225.784 413.77 L225.312 413.879 L224.87 413.987 L224.458 414.096 L224.074 414.205 L223.717 414.313 L223.388 414.422 L223.083 414.53 L222.804 414.639 L222.547 414.747 L222.312 414.856 L222.097 414.965 L221.901 415.073 L221.722 415.182 L221.559 415.29 L221.409 415.399 L221.273 415.507 L221.148 415.616 L221.032 415.725 L220.925 415.833 L220.825 415.942 L220.731 416.05 L220.642 416.159 L220.557 416.267 L220.475 416.376 L220.395 416.485 L220.317 416.593 L220.24 416.702 L220.164 416.81 L220.089 416.919 L220.014 417.027 L219.939 417.136 L219.865 417.245 L219.791 417.353 L219.718 417.462 L219.647 417.57 L219.577 417.679 L219.509 417.787 L219.444 417.896 L219.381 418.005 L219.322 418.113 L219.268 418.222 L219.217 418.33 L219.172 418.439 L219.133 418.547 L219.099 418.656 L219.072 418.765 L219.051 418.873 L219.037 418.982 L219.03 419.09 L219.03 419.199 L219.037 419.307 L219.051 419.416 L219.072 419.525 L219.099 419.633 L219.133 419.742 L219.172 419.85 L219.217 419.959 L219.268 420.067 L219.322 420.176 L219.381 420.285 L219.444 420.393 L219.509 420.502 L219.577 420.61 L219.647 420.719 L219.718 420.827 L219.791 420.936 L219.865 421.045 L219.939 421.153 L220.014 421.262 L220.089 421.37 L220.164 421.479 L220.24 421.587 L220.317 421.696 L220.395 421.805 L220.475 421.913 L220.557 422.022 L220.642 422.13 L220.731 422.239 L220.825 422.347 L220.925 422.456 L221.032 422.565 L221.148 422.673 L221.273 422.782 L221.409 422.89 L221.559 422.999 L221.722 423.107 L221.901 423.216 L222.097 423.324 L222.312 423.433 L222.547 423.542 L222.804 423.65 L223.083 423.759 L223.388 423.867 L223.717 423.976 L224.074 424.084 L224.458 424.193 L224.87 424.302 L225.312 424.41 L225.784 424.519 L226.285 424.627 L226.817 424.736 L227.38 424.844 L227.973 424.953 L228.596 425.062 L229.248 425.17 L229.929 425.279 L230.639 425.387 L231.375 425.496 L232.137 425.604 L232.924 425.713 L233.733 425.822 L234.565 425.93 L235.415 426.039 L236.284 426.147 L237.169 426.256 L238.068 426.364 L238.979 426.473 L239.9 426.582 L240.828 426.69 L241.762 426.799 L242.699 426.907 L243.637 427.016 L244.574 427.124 L245.508 427.233 L246.437 427.342 L247.359 427.45 L248.271 427.559 L249.173 427.667 L250.062 427.776 L250.936 427.884 L251.794 427.993 L252.635 428.102 L253.458 428.21 L254.26 428.319 L255.041 428.427 L255.801 428.536 L256.537 428.644 L257.25 428.753 L257.939 428.862 L258.604 428.97 L259.243 429.079 L259.858 429.187 L260.447 429.296 L261.011 429.404 L261.549 429.513 L262.063 429.622 L262.552 429.73 L263.017 429.839 L263.458 429.947 L263.875 430.056 L264.269 430.164 L264.642 430.273 L264.992 430.382 L265.321 430.49 L265.631 430.599 L265.92 430.707 L266.191 430.816 L266.444 430.924 L266.68 431.033 L266.899 431.142 L267.103 431.25 L267.292 431.359 L267.466 431.467 L267.628 431.576 L267.777 431.684 L267.914 431.793 L268.041 431.902 L268.157 432.01 L268.263 432.119 L268.36 432.227 L268.449 432.336 L268.53 432.444 L268.604 432.553 L268.671 432.662 L268.731 432.77 L268.787 432.879 L268.836 432.987 Z" fill="#FF800E" opacity="0.5" />
  <line x1="220.392" y1="421.8" x2="318.108" y2="421.8" stroke="#333333" stroke-width="1" opacity="1" />
  <line x1="219.03" y1="419.145" x2="319.47" y2="419.145" stroke="#333333" stroke-width="1" opacity="1" />
  <line x1="220.392" y1="416.489" x2="318.108" y2="416.489" stroke="#333333" stroke-width="1" opacity="1" />
</g>
<g class="algraf-layer algraf-geom-boxplot">
  <line x1="129.75" y1="403.213" x2="129.75" y2="392.592" stroke="#000000" stroke-width="1.2" opacity="0.9" />
  <line x1="129.55" y1="403.213" x2="129.95" y2="403.213" stroke="#000000" stroke-width="1.2" opacity="0.9" />
  <line x1="129.55" y1="392.592" x2="129.95" y2="392.592" stroke="#000000" stroke-width="1.2" opacity="0.9" />
  <rect x="129.25" y="395.247" width="1" height="5.311" fill="#ffffff" stroke="#000000" stroke-width="1.2" opacity="0.9" />
  <line x1="129.25" y1="397.902" x2="130.25" y2="397.902" stroke="#000000" stroke-width="1.2" opacity="0.9" />
  <line x1="269.25" y1="424.455" x2="269.25" y2="413.834" stroke="#000000" stroke-width="1.2" opacity="0.9" />
  <line x1="269.05" y1="424.455" x2="269.45" y2="424.455" stroke="#000000" stroke-width="1.2" opacity="0.9" />
  <line x1="269.05" y1="413.834" x2="269.45" y2="413.834" stroke="#000000" stroke-width="1.2" opacity="0.9" />
  <rect x="268.75" y="416.489" width="1" height="5.311" fill="#ffffff" stroke="#000000" stroke-width="1.2" opacity="0.9" />
  <line x1="268.75" y1="419.145" x2="269.75" y2="419.145" stroke="#000000" stroke-width="1.2" opacity="0.9" />
</g>
<g class="algraf-layer algraf-geom-rug">
  <line x1="60" y1="403.213" x2="66" y2="403.213" stroke="#006BA4" stroke-width="1.5" opacity="0.35" />
  <line x1="60" y1="397.902" x2="66" y2="397.902" stroke="#006BA4" stroke-width="1.5" opacity="0.35" />
  <line x1="60" y1="392.592" x2="66" y2="392.592" stroke="#006BA4" stroke-width="1.5" opacity="0.35" />
  <line x1="60" y1="424.455" x2="66" y2="424.455" stroke="#FF800E" stroke-width="1.5" opacity="0.35" />
  <line x1="60" y1="419.145" x2="66" y2="419.145" stroke="#FF800E" stroke-width="1.5" opacity="0.35" />
  <line x1="60" y1="413.834" x2="66" y2="413.834" stroke="#FF800E" stroke-width="1.5" opacity="0.35" />
</g>
<g class="algraf-layer algraf-geom-violin">
  <path d="M481.164 385.193 L481.213 385.084 L481.269 384.975 L481.329 384.867 L481.396 384.758 L481.47 384.65 L481.551 384.541 L481.64 384.433 L481.737 384.324 L481.843 384.215 L481.959 384.107 L482.086 383.998 L482.223 383.89 L482.372 383.781 L482.534 383.673 L482.708 383.564 L482.897 383.455 L483.101 383.347 L483.32 383.238 L483.556 383.13 L483.809 383.021 L484.08 382.913 L484.369 382.804 L484.679 382.695 L485.008 382.587 L485.358 382.478 L485.731 382.37 L486.125 382.261 L486.542 382.153 L486.983 382.044 L487.448 381.935 L487.937 381.827 L488.451 381.718 L488.989 381.61 L489.553 381.501 L490.142 381.393 L490.757 381.284 L491.396 381.175 L492.061 381.067 L492.75 380.958 L493.463 380.85 L494.199 380.741 L494.959 380.633 L495.74 380.524 L496.542 380.415 L497.365 380.307 L498.206 380.198 L499.064 380.09 L499.938 379.981 L500.827 379.873 L501.729 379.764 L502.641 379.655 L503.563 379.547 L504.492 379.438 L505.426 379.33 L506.363 379.221 L507.301 379.113 L508.238 379.004 L509.172 378.895 L510.1 378.787 L511.021 378.678 L511.932 378.57 L512.831 378.461 L513.716 378.353 L514.585 378.244 L515.435 378.135 L516.267 378.027 L517.076 377.918 L517.863 377.81 L518.625 377.701 L519.361 377.593 L520.071 377.484 L520.752 377.375 L521.404 377.267 L522.027 377.158 L522.62 377.05 L523.183 376.941 L523.715 376.833 L524.216 376.724 L524.688 376.615 L525.13 376.507 L525.542 376.398 L525.926 376.29 L526.283 376.181 L526.612 376.073 L526.917 375.964 L527.196 375.855 L527.453 375.747 L527.688 375.638 L527.903 375.53 L528.099 375.421 L528.278 375.313 L528.441 375.204 L528.591 375.095 L528.727 374.987 L528.852 374.878 L528.968 374.77 L529.075 374.661 L529.175 374.553 L529.269 374.444 L529.358 374.335 L529.443 374.227 L529.525 374.118 L529.605 374.01 L529.683 373.901 L529.76 373.793 L529.836 373.684 L529.911 373.575 L529.986 373.467 L530.061 373.358 L530.135 373.25 L530.209 373.141 L530.282 373.033 L530.353 372.924 L530.423 372.815 L530.491 372.707 L530.556 372.598 L530.619 372.49 L530.678 372.381 L530.732 372.273 L530.783 372.164 L530.828 372.055 L530.867 371.947 L530.901 371.838 L530.928 371.73 L530.949 371.621 L530.963 371.513 L530.97 371.404 L530.97 371.295 L530.963 371.187 L530.949 371.078 L530.928 370.97 L530.901 370.861 L530.867 370.753 L530.828 370.644 L530.783 370.535 L530.732 370.427 L530.678 370.318 L530.619 370.21 L530.556 370.101 L530.491 369.993 L530.423 369.884 L530.353 369.775 L530.282 369.667 L530.209 369.558 L530.135 369.45 L530.061 369.341 L529.986 369.233 L529.911 369.124 L529.836 369.015 L529.76 368.907 L529.683 368.798 L529.605 368.69 L529.525 368.581 L529.443 368.473 L529.358 368.364 L529.269 368.255 L529.175 368.147 L529.075 368.038 L528.968 367.93 L528.852 367.821 L528.727 367.713 L528.591 367.604 L528.441 367.495 L528.278 367.387 L528.099 367.278 L527.903 367.17 L527.688 367.061 L527.453 366.953 L527.196 366.844 L526.917 366.736 L526.612 366.627 L526.283 366.518 L525.926 366.41 L525.542 366.301 L525.13 366.193 L524.688 366.084 L524.216 365.976 L523.715 365.867 L523.183 365.758 L522.62 365.65 L522.027 365.541 L521.404 365.433 L520.752 365.324 L520.071 365.216 L519.361 365.107 L518.625 364.998 L517.863 364.89 L517.076 364.781 L516.267 364.673 L515.435 364.564 L514.585 364.456 L513.716 364.347 L512.831 364.238 L511.932 364.13 L511.021 364.021 L510.1 363.913 L509.172 363.804 L508.238 363.696 L507.301 363.587 L506.363 363.478 L505.426 363.37 L504.492 363.261 L503.563 363.153 L502.641 363.044 L501.729 362.936 L500.827 362.827 L499.938 362.718 L499.064 362.61 L498.206 362.501 L497.365 362.393 L496.542 362.284 L495.74 362.176 L494.959 362.067 L494.199 361.958 L493.463 361.85 L492.75 361.741 L492.061 361.633 L491.396 361.524 L490.757 361.416 L490.142 361.307 L489.553 361.198 L488.989 361.09 L488.451 360.981 L487.937 360.873 L487.448 360.764 L486.983 360.656 L486.542 360.547 L486.125 360.438 L485.731 360.33 L485.358 360.221 L485.008 360.113 L484.679 360.004 L484.369 359.896 L484.08 359.787 L483.809 359.678 L483.556 359.57 L483.32 359.461 L483.101 359.353 L482.897 359.244 L482.708 359.136 L482.534 359.027 L482.372 358.918 L482.223 358.81 L482.086 358.701 L481.959 358.593 L481.843 358.484 L481.737 358.376 L481.64 358.267 L481.551 358.158 L481.47 358.05 L481.396 357.941 L481.329 357.833 L481.269 357.724 L481.213 357.616 L481.164 357.507 L480.336 357.507 L480.287 357.616 L480.231 357.724 L480.171 357.833 L480.104 357.941 L480.03 358.05 L479.949 358.158 L479.86 358.267 L479.763 358.376 L479.657 358.484 L479.541 358.593 L479.414 358.701 L479.277 358.81 L479.128 358.918 L478.966 359.027 L478.792 359.136 L478.603 359.244 L478.399 359.353 L478.18 359.461 L477.944 359.57 L477.691 359.678 L477.42 359.787 L477.131 359.896 L476.821 360.004 L476.492 360.113 L476.142 360.221 L475.769 360.33 L475.375 360.438 L474.958 360.547 L474.517 360.656 L474.052 360.764 L473.563 360.873 L473.049 360.981 L472.511 361.09 L471.947 361.198 L471.358 361.307 L470.743 361.416 L470.104 361.524 L469.439 361.633 L468.75 361.741 L468.037 361.85 L467.301 361.958 L466.541 362.067 L465.76 362.176 L464.958 362.284 L464.135 362.393 L463.294 362.501 L462.436 362.61 L461.562 362.718 L460.673 362.827 L459.771 362.936 L458.859 363.044 L457.937 363.153 L457.008 363.261 L456.074 363.37 L455.137 363.478 L454.199 363.587 L453.262 363.696 L452.328 363.804 L451.4 363.913 L450.479 364.021 L449.568 364.13 L448.669 364.238 L447.784 364.347 L446.915 364.456 L446.065 364.564 L445.233 364.673 L444.424 364.781 L443.637 364.89 L442.875 364.998 L442.139 365.107 L441.429 365.216 L440.748 365.324 L440.096 365.433 L439.473 365.541 L438.88 365.65 L438.317 365.758 L437.785 365.867 L437.284 365.976 L436.812 366.084 L436.37 366.193 L435.958 366.301 L435.574 366.41 L435.217 366.518 L434.888 366.627 L434.583 366.736 L434.304 366.844 L434.047 366.953 L433.812 367.061 L433.597 367.17 L433.401 367.278 L433.222 367.387 L433.059 367.495 L432.909 367.604 L432.773 367.713 L432.648 367.821 L432.532 367.93 L432.425 368.038 L432.325 368.147 L432.231 368.255 L432.142 368.364 L432.057 368.473 L431.975 368.581 L431.895 368.69 L431.817 368.798 L431.74 368.907 L431.664 369.015 L431.589 369.124 L431.514 369.233 L431.439 369.341 L431.365 369.45 L431.291 369.558 L431.218 369.667 L431.147 369.775 L431.077 369.884 L431.009 369.993 L430.944 370.101 L430.881 370.21 L430.822 370.318 L430.768 370.427 L430.717 370.535 L430.672 370.644 L430.633 370.753 L430.599 370.861 L430.572 370.97 L430.551 371.078 L430.537 371.187 L430.53 371.295 L430.53 371.404 L430.537 371.513 L430.551 371.621 L430.572 371.73 L430.599 371.838 L430.633 371.947 L430.672 372.055 L430.717 372.164 L430.768 372.273 L430.822 372.381 L430.881 372.49 L430.944 372.598 L431.009 372.707 L431.077 372.815 L431.147 372.924 L431.218 373.033 L431.291 373.141 L431.365 373.25 L431.439 373.358 L431.514 373.467 L431.589 373.575 L431.664 373.684 L431.74 373.793 L431.817 373.901 L431.895 374.01 L431.975 374.118 L432.057 374.227 L432.142 374.335 L432.231 374.444 L432.325 374.553 L432.425 374.661 L432.532 374.77 L432.648 374.878 L432.773 374.987 L432.909 375.095 L433.059 375.204 L433.222 375.313 L433.401 375.421 L433.597 375.53 L433.812 375.638 L434.047 375.747 L434.304 375.855 L434.583 375.964 L434.888 376.073 L435.217 376.181 L435.574 376.29 L435.958 376.398 L436.37 376.507 L436.812 376.615 L437.284 376.724 L437.785 376.833 L438.317 376.941 L438.88 377.05 L439.473 377.158 L440.096 377.267 L440.748 377.375 L441.429 377.484 L442.139 377.593 L442.875 377.701 L443.637 377.81 L444.424 377.918 L445.233 378.027 L446.065 378.135 L446.915 378.244 L447.784 378.353 L448.669 378.461 L449.568 378.57 L450.479 378.678 L451.4 378.787 L452.328 378.895 L453.262 379.004 L454.199 379.113 L455.137 379.221 L456.074 379.33 L457.008 379.438 L457.937 379.547 L458.859 379.655 L459.771 379.764 L460.673 379.873 L461.562 379.981 L462.436 380.09 L463.294 380.198 L464.135 380.307 L464.958 380.415 L465.76 380.524 L466.541 380.633 L467.301 380.741 L468.037 380.85 L468.75 380.958 L469.439 381.067 L470.104 381.175 L470.743 381.284 L471.358 381.393 L471.947 381.501 L472.511 381.61 L473.049 381.718 L473.563 381.827 L474.052 381.935 L474.517 382.044 L474.958 382.153 L475.375 382.261 L475.769 382.37 L476.142 382.478 L476.492 382.587 L476.821 382.695 L477.131 382.804 L477.42 382.913 L477.691 383.021 L477.944 383.13 L478.18 383.238 L478.399 383.347 L478.603 383.455 L478.792 383.564 L478.966 383.673 L479.128 383.781 L479.277 383.89 L479.414 383.998 L479.541 384.107 L479.657 384.215 L479.763 384.324 L479.86 384.433 L479.949 384.541 L480.03 384.65 L480.104 384.758 L480.171 384.867 L480.231 384.975 L480.287 385.084 L480.336 385.193 Z" fill="#006BA4" opacity="0.5" />
  <line x1="431.892" y1="374.005" x2="529.608" y2="374.005" stroke="#333333" stroke-width="1" opacity="1" />
  <line x1="430.53" y1="371.35" x2="530.97" y2="371.35" stroke="#333333" stroke-width="1" opacity="1" />
  <line x1="431.892" y1="368.695" x2="529.608" y2="368.695" stroke="#333333" stroke-width="1" opacity="1" />
  <path d="M620.664 422.366 L620.713 422.258 L620.769 422.149 L620.829 422.041 L620.896 421.932 L620.97 421.823 L621.051 421.715 L621.14 421.606 L621.237 421.498 L621.343 421.389 L621.459 421.281 L621.586 421.172 L621.723 421.063 L621.872 420.955 L622.034 420.846 L622.208 420.738 L622.397 420.629 L622.601 420.521 L622.82 420.412 L623.056 420.303 L623.309 420.195 L623.58 420.086 L623.869 419.978 L624.179 419.869 L624.508 419.761 L624.858 419.652 L625.231 419.543 L625.625 419.435 L626.042 419.326 L626.483 419.218 L626.948 419.109 L627.437 419.001 L627.951 418.892 L628.489 418.783 L629.053 418.675 L629.642 418.566 L630.257 418.458 L630.896 418.349 L631.561 418.241 L632.25 418.132 L632.963 418.023 L633.699 417.915 L634.459 417.806 L635.24 417.698 L636.042 417.589 L636.865 417.481 L637.706 417.372 L638.564 417.263 L639.438 417.155 L640.327 417.046 L641.229 416.938 L642.141 416.829 L643.063 416.721 L643.992 416.612 L644.926 416.503 L645.863 416.395 L646.801 416.286 L647.738 416.178 L648.672 416.069 L649.6 415.961 L650.521 415.852 L651.432 415.743 L652.331 415.635 L653.216 415.526 L654.085 415.418 L654.935 415.309 L655.767 415.201 L656.576 415.092 L657.363 414.983 L658.125 414.875 L658.861 414.766 L659.571 414.658 L660.252 414.549 L660.904 414.441 L661.527 414.332 L662.12 414.223 L662.683 414.115 L663.215 414.006 L663.716 413.898 L664.188 413.789 L664.63 413.681 L665.042 413.572 L665.426 413.463 L665.783 413.355 L666.112 413.246 L666.417 413.138 L666.696 413.029 L666.953 412.921 L667.188 412.812 L667.403 412.703 L667.599 412.595 L667.778 412.486 L667.941 412.378 L668.091 412.269 L668.227 412.161 L668.352 412.052 L668.468 411.943 L668.575 411.835 L668.675 411.726 L668.769 411.618 L668.858 411.509 L668.943 411.401 L669.025 411.292 L669.105 411.183 L669.183 411.075 L669.26 410.966 L669.336 410.858 L669.411 410.749 L669.486 410.641 L669.561 410.532 L669.635 410.423 L669.709 410.315 L669.782 410.206 L669.853 410.098 L669.923 409.989 L669.991 409.881 L670.056 409.772 L670.119 409.663 L670.178 409.555 L670.232 409.446 L670.283 409.338 L670.328 409.229 L670.367 409.121 L670.401 409.012 L670.428 408.903 L670.449 408.795 L670.463 408.686 L670.47 408.578 L670.47 408.469 L670.463 408.361 L670.449 408.252 L670.428 408.143 L670.401 408.035 L670.367 407.926 L670.328 407.818 L670.283 407.709 L670.232 407.601 L670.178 407.492 L670.119 407.383 L670.056 407.275 L669.991 407.166 L669.923 407.058 L669.853 406.949 L669.782 406.841 L669.709 406.732 L669.635 406.623 L669.561 406.515 L669.486 406.406 L669.411 406.298 L669.336 406.189 L669.26 406.081 L669.183 405.972 L669.105 405.863 L669.025 405.755 L668.943 405.646 L668.858 405.538 L668.769 405.429 L668.675 405.321 L668.575 405.212 L668.468 405.103 L668.352 404.995 L668.227 404.886 L668.091 404.778 L667.941 404.669 L667.778 404.561 L667.599 404.452 L667.403 404.343 L667.188 404.235 L666.953 404.126 L666.696 404.018 L666.417 403.909 L666.112 403.801 L665.783 403.692 L665.426 403.583 L665.042 403.475 L664.63 403.366 L664.188 403.258 L663.716 403.149 L663.215 403.041 L662.683 402.932 L662.12 402.823 L661.527 402.715 L660.904 402.606 L660.252 402.498 L659.571 402.389 L658.861 402.281 L658.125 402.172 L657.363 402.063 L656.576 401.955 L655.767 401.846 L654.935 401.738 L654.085 401.629 L653.216 401.521 L652.331 401.412 L651.432 401.303 L650.521 401.195 L649.6 401.086 L648.672 400.978 L647.738 400.869 L646.801 400.761 L645.863 400.652 L644.926 400.543 L643.992 400.435 L643.063 400.326 L642.141 400.218 L641.229 400.109 L640.327 400.001 L639.438 399.892 L638.564 399.783 L637.706 399.675 L636.865 399.566 L636.042 399.458 L635.24 399.349 L634.459 399.241 L633.699 399.132 L632.963 399.023 L632.25 398.915 L631.561 398.806 L630.896 398.698 L630.257 398.589 L629.642 398.481 L629.053 398.372 L628.489 398.263 L627.951 398.155 L627.437 398.046 L626.948 397.938 L626.483 397.829 L626.042 397.721 L625.625 397.612 L625.231 397.503 L624.858 397.395 L624.508 397.286 L624.179 397.178 L623.869 397.069 L623.58 396.961 L623.309 396.852 L623.056 396.744 L622.82 396.635 L622.601 396.526 L622.397 396.418 L622.208 396.309 L622.034 396.201 L621.872 396.092 L621.723 395.984 L621.586 395.875 L621.459 395.766 L621.343 395.658 L621.237 395.549 L621.14 395.441 L621.051 395.332 L620.97 395.224 L620.896 395.115 L620.829 395.006 L620.769 394.898 L620.713 394.789 L620.664 394.681 L619.836 394.681 L619.787 394.789 L619.731 394.898 L619.671 395.006 L619.604 395.115 L619.53 395.224 L619.449 395.332 L619.36 395.441 L619.263 395.549 L619.157 395.658 L619.041 395.766 L618.914 395.875 L618.777 395.984 L618.628 396.092 L618.466 396.201 L618.292 396.309 L618.103 396.418 L617.899 396.526 L617.68 396.635 L617.444 396.744 L617.191 396.852 L616.92 396.961 L616.631 397.069 L616.321 397.178 L615.992 397.286 L615.642 397.395 L615.269 397.503 L614.875 397.612 L614.458 397.721 L614.017 397.829 L613.552 397.938 L613.063 398.046 L612.549 398.155 L612.011 398.263 L611.447 398.372 L610.858 398.481 L610.243 398.589 L609.604 398.698 L608.939 398.806 L608.25 398.915 L607.537 399.023 L606.801 399.132 L606.041 399.241 L605.26 399.349 L604.458 399.458 L603.635 399.566 L602.794 399.675 L601.936 399.783 L601.062 399.892 L600.173 400.001 L599.271 400.109 L598.359 400.218 L597.437 400.326 L596.508 400.435 L595.574 400.543 L594.637 400.652 L593.699 400.761 L592.762 400.869 L591.828 400.978 L590.9 401.086 L589.979 401.195 L589.068 401.303 L588.169 401.412 L587.284 401.521 L586.415 401.629 L585.565 401.738 L584.733 401.846 L583.924 401.955 L583.137 402.063 L582.375 402.172 L581.639 402.281 L580.929 402.389 L580.248 402.498 L579.596 402.606 L578.973 402.715 L578.38 402.823 L577.817 402.932 L577.285 403.041 L576.784 403.149 L576.312 403.258 L575.87 403.366 L575.458 403.475 L575.074 403.583 L574.717 403.692 L574.388 403.801 L574.083 403.909 L573.804 404.018 L573.547 404.126 L573.312 404.235 L573.097 404.343 L572.901 404.452 L572.722 404.561 L572.559 404.669 L572.409 404.778 L572.273 404.886 L572.148 404.995 L572.032 405.103 L571.925 405.212 L571.825 405.321 L571.731 405.429 L571.642 405.538 L571.557 405.646 L571.475 405.755 L571.395 405.863 L571.317 405.972 L571.24 406.081 L571.164 406.189 L571.089 406.298 L571.014 406.406 L570.939 406.515 L570.865 406.623 L570.791 406.732 L570.718 406.841 L570.647 406.949 L570.577 407.058 L570.509 407.166 L570.444 407.275 L570.381 407.383 L570.322 407.492 L570.268 407.601 L570.217 407.709 L570.172 407.818 L570.133 407.926 L570.099 408.035 L570.072 408.143 L570.051 408.252 L570.037 408.361 L570.03 408.469 L570.03 408.578 L570.037 408.686 L570.051 408.795 L570.072 408.903 L570.099 409.012 L570.133 409.121 L570.172 409.229 L570.217 409.338 L570.268 409.446 L570.322 409.555 L570.381 409.663 L570.444 409.772 L570.509 409.881 L570.577 409.989 L570.647 410.098 L570.718 410.206 L570.791 410.315 L570.865 410.423 L570.939 410.532 L571.014 410.641 L571.089 410.749 L571.164 410.858 L571.24 410.966 L571.317 411.075 L571.395 411.183 L571.475 411.292 L571.557 411.401 L571.642 411.509 L571.731 411.618 L571.825 411.726 L571.925 411.835 L572.032 411.943 L572.148 412.052 L572.273 412.161 L572.409 412.269 L572.559 412.378 L572.722 412.486 L572.901 412.595 L573.097 412.703 L573.312 412.812 L573.547 412.921 L573.804 413.029 L574.083 413.138 L574.388 413.246 L574.717 413.355 L575.074 413.463 L575.458 413.572 L575.87 413.681 L576.312 413.789 L576.784 413.898 L577.285 414.006 L577.817 414.115 L578.38 414.223 L578.973 414.332 L579.596 414.441 L580.248 414.549 L580.929 414.658 L581.639 414.766 L582.375 414.875 L583.137 414.983 L583.924 415.092 L584.733 415.201 L585.565 415.309 L586.415 415.418 L587.284 415.526 L588.169 415.635 L589.068 415.743 L589.979 415.852 L590.9 415.961 L591.828 416.069 L592.762 416.178 L593.699 416.286 L594.637 416.395 L595.574 416.503 L596.508 416.612 L597.437 416.721 L598.359 416.829 L599.271 416.938 L600.173 417.046 L601.062 417.155 L601.936 417.263 L602.794 417.372 L603.635 417.481 L604.458 417.589 L605.26 417.698 L606.041 417.806 L606.801 417.915 L607.537 418.023 L608.25 418.132 L608.939 418.241 L609.604 418.349 L610.243 418.458 L610.858 418.566 L611.447 418.675 L612.011 418.783 L612.549 418.892 L613.063 419.001 L613.552 419.109 L614.017 419.218 L614.458 419.326 L614.875 419.435 L615.269 419.543 L615.642 419.652 L615.992 419.761 L616.321 419.869 L616.631 419.978 L616.92 420.086 L617.191 420.195 L617.444 420.303 L617.68 420.412 L617.899 420.521 L618.103 420.629 L618.292 420.738 L618.466 420.846 L618.628 420.955 L618.777 421.063 L618.914 421.172 L619.041 421.281 L619.157 421.389 L619.263 421.498 L619.36 421.606 L619.449 421.715 L619.53 421.823 L619.604 421.932 L619.671 422.041 L619.731 422.149 L619.787 422.258 L619.836 422.366 Z" fill="#FF800E" opacity="0.5" />
  <line x1="571.392" y1="411.179" x2="669.108" y2="411.179" stroke="#333333" stroke-width="1" opacity="1" />
  <line x1="570.03" y1="408.523" x2="670.47" y2="408.523" stroke="#333333" stroke-width="1" opacity="1" />
  <line x1="571.392" y1="405.868" x2="669.108" y2="405.868" stroke="#333333" stroke-width="1" opacity="1" />
</g>
<g class="algraf-layer algraf-geom-boxplot">
  <line x1="480.75" y1="376.66" x2="480.75" y2="366.039" stroke="#000000" stroke-width="1.2" opacity="0.9" />
  <line x1="480.55" y1="376.66" x2="480.95" y2="376.66" stroke="#000000" stroke-width="1.2" opacity="0.9" />
  <line x1="480.55" y1="366.039" x2="480.95" y2="366.039" stroke="#000000" stroke-width="1.2" opacity="0.9" />
  <rect x="480.25" y="368.695" width="1" height="5.311" fill="#ffffff" stroke="#000000" stroke-width="1.2" opacity="0.9" />
  <line x1="480.25" y1="371.35" x2="481.25" y2="371.35" stroke="#000000" stroke-width="1.2" opacity="0.9" />
  <line x1="620.25" y1="413.834" x2="620.25" y2="403.213" stroke="#000000" stroke-width="1.2" opacity="0.9" />
  <line x1="620.05" y1="413.834" x2="620.45" y2="413.834" stroke="#000000" stroke-width="1.2" opacity="0.9" />
  <line x1="620.05" y1="403.213" x2="620.45" y2="403.213" stroke="#000000" stroke-width="1.2" opacity="0.9" />
  <rect x="619.75" y="405.868" width="1" height="5.311" fill="#ffffff" stroke="#000000" stroke-width="1.2" opacity="0.9" />
  <line x1="619.75" y1="408.523" x2="620.75" y2="408.523" stroke="#000000" stroke-width="1.2" opacity="0.9" />
</g>
<g class="algraf-layer algraf-geom-rug">
  <line x1="411" y1="376.66" x2="417" y2="376.66" stroke="#006BA4" stroke-width="1.5" opacity="0.35" />
  <line x1="411" y1="371.35" x2="417" y2="371.35" stroke="#006BA4" stroke-width="1.5" opacity="0.35" />
  <line x1="411" y1="366.039" x2="417" y2="366.039" stroke="#006BA4" stroke-width="1.5" opacity="0.35" />
  <line x1="411" y1="413.834" x2="417" y2="413.834" stroke="#FF800E" stroke-width="1.5" opacity="0.35" />
  <line x1="411" y1="408.523" x2="417" y2="408.523" stroke="#FF800E" stroke-width="1.5" opacity="0.35" />
  <line x1="411" y1="403.213" x2="417" y2="403.213" stroke="#FF800E" stroke-width="1.5" opacity="0.35" />
</g>
<g class="algraf-axes">
  <line x1="60" y1="226" x2="339" y2="226" stroke="#333333" stroke-width="1" />
  <line x1="129.75" y1="226" x2="129.75" y2="231" stroke="#333333" stroke-width="1" />
  <text x="129.75" y="244" text-anchor="middle" font-family="system-ui, sans-serif" font-size="12" fill="#222222">Widgets</text>
  <line x1="269.25" y1="226" x2="269.25" y2="231" stroke="#333333" stroke-width="1" />
  <text x="269.25" y="244" text-anchor="middle" font-family="system-ui, sans-serif" font-size="12" fill="#222222">Gadgets</text>
  <text x="199.5" y="264" text-anchor="middle" font-family="system-ui, sans-serif" font-size="12" fill="#222222">product</text>
  <line x1="60" y1="90" x2="60" y2="226" stroke="#333333" stroke-width="1" />
  <line x1="55" y1="216.387" x2="60" y2="216.387" stroke="#333333" stroke-width="1" />
  <text x="52" y="220.387" text-anchor="end" font-family="system-ui, sans-serif" font-size="12" fill="#222222">50</text>
  <line x1="55" y1="189.834" x2="60" y2="189.834" stroke="#333333" stroke-width="1" />
  <text x="52" y="193.834" text-anchor="end" font-family="system-ui, sans-serif" font-size="12" fill="#222222">100</text>
  <line x1="55" y1="163.281" x2="60" y2="163.281" stroke="#333333" stroke-width="1" />
  <text x="52" y="167.281" text-anchor="end" font-family="system-ui, sans-serif" font-size="12" fill="#222222">150</text>
  <line x1="55" y1="136.729" x2="60" y2="136.729" stroke="#333333" stroke-width="1" />
  <text x="52" y="140.729" text-anchor="end" font-family="system-ui, sans-serif" font-size="12" fill="#222222">200</text>
  <line x1="55" y1="110.176" x2="60" y2="110.176" stroke="#333333" stroke-width="1" />
  <text x="52" y="114.176" text-anchor="end" font-family="system-ui, sans-serif" font-size="12" fill="#222222">250</text>
  <text x="18.4" y="158" text-anchor="middle" transform="rotate(-90 18.4 158)" font-family="system-ui, sans-serif" font-size="12" fill="#222222">Sales Amount</text>
</g>
<g class="algraf-axes">
  <line x1="411" y1="226" x2="690" y2="226" stroke="#333333" stroke-width="1" />
  <line x1="480.75" y1="226" x2="480.75" y2="231" stroke="#333333" stroke-width="1" />
  <text x="480.75" y="244" text-anchor="middle" font-family="system-ui, sans-serif" font-size="12" fill="#222222">Widgets</text>
  <line x1="620.25" y1="226" x2="620.25" y2="231" stroke="#333333" stroke-width="1" />
  <text x="620.25" y="244" text-anchor="middle" font-family="system-ui, sans-serif" font-size="12" fill="#222222">Gadgets</text>
  <text x="550.5" y="264" text-anchor="middle" font-family="system-ui, sans-serif" font-size="12" fill="#222222">product</text>
  <line x1="411" y1="90" x2="411" y2="226" stroke="#333333" stroke-width="1" />
  <line x1="406" y1="216.387" x2="411" y2="216.387" stroke="#333333" stroke-width="1" />
  <text x="403" y="220.387" text-anchor="end" font-family="system-ui, sans-serif" font-size="12" fill="#222222">50</text>
  <line x1="406" y1="189.834" x2="411" y2="189.834" stroke="#333333" stroke-width="1" />
  <text x="403" y="193.834" text-anchor="end" font-family="system-ui, sans-serif" font-size="12" fill="#222222">100</text>
  <line x1="406" y1="163.281" x2="411" y2="163.281" stroke="#333333" stroke-width="1" />
  <text x="403" y="167.281" text-anchor="end" font-family="system-ui, sans-serif" font-size="12" fill="#222222">150</text>
  <line x1="406" y1="136.729" x2="411" y2="136.729" stroke="#333333" stroke-width="1" />
  <text x="403" y="140.729" text-anchor="end" font-family="system-ui, sans-serif" font-size="12" fill="#222222">200</text>
  <line x1="406" y1="110.176" x2="411" y2="110.176" stroke="#333333" stroke-width="1" />
  <text x="403" y="114.176" text-anchor="end" font-family="system-ui, sans-serif" font-size="12" fill="#222222">250</text>
  <text x="369.4" y="158" text-anchor="middle" transform="rotate(-90 369.4 158)" font-family="system-ui, sans-serif" font-size="12" fill="#222222">Sales Amount</text>
</g>
<g class="algraf-axes">
  <line x1="60" y1="450" x2="339" y2="450" stroke="#333333" stroke-width="1" />
  <line x1="129.75" y1="450" x2="129.75" y2="455" stroke="#333333" stroke-width="1" />
  <text x="129.75" y="468" text-anchor="middle" font-family="system-ui, sans-serif" font-size="12" fill="#222222">Widgets</text>
  <line x1="269.25" y1="450" x2="269.25" y2="455" stroke="#333333" stroke-width="1" />
  <text x="269.25" y="468" text-anchor="middle" font-family="system-ui, sans-serif" font-size="12" fill="#222222">Gadgets</text>
  <text x="199.5" y="488" text-anchor="middle" font-family="system-ui, sans-serif" font-size="12" fill="#222222">product</text>
  <line x1="60" y1="314" x2="60" y2="450" stroke="#333333" stroke-width="1" />
  <line x1="55" y1="440.387" x2="60" y2="440.387" stroke="#333333" stroke-width="1" />
  <text x="52" y="444.387" text-anchor="end" font-family="system-ui, sans-serif" font-size="12" fill="#222222">50</text>
  <line x1="55" y1="413.834" x2="60" y2="413.834" stroke="#333333" stroke-width="1" />
  <text x="52" y="417.834" text-anchor="end" font-family="system-ui, sans-serif" font-size="12" fill="#222222">100</text>
  <line x1="55" y1="387.281" x2="60" y2="387.281" stroke="#333333" stroke-width="1" />
  <text x="52" y="391.281" text-anchor="end" font-family="system-ui, sans-serif" font-size="12" fill="#222222">150</text>
  <line x1="55" y1="360.729" x2="60" y2="360.729" stroke="#333333" stroke-width="1" />
  <text x="52" y="364.729" text-anchor="end" font-family="system-ui, sans-serif" font-size="12" fill="#222222">200</text>
  <line x1="55" y1="334.176" x2="60" y2="334.176" stroke="#333333" stroke-width="1" />
  <text x="52" y="338.176" text-anchor="end" font-family="system-ui, sans-serif" font-size="12" fill="#222222">250</text>
  <text x="18.4" y="382" text-anchor="middle" transform="rotate(-90 18.4 382)" font-family="system-ui, sans-serif" font-size="12" fill="#222222">Sales Amount</text>
</g>
<g class="algraf-axes">
  <line x1="411" y1="450" x2="690" y2="450" stroke="#333333" stroke-width="1" />
  <line x1="480.75" y1="450" x2="480.75" y2="455" stroke="#333333" stroke-width="1" />
  <text x="480.75" y="468" text-anchor="middle" font-family="system-ui, sans-serif" font-size="12" fill="#222222">Widgets</text>
  <line x1="620.25" y1="450" x2="620.25" y2="455" stroke="#333333" stroke-width="1" />
  <text x="620.25" y="468" text-anchor="middle" font-family="system-ui, sans-serif" font-size="12" fill="#222222">Gadgets</text>
  <text x="550.5" y="488" text-anchor="middle" font-family="system-ui, sans-serif" font-size="12" fill="#222222">product</text>
  <line x1="411" y1="314" x2="411" y2="450" stroke="#333333" stroke-width="1" />
  <line x1="406" y1="440.387" x2="411" y2="440.387" stroke="#333333" stroke-width="1" />
  <text x="403" y="444.387" text-anchor="end" font-family="system-ui, sans-serif" font-size="12" fill="#222222">50</text>
  <line x1="406" y1="413.834" x2="411" y2="413.834" stroke="#333333" stroke-width="1" />
  <text x="403" y="417.834" text-anchor="end" font-family="system-ui, sans-serif" font-size="12" fill="#222222">100</text>
  <line x1="406" y1="387.281" x2="411" y2="387.281" stroke="#333333" stroke-width="1" />
  <text x="403" y="391.281" text-anchor="end" font-family="system-ui, sans-serif" font-size="12" fill="#222222">150</text>
  <line x1="406" y1="360.729" x2="411" y2="360.729" stroke="#333333" stroke-width="1" />
  <text x="403" y="364.729" text-anchor="end" font-family="system-ui, sans-serif" font-size="12" fill="#222222">200</text>
  <line x1="406" y1="334.176" x2="411" y2="334.176" stroke="#333333" stroke-width="1" />
  <text x="403" y="338.176" text-anchor="end" font-family="system-ui, sans-serif" font-size="12" fill="#222222">250</text>
  <text x="369.4" y="382" text-anchor="middle" transform="rotate(-90 369.4 382)" font-family="system-ui, sans-serif" font-size="12" fill="#222222">Sales Amount</text>
</g>
<g class="algraf-legends">
  <text x="706" y="70" text-anchor="start" font-family="system-ui, sans-serif" font-size="12" fill="#222222">product</text>
  <rect x="706" y="78" width="12" height="12" fill="#006BA4" stroke="#006BA4" stroke-width="2" />
  <text x="724" y="88" text-anchor="start" font-family="system-ui, sans-serif" font-size="12" fill="#222222">Widgets</text>
  <rect x="706" y="96" width="12" height="12" fill="#FF800E" stroke="#FF800E" stroke-width="2" />
  <text x="724" y="106" text-anchor="start" font-family="system-ui, sans-serif" font-size="12" fill="#222222">Gadgets</text>
</g>
</svg>
