<svg xmlns="http://www.w3.org/2000/svg" width="840" height="500" viewBox="0 0 840 500" role="img" aria-label="Sales Distribution by Product and Region">
<title>Sales Distribution by Product and Region</title>
<rect class="algraf-background" x="0" y="0" width="840" height="500" fill="#ffffff" />
<text class="algraf-title" x="60" y="24" font-family="system-ui, sans-serif" font-size="18" font-weight="600" fill="#222222">Sales Distribution by Product and Region</text>
<rect class="algraf-plot-area algraf-facet-panel" x="60" y="90" width="162" height="136" fill="#ffffff" />
<rect class="algraf-plot-area algraf-facet-panel" x="294" y="90" width="162" height="136" fill="#ffffff" />
<rect class="algraf-plot-area algraf-facet-panel" x="528" y="90" width="162" height="136" fill="#ffffff" />
<rect class="algraf-plot-area algraf-facet-panel" x="60" y="314" width="162" height="136" fill="#ffffff" />
<g class="algraf-facet-strip">
  <rect x="60" y="66" width="162" height="18" fill="#ffffff" />
  <text x="141" y="80" text-anchor="middle" font-family="system-ui, sans-serif" font-size="12" fill="#222222">North</text>
</g>
<g class="algraf-facet-strip">
  <rect x="294" y="66" width="162" height="18" fill="#ffffff" />
  <text x="375" y="80" text-anchor="middle" font-family="system-ui, sans-serif" font-size="12" fill="#222222">South</text>
</g>
<g class="algraf-facet-strip">
  <rect x="528" y="66" width="162" height="18" fill="#ffffff" />
  <text x="609" y="80" text-anchor="middle" font-family="system-ui, sans-serif" font-size="12" fill="#222222">East</text>
</g>
<g class="algraf-facet-strip">
  <rect x="60" y="290" width="162" height="18" fill="#ffffff" />
  <text x="141" y="304" text-anchor="middle" font-family="system-ui, sans-serif" font-size="12" fill="#222222">West</text>
</g>
<g class="algraf-grid">
  <line x1="60" y1="216.387" x2="222" y2="216.387" stroke="#e6e6e6" stroke-width="1" />
  <line x1="60" y1="189.834" x2="222" y2="189.834" stroke="#e6e6e6" stroke-width="1" />
  <line x1="60" y1="163.281" x2="222" y2="163.281" stroke="#e6e6e6" stroke-width="1" />
  <line x1="60" y1="136.729" x2="222" y2="136.729" stroke="#e6e6e6" stroke-width="1" />
  <line x1="60" y1="110.176" x2="222" y2="110.176" stroke="#e6e6e6" stroke-width="1" />
</g>
<g class="algraf-grid">
  <line x1="294" y1="216.387" x2="456" y2="216.387" stroke="#e6e6e6" stroke-width="1" />
  <line x1="294" y1="189.834" x2="456" y2="189.834" stroke="#e6e6e6" stroke-width="1" />
  <line x1="294" y1="163.281" x2="456" y2="163.281" stroke="#e6e6e6" stroke-width="1" />
  <line x1="294" y1="136.729" x2="456" y2="136.729" stroke="#e6e6e6" stroke-width="1" />
  <line x1="294" y1="110.176" x2="456" y2="110.176" stroke="#e6e6e6" stroke-width="1" />
</g>
<g class="algraf-grid">
  <line x1="528" y1="216.387" x2="690" y2="216.387" stroke="#e6e6e6" stroke-width="1" />
  <line x1="528" y1="189.834" x2="690" y2="189.834" stroke="#e6e6e6" stroke-width="1" />
  <line x1="528" y1="163.281" x2="690" y2="163.281" stroke="#e6e6e6" stroke-width="1" />
  <line x1="528" y1="136.729" x2="690" y2="136.729" stroke="#e6e6e6" stroke-width="1" />
  <line x1="528" y1="110.176" x2="690" y2="110.176" stroke="#e6e6e6" stroke-width="1" />
</g>
<g class="algraf-grid">
  <line x1="60" y1="440.387" x2="222" y2="440.387" stroke="#e6e6e6" stroke-width="1" />
  <line x1="60" y1="413.834" x2="222" y2="413.834" stroke="#e6e6e6" stroke-width="1" />
  <line x1="60" y1="387.281" x2="222" y2="387.281" stroke="#e6e6e6" stroke-width="1" />
  <line x1="60" y1="360.729" x2="222" y2="360.729" stroke="#e6e6e6" stroke-width="1" />
  <line x1="60" y1="334.176" x2="222" y2="334.176" stroke="#e6e6e6" stroke-width="1" />
</g>
<g class="algraf-layer algraf-geom-violin">
  <path d="M100.712 184.612 L100.738 184.341 L100.766 184.069 L100.797 183.798 L100.832 183.526 L100.87 183.255 L100.911 182.983 L100.957 182.712 L101.007 182.441 L101.061 182.169 L101.121 181.898 L101.185 181.626 L101.256 181.355 L101.332 181.083 L101.415 180.812 L101.505 180.541 L101.601 180.269 L101.706 179.998 L101.818 179.726 L101.939 179.455 L102.068 179.184 L102.207 178.912 L102.355 178.641 L102.513 178.369 L102.681 178.098 L102.86 177.826 L103.05 177.555 L103.252 177.284 L103.465 177.012 L103.689 176.741 L103.926 176.469 L104.176 176.198 L104.437 175.926 L104.711 175.655 L104.998 175.384 L105.297 175.112 L105.609 174.841 L105.933 174.569 L106.269 174.298 L106.618 174.026 L106.978 173.755 L107.349 173.484 L107.732 173.212 L108.125 172.941 L108.528 172.669 L108.94 172.398 L109.36 172.126 L109.788 171.855 L110.224 171.584 L110.665 171.312 L111.111 171.041 L111.561 170.769 L112.015 170.498 L112.47 170.226 L112.925 169.955 L113.381 169.684 L113.834 169.412 L114.285 169.141 L114.731 168.869 L115.172 168.598 L115.606 168.326 L116.032 168.055 L116.449 167.784 L116.856 167.512 L117.251 167.241 L117.633 166.969 L118.002 166.698 L118.357 166.426 L118.695 166.155 L119.018 165.884 L119.323 165.612 L119.611 165.341 L119.88 165.069 L120.131 164.798 L120.363 164.526 L120.576 164.255 L120.77 163.984 L120.944 163.712 L121.1 163.441 L121.237 163.169 L121.356 162.898 L121.457 162.626 L121.541 162.355 L121.609 162.084 L121.661 161.812 L121.699 161.541 L121.724 161.269 L121.736 160.998 L121.738 160.726 L121.73 160.455 L121.713 160.184 L121.689 159.912 L121.66 159.641 L121.627 159.369 L121.591 159.098 L121.553 158.826 L121.516 158.555 L121.481 158.284 L121.448 158.012 L121.42 157.741 L121.397 157.469 L121.381 157.198 L121.373 156.926 L121.373 156.655 L121.384 156.384 L121.405 156.112 L121.437 155.841 L121.482 155.569 L121.539 155.298 L121.609 155.026 L121.692 154.755 L121.788 154.484 L121.898 154.212 L122.022 153.941 L122.158 153.669 L122.308 153.398 L122.47 153.126 L122.644 152.855 L122.829 152.584 L123.026 152.312 L123.232 152.041 L123.448 151.769 L123.672 151.498 L123.904 151.226 L124.142 150.955 L124.386 150.684 L124.634 150.412 L124.885 150.141 L125.139 149.869 L125.395 149.598 L125.651 149.326 L125.906 149.055 L126.159 148.784 L126.409 148.512 L126.656 148.241 L126.898 147.969 L127.134 147.698 L127.364 147.426 L127.587 147.155 L127.801 146.884 L128.007 146.612 L128.203 146.341 L128.389 146.069 L128.565 145.798 L128.729 145.526 L128.881 145.255 L129.021 144.984 L129.148 144.712 L129.262 144.441 L129.362 144.169 L129.448 143.898 L129.52 143.626 L129.578 143.355 L129.621 143.084 L129.648 142.812 L129.66 142.541 L129.656 142.269 L129.637 141.998 L129.601 141.726 L129.549 141.455 L129.481 141.184 L129.395 140.912 L129.293 140.641 L129.174 140.369 L129.038 140.098 L128.884 139.826 L128.713 139.555 L128.524 139.284 L128.318 139.012 L128.094 138.741 L127.853 138.469 L127.594 138.198 L127.317 137.927 L127.024 137.655 L126.713 137.384 L126.385 137.112 L126.04 136.841 L125.679 136.569 L125.302 136.298 L124.909 136.027 L124.501 135.755 L124.079 135.484 L123.642 135.212 L123.192 134.941 L122.729 134.669 L122.255 134.398 L121.769 134.127 L121.273 133.855 L120.767 133.584 L120.253 133.312 L119.732 133.041 L119.204 132.769 L118.67 132.498 L118.132 132.227 L117.591 131.955 L117.047 131.684 L116.502 131.412 L115.957 131.141 L115.412 130.869 L114.87 130.598 L114.331 130.327 L113.795 130.055 L113.265 129.784 L112.741 129.512 L112.223 129.241 L111.713 128.969 L111.212 128.698 L110.72 128.427 L110.238 128.155 L109.767 127.884 L109.307 127.612 L108.858 127.341 L108.423 127.069 L108 126.798 L107.59 126.527 L107.193 126.255 L106.81 125.984 L106.441 125.712 L106.086 125.441 L105.745 125.169 L105.418 124.898 L105.105 124.627 L104.807 124.355 L104.522 124.084 L104.25 123.812 L103.992 123.541 L103.748 123.269 L103.516 122.998 L103.297 122.727 L103.09 122.455 L102.895 122.184 L102.711 121.912 L102.539 121.641 L102.378 121.369 L102.227 121.098 L102.085 120.827 L101.954 120.555 L101.831 120.284 L101.717 120.012 L101.611 119.741 L101.513 119.469 L101.422 119.198 L101.338 118.927 L101.261 118.655 L101.19 118.384 L101.125 118.112 L101.064 117.841 L101.01 117.569 L100.959 117.298 L100.913 117.027 L100.871 116.755 L100.833 116.484 L100.799 116.212 L100.767 115.941 L100.739 115.669 L100.713 115.398 L100.287 115.398 L100.261 115.669 L100.233 115.941 L100.201 116.212 L100.167 116.484 L100.129 116.755 L100.087 117.027 L100.041 117.298 L99.99 117.569 L99.936 117.841 L99.875 118.112 L99.81 118.384 L99.739 118.655 L99.662 118.927 L99.578 119.198 L99.487 119.469 L99.389 119.741 L99.283 120.012 L99.169 120.284 L99.046 120.555 L98.915 120.827 L98.773 121.098 L98.622 121.369 L98.461 121.641 L98.289 121.912 L98.105 122.184 L97.91 122.455 L97.703 122.727 L97.484 122.998 L97.252 123.269 L97.008 123.541 L96.75 123.812 L96.478 124.084 L96.193 124.355 L95.895 124.627 L95.582 124.898 L95.255 125.169 L94.914 125.441 L94.559 125.712 L94.19 125.984 L93.807 126.255 L93.41 126.527 L93 126.798 L92.577 127.069 L92.142 127.341 L91.693 127.612 L91.233 127.884 L90.762 128.155 L90.28 128.427 L89.788 128.698 L89.287 128.969 L88.777 129.241 L88.259 129.512 L87.735 129.784 L87.205 130.055 L86.669 130.327 L86.13 130.598 L85.588 130.869 L85.043 131.141 L84.498 131.412 L83.953 131.684 L83.409 131.955 L82.868 132.227 L82.33 132.498 L81.796 132.769 L81.268 133.041 L80.747 133.312 L80.233 133.584 L79.727 133.855 L79.231 134.127 L78.745 134.398 L78.271 134.669 L77.808 134.941 L77.358 135.212 L76.921 135.484 L76.499 135.755 L76.091 136.027 L75.698 136.298 L75.321 136.569 L74.96 136.841 L74.615 137.112 L74.287 137.384 L73.976 137.655 L73.683 137.927 L73.406 138.198 L73.147 138.469 L72.906 138.741 L72.682 139.012 L72.476 139.284 L72.287 139.555 L72.116 139.826 L71.962 140.098 L71.826 140.369 L71.707 140.641 L71.605 140.912 L71.519 141.184 L71.451 141.455 L71.399 141.726 L71.363 141.998 L71.344 142.269 L71.34 142.541 L71.352 142.812 L71.379 143.084 L71.422 143.355 L71.48 143.626 L71.552 143.898 L71.638 144.169 L71.738 144.441 L71.852 144.712 L71.979 144.984 L72.119 145.255 L72.271 145.526 L72.435 145.798 L72.611 146.069 L72.797 146.341 L72.993 146.612 L73.199 146.884 L73.413 147.155 L73.636 147.426 L73.866 147.698 L74.102 147.969 L74.344 148.241 L74.591 148.512 L74.841 148.784 L75.094 149.055 L75.349 149.326 L75.605 149.598 L75.861 149.869 L76.115 150.141 L76.366 150.412 L76.614 150.684 L76.858 150.955 L77.096 151.226 L77.328 151.498 L77.552 151.769 L77.768 152.041 L77.974 152.312 L78.171 152.584 L78.356 152.855 L78.53 153.126 L78.692 153.398 L78.842 153.669 L78.978 153.941 L79.102 154.212 L79.212 154.484 L79.308 154.755 L79.391 155.026 L79.461 155.298 L79.518 155.569 L79.563 155.841 L79.595 156.112 L79.616 156.384 L79.627 156.655 L79.627 156.926 L79.619 157.198 L79.603 157.469 L79.58 157.741 L79.552 158.012 L79.519 158.284 L79.484 158.555 L79.447 158.826 L79.409 159.098 L79.373 159.369 L79.34 159.641 L79.311 159.912 L79.287 160.184 L79.27 160.455 L79.262 160.726 L79.264 160.998 L79.276 161.269 L79.301 161.541 L79.339 161.812 L79.391 162.084 L79.459 162.355 L79.543 162.626 L79.644 162.898 L79.763 163.169 L79.9 163.441 L80.056 163.712 L80.23 163.984 L80.424 164.255 L80.637 164.526 L80.869 164.798 L81.12 165.069 L81.389 165.341 L81.677 165.612 L81.982 165.884 L82.305 166.155 L82.643 166.426 L82.998 166.698 L83.367 166.969 L83.749 167.241 L84.144 167.512 L84.551 167.784 L84.968 168.055 L85.394 168.326 L85.828 168.598 L86.269 168.869 L86.715 169.141 L87.166 169.412 L87.619 169.684 L88.075 169.955 L88.53 170.226 L88.985 170.498 L89.439 170.769 L89.889 171.041 L90.335 171.312 L90.776 171.584 L91.212 171.855 L91.64 172.126 L92.06 172.398 L92.472 172.669 L92.875 172.941 L93.268 173.212 L93.651 173.484 L94.022 173.755 L94.382 174.026 L94.731 174.298 L95.067 174.569 L95.391 174.841 L95.703 175.112 L96.002 175.384 L96.289 175.655 L96.563 175.926 L96.824 176.198 L97.074 176.469 L97.311 176.741 L97.535 177.012 L97.748 177.284 L97.95 177.555 L98.14 177.826 L98.319 178.098 L98.487 178.369 L98.645 178.641 L98.793 178.912 L98.932 179.184 L99.061 179.455 L99.182 179.726 L99.294 179.998 L99.399 180.269 L99.495 180.541 L99.585 180.812 L99.668 181.083 L99.744 181.355 L99.815 181.626 L99.879 181.898 L99.939 182.169 L99.993 182.441 L100.043 182.712 L100.089 182.983 L100.13 183.255 L100.168 183.526 L100.203 183.798 L100.234 184.069 L100.262 184.341 L100.288 184.612 Z" fill="#006BA4" opacity="0.5" />
  <line x1="79.465" y1="155.316" x2="121.535" y2="155.316" stroke="#333333" stroke-width="1" opacity="1" />
  <line x1="73.573" y1="147.35" x2="127.427" y2="147.35" stroke="#333333" stroke-width="1" opacity="1" />
  <line x1="71.36" y1="142.039" x2="129.64" y2="142.039" stroke="#333333" stroke-width="1" opacity="1" />
  <path d="M181.68 203.677 L181.702 203.568 L181.726 203.46 L181.752 203.351 L181.781 203.243 L181.814 203.134 L181.849 203.025 L181.887 202.917 L181.93 202.808 L181.976 202.7 L182.026 202.591 L182.081 202.483 L182.141 202.374 L182.206 202.265 L182.276 202.157 L182.352 202.048 L182.434 201.94 L182.522 201.831 L182.618 201.723 L182.72 201.614 L182.83 201.505 L182.947 201.397 L183.073 201.288 L183.207 201.18 L183.349 201.071 L183.501 200.963 L183.662 200.854 L183.832 200.745 L184.013 200.637 L184.203 200.528 L184.403 200.42 L184.614 200.311 L184.836 200.203 L185.067 200.094 L185.31 199.985 L185.562 199.877 L185.826 199.768 L186.1 199.66 L186.383 199.551 L186.677 199.443 L186.981 199.334 L187.294 199.225 L187.616 199.117 L187.947 199.008 L188.285 198.9 L188.631 198.791 L188.984 198.683 L189.343 198.574 L189.707 198.465 L190.075 198.357 L190.448 198.248 L190.822 198.14 L191.199 198.031 L191.576 197.923 L191.953 197.814 L192.328 197.705 L192.701 197.597 L193.069 197.488 L193.433 197.38 L193.791 197.271 L194.141 197.163 L194.483 197.054 L194.815 196.945 L195.136 196.837 L195.445 196.728 L195.741 196.62 L196.023 196.511 L196.29 196.403 L196.541 196.294 L196.775 196.185 L196.992 196.077 L197.19 195.968 L197.369 195.86 L197.529 195.751 L197.669 195.643 L197.789 195.534 L197.888 195.425 L197.967 195.317 L198.025 195.208 L198.064 195.1 L198.082 194.991 L198.081 194.883 L198.06 194.774 L198.021 194.665 L197.964 194.557 L197.891 194.448 L197.801 194.34 L197.696 194.231 L197.578 194.123 L197.447 194.014 L197.305 193.905 L197.154 193.797 L196.994 193.688 L196.827 193.58 L196.655 193.471 L196.479 193.363 L196.302 193.254 L196.124 193.145 L195.948 193.037 L195.775 192.928 L195.608 192.82 L195.446 192.711 L195.293 192.603 L195.15 192.494 L195.018 192.385 L194.9 192.277 L194.795 192.168 L194.707 192.06 L194.635 191.951 L194.582 191.843 L194.548 191.734 L194.535 191.625 L194.543 191.517 L194.573 191.408 L194.626 191.3 L194.703 191.191 L194.803 191.083 L194.928 190.974 L195.076 190.865 L195.249 190.757 L195.447 190.648 L195.668 190.54 L195.914 190.431 L196.182 190.323 L196.473 190.214 L196.786 190.105 L197.121 189.997 L197.475 189.888 L197.849 189.78 L198.241 189.671 L198.649 189.563 L199.073 189.454 L199.511 189.345 L199.961 189.237 L200.422 189.128 L200.892 189.02 L201.37 188.911 L201.853 188.803 L202.34 188.694 L202.83 188.585 L203.319 188.477 L203.807 188.368 L204.292 188.26 L204.77 188.151 L205.242 188.043 L205.705 187.934 L206.156 187.825 L206.595 187.717 L207.019 187.608 L207.427 187.5 L207.816 187.391 L208.187 187.283 L208.536 187.174 L208.863 187.065 L209.166 186.957 L209.445 186.848 L209.696 186.74 L209.921 186.631 L210.117 186.523 L210.284 186.414 L210.422 186.305 L210.528 186.197 L210.604 186.088 L210.648 185.98 L210.66 185.871 L210.64 185.763 L210.588 185.654 L210.504 185.545 L210.388 185.437 L210.241 185.328 L210.062 185.22 L209.853 185.111 L209.613 185.003 L209.344 184.894 L209.047 184.785 L208.721 184.677 L208.369 184.568 L207.991 184.46 L207.588 184.351 L207.162 184.243 L206.714 184.134 L206.245 184.025 L205.756 183.917 L205.249 183.808 L204.726 183.7 L204.188 183.591 L203.636 183.483 L203.072 183.374 L202.498 183.265 L201.914 183.157 L201.324 183.048 L200.727 182.94 L200.126 182.831 L199.521 182.723 L198.916 182.614 L198.31 182.505 L197.706 182.397 L197.104 182.288 L196.506 182.18 L195.914 182.071 L195.327 181.963 L194.748 181.854 L194.178 181.745 L193.617 181.637 L193.066 181.528 L192.526 181.42 L191.999 181.311 L191.484 181.203 L190.982 181.094 L190.494 180.985 L190.02 180.877 L189.56 180.768 L189.116 180.66 L188.687 180.551 L188.273 180.443 L187.875 180.334 L187.492 180.225 L187.125 180.117 L186.774 180.008 L186.438 179.9 L186.117 179.791 L185.812 179.683 L185.521 179.574 L185.245 179.465 L184.983 179.357 L184.735 179.248 L184.501 179.14 L184.28 179.031 L184.072 178.923 L183.876 178.814 L183.692 178.705 L183.52 178.597 L183.359 178.488 L183.208 178.38 L183.067 178.271 L182.936 178.163 L182.814 178.054 L182.701 177.945 L182.596 177.837 L182.499 177.728 L182.409 177.62 L182.326 177.511 L182.25 177.403 L182.18 177.294 L182.115 177.185 L182.056 177.077 L182.002 176.968 L181.952 176.86 L181.907 176.751 L181.866 176.643 L181.828 176.534 L181.794 176.425 L181.763 176.317 L181.735 176.208 L181.71 176.1 L181.687 175.991 L181.313 175.991 L181.29 176.1 L181.265 176.208 L181.237 176.317 L181.206 176.425 L181.172 176.534 L181.134 176.643 L181.093 176.751 L181.048 176.86 L180.998 176.968 L180.944 177.077 L180.885 177.185 L180.82 177.294 L180.75 177.403 L180.674 177.511 L180.591 177.62 L180.501 177.728 L180.404 177.837 L180.299 177.945 L180.186 178.054 L180.064 178.163 L179.933 178.271 L179.792 178.38 L179.641 178.488 L179.48 178.597 L179.308 178.705 L179.124 178.814 L178.928 178.923 L178.72 179.031 L178.499 179.14 L178.265 179.248 L178.017 179.357 L177.755 179.465 L177.479 179.574 L177.188 179.683 L176.883 179.791 L176.562 179.9 L176.226 180.008 L175.875 180.117 L175.508 180.225 L175.125 180.334 L174.727 180.443 L174.313 180.551 L173.884 180.66 L173.44 180.768 L172.98 180.877 L172.506 180.985 L172.018 181.094 L171.516 181.203 L171.001 181.311 L170.474 181.42 L169.934 181.528 L169.383 181.637 L168.822 181.745 L168.252 181.854 L167.673 181.963 L167.086 182.071 L166.494 182.18 L165.896 182.288 L165.294 182.397 L164.69 182.505 L164.084 182.614 L163.479 182.723 L162.874 182.831 L162.273 182.94 L161.676 183.048 L161.086 183.157 L160.502 183.265 L159.928 183.374 L159.364 183.483 L158.812 183.591 L158.274 183.7 L157.751 183.808 L157.244 183.917 L156.755 184.025 L156.286 184.134 L155.838 184.243 L155.412 184.351 L155.009 184.46 L154.631 184.568 L154.279 184.677 L153.953 184.785 L153.656 184.894 L153.387 185.003 L153.147 185.111 L152.938 185.22 L152.759 185.328 L152.612 185.437 L152.496 185.545 L152.412 185.654 L152.36 185.763 L152.34 185.871 L152.352 185.98 L152.396 186.088 L152.472 186.197 L152.578 186.305 L152.716 186.414 L152.883 186.523 L153.079 186.631 L153.304 186.74 L153.555 186.848 L153.834 186.957 L154.137 187.065 L154.464 187.174 L154.813 187.283 L155.184 187.391 L155.573 187.5 L155.981 187.608 L156.405 187.717 L156.844 187.825 L157.295 187.934 L157.758 188.043 L158.23 188.151 L158.708 188.26 L159.193 188.368 L159.681 188.477 L160.17 188.585 L160.66 188.694 L161.147 188.803 L161.63 188.911 L162.108 189.02 L162.578 189.128 L163.039 189.237 L163.489 189.345 L163.927 189.454 L164.351 189.563 L164.759 189.671 L165.151 189.78 L165.525 189.888 L165.879 189.997 L166.214 190.105 L166.527 190.214 L166.818 190.323 L167.086 190.431 L167.332 190.54 L167.553 190.648 L167.751 190.757 L167.924 190.865 L168.072 190.974 L168.197 191.083 L168.297 191.191 L168.374 191.3 L168.427 191.408 L168.457 191.517 L168.465 191.625 L168.452 191.734 L168.418 191.843 L168.365 191.951 L168.293 192.06 L168.205 192.168 L168.1 192.277 L167.982 192.385 L167.85 192.494 L167.707 192.603 L167.554 192.711 L167.392 192.82 L167.225 192.928 L167.052 193.037 L166.876 193.145 L166.698 193.254 L166.521 193.363 L166.345 193.471 L166.173 193.58 L166.006 193.688 L165.846 193.797 L165.695 193.905 L165.553 194.014 L165.422 194.123 L165.304 194.231 L165.199 194.34 L165.109 194.448 L165.036 194.557 L164.979 194.665 L164.94 194.774 L164.919 194.883 L164.918 194.991 L164.936 195.1 L164.975 195.208 L165.033 195.317 L165.112 195.425 L165.211 195.534 L165.331 195.643 L165.471 195.751 L165.631 195.86 L165.81 195.968 L166.008 196.077 L166.225 196.185 L166.459 196.294 L166.71 196.403 L166.977 196.511 L167.259 196.62 L167.555 196.728 L167.864 196.837 L168.185 196.945 L168.517 197.054 L168.859 197.163 L169.209 197.271 L169.567 197.38 L169.931 197.488 L170.299 197.597 L170.672 197.705 L171.047 197.814 L171.424 197.923 L171.801 198.031 L172.178 198.14 L172.552 198.248 L172.925 198.357 L173.293 198.465 L173.657 198.574 L174.016 198.683 L174.369 198.791 L174.715 198.9 L175.053 199.008 L175.384 199.117 L175.706 199.225 L176.019 199.334 L176.323 199.443 L176.617 199.551 L176.9 199.66 L177.174 199.768 L177.438 199.877 L177.69 199.985 L177.933 200.094 L178.164 200.203 L178.386 200.311 L178.597 200.42 L178.797 200.528 L178.987 200.637 L179.168 200.745 L179.338 200.854 L179.499 200.963 L179.651 201.071 L179.793 201.18 L179.927 201.288 L180.053 201.397 L180.17 201.505 L180.28 201.614 L180.382 201.723 L180.478 201.831 L180.566 201.94 L180.648 202.048 L180.724 202.157 L180.794 202.265 L180.859 202.374 L180.919 202.483 L180.974 202.591 L181.024 202.7 L181.07 202.808 L181.113 202.917 L181.151 203.025 L181.186 203.134 L181.219 203.243 L181.248 203.351 L181.274 203.46 L181.298 203.568 L181.32 203.677 Z" fill="#FF800E" opacity="0.5" />
  <line x1="168.27" y1="191.162" x2="194.73" y2="191.162" stroke="#333333" stroke-width="1" opacity="1" />
  <line x1="154.479" y1="187.179" x2="208.521" y2="187.179" stroke="#333333" stroke-width="1" opacity="1" />
  <line x1="152.344" y1="185.851" x2="210.656" y2="185.851" stroke="#333333" stroke-width="1" opacity="1" />
</g>
<g class="algraf-layer algraf-geom-boxplot">
  <line x1="100.5" y1="163.281" x2="100.5" y2="136.729" stroke="#000000" stroke-width="1.2" opacity="0.9" />
  <line x1="100.3" y1="163.281" x2="100.7" y2="163.281" stroke="#000000" stroke-width="1.2" opacity="0.9" />
  <line x1="100.3" y1="136.729" x2="100.7" y2="136.729" stroke="#000000" stroke-width="1.2" opacity="0.9" />
  <rect x="100" y="142.039" width="1" height="13.276" fill="#ffffff" stroke="#000000" stroke-width="1.2" opacity="0.9" />
  <line x1="100" y1="147.35" x2="101" y2="147.35" stroke="#000000" stroke-width="1.2" opacity="0.9" />
  <line x1="181.5" y1="195.145" x2="181.5" y2="184.523" stroke="#000000" stroke-width="1.2" opacity="0.9" />
  <line x1="181.3" y1="195.145" x2="181.7" y2="195.145" stroke="#000000" stroke-width="1.2" opacity="0.9" />
  <line x1="181.3" y1="184.523" x2="181.7" y2="184.523" stroke="#000000" stroke-width="1.2" opacity="0.9" />
  <rect x="181" y="185.851" width="1" height="5.311" fill="#ffffff" stroke="#000000" stroke-width="1.2" opacity="0.9" />
  <line x1="181" y1="187.179" x2="182" y2="187.179" stroke="#000000" stroke-width="1.2" opacity="0.9" />
</g>
<g class="algraf-layer algraf-geom-rug">
  <line x1="60" y1="163.281" x2="66" y2="163.281" stroke="#006BA4" stroke-width="1.5" opacity="0.35" />
  <line x1="60" y1="136.729" x2="66" y2="136.729" stroke="#006BA4" stroke-width="1.5" opacity="0.35" />
  <line x1="60" y1="147.35" x2="66" y2="147.35" stroke="#006BA4" stroke-width="1.5" opacity="0.35" />
  <line x1="60" y1="195.145" x2="66" y2="195.145" stroke="#FF800E" stroke-width="1.5" opacity="0.35" />
  <line x1="60" y1="184.523" x2="66" y2="184.523" stroke="#FF800E" stroke-width="1.5" opacity="0.35" />
  <line x1="60" y1="187.179" x2="66" y2="187.179" stroke="#FF800E" stroke-width="1.5" opacity="0.35" />
</g>
<g class="algraf-layer algraf-geom-violin">
  <path d="M334.696 154.838 L334.719 154.675 L334.745 154.512 L334.774 154.349 L334.806 154.186 L334.841 154.023 L334.879 153.861 L334.921 153.698 L334.967 153.535 L335.017 153.372 L335.072 153.209 L335.131 153.046 L335.196 152.883 L335.267 152.721 L335.343 152.558 L335.425 152.395 L335.515 152.232 L335.611 152.069 L335.714 151.906 L335.825 151.743 L335.944 151.581 L336.072 151.418 L336.208 151.255 L336.354 151.092 L336.509 150.929 L336.674 150.766 L336.849 150.603 L337.034 150.441 L337.23 150.278 L337.437 150.115 L337.654 149.952 L337.884 149.789 L338.124 149.626 L338.376 149.463 L338.639 149.301 L338.914 149.138 L339.201 148.975 L339.499 148.812 L339.807 148.649 L340.127 148.486 L340.458 148.323 L340.798 148.161 L341.149 147.998 L341.509 147.835 L341.878 147.672 L342.255 147.509 L342.64 147.346 L343.031 147.183 L343.428 147.021 L343.831 146.858 L344.237 146.695 L344.647 146.532 L345.059 146.369 L345.472 146.206 L345.886 146.043 L346.297 145.881 L346.707 145.718 L347.113 145.555 L347.514 145.392 L347.909 145.229 L348.297 145.066 L348.677 144.903 L349.046 144.741 L349.405 144.578 L349.752 144.415 L350.086 144.252 L350.406 144.089 L350.711 143.926 L351 143.763 L351.271 143.601 L351.526 143.438 L351.762 143.275 L351.979 143.112 L352.177 142.949 L352.356 142.786 L352.515 142.623 L352.653 142.461 L352.772 142.298 L352.871 142.135 L352.951 141.972 L353.011 141.809 L353.053 141.646 L353.076 141.483 L353.083 141.321 L353.073 141.158 L353.047 140.995 L353.007 140.832 L352.954 140.669 L352.889 140.506 L352.813 140.343 L352.728 140.181 L352.635 140.018 L352.536 139.855 L352.432 139.692 L352.325 139.529 L352.217 139.366 L352.108 139.203 L352.002 139.041 L351.899 138.878 L351.801 138.715 L351.709 138.552 L351.625 138.389 L351.551 138.226 L351.488 138.063 L351.437 137.901 L351.399 137.738 L351.376 137.575 L351.368 137.412 L351.377 137.249 L351.403 137.086 L351.447 136.923 L351.509 136.761 L351.59 136.598 L351.691 136.435 L351.811 136.272 L351.95 136.109 L352.109 135.946 L352.287 135.783 L352.484 135.621 L352.699 135.458 L352.933 135.295 L353.183 135.132 L353.45 134.969 L353.733 134.806 L354.03 134.643 L354.341 134.481 L354.665 134.318 L354.999 134.155 L355.344 133.992 L355.697 133.829 L356.058 133.666 L356.425 133.503 L356.796 133.341 L357.17 133.178 L357.546 133.015 L357.922 132.852 L358.297 132.689 L358.669 132.526 L359.037 132.363 L359.399 132.201 L359.754 132.038 L360.101 131.875 L360.439 131.712 L360.765 131.549 L361.079 131.386 L361.379 131.223 L361.666 131.061 L361.936 130.898 L362.19 130.735 L362.427 130.572 L362.645 130.409 L362.843 130.246 L363.022 130.083 L363.18 129.921 L363.317 129.758 L363.431 129.595 L363.523 129.432 L363.592 129.269 L363.638 129.106 L363.66 128.943 L363.658 128.781 L363.632 128.618 L363.582 128.455 L363.507 128.292 L363.408 128.129 L363.285 127.966 L363.138 127.803 L362.966 127.641 L362.771 127.478 L362.552 127.315 L362.311 127.152 L362.046 126.989 L361.759 126.826 L361.45 126.663 L361.12 126.501 L360.77 126.338 L360.399 126.175 L360.01 126.012 L359.602 125.849 L359.176 125.686 L358.734 125.523 L358.276 125.361 L357.804 125.198 L357.317 125.035 L356.818 124.872 L356.307 124.709 L355.785 124.546 L355.254 124.383 L354.714 124.221 L354.167 124.058 L353.615 123.895 L353.057 123.732 L352.495 123.569 L351.931 123.406 L351.366 123.243 L350.8 123.081 L350.235 122.918 L349.672 122.755 L349.112 122.592 L348.556 122.429 L348.005 122.266 L347.46 122.103 L346.922 121.941 L346.392 121.778 L345.871 121.615 L345.359 121.452 L344.857 121.289 L344.366 121.126 L343.886 120.964 L343.419 120.801 L342.964 120.638 L342.522 120.475 L342.093 120.312 L341.678 120.149 L341.276 119.986 L340.889 119.824 L340.516 119.661 L340.158 119.498 L339.813 119.335 L339.483 119.172 L339.167 119.009 L338.866 118.846 L338.578 118.684 L338.304 118.521 L338.044 118.358 L337.797 118.195 L337.564 118.032 L337.342 117.869 L337.134 117.706 L336.937 117.544 L336.751 117.381 L336.577 117.218 L336.414 117.055 L336.261 116.892 L336.119 116.729 L335.985 116.566 L335.861 116.404 L335.745 116.241 L335.638 116.078 L335.538 115.915 L335.446 115.752 L335.361 115.589 L335.282 115.426 L335.21 115.264 L335.143 115.101 L335.082 114.938 L335.026 114.775 L334.974 114.612 L334.927 114.449 L334.884 114.286 L334.845 114.124 L334.81 113.961 L334.778 113.798 L334.748 113.635 L334.722 113.472 L334.698 113.309 L334.302 113.309 L334.278 113.472 L334.252 113.635 L334.222 113.798 L334.19 113.961 L334.155 114.124 L334.116 114.286 L334.073 114.449 L334.026 114.612 L333.974 114.775 L333.918 114.938 L333.857 115.101 L333.79 115.264 L333.718 115.426 L333.639 115.589 L333.554 115.752 L333.462 115.915 L333.362 116.078 L333.255 116.241 L333.139 116.404 L333.015 116.566 L332.881 116.729 L332.739 116.892 L332.586 117.055 L332.423 117.218 L332.249 117.381 L332.063 117.544 L331.866 117.706 L331.658 117.869 L331.436 118.032 L331.203 118.195 L330.956 118.358 L330.696 118.521 L330.422 118.684 L330.134 118.846 L329.833 119.009 L329.517 119.172 L329.187 119.335 L328.842 119.498 L328.484 119.661 L328.111 119.824 L327.724 119.986 L327.322 120.149 L326.907 120.312 L326.478 120.475 L326.036 120.638 L325.581 120.801 L325.114 120.964 L324.634 121.126 L324.143 121.289 L323.641 121.452 L323.129 121.615 L322.608 121.778 L322.078 121.941 L321.54 122.103 L320.995 122.266 L320.444 122.429 L319.888 122.592 L319.328 122.755 L318.765 122.918 L318.2 123.081 L317.634 123.243 L317.069 123.406 L316.505 123.569 L315.943 123.732 L315.385 123.895 L314.833 124.058 L314.286 124.221 L313.746 124.383 L313.215 124.546 L312.693 124.709 L312.182 124.872 L311.683 125.035 L311.196 125.198 L310.724 125.361 L310.266 125.523 L309.824 125.686 L309.398 125.849 L308.99 126.012 L308.601 126.175 L308.23 126.338 L307.88 126.501 L307.55 126.663 L307.241 126.826 L306.954 126.989 L306.689 127.152 L306.448 127.315 L306.229 127.478 L306.034 127.641 L305.862 127.803 L305.715 127.966 L305.592 128.129 L305.493 128.292 L305.418 128.455 L305.368 128.618 L305.342 128.781 L305.34 128.943 L305.362 129.106 L305.408 129.269 L305.477 129.432 L305.569 129.595 L305.683 129.758 L305.82 129.921 L305.978 130.083 L306.157 130.246 L306.355 130.409 L306.573 130.572 L306.81 130.735 L307.064 130.898 L307.334 131.061 L307.621 131.223 L307.921 131.386 L308.235 131.549 L308.561 131.712 L308.899 131.875 L309.246 132.038 L309.601 132.201 L309.963 132.363 L310.331 132.526 L310.703 132.689 L311.078 132.852 L311.454 133.015 L311.83 133.178 L312.204 133.341 L312.575 133.503 L312.942 133.666 L313.303 133.829 L313.656 133.992 L314.001 134.155 L314.335 134.318 L314.659 134.481 L314.97 134.643 L315.267 134.806 L315.55 134.969 L315.817 135.132 L316.067 135.295 L316.301 135.458 L316.516 135.621 L316.713 135.783 L316.891 135.946 L317.05 136.109 L317.189 136.272 L317.309 136.435 L317.41 136.598 L317.491 136.761 L317.553 136.923 L317.597 137.086 L317.623 137.249 L317.632 137.412 L317.624 137.575 L317.601 137.738 L317.563 137.901 L317.512 138.063 L317.449 138.226 L317.375 138.389 L317.291 138.552 L317.199 138.715 L317.101 138.878 L316.998 139.041 L316.892 139.203 L316.783 139.366 L316.675 139.529 L316.568 139.692 L316.464 139.855 L316.365 140.018 L316.272 140.181 L316.187 140.343 L316.111 140.506 L316.046 140.669 L315.993 140.832 L315.953 140.995 L315.927 141.158 L315.917 141.321 L315.924 141.483 L315.947 141.646 L315.989 141.809 L316.049 141.972 L316.129 142.135 L316.228 142.298 L316.347 142.461 L316.485 142.623 L316.644 142.786 L316.823 142.949 L317.021 143.112 L317.238 143.275 L317.474 143.438 L317.729 143.601 L318 143.763 L318.289 143.926 L318.594 144.089 L318.914 144.252 L319.248 144.415 L319.595 144.578 L319.954 144.741 L320.323 144.903 L320.703 145.066 L321.091 145.229 L321.486 145.392 L321.887 145.555 L322.293 145.718 L322.703 145.881 L323.114 146.043 L323.528 146.206 L323.941 146.369 L324.353 146.532 L324.763 146.695 L325.169 146.858 L325.572 147.021 L325.969 147.183 L326.36 147.346 L326.745 147.509 L327.122 147.672 L327.491 147.835 L327.851 147.998 L328.202 148.161 L328.542 148.323 L328.873 148.486 L329.193 148.649 L329.501 148.812 L329.799 148.975 L330.086 149.138 L330.361 149.301 L330.624 149.463 L330.876 149.626 L331.116 149.789 L331.346 149.952 L331.563 150.115 L331.77 150.278 L331.966 150.441 L332.151 150.603 L332.326 150.766 L332.491 150.929 L332.646 151.092 L332.792 151.255 L332.928 151.418 L333.056 151.581 L333.175 151.743 L333.286 151.906 L333.389 152.069 L333.485 152.232 L333.575 152.395 L333.657 152.558 L333.733 152.721 L333.804 152.883 L333.869 153.046 L333.928 153.209 L333.983 153.372 L334.033 153.535 L334.079 153.698 L334.121 153.861 L334.159 154.023 L334.194 154.186 L334.226 154.349 L334.255 154.512 L334.281 154.675 L334.304 154.838 Z" fill="#006BA4" opacity="0.5" />
  <line x1="317.475" y1="136.729" x2="351.525" y2="136.729" stroke="#333333" stroke-width="1" opacity="1" />
  <line x1="307.983" y1="131.418" x2="361.017" y2="131.418" stroke="#333333" stroke-width="1" opacity="1" />
  <line x1="305.345" y1="128.763" x2="363.655" y2="128.763" stroke="#333333" stroke-width="1" opacity="1" />
  <path d="M415.698 186.701 L415.722 186.538 L415.748 186.375 L415.778 186.212 L415.81 186.049 L415.845 185.887 L415.884 185.724 L415.927 185.561 L415.974 185.398 L416.026 185.235 L416.082 185.072 L416.143 184.909 L416.21 184.747 L416.282 184.584 L416.361 184.421 L416.446 184.258 L416.538 184.095 L416.638 183.932 L416.745 183.769 L416.861 183.607 L416.985 183.444 L417.119 183.281 L417.261 183.118 L417.414 182.955 L417.577 182.792 L417.751 182.629 L417.937 182.467 L418.134 182.304 L418.342 182.141 L418.564 181.978 L418.797 181.815 L419.044 181.652 L419.304 181.489 L419.578 181.327 L419.866 181.164 L420.167 181.001 L420.483 180.838 L420.813 180.675 L421.158 180.512 L421.516 180.349 L421.889 180.187 L422.276 180.024 L422.678 179.861 L423.093 179.698 L423.522 179.535 L423.964 179.372 L424.419 179.209 L424.886 179.047 L425.366 178.884 L425.857 178.721 L426.359 178.558 L426.871 178.395 L427.392 178.232 L427.922 178.069 L428.46 177.907 L429.005 177.744 L429.556 177.581 L430.112 177.418 L430.672 177.255 L431.235 177.092 L431.8 176.929 L432.366 176.767 L432.931 176.604 L433.495 176.441 L434.057 176.278 L434.615 176.115 L435.167 175.952 L435.714 175.789 L436.254 175.627 L436.785 175.464 L437.307 175.301 L437.818 175.138 L438.317 174.975 L438.804 174.812 L439.276 174.649 L439.734 174.487 L440.176 174.324 L440.602 174.161 L441.01 173.998 L441.399 173.835 L441.77 173.672 L442.12 173.509 L442.45 173.347 L442.759 173.184 L443.046 173.021 L443.311 172.858 L443.552 172.695 L443.771 172.532 L443.966 172.369 L444.138 172.207 L444.285 172.044 L444.408 171.881 L444.507 171.718 L444.582 171.555 L444.632 171.392 L444.658 171.229 L444.66 171.067 L444.638 170.904 L444.592 170.741 L444.523 170.578 L444.431 170.415 L444.317 170.252 L444.18 170.089 L444.022 169.927 L443.843 169.764 L443.645 169.601 L443.427 169.438 L443.19 169.275 L442.936 169.112 L442.666 168.949 L442.379 168.787 L442.079 168.624 L441.765 168.461 L441.439 168.298 L441.101 168.135 L440.754 167.972 L440.399 167.809 L440.037 167.647 L439.669 167.484 L439.297 167.321 L438.922 167.158 L438.546 166.995 L438.17 166.832 L437.796 166.669 L437.425 166.507 L437.058 166.344 L436.697 166.181 L436.344 166.018 L435.999 165.855 L435.665 165.692 L435.341 165.529 L435.03 165.367 L434.733 165.204 L434.45 165.041 L434.183 164.878 L433.933 164.715 L433.699 164.552 L433.484 164.389 L433.287 164.227 L433.109 164.064 L432.95 163.901 L432.811 163.738 L432.691 163.575 L432.59 163.412 L432.509 163.249 L432.447 163.087 L432.403 162.924 L432.377 162.761 L432.368 162.598 L432.376 162.435 L432.399 162.272 L432.437 162.109 L432.488 161.947 L432.551 161.784 L432.625 161.621 L432.709 161.458 L432.801 161.295 L432.899 161.132 L433.002 160.969 L433.108 160.807 L433.217 160.644 L433.325 160.481 L433.432 160.318 L433.536 160.155 L433.635 159.992 L433.728 159.829 L433.813 159.667 L433.889 159.504 L433.954 159.341 L434.007 159.178 L434.047 159.015 L434.073 158.852 L434.083 158.689 L434.076 158.527 L434.053 158.364 L434.011 158.201 L433.951 158.038 L433.871 157.875 L433.772 157.712 L433.653 157.55 L433.515 157.387 L433.356 157.224 L433.177 157.061 L432.979 156.898 L432.762 156.735 L432.526 156.572 L432.271 156.41 L432 156.247 L431.711 156.084 L431.406 155.921 L431.086 155.758 L430.752 155.595 L430.405 155.432 L430.046 155.27 L429.677 155.107 L429.297 154.944 L428.909 154.781 L428.514 154.618 L428.113 154.455 L427.707 154.292 L427.297 154.13 L426.886 153.967 L426.472 153.804 L426.059 153.641 L425.647 153.478 L425.237 153.315 L424.831 153.152 L424.428 152.99 L424.031 152.827 L423.64 152.664 L423.255 152.501 L422.878 152.338 L422.509 152.175 L422.149 152.012 L421.798 151.85 L421.458 151.687 L421.127 151.524 L420.807 151.361 L420.499 151.198 L420.201 151.035 L419.914 150.872 L419.639 150.71 L419.376 150.547 L419.124 150.384 L418.884 150.221 L418.654 150.058 L418.437 149.895 L418.23 149.732 L418.034 149.57 L417.849 149.407 L417.674 149.244 L417.509 149.081 L417.354 148.918 L417.208 148.755 L417.072 148.592 L416.944 148.43 L416.825 148.267 L416.714 148.104 L416.611 147.941 L416.515 147.778 L416.425 147.615 L416.343 147.452 L416.267 147.29 L416.196 147.127 L416.131 146.964 L416.072 146.801 L416.017 146.638 L415.967 146.475 L415.921 146.312 L415.879 146.15 L415.841 145.987 L415.806 145.824 L415.774 145.661 L415.745 145.498 L415.719 145.335 L415.696 145.172 L415.304 145.172 L415.281 145.335 L415.255 145.498 L415.226 145.661 L415.194 145.824 L415.159 145.987 L415.121 146.15 L415.079 146.312 L415.033 146.475 L414.983 146.638 L414.928 146.801 L414.869 146.964 L414.804 147.127 L414.733 147.29 L414.657 147.452 L414.575 147.615 L414.485 147.778 L414.389 147.941 L414.286 148.104 L414.175 148.267 L414.056 148.43 L413.928 148.592 L413.792 148.755 L413.646 148.918 L413.491 149.081 L413.326 149.244 L413.151 149.407 L412.966 149.57 L412.77 149.732 L412.563 149.895 L412.346 150.058 L412.116 150.221 L411.876 150.384 L411.624 150.547 L411.361 150.71 L411.086 150.872 L410.799 151.035 L410.501 151.198 L410.193 151.361 L409.873 151.524 L409.542 151.687 L409.202 151.85 L408.851 152.012 L408.491 152.175 L408.122 152.338 L407.745 152.501 L407.36 152.664 L406.969 152.827 L406.572 152.99 L406.169 153.152 L405.763 153.315 L405.353 153.478 L404.941 153.641 L404.528 153.804 L404.114 153.967 L403.703 154.13 L403.293 154.292 L402.887 154.455 L402.486 154.618 L402.091 154.781 L401.703 154.944 L401.323 155.107 L400.954 155.27 L400.595 155.432 L400.248 155.595 L399.914 155.758 L399.594 155.921 L399.289 156.084 L399 156.247 L398.729 156.41 L398.474 156.572 L398.238 156.735 L398.021 156.898 L397.823 157.061 L397.644 157.224 L397.485 157.387 L397.347 157.55 L397.228 157.712 L397.129 157.875 L397.049 158.038 L396.989 158.201 L396.947 158.364 L396.924 158.527 L396.917 158.689 L396.927 158.852 L396.953 159.015 L396.993 159.178 L397.046 159.341 L397.111 159.504 L397.187 159.667 L397.272 159.829 L397.365 159.992 L397.464 160.155 L397.568 160.318 L397.675 160.481 L397.783 160.644 L397.892 160.807 L397.998 160.969 L398.101 161.132 L398.199 161.295 L398.291 161.458 L398.375 161.621 L398.449 161.784 L398.512 161.947 L398.563 162.109 L398.601 162.272 L398.624 162.435 L398.632 162.598 L398.623 162.761 L398.597 162.924 L398.553 163.087 L398.491 163.249 L398.41 163.412 L398.309 163.575 L398.189 163.738 L398.05 163.901 L397.891 164.064 L397.713 164.227 L397.516 164.389 L397.301 164.552 L397.067 164.715 L396.817 164.878 L396.55 165.041 L396.267 165.204 L395.97 165.367 L395.659 165.529 L395.335 165.692 L395.001 165.855 L394.656 166.018 L394.303 166.181 L393.942 166.344 L393.575 166.507 L393.204 166.669 L392.83 166.832 L392.454 166.995 L392.078 167.158 L391.703 167.321 L391.331 167.484 L390.963 167.647 L390.601 167.809 L390.246 167.972 L389.899 168.135 L389.561 168.298 L389.235 168.461 L388.921 168.624 L388.621 168.787 L388.334 168.949 L388.064 169.112 L387.81 169.275 L387.573 169.438 L387.355 169.601 L387.157 169.764 L386.978 169.927 L386.82 170.089 L386.683 170.252 L386.569 170.415 L386.477 170.578 L386.408 170.741 L386.362 170.904 L386.34 171.067 L386.342 171.229 L386.368 171.392 L386.418 171.555 L386.493 171.718 L386.592 171.881 L386.715 172.044 L386.862 172.207 L387.034 172.369 L387.229 172.532 L387.448 172.695 L387.689 172.858 L387.954 173.021 L388.241 173.184 L388.55 173.347 L388.88 173.509 L389.23 173.672 L389.601 173.835 L389.99 173.998 L390.398 174.161 L390.824 174.324 L391.266 174.487 L391.724 174.649 L392.196 174.812 L392.683 174.975 L393.182 175.138 L393.693 175.301 L394.215 175.464 L394.746 175.627 L395.286 175.789 L395.833 175.952 L396.385 176.115 L396.943 176.278 L397.505 176.441 L398.069 176.604 L398.634 176.767 L399.2 176.929 L399.765 177.092 L400.328 177.255 L400.888 177.418 L401.444 177.581 L401.995 177.744 L402.54 177.907 L403.078 178.069 L403.608 178.232 L404.129 178.395 L404.641 178.558 L405.143 178.721 L405.634 178.884 L406.114 179.047 L406.581 179.209 L407.036 179.372 L407.478 179.535 L407.907 179.698 L408.322 179.861 L408.724 180.024 L409.111 180.187 L409.484 180.349 L409.842 180.512 L410.187 180.675 L410.517 180.838 L410.833 181.001 L411.134 181.164 L411.422 181.327 L411.696 181.489 L411.956 181.652 L412.203 181.815 L412.436 181.978 L412.658 182.141 L412.866 182.304 L413.063 182.467 L413.249 182.629 L413.423 182.792 L413.586 182.955 L413.739 183.118 L413.881 183.281 L414.015 183.444 L414.139 183.607 L414.255 183.769 L414.362 183.932 L414.462 184.095 L414.554 184.258 L414.639 184.421 L414.718 184.584 L414.79 184.747 L414.857 184.909 L414.918 185.072 L414.974 185.235 L415.026 185.398 L415.073 185.561 L415.116 185.724 L415.155 185.887 L415.19 186.049 L415.222 186.212 L415.252 186.375 L415.278 186.538 L415.302 186.701 Z" fill="#FF800E" opacity="0.5" />
  <line x1="386.345" y1="171.247" x2="444.655" y2="171.247" stroke="#333333" stroke-width="1" opacity="1" />
  <line x1="388.983" y1="168.592" x2="442.017" y2="168.592" stroke="#333333" stroke-width="1" opacity="1" />
  <line x1="398.475" y1="163.281" x2="432.525" y2="163.281" stroke="#333333" stroke-width="1" opacity="1" />
</g>
<g class="algraf-layer algraf-geom-boxplot">
  <line x1="334.5" y1="142.039" x2="334.5" y2="126.108" stroke="#000000" stroke-width="1.2" opacity="0.9" />
  <line x1="334.3" y1="142.039" x2="334.7" y2="142.039" stroke="#000000" stroke-width="1.2" opacity="0.9" />
  <line x1="334.3" y1="126.108" x2="334.7" y2="126.108" stroke="#000000" stroke-width="1.2" opacity="0.9" />
  <rect x="334" y="128.763" width="1" height="7.966" fill="#ffffff" stroke="#000000" stroke-width="1.2" opacity="0.9" />
  <line x1="334" y1="131.418" x2="335" y2="131.418" stroke="#000000" stroke-width="1.2" opacity="0.9" />
  <line x1="415.5" y1="173.902" x2="415.5" y2="157.971" stroke="#000000" stroke-width="1.2" opacity="0.9" />
  <line x1="415.3" y1="173.902" x2="415.7" y2="173.902" stroke="#000000" stroke-width="1.2" opacity="0.9" />
  <line x1="415.3" y1="157.971" x2="415.7" y2="157.971" stroke="#000000" stroke-width="1.2" opacity="0.9" />
  <rect x="415" y="163.281" width="1" height="7.966" fill="#ffffff" stroke="#000000" stroke-width="1.2" opacity="0.9" />
  <line x1="415" y1="168.592" x2="416" y2="168.592" stroke="#000000" stroke-width="1.2" opacity="0.9" />
</g>
<g class="algraf-layer algraf-geom-rug">
  <line x1="294" y1="131.418" x2="300" y2="131.418" stroke="#006BA4" stroke-width="1.5" opacity="0.35" />
  <line x1="294" y1="142.039" x2="300" y2="142.039" stroke="#006BA4" stroke-width="1.5" opacity="0.35" />
  <line x1="294" y1="126.108" x2="300" y2="126.108" stroke="#006BA4" stroke-width="1.5" opacity="0.35" />
  <line x1="294" y1="173.902" x2="300" y2="173.902" stroke="#FF800E" stroke-width="1.5" opacity="0.35" />
  <line x1="294" y1="168.592" x2="300" y2="168.592" stroke="#FF800E" stroke-width="1.5" opacity="0.35" />
  <line x1="294" y1="157.971" x2="300" y2="157.971" stroke="#FF800E" stroke-width="1.5" opacity="0.35" />
</g>
<g class="algraf-layer algraf-geom-violin">
  <path d="M568.74 187.745 L568.769 187.637 L568.801 187.528 L568.836 187.42 L568.875 187.311 L568.918 187.202 L568.965 187.094 L569.017 186.985 L569.073 186.877 L569.135 186.768 L569.202 186.66 L569.276 186.551 L569.355 186.442 L569.442 186.334 L569.536 186.225 L569.637 186.117 L569.747 186.008 L569.865 185.9 L569.992 185.791 L570.129 185.682 L570.276 185.574 L570.433 185.465 L570.602 185.357 L570.781 185.248 L570.972 185.14 L571.176 185.031 L571.392 184.922 L571.621 184.814 L571.863 184.705 L572.119 184.597 L572.389 184.488 L572.673 184.38 L572.971 184.271 L573.284 184.162 L573.612 184.054 L573.954 183.945 L574.31 183.837 L574.682 183.728 L575.068 183.62 L575.468 183.511 L575.882 183.402 L576.309 183.294 L576.75 183.185 L577.204 183.077 L577.67 182.968 L578.147 182.86 L578.635 182.751 L579.134 182.642 L579.642 182.534 L580.158 182.425 L580.681 182.317 L581.211 182.208 L581.746 182.1 L582.285 181.991 L582.828 181.882 L583.372 181.774 L583.917 181.665 L584.461 181.557 L585.003 181.448 L585.542 181.34 L586.077 181.231 L586.606 181.122 L587.128 181.014 L587.641 180.905 L588.146 180.797 L588.64 180.688 L589.123 180.58 L589.593 180.471 L590.05 180.362 L590.492 180.254 L590.92 180.145 L591.331 180.037 L591.727 179.928 L592.106 179.82 L592.467 179.711 L592.812 179.602 L593.138 179.494 L593.447 179.385 L593.739 179.277 L594.012 179.168 L594.269 179.06 L594.508 178.951 L594.731 178.842 L594.938 178.734 L595.13 178.625 L595.306 178.517 L595.469 178.408 L595.618 178.3 L595.754 178.191 L595.879 178.082 L595.993 177.974 L596.097 177.865 L596.192 177.757 L596.278 177.648 L596.358 177.54 L596.43 177.431 L596.497 177.322 L596.56 177.214 L596.618 177.105 L596.672 176.997 L596.724 176.888 L596.773 176.78 L596.821 176.671 L596.867 176.562 L596.913 176.454 L596.957 176.345 L597.001 176.237 L597.045 176.128 L597.089 176.02 L597.132 175.911 L597.175 175.802 L597.218 175.694 L597.26 175.585 L597.302 175.477 L597.342 175.368 L597.382 175.26 L597.42 175.151 L597.456 175.042 L597.49 174.934 L597.522 174.825 L597.551 174.717 L597.577 174.608 L597.6 174.5 L597.62 174.391 L597.636 174.282 L597.648 174.174 L597.656 174.065 L597.66 173.957 L597.66 173.848 L597.656 173.74 L597.648 173.631 L597.636 173.522 L597.62 173.414 L597.6 173.305 L597.577 173.197 L597.551 173.088 L597.522 172.98 L597.49 172.871 L597.456 172.762 L597.42 172.654 L597.382 172.545 L597.342 172.437 L597.302 172.328 L597.26 172.22 L597.218 172.111 L597.175 172.002 L597.132 171.894 L597.089 171.785 L597.045 171.677 L597.001 171.568 L596.957 171.46 L596.913 171.351 L596.867 171.242 L596.821 171.134 L596.773 171.025 L596.724 170.917 L596.672 170.808 L596.618 170.7 L596.56 170.591 L596.497 170.482 L596.43 170.374 L596.358 170.265 L596.278 170.157 L596.192 170.048 L596.097 169.94 L595.993 169.831 L595.879 169.722 L595.754 169.614 L595.618 169.505 L595.469 169.397 L595.306 169.288 L595.13 169.18 L594.938 169.071 L594.731 168.962 L594.508 168.854 L594.269 168.745 L594.012 168.637 L593.739 168.528 L593.447 168.42 L593.138 168.311 L592.812 168.202 L592.467 168.094 L592.106 167.985 L591.727 167.877 L591.331 167.768 L590.92 167.66 L590.492 167.551 L590.05 167.442 L589.593 167.334 L589.123 167.225 L588.64 167.117 L588.146 167.008 L587.641 166.9 L587.128 166.791 L586.606 166.682 L586.077 166.574 L585.542 166.465 L585.003 166.357 L584.461 166.248 L583.917 166.14 L583.372 166.031 L582.828 165.922 L582.285 165.814 L581.746 165.705 L581.211 165.597 L580.681 165.488 L580.158 165.38 L579.642 165.271 L579.134 165.162 L578.635 165.054 L578.147 164.945 L577.67 164.837 L577.204 164.728 L576.75 164.62 L576.309 164.511 L575.882 164.402 L575.468 164.294 L575.068 164.185 L574.682 164.077 L574.31 163.968 L573.954 163.86 L573.612 163.751 L573.284 163.642 L572.971 163.534 L572.673 163.425 L572.389 163.317 L572.119 163.208 L571.863 163.1 L571.621 162.991 L571.392 162.882 L571.176 162.774 L570.972 162.665 L570.781 162.557 L570.602 162.448 L570.433 162.34 L570.276 162.231 L570.129 162.122 L569.992 162.014 L569.865 161.905 L569.747 161.797 L569.637 161.688 L569.536 161.58 L569.442 161.471 L569.355 161.362 L569.276 161.254 L569.202 161.145 L569.135 161.037 L569.073 160.928 L569.017 160.82 L568.965 160.711 L568.918 160.602 L568.875 160.494 L568.836 160.385 L568.801 160.277 L568.769 160.168 L568.74 160.06 L568.26 160.06 L568.231 160.168 L568.199 160.277 L568.164 160.385 L568.125 160.494 L568.082 160.602 L568.035 160.711 L567.983 160.82 L567.927 160.928 L567.865 161.037 L567.798 161.145 L567.724 161.254 L567.645 161.362 L567.558 161.471 L567.464 161.58 L567.363 161.688 L567.253 161.797 L567.135 161.905 L567.008 162.014 L566.871 162.122 L566.724 162.231 L566.567 162.34 L566.398 162.448 L566.219 162.557 L566.028 162.665 L565.824 162.774 L565.608 162.882 L565.379 162.991 L565.137 163.1 L564.881 163.208 L564.611 163.317 L564.327 163.425 L564.029 163.534 L563.716 163.642 L563.388 163.751 L563.046 163.86 L562.69 163.968 L562.318 164.077 L561.932 164.185 L561.532 164.294 L561.118 164.402 L560.691 164.511 L560.25 164.62 L559.796 164.728 L559.33 164.837 L558.853 164.945 L558.365 165.054 L557.866 165.162 L557.358 165.271 L556.842 165.38 L556.319 165.488 L555.789 165.597 L555.254 165.705 L554.715 165.814 L554.172 165.922 L553.628 166.031 L553.083 166.14 L552.539 166.248 L551.997 166.357 L551.458 166.465 L550.923 166.574 L550.394 166.682 L549.872 166.791 L549.359 166.9 L548.854 167.008 L548.36 167.117 L547.877 167.225 L547.407 167.334 L546.95 167.442 L546.508 167.551 L546.08 167.66 L545.669 167.768 L545.273 167.877 L544.894 167.985 L544.533 168.094 L544.188 168.202 L543.862 168.311 L543.553 168.42 L543.261 168.528 L542.988 168.637 L542.731 168.745 L542.492 168.854 L542.269 168.962 L542.062 169.071 L541.87 169.18 L541.694 169.288 L541.531 169.397 L541.382 169.505 L541.246 169.614 L541.121 169.722 L541.007 169.831 L540.903 169.94 L540.808 170.048 L540.722 170.157 L540.642 170.265 L540.57 170.374 L540.503 170.482 L540.44 170.591 L540.382 170.7 L540.328 170.808 L540.276 170.917 L540.227 171.025 L540.179 171.134 L540.133 171.242 L540.087 171.351 L540.043 171.46 L539.999 171.568 L539.955 171.677 L539.911 171.785 L539.868 171.894 L539.825 172.002 L539.782 172.111 L539.74 172.22 L539.698 172.328 L539.658 172.437 L539.618 172.545 L539.58 172.654 L539.544 172.762 L539.51 172.871 L539.478 172.98 L539.449 173.088 L539.423 173.197 L539.4 173.305 L539.38 173.414 L539.364 173.522 L539.352 173.631 L539.344 173.74 L539.34 173.848 L539.34 173.957 L539.344 174.065 L539.352 174.174 L539.364 174.282 L539.38 174.391 L539.4 174.5 L539.423 174.608 L539.449 174.717 L539.478 174.825 L539.51 174.934 L539.544 175.042 L539.58 175.151 L539.618 175.26 L539.658 175.368 L539.698 175.477 L539.74 175.585 L539.782 175.694 L539.825 175.802 L539.868 175.911 L539.911 176.02 L539.955 176.128 L539.999 176.237 L540.043 176.345 L540.087 176.454 L540.133 176.562 L540.179 176.671 L540.227 176.78 L540.276 176.888 L540.328 176.997 L540.382 177.105 L540.44 177.214 L540.503 177.322 L540.57 177.431 L540.642 177.54 L540.722 177.648 L540.808 177.757 L540.903 177.865 L541.007 177.974 L541.121 178.082 L541.246 178.191 L541.382 178.3 L541.531 178.408 L541.694 178.517 L541.87 178.625 L542.062 178.734 L542.269 178.842 L542.492 178.951 L542.731 179.06 L542.988 179.168 L543.261 179.277 L543.553 179.385 L543.862 179.494 L544.188 179.602 L544.533 179.711 L544.894 179.82 L545.273 179.928 L545.669 180.037 L546.08 180.145 L546.508 180.254 L546.95 180.362 L547.407 180.471 L547.877 180.58 L548.36 180.688 L548.854 180.797 L549.359 180.905 L549.872 181.014 L550.394 181.122 L550.923 181.231 L551.458 181.34 L551.997 181.448 L552.539 181.557 L553.083 181.665 L553.628 181.774 L554.172 181.882 L554.715 181.991 L555.254 182.1 L555.789 182.208 L556.319 182.317 L556.842 182.425 L557.358 182.534 L557.866 182.642 L558.365 182.751 L558.853 182.86 L559.33 182.968 L559.796 183.077 L560.25 183.185 L560.691 183.294 L561.118 183.402 L561.532 183.511 L561.932 183.62 L562.318 183.728 L562.69 183.837 L563.046 183.945 L563.388 184.054 L563.716 184.162 L564.029 184.271 L564.327 184.38 L564.611 184.488 L564.881 184.597 L565.137 184.705 L565.379 184.814 L565.608 184.922 L565.824 185.031 L566.028 185.14 L566.219 185.248 L566.398 185.357 L566.567 185.465 L566.724 185.574 L566.871 185.682 L567.008 185.791 L567.135 185.9 L567.253 186.008 L567.363 186.117 L567.464 186.225 L567.558 186.334 L567.645 186.442 L567.724 186.551 L567.798 186.66 L567.865 186.768 L567.927 186.877 L567.983 186.985 L568.035 187.094 L568.082 187.202 L568.125 187.311 L568.164 187.42 L568.199 187.528 L568.231 187.637 L568.26 187.745 Z" fill="#006BA4" opacity="0.5" />
  <line x1="540.131" y1="176.558" x2="596.869" y2="176.558" stroke="#333333" stroke-width="1" opacity="1" />
  <line x1="539.34" y1="173.902" x2="597.66" y2="173.902" stroke="#333333" stroke-width="1" opacity="1" />
  <line x1="540.131" y1="171.247" x2="596.869" y2="171.247" stroke="#333333" stroke-width="1" opacity="1" />
  <path d="M649.74 208.987 L649.769 208.879 L649.801 208.77 L649.836 208.662 L649.875 208.553 L649.918 208.444 L649.965 208.336 L650.017 208.227 L650.073 208.119 L650.135 208.01 L650.202 207.902 L650.276 207.793 L650.355 207.684 L650.442 207.576 L650.536 207.467 L650.637 207.359 L650.747 207.25 L650.865 207.142 L650.992 207.033 L651.129 206.924 L651.276 206.816 L651.433 206.707 L651.602 206.599 L651.781 206.49 L651.972 206.382 L652.176 206.273 L652.392 206.164 L652.621 206.056 L652.863 205.947 L653.119 205.839 L653.389 205.73 L653.673 205.622 L653.971 205.513 L654.284 205.404 L654.612 205.296 L654.954 205.187 L655.31 205.079 L655.682 204.97 L656.068 204.862 L656.468 204.753 L656.882 204.644 L657.309 204.536 L657.75 204.427 L658.204 204.319 L658.67 204.21 L659.147 204.102 L659.635 203.993 L660.134 203.884 L660.642 203.776 L661.158 203.667 L661.681 203.559 L662.211 203.45 L662.746 203.342 L663.285 203.233 L663.828 203.124 L664.372 203.016 L664.917 202.907 L665.461 202.799 L666.003 202.69 L666.542 202.582 L667.077 202.473 L667.606 202.364 L668.128 202.256 L668.641 202.147 L669.146 202.039 L669.64 201.93 L670.123 201.822 L670.593 201.713 L671.05 201.604 L671.492 201.496 L671.92 201.387 L672.331 201.279 L672.727 201.17 L673.106 201.062 L673.467 200.953 L673.812 200.844 L674.138 200.736 L674.447 200.627 L674.739 200.519 L675.012 200.41 L675.269 200.302 L675.508 200.193 L675.731 200.084 L675.938 199.976 L676.13 199.867 L676.306 199.759 L676.469 199.65 L676.618 199.542 L676.754 199.433 L676.879 199.324 L676.993 199.216 L677.097 199.107 L677.192 198.999 L677.278 198.89 L677.358 198.782 L677.43 198.673 L677.497 198.565 L677.56 198.456 L677.618 198.347 L677.672 198.239 L677.724 198.13 L677.773 198.022 L677.821 197.913 L677.867 197.805 L677.913 197.696 L677.957 197.587 L678.001 197.479 L678.045 197.37 L678.089 197.262 L678.132 197.153 L678.175 197.045 L678.218 196.936 L678.26 196.827 L678.302 196.719 L678.342 196.61 L678.382 196.502 L678.42 196.393 L678.456 196.285 L678.49 196.176 L678.522 196.067 L678.551 195.959 L678.577 195.85 L678.6 195.742 L678.62 195.633 L678.636 195.525 L678.648 195.416 L678.656 195.307 L678.66 195.199 L678.66 195.09 L678.656 194.982 L678.648 194.873 L678.636 194.765 L678.62 194.656 L678.6 194.547 L678.577 194.439 L678.551 194.33 L678.522 194.222 L678.49 194.113 L678.456 194.005 L678.42 193.896 L678.382 193.787 L678.342 193.679 L678.302 193.57 L678.26 193.462 L678.218 193.353 L678.175 193.245 L678.132 193.136 L678.089 193.027 L678.045 192.919 L678.001 192.81 L677.957 192.702 L677.913 192.593 L677.867 192.485 L677.821 192.376 L677.773 192.267 L677.724 192.159 L677.672 192.05 L677.618 191.942 L677.56 191.833 L677.497 191.725 L677.43 191.616 L677.358 191.507 L677.278 191.399 L677.192 191.29 L677.097 191.182 L676.993 191.073 L676.879 190.965 L676.754 190.856 L676.618 190.747 L676.469 190.639 L676.306 190.53 L676.13 190.422 L675.938 190.313 L675.731 190.205 L675.508 190.096 L675.269 189.987 L675.012 189.879 L674.739 189.77 L674.447 189.662 L674.138 189.553 L673.812 189.445 L673.467 189.336 L673.106 189.227 L672.727 189.119 L672.331 189.01 L671.92 188.902 L671.492 188.793 L671.05 188.685 L670.593 188.576 L670.123 188.467 L669.64 188.359 L669.146 188.25 L668.641 188.142 L668.128 188.033 L667.606 187.925 L667.077 187.816 L666.542 187.707 L666.003 187.599 L665.461 187.49 L664.917 187.382 L664.372 187.273 L663.828 187.165 L663.285 187.056 L662.746 186.947 L662.211 186.839 L661.681 186.73 L661.158 186.622 L660.642 186.513 L660.134 186.405 L659.635 186.296 L659.147 186.187 L658.67 186.079 L658.204 185.97 L657.75 185.862 L657.309 185.753 L656.882 185.645 L656.468 185.536 L656.068 185.427 L655.682 185.319 L655.31 185.21 L654.954 185.102 L654.612 184.993 L654.284 184.885 L653.971 184.776 L653.673 184.667 L653.389 184.559 L653.119 184.45 L652.863 184.342 L652.621 184.233 L652.392 184.125 L652.176 184.016 L651.972 183.907 L651.781 183.799 L651.602 183.69 L651.433 183.582 L651.276 183.473 L651.129 183.365 L650.992 183.256 L650.865 183.147 L650.747 183.039 L650.637 182.93 L650.536 182.822 L650.442 182.713 L650.355 182.605 L650.276 182.496 L650.202 182.387 L650.135 182.279 L650.073 182.17 L650.017 182.062 L649.965 181.953 L649.918 181.845 L649.875 181.736 L649.836 181.627 L649.801 181.519 L649.769 181.41 L649.74 181.302 L649.26 181.302 L649.231 181.41 L649.199 181.519 L649.164 181.627 L649.125 181.736 L649.082 181.845 L649.035 181.953 L648.983 182.062 L648.927 182.17 L648.865 182.279 L648.798 182.387 L648.724 182.496 L648.645 182.605 L648.558 182.713 L648.464 182.822 L648.363 182.93 L648.253 183.039 L648.135 183.147 L648.008 183.256 L647.871 183.365 L647.724 183.473 L647.567 183.582 L647.398 183.69 L647.219 183.799 L647.028 183.907 L646.824 184.016 L646.608 184.125 L646.379 184.233 L646.137 184.342 L645.881 184.45 L645.611 184.559 L645.327 184.667 L645.029 184.776 L644.716 184.885 L644.388 184.993 L644.046 185.102 L643.69 185.21 L643.318 185.319 L642.932 185.427 L642.532 185.536 L642.118 185.645 L641.691 185.753 L641.25 185.862 L640.796 185.97 L640.33 186.079 L639.853 186.187 L639.365 186.296 L638.866 186.405 L638.358 186.513 L637.842 186.622 L637.319 186.73 L636.789 186.839 L636.254 186.947 L635.715 187.056 L635.172 187.165 L634.628 187.273 L634.083 187.382 L633.539 187.49 L632.997 187.599 L632.458 187.707 L631.923 187.816 L631.394 187.925 L630.872 188.033 L630.359 188.142 L629.854 188.25 L629.36 188.359 L628.877 188.467 L628.407 188.576 L627.95 188.685 L627.508 188.793 L627.08 188.902 L626.669 189.01 L626.273 189.119 L625.894 189.227 L625.533 189.336 L625.188 189.445 L624.862 189.553 L624.553 189.662 L624.261 189.77 L623.988 189.879 L623.731 189.987 L623.492 190.096 L623.269 190.205 L623.062 190.313 L622.87 190.422 L622.694 190.53 L622.531 190.639 L622.382 190.747 L622.246 190.856 L622.121 190.965 L622.007 191.073 L621.903 191.182 L621.808 191.29 L621.722 191.399 L621.642 191.507 L621.57 191.616 L621.503 191.725 L621.44 191.833 L621.382 191.942 L621.328 192.05 L621.276 192.159 L621.227 192.267 L621.179 192.376 L621.133 192.485 L621.087 192.593 L621.043 192.702 L620.999 192.81 L620.955 192.919 L620.911 193.027 L620.868 193.136 L620.825 193.245 L620.782 193.353 L620.74 193.462 L620.698 193.57 L620.658 193.679 L620.618 193.787 L620.58 193.896 L620.544 194.005 L620.51 194.113 L620.478 194.222 L620.449 194.33 L620.423 194.439 L620.4 194.547 L620.38 194.656 L620.364 194.765 L620.352 194.873 L620.344 194.982 L620.34 195.09 L620.34 195.199 L620.344 195.307 L620.352 195.416 L620.364 195.525 L620.38 195.633 L620.4 195.742 L620.423 195.85 L620.449 195.959 L620.478 196.067 L620.51 196.176 L620.544 196.285 L620.58 196.393 L620.618 196.502 L620.658 196.61 L620.698 196.719 L620.74 196.827 L620.782 196.936 L620.825 197.045 L620.868 197.153 L620.911 197.262 L620.955 197.37 L620.999 197.479 L621.043 197.587 L621.087 197.696 L621.133 197.805 L621.179 197.913 L621.227 198.022 L621.276 198.13 L621.328 198.239 L621.382 198.347 L621.44 198.456 L621.503 198.565 L621.57 198.673 L621.642 198.782 L621.722 198.89 L621.808 198.999 L621.903 199.107 L622.007 199.216 L622.121 199.324 L622.246 199.433 L622.382 199.542 L622.531 199.65 L622.694 199.759 L622.87 199.867 L623.062 199.976 L623.269 200.084 L623.492 200.193 L623.731 200.302 L623.988 200.41 L624.261 200.519 L624.553 200.627 L624.862 200.736 L625.188 200.844 L625.533 200.953 L625.894 201.062 L626.273 201.17 L626.669 201.279 L627.08 201.387 L627.508 201.496 L627.95 201.604 L628.407 201.713 L628.877 201.822 L629.36 201.93 L629.854 202.039 L630.359 202.147 L630.872 202.256 L631.394 202.364 L631.923 202.473 L632.458 202.582 L632.997 202.69 L633.539 202.799 L634.083 202.907 L634.628 203.016 L635.172 203.124 L635.715 203.233 L636.254 203.342 L636.789 203.45 L637.319 203.559 L637.842 203.667 L638.358 203.776 L638.866 203.884 L639.365 203.993 L639.853 204.102 L640.33 204.21 L640.796 204.319 L641.25 204.427 L641.691 204.536 L642.118 204.644 L642.532 204.753 L642.932 204.862 L643.318 204.97 L643.69 205.079 L644.046 205.187 L644.388 205.296 L644.716 205.404 L645.029 205.513 L645.327 205.622 L645.611 205.73 L645.881 205.839 L646.137 205.947 L646.379 206.056 L646.608 206.164 L646.824 206.273 L647.028 206.382 L647.219 206.49 L647.398 206.599 L647.567 206.707 L647.724 206.816 L647.871 206.924 L648.008 207.033 L648.135 207.142 L648.253 207.25 L648.363 207.359 L648.464 207.467 L648.558 207.576 L648.645 207.684 L648.724 207.793 L648.798 207.902 L648.865 208.01 L648.927 208.119 L648.983 208.227 L649.035 208.336 L649.082 208.444 L649.125 208.553 L649.164 208.662 L649.199 208.77 L649.231 208.879 L649.26 208.987 Z" fill="#FF800E" opacity="0.5" />
  <line x1="621.131" y1="197.8" x2="677.869" y2="197.8" stroke="#333333" stroke-width="1" opacity="1" />
  <line x1="620.34" y1="195.145" x2="678.66" y2="195.145" stroke="#333333" stroke-width="1" opacity="1" />
  <line x1="621.131" y1="192.489" x2="677.869" y2="192.489" stroke="#333333" stroke-width="1" opacity="1" />
</g>
<g class="algraf-layer algraf-geom-boxplot">
  <line x1="568.5" y1="179.213" x2="568.5" y2="168.592" stroke="#000000" stroke-width="1.2" opacity="0.9" />
  <line x1="568.3" y1="179.213" x2="568.7" y2="179.213" stroke="#000000" stroke-width="1.2" opacity="0.9" />
  <line x1="568.3" y1="168.592" x2="568.7" y2="168.592" stroke="#000000" stroke-width="1.2" opacity="0.9" />
  <rect x="568" y="171.247" width="1" height="5.311" fill="#ffffff" stroke="#000000" stroke-width="1.2" opacity="0.9" />
  <line x1="568" y1="173.902" x2="569" y2="173.902" stroke="#000000" stroke-width="1.2" opacity="0.9" />
  <line x1="649.5" y1="200.455" x2="649.5" y2="189.834" stroke="#000000" stroke-width="1.2" opacity="0.9" />
  <line x1="649.3" y1="200.455" x2="649.7" y2="200.455" stroke="#000000" stroke-width="1.2" opacity="0.9" />
  <line x1="649.3" y1="189.834" x2="649.7" y2="189.834" stroke="#000000" stroke-width="1.2" opacity="0.9" />
  <rect x="649" y="192.489" width="1" height="5.311" fill="#ffffff" stroke="#000000" stroke-width="1.2" opacity="0.9" />
  <line x1="649" y1="195.145" x2="650" y2="195.145" stroke="#000000" stroke-width="1.2" opacity="0.9" />
</g>
<g class="algraf-layer algraf-geom-rug">
  <line x1="528" y1="179.213" x2="534" y2="179.213" stroke="#006BA4" stroke-width="1.5" opacity="0.35" />
  <line x1="528" y1="173.902" x2="534" y2="173.902" stroke="#006BA4" stroke-width="1.5" opacity="0.35" />
  <line x1="528" y1="168.592" x2="534" y2="168.592" stroke="#006BA4" stroke-width="1.5" opacity="0.35" />
  <line x1="528" y1="200.455" x2="534" y2="200.455" stroke="#FF800E" stroke-width="1.5" opacity="0.35" />
  <line x1="528" y1="195.145" x2="534" y2="195.145" stroke="#FF800E" stroke-width="1.5" opacity="0.35" />
  <line x1="528" y1="189.834" x2="534" y2="189.834" stroke="#FF800E" stroke-width="1.5" opacity="0.35" />
</g>
<g class="algraf-layer algraf-geom-violin">
  <path d="M100.74 385.193 L100.769 385.084 L100.801 384.975 L100.836 384.867 L100.875 384.758 L100.918 384.65 L100.965 384.541 L101.017 384.433 L101.073 384.324 L101.135 384.215 L101.202 384.107 L101.276 383.998 L101.355 383.89 L101.442 383.781 L101.536 383.673 L101.637 383.564 L101.747 383.455 L101.865 383.347 L101.992 383.238 L102.129 383.13 L102.276 383.021 L102.433 382.913 L102.602 382.804 L102.781 382.695 L102.972 382.587 L103.176 382.478 L103.392 382.37 L103.621 382.261 L103.863 382.153 L104.119 382.044 L104.389 381.935 L104.673 381.827 L104.971 381.718 L105.284 381.61 L105.612 381.501 L105.954 381.393 L106.31 381.284 L106.682 381.175 L107.068 381.067 L107.468 380.958 L107.882 380.85 L108.309 380.741 L108.75 380.633 L109.204 380.524 L109.67 380.415 L110.147 380.307 L110.635 380.198 L111.134 380.09 L111.642 379.981 L112.158 379.873 L112.681 379.764 L113.211 379.655 L113.746 379.547 L114.285 379.438 L114.828 379.33 L115.372 379.221 L115.917 379.113 L116.461 379.004 L117.003 378.895 L117.542 378.787 L118.077 378.678 L118.606 378.57 L119.128 378.461 L119.641 378.353 L120.146 378.244 L120.64 378.135 L121.123 378.027 L121.593 377.918 L122.05 377.81 L122.492 377.701 L122.92 377.593 L123.331 377.484 L123.727 377.375 L124.106 377.267 L124.467 377.158 L124.812 377.05 L125.138 376.941 L125.447 376.833 L125.739 376.724 L126.012 376.615 L126.269 376.507 L126.508 376.398 L126.731 376.29 L126.938 376.181 L127.13 376.073 L127.306 375.964 L127.469 375.855 L127.618 375.747 L127.754 375.638 L127.879 375.53 L127.993 375.421 L128.097 375.313 L128.192 375.204 L128.278 375.095 L128.358 374.987 L128.43 374.878 L128.497 374.77 L128.56 374.661 L128.618 374.553 L128.672 374.444 L128.724 374.335 L128.773 374.227 L128.821 374.118 L128.867 374.01 L128.913 373.901 L128.957 373.793 L129.001 373.684 L129.045 373.575 L129.089 373.467 L129.132 373.358 L129.175 373.25 L129.218 373.141 L129.26 373.033 L129.302 372.924 L129.342 372.815 L129.382 372.707 L129.42 372.598 L129.456 372.49 L129.49 372.381 L129.522 372.273 L129.551 372.164 L129.577 372.055 L129.6 371.947 L129.62 371.838 L129.636 371.73 L129.648 371.621 L129.656 371.513 L129.66 371.404 L129.66 371.295 L129.656 371.187 L129.648 371.078 L129.636 370.97 L129.62 370.861 L129.6 370.753 L129.577 370.644 L129.551 370.535 L129.522 370.427 L129.49 370.318 L129.456 370.21 L129.42 370.101 L129.382 369.993 L129.342 369.884 L129.302 369.775 L129.26 369.667 L129.218 369.558 L129.175 369.45 L129.132 369.341 L129.089 369.233 L129.045 369.124 L129.001 369.015 L128.957 368.907 L128.913 368.798 L128.867 368.69 L128.821 368.581 L128.773 368.473 L128.724 368.364 L128.672 368.255 L128.618 368.147 L128.56 368.038 L128.497 367.93 L128.43 367.821 L128.358 367.713 L128.278 367.604 L128.192 367.495 L128.097 367.387 L127.993 367.278 L127.879 367.17 L127.754 367.061 L127.618 366.953 L127.469 366.844 L127.306 366.736 L127.13 366.627 L126.938 366.518 L126.731 366.41 L126.508 366.301 L126.269 366.193 L126.012 366.084 L125.739 365.976 L125.447 365.867 L125.138 365.758 L124.812 365.65 L124.467 365.541 L124.106 365.433 L123.727 365.324 L123.331 365.216 L122.92 365.107 L122.492 364.998 L122.05 364.89 L121.593 364.781 L121.123 364.673 L120.64 364.564 L120.146 364.456 L119.641 364.347 L119.128 364.238 L118.606 364.13 L118.077 364.021 L117.542 363.913 L117.003 363.804 L116.461 363.696 L115.917 363.587 L115.372 363.478 L114.828 363.37 L114.285 363.261 L113.746 363.153 L113.211 363.044 L112.681 362.936 L112.158 362.827 L111.642 362.718 L111.134 362.61 L110.635 362.501 L110.147 362.393 L109.67 362.284 L109.204 362.176 L108.75 362.067 L108.309 361.958 L107.882 361.85 L107.468 361.741 L107.068 361.633 L106.682 361.524 L106.31 361.416 L105.954 361.307 L105.612 361.198 L105.284 361.09 L104.971 360.981 L104.673 360.873 L104.389 360.764 L104.119 360.656 L103.863 360.547 L103.621 360.438 L103.392 360.33 L103.176 360.221 L102.972 360.113 L102.781 360.004 L102.602 359.896 L102.433 359.787 L102.276 359.678 L102.129 359.57 L101.992 359.461 L101.865 359.353 L101.747 359.244 L101.637 359.136 L101.536 359.027 L101.442 358.918 L101.355 358.81 L101.276 358.701 L101.202 358.593 L101.135 358.484 L101.073 358.376 L101.017 358.267 L100.965 358.158 L100.918 358.05 L100.875 357.941 L100.836 357.833 L100.801 357.724 L100.769 357.616 L100.74 357.507 L100.26 357.507 L100.231 357.616 L100.199 357.724 L100.164 357.833 L100.125 357.941 L100.082 358.05 L100.035 358.158 L99.983 358.267 L99.927 358.376 L99.865 358.484 L99.798 358.593 L99.724 358.701 L99.645 358.81 L99.558 358.918 L99.464 359.027 L99.363 359.136 L99.253 359.244 L99.135 359.353 L99.008 359.461 L98.871 359.57 L98.724 359.678 L98.567 359.787 L98.398 359.896 L98.219 360.004 L98.028 360.113 L97.824 360.221 L97.608 360.33 L97.379 360.438 L97.137 360.547 L96.881 360.656 L96.611 360.764 L96.327 360.873 L96.029 360.981 L95.716 361.09 L95.388 361.198 L95.046 361.307 L94.69 361.416 L94.318 361.524 L93.932 361.633 L93.532 361.741 L93.118 361.85 L92.691 361.958 L92.25 362.067 L91.796 362.176 L91.33 362.284 L90.853 362.393 L90.365 362.501 L89.866 362.61 L89.358 362.718 L88.842 362.827 L88.319 362.936 L87.789 363.044 L87.254 363.153 L86.715 363.261 L86.172 363.37 L85.628 363.478 L85.083 363.587 L84.539 363.696 L83.997 363.804 L83.458 363.913 L82.923 364.021 L82.394 364.13 L81.872 364.238 L81.359 364.347 L80.854 364.456 L80.36 364.564 L79.877 364.673 L79.407 364.781 L78.95 364.89 L78.508 364.998 L78.08 365.107 L77.669 365.216 L77.273 365.324 L76.894 365.433 L76.533 365.541 L76.188 365.65 L75.862 365.758 L75.553 365.867 L75.261 365.976 L74.988 366.084 L74.731 366.193 L74.492 366.301 L74.269 366.41 L74.062 366.518 L73.87 366.627 L73.694 366.736 L73.531 366.844 L73.382 366.953 L73.246 367.061 L73.121 367.17 L73.007 367.278 L72.903 367.387 L72.808 367.495 L72.722 367.604 L72.642 367.713 L72.57 367.821 L72.503 367.93 L72.44 368.038 L72.382 368.147 L72.328 368.255 L72.276 368.364 L72.227 368.473 L72.179 368.581 L72.133 368.69 L72.087 368.798 L72.043 368.907 L71.999 369.015 L71.955 369.124 L71.911 369.233 L71.868 369.341 L71.825 369.45 L71.782 369.558 L71.74 369.667 L71.698 369.775 L71.658 369.884 L71.618 369.993 L71.58 370.101 L71.544 370.21 L71.51 370.318 L71.478 370.427 L71.449 370.535 L71.423 370.644 L71.4 370.753 L71.38 370.861 L71.364 370.97 L71.352 371.078 L71.344 371.187 L71.34 371.295 L71.34 371.404 L71.344 371.513 L71.352 371.621 L71.364 371.73 L71.38 371.838 L71.4 371.947 L71.423 372.055 L71.449 372.164 L71.478 372.273 L71.51 372.381 L71.544 372.49 L71.58 372.598 L71.618 372.707 L71.658 372.815 L71.698 372.924 L71.74 373.033 L71.782 373.141 L71.825 373.25 L71.868 373.358 L71.911 373.467 L71.955 373.575 L71.999 373.684 L72.043 373.793 L72.087 373.901 L72.133 374.01 L72.179 374.118 L72.227 374.227 L72.276 374.335 L72.328 374.444 L72.382 374.553 L72.44 374.661 L72.503 374.77 L72.57 374.878 L72.642 374.987 L72.722 375.095 L72.808 375.204 L72.903 375.313 L73.007 375.421 L73.121 375.53 L73.246 375.638 L73.382 375.747 L73.531 375.855 L73.694 375.964 L73.87 376.073 L74.062 376.181 L74.269 376.29 L74.492 376.398 L74.731 376.507 L74.988 376.615 L75.261 376.724 L75.553 376.833 L75.862 376.941 L76.188 377.05 L76.533 377.158 L76.894 377.267 L77.273 377.375 L77.669 377.484 L78.08 377.593 L78.508 377.701 L78.95 377.81 L79.407 377.918 L79.877 378.027 L80.36 378.135 L80.854 378.244 L81.359 378.353 L81.872 378.461 L82.394 378.57 L82.923 378.678 L83.458 378.787 L83.997 378.895 L84.539 379.004 L85.083 379.113 L85.628 379.221 L86.172 379.33 L86.715 379.438 L87.254 379.547 L87.789 379.655 L88.319 379.764 L88.842 379.873 L89.358 379.981 L89.866 380.09 L90.365 380.198 L90.853 380.307 L91.33 380.415 L91.796 380.524 L92.25 380.633 L92.691 380.741 L93.118 380.85 L93.532 380.958 L93.932 381.067 L94.318 381.175 L94.69 381.284 L95.046 381.393 L95.388 381.501 L95.716 381.61 L96.029 381.718 L96.327 381.827 L96.611 381.935 L96.881 382.044 L97.137 382.153 L97.379 382.261 L97.608 382.37 L97.824 382.478 L98.028 382.587 L98.219 382.695 L98.398 382.804 L98.567 382.913 L98.724 383.021 L98.871 383.13 L99.008 383.238 L99.135 383.347 L99.253 383.455 L99.363 383.564 L99.464 383.673 L99.558 383.781 L99.645 383.89 L99.724 383.998 L99.798 384.107 L99.865 384.215 L99.927 384.324 L99.983 384.433 L100.035 384.541 L100.082 384.65 L100.125 384.758 L100.164 384.867 L100.199 384.975 L100.231 385.084 L100.26 385.193 Z" fill="#006BA4" opacity="0.5" />
  <line x1="72.131" y1="374.005" x2="128.869" y2="374.005" stroke="#333333" stroke-width="1" opacity="1" />
  <line x1="71.34" y1="371.35" x2="129.66" y2="371.35" stroke="#333333" stroke-width="1" opacity="1" />
  <line x1="72.131" y1="368.695" x2="128.869" y2="368.695" stroke="#333333" stroke-width="1" opacity="1" />
  <path d="M181.74 422.366 L181.769 422.258 L181.801 422.149 L181.836 422.041 L181.875 421.932 L181.918 421.823 L181.965 421.715 L182.017 421.606 L182.073 421.498 L182.135 421.389 L182.202 421.281 L182.276 421.172 L182.355 421.063 L182.442 420.955 L182.536 420.846 L182.637 420.738 L182.747 420.629 L182.865 420.521 L182.992 420.412 L183.129 420.303 L183.276 420.195 L183.433 420.086 L183.602 419.978 L183.781 419.869 L183.972 419.761 L184.176 419.652 L184.392 419.543 L184.621 419.435 L184.863 419.326 L185.119 419.218 L185.389 419.109 L185.673 419.001 L185.971 418.892 L186.284 418.783 L186.612 418.675 L186.954 418.566 L187.31 418.458 L187.682 418.349 L188.068 418.241 L188.468 418.132 L188.882 418.023 L189.309 417.915 L189.75 417.806 L190.204 417.698 L190.67 417.589 L191.147 417.481 L191.635 417.372 L192.134 417.263 L192.642 417.155 L193.158 417.046 L193.681 416.938 L194.211 416.829 L194.746 416.721 L195.285 416.612 L195.828 416.503 L196.372 416.395 L196.917 416.286 L197.461 416.178 L198.003 416.069 L198.542 415.961 L199.077 415.852 L199.606 415.743 L200.128 415.635 L200.641 415.526 L201.146 415.418 L201.64 415.309 L202.123 415.201 L202.593 415.092 L203.05 414.983 L203.492 414.875 L203.92 414.766 L204.331 414.658 L204.727 414.549 L205.106 414.441 L205.467 414.332 L205.812 414.223 L206.138 414.115 L206.447 414.006 L206.739 413.898 L207.012 413.789 L207.269 413.681 L207.508 413.572 L207.731 413.463 L207.938 413.355 L208.13 413.246 L208.306 413.138 L208.469 413.029 L208.618 412.921 L208.754 412.812 L208.879 412.703 L208.993 412.595 L209.097 412.486 L209.192 412.378 L209.278 412.269 L209.358 412.161 L209.43 412.052 L209.497 411.943 L209.56 411.835 L209.618 411.726 L209.672 411.618 L209.724 411.509 L209.773 411.401 L209.821 411.292 L209.867 411.183 L209.913 411.075 L209.957 410.966 L210.001 410.858 L210.045 410.749 L210.089 410.641 L210.132 410.532 L210.175 410.423 L210.218 410.315 L210.26 410.206 L210.302 410.098 L210.342 409.989 L210.382 409.881 L210.42 409.772 L210.456 409.663 L210.49 409.555 L210.522 409.446 L210.551 409.338 L210.577 409.229 L210.6 409.121 L210.62 409.012 L210.636 408.903 L210.648 408.795 L210.656 408.686 L210.66 408.578 L210.66 408.469 L210.656 408.361 L210.648 408.252 L210.636 408.143 L210.62 408.035 L210.6 407.926 L210.577 407.818 L210.551 407.709 L210.522 407.601 L210.49 407.492 L210.456 407.383 L210.42 407.275 L210.382 407.166 L210.342 407.058 L210.302 406.949 L210.26 406.841 L210.218 406.732 L210.175 406.623 L210.132 406.515 L210.089 406.406 L210.045 406.298 L210.001 406.189 L209.957 406.081 L209.913 405.972 L209.867 405.863 L209.821 405.755 L209.773 405.646 L209.724 405.538 L209.672 405.429 L209.618 405.321 L209.56 405.212 L209.497 405.103 L209.43 404.995 L209.358 404.886 L209.278 404.778 L209.192 404.669 L209.097 404.561 L208.993 404.452 L208.879 404.343 L208.754 404.235 L208.618 404.126 L208.469 404.018 L208.306 403.909 L208.13 403.801 L207.938 403.692 L207.731 403.583 L207.508 403.475 L207.269 403.366 L207.012 403.258 L206.739 403.149 L206.447 403.041 L206.138 402.932 L205.812 402.823 L205.467 402.715 L205.106 402.606 L204.727 402.498 L204.331 402.389 L203.92 402.281 L203.492 402.172 L203.05 402.063 L202.593 401.955 L202.123 401.846 L201.64 401.738 L201.146 401.629 L200.641 401.521 L200.128 401.412 L199.606 401.303 L199.077 401.195 L198.542 401.086 L198.003 400.978 L197.461 400.869 L196.917 400.761 L196.372 400.652 L195.828 400.543 L195.285 400.435 L194.746 400.326 L194.211 400.218 L193.681 400.109 L193.158 400.001 L192.642 399.892 L192.134 399.783 L191.635 399.675 L191.147 399.566 L190.67 399.458 L190.204 399.349 L189.75 399.241 L189.309 399.132 L188.882 399.023 L188.468 398.915 L188.068 398.806 L187.682 398.698 L187.31 398.589 L186.954 398.481 L186.612 398.372 L186.284 398.263 L185.971 398.155 L185.673 398.046 L185.389 397.938 L185.119 397.829 L184.863 397.721 L184.621 397.612 L184.392 397.503 L184.176 397.395 L183.972 397.286 L183.781 397.178 L183.602 397.069 L183.433 396.961 L183.276 396.852 L183.129 396.744 L182.992 396.635 L182.865 396.526 L182.747 396.418 L182.637 396.309 L182.536 396.201 L182.442 396.092 L182.355 395.984 L182.276 395.875 L182.202 395.766 L182.135 395.658 L182.073 395.549 L182.017 395.441 L181.965 395.332 L181.918 395.224 L181.875 395.115 L181.836 395.006 L181.801 394.898 L181.769 394.789 L181.74 394.681 L181.26 394.681 L181.231 394.789 L181.199 394.898 L181.164 395.006 L181.125 395.115 L181.082 395.224 L181.035 395.332 L180.983 395.441 L180.927 395.549 L180.865 395.658 L180.798 395.766 L180.724 395.875 L180.645 395.984 L180.558 396.092 L180.464 396.201 L180.363 396.309 L180.253 396.418 L180.135 396.526 L180.008 396.635 L179.871 396.744 L179.724 396.852 L179.567 396.961 L179.398 397.069 L179.219 397.178 L179.028 397.286 L178.824 397.395 L178.608 397.503 L178.379 397.612 L178.137 397.721 L177.881 397.829 L177.611 397.938 L177.327 398.046 L177.029 398.155 L176.716 398.263 L176.388 398.372 L176.046 398.481 L175.69 398.589 L175.318 398.698 L174.932 398.806 L174.532 398.915 L174.118 399.023 L173.691 399.132 L173.25 399.241 L172.796 399.349 L172.33 399.458 L171.853 399.566 L171.365 399.675 L170.866 399.783 L170.358 399.892 L169.842 400.001 L169.319 400.109 L168.789 400.218 L168.254 400.326 L167.715 400.435 L167.172 400.543 L166.628 400.652 L166.083 400.761 L165.539 400.869 L164.997 400.978 L164.458 401.086 L163.923 401.195 L163.394 401.303 L162.872 401.412 L162.359 401.521 L161.854 401.629 L161.36 401.738 L160.877 401.846 L160.407 401.955 L159.95 402.063 L159.508 402.172 L159.08 402.281 L158.669 402.389 L158.273 402.498 L157.894 402.606 L157.533 402.715 L157.188 402.823 L156.862 402.932 L156.553 403.041 L156.261 403.149 L155.988 403.258 L155.731 403.366 L155.492 403.475 L155.269 403.583 L155.062 403.692 L154.87 403.801 L154.694 403.909 L154.531 404.018 L154.382 404.126 L154.246 404.235 L154.121 404.343 L154.007 404.452 L153.903 404.561 L153.808 404.669 L153.722 404.778 L153.642 404.886 L153.57 404.995 L153.503 405.103 L153.44 405.212 L153.382 405.321 L153.328 405.429 L153.276 405.538 L153.227 405.646 L153.179 405.755 L153.133 405.863 L153.087 405.972 L153.043 406.081 L152.999 406.189 L152.955 406.298 L152.911 406.406 L152.868 406.515 L152.825 406.623 L152.782 406.732 L152.74 406.841 L152.698 406.949 L152.658 407.058 L152.618 407.166 L152.58 407.275 L152.544 407.383 L152.51 407.492 L152.478 407.601 L152.449 407.709 L152.423 407.818 L152.4 407.926 L152.38 408.035 L152.364 408.143 L152.352 408.252 L152.344 408.361 L152.34 408.469 L152.34 408.578 L152.344 408.686 L152.352 408.795 L152.364 408.903 L152.38 409.012 L152.4 409.121 L152.423 409.229 L152.449 409.338 L152.478 409.446 L152.51 409.555 L152.544 409.663 L152.58 409.772 L152.618 409.881 L152.658 409.989 L152.698 410.098 L152.74 410.206 L152.782 410.315 L152.825 410.423 L152.868 410.532 L152.911 410.641 L152.955 410.749 L152.999 410.858 L153.043 410.966 L153.087 411.075 L153.133 411.183 L153.179 411.292 L153.227 411.401 L153.276 411.509 L153.328 411.618 L153.382 411.726 L153.44 411.835 L153.503 411.943 L153.57 412.052 L153.642 412.161 L153.722 412.269 L153.808 412.378 L153.903 412.486 L154.007 412.595 L154.121 412.703 L154.246 412.812 L154.382 412.921 L154.531 413.029 L154.694 413.138 L154.87 413.246 L155.062 413.355 L155.269 413.463 L155.492 413.572 L155.731 413.681 L155.988 413.789 L156.261 413.898 L156.553 414.006 L156.862 414.115 L157.188 414.223 L157.533 414.332 L157.894 414.441 L158.273 414.549 L158.669 414.658 L159.08 414.766 L159.508 414.875 L159.95 414.983 L160.407 415.092 L160.877 415.201 L161.36 415.309 L161.854 415.418 L162.359 415.526 L162.872 415.635 L163.394 415.743 L163.923 415.852 L164.458 415.961 L164.997 416.069 L165.539 416.178 L166.083 416.286 L166.628 416.395 L167.172 416.503 L167.715 416.612 L168.254 416.721 L168.789 416.829 L169.319 416.938 L169.842 417.046 L170.358 417.155 L170.866 417.263 L171.365 417.372 L171.853 417.481 L172.33 417.589 L172.796 417.698 L173.25 417.806 L173.691 417.915 L174.118 418.023 L174.532 418.132 L174.932 418.241 L175.318 418.349 L175.69 418.458 L176.046 418.566 L176.388 418.675 L176.716 418.783 L177.029 418.892 L177.327 419.001 L177.611 419.109 L177.881 419.218 L178.137 419.326 L178.379 419.435 L178.608 419.543 L178.824 419.652 L179.028 419.761 L179.219 419.869 L179.398 419.978 L179.567 420.086 L179.724 420.195 L179.871 420.303 L180.008 420.412 L180.135 420.521 L180.253 420.629 L180.363 420.738 L180.464 420.846 L180.558 420.955 L180.645 421.063 L180.724 421.172 L180.798 421.281 L180.865 421.389 L180.927 421.498 L180.983 421.606 L181.035 421.715 L181.082 421.823 L181.125 421.932 L181.164 422.041 L181.199 422.149 L181.231 422.258 L181.26 422.366 Z" fill="#FF800E" opacity="0.5" />
  <line x1="153.131" y1="411.179" x2="209.869" y2="411.179" stroke="#333333" stroke-width="1" opacity="1" />
  <line x1="152.34" y1="408.523" x2="210.66" y2="408.523" stroke="#333333" stroke-width="1" opacity="1" />
  <line x1="153.131" y1="405.868" x2="209.869" y2="405.868" stroke="#333333" stroke-width="1" opacity="1" />
</g>
<g class="algraf-layer algraf-geom-boxplot">
  <line x1="100.5" y1="376.66" x2="100.5" y2="366.039" stroke="#000000" stroke-width="1.2" opacity="0.9" />
  <line x1="100.3" y1="376.66" x2="100.7" y2="376.66" stroke="#000000" stroke-width="1.2" opacity="0.9" />
  <line x1="100.3" y1="366.039" x2="100.7" y2="366.039" stroke="#000000" stroke-width="1.2" opacity="0.9" />
  <rect x="100" y="368.695" width="1" height="5.311" fill="#ffffff" stroke="#000000" stroke-width="1.2" opacity="0.9" />
  <line x1="100" y1="371.35" x2="101" y2="371.35" stroke="#000000" stroke-width="1.2" opacity="0.9" />
  <line x1="181.5" y1="413.834" x2="181.5" y2="403.213" stroke="#000000" stroke-width="1.2" opacity="0.9" />
  <line x1="181.3" y1="413.834" x2="181.7" y2="413.834" stroke="#000000" stroke-width="1.2" opacity="0.9" />
  <line x1="181.3" y1="403.213" x2="181.7" y2="403.213" stroke="#000000" stroke-width="1.2" opacity="0.9" />
  <rect x="181" y="405.868" width="1" height="5.311" fill="#ffffff" stroke="#000000" stroke-width="1.2" opacity="0.9" />
  <line x1="181" y1="408.523" x2="182" y2="408.523" stroke="#000000" stroke-width="1.2" opacity="0.9" />
</g>
<g class="algraf-layer algraf-geom-rug">
  <line x1="60" y1="376.66" x2="66" y2="376.66" stroke="#006BA4" stroke-width="1.5" opacity="0.35" />
  <line x1="60" y1="371.35" x2="66" y2="371.35" stroke="#006BA4" stroke-width="1.5" opacity="0.35" />
  <line x1="60" y1="366.039" x2="66" y2="366.039" stroke="#006BA4" stroke-width="1.5" opacity="0.35" />
  <line x1="60" y1="413.834" x2="66" y2="413.834" stroke="#FF800E" stroke-width="1.5" opacity="0.35" />
  <line x1="60" y1="408.523" x2="66" y2="408.523" stroke="#FF800E" stroke-width="1.5" opacity="0.35" />
  <line x1="60" y1="403.213" x2="66" y2="403.213" stroke="#FF800E" stroke-width="1.5" opacity="0.35" />
</g>
<g class="algraf-axes">
  <line x1="60" y1="226" x2="222" y2="226" stroke="#333333" stroke-width="1" />
  <line x1="100.5" y1="226" x2="100.5" y2="231" stroke="#333333" stroke-width="1" />
  <text x="100.5" y="244" text-anchor="middle" font-family="system-ui, sans-serif" font-size="12" fill="#222222">Widgets</text>
  <line x1="181.5" y1="226" x2="181.5" y2="231" stroke="#333333" stroke-width="1" />
  <text x="181.5" y="244" text-anchor="middle" font-family="system-ui, sans-serif" font-size="12" fill="#222222">Gadgets</text>
  <text x="141" y="264" text-anchor="middle" font-family="system-ui, sans-serif" font-size="12" fill="#222222">product</text>
  <line x1="60" y1="90" x2="60" y2="226" stroke="#333333" stroke-width="1" />
  <line x1="55" y1="216.387" x2="60" y2="216.387" stroke="#333333" stroke-width="1" />
  <text x="52" y="220.387" text-anchor="end" font-family="system-ui, sans-serif" font-size="12" fill="#222222">50</text>
  <line x1="55" y1="189.834" x2="60" y2="189.834" stroke="#333333" stroke-width="1" />
  <text x="52" y="193.834" text-anchor="end" font-family="system-ui, sans-serif" font-size="12" fill="#222222">100</text>
  <line x1="55" y1="163.281" x2="60" y2="163.281" stroke="#333333" stroke-width="1" />
  <text x="52" y="167.281" text-anchor="end" font-family="system-ui, sans-serif" font-size="12" fill="#222222">150</text>
  <line x1="55" y1="136.729" x2="60" y2="136.729" stroke="#333333" stroke-width="1" />
  <text x="52" y="140.729" text-anchor="end" font-family="system-ui, sans-serif" font-size="12" fill="#222222">200</text>
  <line x1="55" y1="110.176" x2="60" y2="110.176" stroke="#333333" stroke-width="1" />
  <text x="52" y="114.176" text-anchor="end" font-family="system-ui, sans-serif" font-size="12" fill="#222222">250</text>
  <text x="24.4" y="158" text-anchor="middle" transform="rotate(-90 24.4 158)" font-family="system-ui, sans-serif" font-size="12" fill="#222222">Sales Amount</text>
</g>
<g class="algraf-axes">
  <line x1="294" y1="226" x2="456" y2="226" stroke="#333333" stroke-width="1" />
  <line x1="334.5" y1="226" x2="334.5" y2="231" stroke="#333333" stroke-width="1" />
  <text x="334.5" y="244" text-anchor="middle" font-family="system-ui, sans-serif" font-size="12" fill="#222222">Widgets</text>
  <line x1="415.5" y1="226" x2="415.5" y2="231" stroke="#333333" stroke-width="1" />
  <text x="415.5" y="244" text-anchor="middle" font-family="system-ui, sans-serif" font-size="12" fill="#222222">Gadgets</text>
  <text x="375" y="264" text-anchor="middle" font-family="system-ui, sans-serif" font-size="12" fill="#222222">product</text>
  <line x1="294" y1="90" x2="294" y2="226" stroke="#333333" stroke-width="1" />
  <line x1="289" y1="216.387" x2="294" y2="216.387" stroke="#333333" stroke-width="1" />
  <text x="286" y="220.387" text-anchor="end" font-family="system-ui, sans-serif" font-size="12" fill="#222222">50</text>
  <line x1="289" y1="189.834" x2="294" y2="189.834" stroke="#333333" stroke-width="1" />
  <text x="286" y="193.834" text-anchor="end" font-family="system-ui, sans-serif" font-size="12" fill="#222222">100</text>
  <line x1="289" y1="163.281" x2="294" y2="163.281" stroke="#333333" stroke-width="1" />
  <text x="286" y="167.281" text-anchor="end" font-family="system-ui, sans-serif" font-size="12" fill="#222222">150</text>
  <line x1="289" y1="136.729" x2="294" y2="136.729" stroke="#333333" stroke-width="1" />
  <text x="286" y="140.729" text-anchor="end" font-family="system-ui, sans-serif" font-size="12" fill="#222222">200</text>
  <line x1="289" y1="110.176" x2="294" y2="110.176" stroke="#333333" stroke-width="1" />
  <text x="286" y="114.176" text-anchor="end" font-family="system-ui, sans-serif" font-size="12" fill="#222222">250</text>
  <text x="258.4" y="158" text-anchor="middle" transform="rotate(-90 258.4 158)" font-family="system-ui, sans-serif" font-size="12" fill="#222222">Sales Amount</text>
</g>
<g class="algraf-axes">
  <line x1="528" y1="226" x2="690" y2="226" stroke="#333333" stroke-width="1" />
  <line x1="568.5" y1="226" x2="568.5" y2="231" stroke="#333333" stroke-width="1" />
  <text x="568.5" y="244" text-anchor="middle" font-family="system-ui, sans-serif" font-size="12" fill="#222222">Widgets</text>
  <line x1="649.5" y1="226" x2="649.5" y2="231" stroke="#333333" stroke-width="1" />
  <text x="649.5" y="244" text-anchor="middle" font-family="system-ui, sans-serif" font-size="12" fill="#222222">Gadgets</text>
  <text x="609" y="264" text-anchor="middle" font-family="system-ui, sans-serif" font-size="12" fill="#222222">product</text>
  <line x1="528" y1="90" x2="528" y2="226" stroke="#333333" stroke-width="1" />
  <line x1="523" y1="216.387" x2="528" y2="216.387" stroke="#333333" stroke-width="1" />
  <text x="520" y="220.387" text-anchor="end" font-family="system-ui, sans-serif" font-size="12" fill="#222222">50</text>
  <line x1="523" y1="189.834" x2="528" y2="189.834" stroke="#333333" stroke-width="1" />
  <text x="520" y="193.834" text-anchor="end" font-family="system-ui, sans-serif" font-size="12" fill="#222222">100</text>
  <line x1="523" y1="163.281" x2="528" y2="163.281" stroke="#333333" stroke-width="1" />
  <text x="520" y="167.281" text-anchor="end" font-family="system-ui, sans-serif" font-size="12" fill="#222222">150</text>
  <line x1="523" y1="136.729" x2="528" y2="136.729" stroke="#333333" stroke-width="1" />
  <text x="520" y="140.729" text-anchor="end" font-family="system-ui, sans-serif" font-size="12" fill="#222222">200</text>
  <line x1="523" y1="110.176" x2="528" y2="110.176" stroke="#333333" stroke-width="1" />
  <text x="520" y="114.176" text-anchor="end" font-family="system-ui, sans-serif" font-size="12" fill="#222222">250</text>
  <text x="492.4" y="158" text-anchor="middle" transform="rotate(-90 492.4 158)" font-family="system-ui, sans-serif" font-size="12" fill="#222222">Sales Amount</text>
</g>
<g class="algraf-axes">
  <line x1="60" y1="450" x2="222" y2="450" stroke="#333333" stroke-width="1" />
  <line x1="100.5" y1="450" x2="100.5" y2="455" stroke="#333333" stroke-width="1" />
  <text x="100.5" y="468" text-anchor="middle" font-family="system-ui, sans-serif" font-size="12" fill="#222222">Widgets</text>
  <line x1="181.5" y1="450" x2="181.5" y2="455" stroke="#333333" stroke-width="1" />
  <text x="181.5" y="468" text-anchor="middle" font-family="system-ui, sans-serif" font-size="12" fill="#222222">Gadgets</text>
  <text x="141" y="488" text-anchor="middle" font-family="system-ui, sans-serif" font-size="12" fill="#222222">product</text>
  <line x1="60" y1="314" x2="60" y2="450" stroke="#333333" stroke-width="1" />
  <line x1="55" y1="440.387" x2="60" y2="440.387" stroke="#333333" stroke-width="1" />
  <text x="52" y="444.387" text-anchor="end" font-family="system-ui, sans-serif" font-size="12" fill="#222222">50</text>
  <line x1="55" y1="413.834" x2="60" y2="413.834" stroke="#333333" stroke-width="1" />
  <text x="52" y="417.834" text-anchor="end" font-family="system-ui, sans-serif" font-size="12" fill="#222222">100</text>
  <line x1="55" y1="387.281" x2="60" y2="387.281" stroke="#333333" stroke-width="1" />
  <text x="52" y="391.281" text-anchor="end" font-family="system-ui, sans-serif" font-size="12" fill="#222222">150</text>
  <line x1="55" y1="360.729" x2="60" y2="360.729" stroke="#333333" stroke-width="1" />
  <text x="52" y="364.729" text-anchor="end" font-family="system-ui, sans-serif" font-size="12" fill="#222222">200</text>
  <line x1="55" y1="334.176" x2="60" y2="334.176" stroke="#333333" stroke-width="1" />
  <text x="52" y="338.176" text-anchor="end" font-family="system-ui, sans-serif" font-size="12" fill="#222222">250</text>
  <text x="24.4" y="382" text-anchor="middle" transform="rotate(-90 24.4 382)" font-family="system-ui, sans-serif" font-size="12" fill="#222222">Sales Amount</text>
</g>
<g class="algraf-legends">
  <text x="706" y="70" text-anchor="start" font-family="system-ui, sans-serif" font-size="12" fill="#222222">product</text>
  <rect x="706" y="78" width="12" height="12" fill="#006BA4" stroke="#006BA4" stroke-width="2" />
  <text x="724" y="88" text-anchor="start" font-family="system-ui, sans-serif" font-size="12" fill="#222222">Widgets</text>
  <rect x="706" y="96" width="12" height="12" fill="#FF800E" stroke="#FF800E" stroke-width="2" />
  <text x="724" y="106" text-anchor="start" font-family="system-ui, sans-serif" font-size="12" fill="#222222">Gadgets</text>
</g>
</svg>
