<svg xmlns="http://www.w3.org/2000/svg" width="760" height="460" viewBox="0 0 760 460" role="img">
<rect class="algraf-background" x="0" y="0" width="760" height="460" fill="#ffffff" />
<rect class="algraf-plot-area" x="60" y="40" width="550" height="370" fill="#ffffff" />
<g class="algraf-grid">
  <line x1="60" y1="225" x2="610" y2="225" stroke="#f2f2f2" stroke-width="0.6" />
  <line x1="60" y1="410" x2="610" y2="410" stroke="#e6e6e6" stroke-width="1" />
  <line x1="60" y1="40" x2="610" y2="40" stroke="#e6e6e6" stroke-width="1" />
</g>
<defs>
<clipPath id="algraf-clip-0"><rect x="60" y="40" width="550" height="370" /></clipPath>
</defs>
<g clip-path="url(#algraf-clip-0)">
  <g class="algraf-layer algraf-geom-bar">
    <rect x="73.75" y="225" width="110" height="185" fill="#4E79A7" opacity="1" />
    <rect x="73.75" y="119.286" width="110" height="105.714" fill="#F28E2B" opacity="1" />
    <rect x="73.75" y="40" width="110" height="79.286" fill="#E15759" opacity="1" />
    <rect x="211.25" y="220.978" width="110" height="189.022" fill="#4E79A7" opacity="1" />
    <rect x="211.25" y="104.348" width="110" height="116.63" fill="#F28E2B" opacity="1" />
    <rect x="211.25" y="40" width="110" height="64.348" fill="#E15759" opacity="1" />
    <rect x="348.75" y="223.238" width="110" height="186.762" fill="#4E79A7" opacity="1" />
    <rect x="348.75" y="114" width="110" height="109.238" fill="#F28E2B" opacity="1" />
    <rect x="348.75" y="40" width="110" height="74" fill="#E15759" opacity="1" />
    <rect x="486.25" y="225" width="110" height="185" fill="#4E79A7" opacity="1" />
    <rect x="486.25" y="115.82" width="110" height="109.18" fill="#F28E2B" opacity="1" />
    <rect x="486.25" y="40" width="110" height="75.82" fill="#E15759" opacity="1" />
  </g>
</g>
<g class="algraf-axes">
  <line x1="60" y1="410" x2="610" y2="410" stroke="#333333" stroke-width="1" />
  <line x1="128.75" y1="410" x2="128.75" y2="415" stroke="#333333" stroke-width="1" />
  <text x="128.75" y="428" text-anchor="middle" font-family="system-ui, sans-serif" font-size="12" fill="#222222">Q1</text>
  <line x1="266.25" y1="410" x2="266.25" y2="415" stroke="#333333" stroke-width="1" />
  <text x="266.25" y="428" text-anchor="middle" font-family="system-ui, sans-serif" font-size="12" fill="#222222">Q2</text>
  <line x1="403.75" y1="410" x2="403.75" y2="415" stroke="#333333" stroke-width="1" />
  <text x="403.75" y="428" text-anchor="middle" font-family="system-ui, sans-serif" font-size="12" fill="#222222">Q3</text>
  <line x1="541.25" y1="410" x2="541.25" y2="415" stroke="#333333" stroke-width="1" />
  <text x="541.25" y="428" text-anchor="middle" font-family="system-ui, sans-serif" font-size="12" fill="#222222">Q4</text>
  <text x="335" y="448" text-anchor="middle" font-family="system-ui, sans-serif" font-size="12" fill="#222222">quarter</text>
  <line x1="60" y1="40" x2="60" y2="410" stroke="#333333" stroke-width="1" />
  <line x1="55" y1="410" x2="60" y2="410" stroke="#333333" stroke-width="1" />
  <text x="52" y="414" text-anchor="end" font-family="system-ui, sans-serif" font-size="12" fill="#222222">0</text>
  <line x1="55" y1="40" x2="60" y2="40" stroke="#333333" stroke-width="1" />
  <text x="52" y="44" text-anchor="end" font-family="system-ui, sans-serif" font-size="12" fill="#222222">1</text>
  <text x="32.8" y="225" text-anchor="middle" transform="rotate(-90 32.8 225)" font-family="system-ui, sans-serif" font-size="12" fill="#222222">amount</text>
</g>
<g class="algraf-legends">
  <text x="626" y="44" text-anchor="start" font-family="system-ui, sans-serif" font-size="12" fill="#222222">type</text>
  <rect x="626" y="52" width="12" height="12" fill="#E15759" />
  <text x="644" y="62" text-anchor="start" font-family="system-ui, sans-serif" font-size="12" fill="#222222">hardware</text>
  <rect x="626" y="70" width="12" height="12" fill="#F28E2B" />
  <text x="644" y="80" text-anchor="start" font-family="system-ui, sans-serif" font-size="12" fill="#222222">services</text>
  <rect x="626" y="88" width="12" height="12" fill="#4E79A7" />
  <text x="644" y="98" text-anchor="start" font-family="system-ui, sans-serif" font-size="12" fill="#222222">software</text>
</g>
</svg>
