<svg xmlns="http://www.w3.org/2000/svg" width="800" height="520" viewBox="0 0 800 520" role="img">
<rect class="algraf-background" x="0" y="0" width="800" height="520" fill="#ffffff" />
<rect class="algraf-plot-area" x="60" y="40" width="590" height="430" fill="#ffffff" />
<g class="algraf-grid">
  <line x1="60" y1="40" x2="60" y2="470" stroke="#e6e6e6" stroke-width="1" />
  <line x1="144.286" y1="40" x2="144.286" y2="470" stroke="#e6e6e6" stroke-width="1" />
  <line x1="228.571" y1="40" x2="228.571" y2="470" stroke="#e6e6e6" stroke-width="1" />
  <line x1="312.857" y1="40" x2="312.857" y2="470" stroke="#e6e6e6" stroke-width="1" />
  <line x1="397.143" y1="40" x2="397.143" y2="470" stroke="#e6e6e6" stroke-width="1" />
  <line x1="481.429" y1="40" x2="481.429" y2="470" stroke="#e6e6e6" stroke-width="1" />
  <line x1="565.714" y1="40" x2="565.714" y2="470" stroke="#e6e6e6" stroke-width="1" />
  <line x1="650" y1="40" x2="650" y2="470" stroke="#e6e6e6" stroke-width="1" />
  <line x1="60" y1="470" x2="650" y2="470" stroke="#e6e6e6" stroke-width="1" />
  <line x1="60" y1="416.914" x2="650" y2="416.914" stroke="#e6e6e6" stroke-width="1" />
  <line x1="60" y1="363.827" x2="650" y2="363.827" stroke="#e6e6e6" stroke-width="1" />
  <line x1="60" y1="310.741" x2="650" y2="310.741" stroke="#e6e6e6" stroke-width="1" />
  <line x1="60" y1="257.654" x2="650" y2="257.654" stroke="#e6e6e6" stroke-width="1" />
  <line x1="60" y1="204.568" x2="650" y2="204.568" stroke="#e6e6e6" stroke-width="1" />
  <line x1="60" y1="151.481" x2="650" y2="151.481" stroke="#e6e6e6" stroke-width="1" />
  <line x1="60" y1="98.395" x2="650" y2="98.395" stroke="#e6e6e6" stroke-width="1" />
  <line x1="60" y1="45.309" x2="650" y2="45.309" stroke="#e6e6e6" stroke-width="1" />
</g>
<g class="algraf-layer algraf-geom-rect">
  <rect x="88.095" y="204.568" width="84.286" height="265.432" fill="steelblue" opacity="0.5" />
  <rect x="228.571" y="257.654" width="84.286" height="212.346" fill="steelblue" opacity="0.5" />
  <rect x="369.048" y="151.481" width="112.381" height="318.519" fill="steelblue" opacity="0.5" />
  <rect x="537.619" y="98.395" width="112.381" height="371.605" fill="steelblue" opacity="0.5" />
</g>
<g class="algraf-axes">
  <line x1="60" y1="470" x2="650" y2="470" stroke="#333333" stroke-width="1" />
  <line x1="60" y1="470" x2="60" y2="475" stroke="#333333" stroke-width="1" />
  <text x="60" y="488" text-anchor="middle" font-family="system-ui, sans-serif" font-size="12" fill="#222222">2026-01-01</text>
  <line x1="144.286" y1="470" x2="144.286" y2="475" stroke="#333333" stroke-width="1" />
  <text x="144.286" y="488" text-anchor="middle" font-family="system-ui, sans-serif" font-size="12" fill="#222222">2026-01-04</text>
  <line x1="228.571" y1="470" x2="228.571" y2="475" stroke="#333333" stroke-width="1" />
  <text x="228.571" y="488" text-anchor="middle" font-family="system-ui, sans-serif" font-size="12" fill="#222222">2026-01-07</text>
  <line x1="312.857" y1="470" x2="312.857" y2="475" stroke="#333333" stroke-width="1" />
  <text x="312.857" y="488" text-anchor="middle" font-family="system-ui, sans-serif" font-size="12" fill="#222222">2026-01-10</text>
  <line x1="397.143" y1="470" x2="397.143" y2="475" stroke="#333333" stroke-width="1" />
  <text x="397.143" y="488" text-anchor="middle" font-family="system-ui, sans-serif" font-size="12" fill="#222222">2026-01-13</text>
  <line x1="481.429" y1="470" x2="481.429" y2="475" stroke="#333333" stroke-width="1" />
  <text x="481.429" y="488" text-anchor="middle" font-family="system-ui, sans-serif" font-size="12" fill="#222222">2026-01-16</text>
  <line x1="565.714" y1="470" x2="565.714" y2="475" stroke="#333333" stroke-width="1" />
  <text x="565.714" y="488" text-anchor="middle" font-family="system-ui, sans-serif" font-size="12" fill="#222222">2026-01-19</text>
  <line x1="650" y1="470" x2="650" y2="475" stroke="#333333" stroke-width="1" />
  <text x="650" y="488" text-anchor="middle" font-family="system-ui, sans-serif" font-size="12" fill="#222222">2026-01-22</text>
  <text x="355" y="508" text-anchor="middle" font-family="system-ui, sans-serif" font-size="12" fill="#222222">time</text>
  <line x1="60" y1="40" x2="60" y2="470" stroke="#333333" stroke-width="1" />
  <line x1="55" y1="470" x2="60" y2="470" stroke="#333333" stroke-width="1" />
  <text x="52" y="474" text-anchor="end" font-family="system-ui, sans-serif" font-size="12" fill="#222222">0</text>
  <line x1="55" y1="416.914" x2="60" y2="416.914" stroke="#333333" stroke-width="1" />
  <text x="52" y="420.914" text-anchor="end" font-family="system-ui, sans-serif" font-size="12" fill="#222222">20</text>
  <line x1="55" y1="363.827" x2="60" y2="363.827" stroke="#333333" stroke-width="1" />
  <text x="52" y="367.827" text-anchor="end" font-family="system-ui, sans-serif" font-size="12" fill="#222222">40</text>
  <line x1="55" y1="310.741" x2="60" y2="310.741" stroke="#333333" stroke-width="1" />
  <text x="52" y="314.741" text-anchor="end" font-family="system-ui, sans-serif" font-size="12" fill="#222222">60</text>
  <line x1="55" y1="257.654" x2="60" y2="257.654" stroke="#333333" stroke-width="1" />
  <text x="52" y="261.654" text-anchor="end" font-family="system-ui, sans-serif" font-size="12" fill="#222222">80</text>
  <line x1="55" y1="204.568" x2="60" y2="204.568" stroke="#333333" stroke-width="1" />
  <text x="52" y="208.568" text-anchor="end" font-family="system-ui, sans-serif" font-size="12" fill="#222222">100</text>
  <line x1="55" y1="151.481" x2="60" y2="151.481" stroke="#333333" stroke-width="1" />
  <text x="52" y="155.481" text-anchor="end" font-family="system-ui, sans-serif" font-size="12" fill="#222222">120</text>
  <line x1="55" y1="98.395" x2="60" y2="98.395" stroke="#333333" stroke-width="1" />
  <text x="52" y="102.395" text-anchor="end" font-family="system-ui, sans-serif" font-size="12" fill="#222222">140</text>
  <line x1="55" y1="45.309" x2="60" y2="45.309" stroke="#333333" stroke-width="1" />
  <text x="52" y="49.309" text-anchor="end" font-family="system-ui, sans-serif" font-size="12" fill="#222222">160</text>
  <text x="18.4" y="255" text-anchor="middle" transform="rotate(-90 18.4 255)" font-family="system-ui, sans-serif" font-size="12" fill="#222222">value</text>
</g>
</svg>
