<svg xmlns="http://www.w3.org/2000/svg" width="760" height="360" viewBox="0 0 760 360" role="img" aria-label="Free facet scales">
<title>Free facet scales</title>
<rect class="algraf-background" x="0" y="0" width="760" height="360" fill="#ffffff" />
<text class="algraf-title" x="60" y="24" font-family="system-ui, sans-serif" font-size="18" font-weight="600" fill="#222222">Free facet scales</text>
<rect class="algraf-plot-area algraf-facet-panel" x="60" y="90" width="239" height="220" fill="#ffffff" />
<rect class="algraf-plot-area algraf-facet-panel" x="371" y="90" width="239" height="220" fill="#ffffff" />
<g class="algraf-facet-strip">
  <rect x="60" y="66" width="239" height="18" fill="#ffffff" />
  <text x="179.5" y="80" text-anchor="middle" font-family="system-ui, sans-serif" font-size="12" fill="#222222">A</text>
</g>
<g class="algraf-facet-strip">
  <rect x="371" y="66" width="239" height="18" fill="#ffffff" />
  <text x="490.5" y="80" text-anchor="middle" font-family="system-ui, sans-serif" font-size="12" fill="#222222">B</text>
</g>
<g class="algraf-grid">
  <line x1="99.375" y1="90" x2="99.375" y2="310" stroke="#e6e6e6" stroke-width="1" />
  <line x1="145.161" y1="90" x2="145.161" y2="310" stroke="#e6e6e6" stroke-width="1" />
  <line x1="190.946" y1="90" x2="190.946" y2="310" stroke="#e6e6e6" stroke-width="1" />
  <line x1="236.732" y1="90" x2="236.732" y2="310" stroke="#e6e6e6" stroke-width="1" />
  <line x1="282.517" y1="90" x2="282.517" y2="310" stroke="#e6e6e6" stroke-width="1" />
  <line x1="60" y1="294.828" x2="299" y2="294.828" stroke="#e6e6e6" stroke-width="1" />
  <line x1="60" y1="263.218" x2="299" y2="263.218" stroke="#e6e6e6" stroke-width="1" />
  <line x1="60" y1="231.609" x2="299" y2="231.609" stroke="#e6e6e6" stroke-width="1" />
  <line x1="60" y1="200" x2="299" y2="200" stroke="#e6e6e6" stroke-width="1" />
  <line x1="60" y1="168.391" x2="299" y2="168.391" stroke="#e6e6e6" stroke-width="1" />
  <line x1="60" y1="136.782" x2="299" y2="136.782" stroke="#e6e6e6" stroke-width="1" />
  <line x1="60" y1="105.172" x2="299" y2="105.172" stroke="#e6e6e6" stroke-width="1" />
</g>
<g class="algraf-grid">
  <line x1="387.483" y1="90" x2="387.483" y2="310" stroke="#e6e6e6" stroke-width="1" />
  <line x1="414.954" y1="90" x2="414.954" y2="310" stroke="#e6e6e6" stroke-width="1" />
  <line x1="442.425" y1="90" x2="442.425" y2="310" stroke="#e6e6e6" stroke-width="1" />
  <line x1="469.897" y1="90" x2="469.897" y2="310" stroke="#e6e6e6" stroke-width="1" />
  <line x1="497.368" y1="90" x2="497.368" y2="310" stroke="#e6e6e6" stroke-width="1" />
  <line x1="524.839" y1="90" x2="524.839" y2="310" stroke="#e6e6e6" stroke-width="1" />
  <line x1="552.31" y1="90" x2="552.31" y2="310" stroke="#e6e6e6" stroke-width="1" />
  <line x1="579.782" y1="90" x2="579.782" y2="310" stroke="#e6e6e6" stroke-width="1" />
  <line x1="607.253" y1="90" x2="607.253" y2="310" stroke="#e6e6e6" stroke-width="1" />
  <line x1="371" y1="263.218" x2="610" y2="263.218" stroke="#e6e6e6" stroke-width="1" />
  <line x1="371" y1="210.536" x2="610" y2="210.536" stroke="#e6e6e6" stroke-width="1" />
  <line x1="371" y1="157.854" x2="610" y2="157.854" stroke="#e6e6e6" stroke-width="1" />
  <line x1="371" y1="105.172" x2="610" y2="105.172" stroke="#e6e6e6" stroke-width="1" />
</g>
<g class="algraf-layer algraf-geom-line">
  <path d="M76.483 294.828 L99.375 231.609 L122.268 168.391 L282.517 105.172" fill="none" stroke="#4E79A7" stroke-width="2" opacity="1" />
</g>
<g class="algraf-layer algraf-geom-point">
  <circle cx="76.483" cy="294.828" r="4" fill="#4E79A7" opacity="1" />
  <circle cx="99.375" cy="231.609" r="4" fill="#4E79A7" opacity="1" />
  <circle cx="122.268" cy="168.391" r="4" fill="#4E79A7" opacity="1" />
  <circle cx="282.517" cy="105.172" r="4" fill="#4E79A7" opacity="1" />
</g>
<g class="algraf-layer algraf-geom-line">
  <path d="M387.483 294.828 L456.161 231.609 L524.839 157.854 L593.517 105.172" fill="none" stroke="#F28E2B" stroke-width="2" opacity="1" />
</g>
<g class="algraf-layer algraf-geom-point">
  <circle cx="387.483" cy="294.828" r="4" fill="#F28E2B" opacity="1" />
  <circle cx="456.161" cy="231.609" r="4" fill="#F28E2B" opacity="1" />
  <circle cx="524.839" cy="157.854" r="4" fill="#F28E2B" opacity="1" />
  <circle cx="593.517" cy="105.172" r="4" fill="#F28E2B" opacity="1" />
</g>
<g class="algraf-axes">
  <line x1="60" y1="310" x2="299" y2="310" stroke="#333333" stroke-width="1" />
  <line x1="99.375" y1="310" x2="99.375" y2="315" stroke="#333333" stroke-width="1" />
  <text x="99.375" y="328" text-anchor="middle" font-family="system-ui, sans-serif" font-size="12" fill="#222222">2</text>
  <line x1="145.161" y1="310" x2="145.161" y2="315" stroke="#333333" stroke-width="1" />
  <text x="145.161" y="328" text-anchor="middle" font-family="system-ui, sans-serif" font-size="12" fill="#222222">4</text>
  <line x1="190.946" y1="310" x2="190.946" y2="315" stroke="#333333" stroke-width="1" />
  <text x="190.946" y="328" text-anchor="middle" font-family="system-ui, sans-serif" font-size="12" fill="#222222">6</text>
  <line x1="236.732" y1="310" x2="236.732" y2="315" stroke="#333333" stroke-width="1" />
  <text x="236.732" y="328" text-anchor="middle" font-family="system-ui, sans-serif" font-size="12" fill="#222222">8</text>
  <line x1="282.517" y1="310" x2="282.517" y2="315" stroke="#333333" stroke-width="1" />
  <text x="282.517" y="328" text-anchor="middle" font-family="system-ui, sans-serif" font-size="12" fill="#222222">10</text>
  <text x="179.5" y="348" text-anchor="middle" font-family="system-ui, sans-serif" font-size="12" fill="#222222">Panel-local x</text>
  <line x1="60" y1="90" x2="60" y2="310" stroke="#333333" stroke-width="1" />
  <line x1="55" y1="294.828" x2="60" y2="294.828" stroke="#333333" stroke-width="1" />
  <text x="52" y="298.828" text-anchor="end" font-family="system-ui, sans-serif" font-size="12" fill="#222222">1</text>
  <line x1="55" y1="263.218" x2="60" y2="263.218" stroke="#333333" stroke-width="1" />
  <text x="52" y="267.218" text-anchor="end" font-family="system-ui, sans-serif" font-size="12" fill="#222222">1.5</text>
  <line x1="55" y1="231.609" x2="60" y2="231.609" stroke="#333333" stroke-width="1" />
  <text x="52" y="235.609" text-anchor="end" font-family="system-ui, sans-serif" font-size="12" fill="#222222">2</text>
  <line x1="55" y1="200" x2="60" y2="200" stroke="#333333" stroke-width="1" />
  <text x="52" y="204" text-anchor="end" font-family="system-ui, sans-serif" font-size="12" fill="#222222">2.5</text>
  <line x1="55" y1="168.391" x2="60" y2="168.391" stroke="#333333" stroke-width="1" />
  <text x="52" y="172.391" text-anchor="end" font-family="system-ui, sans-serif" font-size="12" fill="#222222">3</text>
  <line x1="55" y1="136.782" x2="60" y2="136.782" stroke="#333333" stroke-width="1" />
  <text x="52" y="140.782" text-anchor="end" font-family="system-ui, sans-serif" font-size="12" fill="#222222">3.5</text>
  <line x1="55" y1="105.172" x2="60" y2="105.172" stroke="#333333" stroke-width="1" />
  <text x="52" y="109.172" text-anchor="end" font-family="system-ui, sans-serif" font-size="12" fill="#222222">4</text>
  <text x="18.4" y="200" text-anchor="middle" transform="rotate(-90 18.4 200)" font-family="system-ui, sans-serif" font-size="12" fill="#222222">Panel-local y</text>
</g>
<g class="algraf-axes">
  <line x1="371" y1="310" x2="610" y2="310" stroke="#333333" stroke-width="1" />
  <line x1="387.483" y1="310" x2="387.483" y2="315" stroke="#333333" stroke-width="1" />
  <text x="387.483" y="328" text-anchor="middle" font-family="system-ui, sans-serif" font-size="12" fill="#222222">100</text>
  <line x1="414.954" y1="310" x2="414.954" y2="315" stroke="#333333" stroke-width="1" />
  <text x="414.954" y="328" text-anchor="middle" font-family="system-ui, sans-serif" font-size="12" fill="#222222">120</text>
  <line x1="442.425" y1="310" x2="442.425" y2="315" stroke="#333333" stroke-width="1" />
  <text x="442.425" y="328" text-anchor="middle" font-family="system-ui, sans-serif" font-size="12" fill="#222222">140</text>
  <line x1="469.897" y1="310" x2="469.897" y2="315" stroke="#333333" stroke-width="1" />
  <text x="469.897" y="328" text-anchor="middle" font-family="system-ui, sans-serif" font-size="12" fill="#222222">160</text>
  <line x1="497.368" y1="310" x2="497.368" y2="315" stroke="#333333" stroke-width="1" />
  <text x="497.368" y="328" text-anchor="middle" font-family="system-ui, sans-serif" font-size="12" fill="#222222">180</text>
  <line x1="524.839" y1="310" x2="524.839" y2="315" stroke="#333333" stroke-width="1" />
  <text x="524.839" y="328" text-anchor="middle" font-family="system-ui, sans-serif" font-size="12" fill="#222222">200</text>
  <line x1="552.31" y1="310" x2="552.31" y2="315" stroke="#333333" stroke-width="1" />
  <text x="552.31" y="328" text-anchor="middle" font-family="system-ui, sans-serif" font-size="12" fill="#222222">220</text>
  <line x1="579.782" y1="310" x2="579.782" y2="315" stroke="#333333" stroke-width="1" />
  <text x="579.782" y="328" text-anchor="middle" font-family="system-ui, sans-serif" font-size="12" fill="#222222">240</text>
  <line x1="607.253" y1="310" x2="607.253" y2="315" stroke="#333333" stroke-width="1" />
  <text x="607.253" y="328" text-anchor="middle" font-family="system-ui, sans-serif" font-size="12" fill="#222222">260</text>
  <text x="490.5" y="348" text-anchor="middle" font-family="system-ui, sans-serif" font-size="12" fill="#222222">Panel-local x</text>
  <line x1="371" y1="90" x2="371" y2="310" stroke="#333333" stroke-width="1" />
  <line x1="366" y1="263.218" x2="371" y2="263.218" stroke="#333333" stroke-width="1" />
  <text x="363" y="267.218" text-anchor="end" font-family="system-ui, sans-serif" font-size="12" fill="#222222">15</text>
  <line x1="366" y1="210.536" x2="371" y2="210.536" stroke="#333333" stroke-width="1" />
  <text x="363" y="214.536" text-anchor="end" font-family="system-ui, sans-serif" font-size="12" fill="#222222">20</text>
  <line x1="366" y1="157.854" x2="371" y2="157.854" stroke="#333333" stroke-width="1" />
  <text x="363" y="161.854" text-anchor="end" font-family="system-ui, sans-serif" font-size="12" fill="#222222">25</text>
  <line x1="366" y1="105.172" x2="371" y2="105.172" stroke="#333333" stroke-width="1" />
  <text x="363" y="109.172" text-anchor="end" font-family="system-ui, sans-serif" font-size="12" fill="#222222">30</text>
  <text x="336.6" y="200" text-anchor="middle" transform="rotate(-90 336.6 200)" font-family="system-ui, sans-serif" font-size="12" fill="#222222">Panel-local y</text>
</g>
<g class="algraf-legends">
  <text x="626" y="70" text-anchor="start" font-family="system-ui, sans-serif" font-size="12" fill="#222222">series</text>
  <rect x="626" y="78" width="12" height="12" fill="#4E79A7" stroke="#4E79A7" stroke-width="2" />
  <text x="644" y="88" text-anchor="start" font-family="system-ui, sans-serif" font-size="12" fill="#222222">A</text>
  <rect x="626" y="96" width="12" height="12" fill="#F28E2B" stroke="#F28E2B" stroke-width="2" />
  <text x="644" y="106" text-anchor="start" font-family="system-ui, sans-serif" font-size="12" fill="#222222">B</text>
</g>
</svg>
