<svg xmlns="http://www.w3.org/2000/svg" width="760" height="420" viewBox="0 0 760 420" role="img" aria-label="Project Schedule">
<title>Project Schedule</title>
<rect class="algraf-background" x="0" y="0" width="760" height="420" fill="#ffffff" />
<text class="algraf-title" x="69.2" y="24" font-family="system-ui, sans-serif" font-size="18" font-weight="600" fill="#222222">Project Schedule</text>
<rect class="algraf-plot-area" x="69.2" y="66" width="540.8" height="304" fill="#ffffff" />
<g class="algraf-layer algraf-geom-rect">
  <rect x="69.2" y="278.8" width="66.22" height="18.708" fill="#4E79A7" opacity="0.85" />
  <rect x="135.42" y="299.586" width="143.478" height="18.708" fill="#F28E2B" opacity="0.85" />
  <rect x="278.898" y="320.373" width="165.551" height="18.708" fill="#E15759" opacity="0.85" />
  <rect x="91.273" y="177.467" width="77.257" height="18.708" fill="#4E79A7" opacity="0.85" />
  <rect x="168.531" y="198.253" width="198.661" height="18.708" fill="#F28E2B" opacity="0.85" />
  <rect x="400.302" y="239.826" width="77.257" height="18.708" fill="#76B7B2" opacity="0.85" />
  <rect x="212.678" y="96.92" width="132.441" height="18.708" fill="#F28E2B" opacity="0.85" />
  <rect x="345.118" y="117.706" width="176.588" height="18.708" fill="#E15759" opacity="0.85" />
  <rect x="521.706" y="138.492" width="88.294" height="18.708" fill="#76B7B2" opacity="0.85" />
</g>
<g class="algraf-axes">
  <line x1="69.2" y1="370" x2="610" y2="370" stroke="#333333" stroke-width="1" />
  <line x1="69.2" y1="370" x2="69.2" y2="375" stroke="#333333" stroke-width="1" />
  <text x="69.2" y="388" text-anchor="middle" font-family="system-ui, sans-serif" font-size="12" fill="#222222">2026-06-01</text>
  <line x1="400.302" y1="370" x2="400.302" y2="375" stroke="#333333" stroke-width="1" />
  <text x="400.302" y="388" text-anchor="middle" font-family="system-ui, sans-serif" font-size="12" fill="#222222">2026-07-01</text>
  <text x="339.6" y="408" text-anchor="middle" font-family="system-ui, sans-serif" font-size="12" fill="#222222">Timeline</text>
  <line x1="69.2" y1="66" x2="69.2" y2="370" stroke="#333333" stroke-width="1" />
  <line x1="64.2" y1="319.333" x2="69.2" y2="319.333" stroke="#333333" stroke-width="1" />
  <text x="61.2" y="323.333" text-anchor="end" font-family="system-ui, sans-serif" font-size="12" fill="#222222">Morgan</text>
  <line x1="64.2" y1="218" x2="69.2" y2="218" stroke="#333333" stroke-width="1" />
  <text x="61.2" y="222" text-anchor="end" font-family="system-ui, sans-serif" font-size="12" fill="#222222">Reyes</text>
  <line x1="64.2" y1="116.667" x2="69.2" y2="116.667" stroke="#333333" stroke-width="1" />
  <text x="61.2" y="120.667" text-anchor="end" font-family="system-ui, sans-serif" font-size="12" fill="#222222">Patel</text>
  <text x="12" y="218" text-anchor="middle" transform="rotate(-90 12 218)" font-family="system-ui, sans-serif" font-size="12" fill="#222222">Attorney / phase</text>
</g>
<g class="algraf-legends">
  <text x="626" y="70" text-anchor="start" font-family="system-ui, sans-serif" font-size="12" fill="#222222">phase</text>
  <rect x="626" y="78" width="12" height="12" fill="#4E79A7" />
  <text x="644" y="88" text-anchor="start" font-family="system-ui, sans-serif" font-size="12" fill="#222222">Intake</text>
  <rect x="626" y="96" width="12" height="12" fill="#F28E2B" />
  <text x="644" y="106" text-anchor="start" font-family="system-ui, sans-serif" font-size="12" fill="#222222">Discovery</text>
  <rect x="626" y="114" width="12" height="12" fill="#E15759" />
  <text x="644" y="124" text-anchor="start" font-family="system-ui, sans-serif" font-size="12" fill="#222222">Briefing</text>
  <rect x="626" y="132" width="12" height="12" fill="#76B7B2" />
  <text x="644" y="142" text-anchor="start" font-family="system-ui, sans-serif" font-size="12" fill="#222222">Hearing</text>
</g>
</svg>
