<svg xmlns="http://www.w3.org/2000/svg" width="760" height="420" viewBox="0 0 760 420" role="img" aria-label="Project Schedule">
<title>Project Schedule</title>
<rect class="algraf-background" x="0" y="0" width="760" height="420" fill="#ffffff" />
<text class="algraf-title" x="75.2" y="24" font-family="system-ui, sans-serif" font-size="18" font-weight="600" fill="#222222">Project Schedule</text>
<rect class="algraf-plot-area" x="75.2" y="66" width="534.8" height="304" fill="#ffffff" />
<defs>
<clipPath id="algraf-clip-0"><rect x="75.2" y="66" width="534.8" height="304" /></clipPath>
</defs>
<g clip-path="url(#algraf-clip-0)">
  <g class="algraf-layer algraf-geom-rect">
    <rect x="75.2" y="278.8" width="65.486" height="18.708" fill="#4E79A7" opacity="0.85" />
    <rect x="140.686" y="299.586" width="141.886" height="18.708" fill="#F28E2B" opacity="0.85" />
    <rect x="282.571" y="320.373" width="163.714" height="18.708" fill="#E15759" opacity="0.85" />
    <rect x="97.029" y="177.467" width="76.4" height="18.708" fill="#4E79A7" opacity="0.85" />
    <rect x="173.429" y="198.253" width="196.457" height="18.708" fill="#F28E2B" opacity="0.85" />
    <rect x="402.629" y="239.826" width="76.4" height="18.708" fill="#76B7B2" opacity="0.85" />
    <rect x="217.086" y="96.92" width="130.971" height="18.708" fill="#F28E2B" opacity="0.85" />
    <rect x="348.057" y="117.706" width="174.629" height="18.708" fill="#E15759" opacity="0.85" />
    <rect x="522.686" y="138.492" width="87.314" height="18.708" fill="#76B7B2" opacity="0.85" />
  </g>
</g>
<g class="algraf-axes">
  <line x1="75.2" y1="370" x2="610" y2="370" stroke="#333333" stroke-width="1" />
  <line x1="75.2" y1="370" x2="75.2" y2="375" stroke="#333333" stroke-width="1" />
  <text x="75.2" y="388" text-anchor="middle" font-family="system-ui, sans-serif" font-size="12" fill="#222222">2026-06-01</text>
  <line x1="151.6" y1="370" x2="151.6" y2="375" stroke="#333333" stroke-width="1" />
  <text x="151.6" y="388" text-anchor="middle" font-family="system-ui, sans-serif" font-size="12" fill="#222222">2026-06-08</text>
  <line x1="228" y1="370" x2="228" y2="375" stroke="#333333" stroke-width="1" />
  <text x="228" y="388" text-anchor="middle" font-family="system-ui, sans-serif" font-size="12" fill="#222222">2026-06-15</text>
  <line x1="304.4" y1="370" x2="304.4" y2="375" stroke="#333333" stroke-width="1" />
  <text x="304.4" y="388" text-anchor="middle" font-family="system-ui, sans-serif" font-size="12" fill="#222222">2026-06-22</text>
  <line x1="380.8" y1="370" x2="380.8" y2="375" stroke="#333333" stroke-width="1" />
  <text x="380.8" y="388" text-anchor="middle" font-family="system-ui, sans-serif" font-size="12" fill="#222222">2026-06-29</text>
  <line x1="457.2" y1="370" x2="457.2" y2="375" stroke="#333333" stroke-width="1" />
  <text x="457.2" y="388" text-anchor="middle" font-family="system-ui, sans-serif" font-size="12" fill="#222222">2026-07-06</text>
  <line x1="533.6" y1="370" x2="533.6" y2="375" stroke="#333333" stroke-width="1" />
  <text x="533.6" y="388" text-anchor="middle" font-family="system-ui, sans-serif" font-size="12" fill="#222222">2026-07-13</text>
  <line x1="610" y1="370" x2="610" y2="375" stroke="#333333" stroke-width="1" />
  <text x="610" y="388" text-anchor="middle" font-family="system-ui, sans-serif" font-size="12" fill="#222222">2026-07-20</text>
  <text x="342.6" y="408" text-anchor="middle" font-family="system-ui, sans-serif" font-size="12" fill="#222222">Timeline</text>
  <line x1="75.2" y1="66" x2="75.2" y2="370" stroke="#333333" stroke-width="1" />
  <line x1="70.2" y1="319.333" x2="75.2" y2="319.333" stroke="#333333" stroke-width="1" />
  <text x="67.2" y="323.333" text-anchor="end" font-family="system-ui, sans-serif" font-size="12" fill="#222222">Morgan</text>
  <line x1="70.2" y1="218" x2="75.2" y2="218" stroke="#333333" stroke-width="1" />
  <text x="67.2" y="222" text-anchor="end" font-family="system-ui, sans-serif" font-size="12" fill="#222222">Reyes</text>
  <line x1="70.2" y1="116.667" x2="75.2" y2="116.667" stroke="#333333" stroke-width="1" />
  <text x="67.2" y="120.667" text-anchor="end" font-family="system-ui, sans-serif" font-size="12" fill="#222222">Patel</text>
  <text x="12" y="218" text-anchor="middle" transform="rotate(-90 12 218)" font-family="system-ui, sans-serif" font-size="12" fill="#222222">Attorney / phase</text>
</g>
<g class="algraf-legends">
  <text x="626" y="70" text-anchor="start" font-family="system-ui, sans-serif" font-size="12" fill="#222222">phase</text>
  <rect x="626" y="78" width="12" height="12" fill="#4E79A7" />
  <text x="644" y="88" text-anchor="start" font-family="system-ui, sans-serif" font-size="12" fill="#222222">Intake</text>
  <rect x="626" y="96" width="12" height="12" fill="#F28E2B" />
  <text x="644" y="106" text-anchor="start" font-family="system-ui, sans-serif" font-size="12" fill="#222222">Discovery</text>
  <rect x="626" y="114" width="12" height="12" fill="#E15759" />
  <text x="644" y="124" text-anchor="start" font-family="system-ui, sans-serif" font-size="12" fill="#222222">Briefing</text>
  <rect x="626" y="132" width="12" height="12" fill="#76B7B2" />
  <text x="644" y="142" text-anchor="start" font-family="system-ui, sans-serif" font-size="12" fill="#222222">Hearing</text>
</g>
</svg>
