<svg xmlns="http://www.w3.org/2000/svg" width="700" height="460" viewBox="0 0 700 460" role="img" aria-label="Custom continuous gradient">
<title>Custom continuous gradient</title>
<rect class="algraf-background" x="0" y="0" width="700" height="460" fill="#ffffff" />
<text class="algraf-title" x="68" y="24" font-family="system-ui, sans-serif" font-size="18" font-weight="600" fill="#222222">Custom continuous gradient</text>
<rect class="algraf-plot-area" x="68" y="66" width="482" height="344" fill="#ffffff" />
<g class="algraf-grid">
</g>
<g class="algraf-layer algraf-geom-tile">
  <rect x="68" y="295.333" width="96.4" height="114.667" fill="#3a6bc1" opacity="0.92" />
  <rect x="68" y="180.667" width="96.4" height="114.667" fill="#5078a0" opacity="0.92" />
  <rect x="68" y="66" width="96.4" height="114.667" fill="#426fb6" opacity="0.92" />
  <rect x="164.4" y="295.333" width="96.4" height="114.667" fill="#4974ab" opacity="0.92" />
  <rect x="164.4" y="180.667" width="96.4" height="114.667" fill="#a34a57" opacity="0.92" />
  <rect x="164.4" y="66" width="96.4" height="114.667" fill="#79617c" opacity="0.92" />
  <rect x="260.8" y="295.333" width="96.4" height="114.667" fill="#426fb6" opacity="0.92" />
  <rect x="260.8" y="180.667" width="96.4" height="114.667" fill="#4974ab" opacity="0.92" />
  <rect x="260.8" y="66" width="96.4" height="114.667" fill="#5078a0" opacity="0.92" />
  <rect x="357.2" y="295.333" width="96.4" height="114.667" fill="#79617c" opacity="0.92" />
  <rect x="357.2" y="180.667" width="96.4" height="114.667" fill="#cc3333ff" opacity="0.92" />
  <rect x="357.2" y="66" width="96.4" height="114.667" fill="#4974ab" opacity="0.92" />
  <rect x="453.6" y="295.333" width="96.4" height="114.667" fill="rgba(51, 102, 204, 1)" opacity="0.92" />
  <rect x="453.6" y="180.667" width="96.4" height="114.667" fill="#426fb6" opacity="0.92" />
  <rect x="453.6" y="66" width="96.4" height="114.667" fill="#3a6bc1" opacity="0.92" />
</g>
<g class="algraf-axes">
  <line x1="68" y1="410" x2="550" y2="410" stroke="#333333" stroke-width="1" />
  <line x1="116.2" y1="410" x2="116.2" y2="415" stroke="#333333" stroke-width="1" />
  <text x="116.2" y="428" text-anchor="middle" font-family="system-ui, sans-serif" font-size="12" fill="#222222">Mon</text>
  <line x1="212.6" y1="410" x2="212.6" y2="415" stroke="#333333" stroke-width="1" />
  <text x="212.6" y="428" text-anchor="middle" font-family="system-ui, sans-serif" font-size="12" fill="#222222">Tue</text>
  <line x1="309" y1="410" x2="309" y2="415" stroke="#333333" stroke-width="1" />
  <text x="309" y="428" text-anchor="middle" font-family="system-ui, sans-serif" font-size="12" fill="#222222">Wed</text>
  <line x1="405.4" y1="410" x2="405.4" y2="415" stroke="#333333" stroke-width="1" />
  <text x="405.4" y="428" text-anchor="middle" font-family="system-ui, sans-serif" font-size="12" fill="#222222">Thu</text>
  <line x1="501.8" y1="410" x2="501.8" y2="415" stroke="#333333" stroke-width="1" />
  <text x="501.8" y="428" text-anchor="middle" font-family="system-ui, sans-serif" font-size="12" fill="#222222">Fri</text>
  <text x="309" y="448" text-anchor="middle" font-family="system-ui, sans-serif" font-size="12" fill="#222222">day</text>
  <line x1="68" y1="66" x2="68" y2="410" stroke="#333333" stroke-width="1" />
  <line x1="63" y1="352.667" x2="68" y2="352.667" stroke="#333333" stroke-width="1" />
  <text x="60" y="356.667" text-anchor="end" font-family="system-ui, sans-serif" font-size="12" fill="#222222">09:00</text>
  <line x1="63" y1="238" x2="68" y2="238" stroke="#333333" stroke-width="1" />
  <text x="60" y="242" text-anchor="end" font-family="system-ui, sans-serif" font-size="12" fill="#222222">12:00</text>
  <line x1="63" y1="123.333" x2="68" y2="123.333" stroke="#333333" stroke-width="1" />
  <text x="60" y="127.333" text-anchor="end" font-family="system-ui, sans-serif" font-size="12" fill="#222222">15:00</text>
  <text x="12" y="238" text-anchor="middle" transform="rotate(-90 12 238)" font-family="system-ui, sans-serif" font-size="12" fill="#222222">hour</text>
</g>
<g class="algraf-legends">
  <text x="566" y="70" text-anchor="start" font-family="system-ui, sans-serif" font-size="12" fill="#222222">Intensity</text>
  <rect x="566" y="84" width="22" height="1.75" fill="#cb3334" />
  <rect x="566" y="85" width="22" height="1.75" fill="#ca3435" />
  <rect x="566" y="86" width="22" height="1.75" fill="#c93536" />
  <rect x="566" y="87" width="22" height="1.75" fill="#c73637" />
  <rect x="566" y="88" width="22" height="1.75" fill="#c63638" />
  <rect x="566" y="89" width="22" height="1.75" fill="#c53739" />
  <rect x="566" y="90" width="22" height="1.75" fill="#c3383b" />
  <rect x="566" y="91" width="22" height="1.75" fill="#c2383c" />
  <rect x="566" y="92" width="22" height="1.75" fill="#c1393d" />
  <rect x="566" y="93" width="22" height="1.75" fill="#c03a3e" />
  <rect x="566" y="94" width="22" height="1.75" fill="#be3b3f" />
  <rect x="566" y="95" width="22" height="1.75" fill="#bd3b40" />
  <rect x="566" y="96" width="22" height="1.75" fill="#bc3c41" />
  <rect x="566" y="97" width="22" height="1.75" fill="#ba3d43" />
  <rect x="566" y="98" width="22" height="1.75" fill="#b93e44" />
  <rect x="566" y="99" width="22" height="1.75" fill="#b83e45" />
  <rect x="566" y="100" width="22" height="1.75" fill="#b63f46" />
  <rect x="566" y="101" width="22" height="1.75" fill="#b54047" />
  <rect x="566" y="102" width="22" height="1.75" fill="#b44148" />
  <rect x="566" y="103" width="22" height="1.75" fill="#b2414a" />
  <rect x="566" y="104" width="22" height="1.75" fill="#b1424b" />
  <rect x="566" y="105" width="22" height="1.75" fill="#b0434c" />
  <rect x="566" y="106" width="22" height="1.75" fill="#ae434d" />
  <rect x="566" y="107" width="22" height="1.75" fill="#ad444e" />
  <rect x="566" y="108" width="22" height="1.75" fill="#ac454f" />
  <rect x="566" y="109" width="22" height="1.75" fill="#aa4650" />
  <rect x="566" y="110" width="22" height="1.75" fill="#a94652" />
  <rect x="566" y="111" width="22" height="1.75" fill="#a84753" />
  <rect x="566" y="112" width="22" height="1.75" fill="#a74854" />
  <rect x="566" y="113" width="22" height="1.75" fill="#a54955" />
  <rect x="566" y="114" width="22" height="1.75" fill="#a44956" />
  <rect x="566" y="115" width="22" height="1.75" fill="#a34a57" />
  <rect x="566" y="116" width="22" height="1.75" fill="#a14b59" />
  <rect x="566" y="117" width="22" height="1.75" fill="#a04c5a" />
  <rect x="566" y="118" width="22" height="1.75" fill="#9f4c5b" />
  <rect x="566" y="119" width="22" height="1.75" fill="#9d4d5c" />
  <rect x="566" y="120" width="22" height="1.75" fill="#9c4e5d" />
  <rect x="566" y="121" width="22" height="1.75" fill="#9b4e5e" />
  <rect x="566" y="122" width="22" height="1.75" fill="#994f60" />
  <rect x="566" y="123" width="22" height="1.75" fill="#985061" />
  <rect x="566" y="124" width="22" height="1.75" fill="#975162" />
  <rect x="566" y="125" width="22" height="1.75" fill="#955163" />
  <rect x="566" y="126" width="22" height="1.75" fill="#945264" />
  <rect x="566" y="127" width="22" height="1.75" fill="#935365" />
  <rect x="566" y="128" width="22" height="1.75" fill="#915466" />
  <rect x="566" y="129" width="22" height="1.75" fill="#905468" />
  <rect x="566" y="130" width="22" height="1.75" fill="#8f5569" />
  <rect x="566" y="131" width="22" height="1.75" fill="#8e566a" />
  <rect x="566" y="132" width="22" height="1.75" fill="#8c566b" />
  <rect x="566" y="133" width="22" height="1.75" fill="#8b576c" />
  <rect x="566" y="134" width="22" height="1.75" fill="#8a586d" />
  <rect x="566" y="135" width="22" height="1.75" fill="#88596f" />
  <rect x="566" y="136" width="22" height="1.75" fill="#875970" />
  <rect x="566" y="137" width="22" height="1.75" fill="#865a71" />
  <rect x="566" y="138" width="22" height="1.75" fill="#845b72" />
  <rect x="566" y="139" width="22" height="1.75" fill="#835c73" />
  <rect x="566" y="140" width="22" height="1.75" fill="#825c74" />
  <rect x="566" y="141" width="22" height="1.75" fill="#805d75" />
  <rect x="566" y="142" width="22" height="1.75" fill="#7f5e77" />
  <rect x="566" y="143" width="22" height="1.75" fill="#7e5f78" />
  <rect x="566" y="144" width="22" height="1.75" fill="#7c5f79" />
  <rect x="566" y="145" width="22" height="1.75" fill="#7b607a" />
  <rect x="566" y="146" width="22" height="1.75" fill="#7a617b" />
  <rect x="566" y="147" width="22" height="1.75" fill="#78617c" />
  <rect x="566" y="148" width="22" height="1.75" fill="#77627e" />
  <rect x="566" y="149" width="22" height="1.75" fill="#76637f" />
  <rect x="566" y="150" width="22" height="1.75" fill="#756480" />
  <rect x="566" y="151" width="22" height="1.75" fill="#736481" />
  <rect x="566" y="152" width="22" height="1.75" fill="#726582" />
  <rect x="566" y="153" width="22" height="1.75" fill="#716683" />
  <rect x="566" y="154" width="22" height="1.75" fill="#6f6785" />
  <rect x="566" y="155" width="22" height="1.75" fill="#6e6786" />
  <rect x="566" y="156" width="22" height="1.75" fill="#6d6887" />
  <rect x="566" y="157" width="22" height="1.75" fill="#6b6988" />
  <rect x="566" y="158" width="22" height="1.75" fill="#6a6a89" />
  <rect x="566" y="159" width="22" height="1.75" fill="#696a8a" />
  <rect x="566" y="160" width="22" height="1.75" fill="#676b8b" />
  <rect x="566" y="161" width="22" height="1.75" fill="#666c8d" />
  <rect x="566" y="162" width="22" height="1.75" fill="#656c8e" />
  <rect x="566" y="163" width="22" height="1.75" fill="#636d8f" />
  <rect x="566" y="164" width="22" height="1.75" fill="#626e90" />
  <rect x="566" y="165" width="22" height="1.75" fill="#616f91" />
  <rect x="566" y="166" width="22" height="1.75" fill="#606f92" />
  <rect x="566" y="167" width="22" height="1.75" fill="#5e7094" />
  <rect x="566" y="168" width="22" height="1.75" fill="#5d7195" />
  <rect x="566" y="169" width="22" height="1.75" fill="#5c7296" />
  <rect x="566" y="170" width="22" height="1.75" fill="#5a7297" />
  <rect x="566" y="171" width="22" height="1.75" fill="#597398" />
  <rect x="566" y="172" width="22" height="1.75" fill="#587499" />
  <rect x="566" y="173" width="22" height="1.75" fill="#56749a" />
  <rect x="566" y="174" width="22" height="1.75" fill="#55759c" />
  <rect x="566" y="175" width="22" height="1.75" fill="#54769d" />
  <rect x="566" y="176" width="22" height="1.75" fill="#52779e" />
  <rect x="566" y="177" width="22" height="1.75" fill="#51779f" />
  <rect x="566" y="178" width="22" height="1.75" fill="#5078a0" />
  <rect x="566" y="179" width="22" height="1.75" fill="#5078a0" />
  <rect x="566" y="180" width="22" height="1.75" fill="#4f78a1" />
  <rect x="566" y="181" width="22" height="1.75" fill="#4f78a1" />
  <rect x="566" y="182" width="22" height="1.75" fill="#4f77a1" />
  <rect x="566" y="183" width="22" height="1.75" fill="#4f77a2" />
  <rect x="566" y="184" width="22" height="1.75" fill="#4f77a2" />
  <rect x="566" y="185" width="22" height="1.75" fill="#4e77a3" />
  <rect x="566" y="186" width="22" height="1.75" fill="#4e77a3" />
  <rect x="566" y="187" width="22" height="1.75" fill="#4e77a3" />
  <rect x="566" y="188" width="22" height="1.75" fill="#4e77a4" />
  <rect x="566" y="189" width="22" height="1.75" fill="#4d76a4" />
  <rect x="566" y="190" width="22" height="1.75" fill="#4d76a4" />
  <rect x="566" y="191" width="22" height="1.75" fill="#4d76a5" />
  <rect x="566" y="192" width="22" height="1.75" fill="#4d76a5" />
  <rect x="566" y="193" width="22" height="1.75" fill="#4c76a5" />
  <rect x="566" y="194" width="22" height="1.75" fill="#4c76a6" />
  <rect x="566" y="195" width="22" height="1.75" fill="#4c76a6" />
  <rect x="566" y="196" width="22" height="1.75" fill="#4c75a6" />
  <rect x="566" y="197" width="22" height="1.75" fill="#4c75a7" />
  <rect x="566" y="198" width="22" height="1.75" fill="#4b75a7" />
  <rect x="566" y="199" width="22" height="1.75" fill="#4b75a7" />
  <rect x="566" y="200" width="22" height="1.75" fill="#4b75a8" />
  <rect x="566" y="201" width="22" height="1.75" fill="#4b75a8" />
  <rect x="566" y="202" width="22" height="1.75" fill="#4a75a8" />
  <rect x="566" y="203" width="22" height="1.75" fill="#4a74a9" />
  <rect x="566" y="204" width="22" height="1.75" fill="#4a74a9" />
  <rect x="566" y="205" width="22" height="1.75" fill="#4a74aa" />
  <rect x="566" y="206" width="22" height="1.75" fill="#4974aa" />
  <rect x="566" y="207" width="22" height="1.75" fill="#4974aa" />
  <rect x="566" y="208" width="22" height="1.75" fill="#4974ab" />
  <rect x="566" y="209" width="22" height="1.75" fill="#4974ab" />
  <rect x="566" y="210" width="22" height="1.75" fill="#4973ab" />
  <rect x="566" y="211" width="22" height="1.75" fill="#4873ac" />
  <rect x="566" y="212" width="22" height="1.75" fill="#4873ac" />
  <rect x="566" y="213" width="22" height="1.75" fill="#4873ac" />
  <rect x="566" y="214" width="22" height="1.75" fill="#4873ad" />
  <rect x="566" y="215" width="22" height="1.75" fill="#4773ad" />
  <rect x="566" y="216" width="22" height="1.75" fill="#4773ad" />
  <rect x="566" y="217" width="22" height="1.75" fill="#4772ae" />
  <rect x="566" y="218" width="22" height="1.75" fill="#4772ae" />
  <rect x="566" y="219" width="22" height="1.75" fill="#4672ae" />
  <rect x="566" y="220" width="22" height="1.75" fill="#4672af" />
  <rect x="566" y="221" width="22" height="1.75" fill="#4672af" />
  <rect x="566" y="222" width="22" height="1.75" fill="#4672af" />
  <rect x="566" y="223" width="22" height="1.75" fill="#4672b0" />
  <rect x="566" y="224" width="22" height="1.75" fill="#4571b0" />
  <rect x="566" y="225" width="22" height="1.75" fill="#4571b1" />
  <rect x="566" y="226" width="22" height="1.75" fill="#4571b1" />
  <rect x="566" y="227" width="22" height="1.75" fill="#4571b1" />
  <rect x="566" y="228" width="22" height="1.75" fill="#4471b2" />
  <rect x="566" y="229" width="22" height="1.75" fill="#4471b2" />
  <rect x="566" y="230" width="22" height="1.75" fill="#4471b2" />
  <rect x="566" y="231" width="22" height="1.75" fill="#4470b3" />
  <rect x="566" y="232" width="22" height="1.75" fill="#4370b3" />
  <rect x="566" y="233" width="22" height="1.75" fill="#4370b3" />
  <rect x="566" y="234" width="22" height="1.75" fill="#4370b4" />
  <rect x="566" y="235" width="22" height="1.75" fill="#4370b4" />
  <rect x="566" y="236" width="22" height="1.75" fill="#4370b4" />
  <rect x="566" y="237" width="22" height="1.75" fill="#4270b5" />
  <rect x="566" y="238" width="22" height="1.75" fill="#426fb5" />
  <rect x="566" y="239" width="22" height="1.75" fill="#426fb5" />
  <rect x="566" y="240" width="22" height="1.75" fill="#426fb6" />
  <rect x="566" y="241" width="22" height="1.75" fill="#416fb6" />
  <rect x="566" y="242" width="22" height="1.75" fill="#416fb6" />
  <rect x="566" y="243" width="22" height="1.75" fill="#416fb7" />
  <rect x="566" y="244" width="22" height="1.75" fill="#416fb7" />
  <rect x="566" y="245" width="22" height="1.75" fill="#406eb8" />
  <rect x="566" y="246" width="22" height="1.75" fill="#406eb8" />
  <rect x="566" y="247" width="22" height="1.75" fill="#406eb8" />
  <rect x="566" y="248" width="22" height="1.75" fill="#406eb9" />
  <rect x="566" y="249" width="22" height="1.75" fill="#406eb9" />
  <rect x="566" y="250" width="22" height="1.75" fill="#3f6eb9" />
  <rect x="566" y="251" width="22" height="1.75" fill="#3f6eba" />
  <rect x="566" y="252" width="22" height="1.75" fill="#3f6dba" />
  <rect x="566" y="253" width="22" height="1.75" fill="#3f6dba" />
  <rect x="566" y="254" width="22" height="1.75" fill="#3e6dbb" />
  <rect x="566" y="255" width="22" height="1.75" fill="#3e6dbb" />
  <rect x="566" y="256" width="22" height="1.75" fill="#3e6dbb" />
  <rect x="566" y="257" width="22" height="1.75" fill="#3e6dbc" />
  <rect x="566" y="258" width="22" height="1.75" fill="#3d6dbc" />
  <rect x="566" y="259" width="22" height="1.75" fill="#3d6cbc" />
  <rect x="566" y="260" width="22" height="1.75" fill="#3d6cbd" />
  <rect x="566" y="261" width="22" height="1.75" fill="#3d6cbd" />
  <rect x="566" y="262" width="22" height="1.75" fill="#3d6cbd" />
  <rect x="566" y="263" width="22" height="1.75" fill="#3c6cbe" />
  <rect x="566" y="264" width="22" height="1.75" fill="#3c6cbe" />
  <rect x="566" y="265" width="22" height="1.75" fill="#3c6cbf" />
  <rect x="566" y="266" width="22" height="1.75" fill="#3c6bbf" />
  <rect x="566" y="267" width="22" height="1.75" fill="#3b6bbf" />
  <rect x="566" y="268" width="22" height="1.75" fill="#3b6bc0" />
  <rect x="566" y="269" width="22" height="1.75" fill="#3b6bc0" />
  <rect x="566" y="270" width="22" height="1.75" fill="#3b6bc0" />
  <rect x="566" y="271" width="22" height="1.75" fill="#3a6bc1" />
  <rect x="566" y="272" width="22" height="1.75" fill="#3a6bc1" />
  <rect x="566" y="273" width="22" height="1.75" fill="#3a6ac1" />
  <rect x="566" y="274" width="22" height="1.75" fill="#3a6ac2" />
  <rect x="566" y="275" width="22" height="1.75" fill="#3a6ac2" />
  <rect x="566" y="276" width="22" height="1.75" fill="#396ac2" />
  <rect x="566" y="277" width="22" height="1.75" fill="#396ac3" />
  <rect x="566" y="278" width="22" height="1.75" fill="#396ac3" />
  <rect x="566" y="279" width="22" height="1.75" fill="#396ac3" />
  <rect x="566" y="280" width="22" height="1.75" fill="#3869c4" />
  <rect x="566" y="281" width="22" height="1.75" fill="#3869c4" />
  <rect x="566" y="282" width="22" height="1.75" fill="#3869c4" />
  <rect x="566" y="283" width="22" height="1.75" fill="#3869c5" />
  <rect x="566" y="284" width="22" height="1.75" fill="#3769c5" />
  <rect x="566" y="285" width="22" height="1.75" fill="#3769c6" />
  <rect x="566" y="286" width="22" height="1.75" fill="#3769c6" />
  <rect x="566" y="287" width="22" height="1.75" fill="#3768c6" />
  <rect x="566" y="288" width="22" height="1.75" fill="#3768c7" />
  <rect x="566" y="289" width="22" height="1.75" fill="#3668c7" />
  <rect x="566" y="290" width="22" height="1.75" fill="#3668c7" />
  <rect x="566" y="291" width="22" height="1.75" fill="#3668c8" />
  <rect x="566" y="292" width="22" height="1.75" fill="#3668c8" />
  <rect x="566" y="293" width="22" height="1.75" fill="#3568c8" />
  <rect x="566" y="294" width="22" height="1.75" fill="#3567c9" />
  <rect x="566" y="295" width="22" height="1.75" fill="#3567c9" />
  <rect x="566" y="296" width="22" height="1.75" fill="#3567c9" />
  <rect x="566" y="297" width="22" height="1.75" fill="#3467ca" />
  <rect x="566" y="298" width="22" height="1.75" fill="#3467ca" />
  <rect x="566" y="299" width="22" height="1.75" fill="#3467ca" />
  <rect x="566" y="300" width="22" height="1.75" fill="#3467cb" />
  <rect x="566" y="301" width="22" height="1.75" fill="#3466cb" />
  <rect x="566" y="302" width="22" height="1.75" fill="#3366cb" />
  <rect x="566" y="303" width="22" height="1" fill="#3366cc" />
  <text x="596" y="308" text-anchor="start" font-family="system-ui, sans-serif" font-size="12" fill="#222222">3</text>
  <text x="596" y="253" text-anchor="start" font-family="system-ui, sans-serif" font-size="12" fill="#222222">4.75</text>
  <text x="596" y="198" text-anchor="start" font-family="system-ui, sans-serif" font-size="12" fill="#222222">6.5</text>
  <text x="596" y="143" text-anchor="start" font-family="system-ui, sans-serif" font-size="12" fill="#222222">8.25</text>
  <text x="596" y="88" text-anchor="start" font-family="system-ui, sans-serif" font-size="12" fill="#222222">10</text>
</g>
</svg>
