<svg xmlns="http://www.w3.org/2000/svg" width="700" height="460" viewBox="0 0 700 460" role="img" aria-label="Custom continuous gradient">
<title>Custom continuous gradient</title>
<rect class="algraf-background" x="0" y="0" width="700" height="460" fill="#ffffff" />
<text class="algraf-title" x="68" y="24" font-family="system-ui, sans-serif" font-size="18" font-weight="600" fill="#222222">Custom continuous gradient</text>
<rect class="algraf-plot-area" x="68" y="66" width="482" height="344" fill="#ffffff" />
<g class="algraf-grid">
</g>
<g class="algraf-layer algraf-geom-tile">
  <rect x="68" y="295.333" width="96.4" height="114.667" fill="#3a6bc1" opacity="0.92" />
  <rect x="68" y="180.667" width="96.4" height="114.667" fill="#5078a0" opacity="0.92" />
  <rect x="68" y="66" width="96.4" height="114.667" fill="#426fb6" opacity="0.92" />
  <rect x="164.4" y="295.333" width="96.4" height="114.667" fill="#4974ab" opacity="0.92" />
  <rect x="164.4" y="180.667" width="96.4" height="114.667" fill="#a34a57" opacity="0.92" />
  <rect x="164.4" y="66" width="96.4" height="114.667" fill="#79617c" opacity="0.92" />
  <rect x="260.8" y="295.333" width="96.4" height="114.667" fill="#426fb6" opacity="0.92" />
  <rect x="260.8" y="180.667" width="96.4" height="114.667" fill="#4974ab" opacity="0.92" />
  <rect x="260.8" y="66" width="96.4" height="114.667" fill="#5078a0" opacity="0.92" />
  <rect x="357.2" y="295.333" width="96.4" height="114.667" fill="#79617c" opacity="0.92" />
  <rect x="357.2" y="180.667" width="96.4" height="114.667" fill="#cc3333ff" opacity="0.92" />
  <rect x="357.2" y="66" width="96.4" height="114.667" fill="#4974ab" opacity="0.92" />
  <rect x="453.6" y="295.333" width="96.4" height="114.667" fill="rgba(51, 102, 204, 1)" opacity="0.92" />
  <rect x="453.6" y="180.667" width="96.4" height="114.667" fill="#426fb6" opacity="0.92" />
  <rect x="453.6" y="66" width="96.4" height="114.667" fill="#3a6bc1" opacity="0.92" />
</g>
<g class="algraf-axes">
  <line x1="68" y1="410" x2="550" y2="410" stroke="#333333" stroke-width="1" />
  <line x1="116.2" y1="410" x2="116.2" y2="415" stroke="#333333" stroke-width="1" />
  <text x="116.2" y="428" text-anchor="middle" font-family="system-ui, sans-serif" font-size="12" fill="#222222">Mon</text>
  <line x1="212.6" y1="410" x2="212.6" y2="415" stroke="#333333" stroke-width="1" />
  <text x="212.6" y="428" text-anchor="middle" font-family="system-ui, sans-serif" font-size="12" fill="#222222">Tue</text>
  <line x1="309" y1="410" x2="309" y2="415" stroke="#333333" stroke-width="1" />
  <text x="309" y="428" text-anchor="middle" font-family="system-ui, sans-serif" font-size="12" fill="#222222">Wed</text>
  <line x1="405.4" y1="410" x2="405.4" y2="415" stroke="#333333" stroke-width="1" />
  <text x="405.4" y="428" text-anchor="middle" font-family="system-ui, sans-serif" font-size="12" fill="#222222">Thu</text>
  <line x1="501.8" y1="410" x2="501.8" y2="415" stroke="#333333" stroke-width="1" />
  <text x="501.8" y="428" text-anchor="middle" font-family="system-ui, sans-serif" font-size="12" fill="#222222">Fri</text>
  <text x="309" y="448" text-anchor="middle" font-family="system-ui, sans-serif" font-size="12" fill="#222222">day</text>
  <line x1="68" y1="66" x2="68" y2="410" stroke="#333333" stroke-width="1" />
  <line x1="63" y1="352.667" x2="68" y2="352.667" stroke="#333333" stroke-width="1" />
  <text x="60" y="356.667" text-anchor="end" font-family="system-ui, sans-serif" font-size="12" fill="#222222">09:00</text>
  <line x1="63" y1="238" x2="68" y2="238" stroke="#333333" stroke-width="1" />
  <text x="60" y="242" text-anchor="end" font-family="system-ui, sans-serif" font-size="12" fill="#222222">12:00</text>
  <line x1="63" y1="123.333" x2="68" y2="123.333" stroke="#333333" stroke-width="1" />
  <text x="60" y="127.333" text-anchor="end" font-family="system-ui, sans-serif" font-size="12" fill="#222222">15:00</text>
  <text x="12" y="238" text-anchor="middle" transform="rotate(-90 12 238)" font-family="system-ui, sans-serif" font-size="12" fill="#222222">hour</text>
</g>
<g class="algraf-legends">
  <text x="566" y="70" text-anchor="start" font-family="system-ui, sans-serif" font-size="12" fill="#222222">Intensity</text>
  <rect x="566" y="78" width="12" height="16" fill="#cc3333ff" />
  <text x="584" y="88" text-anchor="start" font-family="system-ui, sans-serif" font-size="12" fill="#222222">10</text>
  <rect x="566" y="94" width="12" height="16" fill="#845b73" />
  <text x="584" y="104" text-anchor="start" font-family="system-ui, sans-serif" font-size="12" fill="#222222">8.25</text>
  <rect x="566" y="110" width="12" height="16" fill="#4c76a6" />
  <text x="584" y="120" text-anchor="start" font-family="system-ui, sans-serif" font-size="12" fill="#222222">6.5</text>
  <rect x="566" y="126" width="12" height="16" fill="#406eb9" />
  <text x="584" y="136" text-anchor="start" font-family="system-ui, sans-serif" font-size="12" fill="#222222">4.75</text>
  <rect x="566" y="142" width="12" height="16" fill="rgba(51, 102, 204, 1)" />
  <text x="584" y="152" text-anchor="start" font-family="system-ui, sans-serif" font-size="12" fill="#222222">3</text>
</g>
</svg>
