<svg xmlns="http://www.w3.org/2000/svg" width="700" height="460" viewBox="0 0 700 460" role="img" aria-label="Custom continuous gradient">
<title>Custom continuous gradient</title>
<rect class="algraf-background" x="0" y="0" width="700" height="460" fill="#ffffff" />
<text class="algraf-title" x="62" y="24" font-family="system-ui, sans-serif" font-size="18" font-weight="600" fill="#222222">Custom continuous gradient</text>
<rect class="algraf-plot-area" x="62" y="66" width="488" height="344" fill="#ffffff" />
<g class="algraf-grid">
</g>
<g class="algraf-layer algraf-geom-tile">
  <rect x="62" y="295.333" width="97.6" height="114.667" fill="#495fb6" opacity="0.92" />
  <rect x="62" y="180.667" width="97.6" height="114.667" fill="#8a4975" opacity="0.92" />
  <rect x="62" y="66" width="97.6" height="114.667" fill="#5f57a0" opacity="0.92" />
  <rect x="159.6" y="295.333" width="97.6" height="114.667" fill="#75508a" opacity="0.92" />
  <rect x="159.6" y="180.667" width="97.6" height="114.667" fill="#b63a49" opacity="0.92" />
  <rect x="159.6" y="66" width="97.6" height="114.667" fill="#a0425f" opacity="0.92" />
  <rect x="257.2" y="295.333" width="97.6" height="114.667" fill="#5f57a0" opacity="0.92" />
  <rect x="257.2" y="180.667" width="97.6" height="114.667" fill="#75508a" opacity="0.92" />
  <rect x="257.2" y="66" width="97.6" height="114.667" fill="#8a4975" opacity="0.92" />
  <rect x="354.8" y="295.333" width="97.6" height="114.667" fill="#a0425f" opacity="0.92" />
  <rect x="354.8" y="180.667" width="97.6" height="114.667" fill="#cc3333" opacity="0.92" />
  <rect x="354.8" y="66" width="97.6" height="114.667" fill="#75508a" opacity="0.92" />
  <rect x="452.4" y="295.333" width="97.6" height="114.667" fill="#3366cc" opacity="0.92" />
  <rect x="452.4" y="180.667" width="97.6" height="114.667" fill="#5f57a0" opacity="0.92" />
  <rect x="452.4" y="66" width="97.6" height="114.667" fill="#495fb6" opacity="0.92" />
</g>
<g class="algraf-axes">
  <line x1="62" y1="410" x2="550" y2="410" stroke="#333333" stroke-width="1" />
  <line x1="110.8" y1="410" x2="110.8" y2="415" stroke="#333333" stroke-width="1" />
  <text x="110.8" y="428" text-anchor="middle" font-family="system-ui, sans-serif" font-size="12" fill="#222222">Mon</text>
  <line x1="208.4" y1="410" x2="208.4" y2="415" stroke="#333333" stroke-width="1" />
  <text x="208.4" y="428" text-anchor="middle" font-family="system-ui, sans-serif" font-size="12" fill="#222222">Tue</text>
  <line x1="306" y1="410" x2="306" y2="415" stroke="#333333" stroke-width="1" />
  <text x="306" y="428" text-anchor="middle" font-family="system-ui, sans-serif" font-size="12" fill="#222222">Wed</text>
  <line x1="403.6" y1="410" x2="403.6" y2="415" stroke="#333333" stroke-width="1" />
  <text x="403.6" y="428" text-anchor="middle" font-family="system-ui, sans-serif" font-size="12" fill="#222222">Thu</text>
  <line x1="501.2" y1="410" x2="501.2" y2="415" stroke="#333333" stroke-width="1" />
  <text x="501.2" y="428" text-anchor="middle" font-family="system-ui, sans-serif" font-size="12" fill="#222222">Fri</text>
  <text x="306" y="448" text-anchor="middle" font-family="system-ui, sans-serif" font-size="12" fill="#222222">day</text>
  <line x1="62" y1="66" x2="62" y2="410" stroke="#333333" stroke-width="1" />
  <line x1="57" y1="352.667" x2="62" y2="352.667" stroke="#333333" stroke-width="1" />
  <text x="54" y="356.667" text-anchor="end" font-family="system-ui, sans-serif" font-size="12" fill="#222222">09:00</text>
  <line x1="57" y1="238" x2="62" y2="238" stroke="#333333" stroke-width="1" />
  <text x="54" y="242" text-anchor="end" font-family="system-ui, sans-serif" font-size="12" fill="#222222">12:00</text>
  <line x1="57" y1="123.333" x2="62" y2="123.333" stroke="#333333" stroke-width="1" />
  <text x="54" y="127.333" text-anchor="end" font-family="system-ui, sans-serif" font-size="12" fill="#222222">15:00</text>
  <text x="12" y="238" text-anchor="middle" transform="rotate(-90 12 238)" font-family="system-ui, sans-serif" font-size="12" fill="#222222">hour</text>
</g>
<g class="algraf-legends">
  <text x="566" y="70" text-anchor="start" font-family="system-ui, sans-serif" font-size="12" fill="#222222">Intensity</text>
  <rect x="566" y="78" width="12" height="16" fill="#cc3333" />
  <text x="584" y="88" text-anchor="start" font-family="system-ui, sans-serif" font-size="12" fill="#222222">10</text>
  <rect x="566" y="94" width="12" height="16" fill="#a64059" />
  <text x="584" y="104" text-anchor="start" font-family="system-ui, sans-serif" font-size="12" fill="#222222">8.25</text>
  <rect x="566" y="110" width="12" height="16" fill="#804d80" />
  <text x="584" y="120" text-anchor="start" font-family="system-ui, sans-serif" font-size="12" fill="#222222">6.5</text>
  <rect x="566" y="126" width="12" height="16" fill="#5959a6" />
  <text x="584" y="136" text-anchor="start" font-family="system-ui, sans-serif" font-size="12" fill="#222222">4.75</text>
  <rect x="566" y="142" width="12" height="16" fill="#3366cc" />
  <text x="584" y="152" text-anchor="start" font-family="system-ui, sans-serif" font-size="12" fill="#222222">3</text>
</g>
</svg>
