<svg xmlns="http://www.w3.org/2000/svg" width="720" height="460" viewBox="0 0 720 460" role="img" aria-label="Exam scores by cohort (stacked)">
<title>Exam scores by cohort (stacked)</title>
<rect class="algraf-background" x="0" y="0" width="720" height="460" fill="#ffffff" />
<text class="algraf-title" x="60" y="24" font-family="system-ui, sans-serif" font-size="18" font-weight="600" fill="#222222">Exam scores by cohort (stacked)</text>
<rect class="algraf-plot-area" x="60" y="66" width="510" height="344" fill="#ffffff" />
<g class="algraf-grid">
  <line x1="97.778" y1="66" x2="97.778" y2="410" stroke="#e6e6e6" stroke-width="1" />
  <line x1="192.222" y1="66" x2="192.222" y2="410" stroke="#e6e6e6" stroke-width="1" />
  <line x1="286.667" y1="66" x2="286.667" y2="410" stroke="#e6e6e6" stroke-width="1" />
  <line x1="381.111" y1="66" x2="381.111" y2="410" stroke="#e6e6e6" stroke-width="1" />
  <line x1="475.556" y1="66" x2="475.556" y2="410" stroke="#e6e6e6" stroke-width="1" />
  <line x1="570" y1="66" x2="570" y2="410" stroke="#e6e6e6" stroke-width="1" />
  <line x1="60" y1="410" x2="570" y2="410" stroke="#e6e6e6" stroke-width="1" />
  <line x1="60" y1="353.122" x2="570" y2="353.122" stroke="#e6e6e6" stroke-width="1" />
  <line x1="60" y1="296.243" x2="570" y2="296.243" stroke="#e6e6e6" stroke-width="1" />
  <line x1="60" y1="239.365" x2="570" y2="239.365" stroke="#e6e6e6" stroke-width="1" />
  <line x1="60" y1="182.487" x2="570" y2="182.487" stroke="#e6e6e6" stroke-width="1" />
  <line x1="60" y1="125.608" x2="570" y2="125.608" stroke="#e6e6e6" stroke-width="1" />
  <line x1="60" y1="68.73" x2="570" y2="68.73" stroke="#e6e6e6" stroke-width="1" />
</g>
<g class="algraf-layer algraf-geom-rect">
  <rect x="60" y="387.249" width="31.875" height="22.751" fill="#4E79A7" opacity="0.9" />
  <rect x="60" y="375.873" width="31.875" height="11.376" fill="#F28E2B" opacity="0.9" />
  <rect x="91.875" y="387.249" width="31.875" height="22.751" fill="#4E79A7" opacity="0.9" />
  <rect x="91.875" y="375.873" width="31.875" height="11.376" fill="#F28E2B" opacity="0.9" />
  <rect x="123.75" y="318.995" width="31.875" height="91.005" fill="#4E79A7" opacity="0.9" />
  <rect x="123.75" y="284.868" width="31.875" height="34.127" fill="#F28E2B" opacity="0.9" />
  <rect x="123.75" y="250.741" width="31.875" height="34.127" fill="#E15759" opacity="0.9" />
  <rect x="155.625" y="353.122" width="31.875" height="56.878" fill="#4E79A7" opacity="0.9" />
  <rect x="155.625" y="330.37" width="31.875" height="22.751" fill="#F28E2B" opacity="0.9" />
  <rect x="155.625" y="318.995" width="31.875" height="11.376" fill="#E15759" opacity="0.9" />
  <rect x="187.5" y="296.243" width="31.875" height="113.757" fill="#4E79A7" opacity="0.9" />
  <rect x="187.5" y="239.365" width="31.875" height="56.878" fill="#F28E2B" opacity="0.9" />
  <rect x="187.5" y="216.614" width="31.875" height="22.751" fill="#E15759" opacity="0.9" />
  <rect x="219.375" y="273.492" width="31.875" height="136.508" fill="#4E79A7" opacity="0.9" />
  <rect x="219.375" y="148.36" width="31.875" height="125.132" fill="#F28E2B" opacity="0.9" />
  <rect x="219.375" y="102.857" width="31.875" height="45.503" fill="#E15759" opacity="0.9" />
  <rect x="251.25" y="273.492" width="31.875" height="136.508" fill="#4E79A7" opacity="0.9" />
  <rect x="251.25" y="227.989" width="31.875" height="45.503" fill="#F28E2B" opacity="0.9" />
  <rect x="251.25" y="159.735" width="31.875" height="68.254" fill="#E15759" opacity="0.9" />
  <rect x="283.125" y="330.37" width="31.875" height="79.63" fill="#4E79A7" opacity="0.9" />
  <rect x="283.125" y="159.735" width="31.875" height="170.635" fill="#F28E2B" opacity="0.9" />
  <rect x="283.125" y="91.481" width="31.875" height="68.254" fill="#E15759" opacity="0.9" />
  <rect x="315" y="341.746" width="31.875" height="68.254" fill="#4E79A7" opacity="0.9" />
  <rect x="315" y="182.487" width="31.875" height="159.259" fill="#F28E2B" opacity="0.9" />
  <rect x="315" y="102.857" width="31.875" height="79.63" fill="#E15759" opacity="0.9" />
  <rect x="346.875" y="387.249" width="31.875" height="22.751" fill="#4E79A7" opacity="0.9" />
  <rect x="346.875" y="296.243" width="31.875" height="91.005" fill="#F28E2B" opacity="0.9" />
  <rect x="346.875" y="227.989" width="31.875" height="68.254" fill="#E15759" opacity="0.9" />
  <rect x="378.75" y="387.249" width="31.875" height="22.751" fill="#4E79A7" opacity="0.9" />
  <rect x="378.75" y="341.746" width="31.875" height="45.503" fill="#F28E2B" opacity="0.9" />
  <rect x="378.75" y="227.989" width="31.875" height="113.757" fill="#E15759" opacity="0.9" />
  <rect x="410.625" y="398.624" width="31.875" height="11.376" fill="#4E79A7" opacity="0.9" />
  <rect x="410.625" y="341.746" width="31.875" height="56.878" fill="#E15759" opacity="0.9" />
  <rect x="442.5" y="398.624" width="31.875" height="11.376" fill="#4E79A7" opacity="0.9" />
  <rect x="442.5" y="387.249" width="31.875" height="11.376" fill="#F28E2B" opacity="0.9" />
  <rect x="442.5" y="341.746" width="31.875" height="45.503" fill="#E15759" opacity="0.9" />
  <rect x="474.375" y="398.624" width="31.875" height="11.376" fill="#F28E2B" opacity="0.9" />
  <rect x="474.375" y="387.249" width="31.875" height="11.376" fill="#E15759" opacity="0.9" />
  <rect x="506.25" y="387.249" width="31.875" height="22.751" fill="#E15759" opacity="0.9" />
  <rect x="538.125" y="375.873" width="31.875" height="34.127" fill="#E15759" opacity="0.9" />
</g>
<g class="algraf-axes">
  <line x1="60" y1="410" x2="570" y2="410" stroke="#333333" stroke-width="1" />
  <line x1="97.778" y1="410" x2="97.778" y2="415" stroke="#333333" stroke-width="1" />
  <text x="97.778" y="428" text-anchor="middle" font-family="system-ui, sans-serif" font-size="12" fill="#222222">50</text>
  <line x1="192.222" y1="410" x2="192.222" y2="415" stroke="#333333" stroke-width="1" />
  <text x="192.222" y="428" text-anchor="middle" font-family="system-ui, sans-serif" font-size="12" fill="#222222">60</text>
  <line x1="286.667" y1="410" x2="286.667" y2="415" stroke="#333333" stroke-width="1" />
  <text x="286.667" y="428" text-anchor="middle" font-family="system-ui, sans-serif" font-size="12" fill="#222222">70</text>
  <line x1="381.111" y1="410" x2="381.111" y2="415" stroke="#333333" stroke-width="1" />
  <text x="381.111" y="428" text-anchor="middle" font-family="system-ui, sans-serif" font-size="12" fill="#222222">80</text>
  <line x1="475.556" y1="410" x2="475.556" y2="415" stroke="#333333" stroke-width="1" />
  <text x="475.556" y="428" text-anchor="middle" font-family="system-ui, sans-serif" font-size="12" fill="#222222">90</text>
  <line x1="570" y1="410" x2="570" y2="415" stroke="#333333" stroke-width="1" />
  <text x="570" y="428" text-anchor="middle" font-family="system-ui, sans-serif" font-size="12" fill="#222222">100</text>
  <text x="315" y="448" text-anchor="middle" font-family="system-ui, sans-serif" font-size="12" fill="#222222">Score</text>
  <line x1="60" y1="66" x2="60" y2="410" stroke="#333333" stroke-width="1" />
  <line x1="55" y1="410" x2="60" y2="410" stroke="#333333" stroke-width="1" />
  <text x="52" y="414" text-anchor="end" font-family="system-ui, sans-serif" font-size="12" fill="#222222">0</text>
  <line x1="55" y1="353.122" x2="60" y2="353.122" stroke="#333333" stroke-width="1" />
  <text x="52" y="357.122" text-anchor="end" font-family="system-ui, sans-serif" font-size="12" fill="#222222">5</text>
  <line x1="55" y1="296.243" x2="60" y2="296.243" stroke="#333333" stroke-width="1" />
  <text x="52" y="300.243" text-anchor="end" font-family="system-ui, sans-serif" font-size="12" fill="#222222">10</text>
  <line x1="55" y1="239.365" x2="60" y2="239.365" stroke="#333333" stroke-width="1" />
  <text x="52" y="243.365" text-anchor="end" font-family="system-ui, sans-serif" font-size="12" fill="#222222">15</text>
  <line x1="55" y1="182.487" x2="60" y2="182.487" stroke="#333333" stroke-width="1" />
  <text x="52" y="186.487" text-anchor="end" font-family="system-ui, sans-serif" font-size="12" fill="#222222">20</text>
  <line x1="55" y1="125.608" x2="60" y2="125.608" stroke="#333333" stroke-width="1" />
  <text x="52" y="129.608" text-anchor="end" font-family="system-ui, sans-serif" font-size="12" fill="#222222">25</text>
  <line x1="55" y1="68.73" x2="60" y2="68.73" stroke="#333333" stroke-width="1" />
  <text x="52" y="72.73" text-anchor="end" font-family="system-ui, sans-serif" font-size="12" fill="#222222">30</text>
  <text x="25.6" y="238" text-anchor="middle" transform="rotate(-90 25.6 238)" font-family="system-ui, sans-serif" font-size="12" fill="#222222">Count</text>
</g>
<g class="algraf-legends">
  <text x="586" y="70" text-anchor="start" font-family="system-ui, sans-serif" font-size="12" fill="#222222">cohort</text>
  <rect x="586" y="78" width="12" height="12" fill="#4E79A7" />
  <text x="604" y="88" text-anchor="start" font-family="system-ui, sans-serif" font-size="12" fill="#222222">Morning</text>
  <rect x="586" y="96" width="12" height="12" fill="#F28E2B" />
  <text x="604" y="106" text-anchor="start" font-family="system-ui, sans-serif" font-size="12" fill="#222222">Afternoon</text>
  <rect x="586" y="114" width="12" height="12" fill="#E15759" />
  <text x="604" y="124" text-anchor="start" font-family="system-ui, sans-serif" font-size="12" fill="#222222">Evening</text>
</g>
</svg>
