<svg xmlns="http://www.w3.org/2000/svg" width="760" height="460" viewBox="0 0 760 460" role="img">
<rect class="algraf-background" x="0" y="0" width="760" height="460" fill="#ffffff" />
<rect class="algraf-plot-area" x="60" y="40" width="550" height="370" fill="#ffffff" />
<g class="algraf-layer algraf-geom-bar">
  <rect x="73.75" y="196.222" width="34.138" height="213.778" fill="#4E79A7" opacity="1" />
  <rect x="111.681" y="344.222" width="34.138" height="65.778" fill="#F28E2B" opacity="1" />
  <rect x="149.612" y="393.556" width="34.138" height="16.444" fill="#E15759" opacity="1" />
  <rect x="211.25" y="155.111" width="34.138" height="254.889" fill="#4E79A7" opacity="1" />
  <rect x="249.181" y="303.111" width="34.138" height="106.889" fill="#F28E2B" opacity="1" />
  <rect x="287.112" y="410" width="34.138" height="0" fill="#E15759" opacity="1" />
  <rect x="348.75" y="105.778" width="34.138" height="304.222" fill="#4E79A7" opacity="1" />
  <rect x="386.681" y="286.667" width="34.138" height="123.333" fill="#F28E2B" opacity="1" />
  <rect x="424.612" y="368.889" width="34.138" height="41.111" fill="#E15759" opacity="1" />
  <rect x="486.25" y="40" width="34.138" height="370" fill="#4E79A7" opacity="1" />
  <rect x="524.181" y="245.556" width="34.138" height="164.444" fill="#F28E2B" opacity="1" />
  <rect x="562.112" y="336" width="34.138" height="74" fill="#E15759" opacity="1" />
</g>
<g class="algraf-axes">
  <line x1="60" y1="410" x2="610" y2="410" stroke="#333333" stroke-width="1" />
  <line x1="128.75" y1="410" x2="128.75" y2="415" stroke="#333333" stroke-width="1" />
  <text x="128.75" y="428" text-anchor="middle" font-family="system-ui, sans-serif" font-size="12" fill="#222222">Q1</text>
  <line x1="266.25" y1="410" x2="266.25" y2="415" stroke="#333333" stroke-width="1" />
  <text x="266.25" y="428" text-anchor="middle" font-family="system-ui, sans-serif" font-size="12" fill="#222222">Q2</text>
  <line x1="403.75" y1="410" x2="403.75" y2="415" stroke="#333333" stroke-width="1" />
  <text x="403.75" y="428" text-anchor="middle" font-family="system-ui, sans-serif" font-size="12" fill="#222222">Q3</text>
  <line x1="541.25" y1="410" x2="541.25" y2="415" stroke="#333333" stroke-width="1" />
  <text x="541.25" y="428" text-anchor="middle" font-family="system-ui, sans-serif" font-size="12" fill="#222222">Q4</text>
  <text x="335" y="448" text-anchor="middle" font-family="system-ui, sans-serif" font-size="12" fill="#222222">quarter</text>
  <line x1="60" y1="40" x2="60" y2="410" stroke="#333333" stroke-width="1" />
  <line x1="55" y1="377.111" x2="60" y2="377.111" stroke="#333333" stroke-width="1" />
  <text x="52" y="381.111" text-anchor="end" font-family="system-ui, sans-serif" font-size="12" fill="#222222">20</text>
  <line x1="55" y1="294.889" x2="60" y2="294.889" stroke="#333333" stroke-width="1" />
  <text x="52" y="298.889" text-anchor="end" font-family="system-ui, sans-serif" font-size="12" fill="#222222">30</text>
  <line x1="55" y1="212.667" x2="60" y2="212.667" stroke="#333333" stroke-width="1" />
  <text x="52" y="216.667" text-anchor="end" font-family="system-ui, sans-serif" font-size="12" fill="#222222">40</text>
  <line x1="55" y1="130.444" x2="60" y2="130.444" stroke="#333333" stroke-width="1" />
  <text x="52" y="134.444" text-anchor="end" font-family="system-ui, sans-serif" font-size="12" fill="#222222">50</text>
  <line x1="55" y1="48.222" x2="60" y2="48.222" stroke="#333333" stroke-width="1" />
  <text x="52" y="52.222" text-anchor="end" font-family="system-ui, sans-serif" font-size="12" fill="#222222">60</text>
  <text x="16" y="225" text-anchor="middle" transform="rotate(-90 16 225)" font-family="system-ui, sans-serif" font-size="12" fill="#222222">amount</text>
</g>
<g class="algraf-legends">
  <text x="626" y="44" text-anchor="start" font-family="system-ui, sans-serif" font-size="12" fill="#222222">type</text>
  <rect x="626" y="52" width="12" height="12" fill="#4E79A7" />
  <text x="644" y="62" text-anchor="start" font-family="system-ui, sans-serif" font-size="12" fill="#222222">software</text>
  <rect x="626" y="70" width="12" height="12" fill="#F28E2B" />
  <text x="644" y="80" text-anchor="start" font-family="system-ui, sans-serif" font-size="12" fill="#222222">services</text>
  <rect x="626" y="88" width="12" height="12" fill="#E15759" />
  <text x="644" y="98" text-anchor="start" font-family="system-ui, sans-serif" font-size="12" fill="#222222">hardware</text>
</g>
</svg>
