<svg xmlns="http://www.w3.org/2000/svg" width="760" height="500" viewBox="0 0 760 500" role="img" aria-label="Per-species loess fits">
<title>Per-species loess fits</title>
<rect class="algraf-background" x="0" y="0" width="760" height="500" fill="#ffffff" />
<text class="algraf-title" x="60.8" y="24" font-family="system-ui, sans-serif" font-size="18" font-weight="600" fill="#222222">Per-species loess fits</text>
<rect class="algraf-plot-area" x="60.8" y="66" width="549.2" height="384" fill="#ffffff" />
<g class="algraf-grid">
  <line x1="86.84" y1="66" x2="86.84" y2="450" stroke="#e6e6e6" stroke-width="1" />
  <line x1="205.202" y1="66" x2="205.202" y2="450" stroke="#e6e6e6" stroke-width="1" />
  <line x1="323.564" y1="66" x2="323.564" y2="450" stroke="#e6e6e6" stroke-width="1" />
  <line x1="441.926" y1="66" x2="441.926" y2="450" stroke="#e6e6e6" stroke-width="1" />
  <line x1="560.288" y1="66" x2="560.288" y2="450" stroke="#e6e6e6" stroke-width="1" />
  <line x1="60.8" y1="415.635" x2="610" y2="415.635" stroke="#e6e6e6" stroke-width="1" />
  <line x1="60.8" y1="336.818" x2="610" y2="336.818" stroke="#e6e6e6" stroke-width="1" />
  <line x1="60.8" y1="258" x2="610" y2="258" stroke="#e6e6e6" stroke-width="1" />
  <line x1="60.8" y1="179.182" x2="610" y2="179.182" stroke="#e6e6e6" stroke-width="1" />
  <line x1="60.8" y1="100.365" x2="610" y2="100.365" stroke="#e6e6e6" stroke-width="1" />
</g>
<g class="algraf-layer algraf-geom-point">
  <circle cx="98.676" cy="376.227" r="3" fill="#4E79A7" opacity="0.4" />
  <circle cx="157.857" cy="368.345" r="3" fill="#4E79A7" opacity="0.4" />
  <circle cx="264.383" cy="273.764" r="3" fill="#4E79A7" opacity="0.4" />
  <circle cx="240.71" cy="423.517" r="3" fill="#F28E2B" opacity="0.4" />
  <circle cx="288.055" cy="388.049" r="3" fill="#F28E2B" opacity="0.4" />
  <circle cx="335.4" cy="289.527" r="3" fill="#F28E2B" opacity="0.4" />
  <circle cx="441.926" cy="226.473" r="3" fill="#E15759" opacity="0.4" />
  <circle cx="512.943" cy="179.182" r="3" fill="#E15759" opacity="0.4" />
  <circle cx="572.124" cy="92.483" r="3" fill="#E15759" opacity="0.4" />
</g>
<g class="algraf-layer algraf-geom-smooth">
  <path d="M98.676 376.227 L100.773 375.947 L102.871 375.668 L104.969 375.389 L107.066 375.109 L109.164 374.83 L111.261 374.55 L113.359 374.271 L115.456 373.992 L117.554 373.712 L119.651 373.433 L121.749 373.154 L123.847 372.874 L125.944 372.595 L128.042 372.316 L130.139 372.036 L132.237 371.757 L134.334 371.478 L136.432 371.198 L138.529 370.919 L140.627 370.64 L142.725 370.36 L144.822 370.081 L146.92 369.801 L149.017 369.522 L151.115 369.243 L153.212 368.963 L155.31 368.684 L157.407 368.405 L159.505 368.125 L161.603 367.846 L163.7 367.567 L165.798 367.287 L167.895 367.008 L169.993 366.729 L172.09 366.449 L174.188 366.17 L176.285 365.891 L178.383 365.611 L180.481 365.332 L182.578 346.396 L184.676 344.533 L186.773 342.671 L188.871 340.809 L190.968 338.946 L193.066 337.084 L195.163 335.221 L197.261 333.359 L199.359 331.497 L201.456 329.634 L203.554 327.772 L205.651 325.91 L207.749 324.047 L209.846 322.185 L211.944 320.323 L214.041 318.46 L216.139 316.598 L218.237 314.735 L220.334 312.873 L222.432 311.011 L224.529 309.148 L226.627 307.286 L228.724 305.424 L230.822 303.561 L232.919 301.699 L235.017 299.837 L237.115 297.974 L239.212 296.112 L241.31 294.25 L243.407 292.387 L245.505 290.525 L247.602 288.662 L249.7 286.8 L251.797 284.938 L253.895 283.075 L255.993 281.213 L258.09 279.351 L260.188 277.488 L262.285 275.626 L264.383 273.764" fill="none" stroke="#4E79A7" stroke-width="2" opacity="1" />
  <path d="M240.71 423.517 L241.909 422.619 L243.108 421.721 L244.306 420.823 L245.505 419.926 L246.703 419.028 L247.902 418.13 L249.101 417.232 L250.299 416.334 L251.498 415.436 L252.696 414.538 L253.895 413.64 L255.094 412.742 L256.292 411.844 L257.491 410.946 L258.689 410.048 L259.888 409.15 L261.087 408.253 L262.285 407.355 L263.484 406.457 L264.682 405.559 L265.881 404.661 L267.08 403.763 L268.278 402.865 L269.477 401.967 L270.675 401.069 L271.874 400.171 L273.073 399.273 L274.271 398.375 L275.47 397.477 L276.668 396.58 L277.867 395.682 L279.066 394.784 L280.264 393.886 L281.463 392.988 L282.661 392.09 L283.86 391.192 L285.059 390.294 L286.257 389.396 L287.456 388.498 L288.654 386.802 L289.853 384.308 L291.052 381.814 L292.25 379.319 L293.449 376.825 L294.647 374.331 L295.846 371.837 L297.045 369.343 L298.243 366.848 L299.442 364.354 L300.641 361.86 L301.839 359.366 L303.038 356.871 L304.236 354.377 L305.435 351.883 L306.634 349.389 L307.832 346.894 L309.031 344.4 L310.229 341.906 L311.428 339.412 L312.627 336.918 L313.825 334.423 L315.024 331.929 L316.222 329.435 L317.421 326.941 L318.62 324.446 L319.818 321.952 L321.017 319.458 L322.215 316.964 L323.414 314.469 L324.613 311.975 L325.811 309.481 L327.01 306.987 L328.208 304.492 L329.407 301.998 L330.606 299.504 L331.804 297.01 L333.003 294.516 L334.201 292.021 L335.4 289.527" fill="none" stroke="#F28E2B" stroke-width="2" opacity="1" />
  <path d="M441.926 226.473 L443.574 225.375 L445.222 224.278 L446.87 223.181 L448.518 222.083 L450.166 220.986 L451.814 219.888 L453.462 218.791 L455.11 217.693 L456.759 216.596 L458.407 215.498 L460.055 214.401 L461.703 213.303 L463.351 212.206 L464.999 211.108 L466.647 210.011 L468.295 208.914 L469.943 207.816 L471.591 206.719 L473.239 205.621 L474.887 204.524 L476.536 203.426 L478.184 202.329 L479.832 201.231 L481.48 200.134 L483.128 199.036 L484.776 197.939 L486.424 196.841 L488.072 195.744 L489.72 194.647 L491.368 193.549 L493.016 192.452 L494.664 191.354 L496.312 190.257 L497.961 189.159 L499.609 188.062 L501.257 186.964 L502.905 185.867 L504.553 184.769 L506.201 183.672 L507.849 186.645 L509.497 184.231 L511.145 181.816 L512.793 179.402 L514.441 176.987 L516.089 174.573 L517.738 172.159 L519.386 169.744 L521.034 167.33 L522.682 164.915 L524.33 162.501 L525.978 160.086 L527.626 157.672 L529.274 155.258 L530.922 152.843 L532.57 150.429 L534.218 148.014 L535.866 145.6 L537.514 143.186 L539.163 140.771 L540.811 138.357 L542.459 135.942 L544.107 133.528 L545.755 131.113 L547.403 128.699 L549.051 126.285 L550.699 123.87 L552.347 121.456 L553.995 119.041 L555.643 116.627 L557.291 114.213 L558.94 111.798 L560.588 109.384 L562.236 106.969 L563.884 104.555 L565.532 102.14 L567.18 99.726 L568.828 97.312 L570.476 94.897 L572.124 92.483" fill="none" stroke="#E15759" stroke-width="2" opacity="1" />
</g>
<g class="algraf-axes">
  <line x1="60.8" y1="450" x2="610" y2="450" stroke="#333333" stroke-width="1" />
  <line x1="86.84" y1="450" x2="86.84" y2="455" stroke="#333333" stroke-width="1" />
  <text x="86.84" y="468" text-anchor="middle" font-family="system-ui, sans-serif" font-size="12" fill="#222222">180</text>
  <line x1="205.202" y1="450" x2="205.202" y2="455" stroke="#333333" stroke-width="1" />
  <text x="205.202" y="468" text-anchor="middle" font-family="system-ui, sans-serif" font-size="12" fill="#222222">190</text>
  <line x1="323.564" y1="450" x2="323.564" y2="455" stroke="#333333" stroke-width="1" />
  <text x="323.564" y="468" text-anchor="middle" font-family="system-ui, sans-serif" font-size="12" fill="#222222">200</text>
  <line x1="441.926" y1="450" x2="441.926" y2="455" stroke="#333333" stroke-width="1" />
  <text x="441.926" y="468" text-anchor="middle" font-family="system-ui, sans-serif" font-size="12" fill="#222222">210</text>
  <line x1="560.288" y1="450" x2="560.288" y2="455" stroke="#333333" stroke-width="1" />
  <text x="560.288" y="468" text-anchor="middle" font-family="system-ui, sans-serif" font-size="12" fill="#222222">220</text>
  <text x="335.4" y="488" text-anchor="middle" font-family="system-ui, sans-serif" font-size="12" fill="#222222">flipper length</text>
  <line x1="60.8" y1="66" x2="60.8" y2="450" stroke="#333333" stroke-width="1" />
  <line x1="55.8" y1="415.635" x2="60.8" y2="415.635" stroke="#333333" stroke-width="1" />
  <text x="52.8" y="419.635" text-anchor="end" font-family="system-ui, sans-serif" font-size="12" fill="#222222">3500</text>
  <line x1="55.8" y1="336.818" x2="60.8" y2="336.818" stroke="#333333" stroke-width="1" />
  <text x="52.8" y="340.818" text-anchor="end" font-family="system-ui, sans-serif" font-size="12" fill="#222222">4000</text>
  <line x1="55.8" y1="258" x2="60.8" y2="258" stroke="#333333" stroke-width="1" />
  <text x="52.8" y="262" text-anchor="end" font-family="system-ui, sans-serif" font-size="12" fill="#222222">4500</text>
  <line x1="55.8" y1="179.182" x2="60.8" y2="179.182" stroke="#333333" stroke-width="1" />
  <text x="52.8" y="183.182" text-anchor="end" font-family="system-ui, sans-serif" font-size="12" fill="#222222">5000</text>
  <line x1="55.8" y1="100.365" x2="60.8" y2="100.365" stroke="#333333" stroke-width="1" />
  <text x="52.8" y="104.365" text-anchor="end" font-family="system-ui, sans-serif" font-size="12" fill="#222222">5500</text>
  <text x="12" y="258" text-anchor="middle" transform="rotate(-90 12 258)" font-family="system-ui, sans-serif" font-size="12" fill="#222222">body mass</text>
</g>
<g class="algraf-legends">
  <text x="626" y="70" text-anchor="start" font-family="system-ui, sans-serif" font-size="12" fill="#222222">species</text>
  <rect x="626" y="78" width="12" height="12" fill="#4E79A7" stroke="#4E79A7" stroke-width="2" />
  <text x="644" y="88" text-anchor="start" font-family="system-ui, sans-serif" font-size="12" fill="#222222">Adelie</text>
  <rect x="626" y="96" width="12" height="12" fill="#F28E2B" stroke="#F28E2B" stroke-width="2" />
  <text x="644" y="106" text-anchor="start" font-family="system-ui, sans-serif" font-size="12" fill="#222222">Chinstrap</text>
  <rect x="626" y="114" width="12" height="12" fill="#E15759" stroke="#E15759" stroke-width="2" />
  <text x="644" y="124" text-anchor="start" font-family="system-ui, sans-serif" font-size="12" fill="#222222">Gentoo</text>
</g>
</svg>
