<svg xmlns="http://www.w3.org/2000/svg" width="700" height="460" viewBox="0 0 700 460" role="img">
<rect class="algraf-background" x="0" y="0" width="700" height="460" fill="#ffffff" />
<rect class="algraf-plot-area" x="68" y="40" width="482" height="370" fill="#ffffff" />
<g class="algraf-grid">
</g>
<g class="algraf-layer algraf-geom-tile">
  <rect x="68" y="286.667" width="96.4" height="123.333" fill="#3c2d6d" opacity="0.92" />
  <rect x="68" y="163.333" width="96.4" height="123.333" fill="#34a07f" opacity="0.92" />
  <rect x="68" y="40" width="96.4" height="123.333" fill="#345986" opacity="0.92" />
  <rect x="164.4" y="286.667" width="96.4" height="123.333" fill="#327f88" opacity="0.92" />
  <rect x="164.4" y="163.333" width="96.4" height="123.333" fill="#a7d249" opacity="0.92" />
  <rect x="164.4" y="40" width="96.4" height="123.333" fill="#52be6d" opacity="0.92" />
  <rect x="260.8" y="286.667" width="96.4" height="123.333" fill="#345986" opacity="0.92" />
  <rect x="260.8" y="163.333" width="96.4" height="123.333" fill="#327f88" opacity="0.92" />
  <rect x="260.8" y="40" width="96.4" height="123.333" fill="#34a07f" opacity="0.92" />
  <rect x="357.2" y="286.667" width="96.4" height="123.333" fill="#52be6d" opacity="0.92" />
  <rect x="357.2" y="163.333" width="96.4" height="123.333" fill="#fde725" opacity="0.92" />
  <rect x="357.2" y="40" width="96.4" height="123.333" fill="#327f88" opacity="0.92" />
  <rect x="453.6" y="286.667" width="96.4" height="123.333" fill="#440154" opacity="0.92" />
  <rect x="453.6" y="163.333" width="96.4" height="123.333" fill="#345986" opacity="0.92" />
  <rect x="453.6" y="40" width="96.4" height="123.333" fill="#3c2d6d" opacity="0.92" />
</g>
<g class="algraf-axes">
  <line x1="68" y1="410" x2="550" y2="410" stroke="#333333" stroke-width="1" />
  <line x1="116.2" y1="410" x2="116.2" y2="415" stroke="#333333" stroke-width="1" />
  <text x="116.2" y="428" text-anchor="middle" font-family="system-ui, sans-serif" font-size="12" fill="#222222">Mon</text>
  <line x1="212.6" y1="410" x2="212.6" y2="415" stroke="#333333" stroke-width="1" />
  <text x="212.6" y="428" text-anchor="middle" font-family="system-ui, sans-serif" font-size="12" fill="#222222">Tue</text>
  <line x1="309" y1="410" x2="309" y2="415" stroke="#333333" stroke-width="1" />
  <text x="309" y="428" text-anchor="middle" font-family="system-ui, sans-serif" font-size="12" fill="#222222">Wed</text>
  <line x1="405.4" y1="410" x2="405.4" y2="415" stroke="#333333" stroke-width="1" />
  <text x="405.4" y="428" text-anchor="middle" font-family="system-ui, sans-serif" font-size="12" fill="#222222">Thu</text>
  <line x1="501.8" y1="410" x2="501.8" y2="415" stroke="#333333" stroke-width="1" />
  <text x="501.8" y="428" text-anchor="middle" font-family="system-ui, sans-serif" font-size="12" fill="#222222">Fri</text>
  <text x="309" y="448" text-anchor="middle" font-family="system-ui, sans-serif" font-size="12" fill="#222222">day</text>
  <line x1="68" y1="40" x2="68" y2="410" stroke="#333333" stroke-width="1" />
  <line x1="63" y1="348.333" x2="68" y2="348.333" stroke="#333333" stroke-width="1" />
  <text x="60" y="352.333" text-anchor="end" font-family="system-ui, sans-serif" font-size="12" fill="#222222">09:00</text>
  <line x1="63" y1="225" x2="68" y2="225" stroke="#333333" stroke-width="1" />
  <text x="60" y="229" text-anchor="end" font-family="system-ui, sans-serif" font-size="12" fill="#222222">12:00</text>
  <line x1="63" y1="101.667" x2="68" y2="101.667" stroke="#333333" stroke-width="1" />
  <text x="60" y="105.667" text-anchor="end" font-family="system-ui, sans-serif" font-size="12" fill="#222222">15:00</text>
  <text x="12" y="225" text-anchor="middle" transform="rotate(-90 12 225)" font-family="system-ui, sans-serif" font-size="12" fill="#222222">hour</text>
</g>
<g class="algraf-legends">
  <text x="566" y="44" text-anchor="start" font-family="system-ui, sans-serif" font-size="12" fill="#222222">value</text>
  <rect x="566" y="58" width="22" height="1.75" fill="#fce726" />
  <rect x="566" y="59" width="22" height="1.75" fill="#f9e627" />
  <rect x="566" y="60" width="22" height="1.75" fill="#f6e528" />
  <rect x="566" y="61" width="22" height="1.75" fill="#f3e529" />
  <rect x="566" y="62" width="22" height="1.75" fill="#f1e42a" />
  <rect x="566" y="63" width="22" height="1.75" fill="#eee32b" />
  <rect x="566" y="64" width="22" height="1.75" fill="#ebe32c" />
  <rect x="566" y="65" width="22" height="1.75" fill="#e9e22e" />
  <rect x="566" y="66" width="22" height="1.75" fill="#e6e12f" />
  <rect x="566" y="67" width="22" height="1.75" fill="#e3e130" />
  <rect x="566" y="68" width="22" height="1.75" fill="#e0e031" />
  <rect x="566" y="69" width="22" height="1.75" fill="#dedf32" />
  <rect x="566" y="70" width="22" height="1.75" fill="#dbdf33" />
  <rect x="566" y="71" width="22" height="1.75" fill="#d8de34" />
  <rect x="566" y="72" width="22" height="1.75" fill="#d5de36" />
  <rect x="566" y="73" width="22" height="1.75" fill="#d3dd37" />
  <rect x="566" y="74" width="22" height="1.75" fill="#d0dc38" />
  <rect x="566" y="75" width="22" height="1.75" fill="#cddc39" />
  <rect x="566" y="76" width="22" height="1.75" fill="#cbdb3a" />
  <rect x="566" y="77" width="22" height="1.75" fill="#c8da3b" />
  <rect x="566" y="78" width="22" height="1.75" fill="#c5da3c" />
  <rect x="566" y="79" width="22" height="1.75" fill="#c2d93e" />
  <rect x="566" y="80" width="22" height="1.75" fill="#c0d83f" />
  <rect x="566" y="81" width="22" height="1.75" fill="#bdd840" />
  <rect x="566" y="82" width="22" height="1.75" fill="#bad741" />
  <rect x="566" y="83" width="22" height="1.75" fill="#b7d642" />
  <rect x="566" y="84" width="22" height="1.75" fill="#b5d643" />
  <rect x="566" y="85" width="22" height="1.75" fill="#b2d545" />
  <rect x="566" y="86" width="22" height="1.75" fill="#afd446" />
  <rect x="566" y="87" width="22" height="1.75" fill="#add447" />
  <rect x="566" y="88" width="22" height="1.75" fill="#aad348" />
  <rect x="566" y="89" width="22" height="1.75" fill="#a7d249" />
  <rect x="566" y="90" width="22" height="1.75" fill="#a4d24a" />
  <rect x="566" y="91" width="22" height="1.75" fill="#a2d14b" />
  <rect x="566" y="92" width="22" height="1.75" fill="#9fd04d" />
  <rect x="566" y="93" width="22" height="1.75" fill="#9cd04e" />
  <rect x="566" y="94" width="22" height="1.75" fill="#99cf4f" />
  <rect x="566" y="95" width="22" height="1.75" fill="#97ce50" />
  <rect x="566" y="96" width="22" height="1.75" fill="#94ce51" />
  <rect x="566" y="97" width="22" height="1.75" fill="#91cd52" />
  <rect x="566" y="98" width="22" height="1.75" fill="#8fcc53" />
  <rect x="566" y="99" width="22" height="1.75" fill="#8ccc55" />
  <rect x="566" y="100" width="22" height="1.75" fill="#89cb56" />
  <rect x="566" y="101" width="22" height="1.75" fill="#86cb57" />
  <rect x="566" y="102" width="22" height="1.75" fill="#84ca58" />
  <rect x="566" y="103" width="22" height="1.75" fill="#81c959" />
  <rect x="566" y="104" width="22" height="1.75" fill="#7ec95a" />
  <rect x="566" y="105" width="22" height="1.75" fill="#7bc85b" />
  <rect x="566" y="106" width="22" height="1.75" fill="#79c75d" />
  <rect x="566" y="107" width="22" height="1.75" fill="#76c75e" />
  <rect x="566" y="108" width="22" height="1.75" fill="#73c65f" />
  <rect x="566" y="109" width="22" height="1.75" fill="#71c560" />
  <rect x="566" y="110" width="22" height="1.75" fill="#6ec561" />
  <rect x="566" y="111" width="22" height="1.75" fill="#6bc462" />
  <rect x="566" y="112" width="22" height="1.75" fill="#68c363" />
  <rect x="566" y="113" width="22" height="1.75" fill="#66c365" />
  <rect x="566" y="114" width="22" height="1.75" fill="#63c266" />
  <rect x="566" y="115" width="22" height="1.75" fill="#60c167" />
  <rect x="566" y="116" width="22" height="1.75" fill="#5dc168" />
  <rect x="566" y="117" width="22" height="1.75" fill="#5bc069" />
  <rect x="566" y="118" width="22" height="1.75" fill="#58bf6a" />
  <rect x="566" y="119" width="22" height="1.75" fill="#55bf6b" />
  <rect x="566" y="120" width="22" height="1.75" fill="#53be6d" />
  <rect x="566" y="121" width="22" height="1.75" fill="#50bd6e" />
  <rect x="566" y="122" width="22" height="1.75" fill="#4dbd6f" />
  <rect x="566" y="123" width="22" height="1.75" fill="#4abc70" />
  <rect x="566" y="124" width="22" height="1.75" fill="#48bb71" />
  <rect x="566" y="125" width="22" height="1.75" fill="#45bb72" />
  <rect x="566" y="126" width="22" height="1.75" fill="#42ba73" />
  <rect x="566" y="127" width="22" height="1.75" fill="#3fba75" />
  <rect x="566" y="128" width="22" height="1.75" fill="#3db976" />
  <rect x="566" y="129" width="22" height="1.75" fill="#3ab877" />
  <rect x="566" y="130" width="22" height="1.75" fill="#37b878" />
  <rect x="566" y="131" width="22" height="1.75" fill="#35b779" />
  <rect x="566" y="132" width="22" height="1.75" fill="#35b679" />
  <rect x="566" y="133" width="22" height="1.75" fill="#35b57a" />
  <rect x="566" y="134" width="22" height="1.75" fill="#35b47a" />
  <rect x="566" y="135" width="22" height="1.75" fill="#35b37a" />
  <rect x="566" y="136" width="22" height="1.75" fill="#35b17a" />
  <rect x="566" y="137" width="22" height="1.75" fill="#35b07b" />
  <rect x="566" y="138" width="22" height="1.75" fill="#35af7b" />
  <rect x="566" y="139" width="22" height="1.75" fill="#35ae7b" />
  <rect x="566" y="140" width="22" height="1.75" fill="#35ad7c" />
  <rect x="566" y="141" width="22" height="1.75" fill="#34ac7c" />
  <rect x="566" y="142" width="22" height="1.75" fill="#34ab7c" />
  <rect x="566" y="143" width="22" height="1.75" fill="#34aa7c" />
  <rect x="566" y="144" width="22" height="1.75" fill="#34a97d" />
  <rect x="566" y="145" width="22" height="1.75" fill="#34a87d" />
  <rect x="566" y="146" width="22" height="1.75" fill="#34a77d" />
  <rect x="566" y="147" width="22" height="1.75" fill="#34a67e" />
  <rect x="566" y="148" width="22" height="1.75" fill="#34a57e" />
  <rect x="566" y="149" width="22" height="1.75" fill="#34a37e" />
  <rect x="566" y="150" width="22" height="1.75" fill="#34a27e" />
  <rect x="566" y="151" width="22" height="1.75" fill="#34a17f" />
  <rect x="566" y="152" width="22" height="1.75" fill="#34a07f" />
  <rect x="566" y="153" width="22" height="1.75" fill="#349f7f" />
  <rect x="566" y="154" width="22" height="1.75" fill="#349e80" />
  <rect x="566" y="155" width="22" height="1.75" fill="#349d80" />
  <rect x="566" y="156" width="22" height="1.75" fill="#349c80" />
  <rect x="566" y="157" width="22" height="1.75" fill="#349b80" />
  <rect x="566" y="158" width="22" height="1.75" fill="#349a81" />
  <rect x="566" y="159" width="22" height="1.75" fill="#339981" />
  <rect x="566" y="160" width="22" height="1.75" fill="#339881" />
  <rect x="566" y="161" width="22" height="1.75" fill="#339782" />
  <rect x="566" y="162" width="22" height="1.75" fill="#339582" />
  <rect x="566" y="163" width="22" height="1.75" fill="#339482" />
  <rect x="566" y="164" width="22" height="1.75" fill="#339382" />
  <rect x="566" y="165" width="22" height="1.75" fill="#339283" />
  <rect x="566" y="166" width="22" height="1.75" fill="#339183" />
  <rect x="566" y="167" width="22" height="1.75" fill="#339083" />
  <rect x="566" y="168" width="22" height="1.75" fill="#338f84" />
  <rect x="566" y="169" width="22" height="1.75" fill="#338e84" />
  <rect x="566" y="170" width="22" height="1.75" fill="#338d84" />
  <rect x="566" y="171" width="22" height="1.75" fill="#338c85" />
  <rect x="566" y="172" width="22" height="1.75" fill="#338b85" />
  <rect x="566" y="173" width="22" height="1.75" fill="#338a85" />
  <rect x="566" y="174" width="22" height="1.75" fill="#338885" />
  <rect x="566" y="175" width="22" height="1.75" fill="#338786" />
  <rect x="566" y="176" width="22" height="1.75" fill="#338686" />
  <rect x="566" y="177" width="22" height="1.75" fill="#328586" />
  <rect x="566" y="178" width="22" height="1.75" fill="#328487" />
  <rect x="566" y="179" width="22" height="1.75" fill="#328387" />
  <rect x="566" y="180" width="22" height="1.75" fill="#328287" />
  <rect x="566" y="181" width="22" height="1.75" fill="#328187" />
  <rect x="566" y="182" width="22" height="1.75" fill="#328088" />
  <rect x="566" y="183" width="22" height="1.75" fill="#327f88" />
  <rect x="566" y="184" width="22" height="1.75" fill="#327e88" />
  <rect x="566" y="185" width="22" height="1.75" fill="#327d89" />
  <rect x="566" y="186" width="22" height="1.75" fill="#327c89" />
  <rect x="566" y="187" width="22" height="1.75" fill="#327a89" />
  <rect x="566" y="188" width="22" height="1.75" fill="#327989" />
  <rect x="566" y="189" width="22" height="1.75" fill="#32788a" />
  <rect x="566" y="190" width="22" height="1.75" fill="#32778a" />
  <rect x="566" y="191" width="22" height="1.75" fill="#32768a" />
  <rect x="566" y="192" width="22" height="1.75" fill="#32758b" />
  <rect x="566" y="193" width="22" height="1.75" fill="#32748b" />
  <rect x="566" y="194" width="22" height="1.75" fill="#32738b" />
  <rect x="566" y="195" width="22" height="1.75" fill="#32728b" />
  <rect x="566" y="196" width="22" height="1.75" fill="#31718c" />
  <rect x="566" y="197" width="22" height="1.75" fill="#31708c" />
  <rect x="566" y="198" width="22" height="1.75" fill="#316f8c" />
  <rect x="566" y="199" width="22" height="1.75" fill="#316e8d" />
  <rect x="566" y="200" width="22" height="1.75" fill="#316c8d" />
  <rect x="566" y="201" width="22" height="1.75" fill="#316b8d" />
  <rect x="566" y="202" width="22" height="1.75" fill="#316a8d" />
  <rect x="566" y="203" width="22" height="1.75" fill="#31698e" />
  <rect x="566" y="204" width="22" height="1.75" fill="#31688e" />
  <rect x="566" y="205" width="22" height="1.75" fill="#31678d" />
  <rect x="566" y="206" width="22" height="1.75" fill="#31658d" />
  <rect x="566" y="207" width="22" height="1.75" fill="#32648c" />
  <rect x="566" y="208" width="22" height="1.75" fill="#32638b" />
  <rect x="566" y="209" width="22" height="1.75" fill="#32618a" />
  <rect x="566" y="210" width="22" height="1.75" fill="#336089" />
  <rect x="566" y="211" width="22" height="1.75" fill="#335e89" />
  <rect x="566" y="212" width="22" height="1.75" fill="#335d88" />
  <rect x="566" y="213" width="22" height="1.75" fill="#335c87" />
  <rect x="566" y="214" width="22" height="1.75" fill="#345a86" />
  <rect x="566" y="215" width="22" height="1.75" fill="#345985" />
  <rect x="566" y="216" width="22" height="1.75" fill="#345785" />
  <rect x="566" y="217" width="22" height="1.75" fill="#345684" />
  <rect x="566" y="218" width="22" height="1.75" fill="#355583" />
  <rect x="566" y="219" width="22" height="1.75" fill="#355382" />
  <rect x="566" y="220" width="22" height="1.75" fill="#355281" />
  <rect x="566" y="221" width="22" height="1.75" fill="#355081" />
  <rect x="566" y="222" width="22" height="1.75" fill="#364f80" />
  <rect x="566" y="223" width="22" height="1.75" fill="#364e7f" />
  <rect x="566" y="224" width="22" height="1.75" fill="#364c7e" />
  <rect x="566" y="225" width="22" height="1.75" fill="#364b7e" />
  <rect x="566" y="226" width="22" height="1.75" fill="#37497d" />
  <rect x="566" y="227" width="22" height="1.75" fill="#37487c" />
  <rect x="566" y="228" width="22" height="1.75" fill="#37477b" />
  <rect x="566" y="229" width="22" height="1.75" fill="#37457a" />
  <rect x="566" y="230" width="22" height="1.75" fill="#38447a" />
  <rect x="566" y="231" width="22" height="1.75" fill="#384279" />
  <rect x="566" y="232" width="22" height="1.75" fill="#384178" />
  <rect x="566" y="233" width="22" height="1.75" fill="#384077" />
  <rect x="566" y="234" width="22" height="1.75" fill="#393e76" />
  <rect x="566" y="235" width="22" height="1.75" fill="#393d76" />
  <rect x="566" y="236" width="22" height="1.75" fill="#393b75" />
  <rect x="566" y="237" width="22" height="1.75" fill="#3a3a74" />
  <rect x="566" y="238" width="22" height="1.75" fill="#3a3873" />
  <rect x="566" y="239" width="22" height="1.75" fill="#3a3772" />
  <rect x="566" y="240" width="22" height="1.75" fill="#3a3672" />
  <rect x="566" y="241" width="22" height="1.75" fill="#3b3471" />
  <rect x="566" y="242" width="22" height="1.75" fill="#3b3370" />
  <rect x="566" y="243" width="22" height="1.75" fill="#3b316f" />
  <rect x="566" y="244" width="22" height="1.75" fill="#3b306e" />
  <rect x="566" y="245" width="22" height="1.75" fill="#3c2f6e" />
  <rect x="566" y="246" width="22" height="1.75" fill="#3c2d6d" />
  <rect x="566" y="247" width="22" height="1.75" fill="#3c2c6c" />
  <rect x="566" y="248" width="22" height="1.75" fill="#3c2a6b" />
  <rect x="566" y="249" width="22" height="1.75" fill="#3d296b" />
  <rect x="566" y="250" width="22" height="1.75" fill="#3d286a" />
  <rect x="566" y="251" width="22" height="1.75" fill="#3d2669" />
  <rect x="566" y="252" width="22" height="1.75" fill="#3d2568" />
  <rect x="566" y="253" width="22" height="1.75" fill="#3e2367" />
  <rect x="566" y="254" width="22" height="1.75" fill="#3e2267" />
  <rect x="566" y="255" width="22" height="1.75" fill="#3e2166" />
  <rect x="566" y="256" width="22" height="1.75" fill="#3e1f65" />
  <rect x="566" y="257" width="22" height="1.75" fill="#3f1e64" />
  <rect x="566" y="258" width="22" height="1.75" fill="#3f1c63" />
  <rect x="566" y="259" width="22" height="1.75" fill="#3f1b63" />
  <rect x="566" y="260" width="22" height="1.75" fill="#3f1a62" />
  <rect x="566" y="261" width="22" height="1.75" fill="#401861" />
  <rect x="566" y="262" width="22" height="1.75" fill="#401760" />
  <rect x="566" y="263" width="22" height="1.75" fill="#40155f" />
  <rect x="566" y="264" width="22" height="1.75" fill="#41145f" />
  <rect x="566" y="265" width="22" height="1.75" fill="#41135e" />
  <rect x="566" y="266" width="22" height="1.75" fill="#41115d" />
  <rect x="566" y="267" width="22" height="1.75" fill="#41105c" />
  <rect x="566" y="268" width="22" height="1.75" fill="#420e5c" />
  <rect x="566" y="269" width="22" height="1.75" fill="#420d5b" />
  <rect x="566" y="270" width="22" height="1.75" fill="#420c5a" />
  <rect x="566" y="271" width="22" height="1.75" fill="#420a59" />
  <rect x="566" y="272" width="22" height="1.75" fill="#430958" />
  <rect x="566" y="273" width="22" height="1.75" fill="#430758" />
  <rect x="566" y="274" width="22" height="1.75" fill="#430657" />
  <rect x="566" y="275" width="22" height="1.75" fill="#430556" />
  <rect x="566" y="276" width="22" height="1.75" fill="#440355" />
  <rect x="566" y="277" width="22" height="1" fill="#440254" />
  <text x="596" y="282" text-anchor="start" font-family="system-ui, sans-serif" font-size="12" fill="#222222">3</text>
  <text x="596" y="227" text-anchor="start" font-family="system-ui, sans-serif" font-size="12" fill="#222222">4.75</text>
  <text x="596" y="172" text-anchor="start" font-family="system-ui, sans-serif" font-size="12" fill="#222222">6.5</text>
  <text x="596" y="117" text-anchor="start" font-family="system-ui, sans-serif" font-size="12" fill="#222222">8.25</text>
  <text x="596" y="62" text-anchor="start" font-family="system-ui, sans-serif" font-size="12" fill="#222222">10</text>
</g>
</svg>
