<svg xmlns="http://www.w3.org/2000/svg" width="760" height="460" viewBox="0 0 760 460" role="img">
<rect class="algraf-background" x="0" y="0" width="760" height="460" fill="#ffffff" />
<rect class="algraf-plot-area" x="60" y="40" width="670" height="370" fill="#ffffff" />
<g class="algraf-grid">
  <line x1="60" y1="40" x2="60" y2="410" stroke="#e6e6e6" stroke-width="1" />
  <line x1="159.443" y1="40" x2="159.443" y2="410" stroke="#e6e6e6" stroke-width="1" />
  <line x1="258.887" y1="40" x2="258.887" y2="410" stroke="#e6e6e6" stroke-width="1" />
  <line x1="358.33" y1="40" x2="358.33" y2="410" stroke="#e6e6e6" stroke-width="1" />
  <line x1="457.774" y1="40" x2="457.774" y2="410" stroke="#e6e6e6" stroke-width="1" />
  <line x1="557.217" y1="40" x2="557.217" y2="410" stroke="#e6e6e6" stroke-width="1" />
  <line x1="656.66" y1="40" x2="656.66" y2="410" stroke="#e6e6e6" stroke-width="1" />
  <line x1="60" y1="410" x2="730" y2="410" stroke="#e6e6e6" stroke-width="1" />
  <line x1="60" y1="317.5" x2="730" y2="317.5" stroke="#e6e6e6" stroke-width="1" />
  <line x1="60" y1="225" x2="730" y2="225" stroke="#e6e6e6" stroke-width="1" />
  <line x1="60" y1="132.5" x2="730" y2="132.5" stroke="#e6e6e6" stroke-width="1" />
  <line x1="60" y1="40" x2="730" y2="40" stroke="#e6e6e6" stroke-width="1" />
</g>
<g class="algraf-layer algraf-geom-rect">
  <rect x="60" y="225" width="95.714" height="555" fill="steelblue" opacity="0.86" />
  <rect x="155.714" y="225" width="95.714" height="555" fill="steelblue" opacity="0.86" />
  <rect x="251.429" y="40" width="95.714" height="740" fill="steelblue" opacity="0.86" />
  <rect x="347.143" y="225" width="95.714" height="555" fill="steelblue" opacity="0.86" />
  <rect x="442.857" y="225" width="95.714" height="555" fill="steelblue" opacity="0.86" />
  <rect x="538.571" y="410" width="95.714" height="370" fill="steelblue" opacity="0.86" />
  <rect x="634.286" y="225" width="95.714" height="555" fill="steelblue" opacity="0.86" />
  <rect x="730" y="225" width="95.714" height="555" fill="steelblue" opacity="0.86" />
</g>
<g class="algraf-axes">
  <line x1="60" y1="410" x2="730" y2="410" stroke="#333333" stroke-width="1" />
  <line x1="60" y1="410" x2="60" y2="415" stroke="#333333" stroke-width="1" />
  <text x="60" y="428" text-anchor="middle" font-family="system-ui, sans-serif" font-size="12" fill="#222222">1</text>
  <line x1="159.443" y1="410" x2="159.443" y2="415" stroke="#333333" stroke-width="1" />
  <text x="159.443" y="428" text-anchor="middle" font-family="system-ui, sans-serif" font-size="12" fill="#222222">2</text>
  <line x1="258.887" y1="410" x2="258.887" y2="415" stroke="#333333" stroke-width="1" />
  <text x="258.887" y="428" text-anchor="middle" font-family="system-ui, sans-serif" font-size="12" fill="#222222">3</text>
  <line x1="358.33" y1="410" x2="358.33" y2="415" stroke="#333333" stroke-width="1" />
  <text x="358.33" y="428" text-anchor="middle" font-family="system-ui, sans-serif" font-size="12" fill="#222222">4</text>
  <line x1="457.774" y1="410" x2="457.774" y2="415" stroke="#333333" stroke-width="1" />
  <text x="457.774" y="428" text-anchor="middle" font-family="system-ui, sans-serif" font-size="12" fill="#222222">5</text>
  <line x1="557.217" y1="410" x2="557.217" y2="415" stroke="#333333" stroke-width="1" />
  <text x="557.217" y="428" text-anchor="middle" font-family="system-ui, sans-serif" font-size="12" fill="#222222">6</text>
  <line x1="656.66" y1="410" x2="656.66" y2="415" stroke="#333333" stroke-width="1" />
  <text x="656.66" y="428" text-anchor="middle" font-family="system-ui, sans-serif" font-size="12" fill="#222222">7</text>
  <text x="395" y="448" text-anchor="middle" font-family="system-ui, sans-serif" font-size="12" fill="#222222">bin_start</text>
  <line x1="60" y1="40" x2="60" y2="410" stroke="#333333" stroke-width="1" />
  <line x1="55" y1="410" x2="60" y2="410" stroke="#333333" stroke-width="1" />
  <text x="52" y="414" text-anchor="end" font-family="system-ui, sans-serif" font-size="12" fill="#222222">2</text>
  <line x1="55" y1="317.5" x2="60" y2="317.5" stroke="#333333" stroke-width="1" />
  <text x="52" y="321.5" text-anchor="end" font-family="system-ui, sans-serif" font-size="12" fill="#222222">2.5</text>
  <line x1="55" y1="225" x2="60" y2="225" stroke="#333333" stroke-width="1" />
  <text x="52" y="229" text-anchor="end" font-family="system-ui, sans-serif" font-size="12" fill="#222222">3</text>
  <line x1="55" y1="132.5" x2="60" y2="132.5" stroke="#333333" stroke-width="1" />
  <text x="52" y="136.5" text-anchor="end" font-family="system-ui, sans-serif" font-size="12" fill="#222222">3.5</text>
  <line x1="55" y1="40" x2="60" y2="40" stroke="#333333" stroke-width="1" />
  <text x="52" y="44" text-anchor="end" font-family="system-ui, sans-serif" font-size="12" fill="#222222">4</text>
  <text x="16" y="225" text-anchor="middle" transform="rotate(-90 16 225)" font-family="system-ui, sans-serif" font-size="12" fill="#222222">count</text>
</g>
</svg>
