<svg xmlns="http://www.w3.org/2000/svg" width="760" height="460" viewBox="0 0 760 460" role="img">
<rect class="algraf-background" x="0" y="0" width="760" height="460" fill="#ffffff" />
<rect class="algraf-plot-area" x="60" y="40" width="670" height="370" fill="#ffffff" />
<g class="algraf-grid">
  <line x1="60" y1="40" x2="60" y2="410" stroke="#e6e6e6" stroke-width="1" />
  <line x1="171.667" y1="40" x2="171.667" y2="410" stroke="#e6e6e6" stroke-width="1" />
  <line x1="283.333" y1="40" x2="283.333" y2="410" stroke="#e6e6e6" stroke-width="1" />
  <line x1="395" y1="40" x2="395" y2="410" stroke="#e6e6e6" stroke-width="1" />
  <line x1="506.667" y1="40" x2="506.667" y2="410" stroke="#e6e6e6" stroke-width="1" />
  <line x1="618.333" y1="40" x2="618.333" y2="410" stroke="#e6e6e6" stroke-width="1" />
  <line x1="730" y1="40" x2="730" y2="410" stroke="#e6e6e6" stroke-width="1" />
  <line x1="60" y1="410" x2="730" y2="410" stroke="#e6e6e6" stroke-width="1" />
  <line x1="60" y1="337.108" x2="730" y2="337.108" stroke="#e6e6e6" stroke-width="1" />
  <line x1="60" y1="264.216" x2="730" y2="264.216" stroke="#e6e6e6" stroke-width="1" />
  <line x1="60" y1="191.324" x2="730" y2="191.324" stroke="#e6e6e6" stroke-width="1" />
  <line x1="60" y1="118.432" x2="730" y2="118.432" stroke="#e6e6e6" stroke-width="1" />
  <line x1="60" y1="45.54" x2="730" y2="45.54" stroke="#e6e6e6" stroke-width="1" />
</g>
<g class="algraf-layer algraf-geom-rect">
  <rect x="60" y="388.132" width="55.833" height="21.868" fill="steelblue" stroke="#ffffff" stroke-width="1" opacity="0.86" />
  <rect x="115.833" y="388.132" width="55.833" height="21.868" fill="steelblue" stroke="#ffffff" stroke-width="1" opacity="0.86" />
  <rect x="171.667" y="322.53" width="55.833" height="87.47" fill="steelblue" stroke="#ffffff" stroke-width="1" opacity="0.86" />
  <rect x="227.5" y="271.505" width="55.833" height="138.495" fill="steelblue" stroke="#ffffff" stroke-width="1" opacity="0.86" />
  <rect x="283.333" y="227.77" width="55.833" height="182.23" fill="steelblue" stroke="#ffffff" stroke-width="1" opacity="0.86" />
  <rect x="339.167" y="96.564" width="55.833" height="313.436" fill="steelblue" stroke="#ffffff" stroke-width="1" opacity="0.86" />
  <rect x="395" y="67.407" width="55.833" height="342.593" fill="steelblue" stroke="#ffffff" stroke-width="1" opacity="0.86" />
  <rect x="450.833" y="96.564" width="55.833" height="313.436" fill="steelblue" stroke="#ffffff" stroke-width="1" opacity="0.86" />
  <rect x="506.667" y="176.745" width="55.833" height="233.255" fill="steelblue" stroke="#ffffff" stroke-width="1" opacity="0.86" />
  <rect x="562.5" y="337.108" width="55.833" height="72.892" fill="steelblue" stroke="#ffffff" stroke-width="1" opacity="0.86" />
  <rect x="618.333" y="395.422" width="55.833" height="14.578" fill="steelblue" stroke="#ffffff" stroke-width="1" opacity="0.86" />
  <rect x="674.167" y="402.711" width="55.833" height="7.289" fill="steelblue" stroke="#ffffff" stroke-width="1" opacity="0.86" />
</g>
<g class="algraf-axes">
  <line x1="60" y1="410" x2="730" y2="410" stroke="#333333" stroke-width="1" />
  <line x1="60" y1="410" x2="60" y2="415" stroke="#333333" stroke-width="1" />
  <text x="60" y="428" text-anchor="start" font-family="system-ui, sans-serif" font-size="12" fill="#222222">0</text>
  <line x1="171.667" y1="410" x2="171.667" y2="415" stroke="#333333" stroke-width="1" />
  <text x="171.667" y="428" text-anchor="middle" font-family="system-ui, sans-serif" font-size="12" fill="#222222">2</text>
  <line x1="283.333" y1="410" x2="283.333" y2="415" stroke="#333333" stroke-width="1" />
  <text x="283.333" y="428" text-anchor="middle" font-family="system-ui, sans-serif" font-size="12" fill="#222222">4</text>
  <line x1="395" y1="410" x2="395" y2="415" stroke="#333333" stroke-width="1" />
  <text x="395" y="428" text-anchor="middle" font-family="system-ui, sans-serif" font-size="12" fill="#222222">6</text>
  <line x1="506.667" y1="410" x2="506.667" y2="415" stroke="#333333" stroke-width="1" />
  <text x="506.667" y="428" text-anchor="middle" font-family="system-ui, sans-serif" font-size="12" fill="#222222">8</text>
  <line x1="618.333" y1="410" x2="618.333" y2="415" stroke="#333333" stroke-width="1" />
  <text x="618.333" y="428" text-anchor="middle" font-family="system-ui, sans-serif" font-size="12" fill="#222222">10</text>
  <line x1="730" y1="410" x2="730" y2="415" stroke="#333333" stroke-width="1" />
  <text x="730" y="428" text-anchor="end" font-family="system-ui, sans-serif" font-size="12" fill="#222222">12</text>
  <text x="395" y="448" text-anchor="middle" font-family="system-ui, sans-serif" font-size="12" fill="#222222">bin start</text>
  <line x1="60" y1="40" x2="60" y2="410" stroke="#333333" stroke-width="1" />
  <line x1="55" y1="410" x2="60" y2="410" stroke="#333333" stroke-width="1" />
  <text x="52" y="414" text-anchor="end" font-family="system-ui, sans-serif" font-size="12" fill="#222222">0</text>
  <line x1="55" y1="337.108" x2="60" y2="337.108" stroke="#333333" stroke-width="1" />
  <text x="52" y="341.108" text-anchor="end" font-family="system-ui, sans-serif" font-size="12" fill="#222222">10</text>
  <line x1="55" y1="264.216" x2="60" y2="264.216" stroke="#333333" stroke-width="1" />
  <text x="52" y="268.216" text-anchor="end" font-family="system-ui, sans-serif" font-size="12" fill="#222222">20</text>
  <line x1="55" y1="191.324" x2="60" y2="191.324" stroke="#333333" stroke-width="1" />
  <text x="52" y="195.324" text-anchor="end" font-family="system-ui, sans-serif" font-size="12" fill="#222222">30</text>
  <line x1="55" y1="118.432" x2="60" y2="118.432" stroke="#333333" stroke-width="1" />
  <text x="52" y="122.432" text-anchor="end" font-family="system-ui, sans-serif" font-size="12" fill="#222222">40</text>
  <line x1="55" y1="45.54" x2="60" y2="45.54" stroke="#333333" stroke-width="1" />
  <text x="52" y="49.54" text-anchor="end" font-family="system-ui, sans-serif" font-size="12" fill="#222222">50</text>
  <text x="31.6" y="225" text-anchor="middle" transform="rotate(-90 31.6 225)" font-family="system-ui, sans-serif" font-size="12" fill="#222222">count</text>
</g>
</svg>
