<svg xmlns="http://www.w3.org/2000/svg" width="720" height="460" viewBox="0 0 720 460" role="img" aria-label="Height distribution by group">
<title>Height distribution by group</title>
<rect class="algraf-background" x="0" y="0" width="720" height="460" fill="#ffffff" />
<text class="algraf-title" x="104" y="24" font-family="system-ui, sans-serif" font-size="18" font-weight="600" fill="#222222">Height distribution by group</text>
<rect class="algraf-plot-area" x="104" y="66" width="466" height="344" fill="#ffffff" />
<g class="algraf-grid">
  <line x1="134.928" y1="66" x2="134.928" y2="410" stroke="#f2f2f2" stroke-width="0.6" />
  <line x1="191.718" y1="66" x2="191.718" y2="410" stroke="#f2f2f2" stroke-width="0.6" />
  <line x1="248.508" y1="66" x2="248.508" y2="410" stroke="#f2f2f2" stroke-width="0.6" />
  <line x1="305.298" y1="66" x2="305.298" y2="410" stroke="#f2f2f2" stroke-width="0.6" />
  <line x1="362.089" y1="66" x2="362.089" y2="410" stroke="#f2f2f2" stroke-width="0.6" />
  <line x1="418.879" y1="66" x2="418.879" y2="410" stroke="#f2f2f2" stroke-width="0.6" />
  <line x1="475.669" y1="66" x2="475.669" y2="410" stroke="#f2f2f2" stroke-width="0.6" />
  <line x1="532.459" y1="66" x2="532.459" y2="410" stroke="#f2f2f2" stroke-width="0.6" />
  <line x1="106.533" y1="66" x2="106.533" y2="410" stroke="#e6e6e6" stroke-width="1" />
  <line x1="163.323" y1="66" x2="163.323" y2="410" stroke="#e6e6e6" stroke-width="1" />
  <line x1="220.113" y1="66" x2="220.113" y2="410" stroke="#e6e6e6" stroke-width="1" />
  <line x1="276.903" y1="66" x2="276.903" y2="410" stroke="#e6e6e6" stroke-width="1" />
  <line x1="333.694" y1="66" x2="333.694" y2="410" stroke="#e6e6e6" stroke-width="1" />
  <line x1="390.484" y1="66" x2="390.484" y2="410" stroke="#e6e6e6" stroke-width="1" />
  <line x1="447.274" y1="66" x2="447.274" y2="410" stroke="#e6e6e6" stroke-width="1" />
  <line x1="504.064" y1="66" x2="504.064" y2="410" stroke="#e6e6e6" stroke-width="1" />
  <line x1="560.854" y1="66" x2="560.854" y2="410" stroke="#e6e6e6" stroke-width="1" />
</g>
<defs>
<clipPath id="algraf-clip-0"><rect x="104" y="66" width="466" height="344" /></clipPath>
</defs>
<g clip-path="url(#algraf-clip-0)">
  <g class="algraf-layer algraf-geom-violin">
    <path d="M136.138 352.456 L137.264 352.429 L138.391 352.399 L139.517 352.365 L140.643 352.328 L141.769 352.287 L142.896 352.241 L144.022 352.191 L145.148 352.135 L146.275 352.074 L147.401 352.007 L148.527 351.934 L149.654 351.853 L150.78 351.765 L151.906 351.669 L153.033 351.565 L154.159 351.452 L155.285 351.329 L156.412 351.196 L157.538 351.052 L158.664 350.896 L159.791 350.729 L160.917 350.549 L162.043 350.356 L163.169 350.149 L164.296 349.927 L165.422 349.691 L166.548 349.438 L167.675 349.17 L168.801 348.885 L169.927 348.583 L171.054 348.263 L172.18 347.925 L173.306 347.568 L174.433 347.193 L175.559 346.798 L176.685 346.384 L177.812 345.951 L178.938 345.497 L180.064 345.024 L181.19 344.532 L182.317 344.019 L183.443 343.488 L184.569 342.937 L185.696 342.367 L186.822 341.779 L187.948 341.173 L189.075 340.55 L190.201 339.91 L191.327 339.254 L192.454 338.584 L193.58 337.899 L194.706 337.201 L195.833 336.491 L196.959 335.77 L198.085 335.04 L199.211 334.302 L200.338 333.556 L201.464 332.805 L202.59 332.049 L203.717 331.291 L204.843 330.531 L205.969 329.771 L207.096 329.014 L208.222 328.259 L209.348 327.509 L210.475 326.765 L211.601 326.029 L212.727 325.302 L213.854 324.585 L214.98 323.88 L216.106 323.188 L217.233 322.511 L218.359 321.849 L219.485 321.204 L220.611 320.576 L221.738 319.967 L222.864 319.378 L223.99 318.808 L225.117 318.26 L226.243 317.733 L227.369 317.228 L228.496 316.746 L229.622 316.286 L230.748 315.849 L231.875 315.436 L233.001 315.045 L234.127 314.677 L235.254 314.332 L236.38 314.01 L237.506 313.71 L238.632 313.432 L239.759 313.175 L240.885 312.939 L242.011 312.723 L243.138 312.527 L244.264 312.35 L245.39 312.19 L246.517 312.049 L247.643 311.924 L248.769 311.814 L249.896 311.719 L251.022 311.639 L252.148 311.571 L253.275 311.515 L254.401 311.471 L255.527 311.437 L256.653 311.412 L257.78 311.396 L258.906 311.388 L260.032 311.387 L261.159 311.391 L262.285 311.401 L263.411 311.415 L264.538 311.433 L265.664 311.454 L266.79 311.478 L267.917 311.503 L269.043 311.529 L270.169 311.556 L271.296 311.583 L272.422 311.609 L273.548 311.635 L274.674 311.659 L275.801 311.682 L276.927 311.704 L278.053 311.723 L279.18 311.74 L280.306 311.755 L281.432 311.768 L282.559 311.778 L283.685 311.786 L284.811 311.792 L285.938 311.795 L287.064 311.797 L288.19 311.797 L289.317 311.796 L290.443 311.793 L291.569 311.79 L292.696 311.787 L293.822 311.784 L294.948 311.782 L296.074 311.781 L297.201 311.783 L298.327 311.787 L299.453 311.795 L300.58 311.808 L301.706 311.826 L302.832 311.849 L303.959 311.88 L305.085 311.918 L306.211 311.965 L307.338 312.022 L308.464 312.09 L309.59 312.169 L310.717 312.26 L311.843 312.366 L312.969 312.485 L314.095 312.62 L315.222 312.772 L316.348 312.941 L317.474 313.127 L318.601 313.333 L319.727 313.558 L320.853 313.803 L321.98 314.069 L323.106 314.357 L324.232 314.667 L325.359 314.999 L326.485 315.353 L327.611 315.73 L328.738 316.131 L329.864 316.554 L330.99 317.001 L332.116 317.47 L333.243 317.962 L334.369 318.476 L335.495 319.012 L336.622 319.569 L337.748 320.147 L338.874 320.745 L340.001 321.362 L341.127 321.996 L342.253 322.648 L343.38 323.316 L344.506 323.999 L345.632 324.695 L346.759 325.403 L347.885 326.122 L349.011 326.851 L350.138 327.588 L351.264 328.332 L352.39 329.08 L353.516 329.832 L354.643 330.586 L355.769 331.341 L356.895 332.095 L358.022 332.846 L359.148 333.594 L360.274 334.336 L361.401 335.071 L362.527 335.798 L363.653 336.516 L364.78 337.223 L365.906 337.919 L367.032 338.601 L368.159 339.27 L369.285 339.924 L370.411 340.562 L371.537 341.184 L372.664 341.789 L373.79 342.376 L374.916 342.945 L376.043 343.495 L377.169 344.025 L378.295 344.537 L379.422 345.029 L380.548 345.501 L381.674 345.954 L382.801 346.387 L383.927 346.801 L385.053 347.195 L386.18 347.57 L387.306 347.927 L388.432 348.264 L389.558 348.584 L390.685 348.886 L391.811 349.171 L392.937 349.439 L394.064 349.691 L395.19 349.928 L396.316 350.149 L397.443 350.356 L398.569 350.549 L399.695 350.729 L400.822 350.897 L401.948 351.052 L403.074 351.196 L404.201 351.329 L405.327 351.452 L406.453 351.565 L407.579 351.67 L408.706 351.765 L409.832 351.853 L410.958 351.934 L412.085 352.007 L413.211 352.074 L414.337 352.135 L415.464 352.191 L416.59 352.241 L417.716 352.287 L418.843 352.328 L419.969 352.365 L421.095 352.399 L422.222 352.429 L423.348 352.456 L423.348 352.877 L422.222 352.904 L421.095 352.935 L419.969 352.968 L418.843 353.005 L417.716 353.047 L416.59 353.092 L415.464 353.143 L414.337 353.198 L413.211 353.259 L412.085 353.326 L410.958 353.4 L409.832 353.48 L408.706 353.568 L407.579 353.664 L406.453 353.768 L405.327 353.881 L404.201 354.004 L403.074 354.137 L401.948 354.281 L400.822 354.437 L399.695 354.604 L398.569 354.784 L397.443 354.977 L396.316 355.184 L395.19 355.406 L394.064 355.642 L392.937 355.894 L391.811 356.162 L390.685 356.447 L389.558 356.749 L388.432 357.069 L387.306 357.407 L386.18 357.763 L385.053 358.138 L383.927 358.532 L382.801 358.946 L381.674 359.379 L380.548 359.832 L379.422 360.304 L378.295 360.796 L377.169 361.308 L376.043 361.839 L374.916 362.389 L373.79 362.957 L372.664 363.544 L371.537 364.149 L370.411 364.771 L369.285 365.409 L368.159 366.063 L367.032 366.732 L365.906 367.414 L364.78 368.11 L363.653 368.817 L362.527 369.535 L361.401 370.262 L360.274 370.998 L359.148 371.74 L358.022 372.487 L356.895 373.238 L355.769 373.992 L354.643 374.747 L353.516 375.501 L352.39 376.253 L351.264 377.002 L350.138 377.745 L349.011 378.482 L347.885 379.211 L346.759 379.93 L345.632 380.639 L344.506 381.335 L343.38 382.017 L342.253 382.685 L341.127 383.337 L340.001 383.972 L338.874 384.588 L337.748 385.186 L336.622 385.764 L335.495 386.321 L334.369 386.857 L333.243 387.371 L332.116 387.863 L330.99 388.333 L329.864 388.779 L328.738 389.202 L327.611 389.603 L326.485 389.98 L325.359 390.335 L324.232 390.667 L323.106 390.976 L321.98 391.264 L320.853 391.53 L319.727 391.775 L318.601 392.001 L317.474 392.206 L316.348 392.393 L315.222 392.561 L314.095 392.713 L312.969 392.848 L311.843 392.968 L310.717 393.073 L309.59 393.165 L308.464 393.244 L307.338 393.311 L306.211 393.368 L305.085 393.415 L303.959 393.454 L302.832 393.484 L301.706 393.508 L300.58 393.525 L299.453 393.538 L298.327 393.546 L297.201 393.55 L296.074 393.552 L294.948 393.551 L293.822 393.549 L292.696 393.547 L291.569 393.543 L290.443 393.54 L289.317 393.538 L288.19 393.536 L287.064 393.536 L285.938 393.538 L284.811 393.541 L283.685 393.547 L282.559 393.555 L281.432 393.565 L280.306 393.578 L279.18 393.593 L278.053 393.61 L276.927 393.63 L275.801 393.651 L274.674 393.674 L273.548 393.699 L272.422 393.724 L271.296 393.751 L270.169 393.778 L269.043 393.805 L267.917 393.831 L266.79 393.856 L265.664 393.879 L264.538 393.9 L263.411 393.918 L262.285 393.932 L261.159 393.942 L260.032 393.947 L258.906 393.945 L257.78 393.937 L256.653 393.921 L255.527 393.896 L254.401 393.862 L253.275 393.818 L252.148 393.762 L251.022 393.695 L249.896 393.614 L248.769 393.519 L247.643 393.41 L246.517 393.285 L245.39 393.143 L244.264 392.984 L243.138 392.806 L242.011 392.61 L240.885 392.395 L239.759 392.159 L238.632 391.902 L237.506 391.624 L236.38 391.323 L235.254 391.001 L234.127 390.656 L233.001 390.288 L231.875 389.898 L230.748 389.484 L229.622 389.047 L228.496 388.587 L227.369 388.105 L226.243 387.6 L225.117 387.073 L223.99 386.525 L222.864 385.956 L221.738 385.366 L220.611 384.757 L219.485 384.13 L218.359 383.484 L217.233 382.822 L216.106 382.145 L214.98 381.453 L213.854 380.748 L212.727 380.032 L211.601 379.305 L210.475 378.568 L209.348 377.824 L208.222 377.074 L207.096 376.32 L205.969 375.562 L204.843 374.802 L203.717 374.043 L202.59 373.284 L201.464 372.529 L200.338 371.777 L199.211 371.032 L198.085 370.293 L196.959 369.563 L195.833 368.842 L194.706 368.132 L193.58 367.435 L192.454 366.75 L191.327 366.079 L190.201 365.423 L189.075 364.784 L187.948 364.16 L186.822 363.554 L185.696 362.966 L184.569 362.397 L183.443 361.846 L182.317 361.314 L181.19 360.802 L180.064 360.309 L178.938 359.836 L177.812 359.383 L176.685 358.949 L175.559 358.535 L174.433 358.141 L173.306 357.765 L172.18 357.409 L171.054 357.071 L169.927 356.751 L168.801 356.448 L167.675 356.163 L166.548 355.895 L165.422 355.643 L164.296 355.406 L163.169 355.185 L162.043 354.978 L160.917 354.784 L159.791 354.604 L158.664 354.437 L157.538 354.282 L156.412 354.138 L155.285 354.005 L154.159 353.882 L153.033 353.768 L151.906 353.664 L150.78 353.568 L149.654 353.48 L148.527 353.4 L147.401 353.326 L146.275 353.259 L145.148 353.198 L144.022 353.143 L142.896 353.092 L141.769 353.047 L140.643 353.005 L139.517 352.968 L138.391 352.935 L137.264 352.904 L136.138 352.877 Z" fill="#4E79A7" opacity="0.62" />
    <line x1="247.373" y1="311.954" x2="247.373" y2="393.38" stroke="#333333" stroke-width="1" opacity="1" />
    <line x1="279.175" y1="311.74" x2="279.175" y2="393.593" stroke="#333333" stroke-width="1" opacity="1" />
    <line x1="312.113" y1="312.394" x2="312.113" y2="392.939" stroke="#333333" stroke-width="1" opacity="1" />
    <path d="M327.155 237.776 L327.981 237.747 L328.807 237.714 L329.634 237.678 L330.46 237.638 L331.286 237.593 L332.113 237.544 L332.939 237.489 L333.765 237.429 L334.591 237.363 L335.418 237.29 L336.244 237.21 L337.07 237.122 L337.897 237.026 L338.723 236.92 L339.549 236.806 L340.376 236.681 L341.202 236.546 L342.028 236.398 L342.855 236.239 L343.681 236.067 L344.507 235.881 L345.333 235.68 L346.16 235.465 L346.986 235.233 L347.812 234.985 L348.639 234.72 L349.465 234.437 L350.291 234.135 L351.118 233.813 L351.944 233.472 L352.77 233.11 L353.596 232.726 L354.423 232.322 L355.249 231.895 L356.075 231.445 L356.902 230.973 L357.728 230.478 L358.554 229.96 L359.381 229.418 L360.207 228.854 L361.033 228.266 L361.859 227.655 L362.686 227.023 L363.512 226.368 L364.338 225.692 L365.165 224.995 L365.991 224.278 L366.817 223.542 L367.644 222.788 L368.47 222.017 L369.296 221.231 L370.123 220.43 L370.949 219.617 L371.775 218.793 L372.601 217.959 L373.428 217.118 L374.254 216.271 L375.08 215.42 L375.907 214.567 L376.733 213.714 L377.559 212.863 L378.386 212.017 L379.212 211.177 L380.038 210.345 L380.864 209.524 L381.691 208.716 L382.517 207.922 L383.343 207.145 L384.17 206.386 L384.996 205.648 L385.822 204.932 L386.649 204.24 L387.475 203.573 L388.301 202.933 L389.127 202.322 L389.954 201.739 L390.78 201.187 L391.606 200.666 L392.433 200.178 L393.259 199.721 L394.085 199.298 L394.912 198.908 L395.738 198.552 L396.564 198.228 L397.391 197.938 L398.217 197.681 L399.043 197.456 L399.869 197.263 L400.696 197.101 L401.522 196.969 L402.348 196.866 L403.175 196.791 L404.001 196.742 L404.827 196.72 L405.654 196.722 L406.48 196.747 L407.306 196.793 L408.132 196.859 L408.959 196.944 L409.785 197.047 L410.611 197.164 L411.438 197.296 L412.264 197.441 L413.09 197.596 L413.917 197.762 L414.743 197.936 L415.569 198.117 L416.395 198.303 L417.222 198.495 L418.048 198.69 L418.874 198.887 L419.701 199.086 L420.527 199.285 L421.353 199.484 L422.18 199.682 L423.006 199.878 L423.832 200.072 L424.659 200.263 L425.485 200.45 L426.311 200.633 L427.137 200.813 L427.964 200.988 L428.79 201.158 L429.616 201.324 L430.443 201.485 L431.269 201.641 L432.095 201.793 L432.922 201.939 L433.748 202.082 L434.574 202.22 L435.4 202.354 L436.227 202.484 L437.053 202.611 L437.879 202.734 L438.706 202.855 L439.532 202.973 L440.358 203.089 L441.185 203.204 L442.011 203.317 L442.837 203.429 L443.664 203.541 L444.49 203.653 L445.316 203.766 L446.142 203.88 L446.969 203.995 L447.795 204.113 L448.621 204.233 L449.448 204.357 L450.274 204.484 L451.1 204.615 L451.927 204.752 L452.753 204.893 L453.579 205.041 L454.405 205.195 L455.232 205.356 L456.058 205.524 L456.884 205.701 L457.711 205.886 L458.537 206.08 L459.363 206.284 L460.19 206.498 L461.016 206.723 L461.842 206.959 L462.668 207.206 L463.495 207.465 L464.321 207.737 L465.147 208.021 L465.974 208.318 L466.8 208.628 L467.626 208.952 L468.453 209.289 L469.279 209.64 L470.105 210.005 L470.932 210.384 L471.758 210.777 L472.584 211.184 L473.41 211.605 L474.237 212.039 L475.063 212.486 L475.889 212.946 L476.716 213.419 L477.542 213.903 L478.368 214.399 L479.195 214.907 L480.021 215.424 L480.847 215.951 L481.673 216.487 L482.5 217.031 L483.326 217.582 L484.152 218.139 L484.979 218.702 L485.805 219.269 L486.631 219.839 L487.458 220.412 L488.284 220.986 L489.11 221.561 L489.936 222.135 L490.763 222.707 L491.589 223.276 L492.415 223.841 L493.242 224.402 L494.068 224.956 L494.894 225.504 L495.721 226.044 L496.547 226.576 L497.373 227.098 L498.2 227.61 L499.026 228.111 L499.852 228.601 L500.678 229.078 L501.505 229.543 L502.331 229.995 L503.157 230.433 L503.984 230.856 L504.81 231.266 L505.636 231.661 L506.463 232.041 L507.289 232.407 L508.115 232.757 L508.941 233.093 L509.768 233.414 L510.594 233.72 L511.42 234.011 L512.247 234.288 L513.073 234.551 L513.899 234.8 L514.726 235.036 L515.552 235.258 L516.378 235.467 L517.204 235.664 L518.031 235.849 L518.857 236.022 L519.683 236.184 L520.51 236.335 L521.336 236.476 L522.162 236.607 L522.989 236.729 L523.815 236.842 L524.641 236.946 L525.468 237.043 L526.294 237.132 L527.12 237.214 L527.946 237.289 L528.773 237.358 L529.599 237.421 L530.425 237.479 L531.252 237.532 L532.078 237.58 L532.904 237.624 L533.731 237.663 L534.557 237.699 L535.383 237.732 L536.209 237.761 L537.036 237.788 L537.862 237.812 L537.862 238.188 L537.036 238.212 L536.209 238.239 L535.383 238.268 L534.557 238.301 L533.731 238.337 L532.904 238.376 L532.078 238.42 L531.252 238.468 L530.425 238.521 L529.599 238.579 L528.773 238.642 L527.946 238.711 L527.12 238.786 L526.294 238.868 L525.468 238.957 L524.641 239.054 L523.815 239.158 L522.989 239.271 L522.162 239.393 L521.336 239.524 L520.51 239.665 L519.683 239.816 L518.857 239.978 L518.031 240.151 L517.204 240.336 L516.378 240.533 L515.552 240.742 L514.726 240.964 L513.899 241.2 L513.073 241.449 L512.247 241.712 L511.42 241.989 L510.594 242.28 L509.768 242.586 L508.941 242.907 L508.115 243.243 L507.289 243.593 L506.463 243.959 L505.636 244.339 L504.81 244.734 L503.984 245.144 L503.157 245.567 L502.331 246.005 L501.505 246.457 L500.678 246.922 L499.852 247.399 L499.026 247.889 L498.2 248.39 L497.373 248.902 L496.547 249.424 L495.721 249.956 L494.894 250.496 L494.068 251.044 L493.242 251.598 L492.415 252.159 L491.589 252.724 L490.763 253.293 L489.936 253.865 L489.11 254.439 L488.284 255.014 L487.458 255.588 L486.631 256.161 L485.805 256.731 L484.979 257.298 L484.152 257.861 L483.326 258.418 L482.5 258.969 L481.673 259.513 L480.847 260.049 L480.021 260.576 L479.195 261.093 L478.368 261.601 L477.542 262.097 L476.716 262.581 L475.889 263.054 L475.063 263.514 L474.237 263.961 L473.41 264.395 L472.584 264.816 L471.758 265.223 L470.932 265.616 L470.105 265.995 L469.279 266.36 L468.453 266.711 L467.626 267.048 L466.8 267.372 L465.974 267.682 L465.147 267.979 L464.321 268.263 L463.495 268.535 L462.668 268.794 L461.842 269.041 L461.016 269.277 L460.19 269.502 L459.363 269.716 L458.537 269.92 L457.711 270.114 L456.884 270.299 L456.058 270.476 L455.232 270.644 L454.405 270.805 L453.579 270.959 L452.753 271.107 L451.927 271.248 L451.1 271.385 L450.274 271.516 L449.448 271.643 L448.621 271.767 L447.795 271.887 L446.969 272.005 L446.142 272.12 L445.316 272.234 L444.49 272.347 L443.664 272.459 L442.837 272.571 L442.011 272.683 L441.185 272.796 L440.358 272.911 L439.532 273.027 L438.706 273.145 L437.879 273.266 L437.053 273.389 L436.227 273.516 L435.4 273.646 L434.574 273.78 L433.748 273.918 L432.922 274.061 L432.095 274.207 L431.269 274.359 L430.443 274.515 L429.616 274.676 L428.79 274.842 L427.964 275.012 L427.137 275.187 L426.311 275.367 L425.485 275.55 L424.659 275.737 L423.832 275.928 L423.006 276.122 L422.18 276.318 L421.353 276.516 L420.527 276.715 L419.701 276.914 L418.874 277.113 L418.048 277.31 L417.222 277.505 L416.395 277.697 L415.569 277.883 L414.743 278.064 L413.917 278.238 L413.09 278.404 L412.264 278.559 L411.438 278.704 L410.611 278.836 L409.785 278.953 L408.959 279.056 L408.132 279.141 L407.306 279.207 L406.48 279.253 L405.654 279.278 L404.827 279.28 L404.001 279.258 L403.175 279.209 L402.348 279.134 L401.522 279.031 L400.696 278.899 L399.869 278.737 L399.043 278.544 L398.217 278.319 L397.391 278.062 L396.564 277.772 L395.738 277.448 L394.912 277.092 L394.085 276.702 L393.259 276.279 L392.433 275.822 L391.606 275.334 L390.78 274.813 L389.954 274.261 L389.127 273.678 L388.301 273.067 L387.475 272.427 L386.649 271.76 L385.822 271.068 L384.996 270.352 L384.17 269.614 L383.343 268.855 L382.517 268.078 L381.691 267.284 L380.864 266.476 L380.038 265.655 L379.212 264.823 L378.386 263.983 L377.559 263.137 L376.733 262.286 L375.907 261.433 L375.08 260.58 L374.254 259.729 L373.428 258.882 L372.601 258.041 L371.775 257.207 L370.949 256.383 L370.123 255.57 L369.296 254.769 L368.47 253.983 L367.644 253.212 L366.817 252.458 L365.991 251.722 L365.165 251.005 L364.338 250.308 L363.512 249.632 L362.686 248.977 L361.859 248.345 L361.033 247.734 L360.207 247.146 L359.381 246.582 L358.554 246.04 L357.728 245.522 L356.902 245.027 L356.075 244.555 L355.249 244.105 L354.423 243.678 L353.596 243.274 L352.77 242.89 L351.944 242.528 L351.118 242.187 L350.291 241.865 L349.465 241.563 L348.639 241.28 L347.812 241.015 L346.986 240.767 L346.16 240.535 L345.333 240.32 L344.507 240.119 L343.681 239.933 L342.855 239.761 L342.028 239.602 L341.202 239.454 L340.376 239.319 L339.549 239.194 L338.723 239.08 L337.897 238.974 L337.07 238.878 L336.244 238.79 L335.418 238.71 L334.591 238.637 L333.765 238.571 L332.939 238.511 L332.113 238.456 L331.286 238.407 L330.46 238.362 L329.634 238.322 L328.807 238.286 L327.981 238.253 L327.155 238.224 Z" fill="#F28E2B" opacity="0.62" />
    <line x1="399.57" y1="197.333" x2="399.57" y2="278.667" stroke="#333333" stroke-width="1" opacity="1" />
    <line x1="424.558" y1="200.239" x2="424.558" y2="275.761" stroke="#333333" stroke-width="1" opacity="1" />
    <line x1="449.545" y1="204.372" x2="449.545" y2="271.628" stroke="#333333" stroke-width="1" opacity="1" />
    <path d="M268.055 123.069 L268.717 123.037 L269.379 123.001 L270.041 122.961 L270.702 122.917 L271.364 122.868 L272.026 122.815 L272.688 122.756 L273.35 122.692 L274.011 122.621 L274.673 122.543 L275.335 122.459 L275.997 122.366 L276.659 122.265 L277.32 122.156 L277.982 122.037 L278.644 121.908 L279.306 121.768 L279.968 121.617 L280.629 121.454 L281.291 121.278 L281.953 121.088 L282.615 120.885 L283.277 120.667 L283.938 120.434 L284.6 120.184 L285.262 119.917 L285.924 119.633 L286.586 119.331 L287.247 119.009 L287.909 118.669 L288.571 118.308 L289.233 117.926 L289.895 117.524 L290.556 117.099 L291.218 116.653 L291.88 116.184 L292.542 115.693 L293.204 115.178 L293.865 114.64 L294.527 114.08 L295.189 113.496 L295.851 112.889 L296.513 112.259 L297.174 111.606 L297.836 110.931 L298.498 110.235 L299.16 109.517 L299.822 108.78 L300.483 108.022 L301.145 107.246 L301.807 106.453 L302.469 105.643 L303.13 104.819 L303.792 103.981 L304.454 103.131 L305.116 102.27 L305.778 101.401 L306.439 100.525 L307.101 99.645 L307.763 98.762 L308.425 97.878 L309.087 96.995 L309.748 96.117 L310.41 95.245 L311.072 94.381 L311.734 93.528 L312.396 92.689 L313.057 91.865 L313.719 91.06 L314.381 90.275 L315.043 89.513 L315.705 88.777 L316.366 88.069 L317.028 87.39 L317.69 86.744 L318.352 86.133 L319.014 85.557 L319.675 85.021 L320.337 84.524 L320.999 84.069 L321.661 83.657 L322.323 83.29 L322.984 82.969 L323.646 82.695 L324.308 82.469 L324.97 82.291 L325.632 82.162 L326.293 82.083 L326.955 82.053 L327.617 82.073 L328.279 82.142 L328.941 82.26 L329.602 82.426 L330.264 82.639 L330.926 82.899 L331.588 83.203 L332.25 83.552 L332.911 83.943 L333.573 84.374 L334.235 84.844 L334.897 85.35 L335.558 85.891 L336.22 86.464 L336.882 87.067 L337.544 87.697 L338.206 88.352 L338.867 89.029 L339.529 89.725 L340.191 90.437 L340.853 91.163 L341.515 91.9 L342.176 92.644 L342.838 93.394 L343.5 94.145 L344.162 94.896 L344.824 95.643 L345.485 96.383 L346.147 97.115 L346.809 97.834 L347.471 98.54 L348.133 99.228 L348.794 99.897 L349.456 100.545 L350.118 101.169 L350.78 101.768 L351.442 102.339 L352.103 102.882 L352.765 103.394 L353.427 103.874 L354.089 104.321 L354.751 104.733 L355.412 105.111 L356.074 105.453 L356.736 105.759 L357.398 106.028 L358.06 106.261 L358.721 106.458 L359.383 106.618 L360.045 106.742 L360.707 106.831 L361.369 106.885 L362.03 106.905 L362.692 106.893 L363.354 106.85 L364.016 106.776 L364.678 106.674 L365.339 106.546 L366.001 106.392 L366.663 106.215 L367.325 106.017 L367.987 105.8 L368.648 105.567 L369.31 105.318 L369.972 105.057 L370.634 104.786 L371.295 104.508 L371.957 104.224 L372.619 103.938 L373.281 103.651 L373.943 103.366 L374.604 103.086 L375.266 102.812 L375.928 102.547 L376.59 102.293 L377.252 102.052 L377.913 101.826 L378.575 101.618 L379.237 101.428 L379.899 101.259 L380.561 101.112 L381.222 100.988 L381.884 100.889 L382.546 100.816 L383.208 100.769 L383.87 100.75 L384.531 100.76 L385.193 100.798 L385.855 100.865 L386.517 100.961 L387.179 101.086 L387.84 101.24 L388.502 101.422 L389.164 101.633 L389.826 101.871 L390.488 102.135 L391.149 102.426 L391.811 102.741 L392.473 103.08 L393.135 103.442 L393.797 103.825 L394.458 104.227 L395.12 104.648 L395.782 105.085 L396.444 105.538 L397.106 106.004 L397.767 106.483 L398.429 106.972 L399.091 107.469 L399.753 107.973 L400.415 108.483 L401.076 108.997 L401.738 109.513 L402.4 110.029 L403.062 110.545 L403.724 111.059 L404.385 111.569 L405.047 112.074 L405.709 112.573 L406.371 113.065 L407.032 113.549 L407.694 114.024 L408.356 114.488 L409.018 114.941 L409.68 115.383 L410.341 115.812 L411.003 116.229 L411.665 116.632 L412.327 117.022 L412.989 117.397 L413.65 117.759 L414.312 118.106 L414.974 118.438 L415.636 118.756 L416.298 119.06 L416.959 119.349 L417.621 119.624 L418.283 119.885 L418.945 120.132 L419.607 120.366 L420.268 120.587 L420.93 120.795 L421.592 120.991 L422.254 121.175 L422.916 121.347 L423.577 121.509 L424.239 121.659 L424.901 121.799 L425.563 121.93 L426.225 122.052 L426.886 122.164 L427.548 122.268 L428.21 122.365 L428.872 122.454 L429.534 122.536 L430.195 122.611 L430.857 122.68 L431.519 122.744 L432.181 122.802 L432.843 122.855 L433.504 122.903 L434.166 122.947 L434.828 122.987 L435.49 123.023 L436.152 123.056 L436.813 123.086 L436.813 123.581 L436.152 123.61 L435.49 123.643 L434.828 123.68 L434.166 123.72 L433.504 123.764 L432.843 123.812 L432.181 123.865 L431.519 123.923 L430.857 123.987 L430.195 124.056 L429.534 124.131 L428.872 124.213 L428.21 124.302 L427.548 124.398 L426.886 124.503 L426.225 124.615 L425.563 124.737 L424.901 124.867 L424.239 125.008 L423.577 125.158 L422.916 125.319 L422.254 125.492 L421.592 125.675 L420.93 125.871 L420.268 126.079 L419.607 126.3 L418.945 126.534 L418.283 126.782 L417.621 127.043 L416.959 127.318 L416.298 127.607 L415.636 127.911 L414.974 128.229 L414.312 128.561 L413.65 128.908 L412.989 129.269 L412.327 129.645 L411.665 130.035 L411.003 130.438 L410.341 130.854 L409.68 131.284 L409.018 131.725 L408.356 132.179 L407.694 132.643 L407.032 133.118 L406.371 133.601 L405.709 134.093 L405.047 134.592 L404.385 135.098 L403.724 135.608 L403.062 136.121 L402.4 136.637 L401.738 137.154 L401.076 137.67 L400.415 138.183 L399.753 138.693 L399.091 139.198 L398.429 139.695 L397.767 140.184 L397.106 140.662 L396.444 141.129 L395.782 141.581 L395.12 142.019 L394.458 142.44 L393.797 142.842 L393.135 143.225 L392.473 143.586 L391.811 143.925 L391.149 144.241 L390.488 144.531 L389.826 144.796 L389.164 145.034 L388.502 145.245 L387.84 145.427 L387.179 145.581 L386.517 145.706 L385.855 145.802 L385.193 145.869 L384.531 145.907 L383.87 145.916 L383.208 145.897 L382.546 145.851 L381.884 145.778 L381.222 145.679 L380.561 145.555 L379.899 145.408 L379.237 145.239 L378.575 145.049 L377.913 144.84 L377.252 144.615 L376.59 144.374 L375.928 144.12 L375.266 143.855 L374.604 143.581 L373.943 143.3 L373.281 143.016 L372.619 142.729 L371.957 142.442 L371.295 142.159 L370.634 141.88 L369.972 141.609 L369.31 141.349 L368.648 141.1 L367.987 140.866 L367.325 140.649 L366.663 140.451 L366.001 140.275 L365.339 140.121 L364.678 139.992 L364.016 139.89 L363.354 139.817 L362.692 139.774 L362.03 139.761 L361.369 139.782 L360.707 139.836 L360.045 139.925 L359.383 140.049 L358.721 140.209 L358.06 140.405 L357.398 140.638 L356.736 140.908 L356.074 141.214 L355.412 141.556 L354.751 141.933 L354.089 142.346 L353.427 142.793 L352.765 143.273 L352.103 143.785 L351.442 144.327 L350.78 144.899 L350.118 145.497 L349.456 146.122 L348.794 146.77 L348.133 147.439 L347.471 148.127 L346.809 148.832 L346.147 149.552 L345.485 150.283 L344.824 151.024 L344.162 151.771 L343.5 152.521 L342.838 153.273 L342.176 154.022 L341.515 154.767 L340.853 155.504 L340.191 156.23 L339.529 156.942 L338.867 157.638 L338.206 158.315 L337.544 158.97 L336.882 159.6 L336.22 160.203 L335.558 160.776 L334.897 161.317 L334.235 161.823 L333.573 162.293 L332.911 162.724 L332.25 163.115 L331.588 163.463 L330.926 163.768 L330.264 164.028 L329.602 164.241 L328.941 164.407 L328.279 164.525 L327.617 164.594 L326.955 164.613 L326.293 164.584 L325.632 164.504 L324.97 164.376 L324.308 164.198 L323.646 163.972 L322.984 163.698 L322.323 163.376 L321.661 163.009 L320.999 162.598 L320.337 162.143 L319.675 161.646 L319.014 161.109 L318.352 160.534 L317.69 159.922 L317.028 159.276 L316.366 158.598 L315.705 157.89 L315.043 157.153 L314.381 156.392 L313.719 155.607 L313.057 154.802 L312.396 153.978 L311.734 153.139 L311.072 152.286 L310.41 151.422 L309.748 150.55 L309.087 149.671 L308.425 148.789 L307.763 147.905 L307.101 147.022 L306.439 146.141 L305.778 145.266 L305.116 144.396 L304.454 143.536 L303.792 142.686 L303.13 141.848 L302.469 141.023 L301.807 140.214 L301.145 139.42 L300.483 138.644 L299.822 137.887 L299.16 137.149 L298.498 136.432 L297.836 135.735 L297.174 135.061 L296.513 134.408 L295.851 133.778 L295.189 133.171 L294.527 132.587 L293.865 132.026 L293.204 131.489 L292.542 130.974 L291.88 130.483 L291.218 130.014 L290.556 129.567 L289.895 129.143 L289.233 128.74 L288.571 128.359 L287.909 127.998 L287.247 127.657 L286.586 127.336 L285.924 127.034 L285.262 126.749 L284.6 126.483 L283.938 126.233 L283.277 126 L282.615 125.781 L281.953 125.578 L281.291 125.389 L280.629 125.213 L279.968 125.05 L279.306 124.899 L278.644 124.759 L277.982 124.63 L277.32 124.511 L276.659 124.401 L275.997 124.301 L275.335 124.208 L274.673 124.123 L274.011 124.046 L273.35 123.975 L272.688 123.911 L272.026 123.852 L271.364 123.798 L270.702 123.75 L270.041 123.706 L269.379 123.666 L268.717 123.63 L268.055 123.598 Z" fill="#E15759" opacity="0.62" />
    <line x1="326.879" y1="82.057" x2="326.879" y2="164.61" stroke="#333333" stroke-width="1" opacity="1" />
    <line x1="333.694" y1="84.459" x2="333.694" y2="162.207" stroke="#333333" stroke-width="1" opacity="1" />
    <line x1="359.249" y1="106.585" x2="359.249" y2="140.081" stroke="#333333" stroke-width="1" opacity="1" />
  </g>
</g>
<g class="algraf-axes">
  <line x1="104" y1="410" x2="570" y2="410" stroke="#333333" stroke-width="1" />
  <line x1="106.533" y1="410" x2="106.533" y2="415" stroke="#333333" stroke-width="1" />
  <text x="106.533" y="428" text-anchor="middle" font-family="system-ui, sans-serif" font-size="12" fill="#222222">150</text>
  <line x1="163.323" y1="410" x2="163.323" y2="415" stroke="#333333" stroke-width="1" />
  <text x="163.323" y="428" text-anchor="middle" font-family="system-ui, sans-serif" font-size="12" fill="#222222">155</text>
  <line x1="220.113" y1="410" x2="220.113" y2="415" stroke="#333333" stroke-width="1" />
  <text x="220.113" y="428" text-anchor="middle" font-family="system-ui, sans-serif" font-size="12" fill="#222222">160</text>
  <line x1="276.903" y1="410" x2="276.903" y2="415" stroke="#333333" stroke-width="1" />
  <text x="276.903" y="428" text-anchor="middle" font-family="system-ui, sans-serif" font-size="12" fill="#222222">165</text>
  <line x1="333.694" y1="410" x2="333.694" y2="415" stroke="#333333" stroke-width="1" />
  <text x="333.694" y="428" text-anchor="middle" font-family="system-ui, sans-serif" font-size="12" fill="#222222">170</text>
  <line x1="390.484" y1="410" x2="390.484" y2="415" stroke="#333333" stroke-width="1" />
  <text x="390.484" y="428" text-anchor="middle" font-family="system-ui, sans-serif" font-size="12" fill="#222222">175</text>
  <line x1="447.274" y1="410" x2="447.274" y2="415" stroke="#333333" stroke-width="1" />
  <text x="447.274" y="428" text-anchor="middle" font-family="system-ui, sans-serif" font-size="12" fill="#222222">180</text>
  <line x1="504.064" y1="410" x2="504.064" y2="415" stroke="#333333" stroke-width="1" />
  <text x="504.064" y="428" text-anchor="middle" font-family="system-ui, sans-serif" font-size="12" fill="#222222">185</text>
  <line x1="560.854" y1="410" x2="560.854" y2="415" stroke="#333333" stroke-width="1" />
  <text x="560.854" y="428" text-anchor="middle" font-family="system-ui, sans-serif" font-size="12" fill="#222222">190</text>
  <text x="337" y="448" text-anchor="middle" font-family="system-ui, sans-serif" font-size="12" fill="#222222">Height</text>
  <line x1="104" y1="66" x2="104" y2="410" stroke="#333333" stroke-width="1" />
  <line x1="99" y1="352.667" x2="104" y2="352.667" stroke="#333333" stroke-width="1" />
  <text x="96" y="356.667" text-anchor="end" font-family="system-ui, sans-serif" font-size="12" fill="#222222">Female</text>
  <line x1="99" y1="238" x2="104" y2="238" stroke="#333333" stroke-width="1" />
  <text x="96" y="242" text-anchor="end" font-family="system-ui, sans-serif" font-size="12" fill="#222222">Male</text>
  <line x1="99" y1="123.333" x2="104" y2="123.333" stroke="#333333" stroke-width="1" />
  <text x="96" y="127.333" text-anchor="end" font-family="system-ui, sans-serif" font-size="12" fill="#222222">Non-binary</text>
  <text x="12" y="238" text-anchor="middle" transform="rotate(-90 12 238)" font-family="system-ui, sans-serif" font-size="12" fill="#222222">Group</text>
</g>
<g class="algraf-legends">
  <text x="586" y="70" text-anchor="start" font-family="system-ui, sans-serif" font-size="12" fill="#222222">gender</text>
  <rect x="586" y="78" width="12" height="12" fill="#4E79A7" />
  <text x="604" y="88" text-anchor="start" font-family="system-ui, sans-serif" font-size="12" fill="#222222">Female</text>
  <rect x="586" y="96" width="12" height="12" fill="#F28E2B" />
  <text x="604" y="106" text-anchor="start" font-family="system-ui, sans-serif" font-size="12" fill="#222222">Male</text>
  <rect x="586" y="114" width="12" height="12" fill="#E15759" />
  <text x="604" y="124" text-anchor="start" font-family="system-ui, sans-serif" font-size="12" fill="#222222">Non-binary</text>
</g>
</svg>
