<svg xmlns="http://www.w3.org/2000/svg" width="720" height="440" viewBox="0 0 720 440" role="img" aria-label="Sales by rep">
<title>Sales by rep</title>
<rect class="algraf-background" x="0" y="0" width="720" height="440" fill="#ffffff" />
<text class="algraf-title" x="75.2" y="24" font-family="system-ui, sans-serif" font-size="18" font-weight="600" fill="#222222">Sales by rep</text>
<rect class="algraf-plot-area" x="75.2" y="66" width="614.8" height="324" fill="#ffffff" />
<g class="algraf-grid">
  <line x1="109.911" y1="66" x2="109.911" y2="390" stroke="#f2f2f2" stroke-width="0.6" />
  <line x1="179.333" y1="66" x2="179.333" y2="390" stroke="#f2f2f2" stroke-width="0.6" />
  <line x1="248.755" y1="66" x2="248.755" y2="390" stroke="#f2f2f2" stroke-width="0.6" />
  <line x1="318.177" y1="66" x2="318.177" y2="390" stroke="#f2f2f2" stroke-width="0.6" />
  <line x1="387.598" y1="66" x2="387.598" y2="390" stroke="#f2f2f2" stroke-width="0.6" />
  <line x1="457.02" y1="66" x2="457.02" y2="390" stroke="#f2f2f2" stroke-width="0.6" />
  <line x1="526.442" y1="66" x2="526.442" y2="390" stroke="#f2f2f2" stroke-width="0.6" />
  <line x1="595.864" y1="66" x2="595.864" y2="390" stroke="#f2f2f2" stroke-width="0.6" />
  <line x1="75.2" y1="66" x2="75.2" y2="390" stroke="#e6e6e6" stroke-width="1" />
  <line x1="144.622" y1="66" x2="144.622" y2="390" stroke="#e6e6e6" stroke-width="1" />
  <line x1="214.044" y1="66" x2="214.044" y2="390" stroke="#e6e6e6" stroke-width="1" />
  <line x1="283.466" y1="66" x2="283.466" y2="390" stroke="#e6e6e6" stroke-width="1" />
  <line x1="352.887" y1="66" x2="352.887" y2="390" stroke="#e6e6e6" stroke-width="1" />
  <line x1="422.309" y1="66" x2="422.309" y2="390" stroke="#e6e6e6" stroke-width="1" />
  <line x1="491.731" y1="66" x2="491.731" y2="390" stroke="#e6e6e6" stroke-width="1" />
  <line x1="561.153" y1="66" x2="561.153" y2="390" stroke="#e6e6e6" stroke-width="1" />
  <line x1="630.575" y1="66" x2="630.575" y2="390" stroke="#e6e6e6" stroke-width="1" />
</g>
<g class="algraf-layer algraf-geom-bar">
  <rect x="75.2" y="331.68" width="569.259" height="51.84" fill="#4E79A7" opacity="0.86" />
  <rect x="75.2" y="266.88" width="444.3" height="51.84" fill="#4E79A7" opacity="0.86" />
  <rect x="75.2" y="202.08" width="395.705" height="51.84" fill="#4E79A7" opacity="0.86" />
  <rect x="75.2" y="137.28" width="284.63" height="51.84" fill="#4E79A7" opacity="0.86" />
  <rect x="75.2" y="72.48" width="194.381" height="51.84" fill="#4E79A7" opacity="0.86" />
</g>
<g class="algraf-axes">
  <line x1="75.2" y1="390" x2="690" y2="390" stroke="#333333" stroke-width="1" />
  <line x1="75.2" y1="390" x2="75.2" y2="395" stroke="#333333" stroke-width="1" />
  <text x="75.2" y="408" text-anchor="middle" font-family="system-ui, sans-serif" font-size="12" fill="#222222">0</text>
  <line x1="144.622" y1="390" x2="144.622" y2="395" stroke="#333333" stroke-width="1" />
  <text x="144.622" y="408" text-anchor="middle" font-family="system-ui, sans-serif" font-size="12" fill="#222222">10</text>
  <line x1="214.044" y1="390" x2="214.044" y2="395" stroke="#333333" stroke-width="1" />
  <text x="214.044" y="408" text-anchor="middle" font-family="system-ui, sans-serif" font-size="12" fill="#222222">20</text>
  <line x1="283.466" y1="390" x2="283.466" y2="395" stroke="#333333" stroke-width="1" />
  <text x="283.466" y="408" text-anchor="middle" font-family="system-ui, sans-serif" font-size="12" fill="#222222">30</text>
  <line x1="352.887" y1="390" x2="352.887" y2="395" stroke="#333333" stroke-width="1" />
  <text x="352.887" y="408" text-anchor="middle" font-family="system-ui, sans-serif" font-size="12" fill="#222222">40</text>
  <line x1="422.309" y1="390" x2="422.309" y2="395" stroke="#333333" stroke-width="1" />
  <text x="422.309" y="408" text-anchor="middle" font-family="system-ui, sans-serif" font-size="12" fill="#222222">50</text>
  <line x1="491.731" y1="390" x2="491.731" y2="395" stroke="#333333" stroke-width="1" />
  <text x="491.731" y="408" text-anchor="middle" font-family="system-ui, sans-serif" font-size="12" fill="#222222">60</text>
  <line x1="561.153" y1="390" x2="561.153" y2="395" stroke="#333333" stroke-width="1" />
  <text x="561.153" y="408" text-anchor="middle" font-family="system-ui, sans-serif" font-size="12" fill="#222222">70</text>
  <line x1="630.575" y1="390" x2="630.575" y2="395" stroke="#333333" stroke-width="1" />
  <text x="630.575" y="408" text-anchor="middle" font-family="system-ui, sans-serif" font-size="12" fill="#222222">80</text>
  <text x="382.6" y="428" text-anchor="middle" font-family="system-ui, sans-serif" font-size="12" fill="#222222">Sales</text>
  <line x1="75.2" y1="66" x2="75.2" y2="390" stroke="#333333" stroke-width="1" />
  <line x1="70.2" y1="357.6" x2="75.2" y2="357.6" stroke="#333333" stroke-width="1" />
  <text x="67.2" y="361.6" text-anchor="end" font-family="system-ui, sans-serif" font-size="12" fill="#222222">Alice</text>
  <line x1="70.2" y1="292.8" x2="75.2" y2="292.8" stroke="#333333" stroke-width="1" />
  <text x="67.2" y="296.8" text-anchor="end" font-family="system-ui, sans-serif" font-size="12" fill="#222222">Bowman</text>
  <line x1="70.2" y1="228" x2="75.2" y2="228" stroke="#333333" stroke-width="1" />
  <text x="67.2" y="232" text-anchor="end" font-family="system-ui, sans-serif" font-size="12" fill="#222222">Chen</text>
  <line x1="70.2" y1="163.2" x2="75.2" y2="163.2" stroke="#333333" stroke-width="1" />
  <text x="67.2" y="167.2" text-anchor="end" font-family="system-ui, sans-serif" font-size="12" fill="#222222">Diaz</text>
  <line x1="70.2" y1="98.4" x2="75.2" y2="98.4" stroke="#333333" stroke-width="1" />
  <text x="67.2" y="102.4" text-anchor="end" font-family="system-ui, sans-serif" font-size="12" fill="#222222">Evans</text>
  <text x="12" y="228" text-anchor="middle" transform="rotate(-90 12 228)" font-family="system-ui, sans-serif" font-size="12" fill="#222222">Rep</text>
</g>
</svg>
