<svg xmlns="http://www.w3.org/2000/svg" width="860" height="520" viewBox="0 0 860 520" role="img" aria-label="Sales distribution by product and region">
<title>Sales distribution by product and region</title>
<rect class="algraf-background" x="0" y="0" width="860" height="520" fill="#ffffff" />
<text class="algraf-title" x="82.4" y="24" font-family="system-ui, sans-serif" font-size="18" font-weight="600" fill="#222222">Sales distribution by product and region</text>
<rect class="algraf-plot-area algraf-facet-panel" x="82.4" y="90" width="277.8" height="146" fill="#ffffff" />
<rect class="algraf-plot-area algraf-facet-panel" x="432.2" y="90" width="277.8" height="146" fill="#ffffff" />
<rect class="algraf-plot-area algraf-facet-panel" x="82.4" y="324" width="277.8" height="146" fill="#ffffff" />
<rect class="algraf-plot-area algraf-facet-panel" x="432.2" y="324" width="277.8" height="146" fill="#ffffff" />
<g class="algraf-facet-strip">
  <rect x="82.4" y="66" width="277.8" height="18" fill="#ffffff" />
  <text x="221.3" y="80" text-anchor="middle" font-family="system-ui, sans-serif" font-size="12" fill="#222222">North</text>
</g>
<g class="algraf-facet-strip">
  <rect x="432.2" y="66" width="277.8" height="18" fill="#ffffff" />
  <text x="571.1" y="80" text-anchor="middle" font-family="system-ui, sans-serif" font-size="12" fill="#222222">South</text>
</g>
<g class="algraf-facet-strip">
  <rect x="82.4" y="300" width="277.8" height="18" fill="#ffffff" />
  <text x="221.3" y="314" text-anchor="middle" font-family="system-ui, sans-serif" font-size="12" fill="#222222">East</text>
</g>
<g class="algraf-facet-strip">
  <rect x="432.2" y="300" width="277.8" height="18" fill="#ffffff" />
  <text x="571.1" y="314" text-anchor="middle" font-family="system-ui, sans-serif" font-size="12" fill="#222222">West</text>
</g>
<g class="algraf-grid">
  <line x1="129.156" y1="90" x2="129.156" y2="236" stroke="#f2f2f2" stroke-width="0.6" />
  <line x1="183.393" y1="90" x2="183.393" y2="236" stroke="#f2f2f2" stroke-width="0.6" />
  <line x1="237.631" y1="90" x2="237.631" y2="236" stroke="#f2f2f2" stroke-width="0.6" />
  <line x1="291.869" y1="90" x2="291.869" y2="236" stroke="#f2f2f2" stroke-width="0.6" />
  <line x1="102.037" y1="90" x2="102.037" y2="236" stroke="#e6e6e6" stroke-width="1" />
  <line x1="156.274" y1="90" x2="156.274" y2="236" stroke="#e6e6e6" stroke-width="1" />
  <line x1="210.512" y1="90" x2="210.512" y2="236" stroke="#e6e6e6" stroke-width="1" />
  <line x1="264.75" y1="90" x2="264.75" y2="236" stroke="#e6e6e6" stroke-width="1" />
  <line x1="318.987" y1="90" x2="318.987" y2="236" stroke="#e6e6e6" stroke-width="1" />
</g>
<g class="algraf-grid">
  <line x1="478.956" y1="90" x2="478.956" y2="236" stroke="#f2f2f2" stroke-width="0.6" />
  <line x1="533.193" y1="90" x2="533.193" y2="236" stroke="#f2f2f2" stroke-width="0.6" />
  <line x1="587.431" y1="90" x2="587.431" y2="236" stroke="#f2f2f2" stroke-width="0.6" />
  <line x1="641.669" y1="90" x2="641.669" y2="236" stroke="#f2f2f2" stroke-width="0.6" />
  <line x1="451.837" y1="90" x2="451.837" y2="236" stroke="#e6e6e6" stroke-width="1" />
  <line x1="506.074" y1="90" x2="506.074" y2="236" stroke="#e6e6e6" stroke-width="1" />
  <line x1="560.312" y1="90" x2="560.312" y2="236" stroke="#e6e6e6" stroke-width="1" />
  <line x1="614.55" y1="90" x2="614.55" y2="236" stroke="#e6e6e6" stroke-width="1" />
  <line x1="668.787" y1="90" x2="668.787" y2="236" stroke="#e6e6e6" stroke-width="1" />
</g>
<g class="algraf-grid">
  <line x1="129.156" y1="324" x2="129.156" y2="470" stroke="#f2f2f2" stroke-width="0.6" />
  <line x1="183.393" y1="324" x2="183.393" y2="470" stroke="#f2f2f2" stroke-width="0.6" />
  <line x1="237.631" y1="324" x2="237.631" y2="470" stroke="#f2f2f2" stroke-width="0.6" />
  <line x1="291.869" y1="324" x2="291.869" y2="470" stroke="#f2f2f2" stroke-width="0.6" />
  <line x1="102.037" y1="324" x2="102.037" y2="470" stroke="#e6e6e6" stroke-width="1" />
  <line x1="156.274" y1="324" x2="156.274" y2="470" stroke="#e6e6e6" stroke-width="1" />
  <line x1="210.512" y1="324" x2="210.512" y2="470" stroke="#e6e6e6" stroke-width="1" />
  <line x1="264.75" y1="324" x2="264.75" y2="470" stroke="#e6e6e6" stroke-width="1" />
  <line x1="318.987" y1="324" x2="318.987" y2="470" stroke="#e6e6e6" stroke-width="1" />
</g>
<g class="algraf-grid">
  <line x1="478.956" y1="324" x2="478.956" y2="470" stroke="#f2f2f2" stroke-width="0.6" />
  <line x1="533.193" y1="324" x2="533.193" y2="470" stroke="#f2f2f2" stroke-width="0.6" />
  <line x1="587.431" y1="324" x2="587.431" y2="470" stroke="#f2f2f2" stroke-width="0.6" />
  <line x1="641.669" y1="324" x2="641.669" y2="470" stroke="#f2f2f2" stroke-width="0.6" />
  <line x1="451.837" y1="324" x2="451.837" y2="470" stroke="#e6e6e6" stroke-width="1" />
  <line x1="506.074" y1="324" x2="506.074" y2="470" stroke="#e6e6e6" stroke-width="1" />
  <line x1="560.312" y1="324" x2="560.312" y2="470" stroke="#e6e6e6" stroke-width="1" />
  <line x1="614.55" y1="324" x2="614.55" y2="470" stroke="#e6e6e6" stroke-width="1" />
  <line x1="668.787" y1="324" x2="668.787" y2="470" stroke="#e6e6e6" stroke-width="1" />
</g>
<defs>
<clipPath id="algraf-clip-0"><rect x="82.4" y="90" width="277.8" height="146" /></clipPath>
</defs>
<g clip-path="url(#algraf-clip-0)">
  <g class="algraf-layer algraf-geom-violin">
    <path d="M166.941 199.309 L167.495 199.286 L168.05 199.26 L168.604 199.232 L169.159 199.201 L169.713 199.167 L170.268 199.129 L170.822 199.088 L171.376 199.043 L171.931 198.994 L172.485 198.941 L173.04 198.882 L173.594 198.819 L174.149 198.75 L174.703 198.675 L175.257 198.595 L175.812 198.507 L176.366 198.413 L176.921 198.312 L177.475 198.203 L178.03 198.087 L178.584 197.962 L179.138 197.828 L179.693 197.686 L180.247 197.534 L180.802 197.373 L181.356 197.201 L181.911 197.02 L182.465 196.828 L183.019 196.626 L183.574 196.412 L184.128 196.188 L184.683 195.952 L185.237 195.705 L185.792 195.446 L186.346 195.177 L186.9 194.896 L187.455 194.604 L188.009 194.3 L188.564 193.986 L189.118 193.662 L189.673 193.327 L190.227 192.982 L190.781 192.628 L191.336 192.265 L191.89 191.894 L192.445 191.515 L192.999 191.129 L193.554 190.737 L194.108 190.339 L194.663 189.937 L195.217 189.531 L195.771 189.123 L196.326 188.713 L196.88 188.302 L197.435 187.892 L197.989 187.483 L198.544 187.077 L199.098 186.675 L199.652 186.277 L200.207 185.886 L200.761 185.502 L201.316 185.126 L201.87 184.76 L202.425 184.403 L202.979 184.059 L203.533 183.726 L204.088 183.407 L204.642 183.102 L205.197 182.811 L205.751 182.536 L206.306 182.277 L206.86 182.034 L207.414 181.808 L207.969 181.598 L208.523 181.407 L209.078 181.232 L209.632 181.075 L210.187 180.934 L210.741 180.811 L211.295 180.704 L211.85 180.613 L212.404 180.537 L212.959 180.476 L213.513 180.429 L214.068 180.394 L214.622 180.372 L215.176 180.361 L215.731 180.36 L216.285 180.367 L216.84 180.382 L217.394 180.403 L217.949 180.43 L218.503 180.46 L219.057 180.492 L219.612 180.526 L220.166 180.559 L220.721 180.591 L221.275 180.621 L221.83 180.646 L222.384 180.667 L222.938 180.681 L223.493 180.689 L224.047 180.688 L224.602 180.679 L225.156 180.66 L225.711 180.631 L226.265 180.591 L226.819 180.539 L227.374 180.476 L227.928 180.401 L228.483 180.314 L229.037 180.215 L229.592 180.104 L230.146 179.981 L230.701 179.846 L231.255 179.7 L231.809 179.543 L232.364 179.376 L232.918 179.199 L233.473 179.013 L234.027 178.819 L234.582 178.617 L235.136 178.408 L235.69 178.193 L236.245 177.974 L236.799 177.75 L237.354 177.523 L237.908 177.294 L238.463 177.064 L239.017 176.833 L239.571 176.604 L240.126 176.375 L240.68 176.15 L241.235 175.927 L241.789 175.709 L242.344 175.496 L242.898 175.289 L243.452 175.089 L244.007 174.895 L244.561 174.71 L245.116 174.533 L245.67 174.365 L246.225 174.207 L246.779 174.059 L247.333 173.922 L247.888 173.796 L248.442 173.682 L248.997 173.579 L249.551 173.488 L250.106 173.411 L250.66 173.346 L251.214 173.294 L251.769 173.256 L252.323 173.231 L252.878 173.22 L253.432 173.223 L253.987 173.241 L254.541 173.273 L255.095 173.32 L255.65 173.382 L256.204 173.459 L256.759 173.551 L257.313 173.658 L257.868 173.781 L258.422 173.92 L258.976 174.074 L259.531 174.244 L260.085 174.43 L260.64 174.631 L261.194 174.849 L261.749 175.082 L262.303 175.331 L262.857 175.596 L263.412 175.876 L263.966 176.172 L264.521 176.482 L265.075 176.808 L265.63 177.148 L266.184 177.502 L266.739 177.869 L267.293 178.25 L267.847 178.644 L268.402 179.049 L268.956 179.466 L269.511 179.894 L270.065 180.332 L270.62 180.779 L271.174 181.235 L271.728 181.698 L272.283 182.168 L272.837 182.644 L273.392 183.125 L273.946 183.609 L274.501 184.097 L275.055 184.587 L275.609 185.079 L276.164 185.57 L276.718 186.06 L277.273 186.549 L277.827 187.035 L278.382 187.518 L278.936 187.996 L279.49 188.468 L280.045 188.935 L280.599 189.394 L281.154 189.846 L281.708 190.289 L282.263 190.724 L282.817 191.149 L283.371 191.563 L283.926 191.967 L284.48 192.36 L285.035 192.741 L285.589 193.111 L286.144 193.468 L286.698 193.813 L287.252 194.146 L287.807 194.466 L288.361 194.773 L288.916 195.067 L289.47 195.349 L290.025 195.619 L290.579 195.876 L291.133 196.12 L291.688 196.353 L292.242 196.573 L292.797 196.782 L293.351 196.98 L293.906 197.166 L294.46 197.342 L295.014 197.507 L295.569 197.662 L296.123 197.808 L296.678 197.944 L297.232 198.071 L297.787 198.19 L298.341 198.3 L298.895 198.403 L299.45 198.499 L300.004 198.587 L300.559 198.669 L301.113 198.744 L301.668 198.814 L302.222 198.878 L302.777 198.937 L303.331 198.991 L303.885 199.041 L304.44 199.086 L304.994 199.128 L305.549 199.165 L306.103 199.2 L306.658 199.231 L307.212 199.259 L307.766 199.285 L308.321 199.308 L308.321 199.692 L307.766 199.715 L307.212 199.741 L306.658 199.769 L306.103 199.8 L305.549 199.835 L304.994 199.872 L304.44 199.914 L303.885 199.959 L303.331 200.009 L302.777 200.063 L302.222 200.122 L301.668 200.186 L301.113 200.256 L300.559 200.331 L300.004 200.413 L299.45 200.501 L298.895 200.597 L298.341 200.7 L297.787 200.81 L297.232 200.929 L296.678 201.056 L296.123 201.192 L295.569 201.338 L295.014 201.493 L294.46 201.658 L293.906 201.834 L293.351 202.02 L292.797 202.218 L292.242 202.427 L291.688 202.647 L291.133 202.88 L290.579 203.124 L290.025 203.381 L289.47 203.651 L288.916 203.933 L288.361 204.227 L287.807 204.534 L287.252 204.854 L286.698 205.187 L286.144 205.532 L285.589 205.889 L285.035 206.259 L284.48 206.64 L283.926 207.033 L283.371 207.437 L282.817 207.851 L282.263 208.276 L281.708 208.711 L281.154 209.154 L280.599 209.606 L280.045 210.065 L279.49 210.532 L278.936 211.004 L278.382 211.482 L277.827 211.965 L277.273 212.451 L276.718 212.94 L276.164 213.43 L275.609 213.921 L275.055 214.413 L274.501 214.903 L273.946 215.391 L273.392 215.875 L272.837 216.356 L272.283 216.832 L271.728 217.302 L271.174 217.765 L270.62 218.221 L270.065 218.668 L269.511 219.106 L268.956 219.534 L268.402 219.951 L267.847 220.356 L267.293 220.75 L266.739 221.131 L266.184 221.498 L265.63 221.852 L265.075 222.192 L264.521 222.518 L263.966 222.828 L263.412 223.124 L262.857 223.404 L262.303 223.669 L261.749 223.918 L261.194 224.151 L260.64 224.369 L260.085 224.57 L259.531 224.756 L258.976 224.926 L258.422 225.08 L257.868 225.219 L257.313 225.342 L256.759 225.449 L256.204 225.541 L255.65 225.618 L255.095 225.68 L254.541 225.727 L253.987 225.759 L253.432 225.777 L252.878 225.78 L252.323 225.769 L251.769 225.744 L251.214 225.706 L250.66 225.654 L250.106 225.589 L249.551 225.512 L248.997 225.421 L248.442 225.318 L247.888 225.204 L247.333 225.078 L246.779 224.941 L246.225 224.793 L245.67 224.635 L245.116 224.467 L244.561 224.29 L244.007 224.105 L243.452 223.911 L242.898 223.711 L242.344 223.504 L241.789 223.291 L241.235 223.073 L240.68 222.85 L240.126 222.625 L239.571 222.396 L239.017 222.167 L238.463 221.936 L237.908 221.706 L237.354 221.477 L236.799 221.25 L236.245 221.026 L235.69 220.807 L235.136 220.592 L234.582 220.383 L234.027 220.181 L233.473 219.987 L232.918 219.801 L232.364 219.624 L231.809 219.457 L231.255 219.3 L230.701 219.154 L230.146 219.019 L229.592 218.896 L229.037 218.785 L228.483 218.686 L227.928 218.599 L227.374 218.524 L226.819 218.461 L226.265 218.409 L225.711 218.369 L225.156 218.34 L224.602 218.321 L224.047 218.312 L223.493 218.311 L222.938 218.319 L222.384 218.333 L221.83 218.354 L221.275 218.379 L220.721 218.409 L220.166 218.441 L219.612 218.474 L219.057 218.508 L218.503 218.54 L217.949 218.57 L217.394 218.597 L216.84 218.618 L216.285 218.633 L215.731 218.64 L215.176 218.639 L214.622 218.628 L214.068 218.606 L213.513 218.571 L212.959 218.524 L212.404 218.463 L211.85 218.387 L211.295 218.296 L210.741 218.189 L210.187 218.066 L209.632 217.925 L209.078 217.768 L208.523 217.593 L207.969 217.402 L207.414 217.192 L206.86 216.966 L206.306 216.723 L205.751 216.464 L205.197 216.189 L204.642 215.898 L204.088 215.593 L203.533 215.274 L202.979 214.941 L202.425 214.597 L201.87 214.24 L201.316 213.874 L200.761 213.498 L200.207 213.114 L199.652 212.723 L199.098 212.325 L198.544 211.923 L197.989 211.517 L197.435 211.108 L196.88 210.698 L196.326 210.287 L195.771 209.877 L195.217 209.469 L194.663 209.063 L194.108 208.661 L193.554 208.263 L192.999 207.871 L192.445 207.485 L191.89 207.106 L191.336 206.735 L190.781 206.372 L190.227 206.018 L189.673 205.673 L189.118 205.338 L188.564 205.014 L188.009 204.7 L187.455 204.396 L186.9 204.104 L186.346 203.823 L185.792 203.554 L185.237 203.295 L184.683 203.048 L184.128 202.812 L183.574 202.588 L183.019 202.374 L182.465 202.172 L181.911 201.98 L181.356 201.799 L180.802 201.627 L180.247 201.466 L179.693 201.314 L179.138 201.172 L178.584 201.038 L178.03 200.913 L177.475 200.797 L176.921 200.688 L176.366 200.587 L175.812 200.493 L175.257 200.405 L174.703 200.325 L174.149 200.25 L173.594 200.181 L173.04 200.118 L172.485 200.059 L171.931 200.006 L171.376 199.957 L170.822 199.912 L170.268 199.871 L169.713 199.833 L169.159 199.799 L168.604 199.768 L168.05 199.74 L167.495 199.714 L166.941 199.691 Z" fill="#006BA4" opacity="0.5" />
    <line x1="226.783" y1="180.542" x2="226.783" y2="218.458" stroke="#333333" stroke-width="1" opacity="1" />
    <line x1="243.055" y1="175.232" x2="243.055" y2="223.768" stroke="#333333" stroke-width="1" opacity="1" />
    <line x1="253.902" y1="173.238" x2="253.902" y2="225.762" stroke="#333333" stroke-width="1" opacity="1" />
    <path d="M127.998 126.338 L128.22 126.318 L128.442 126.296 L128.664 126.273 L128.886 126.246 L129.107 126.217 L129.329 126.186 L129.551 126.151 L129.773 126.113 L129.994 126.071 L130.216 126.026 L130.438 125.976 L130.66 125.922 L130.881 125.864 L131.103 125.801 L131.325 125.732 L131.547 125.658 L131.769 125.579 L131.99 125.493 L132.212 125.401 L132.434 125.302 L132.656 125.196 L132.877 125.083 L133.099 124.962 L133.321 124.833 L133.543 124.697 L133.765 124.552 L133.986 124.398 L134.208 124.235 L134.43 124.064 L134.652 123.883 L134.873 123.693 L135.095 123.494 L135.317 123.285 L135.539 123.067 L135.76 122.839 L135.982 122.601 L136.204 122.355 L136.426 122.099 L136.648 121.834 L136.869 121.56 L137.091 121.278 L137.313 120.988 L137.535 120.69 L137.756 120.385 L137.978 120.073 L138.2 119.755 L138.422 119.432 L138.644 119.104 L138.865 118.772 L139.087 118.436 L139.309 118.098 L139.531 117.759 L139.752 117.419 L139.974 117.08 L140.196 116.741 L140.418 116.406 L140.639 116.073 L140.861 115.746 L141.083 115.423 L141.305 115.108 L141.527 114.8 L141.748 114.5 L141.97 114.211 L142.192 113.932 L142.414 113.665 L142.635 113.411 L142.857 113.171 L143.079 112.944 L143.301 112.733 L143.522 112.538 L143.744 112.36 L143.966 112.198 L144.188 112.054 L144.41 111.928 L144.631 111.82 L144.853 111.731 L145.075 111.659 L145.297 111.607 L145.518 111.572 L145.74 111.556 L145.962 111.557 L146.184 111.575 L146.406 111.611 L146.627 111.662 L146.849 111.728 L147.071 111.809 L147.293 111.903 L147.514 112.01 L147.736 112.128 L147.958 112.256 L148.18 112.392 L148.401 112.537 L148.623 112.687 L148.845 112.842 L149.067 113 L149.289 113.16 L149.51 113.32 L149.732 113.479 L149.954 113.634 L150.176 113.786 L150.397 113.931 L150.619 114.069 L150.841 114.198 L151.063 114.317 L151.285 114.424 L151.506 114.518 L151.728 114.598 L151.95 114.662 L152.172 114.71 L152.393 114.74 L152.615 114.752 L152.837 114.745 L153.059 114.718 L153.28 114.67 L153.502 114.601 L153.724 114.511 L153.946 114.399 L154.168 114.265 L154.389 114.108 L154.611 113.931 L154.833 113.731 L155.055 113.51 L155.276 113.268 L155.498 113.006 L155.72 112.723 L155.942 112.422 L156.164 112.103 L156.385 111.766 L156.607 111.413 L156.829 111.045 L157.051 110.663 L157.272 110.268 L157.494 109.862 L157.716 109.447 L157.938 109.023 L158.159 108.593 L158.381 108.157 L158.603 107.718 L158.825 107.277 L159.047 106.836 L159.268 106.396 L159.49 105.959 L159.712 105.528 L159.934 105.103 L160.155 104.686 L160.377 104.279 L160.599 103.884 L160.821 103.502 L161.043 103.134 L161.264 102.783 L161.486 102.449 L161.708 102.134 L161.93 101.839 L162.151 101.566 L162.373 101.315 L162.595 101.088 L162.817 100.886 L163.038 100.709 L163.26 100.558 L163.482 100.435 L163.704 100.339 L163.926 100.271 L164.147 100.231 L164.369 100.22 L164.591 100.238 L164.813 100.285 L165.034 100.36 L165.256 100.465 L165.478 100.598 L165.7 100.759 L165.921 100.947 L166.143 101.163 L166.365 101.406 L166.587 101.674 L166.809 101.967 L167.03 102.285 L167.252 102.626 L167.474 102.989 L167.696 103.373 L167.917 103.777 L168.139 104.199 L168.361 104.64 L168.583 105.096 L168.805 105.568 L169.026 106.053 L169.248 106.55 L169.47 107.058 L169.692 107.576 L169.913 108.102 L170.135 108.634 L170.357 109.172 L170.579 109.714 L170.8 110.258 L171.022 110.804 L171.244 111.35 L171.466 111.895 L171.688 112.437 L171.909 112.976 L172.131 113.51 L172.353 114.038 L172.575 114.56 L172.796 115.074 L173.018 115.58 L173.24 116.076 L173.462 116.563 L173.684 117.038 L173.905 117.502 L174.127 117.955 L174.349 118.395 L174.571 118.822 L174.792 119.236 L175.014 119.636 L175.236 120.023 L175.458 120.396 L175.679 120.755 L175.901 121.099 L176.123 121.43 L176.345 121.747 L176.567 122.05 L176.788 122.339 L177.01 122.614 L177.232 122.876 L177.454 123.125 L177.675 123.361 L177.897 123.584 L178.119 123.795 L178.341 123.994 L178.563 124.182 L178.784 124.358 L179.006 124.524 L179.228 124.679 L179.45 124.825 L179.671 124.961 L179.893 125.088 L180.115 125.206 L180.337 125.316 L180.558 125.418 L180.78 125.512 L181.002 125.6 L181.224 125.681 L181.446 125.755 L181.667 125.824 L181.889 125.888 L182.111 125.946 L182.333 125.999 L182.554 126.048 L182.776 126.092 L182.998 126.133 L183.22 126.17 L183.442 126.204 L183.663 126.235 L183.885 126.263 L184.107 126.288 L184.329 126.311 L184.55 126.331 L184.55 126.669 L184.329 126.689 L184.107 126.712 L183.885 126.737 L183.663 126.765 L183.442 126.796 L183.22 126.83 L182.998 126.867 L182.776 126.908 L182.554 126.952 L182.333 127.001 L182.111 127.054 L181.889 127.112 L181.667 127.176 L181.446 127.245 L181.224 127.319 L181.002 127.4 L180.78 127.488 L180.558 127.582 L180.337 127.684 L180.115 127.794 L179.893 127.912 L179.671 128.039 L179.45 128.175 L179.228 128.321 L179.006 128.476 L178.784 128.642 L178.563 128.818 L178.341 129.006 L178.119 129.205 L177.897 129.416 L177.675 129.639 L177.454 129.875 L177.232 130.124 L177.01 130.386 L176.788 130.661 L176.567 130.95 L176.345 131.253 L176.123 131.57 L175.901 131.901 L175.679 132.245 L175.458 132.604 L175.236 132.977 L175.014 133.364 L174.792 133.764 L174.571 134.178 L174.349 134.605 L174.127 135.045 L173.905 135.498 L173.684 135.962 L173.462 136.437 L173.24 136.924 L173.018 137.42 L172.796 137.926 L172.575 138.44 L172.353 138.962 L172.131 139.49 L171.909 140.024 L171.688 140.563 L171.466 141.105 L171.244 141.65 L171.022 142.196 L170.8 142.742 L170.579 143.286 L170.357 143.828 L170.135 144.366 L169.913 144.898 L169.692 145.424 L169.47 145.942 L169.248 146.45 L169.026 146.947 L168.805 147.432 L168.583 147.904 L168.361 148.36 L168.139 148.801 L167.917 149.223 L167.696 149.627 L167.474 150.011 L167.252 150.374 L167.03 150.715 L166.809 151.033 L166.587 151.326 L166.365 151.594 L166.143 151.837 L165.921 152.053 L165.7 152.241 L165.478 152.402 L165.256 152.535 L165.034 152.64 L164.813 152.715 L164.591 152.762 L164.369 152.78 L164.147 152.769 L163.926 152.729 L163.704 152.661 L163.482 152.565 L163.26 152.442 L163.038 152.291 L162.817 152.114 L162.595 151.912 L162.373 151.685 L162.151 151.434 L161.93 151.161 L161.708 150.866 L161.486 150.551 L161.264 150.217 L161.043 149.866 L160.821 149.498 L160.599 149.116 L160.377 148.721 L160.155 148.314 L159.934 147.897 L159.712 147.472 L159.49 147.041 L159.268 146.604 L159.047 146.164 L158.825 145.723 L158.603 145.282 L158.381 144.843 L158.159 144.407 L157.938 143.977 L157.716 143.553 L157.494 143.138 L157.272 142.732 L157.051 142.337 L156.829 141.955 L156.607 141.587 L156.385 141.234 L156.164 140.897 L155.942 140.578 L155.72 140.277 L155.498 139.994 L155.276 139.732 L155.055 139.49 L154.833 139.269 L154.611 139.069 L154.389 138.892 L154.168 138.735 L153.946 138.601 L153.724 138.489 L153.502 138.399 L153.28 138.33 L153.059 138.282 L152.837 138.255 L152.615 138.248 L152.393 138.26 L152.172 138.29 L151.95 138.338 L151.728 138.402 L151.506 138.482 L151.285 138.576 L151.063 138.683 L150.841 138.802 L150.619 138.931 L150.397 139.069 L150.176 139.214 L149.954 139.366 L149.732 139.521 L149.51 139.68 L149.289 139.84 L149.067 140 L148.845 140.158 L148.623 140.313 L148.401 140.463 L148.18 140.608 L147.958 140.744 L147.736 140.872 L147.514 140.99 L147.293 141.097 L147.071 141.191 L146.849 141.272 L146.627 141.338 L146.406 141.389 L146.184 141.425 L145.962 141.443 L145.74 141.444 L145.518 141.428 L145.297 141.393 L145.075 141.341 L144.853 141.269 L144.631 141.18 L144.41 141.072 L144.188 140.946 L143.966 140.802 L143.744 140.64 L143.522 140.462 L143.301 140.267 L143.079 140.056 L142.857 139.829 L142.635 139.589 L142.414 139.335 L142.192 139.068 L141.97 138.789 L141.748 138.5 L141.527 138.2 L141.305 137.892 L141.083 137.577 L140.861 137.254 L140.639 136.927 L140.418 136.594 L140.196 136.259 L139.974 135.92 L139.752 135.581 L139.531 135.241 L139.309 134.902 L139.087 134.564 L138.865 134.228 L138.644 133.896 L138.422 133.568 L138.2 133.245 L137.978 132.927 L137.756 132.615 L137.535 132.31 L137.313 132.012 L137.091 131.722 L136.869 131.44 L136.648 131.166 L136.426 130.901 L136.204 130.645 L135.982 130.399 L135.76 130.161 L135.539 129.933 L135.317 129.715 L135.095 129.506 L134.873 129.307 L134.652 129.117 L134.43 128.936 L134.208 128.765 L133.986 128.602 L133.765 128.448 L133.543 128.303 L133.321 128.167 L133.099 128.038 L132.877 127.917 L132.656 127.804 L132.434 127.698 L132.212 127.599 L131.99 127.507 L131.769 127.421 L131.547 127.342 L131.325 127.268 L131.103 127.199 L130.881 127.136 L130.66 127.078 L130.438 127.024 L130.216 126.974 L129.994 126.929 L129.773 126.887 L129.551 126.849 L129.329 126.814 L129.107 126.783 L128.886 126.754 L128.664 126.727 L128.442 126.704 L128.22 126.682 L127.998 126.662 Z" fill="#FF800E" opacity="0.5" />
    <line x1="153.563" y1="114.577" x2="153.563" y2="138.423" stroke="#333333" stroke-width="1" opacity="1" />
    <line x1="161.698" y1="102.148" x2="161.698" y2="150.852" stroke="#333333" stroke-width="1" opacity="1" />
    <line x1="164.41" y1="100.223" x2="164.41" y2="152.777" stroke="#333333" stroke-width="1" opacity="1" />
  </g>
  <g class="algraf-layer algraf-geom-boxplot">
    <line x1="210.512" y1="199.5" x2="264.75" y2="199.5" stroke="#000000" stroke-width="1.2" opacity="0.9" />
    <line x1="210.512" y1="199.3" x2="210.512" y2="199.7" stroke="#000000" stroke-width="1.2" opacity="0.9" />
    <line x1="264.75" y1="199.3" x2="264.75" y2="199.7" stroke="#000000" stroke-width="1.2" opacity="0.9" />
    <rect x="226.783" y="199" width="27.119" height="1" fill="#ffffff" stroke="#000000" stroke-width="1.2" opacity="0.9" />
    <line x1="243.055" y1="199" x2="243.055" y2="200" stroke="#000000" stroke-width="1.2" opacity="0.9" />
    <line x1="145.427" y1="126.5" x2="167.122" y2="126.5" stroke="#000000" stroke-width="1.2" opacity="0.9" />
    <line x1="145.427" y1="126.3" x2="145.427" y2="126.7" stroke="#000000" stroke-width="1.2" opacity="0.9" />
    <line x1="167.122" y1="126.3" x2="167.122" y2="126.7" stroke="#000000" stroke-width="1.2" opacity="0.9" />
    <rect x="153.563" y="126" width="10.848" height="1" fill="#ffffff" stroke="#000000" stroke-width="1.2" opacity="0.9" />
    <line x1="161.698" y1="126" x2="161.698" y2="127" stroke="#000000" stroke-width="1.2" opacity="0.9" />
  </g>
</g>
<defs>
<clipPath id="algraf-clip-1"><rect x="432.2" y="90" width="277.8" height="146" /></clipPath>
</defs>
<g clip-path="url(#algraf-clip-1)">
  <g class="algraf-layer algraf-geom-violin">
    <path d="M577.56 199.324 L577.892 199.302 L578.225 199.279 L578.558 199.253 L578.89 199.224 L579.223 199.193 L579.555 199.159 L579.888 199.121 L580.221 199.079 L580.553 199.034 L580.886 198.985 L581.219 198.931 L581.551 198.873 L581.884 198.809 L582.217 198.74 L582.549 198.666 L582.882 198.586 L583.215 198.499 L583.547 198.406 L583.88 198.306 L584.213 198.198 L584.545 198.083 L584.878 197.96 L585.211 197.829 L585.543 197.69 L585.876 197.541 L586.209 197.383 L586.541 197.216 L586.874 197.04 L587.207 196.853 L587.539 196.657 L587.872 196.451 L588.205 196.234 L588.537 196.007 L588.87 195.769 L589.203 195.522 L589.535 195.263 L589.868 194.995 L590.201 194.717 L590.533 194.428 L590.866 194.131 L591.199 193.824 L591.531 193.508 L591.864 193.183 L592.197 192.851 L592.529 192.511 L592.862 192.164 L593.194 191.812 L593.527 191.453 L593.86 191.091 L594.192 190.724 L594.525 190.355 L594.858 189.984 L595.19 189.611 L595.523 189.239 L595.856 188.868 L596.188 188.499 L596.521 188.133 L596.854 187.771 L597.186 187.415 L597.519 187.066 L597.852 186.724 L598.184 186.39 L598.517 186.067 L598.85 185.754 L599.182 185.453 L599.515 185.165 L599.848 184.89 L600.18 184.63 L600.513 184.385 L600.846 184.156 L601.178 183.943 L601.511 183.747 L601.844 183.569 L602.176 183.408 L602.509 183.265 L602.842 183.14 L603.174 183.033 L603.507 182.943 L603.84 182.872 L604.172 182.817 L604.505 182.78 L604.838 182.758 L605.17 182.753 L605.503 182.762 L605.836 182.785 L606.168 182.821 L606.501 182.869 L606.833 182.927 L607.166 182.996 L607.499 183.072 L607.831 183.156 L608.164 183.245 L608.497 183.339 L608.829 183.435 L609.162 183.533 L609.495 183.631 L609.827 183.727 L610.16 183.82 L610.493 183.908 L610.825 183.991 L611.158 184.066 L611.491 184.133 L611.823 184.19 L612.156 184.236 L612.489 184.27 L612.821 184.291 L613.154 184.298 L613.487 184.29 L613.819 184.267 L614.152 184.227 L614.485 184.171 L614.817 184.098 L615.15 184.007 L615.483 183.899 L615.815 183.773 L616.148 183.63 L616.481 183.47 L616.813 183.292 L617.146 183.098 L617.479 182.888 L617.811 182.662 L618.144 182.421 L618.477 182.166 L618.809 181.899 L619.142 181.618 L619.474 181.327 L619.807 181.025 L620.14 180.715 L620.472 180.396 L620.805 180.071 L621.138 179.741 L621.47 179.406 L621.803 179.069 L622.136 178.73 L622.468 178.391 L622.801 178.053 L623.134 177.718 L623.466 177.386 L623.799 177.06 L624.132 176.74 L624.464 176.427 L624.797 176.123 L625.13 175.829 L625.462 175.546 L625.795 175.275 L626.128 175.017 L626.46 174.774 L626.793 174.545 L627.126 174.331 L627.458 174.135 L627.791 173.956 L628.124 173.795 L628.456 173.653 L628.789 173.53 L629.122 173.426 L629.454 173.343 L629.787 173.281 L630.12 173.24 L630.452 173.22 L630.785 173.222 L631.118 173.245 L631.45 173.29 L631.783 173.358 L632.116 173.447 L632.448 173.558 L632.781 173.691 L633.113 173.845 L633.446 174.021 L633.779 174.218 L634.111 174.436 L634.444 174.675 L634.777 174.933 L635.109 175.211 L635.442 175.509 L635.775 175.825 L636.107 176.159 L636.44 176.51 L636.773 176.877 L637.105 177.261 L637.438 177.659 L637.771 178.072 L638.103 178.498 L638.436 178.937 L638.769 179.387 L639.101 179.847 L639.434 180.317 L639.767 180.796 L640.099 181.282 L640.432 181.775 L640.765 182.273 L641.097 182.776 L641.43 183.282 L641.763 183.79 L642.095 184.3 L642.428 184.81 L642.761 185.319 L643.093 185.827 L643.426 186.331 L643.759 186.832 L644.091 187.329 L644.424 187.82 L644.757 188.305 L645.089 188.783 L645.422 189.252 L645.755 189.714 L646.087 190.166 L646.42 190.609 L646.752 191.041 L647.085 191.462 L647.418 191.872 L647.75 192.271 L648.083 192.657 L648.416 193.031 L648.748 193.393 L649.081 193.742 L649.414 194.078 L649.746 194.401 L650.079 194.712 L650.412 195.009 L650.744 195.294 L651.077 195.565 L651.41 195.825 L651.742 196.071 L652.075 196.306 L652.408 196.528 L652.74 196.739 L653.073 196.938 L653.406 197.127 L653.738 197.304 L654.071 197.471 L654.404 197.628 L654.736 197.775 L655.069 197.913 L655.402 198.041 L655.734 198.162 L656.067 198.274 L656.4 198.378 L656.732 198.475 L657.065 198.564 L657.398 198.647 L657.73 198.724 L658.063 198.795 L658.396 198.86 L658.728 198.92 L659.061 198.976 L659.394 199.026 L659.726 199.073 L660.059 199.115 L660.391 199.154 L660.724 199.189 L661.057 199.221 L661.389 199.25 L661.722 199.276 L662.055 199.3 L662.387 199.322 L662.387 199.678 L662.055 199.7 L661.722 199.724 L661.389 199.75 L661.057 199.779 L660.724 199.811 L660.391 199.846 L660.059 199.885 L659.726 199.927 L659.394 199.974 L659.061 200.024 L658.728 200.08 L658.396 200.14 L658.063 200.205 L657.73 200.276 L657.398 200.353 L657.065 200.436 L656.732 200.525 L656.4 200.622 L656.067 200.726 L655.734 200.838 L655.402 200.959 L655.069 201.087 L654.736 201.225 L654.404 201.372 L654.071 201.529 L653.738 201.696 L653.406 201.873 L653.073 202.062 L652.74 202.261 L652.408 202.472 L652.075 202.694 L651.742 202.929 L651.41 203.175 L651.077 203.435 L650.744 203.706 L650.412 203.991 L650.079 204.288 L649.746 204.599 L649.414 204.922 L649.081 205.258 L648.748 205.607 L648.416 205.969 L648.083 206.343 L647.75 206.729 L647.418 207.128 L647.085 207.538 L646.752 207.959 L646.42 208.391 L646.087 208.834 L645.755 209.286 L645.422 209.748 L645.089 210.217 L644.757 210.695 L644.424 211.18 L644.091 211.671 L643.759 212.168 L643.426 212.669 L643.093 213.173 L642.761 213.681 L642.428 214.19 L642.095 214.7 L641.763 215.21 L641.43 215.718 L641.097 216.224 L640.765 216.727 L640.432 217.225 L640.099 217.718 L639.767 218.204 L639.434 218.683 L639.101 219.153 L638.769 219.613 L638.436 220.063 L638.103 220.502 L637.771 220.928 L637.438 221.341 L637.105 221.739 L636.773 222.123 L636.44 222.49 L636.107 222.841 L635.775 223.175 L635.442 223.491 L635.109 223.789 L634.777 224.067 L634.444 224.325 L634.111 224.564 L633.779 224.782 L633.446 224.979 L633.113 225.155 L632.781 225.309 L632.448 225.442 L632.116 225.553 L631.783 225.642 L631.45 225.71 L631.118 225.755 L630.785 225.778 L630.452 225.78 L630.12 225.76 L629.787 225.719 L629.454 225.657 L629.122 225.574 L628.789 225.47 L628.456 225.347 L628.124 225.205 L627.791 225.044 L627.458 224.865 L627.126 224.669 L626.793 224.455 L626.46 224.226 L626.128 223.983 L625.795 223.725 L625.462 223.454 L625.13 223.171 L624.797 222.877 L624.464 222.573 L624.132 222.26 L623.799 221.94 L623.466 221.614 L623.134 221.282 L622.801 220.947 L622.468 220.609 L622.136 220.27 L621.803 219.931 L621.47 219.594 L621.138 219.259 L620.805 218.929 L620.472 218.604 L620.14 218.285 L619.807 217.975 L619.474 217.673 L619.142 217.382 L618.809 217.101 L618.477 216.834 L618.144 216.579 L617.811 216.338 L617.479 216.112 L617.146 215.902 L616.813 215.708 L616.481 215.53 L616.148 215.37 L615.815 215.227 L615.483 215.101 L615.15 214.993 L614.817 214.902 L614.485 214.829 L614.152 214.773 L613.819 214.733 L613.487 214.71 L613.154 214.702 L612.821 214.709 L612.489 214.73 L612.156 214.764 L611.823 214.81 L611.491 214.867 L611.158 214.934 L610.825 215.009 L610.493 215.092 L610.16 215.18 L609.827 215.273 L609.495 215.369 L609.162 215.467 L608.829 215.565 L608.497 215.661 L608.164 215.755 L607.831 215.844 L607.499 215.928 L607.166 216.004 L606.833 216.073 L606.501 216.131 L606.168 216.179 L605.836 216.215 L605.503 216.238 L605.17 216.247 L604.838 216.242 L604.505 216.22 L604.172 216.183 L603.84 216.128 L603.507 216.057 L603.174 215.967 L602.842 215.86 L602.509 215.735 L602.176 215.592 L601.844 215.431 L601.511 215.253 L601.178 215.057 L600.846 214.844 L600.513 214.615 L600.18 214.37 L599.848 214.11 L599.515 213.835 L599.182 213.547 L598.85 213.246 L598.517 212.933 L598.184 212.61 L597.852 212.276 L597.519 211.934 L597.186 211.585 L596.854 211.229 L596.521 210.867 L596.188 210.501 L595.856 210.132 L595.523 209.761 L595.19 209.389 L594.858 209.016 L594.525 208.645 L594.192 208.276 L593.86 207.909 L593.527 207.547 L593.194 207.188 L592.862 206.836 L592.529 206.489 L592.197 206.149 L591.864 205.817 L591.531 205.492 L591.199 205.176 L590.866 204.869 L590.533 204.572 L590.201 204.283 L589.868 204.005 L589.535 203.737 L589.203 203.478 L588.87 203.231 L588.537 202.993 L588.205 202.766 L587.872 202.549 L587.539 202.343 L587.207 202.147 L586.874 201.96 L586.541 201.784 L586.209 201.617 L585.876 201.459 L585.543 201.31 L585.211 201.171 L584.878 201.04 L584.545 200.917 L584.213 200.802 L583.88 200.694 L583.547 200.594 L583.215 200.501 L582.882 200.414 L582.549 200.334 L582.217 200.26 L581.884 200.191 L581.551 200.127 L581.219 200.069 L580.886 200.015 L580.553 199.966 L580.221 199.921 L579.888 199.879 L579.555 199.841 L579.223 199.807 L578.89 199.776 L578.558 199.747 L578.225 199.721 L577.892 199.698 L577.56 199.676 Z" fill="#006BA4" opacity="0.5" />
    <line x1="614.55" y1="184.157" x2="614.55" y2="214.843" stroke="#333333" stroke-width="1" opacity="1" />
    <line x1="625.397" y1="175.602" x2="625.397" y2="223.398" stroke="#333333" stroke-width="1" opacity="1" />
    <line x1="630.821" y1="173.224" x2="630.821" y2="225.776" stroke="#333333" stroke-width="1" opacity="1" />
    <path d="M512.474 126.322 L512.807 126.3 L513.14 126.276 L513.472 126.25 L513.805 126.221 L514.138 126.189 L514.47 126.154 L514.803 126.115 L515.136 126.073 L515.468 126.026 L515.801 125.976 L516.134 125.92 L516.466 125.86 L516.799 125.795 L517.132 125.724 L517.464 125.647 L517.797 125.564 L518.13 125.475 L518.462 125.378 L518.795 125.274 L519.128 125.162 L519.46 125.041 L519.793 124.913 L520.125 124.775 L520.458 124.628 L520.791 124.471 L521.123 124.304 L521.456 124.127 L521.789 123.938 L522.121 123.739 L522.454 123.528 L522.787 123.306 L523.119 123.071 L523.452 122.825 L523.785 122.565 L524.117 122.294 L524.45 122.009 L524.783 121.712 L525.115 121.401 L525.448 121.078 L525.781 120.742 L526.113 120.393 L526.446 120.031 L526.779 119.657 L527.111 119.271 L527.444 118.872 L527.777 118.462 L528.109 118.041 L528.442 117.609 L528.775 117.166 L529.107 116.714 L529.44 116.252 L529.773 115.783 L530.105 115.305 L530.438 114.82 L530.771 114.329 L531.103 113.832 L531.436 113.331 L531.769 112.827 L532.101 112.319 L532.434 111.81 L532.767 111.3 L533.099 110.79 L533.432 110.282 L533.764 109.776 L534.097 109.273 L534.43 108.775 L534.762 108.282 L535.095 107.796 L535.428 107.317 L535.76 106.847 L536.093 106.387 L536.426 105.937 L536.758 105.498 L537.091 105.072 L537.424 104.659 L537.756 104.261 L538.089 103.877 L538.422 103.51 L538.754 103.159 L539.087 102.825 L539.42 102.509 L539.752 102.211 L540.085 101.933 L540.418 101.675 L540.75 101.436 L541.083 101.218 L541.416 101.021 L541.748 100.845 L542.081 100.691 L542.414 100.558 L542.746 100.447 L543.079 100.358 L543.412 100.29 L543.744 100.245 L544.077 100.222 L544.41 100.22 L544.742 100.24 L545.075 100.281 L545.408 100.343 L545.74 100.426 L546.073 100.53 L546.406 100.653 L546.738 100.795 L547.071 100.956 L547.403 101.135 L547.736 101.331 L548.069 101.545 L548.401 101.774 L548.734 102.017 L549.067 102.275 L549.399 102.546 L549.732 102.829 L550.065 103.123 L550.397 103.427 L550.73 103.74 L551.063 104.06 L551.395 104.386 L551.728 104.718 L552.061 105.053 L552.393 105.391 L552.726 105.73 L553.059 106.069 L553.391 106.406 L553.724 106.741 L554.057 107.071 L554.389 107.396 L554.722 107.715 L555.055 108.025 L555.387 108.327 L555.72 108.618 L556.053 108.899 L556.385 109.166 L556.718 109.421 L557.051 109.662 L557.383 109.888 L557.716 110.098 L558.049 110.292 L558.381 110.47 L558.714 110.63 L559.047 110.773 L559.379 110.899 L559.712 111.007 L560.045 111.098 L560.377 111.171 L560.71 111.227 L561.042 111.267 L561.375 111.29 L561.708 111.298 L562.04 111.291 L562.373 111.27 L562.706 111.236 L563.038 111.19 L563.371 111.133 L563.704 111.066 L564.036 110.991 L564.369 110.908 L564.702 110.82 L565.034 110.727 L565.367 110.631 L565.7 110.533 L566.032 110.435 L566.365 110.339 L566.698 110.245 L567.03 110.156 L567.363 110.072 L567.696 109.996 L568.028 109.927 L568.361 109.869 L568.694 109.821 L569.026 109.785 L569.359 109.762 L569.692 109.753 L570.024 109.758 L570.357 109.78 L570.69 109.817 L571.022 109.872 L571.355 109.943 L571.688 110.033 L572.02 110.14 L572.353 110.265 L572.686 110.408 L573.018 110.569 L573.351 110.747 L573.684 110.943 L574.016 111.156 L574.349 111.385 L574.681 111.63 L575.014 111.89 L575.347 112.165 L575.679 112.453 L576.012 112.754 L576.345 113.067 L576.677 113.39 L577.01 113.724 L577.343 114.066 L577.675 114.415 L578.008 114.771 L578.341 115.133 L578.673 115.499 L579.006 115.868 L579.339 116.239 L579.671 116.611 L580.004 116.984 L580.337 117.355 L580.669 117.724 L581.002 118.091 L581.335 118.453 L581.667 118.812 L582 119.164 L582.333 119.511 L582.665 119.851 L582.998 120.183 L583.331 120.508 L583.663 120.824 L583.996 121.131 L584.329 121.428 L584.661 121.717 L584.994 121.995 L585.327 122.263 L585.659 122.522 L585.992 122.769 L586.325 123.007 L586.657 123.234 L586.99 123.451 L587.322 123.657 L587.655 123.853 L587.988 124.04 L588.32 124.216 L588.653 124.383 L588.986 124.541 L589.318 124.69 L589.651 124.829 L589.984 124.96 L590.316 125.083 L590.649 125.198 L590.982 125.306 L591.314 125.406 L591.647 125.499 L591.98 125.586 L592.312 125.666 L592.645 125.74 L592.978 125.809 L593.31 125.873 L593.643 125.931 L593.976 125.985 L594.308 126.034 L594.641 126.079 L594.974 126.121 L595.306 126.159 L595.639 126.193 L595.972 126.224 L596.304 126.253 L596.637 126.279 L596.97 126.302 L597.302 126.324 L597.302 126.676 L596.97 126.698 L596.637 126.721 L596.304 126.747 L595.972 126.776 L595.639 126.807 L595.306 126.841 L594.974 126.879 L594.641 126.921 L594.308 126.966 L593.976 127.015 L593.643 127.069 L593.31 127.127 L592.978 127.191 L592.645 127.26 L592.312 127.334 L591.98 127.414 L591.647 127.501 L591.314 127.594 L590.982 127.694 L590.649 127.802 L590.316 127.917 L589.984 128.04 L589.651 128.171 L589.318 128.31 L588.986 128.459 L588.653 128.617 L588.32 128.784 L587.988 128.96 L587.655 129.147 L587.322 129.343 L586.99 129.549 L586.657 129.766 L586.325 129.993 L585.992 130.231 L585.659 130.478 L585.327 130.737 L584.994 131.005 L584.661 131.283 L584.329 131.572 L583.996 131.869 L583.663 132.176 L583.331 132.492 L582.998 132.817 L582.665 133.149 L582.333 133.489 L582 133.836 L581.667 134.188 L581.335 134.547 L581.002 134.909 L580.669 135.276 L580.337 135.645 L580.004 136.016 L579.671 136.389 L579.339 136.761 L579.006 137.132 L578.673 137.501 L578.341 137.867 L578.008 138.229 L577.675 138.585 L577.343 138.934 L577.01 139.276 L576.677 139.61 L576.345 139.933 L576.012 140.246 L575.679 140.547 L575.347 140.835 L575.014 141.11 L574.681 141.37 L574.349 141.615 L574.016 141.844 L573.684 142.057 L573.351 142.253 L573.018 142.431 L572.686 142.592 L572.353 142.735 L572.02 142.86 L571.688 142.967 L571.355 143.057 L571.022 143.128 L570.69 143.183 L570.357 143.22 L570.024 143.242 L569.692 143.247 L569.359 143.238 L569.026 143.215 L568.694 143.179 L568.361 143.131 L568.028 143.073 L567.696 143.004 L567.363 142.928 L567.03 142.844 L566.698 142.755 L566.365 142.661 L566.032 142.565 L565.7 142.467 L565.367 142.369 L565.034 142.273 L564.702 142.18 L564.369 142.092 L564.036 142.009 L563.704 141.934 L563.371 141.867 L563.038 141.81 L562.706 141.764 L562.373 141.73 L562.04 141.709 L561.708 141.702 L561.375 141.71 L561.042 141.733 L560.71 141.773 L560.377 141.829 L560.045 141.902 L559.712 141.993 L559.379 142.101 L559.047 142.227 L558.714 142.37 L558.381 142.53 L558.049 142.708 L557.716 142.902 L557.383 143.112 L557.051 143.338 L556.718 143.579 L556.385 143.834 L556.053 144.101 L555.72 144.382 L555.387 144.673 L555.055 144.975 L554.722 145.285 L554.389 145.604 L554.057 145.929 L553.724 146.259 L553.391 146.594 L553.059 146.931 L552.726 147.27 L552.393 147.609 L552.061 147.947 L551.728 148.282 L551.395 148.614 L551.063 148.94 L550.73 149.26 L550.397 149.573 L550.065 149.877 L549.732 150.171 L549.399 150.454 L549.067 150.725 L548.734 150.983 L548.401 151.226 L548.069 151.455 L547.736 151.669 L547.403 151.865 L547.071 152.044 L546.738 152.205 L546.406 152.347 L546.073 152.47 L545.74 152.574 L545.408 152.657 L545.075 152.719 L544.742 152.76 L544.41 152.78 L544.077 152.778 L543.744 152.755 L543.412 152.71 L543.079 152.642 L542.746 152.553 L542.414 152.442 L542.081 152.309 L541.748 152.155 L541.416 151.979 L541.083 151.782 L540.75 151.564 L540.418 151.325 L540.085 151.067 L539.752 150.789 L539.42 150.491 L539.087 150.175 L538.754 149.841 L538.422 149.49 L538.089 149.123 L537.756 148.739 L537.424 148.341 L537.091 147.928 L536.758 147.502 L536.426 147.063 L536.093 146.613 L535.76 146.153 L535.428 145.683 L535.095 145.204 L534.762 144.718 L534.43 144.225 L534.097 143.727 L533.764 143.224 L533.432 142.718 L533.099 142.21 L532.767 141.7 L532.434 141.19 L532.101 140.681 L531.769 140.173 L531.436 139.669 L531.103 139.168 L530.771 138.671 L530.438 138.18 L530.105 137.695 L529.773 137.217 L529.44 136.748 L529.107 136.286 L528.775 135.834 L528.442 135.391 L528.109 134.959 L527.777 134.538 L527.444 134.128 L527.111 133.729 L526.779 133.343 L526.446 132.969 L526.113 132.607 L525.781 132.258 L525.448 131.922 L525.115 131.599 L524.783 131.288 L524.45 130.991 L524.117 130.706 L523.785 130.435 L523.452 130.175 L523.119 129.929 L522.787 129.694 L522.454 129.472 L522.121 129.261 L521.789 129.062 L521.456 128.873 L521.123 128.696 L520.791 128.529 L520.458 128.372 L520.125 128.225 L519.793 128.087 L519.46 127.959 L519.128 127.838 L518.795 127.726 L518.462 127.622 L518.13 127.525 L517.797 127.436 L517.464 127.353 L517.132 127.276 L516.799 127.205 L516.466 127.14 L516.134 127.08 L515.801 127.024 L515.468 126.974 L515.136 126.927 L514.803 126.885 L514.47 126.846 L514.138 126.811 L513.805 126.779 L513.472 126.75 L513.14 126.724 L512.807 126.7 L512.474 126.678 Z" fill="#FF800E" opacity="0.5" />
    <line x1="544.041" y1="100.224" x2="544.041" y2="152.776" stroke="#333333" stroke-width="1" opacity="1" />
    <line x1="549.465" y1="102.602" x2="549.465" y2="150.398" stroke="#333333" stroke-width="1" opacity="1" />
    <line x1="560.312" y1="111.157" x2="560.312" y2="141.843" stroke="#333333" stroke-width="1" opacity="1" />
  </g>
  <g class="algraf-layer algraf-geom-boxplot">
    <line x1="603.702" y1="199.5" x2="636.245" y2="199.5" stroke="#000000" stroke-width="1.2" opacity="0.9" />
    <line x1="603.702" y1="199.3" x2="603.702" y2="199.7" stroke="#000000" stroke-width="1.2" opacity="0.9" />
    <line x1="636.245" y1="199.3" x2="636.245" y2="199.7" stroke="#000000" stroke-width="1.2" opacity="0.9" />
    <rect x="614.55" y="199" width="16.271" height="1" fill="#ffffff" stroke="#000000" stroke-width="1.2" opacity="0.9" />
    <line x1="625.397" y1="199" x2="625.397" y2="200" stroke="#000000" stroke-width="1.2" opacity="0.9" />
    <line x1="538.617" y1="126.5" x2="571.16" y2="126.5" stroke="#000000" stroke-width="1.2" opacity="0.9" />
    <line x1="538.617" y1="126.3" x2="538.617" y2="126.7" stroke="#000000" stroke-width="1.2" opacity="0.9" />
    <line x1="571.16" y1="126.3" x2="571.16" y2="126.7" stroke="#000000" stroke-width="1.2" opacity="0.9" />
    <rect x="544.041" y="126" width="16.271" height="1" fill="#ffffff" stroke="#000000" stroke-width="1.2" opacity="0.9" />
    <line x1="549.465" y1="126" x2="549.465" y2="127" stroke="#000000" stroke-width="1.2" opacity="0.9" />
  </g>
</g>
<defs>
<clipPath id="algraf-clip-2"><rect x="82.4" y="324" width="277.8" height="146" /></clipPath>
</defs>
<g clip-path="url(#algraf-clip-2)">
  <g class="algraf-layer algraf-geom-violin">
    <path d="M160.541 433.284 L160.763 433.257 L160.985 433.229 L161.206 433.197 L161.428 433.162 L161.65 433.123 L161.872 433.081 L162.093 433.034 L162.315 432.983 L162.537 432.928 L162.759 432.867 L162.981 432.801 L163.202 432.729 L163.424 432.651 L163.646 432.567 L163.868 432.475 L164.089 432.376 L164.311 432.27 L164.533 432.155 L164.755 432.032 L164.976 431.899 L165.198 431.758 L165.42 431.606 L165.642 431.444 L165.864 431.272 L166.085 431.088 L166.307 430.894 L166.529 430.687 L166.751 430.469 L166.972 430.238 L167.194 429.995 L167.416 429.739 L167.638 429.47 L167.86 429.188 L168.081 428.893 L168.303 428.585 L168.525 428.263 L168.747 427.929 L168.968 427.581 L169.19 427.221 L169.412 426.847 L169.634 426.462 L169.855 426.065 L170.077 425.656 L170.299 425.236 L170.521 424.806 L170.743 424.366 L170.964 423.916 L171.186 423.459 L171.408 422.994 L171.63 422.522 L171.851 422.044 L172.073 421.562 L172.295 421.076 L172.517 420.587 L172.739 420.097 L172.96 419.606 L173.182 419.115 L173.404 418.627 L173.626 418.141 L173.847 417.659 L174.069 417.183 L174.291 416.712 L174.513 416.249 L174.734 415.794 L174.956 415.349 L175.178 414.914 L175.4 414.49 L175.622 414.079 L175.843 413.68 L176.065 413.295 L176.287 412.924 L176.509 412.567 L176.73 412.226 L176.952 411.9 L177.174 411.589 L177.396 411.295 L177.617 411.017 L177.839 410.754 L178.061 410.507 L178.283 410.276 L178.505 410.06 L178.726 409.859 L178.948 409.673 L179.17 409.5 L179.392 409.341 L179.613 409.195 L179.835 409.06 L180.057 408.937 L180.279 408.825 L180.501 408.722 L180.722 408.629 L180.944 408.543 L181.166 408.465 L181.388 408.394 L181.609 408.328 L181.831 408.268 L182.053 408.212 L182.275 408.159 L182.496 408.11 L182.718 408.064 L182.94 408.019 L183.162 407.976 L183.384 407.934 L183.605 407.894 L183.827 407.853 L184.049 407.814 L184.271 407.774 L184.492 407.735 L184.714 407.696 L184.936 407.657 L185.158 407.618 L185.38 407.58 L185.601 407.543 L185.823 407.506 L186.045 407.471 L186.267 407.436 L186.488 407.404 L186.71 407.373 L186.932 407.344 L187.154 407.318 L187.375 407.294 L187.597 407.274 L187.819 407.256 L188.041 407.242 L188.263 407.231 L188.484 407.224 L188.706 407.22 L188.928 407.22 L189.15 407.224 L189.371 407.231 L189.593 407.242 L189.815 407.256 L190.037 407.274 L190.259 407.294 L190.48 407.318 L190.702 407.344 L190.924 407.373 L191.146 407.404 L191.367 407.436 L191.589 407.471 L191.811 407.506 L192.033 407.543 L192.254 407.58 L192.476 407.618 L192.698 407.657 L192.92 407.696 L193.142 407.735 L193.363 407.774 L193.585 407.814 L193.807 407.853 L194.029 407.894 L194.25 407.934 L194.472 407.976 L194.694 408.019 L194.916 408.064 L195.138 408.11 L195.359 408.159 L195.581 408.212 L195.803 408.268 L196.025 408.328 L196.246 408.394 L196.468 408.465 L196.69 408.543 L196.912 408.629 L197.133 408.722 L197.355 408.825 L197.577 408.937 L197.799 409.06 L198.021 409.195 L198.242 409.341 L198.464 409.5 L198.686 409.673 L198.908 409.859 L199.129 410.06 L199.351 410.276 L199.573 410.507 L199.795 410.754 L200.017 411.017 L200.238 411.295 L200.46 411.589 L200.682 411.9 L200.904 412.226 L201.125 412.567 L201.347 412.924 L201.569 413.295 L201.791 413.68 L202.012 414.079 L202.234 414.49 L202.456 414.914 L202.678 415.349 L202.9 415.794 L203.121 416.249 L203.343 416.712 L203.565 417.183 L203.787 417.659 L204.008 418.141 L204.23 418.627 L204.452 419.115 L204.674 419.606 L204.895 420.097 L205.117 420.587 L205.339 421.076 L205.561 421.562 L205.783 422.044 L206.004 422.522 L206.226 422.994 L206.448 423.459 L206.67 423.916 L206.891 424.366 L207.113 424.806 L207.335 425.236 L207.557 425.656 L207.779 426.065 L208 426.462 L208.222 426.847 L208.444 427.221 L208.666 427.581 L208.887 427.929 L209.109 428.263 L209.331 428.585 L209.553 428.893 L209.774 429.188 L209.996 429.47 L210.218 429.739 L210.44 429.995 L210.662 430.238 L210.883 430.469 L211.105 430.687 L211.327 430.894 L211.549 431.088 L211.77 431.272 L211.992 431.444 L212.214 431.606 L212.436 431.758 L212.658 431.899 L212.879 432.032 L213.101 432.155 L213.323 432.27 L213.545 432.376 L213.766 432.475 L213.988 432.567 L214.21 432.651 L214.432 432.729 L214.653 432.801 L214.875 432.867 L215.097 432.928 L215.319 432.983 L215.541 433.034 L215.762 433.081 L215.984 433.123 L216.206 433.162 L216.428 433.197 L216.649 433.229 L216.871 433.257 L217.093 433.284 L217.093 433.716 L216.871 433.743 L216.649 433.771 L216.428 433.803 L216.206 433.838 L215.984 433.877 L215.762 433.919 L215.541 433.966 L215.319 434.017 L215.097 434.072 L214.875 434.133 L214.653 434.199 L214.432 434.271 L214.21 434.349 L213.988 434.433 L213.766 434.525 L213.545 434.624 L213.323 434.73 L213.101 434.845 L212.879 434.968 L212.658 435.101 L212.436 435.242 L212.214 435.394 L211.992 435.556 L211.77 435.728 L211.549 435.912 L211.327 436.106 L211.105 436.313 L210.883 436.531 L210.662 436.762 L210.44 437.005 L210.218 437.261 L209.996 437.53 L209.774 437.812 L209.553 438.107 L209.331 438.415 L209.109 438.737 L208.887 439.071 L208.666 439.419 L208.444 439.779 L208.222 440.153 L208 440.538 L207.779 440.935 L207.557 441.344 L207.335 441.764 L207.113 442.194 L206.891 442.634 L206.67 443.084 L206.448 443.541 L206.226 444.006 L206.004 444.478 L205.783 444.956 L205.561 445.438 L205.339 445.924 L205.117 446.413 L204.895 446.903 L204.674 447.394 L204.452 447.885 L204.23 448.373 L204.008 448.859 L203.787 449.341 L203.565 449.817 L203.343 450.288 L203.121 450.751 L202.9 451.206 L202.678 451.651 L202.456 452.086 L202.234 452.51 L202.012 452.921 L201.791 453.32 L201.569 453.705 L201.347 454.076 L201.125 454.433 L200.904 454.774 L200.682 455.1 L200.46 455.411 L200.238 455.705 L200.017 455.983 L199.795 456.246 L199.573 456.493 L199.351 456.724 L199.129 456.94 L198.908 457.141 L198.686 457.327 L198.464 457.5 L198.242 457.659 L198.021 457.805 L197.799 457.94 L197.577 458.063 L197.355 458.175 L197.133 458.278 L196.912 458.371 L196.69 458.457 L196.468 458.535 L196.246 458.606 L196.025 458.672 L195.803 458.732 L195.581 458.788 L195.359 458.841 L195.138 458.89 L194.916 458.936 L194.694 458.981 L194.472 459.024 L194.25 459.066 L194.029 459.106 L193.807 459.147 L193.585 459.186 L193.363 459.226 L193.142 459.265 L192.92 459.304 L192.698 459.343 L192.476 459.382 L192.254 459.42 L192.033 459.457 L191.811 459.494 L191.589 459.529 L191.367 459.564 L191.146 459.596 L190.924 459.627 L190.702 459.656 L190.48 459.682 L190.259 459.706 L190.037 459.726 L189.815 459.744 L189.593 459.758 L189.371 459.769 L189.15 459.776 L188.928 459.78 L188.706 459.78 L188.484 459.776 L188.263 459.769 L188.041 459.758 L187.819 459.744 L187.597 459.726 L187.375 459.706 L187.154 459.682 L186.932 459.656 L186.71 459.627 L186.488 459.596 L186.267 459.564 L186.045 459.529 L185.823 459.494 L185.601 459.457 L185.38 459.42 L185.158 459.382 L184.936 459.343 L184.714 459.304 L184.492 459.265 L184.271 459.226 L184.049 459.186 L183.827 459.147 L183.605 459.106 L183.384 459.066 L183.162 459.024 L182.94 458.981 L182.718 458.936 L182.496 458.89 L182.275 458.841 L182.053 458.788 L181.831 458.732 L181.609 458.672 L181.388 458.606 L181.166 458.535 L180.944 458.457 L180.722 458.371 L180.501 458.278 L180.279 458.175 L180.057 458.063 L179.835 457.94 L179.613 457.805 L179.392 457.659 L179.17 457.5 L178.948 457.327 L178.726 457.141 L178.505 456.94 L178.283 456.724 L178.061 456.493 L177.839 456.246 L177.617 455.983 L177.396 455.705 L177.174 455.411 L176.952 455.1 L176.73 454.774 L176.509 454.433 L176.287 454.076 L176.065 453.705 L175.843 453.32 L175.622 452.921 L175.4 452.51 L175.178 452.086 L174.956 451.651 L174.734 451.206 L174.513 450.751 L174.291 450.288 L174.069 449.817 L173.847 449.341 L173.626 448.859 L173.404 448.373 L173.182 447.885 L172.96 447.394 L172.739 446.903 L172.517 446.413 L172.295 445.924 L172.073 445.438 L171.851 444.956 L171.63 444.478 L171.408 444.006 L171.186 443.541 L170.964 443.084 L170.743 442.634 L170.521 442.194 L170.299 441.764 L170.077 441.344 L169.855 440.935 L169.634 440.538 L169.412 440.153 L169.19 439.779 L168.968 439.419 L168.747 439.071 L168.525 438.737 L168.303 438.415 L168.081 438.107 L167.86 437.812 L167.638 437.53 L167.416 437.261 L167.194 437.005 L166.972 436.762 L166.751 436.531 L166.529 436.313 L166.307 436.106 L166.085 435.912 L165.864 435.728 L165.642 435.556 L165.42 435.394 L165.198 435.242 L164.976 435.101 L164.755 434.968 L164.533 434.845 L164.311 434.73 L164.089 434.624 L163.868 434.525 L163.646 434.433 L163.424 434.349 L163.202 434.271 L162.981 434.199 L162.759 434.133 L162.537 434.072 L162.315 434.017 L162.093 433.966 L161.872 433.919 L161.65 433.877 L161.428 433.838 L161.206 433.803 L160.985 433.771 L160.763 433.743 L160.541 433.716 Z" fill="#006BA4" opacity="0.5" />
    <line x1="183.393" y1="407.933" x2="183.393" y2="459.067" stroke="#333333" stroke-width="1" opacity="1" />
    <line x1="188.817" y1="407.22" x2="188.817" y2="459.78" stroke="#333333" stroke-width="1" opacity="1" />
    <line x1="194.241" y1="407.933" x2="194.241" y2="459.067" stroke="#333333" stroke-width="1" opacity="1" />
    <path d="M117.151 360.284 L117.373 360.257 L117.594 360.229 L117.816 360.197 L118.038 360.162 L118.26 360.123 L118.482 360.081 L118.703 360.034 L118.925 359.983 L119.147 359.928 L119.369 359.867 L119.59 359.801 L119.812 359.729 L120.034 359.651 L120.256 359.567 L120.477 359.475 L120.699 359.376 L120.921 359.27 L121.143 359.155 L121.365 359.032 L121.586 358.899 L121.808 358.758 L122.03 358.606 L122.252 358.444 L122.473 358.272 L122.695 358.088 L122.917 357.894 L123.139 357.687 L123.361 357.469 L123.582 357.238 L123.804 356.995 L124.026 356.739 L124.248 356.47 L124.469 356.188 L124.691 355.893 L124.913 355.585 L125.135 355.263 L125.356 354.929 L125.578 354.581 L125.8 354.221 L126.022 353.847 L126.244 353.462 L126.465 353.065 L126.687 352.656 L126.909 352.236 L127.131 351.806 L127.352 351.366 L127.574 350.916 L127.796 350.459 L128.018 349.994 L128.24 349.522 L128.461 349.044 L128.683 348.562 L128.905 348.076 L129.127 347.587 L129.348 347.097 L129.57 346.606 L129.792 346.115 L130.014 345.627 L130.235 345.141 L130.457 344.659 L130.679 344.183 L130.901 343.712 L131.123 343.249 L131.344 342.794 L131.566 342.349 L131.788 341.914 L132.01 341.49 L132.231 341.079 L132.453 340.68 L132.675 340.295 L132.897 339.924 L133.119 339.567 L133.34 339.226 L133.562 338.9 L133.784 338.589 L134.006 338.295 L134.227 338.017 L134.449 337.754 L134.671 337.507 L134.893 337.276 L135.114 337.06 L135.336 336.859 L135.558 336.673 L135.78 336.5 L136.002 336.341 L136.223 336.195 L136.445 336.06 L136.667 335.937 L136.889 335.825 L137.11 335.722 L137.332 335.629 L137.554 335.543 L137.776 335.465 L137.997 335.394 L138.219 335.328 L138.441 335.268 L138.663 335.212 L138.885 335.159 L139.106 335.11 L139.328 335.064 L139.55 335.019 L139.772 334.976 L139.993 334.934 L140.215 334.894 L140.437 334.853 L140.659 334.814 L140.881 334.774 L141.102 334.735 L141.324 334.696 L141.546 334.657 L141.768 334.618 L141.989 334.58 L142.211 334.543 L142.433 334.506 L142.655 334.471 L142.876 334.436 L143.098 334.404 L143.32 334.373 L143.542 334.344 L143.764 334.318 L143.985 334.294 L144.207 334.274 L144.429 334.256 L144.651 334.242 L144.872 334.231 L145.094 334.224 L145.316 334.22 L145.538 334.22 L145.76 334.224 L145.981 334.231 L146.203 334.242 L146.425 334.256 L146.647 334.274 L146.868 334.294 L147.09 334.318 L147.312 334.344 L147.534 334.373 L147.755 334.404 L147.977 334.436 L148.199 334.471 L148.421 334.506 L148.643 334.543 L148.864 334.58 L149.086 334.618 L149.308 334.657 L149.53 334.696 L149.751 334.735 L149.973 334.774 L150.195 334.814 L150.417 334.853 L150.639 334.894 L150.86 334.934 L151.082 334.976 L151.304 335.019 L151.526 335.064 L151.747 335.11 L151.969 335.159 L152.191 335.212 L152.413 335.268 L152.634 335.328 L152.856 335.394 L153.078 335.465 L153.3 335.543 L153.522 335.629 L153.743 335.722 L153.965 335.825 L154.187 335.937 L154.409 336.06 L154.63 336.195 L154.852 336.341 L155.074 336.5 L155.296 336.673 L155.518 336.859 L155.739 337.06 L155.961 337.276 L156.183 337.507 L156.405 337.754 L156.626 338.017 L156.848 338.295 L157.07 338.589 L157.292 338.9 L157.513 339.226 L157.735 339.567 L157.957 339.924 L158.179 340.295 L158.401 340.68 L158.622 341.079 L158.844 341.49 L159.066 341.914 L159.288 342.349 L159.509 342.794 L159.731 343.249 L159.953 343.712 L160.175 344.183 L160.397 344.659 L160.618 345.141 L160.84 345.627 L161.062 346.115 L161.284 346.606 L161.505 347.097 L161.727 347.587 L161.949 348.076 L162.171 348.562 L162.392 349.044 L162.614 349.522 L162.836 349.994 L163.058 350.459 L163.28 350.916 L163.501 351.366 L163.723 351.806 L163.945 352.236 L164.167 352.656 L164.388 353.065 L164.61 353.462 L164.832 353.847 L165.054 354.221 L165.275 354.581 L165.497 354.929 L165.719 355.263 L165.941 355.585 L166.163 355.893 L166.384 356.188 L166.606 356.47 L166.828 356.739 L167.05 356.995 L167.271 357.238 L167.493 357.469 L167.715 357.687 L167.937 357.894 L168.159 358.088 L168.38 358.272 L168.602 358.444 L168.824 358.606 L169.046 358.758 L169.267 358.899 L169.489 359.032 L169.711 359.155 L169.933 359.27 L170.154 359.376 L170.376 359.475 L170.598 359.567 L170.82 359.651 L171.042 359.729 L171.263 359.801 L171.485 359.867 L171.707 359.928 L171.929 359.983 L172.15 360.034 L172.372 360.081 L172.594 360.123 L172.816 360.162 L173.038 360.197 L173.259 360.229 L173.481 360.257 L173.703 360.284 L173.703 360.716 L173.481 360.743 L173.259 360.771 L173.038 360.803 L172.816 360.838 L172.594 360.877 L172.372 360.919 L172.15 360.966 L171.929 361.017 L171.707 361.072 L171.485 361.133 L171.263 361.199 L171.042 361.271 L170.82 361.349 L170.598 361.433 L170.376 361.525 L170.154 361.624 L169.933 361.73 L169.711 361.845 L169.489 361.968 L169.267 362.101 L169.046 362.242 L168.824 362.394 L168.602 362.556 L168.38 362.728 L168.159 362.912 L167.937 363.106 L167.715 363.313 L167.493 363.531 L167.271 363.762 L167.05 364.005 L166.828 364.261 L166.606 364.53 L166.384 364.812 L166.163 365.107 L165.941 365.415 L165.719 365.737 L165.497 366.071 L165.275 366.419 L165.054 366.779 L164.832 367.153 L164.61 367.538 L164.388 367.935 L164.167 368.344 L163.945 368.764 L163.723 369.194 L163.501 369.634 L163.28 370.084 L163.058 370.541 L162.836 371.006 L162.614 371.478 L162.392 371.956 L162.171 372.438 L161.949 372.924 L161.727 373.413 L161.505 373.903 L161.284 374.394 L161.062 374.885 L160.84 375.373 L160.618 375.859 L160.397 376.341 L160.175 376.817 L159.953 377.288 L159.731 377.751 L159.509 378.206 L159.288 378.651 L159.066 379.086 L158.844 379.51 L158.622 379.921 L158.401 380.32 L158.179 380.705 L157.957 381.076 L157.735 381.433 L157.513 381.774 L157.292 382.1 L157.07 382.411 L156.848 382.705 L156.626 382.983 L156.405 383.246 L156.183 383.493 L155.961 383.724 L155.739 383.94 L155.518 384.141 L155.296 384.327 L155.074 384.5 L154.852 384.659 L154.63 384.805 L154.409 384.94 L154.187 385.063 L153.965 385.175 L153.743 385.278 L153.522 385.371 L153.3 385.457 L153.078 385.535 L152.856 385.606 L152.634 385.672 L152.413 385.732 L152.191 385.788 L151.969 385.841 L151.747 385.89 L151.526 385.936 L151.304 385.981 L151.082 386.024 L150.86 386.066 L150.639 386.106 L150.417 386.147 L150.195 386.186 L149.973 386.226 L149.751 386.265 L149.53 386.304 L149.308 386.343 L149.086 386.382 L148.864 386.42 L148.643 386.457 L148.421 386.494 L148.199 386.529 L147.977 386.564 L147.755 386.596 L147.534 386.627 L147.312 386.656 L147.09 386.682 L146.868 386.706 L146.647 386.726 L146.425 386.744 L146.203 386.758 L145.981 386.769 L145.76 386.776 L145.538 386.78 L145.316 386.78 L145.094 386.776 L144.872 386.769 L144.651 386.758 L144.429 386.744 L144.207 386.726 L143.985 386.706 L143.764 386.682 L143.542 386.656 L143.32 386.627 L143.098 386.596 L142.876 386.564 L142.655 386.529 L142.433 386.494 L142.211 386.457 L141.989 386.42 L141.768 386.382 L141.546 386.343 L141.324 386.304 L141.102 386.265 L140.881 386.226 L140.659 386.186 L140.437 386.147 L140.215 386.106 L139.993 386.066 L139.772 386.024 L139.55 385.981 L139.328 385.936 L139.106 385.89 L138.885 385.841 L138.663 385.788 L138.441 385.732 L138.219 385.672 L137.997 385.606 L137.776 385.535 L137.554 385.457 L137.332 385.371 L137.11 385.278 L136.889 385.175 L136.667 385.063 L136.445 384.94 L136.223 384.805 L136.002 384.659 L135.78 384.5 L135.558 384.327 L135.336 384.141 L135.114 383.94 L134.893 383.724 L134.671 383.493 L134.449 383.246 L134.227 382.983 L134.006 382.705 L133.784 382.411 L133.562 382.1 L133.34 381.774 L133.119 381.433 L132.897 381.076 L132.675 380.705 L132.453 380.32 L132.231 379.921 L132.01 379.51 L131.788 379.086 L131.566 378.651 L131.344 378.206 L131.123 377.751 L130.901 377.288 L130.679 376.817 L130.457 376.341 L130.235 375.859 L130.014 375.373 L129.792 374.885 L129.57 374.394 L129.348 373.903 L129.127 373.413 L128.905 372.924 L128.683 372.438 L128.461 371.956 L128.24 371.478 L128.018 371.006 L127.796 370.541 L127.574 370.084 L127.352 369.634 L127.131 369.194 L126.909 368.764 L126.687 368.344 L126.465 367.935 L126.244 367.538 L126.022 367.153 L125.8 366.779 L125.578 366.419 L125.356 366.071 L125.135 365.737 L124.913 365.415 L124.691 365.107 L124.469 364.812 L124.248 364.53 L124.026 364.261 L123.804 364.005 L123.582 363.762 L123.361 363.531 L123.139 363.313 L122.917 363.106 L122.695 362.912 L122.473 362.728 L122.252 362.556 L122.03 362.394 L121.808 362.242 L121.586 362.101 L121.365 361.968 L121.143 361.845 L120.921 361.73 L120.699 361.624 L120.477 361.525 L120.256 361.433 L120.034 361.349 L119.812 361.271 L119.59 361.199 L119.369 361.133 L119.147 361.072 L118.925 361.017 L118.703 360.966 L118.482 360.919 L118.26 360.877 L118.038 360.838 L117.816 360.803 L117.594 360.771 L117.373 360.743 L117.151 360.716 Z" fill="#FF800E" opacity="0.5" />
    <line x1="140.003" y1="334.933" x2="140.003" y2="386.067" stroke="#333333" stroke-width="1" opacity="1" />
    <line x1="145.427" y1="334.22" x2="145.427" y2="386.78" stroke="#333333" stroke-width="1" opacity="1" />
    <line x1="150.851" y1="334.933" x2="150.851" y2="386.067" stroke="#333333" stroke-width="1" opacity="1" />
  </g>
  <g class="algraf-layer algraf-geom-boxplot">
    <line x1="177.969" y1="433.5" x2="199.665" y2="433.5" stroke="#000000" stroke-width="1.2" opacity="0.9" />
    <line x1="177.969" y1="433.3" x2="177.969" y2="433.7" stroke="#000000" stroke-width="1.2" opacity="0.9" />
    <line x1="199.665" y1="433.3" x2="199.665" y2="433.7" stroke="#000000" stroke-width="1.2" opacity="0.9" />
    <rect x="183.393" y="433" width="10.848" height="1" fill="#ffffff" stroke="#000000" stroke-width="1.2" opacity="0.9" />
    <line x1="188.817" y1="433" x2="188.817" y2="434" stroke="#000000" stroke-width="1.2" opacity="0.9" />
    <line x1="134.579" y1="360.5" x2="156.274" y2="360.5" stroke="#000000" stroke-width="1.2" opacity="0.9" />
    <line x1="134.579" y1="360.3" x2="134.579" y2="360.7" stroke="#000000" stroke-width="1.2" opacity="0.9" />
    <line x1="156.274" y1="360.3" x2="156.274" y2="360.7" stroke="#000000" stroke-width="1.2" opacity="0.9" />
    <rect x="140.003" y="360" width="10.848" height="1" fill="#ffffff" stroke="#000000" stroke-width="1.2" opacity="0.9" />
    <line x1="145.427" y1="360" x2="145.427" y2="361" stroke="#000000" stroke-width="1.2" opacity="0.9" />
  </g>
</g>
<defs>
<clipPath id="algraf-clip-3"><rect x="432.2" y="324" width="277.8" height="146" /></clipPath>
</defs>
<g clip-path="url(#algraf-clip-3)">
  <g class="algraf-layer algraf-geom-violin">
    <path d="M564.579 433.284 L564.8 433.257 L565.022 433.229 L565.244 433.197 L565.466 433.162 L565.688 433.123 L565.909 433.081 L566.131 433.034 L566.353 432.983 L566.575 432.928 L566.796 432.867 L567.018 432.801 L567.24 432.729 L567.462 432.651 L567.683 432.567 L567.905 432.475 L568.127 432.376 L568.349 432.27 L568.571 432.155 L568.792 432.032 L569.014 431.899 L569.236 431.758 L569.458 431.606 L569.679 431.444 L569.901 431.272 L570.123 431.088 L570.345 430.894 L570.567 430.687 L570.788 430.469 L571.01 430.238 L571.232 429.995 L571.454 429.739 L571.675 429.47 L571.897 429.188 L572.119 428.893 L572.341 428.585 L572.562 428.263 L572.784 427.929 L573.006 427.581 L573.228 427.221 L573.45 426.847 L573.671 426.462 L573.893 426.065 L574.115 425.656 L574.337 425.236 L574.558 424.806 L574.78 424.366 L575.002 423.916 L575.224 423.459 L575.446 422.994 L575.667 422.522 L575.889 422.044 L576.111 421.562 L576.333 421.076 L576.554 420.587 L576.776 420.097 L576.998 419.606 L577.22 419.115 L577.441 418.627 L577.663 418.141 L577.885 417.659 L578.107 417.183 L578.329 416.712 L578.55 416.249 L578.772 415.794 L578.994 415.349 L579.216 414.914 L579.437 414.49 L579.659 414.079 L579.881 413.68 L580.103 413.295 L580.325 412.924 L580.546 412.567 L580.768 412.226 L580.99 411.9 L581.212 411.589 L581.433 411.295 L581.655 411.017 L581.877 410.754 L582.099 410.507 L582.32 410.276 L582.542 410.06 L582.764 409.859 L582.986 409.673 L583.208 409.5 L583.429 409.341 L583.651 409.195 L583.873 409.06 L584.095 408.937 L584.316 408.825 L584.538 408.722 L584.76 408.629 L584.982 408.543 L585.204 408.465 L585.425 408.394 L585.647 408.328 L585.869 408.268 L586.091 408.212 L586.312 408.159 L586.534 408.11 L586.756 408.064 L586.978 408.019 L587.199 407.976 L587.421 407.934 L587.643 407.894 L587.865 407.853 L588.087 407.814 L588.308 407.774 L588.53 407.735 L588.752 407.696 L588.974 407.657 L589.195 407.618 L589.417 407.58 L589.639 407.543 L589.861 407.506 L590.083 407.471 L590.304 407.436 L590.526 407.404 L590.748 407.373 L590.97 407.344 L591.191 407.318 L591.413 407.294 L591.635 407.274 L591.857 407.256 L592.078 407.242 L592.3 407.231 L592.522 407.224 L592.744 407.22 L592.966 407.22 L593.187 407.224 L593.409 407.231 L593.631 407.242 L593.853 407.256 L594.074 407.274 L594.296 407.294 L594.518 407.318 L594.74 407.344 L594.961 407.373 L595.183 407.404 L595.405 407.436 L595.627 407.471 L595.849 407.506 L596.07 407.543 L596.292 407.58 L596.514 407.618 L596.736 407.657 L596.957 407.696 L597.179 407.735 L597.401 407.774 L597.623 407.814 L597.845 407.853 L598.066 407.894 L598.288 407.934 L598.51 407.976 L598.732 408.019 L598.953 408.064 L599.175 408.11 L599.397 408.159 L599.619 408.212 L599.84 408.268 L600.062 408.328 L600.284 408.394 L600.506 408.465 L600.728 408.543 L600.949 408.629 L601.171 408.722 L601.393 408.825 L601.615 408.937 L601.836 409.06 L602.058 409.195 L602.28 409.341 L602.502 409.5 L602.724 409.673 L602.945 409.859 L603.167 410.06 L603.389 410.276 L603.611 410.507 L603.832 410.754 L604.054 411.017 L604.276 411.295 L604.498 411.589 L604.719 411.9 L604.941 412.226 L605.163 412.567 L605.385 412.924 L605.607 413.295 L605.828 413.68 L606.05 414.079 L606.272 414.49 L606.494 414.914 L606.715 415.349 L606.937 415.794 L607.159 416.249 L607.381 416.712 L607.603 417.183 L607.824 417.659 L608.046 418.141 L608.268 418.627 L608.49 419.115 L608.711 419.606 L608.933 420.097 L609.155 420.587 L609.377 421.076 L609.598 421.562 L609.82 422.044 L610.042 422.522 L610.264 422.994 L610.486 423.459 L610.707 423.916 L610.929 424.366 L611.151 424.806 L611.373 425.236 L611.594 425.656 L611.816 426.065 L612.038 426.462 L612.26 426.847 L612.482 427.221 L612.703 427.581 L612.925 427.929 L613.147 428.263 L613.369 428.585 L613.59 428.893 L613.812 429.188 L614.034 429.47 L614.256 429.739 L614.477 429.995 L614.699 430.238 L614.921 430.469 L615.143 430.687 L615.365 430.894 L615.586 431.088 L615.808 431.272 L616.03 431.444 L616.252 431.606 L616.473 431.758 L616.695 431.899 L616.917 432.032 L617.139 432.155 L617.36 432.27 L617.582 432.376 L617.804 432.475 L618.026 432.567 L618.248 432.651 L618.469 432.729 L618.691 432.801 L618.913 432.867 L619.135 432.928 L619.356 432.983 L619.578 433.034 L619.8 433.081 L620.022 433.123 L620.244 433.162 L620.465 433.197 L620.687 433.229 L620.909 433.257 L621.131 433.284 L621.131 433.716 L620.909 433.743 L620.687 433.771 L620.465 433.803 L620.244 433.838 L620.022 433.877 L619.8 433.919 L619.578 433.966 L619.356 434.017 L619.135 434.072 L618.913 434.133 L618.691 434.199 L618.469 434.271 L618.248 434.349 L618.026 434.433 L617.804 434.525 L617.582 434.624 L617.36 434.73 L617.139 434.845 L616.917 434.968 L616.695 435.101 L616.473 435.242 L616.252 435.394 L616.03 435.556 L615.808 435.728 L615.586 435.912 L615.365 436.106 L615.143 436.313 L614.921 436.531 L614.699 436.762 L614.477 437.005 L614.256 437.261 L614.034 437.53 L613.812 437.812 L613.59 438.107 L613.369 438.415 L613.147 438.737 L612.925 439.071 L612.703 439.419 L612.482 439.779 L612.26 440.153 L612.038 440.538 L611.816 440.935 L611.594 441.344 L611.373 441.764 L611.151 442.194 L610.929 442.634 L610.707 443.084 L610.486 443.541 L610.264 444.006 L610.042 444.478 L609.82 444.956 L609.598 445.438 L609.377 445.924 L609.155 446.413 L608.933 446.903 L608.711 447.394 L608.49 447.885 L608.268 448.373 L608.046 448.859 L607.824 449.341 L607.603 449.817 L607.381 450.288 L607.159 450.751 L606.937 451.206 L606.715 451.651 L606.494 452.086 L606.272 452.51 L606.05 452.921 L605.828 453.32 L605.607 453.705 L605.385 454.076 L605.163 454.433 L604.941 454.774 L604.719 455.1 L604.498 455.411 L604.276 455.705 L604.054 455.983 L603.832 456.246 L603.611 456.493 L603.389 456.724 L603.167 456.94 L602.945 457.141 L602.724 457.327 L602.502 457.5 L602.28 457.659 L602.058 457.805 L601.836 457.94 L601.615 458.063 L601.393 458.175 L601.171 458.278 L600.949 458.371 L600.728 458.457 L600.506 458.535 L600.284 458.606 L600.062 458.672 L599.84 458.732 L599.619 458.788 L599.397 458.841 L599.175 458.89 L598.953 458.936 L598.732 458.981 L598.51 459.024 L598.288 459.066 L598.066 459.106 L597.845 459.147 L597.623 459.186 L597.401 459.226 L597.179 459.265 L596.957 459.304 L596.736 459.343 L596.514 459.382 L596.292 459.42 L596.07 459.457 L595.849 459.494 L595.627 459.529 L595.405 459.564 L595.183 459.596 L594.961 459.627 L594.74 459.656 L594.518 459.682 L594.296 459.706 L594.074 459.726 L593.853 459.744 L593.631 459.758 L593.409 459.769 L593.187 459.776 L592.966 459.78 L592.744 459.78 L592.522 459.776 L592.3 459.769 L592.078 459.758 L591.857 459.744 L591.635 459.726 L591.413 459.706 L591.191 459.682 L590.97 459.656 L590.748 459.627 L590.526 459.596 L590.304 459.564 L590.083 459.529 L589.861 459.494 L589.639 459.457 L589.417 459.42 L589.195 459.382 L588.974 459.343 L588.752 459.304 L588.53 459.265 L588.308 459.226 L588.087 459.186 L587.865 459.147 L587.643 459.106 L587.421 459.066 L587.199 459.024 L586.978 458.981 L586.756 458.936 L586.534 458.89 L586.312 458.841 L586.091 458.788 L585.869 458.732 L585.647 458.672 L585.425 458.606 L585.204 458.535 L584.982 458.457 L584.76 458.371 L584.538 458.278 L584.316 458.175 L584.095 458.063 L583.873 457.94 L583.651 457.805 L583.429 457.659 L583.208 457.5 L582.986 457.327 L582.764 457.141 L582.542 456.94 L582.32 456.724 L582.099 456.493 L581.877 456.246 L581.655 455.983 L581.433 455.705 L581.212 455.411 L580.99 455.1 L580.768 454.774 L580.546 454.433 L580.325 454.076 L580.103 453.705 L579.881 453.32 L579.659 452.921 L579.437 452.51 L579.216 452.086 L578.994 451.651 L578.772 451.206 L578.55 450.751 L578.329 450.288 L578.107 449.817 L577.885 449.341 L577.663 448.859 L577.441 448.373 L577.22 447.885 L576.998 447.394 L576.776 446.903 L576.554 446.413 L576.333 445.924 L576.111 445.438 L575.889 444.956 L575.667 444.478 L575.446 444.006 L575.224 443.541 L575.002 443.084 L574.78 442.634 L574.558 442.194 L574.337 441.764 L574.115 441.344 L573.893 440.935 L573.671 440.538 L573.45 440.153 L573.228 439.779 L573.006 439.419 L572.784 439.071 L572.562 438.737 L572.341 438.415 L572.119 438.107 L571.897 437.812 L571.675 437.53 L571.454 437.261 L571.232 437.005 L571.01 436.762 L570.788 436.531 L570.567 436.313 L570.345 436.106 L570.123 435.912 L569.901 435.728 L569.679 435.556 L569.458 435.394 L569.236 435.242 L569.014 435.101 L568.792 434.968 L568.571 434.845 L568.349 434.73 L568.127 434.624 L567.905 434.525 L567.683 434.433 L567.462 434.349 L567.24 434.271 L567.018 434.199 L566.796 434.133 L566.575 434.072 L566.353 434.017 L566.131 433.966 L565.909 433.919 L565.688 433.877 L565.466 433.838 L565.244 433.803 L565.022 433.771 L564.8 433.743 L564.579 433.716 Z" fill="#006BA4" opacity="0.5" />
    <line x1="587.431" y1="407.933" x2="587.431" y2="459.067" stroke="#333333" stroke-width="1" opacity="1" />
    <line x1="592.855" y1="407.22" x2="592.855" y2="459.78" stroke="#333333" stroke-width="1" opacity="1" />
    <line x1="598.278" y1="407.933" x2="598.278" y2="459.067" stroke="#333333" stroke-width="1" opacity="1" />
    <path d="M488.646 360.284 L488.868 360.257 L489.09 360.229 L489.311 360.197 L489.533 360.162 L489.755 360.123 L489.977 360.081 L490.198 360.034 L490.42 359.983 L490.642 359.928 L490.864 359.867 L491.085 359.801 L491.307 359.729 L491.529 359.651 L491.751 359.567 L491.973 359.475 L492.194 359.376 L492.416 359.27 L492.638 359.155 L492.86 359.032 L493.081 358.899 L493.303 358.758 L493.525 358.606 L493.747 358.444 L493.968 358.272 L494.19 358.088 L494.412 357.894 L494.634 357.687 L494.856 357.469 L495.077 357.238 L495.299 356.995 L495.521 356.739 L495.743 356.47 L495.964 356.188 L496.186 355.893 L496.408 355.585 L496.63 355.263 L496.852 354.929 L497.073 354.581 L497.295 354.221 L497.517 353.847 L497.739 353.462 L497.96 353.065 L498.182 352.656 L498.404 352.236 L498.626 351.806 L498.847 351.366 L499.069 350.916 L499.291 350.459 L499.513 349.994 L499.735 349.522 L499.956 349.044 L500.178 348.562 L500.4 348.076 L500.622 347.587 L500.843 347.097 L501.065 346.606 L501.287 346.115 L501.509 345.627 L501.731 345.141 L501.952 344.659 L502.174 344.183 L502.396 343.712 L502.618 343.249 L502.839 342.794 L503.061 342.349 L503.283 341.914 L503.505 341.49 L503.726 341.079 L503.948 340.68 L504.17 340.295 L504.392 339.924 L504.614 339.567 L504.835 339.226 L505.057 338.9 L505.279 338.589 L505.501 338.295 L505.722 338.017 L505.944 337.754 L506.166 337.507 L506.388 337.276 L506.61 337.06 L506.831 336.859 L507.053 336.673 L507.275 336.5 L507.497 336.341 L507.718 336.195 L507.94 336.06 L508.162 335.937 L508.384 335.825 L508.605 335.722 L508.827 335.629 L509.049 335.543 L509.271 335.465 L509.493 335.394 L509.714 335.328 L509.936 335.268 L510.158 335.212 L510.38 335.159 L510.601 335.11 L510.823 335.064 L511.045 335.019 L511.267 334.976 L511.489 334.934 L511.71 334.894 L511.932 334.853 L512.154 334.814 L512.376 334.774 L512.597 334.735 L512.819 334.696 L513.041 334.657 L513.263 334.618 L513.484 334.58 L513.706 334.543 L513.928 334.506 L514.15 334.471 L514.372 334.436 L514.593 334.404 L514.815 334.373 L515.037 334.344 L515.259 334.318 L515.48 334.294 L515.702 334.274 L515.924 334.256 L516.146 334.242 L516.368 334.231 L516.589 334.224 L516.811 334.22 L517.033 334.22 L517.255 334.224 L517.476 334.231 L517.698 334.242 L517.92 334.256 L518.142 334.274 L518.363 334.294 L518.585 334.318 L518.807 334.344 L519.029 334.373 L519.251 334.404 L519.472 334.436 L519.694 334.471 L519.916 334.506 L520.138 334.543 L520.359 334.58 L520.581 334.618 L520.803 334.657 L521.025 334.696 L521.246 334.735 L521.468 334.774 L521.69 334.814 L521.912 334.853 L522.134 334.894 L522.355 334.934 L522.577 334.976 L522.799 335.019 L523.021 335.064 L523.242 335.11 L523.464 335.159 L523.686 335.212 L523.908 335.268 L524.13 335.328 L524.351 335.394 L524.573 335.465 L524.795 335.543 L525.017 335.629 L525.238 335.722 L525.46 335.825 L525.682 335.937 L525.904 336.06 L526.125 336.195 L526.347 336.341 L526.569 336.5 L526.791 336.673 L527.013 336.859 L527.234 337.06 L527.456 337.276 L527.678 337.507 L527.9 337.754 L528.121 338.017 L528.343 338.295 L528.565 338.589 L528.787 338.9 L529.009 339.226 L529.23 339.567 L529.452 339.924 L529.674 340.295 L529.896 340.68 L530.117 341.079 L530.339 341.49 L530.561 341.914 L530.783 342.349 L531.004 342.794 L531.226 343.249 L531.448 343.712 L531.67 344.183 L531.892 344.659 L532.113 345.141 L532.335 345.627 L532.557 346.115 L532.779 346.606 L533 347.097 L533.222 347.587 L533.444 348.076 L533.666 348.562 L533.888 349.044 L534.109 349.522 L534.331 349.994 L534.553 350.459 L534.775 350.916 L534.996 351.366 L535.218 351.806 L535.44 352.236 L535.662 352.656 L535.883 353.065 L536.105 353.462 L536.327 353.847 L536.549 354.221 L536.771 354.581 L536.992 354.929 L537.214 355.263 L537.436 355.585 L537.658 355.893 L537.879 356.188 L538.101 356.47 L538.323 356.739 L538.545 356.995 L538.767 357.238 L538.988 357.469 L539.21 357.687 L539.432 357.894 L539.654 358.088 L539.875 358.272 L540.097 358.444 L540.319 358.606 L540.541 358.758 L540.762 358.899 L540.984 359.032 L541.206 359.155 L541.428 359.27 L541.65 359.376 L541.871 359.475 L542.093 359.567 L542.315 359.651 L542.537 359.729 L542.758 359.801 L542.98 359.867 L543.202 359.928 L543.424 359.983 L543.645 360.034 L543.867 360.081 L544.089 360.123 L544.311 360.162 L544.533 360.197 L544.754 360.229 L544.976 360.257 L545.198 360.284 L545.198 360.716 L544.976 360.743 L544.754 360.771 L544.533 360.803 L544.311 360.838 L544.089 360.877 L543.867 360.919 L543.645 360.966 L543.424 361.017 L543.202 361.072 L542.98 361.133 L542.758 361.199 L542.537 361.271 L542.315 361.349 L542.093 361.433 L541.871 361.525 L541.65 361.624 L541.428 361.73 L541.206 361.845 L540.984 361.968 L540.762 362.101 L540.541 362.242 L540.319 362.394 L540.097 362.556 L539.875 362.728 L539.654 362.912 L539.432 363.106 L539.21 363.313 L538.988 363.531 L538.767 363.762 L538.545 364.005 L538.323 364.261 L538.101 364.53 L537.879 364.812 L537.658 365.107 L537.436 365.415 L537.214 365.737 L536.992 366.071 L536.771 366.419 L536.549 366.779 L536.327 367.153 L536.105 367.538 L535.883 367.935 L535.662 368.344 L535.44 368.764 L535.218 369.194 L534.996 369.634 L534.775 370.084 L534.553 370.541 L534.331 371.006 L534.109 371.478 L533.888 371.956 L533.666 372.438 L533.444 372.924 L533.222 373.413 L533 373.903 L532.779 374.394 L532.557 374.885 L532.335 375.373 L532.113 375.859 L531.892 376.341 L531.67 376.817 L531.448 377.288 L531.226 377.751 L531.004 378.206 L530.783 378.651 L530.561 379.086 L530.339 379.51 L530.117 379.921 L529.896 380.32 L529.674 380.705 L529.452 381.076 L529.23 381.433 L529.009 381.774 L528.787 382.1 L528.565 382.411 L528.343 382.705 L528.121 382.983 L527.9 383.246 L527.678 383.493 L527.456 383.724 L527.234 383.94 L527.013 384.141 L526.791 384.327 L526.569 384.5 L526.347 384.659 L526.125 384.805 L525.904 384.94 L525.682 385.063 L525.46 385.175 L525.238 385.278 L525.017 385.371 L524.795 385.457 L524.573 385.535 L524.351 385.606 L524.13 385.672 L523.908 385.732 L523.686 385.788 L523.464 385.841 L523.242 385.89 L523.021 385.936 L522.799 385.981 L522.577 386.024 L522.355 386.066 L522.134 386.106 L521.912 386.147 L521.69 386.186 L521.468 386.226 L521.246 386.265 L521.025 386.304 L520.803 386.343 L520.581 386.382 L520.359 386.42 L520.138 386.457 L519.916 386.494 L519.694 386.529 L519.472 386.564 L519.251 386.596 L519.029 386.627 L518.807 386.656 L518.585 386.682 L518.363 386.706 L518.142 386.726 L517.92 386.744 L517.698 386.758 L517.476 386.769 L517.255 386.776 L517.033 386.78 L516.811 386.78 L516.589 386.776 L516.368 386.769 L516.146 386.758 L515.924 386.744 L515.702 386.726 L515.48 386.706 L515.259 386.682 L515.037 386.656 L514.815 386.627 L514.593 386.596 L514.372 386.564 L514.15 386.529 L513.928 386.494 L513.706 386.457 L513.484 386.42 L513.263 386.382 L513.041 386.343 L512.819 386.304 L512.597 386.265 L512.376 386.226 L512.154 386.186 L511.932 386.147 L511.71 386.106 L511.489 386.066 L511.267 386.024 L511.045 385.981 L510.823 385.936 L510.601 385.89 L510.38 385.841 L510.158 385.788 L509.936 385.732 L509.714 385.672 L509.493 385.606 L509.271 385.535 L509.049 385.457 L508.827 385.371 L508.605 385.278 L508.384 385.175 L508.162 385.063 L507.94 384.94 L507.718 384.805 L507.497 384.659 L507.275 384.5 L507.053 384.327 L506.831 384.141 L506.61 383.94 L506.388 383.724 L506.166 383.493 L505.944 383.246 L505.722 382.983 L505.501 382.705 L505.279 382.411 L505.057 382.1 L504.835 381.774 L504.614 381.433 L504.392 381.076 L504.17 380.705 L503.948 380.32 L503.726 379.921 L503.505 379.51 L503.283 379.086 L503.061 378.651 L502.839 378.206 L502.618 377.751 L502.396 377.288 L502.174 376.817 L501.952 376.341 L501.731 375.859 L501.509 375.373 L501.287 374.885 L501.065 374.394 L500.843 373.903 L500.622 373.413 L500.4 372.924 L500.178 372.438 L499.956 371.956 L499.735 371.478 L499.513 371.006 L499.291 370.541 L499.069 370.084 L498.847 369.634 L498.626 369.194 L498.404 368.764 L498.182 368.344 L497.96 367.935 L497.739 367.538 L497.517 367.153 L497.295 366.779 L497.073 366.419 L496.852 366.071 L496.63 365.737 L496.408 365.415 L496.186 365.107 L495.964 364.812 L495.743 364.53 L495.521 364.261 L495.299 364.005 L495.077 363.762 L494.856 363.531 L494.634 363.313 L494.412 363.106 L494.19 362.912 L493.968 362.728 L493.747 362.556 L493.525 362.394 L493.303 362.242 L493.081 362.101 L492.86 361.968 L492.638 361.845 L492.416 361.73 L492.194 361.624 L491.973 361.525 L491.751 361.433 L491.529 361.349 L491.307 361.271 L491.085 361.199 L490.864 361.133 L490.642 361.072 L490.42 361.017 L490.198 360.966 L489.977 360.919 L489.755 360.877 L489.533 360.838 L489.311 360.803 L489.09 360.771 L488.868 360.743 L488.646 360.716 Z" fill="#FF800E" opacity="0.5" />
    <line x1="511.498" y1="334.933" x2="511.498" y2="386.067" stroke="#333333" stroke-width="1" opacity="1" />
    <line x1="516.922" y1="334.22" x2="516.922" y2="386.78" stroke="#333333" stroke-width="1" opacity="1" />
    <line x1="522.346" y1="334.933" x2="522.346" y2="386.067" stroke="#333333" stroke-width="1" opacity="1" />
  </g>
  <g class="algraf-layer algraf-geom-boxplot">
    <line x1="582.007" y1="433.5" x2="603.702" y2="433.5" stroke="#000000" stroke-width="1.2" opacity="0.9" />
    <line x1="582.007" y1="433.3" x2="582.007" y2="433.7" stroke="#000000" stroke-width="1.2" opacity="0.9" />
    <line x1="603.702" y1="433.3" x2="603.702" y2="433.7" stroke="#000000" stroke-width="1.2" opacity="0.9" />
    <rect x="587.431" y="433" width="10.848" height="1" fill="#ffffff" stroke="#000000" stroke-width="1.2" opacity="0.9" />
    <line x1="592.855" y1="433" x2="592.855" y2="434" stroke="#000000" stroke-width="1.2" opacity="0.9" />
    <line x1="506.074" y1="360.5" x2="527.769" y2="360.5" stroke="#000000" stroke-width="1.2" opacity="0.9" />
    <line x1="506.074" y1="360.3" x2="506.074" y2="360.7" stroke="#000000" stroke-width="1.2" opacity="0.9" />
    <line x1="527.769" y1="360.3" x2="527.769" y2="360.7" stroke="#000000" stroke-width="1.2" opacity="0.9" />
    <rect x="511.498" y="360" width="10.848" height="1" fill="#ffffff" stroke="#000000" stroke-width="1.2" opacity="0.9" />
    <line x1="516.922" y1="360" x2="516.922" y2="361" stroke="#000000" stroke-width="1.2" opacity="0.9" />
  </g>
</g>
<g class="algraf-axes">
  <line x1="82.4" y1="236" x2="360.2" y2="236" stroke="#333333" stroke-width="1" />
  <line x1="102.037" y1="236" x2="102.037" y2="241" stroke="#333333" stroke-width="1" />
  <text x="102.037" y="254" text-anchor="middle" font-family="system-ui, sans-serif" font-size="12" fill="#222222">50</text>
  <line x1="156.274" y1="236" x2="156.274" y2="241" stroke="#333333" stroke-width="1" />
  <text x="156.274" y="254" text-anchor="middle" font-family="system-ui, sans-serif" font-size="12" fill="#222222">100</text>
  <line x1="210.512" y1="236" x2="210.512" y2="241" stroke="#333333" stroke-width="1" />
  <text x="210.512" y="254" text-anchor="middle" font-family="system-ui, sans-serif" font-size="12" fill="#222222">150</text>
  <line x1="264.75" y1="236" x2="264.75" y2="241" stroke="#333333" stroke-width="1" />
  <text x="264.75" y="254" text-anchor="middle" font-family="system-ui, sans-serif" font-size="12" fill="#222222">200</text>
  <line x1="318.987" y1="236" x2="318.987" y2="241" stroke="#333333" stroke-width="1" />
  <text x="318.987" y="254" text-anchor="middle" font-family="system-ui, sans-serif" font-size="12" fill="#222222">250</text>
  <text x="221.3" y="274" text-anchor="middle" font-family="system-ui, sans-serif" font-size="12" fill="#222222">Sales Amount</text>
  <line x1="82.4" y1="90" x2="82.4" y2="236" stroke="#333333" stroke-width="1" />
  <line x1="77.4" y1="199.5" x2="82.4" y2="199.5" stroke="#333333" stroke-width="1" />
  <text x="74.4" y="203.5" text-anchor="end" font-family="system-ui, sans-serif" font-size="12" fill="#222222">Widgets</text>
  <line x1="77.4" y1="126.5" x2="82.4" y2="126.5" stroke="#333333" stroke-width="1" />
  <text x="74.4" y="130.5" text-anchor="end" font-family="system-ui, sans-serif" font-size="12" fill="#222222">Gadgets</text>
  <text x="12" y="163" text-anchor="middle" transform="rotate(-90 12 163)" font-family="system-ui, sans-serif" font-size="12" fill="#222222">product</text>
</g>
<g class="algraf-axes">
  <line x1="432.2" y1="236" x2="710" y2="236" stroke="#333333" stroke-width="1" />
  <line x1="451.837" y1="236" x2="451.837" y2="241" stroke="#333333" stroke-width="1" />
  <text x="451.837" y="254" text-anchor="middle" font-family="system-ui, sans-serif" font-size="12" fill="#222222">50</text>
  <line x1="506.074" y1="236" x2="506.074" y2="241" stroke="#333333" stroke-width="1" />
  <text x="506.074" y="254" text-anchor="middle" font-family="system-ui, sans-serif" font-size="12" fill="#222222">100</text>
  <line x1="560.312" y1="236" x2="560.312" y2="241" stroke="#333333" stroke-width="1" />
  <text x="560.312" y="254" text-anchor="middle" font-family="system-ui, sans-serif" font-size="12" fill="#222222">150</text>
  <line x1="614.55" y1="236" x2="614.55" y2="241" stroke="#333333" stroke-width="1" />
  <text x="614.55" y="254" text-anchor="middle" font-family="system-ui, sans-serif" font-size="12" fill="#222222">200</text>
  <line x1="668.787" y1="236" x2="668.787" y2="241" stroke="#333333" stroke-width="1" />
  <text x="668.787" y="254" text-anchor="middle" font-family="system-ui, sans-serif" font-size="12" fill="#222222">250</text>
  <text x="571.1" y="274" text-anchor="middle" font-family="system-ui, sans-serif" font-size="12" fill="#222222">Sales Amount</text>
  <line x1="432.2" y1="90" x2="432.2" y2="236" stroke="#333333" stroke-width="1" />
  <line x1="427.2" y1="199.5" x2="432.2" y2="199.5" stroke="#333333" stroke-width="1" />
  <text x="424.2" y="203.5" text-anchor="end" font-family="system-ui, sans-serif" font-size="12" fill="#222222">Widgets</text>
  <line x1="427.2" y1="126.5" x2="432.2" y2="126.5" stroke="#333333" stroke-width="1" />
  <text x="424.2" y="130.5" text-anchor="end" font-family="system-ui, sans-serif" font-size="12" fill="#222222">Gadgets</text>
  <text x="361.8" y="163" text-anchor="middle" transform="rotate(-90 361.8 163)" font-family="system-ui, sans-serif" font-size="12" fill="#222222">product</text>
</g>
<g class="algraf-axes">
  <line x1="82.4" y1="470" x2="360.2" y2="470" stroke="#333333" stroke-width="1" />
  <line x1="102.037" y1="470" x2="102.037" y2="475" stroke="#333333" stroke-width="1" />
  <text x="102.037" y="488" text-anchor="middle" font-family="system-ui, sans-serif" font-size="12" fill="#222222">50</text>
  <line x1="156.274" y1="470" x2="156.274" y2="475" stroke="#333333" stroke-width="1" />
  <text x="156.274" y="488" text-anchor="middle" font-family="system-ui, sans-serif" font-size="12" fill="#222222">100</text>
  <line x1="210.512" y1="470" x2="210.512" y2="475" stroke="#333333" stroke-width="1" />
  <text x="210.512" y="488" text-anchor="middle" font-family="system-ui, sans-serif" font-size="12" fill="#222222">150</text>
  <line x1="264.75" y1="470" x2="264.75" y2="475" stroke="#333333" stroke-width="1" />
  <text x="264.75" y="488" text-anchor="middle" font-family="system-ui, sans-serif" font-size="12" fill="#222222">200</text>
  <line x1="318.987" y1="470" x2="318.987" y2="475" stroke="#333333" stroke-width="1" />
  <text x="318.987" y="488" text-anchor="middle" font-family="system-ui, sans-serif" font-size="12" fill="#222222">250</text>
  <text x="221.3" y="508" text-anchor="middle" font-family="system-ui, sans-serif" font-size="12" fill="#222222">Sales Amount</text>
  <line x1="82.4" y1="324" x2="82.4" y2="470" stroke="#333333" stroke-width="1" />
  <line x1="77.4" y1="433.5" x2="82.4" y2="433.5" stroke="#333333" stroke-width="1" />
  <text x="74.4" y="437.5" text-anchor="end" font-family="system-ui, sans-serif" font-size="12" fill="#222222">Widgets</text>
  <line x1="77.4" y1="360.5" x2="82.4" y2="360.5" stroke="#333333" stroke-width="1" />
  <text x="74.4" y="364.5" text-anchor="end" font-family="system-ui, sans-serif" font-size="12" fill="#222222">Gadgets</text>
  <text x="12" y="397" text-anchor="middle" transform="rotate(-90 12 397)" font-family="system-ui, sans-serif" font-size="12" fill="#222222">product</text>
</g>
<g class="algraf-axes">
  <line x1="432.2" y1="470" x2="710" y2="470" stroke="#333333" stroke-width="1" />
  <line x1="451.837" y1="470" x2="451.837" y2="475" stroke="#333333" stroke-width="1" />
  <text x="451.837" y="488" text-anchor="middle" font-family="system-ui, sans-serif" font-size="12" fill="#222222">50</text>
  <line x1="506.074" y1="470" x2="506.074" y2="475" stroke="#333333" stroke-width="1" />
  <text x="506.074" y="488" text-anchor="middle" font-family="system-ui, sans-serif" font-size="12" fill="#222222">100</text>
  <line x1="560.312" y1="470" x2="560.312" y2="475" stroke="#333333" stroke-width="1" />
  <text x="560.312" y="488" text-anchor="middle" font-family="system-ui, sans-serif" font-size="12" fill="#222222">150</text>
  <line x1="614.55" y1="470" x2="614.55" y2="475" stroke="#333333" stroke-width="1" />
  <text x="614.55" y="488" text-anchor="middle" font-family="system-ui, sans-serif" font-size="12" fill="#222222">200</text>
  <line x1="668.787" y1="470" x2="668.787" y2="475" stroke="#333333" stroke-width="1" />
  <text x="668.787" y="488" text-anchor="middle" font-family="system-ui, sans-serif" font-size="12" fill="#222222">250</text>
  <text x="571.1" y="508" text-anchor="middle" font-family="system-ui, sans-serif" font-size="12" fill="#222222">Sales Amount</text>
  <line x1="432.2" y1="324" x2="432.2" y2="470" stroke="#333333" stroke-width="1" />
  <line x1="427.2" y1="433.5" x2="432.2" y2="433.5" stroke="#333333" stroke-width="1" />
  <text x="424.2" y="437.5" text-anchor="end" font-family="system-ui, sans-serif" font-size="12" fill="#222222">Widgets</text>
  <line x1="427.2" y1="360.5" x2="432.2" y2="360.5" stroke="#333333" stroke-width="1" />
  <text x="424.2" y="364.5" text-anchor="end" font-family="system-ui, sans-serif" font-size="12" fill="#222222">Gadgets</text>
  <text x="361.8" y="397" text-anchor="middle" transform="rotate(-90 361.8 397)" font-family="system-ui, sans-serif" font-size="12" fill="#222222">product</text>
</g>
<g class="algraf-legends">
  <text x="726" y="70" text-anchor="start" font-family="system-ui, sans-serif" font-size="12" fill="#222222">product</text>
  <rect x="726" y="78" width="12" height="12" fill="#006BA4" />
  <text x="744" y="88" text-anchor="start" font-family="system-ui, sans-serif" font-size="12" fill="#222222">Widgets</text>
  <rect x="726" y="96" width="12" height="12" fill="#FF800E" />
  <text x="744" y="106" text-anchor="start" font-family="system-ui, sans-serif" font-size="12" fill="#222222">Gadgets</text>
</g>
</svg>
