<svg xmlns="http://www.w3.org/2000/svg" width="760" height="460" viewBox="0 0 760 460" role="img" aria-label="Quarterly amount by type">
<title>Quarterly amount by type</title>
<rect class="algraf-background" x="0" y="0" width="760" height="460" fill="#ffffff" />
<text class="algraf-title" x="60" y="24" font-family="system-ui, sans-serif" font-size="18" font-weight="600" fill="#222222">Quarterly amount by type</text>
<rect class="algraf-plot-area" x="60" y="66" width="550" height="344" fill="#ffffff" />
<g class="algraf-grid">
  <line x1="60" y1="66" x2="60" y2="410" stroke="#e6e6e6" stroke-width="1" />
  <line x1="143.485" y1="66" x2="143.485" y2="410" stroke="#e6e6e6" stroke-width="1" />
  <line x1="226.97" y1="66" x2="226.97" y2="410" stroke="#e6e6e6" stroke-width="1" />
  <line x1="310.455" y1="66" x2="310.455" y2="410" stroke="#e6e6e6" stroke-width="1" />
  <line x1="393.94" y1="66" x2="393.94" y2="410" stroke="#e6e6e6" stroke-width="1" />
  <line x1="477.426" y1="66" x2="477.426" y2="410" stroke="#e6e6e6" stroke-width="1" />
  <line x1="560.911" y1="66" x2="560.911" y2="410" stroke="#e6e6e6" stroke-width="1" />
</g>
<g class="algraf-layer algraf-geom-bar">
  <rect x="60" y="332.6" width="175.319" height="68.8" fill="#4E79A7" opacity="0.88" />
  <rect x="235.319" y="332.6" width="100.182" height="68.8" fill="#F28E2B" opacity="0.88" />
  <rect x="335.501" y="332.6" width="75.137" height="68.8" fill="#E15759" opacity="0.88" />
  <rect x="60" y="246.6" width="196.19" height="68.8" fill="#4E79A7" opacity="0.88" />
  <rect x="256.19" y="246.6" width="121.053" height="68.8" fill="#F28E2B" opacity="0.88" />
  <rect x="377.243" y="246.6" width="66.788" height="68.8" fill="#E15759" opacity="0.88" />
  <rect x="60" y="160.6" width="221.236" height="68.8" fill="#4E79A7" opacity="0.88" />
  <rect x="281.236" y="160.6" width="129.402" height="68.8" fill="#F28E2B" opacity="0.88" />
  <rect x="410.638" y="160.6" width="87.659" height="68.8" fill="#E15759" opacity="0.88" />
  <rect x="60" y="74.6" width="254.63" height="68.8" fill="#4E79A7" opacity="0.88" />
  <rect x="314.63" y="74.6" width="150.273" height="68.8" fill="#F28E2B" opacity="0.88" />
  <rect x="464.903" y="74.6" width="104.356" height="68.8" fill="#E15759" opacity="0.88" />
</g>
<g class="algraf-axes">
  <line x1="60" y1="410" x2="610" y2="410" stroke="#333333" stroke-width="1" />
  <line x1="60" y1="410" x2="60" y2="415" stroke="#333333" stroke-width="1" />
  <text x="60" y="428" text-anchor="middle" font-family="system-ui, sans-serif" font-size="12" fill="#222222">0</text>
  <line x1="143.485" y1="410" x2="143.485" y2="415" stroke="#333333" stroke-width="1" />
  <text x="143.485" y="428" text-anchor="middle" font-family="system-ui, sans-serif" font-size="12" fill="#222222">20</text>
  <line x1="226.97" y1="410" x2="226.97" y2="415" stroke="#333333" stroke-width="1" />
  <text x="226.97" y="428" text-anchor="middle" font-family="system-ui, sans-serif" font-size="12" fill="#222222">40</text>
  <line x1="310.455" y1="410" x2="310.455" y2="415" stroke="#333333" stroke-width="1" />
  <text x="310.455" y="428" text-anchor="middle" font-family="system-ui, sans-serif" font-size="12" fill="#222222">60</text>
  <line x1="393.94" y1="410" x2="393.94" y2="415" stroke="#333333" stroke-width="1" />
  <text x="393.94" y="428" text-anchor="middle" font-family="system-ui, sans-serif" font-size="12" fill="#222222">80</text>
  <line x1="477.426" y1="410" x2="477.426" y2="415" stroke="#333333" stroke-width="1" />
  <text x="477.426" y="428" text-anchor="middle" font-family="system-ui, sans-serif" font-size="12" fill="#222222">100</text>
  <line x1="560.911" y1="410" x2="560.911" y2="415" stroke="#333333" stroke-width="1" />
  <text x="560.911" y="428" text-anchor="middle" font-family="system-ui, sans-serif" font-size="12" fill="#222222">120</text>
  <text x="335" y="448" text-anchor="middle" font-family="system-ui, sans-serif" font-size="12" fill="#222222">Amount</text>
  <line x1="60" y1="66" x2="60" y2="410" stroke="#333333" stroke-width="1" />
  <line x1="55" y1="367" x2="60" y2="367" stroke="#333333" stroke-width="1" />
  <text x="52" y="371" text-anchor="end" font-family="system-ui, sans-serif" font-size="12" fill="#222222">Q1</text>
  <line x1="55" y1="281" x2="60" y2="281" stroke="#333333" stroke-width="1" />
  <text x="52" y="285" text-anchor="end" font-family="system-ui, sans-serif" font-size="12" fill="#222222">Q2</text>
  <line x1="55" y1="195" x2="60" y2="195" stroke="#333333" stroke-width="1" />
  <text x="52" y="199" text-anchor="end" font-family="system-ui, sans-serif" font-size="12" fill="#222222">Q3</text>
  <line x1="55" y1="109" x2="60" y2="109" stroke="#333333" stroke-width="1" />
  <text x="52" y="113" text-anchor="end" font-family="system-ui, sans-serif" font-size="12" fill="#222222">Q4</text>
  <text x="25.6" y="238" text-anchor="middle" transform="rotate(-90 25.6 238)" font-family="system-ui, sans-serif" font-size="12" fill="#222222">Quarter</text>
</g>
<g class="algraf-legends">
  <text x="626" y="70" text-anchor="start" font-family="system-ui, sans-serif" font-size="12" fill="#222222">type</text>
  <rect x="626" y="78" width="12" height="12" fill="#4E79A7" />
  <text x="644" y="88" text-anchor="start" font-family="system-ui, sans-serif" font-size="12" fill="#222222">software</text>
  <rect x="626" y="96" width="12" height="12" fill="#F28E2B" />
  <text x="644" y="106" text-anchor="start" font-family="system-ui, sans-serif" font-size="12" fill="#222222">services</text>
  <rect x="626" y="114" width="12" height="12" fill="#E15759" />
  <text x="644" y="124" text-anchor="start" font-family="system-ui, sans-serif" font-size="12" fill="#222222">hardware</text>
</g>
</svg>
