<svg xmlns="http://www.w3.org/2000/svg" width="720" height="460" viewBox="0 0 720 460" role="img" aria-label="Height distribution by group">
<title>Height distribution by group</title>
<rect class="algraf-background" x="0" y="0" width="720" height="460" fill="#ffffff" />
<text class="algraf-title" x="104" y="24" font-family="system-ui, sans-serif" font-size="18" font-weight="600" fill="#222222">Height distribution by group</text>
<rect class="algraf-plot-area" x="104" y="66" width="466" height="344" fill="#ffffff" />
<g class="algraf-grid">
  <line x1="180.774" y1="66" x2="180.774" y2="410" stroke="#f2f2f2" stroke-width="0.6" />
  <line x1="270.046" y1="66" x2="270.046" y2="410" stroke="#f2f2f2" stroke-width="0.6" />
  <line x1="359.318" y1="66" x2="359.318" y2="410" stroke="#f2f2f2" stroke-width="0.6" />
  <line x1="448.59" y1="66" x2="448.59" y2="410" stroke="#f2f2f2" stroke-width="0.6" />
  <line x1="136.138" y1="66" x2="136.138" y2="410" stroke="#e6e6e6" stroke-width="1" />
  <line x1="225.41" y1="66" x2="225.41" y2="410" stroke="#e6e6e6" stroke-width="1" />
  <line x1="314.682" y1="66" x2="314.682" y2="410" stroke="#e6e6e6" stroke-width="1" />
  <line x1="403.954" y1="66" x2="403.954" y2="410" stroke="#e6e6e6" stroke-width="1" />
  <line x1="493.226" y1="66" x2="493.226" y2="410" stroke="#e6e6e6" stroke-width="1" />
</g>
<g class="algraf-layer algraf-geom-boxplot">
  <line x1="136.138" y1="352.667" x2="323.609" y2="352.667" stroke="#333333" stroke-width="1" opacity="0.78" />
  <line x1="136.138" y1="339.824" x2="136.138" y2="365.509" stroke="#333333" stroke-width="1" opacity="0.78" />
  <line x1="323.609" y1="339.824" x2="323.609" y2="365.509" stroke="#333333" stroke-width="1" opacity="0.78" />
  <rect x="178.989" y="320.56" width="101.77" height="64.213" fill="#4E79A7" stroke="#333333" stroke-width="1" opacity="0.78" />
  <line x1="228.981" y1="320.56" x2="228.981" y2="384.773" stroke="#333333" stroke-width="1" opacity="0.78" />
  <line x1="402.169" y1="238" x2="537.862" y2="238" stroke="#333333" stroke-width="1" opacity="0.78" />
  <line x1="402.169" y1="225.157" x2="402.169" y2="250.843" stroke="#333333" stroke-width="1" opacity="0.78" />
  <line x1="537.862" y1="225.157" x2="537.862" y2="250.843" stroke="#333333" stroke-width="1" opacity="0.78" />
  <rect x="418.238" y="205.893" width="78.559" height="64.213" fill="#F28E2B" stroke="#333333" stroke-width="1" opacity="0.78" />
  <line x1="457.517" y1="205.893" x2="457.517" y2="270.107" stroke="#333333" stroke-width="1" opacity="0.78" />
  <line x1="293.257" y1="123.333" x2="395.027" y2="123.333" stroke="#333333" stroke-width="1" opacity="0.78" />
  <line x1="293.257" y1="110.491" x2="293.257" y2="136.176" stroke="#333333" stroke-width="1" opacity="0.78" />
  <line x1="395.027" y1="110.491" x2="395.027" y2="136.176" stroke="#333333" stroke-width="1" opacity="0.78" />
  <rect x="303.969" y="91.227" width="50.885" height="64.213" fill="#E15759" stroke="#333333" stroke-width="1" opacity="0.78" />
  <line x1="314.682" y1="91.227" x2="314.682" y2="155.44" stroke="#333333" stroke-width="1" opacity="0.78" />
</g>
<g class="algraf-axes">
  <line x1="104" y1="410" x2="570" y2="410" stroke="#333333" stroke-width="1" />
  <line x1="136.138" y1="410" x2="136.138" y2="415" stroke="#333333" stroke-width="1" />
  <text x="136.138" y="428" text-anchor="middle" font-family="system-ui, sans-serif" font-size="12" fill="#222222">160</text>
  <line x1="225.41" y1="410" x2="225.41" y2="415" stroke="#333333" stroke-width="1" />
  <text x="225.41" y="428" text-anchor="middle" font-family="system-ui, sans-serif" font-size="12" fill="#222222">165</text>
  <line x1="314.682" y1="410" x2="314.682" y2="415" stroke="#333333" stroke-width="1" />
  <text x="314.682" y="428" text-anchor="middle" font-family="system-ui, sans-serif" font-size="12" fill="#222222">170</text>
  <line x1="403.954" y1="410" x2="403.954" y2="415" stroke="#333333" stroke-width="1" />
  <text x="403.954" y="428" text-anchor="middle" font-family="system-ui, sans-serif" font-size="12" fill="#222222">175</text>
  <line x1="493.226" y1="410" x2="493.226" y2="415" stroke="#333333" stroke-width="1" />
  <text x="493.226" y="428" text-anchor="middle" font-family="system-ui, sans-serif" font-size="12" fill="#222222">180</text>
  <text x="337" y="448" text-anchor="middle" font-family="system-ui, sans-serif" font-size="12" fill="#222222">Height</text>
  <line x1="104" y1="66" x2="104" y2="410" stroke="#333333" stroke-width="1" />
  <line x1="99" y1="352.667" x2="104" y2="352.667" stroke="#333333" stroke-width="1" />
  <text x="96" y="356.667" text-anchor="end" font-family="system-ui, sans-serif" font-size="12" fill="#222222">Female</text>
  <line x1="99" y1="238" x2="104" y2="238" stroke="#333333" stroke-width="1" />
  <text x="96" y="242" text-anchor="end" font-family="system-ui, sans-serif" font-size="12" fill="#222222">Male</text>
  <line x1="99" y1="123.333" x2="104" y2="123.333" stroke="#333333" stroke-width="1" />
  <text x="96" y="127.333" text-anchor="end" font-family="system-ui, sans-serif" font-size="12" fill="#222222">Non-binary</text>
  <text x="12" y="238" text-anchor="middle" transform="rotate(-90 12 238)" font-family="system-ui, sans-serif" font-size="12" fill="#222222">Group</text>
</g>
<g class="algraf-legends">
  <text x="586" y="70" text-anchor="start" font-family="system-ui, sans-serif" font-size="12" fill="#222222">gender</text>
  <rect x="586" y="78" width="12" height="12" fill="#4E79A7" />
  <text x="604" y="88" text-anchor="start" font-family="system-ui, sans-serif" font-size="12" fill="#222222">Female</text>
  <rect x="586" y="96" width="12" height="12" fill="#F28E2B" />
  <text x="604" y="106" text-anchor="start" font-family="system-ui, sans-serif" font-size="12" fill="#222222">Male</text>
  <rect x="586" y="114" width="12" height="12" fill="#E15759" />
  <text x="604" y="124" text-anchor="start" font-family="system-ui, sans-serif" font-size="12" fill="#222222">Non-binary</text>
</g>
</svg>
