<svg xmlns="http://www.w3.org/2000/svg" width="760" height="460" viewBox="0 0 760 460" role="img" aria-label="Quarterly composition by type">
<title>Quarterly composition by type</title>
<rect class="algraf-background" x="0" y="0" width="760" height="460" fill="#ffffff" />
<text class="algraf-title" x="60" y="24" font-family="system-ui, sans-serif" font-size="18" font-weight="600" fill="#222222">Quarterly composition by type</text>
<rect class="algraf-plot-area" x="60" y="66" width="550" height="344" fill="#ffffff" />
<g class="algraf-grid">
  <line x1="335" y1="66" x2="335" y2="410" stroke="#f2f2f2" stroke-width="0.6" />
  <line x1="60" y1="66" x2="60" y2="410" stroke="#e6e6e6" stroke-width="1" />
  <line x1="610" y1="66" x2="610" y2="410" stroke="#e6e6e6" stroke-width="1" />
</g>
<defs>
<clipPath id="algraf-clip-0"><rect x="60" y="66" width="550" height="344" /></clipPath>
</defs>
<g clip-path="url(#algraf-clip-0)">
  <g class="algraf-layer algraf-geom-bar">
    <rect x="60" y="332.6" width="275" height="68.8" fill="#4E79A7" opacity="0.88" />
    <rect x="335" y="332.6" width="157.143" height="68.8" fill="#F28E2B" opacity="0.88" />
    <rect x="492.143" y="332.6" width="117.857" height="68.8" fill="#E15759" opacity="0.88" />
    <rect x="60" y="246.6" width="280.978" height="68.8" fill="#4E79A7" opacity="0.88" />
    <rect x="340.978" y="246.6" width="173.37" height="68.8" fill="#F28E2B" opacity="0.88" />
    <rect x="514.348" y="246.6" width="95.652" height="68.8" fill="#E15759" opacity="0.88" />
    <rect x="60" y="160.6" width="277.619" height="68.8" fill="#4E79A7" opacity="0.88" />
    <rect x="337.619" y="160.6" width="162.381" height="68.8" fill="#F28E2B" opacity="0.88" />
    <rect x="500" y="160.6" width="110" height="68.8" fill="#E15759" opacity="0.88" />
    <rect x="60" y="74.6" width="275" height="68.8" fill="#4E79A7" opacity="0.88" />
    <rect x="335" y="74.6" width="162.295" height="68.8" fill="#F28E2B" opacity="0.88" />
    <rect x="497.295" y="74.6" width="112.705" height="68.8" fill="#E15759" opacity="0.88" />
  </g>
</g>
<g class="algraf-axes">
  <line x1="60" y1="410" x2="610" y2="410" stroke="#333333" stroke-width="1" />
  <line x1="60" y1="410" x2="60" y2="415" stroke="#333333" stroke-width="1" />
  <text x="60" y="428" text-anchor="middle" font-family="system-ui, sans-serif" font-size="12" fill="#222222">0</text>
  <line x1="610" y1="410" x2="610" y2="415" stroke="#333333" stroke-width="1" />
  <text x="610" y="428" text-anchor="middle" font-family="system-ui, sans-serif" font-size="12" fill="#222222">1</text>
  <text x="335" y="448" text-anchor="middle" font-family="system-ui, sans-serif" font-size="12" fill="#222222">Share</text>
  <line x1="60" y1="66" x2="60" y2="410" stroke="#333333" stroke-width="1" />
  <line x1="55" y1="367" x2="60" y2="367" stroke="#333333" stroke-width="1" />
  <text x="52" y="371" text-anchor="end" font-family="system-ui, sans-serif" font-size="12" fill="#222222">Q1</text>
  <line x1="55" y1="281" x2="60" y2="281" stroke="#333333" stroke-width="1" />
  <text x="52" y="285" text-anchor="end" font-family="system-ui, sans-serif" font-size="12" fill="#222222">Q2</text>
  <line x1="55" y1="195" x2="60" y2="195" stroke="#333333" stroke-width="1" />
  <text x="52" y="199" text-anchor="end" font-family="system-ui, sans-serif" font-size="12" fill="#222222">Q3</text>
  <line x1="55" y1="109" x2="60" y2="109" stroke="#333333" stroke-width="1" />
  <text x="52" y="113" text-anchor="end" font-family="system-ui, sans-serif" font-size="12" fill="#222222">Q4</text>
  <text x="25.6" y="238" text-anchor="middle" transform="rotate(-90 25.6 238)" font-family="system-ui, sans-serif" font-size="12" fill="#222222">Quarter</text>
</g>
<g class="algraf-legends">
  <text x="626" y="70" text-anchor="start" font-family="system-ui, sans-serif" font-size="12" fill="#222222">type</text>
  <rect x="626" y="78" width="12" height="12" fill="#E15759" />
  <text x="644" y="88" text-anchor="start" font-family="system-ui, sans-serif" font-size="12" fill="#222222">hardware</text>
  <rect x="626" y="96" width="12" height="12" fill="#F28E2B" />
  <text x="644" y="106" text-anchor="start" font-family="system-ui, sans-serif" font-size="12" fill="#222222">services</text>
  <rect x="626" y="114" width="12" height="12" fill="#4E79A7" />
  <text x="644" y="124" text-anchor="start" font-family="system-ui, sans-serif" font-size="12" fill="#222222">software</text>
</g>
</svg>
