<svg xmlns="http://www.w3.org/2000/svg" width="760" height="460" viewBox="0 0 760 460" role="img">
<rect class="algraf-background" x="0" y="0" width="760" height="460" fill="#ffffff" />
<rect class="algraf-plot-area" x="60" y="40" width="550" height="370" fill="#ffffff" />
<g class="algraf-grid">
  <line x1="60" y1="40" x2="60" y2="410" stroke="#e6e6e6" stroke-width="1" />
  <line x1="202.083" y1="40" x2="202.083" y2="410" stroke="#e6e6e6" stroke-width="1" />
  <line x1="330.417" y1="40" x2="330.417" y2="410" stroke="#e6e6e6" stroke-width="1" />
  <line x1="472.5" y1="40" x2="472.5" y2="410" stroke="#e6e6e6" stroke-width="1" />
  <line x1="610" y1="40" x2="610" y2="410" stroke="#e6e6e6" stroke-width="1" />
  <line x1="60" y1="384.483" x2="610" y2="384.483" stroke="#e6e6e6" stroke-width="1" />
  <line x1="60" y1="335.411" x2="610" y2="335.411" stroke="#e6e6e6" stroke-width="1" />
  <line x1="60" y1="286.34" x2="610" y2="286.34" stroke="#e6e6e6" stroke-width="1" />
  <line x1="60" y1="237.268" x2="610" y2="237.268" stroke="#e6e6e6" stroke-width="1" />
  <line x1="60" y1="188.196" x2="610" y2="188.196" stroke="#e6e6e6" stroke-width="1" />
  <line x1="60" y1="139.125" x2="610" y2="139.125" stroke="#e6e6e6" stroke-width="1" />
  <line x1="60" y1="90.053" x2="610" y2="90.053" stroke="#e6e6e6" stroke-width="1" />
  <line x1="60" y1="40.981" x2="610" y2="40.981" stroke="#e6e6e6" stroke-width="1" />
</g>
<g class="algraf-layer algraf-geom-line">
  <path d="M60 286.34 L202.083 212.732 L330.417 139.125 L472.5 188.196 L610 65.517" fill="none" stroke="#4E79A7" stroke-width="2" opacity="1" />
  <path d="M60 384.483 L202.083 335.411 L330.417 359.947 L472.5 261.804 L610 163.66" fill="none" stroke="#F28E2B" stroke-width="2" opacity="1" />
</g>
<g class="algraf-axes">
  <line x1="60" y1="410" x2="610" y2="410" stroke="#333333" stroke-width="1" />
  <line x1="60" y1="410" x2="60" y2="415" stroke="#333333" stroke-width="1" />
  <text x="60" y="428" text-anchor="middle" font-family="system-ui, sans-serif" font-size="12" fill="#222222">2026-01-01</text>
  <line x1="202.083" y1="410" x2="202.083" y2="415" stroke="#333333" stroke-width="1" />
  <text x="202.083" y="428" text-anchor="middle" font-family="system-ui, sans-serif" font-size="12" fill="#222222">2026-02-01</text>
  <line x1="330.417" y1="410" x2="330.417" y2="415" stroke="#333333" stroke-width="1" />
  <text x="330.417" y="428" text-anchor="middle" font-family="system-ui, sans-serif" font-size="12" fill="#222222">2026-03-01</text>
  <line x1="472.5" y1="410" x2="472.5" y2="415" stroke="#333333" stroke-width="1" />
  <text x="472.5" y="428" text-anchor="middle" font-family="system-ui, sans-serif" font-size="12" fill="#222222">2026-04-01</text>
  <line x1="610" y1="410" x2="610" y2="415" stroke="#333333" stroke-width="1" />
  <text x="610" y="428" text-anchor="middle" font-family="system-ui, sans-serif" font-size="12" fill="#222222">2026-05-01</text>
  <text x="335" y="448" text-anchor="middle" font-family="system-ui, sans-serif" font-size="12" fill="#222222">day</text>
  <line x1="60" y1="40" x2="60" y2="410" stroke="#333333" stroke-width="1" />
  <line x1="55" y1="384.483" x2="60" y2="384.483" stroke="#333333" stroke-width="1" />
  <text x="52" y="388.483" text-anchor="end" font-family="system-ui, sans-serif" font-size="12" fill="#222222">8</text>
  <line x1="55" y1="335.411" x2="60" y2="335.411" stroke="#333333" stroke-width="1" />
  <text x="52" y="339.411" text-anchor="end" font-family="system-ui, sans-serif" font-size="12" fill="#222222">10</text>
  <line x1="55" y1="286.34" x2="60" y2="286.34" stroke="#333333" stroke-width="1" />
  <text x="52" y="290.34" text-anchor="end" font-family="system-ui, sans-serif" font-size="12" fill="#222222">12</text>
  <line x1="55" y1="237.268" x2="60" y2="237.268" stroke="#333333" stroke-width="1" />
  <text x="52" y="241.268" text-anchor="end" font-family="system-ui, sans-serif" font-size="12" fill="#222222">14</text>
  <line x1="55" y1="188.196" x2="60" y2="188.196" stroke="#333333" stroke-width="1" />
  <text x="52" y="192.196" text-anchor="end" font-family="system-ui, sans-serif" font-size="12" fill="#222222">16</text>
  <line x1="55" y1="139.125" x2="60" y2="139.125" stroke="#333333" stroke-width="1" />
  <text x="52" y="143.125" text-anchor="end" font-family="system-ui, sans-serif" font-size="12" fill="#222222">18</text>
  <line x1="55" y1="90.053" x2="60" y2="90.053" stroke="#333333" stroke-width="1" />
  <text x="52" y="94.053" text-anchor="end" font-family="system-ui, sans-serif" font-size="12" fill="#222222">20</text>
  <line x1="55" y1="40.981" x2="60" y2="40.981" stroke="#333333" stroke-width="1" />
  <text x="52" y="44.981" text-anchor="end" font-family="system-ui, sans-serif" font-size="12" fill="#222222">22</text>
  <text x="25.6" y="225" text-anchor="middle" transform="rotate(-90 25.6 225)" font-family="system-ui, sans-serif" font-size="12" fill="#222222">value</text>
</g>
<g class="algraf-legends">
  <text x="626" y="44" text-anchor="start" font-family="system-ui, sans-serif" font-size="12" fill="#222222">series</text>
  <rect x="626" y="52" width="12" height="12" fill="#4E79A7" />
  <text x="644" y="62" text-anchor="start" font-family="system-ui, sans-serif" font-size="12" fill="#222222">north</text>
  <rect x="626" y="70" width="12" height="12" fill="#F28E2B" />
  <text x="644" y="80" text-anchor="start" font-family="system-ui, sans-serif" font-size="12" fill="#222222">south</text>
</g>
</svg>
