<svg xmlns="http://www.w3.org/2000/svg" width="760" height="460" viewBox="0 0 760 460" role="img">
<rect class="algraf-background" x="0" y="0" width="760" height="460" fill="#ffffff" />
<rect class="algraf-plot-area" x="60" y="40" width="550" height="370" fill="#ffffff" />
<g class="algraf-grid">
  <line x1="60" y1="40" x2="60" y2="410" stroke="#e6e6e6" stroke-width="1" />
  <line x1="170" y1="40" x2="170" y2="410" stroke="#e6e6e6" stroke-width="1" />
  <line x1="280" y1="40" x2="280" y2="410" stroke="#e6e6e6" stroke-width="1" />
  <line x1="390" y1="40" x2="390" y2="410" stroke="#e6e6e6" stroke-width="1" />
  <line x1="500" y1="40" x2="500" y2="410" stroke="#e6e6e6" stroke-width="1" />
  <line x1="610" y1="40" x2="610" y2="410" stroke="#e6e6e6" stroke-width="1" />
  <line x1="60" y1="410" x2="610" y2="410" stroke="#e6e6e6" stroke-width="1" />
  <line x1="60" y1="353.077" x2="610" y2="353.077" stroke="#e6e6e6" stroke-width="1" />
  <line x1="60" y1="296.154" x2="610" y2="296.154" stroke="#e6e6e6" stroke-width="1" />
  <line x1="60" y1="239.231" x2="610" y2="239.231" stroke="#e6e6e6" stroke-width="1" />
  <line x1="60" y1="182.308" x2="610" y2="182.308" stroke="#e6e6e6" stroke-width="1" />
  <line x1="60" y1="125.385" x2="610" y2="125.385" stroke="#e6e6e6" stroke-width="1" />
  <line x1="60" y1="68.462" x2="610" y2="68.462" stroke="#e6e6e6" stroke-width="1" />
</g>
<g class="algraf-layer algraf-geom-line">
  <path d="M60 296.154 L202.083 210.769 L330.417 125.385 L472.5 182.308 L610 40" fill="none" stroke="#4E79A7" stroke-width="2" opacity="1" />
  <path d="M60 410 L202.083 353.077 L330.417 381.538 L472.5 267.692 L610 153.846" fill="none" stroke="#F28E2B" stroke-width="2" opacity="1" />
</g>
<g class="algraf-axes">
  <line x1="60" y1="410" x2="610" y2="410" stroke="#333333" stroke-width="1" />
  <line x1="60" y1="410" x2="60" y2="415" stroke="#333333" stroke-width="1" />
  <text x="60" y="428" text-anchor="middle" font-family="system-ui, sans-serif" font-size="12" fill="#222222">2026-01-01</text>
  <line x1="170" y1="410" x2="170" y2="415" stroke="#333333" stroke-width="1" />
  <text x="170" y="428" text-anchor="middle" font-family="system-ui, sans-serif" font-size="12" fill="#222222">2026-01-25</text>
  <line x1="280" y1="410" x2="280" y2="415" stroke="#333333" stroke-width="1" />
  <text x="280" y="428" text-anchor="middle" font-family="system-ui, sans-serif" font-size="12" fill="#222222">2026-02-18</text>
  <line x1="390" y1="410" x2="390" y2="415" stroke="#333333" stroke-width="1" />
  <text x="390" y="428" text-anchor="middle" font-family="system-ui, sans-serif" font-size="12" fill="#222222">2026-03-14</text>
  <line x1="500" y1="410" x2="500" y2="415" stroke="#333333" stroke-width="1" />
  <text x="500" y="428" text-anchor="middle" font-family="system-ui, sans-serif" font-size="12" fill="#222222">2026-04-07</text>
  <line x1="610" y1="410" x2="610" y2="415" stroke="#333333" stroke-width="1" />
  <text x="610" y="428" text-anchor="middle" font-family="system-ui, sans-serif" font-size="12" fill="#222222">2026-05-01</text>
  <text x="335" y="448" text-anchor="middle" font-family="system-ui, sans-serif" font-size="12" fill="#222222">day</text>
  <line x1="60" y1="40" x2="60" y2="410" stroke="#333333" stroke-width="1" />
  <line x1="55" y1="410" x2="60" y2="410" stroke="#333333" stroke-width="1" />
  <text x="52" y="414" text-anchor="end" font-family="system-ui, sans-serif" font-size="12" fill="#222222">8</text>
  <line x1="55" y1="353.077" x2="60" y2="353.077" stroke="#333333" stroke-width="1" />
  <text x="52" y="357.077" text-anchor="end" font-family="system-ui, sans-serif" font-size="12" fill="#222222">10</text>
  <line x1="55" y1="296.154" x2="60" y2="296.154" stroke="#333333" stroke-width="1" />
  <text x="52" y="300.154" text-anchor="end" font-family="system-ui, sans-serif" font-size="12" fill="#222222">12</text>
  <line x1="55" y1="239.231" x2="60" y2="239.231" stroke="#333333" stroke-width="1" />
  <text x="52" y="243.231" text-anchor="end" font-family="system-ui, sans-serif" font-size="12" fill="#222222">14</text>
  <line x1="55" y1="182.308" x2="60" y2="182.308" stroke="#333333" stroke-width="1" />
  <text x="52" y="186.308" text-anchor="end" font-family="system-ui, sans-serif" font-size="12" fill="#222222">16</text>
  <line x1="55" y1="125.385" x2="60" y2="125.385" stroke="#333333" stroke-width="1" />
  <text x="52" y="129.385" text-anchor="end" font-family="system-ui, sans-serif" font-size="12" fill="#222222">18</text>
  <line x1="55" y1="68.462" x2="60" y2="68.462" stroke="#333333" stroke-width="1" />
  <text x="52" y="72.462" text-anchor="end" font-family="system-ui, sans-serif" font-size="12" fill="#222222">20</text>
  <text x="16" y="225" text-anchor="middle" transform="rotate(-90 16 225)" font-family="system-ui, sans-serif" font-size="12" fill="#222222">value</text>
</g>
<g class="algraf-legends">
  <text x="626" y="44" text-anchor="start" font-family="system-ui, sans-serif" font-size="12" fill="#222222">series</text>
  <rect x="626" y="52" width="12" height="12" fill="#4E79A7" />
  <text x="644" y="62" text-anchor="start" font-family="system-ui, sans-serif" font-size="12" fill="#222222">north</text>
  <rect x="626" y="70" width="12" height="12" fill="#F28E2B" />
  <text x="644" y="80" text-anchor="start" font-family="system-ui, sans-serif" font-size="12" fill="#222222">south</text>
</g>
</svg>
