<svg xmlns="http://www.w3.org/2000/svg" width="760" height="500" viewBox="0 0 760 500" role="img" aria-label="Loess fit with confidence band">
<title>Loess fit with confidence band</title>
<rect class="algraf-background" x="0" y="0" width="760" height="500" fill="#ffffff" />
<text class="algraf-title" x="60.8" y="24" font-family="system-ui, sans-serif" font-size="18" font-weight="600" fill="#222222">Loess fit with confidence band</text>
<rect class="algraf-plot-area" x="60.8" y="66" width="549.2" height="384" fill="#ffffff" />
<g class="algraf-grid">
  <line x1="146.021" y1="66" x2="146.021" y2="450" stroke="#f2f2f2" stroke-width="0.6" />
  <line x1="264.383" y1="66" x2="264.383" y2="450" stroke="#f2f2f2" stroke-width="0.6" />
  <line x1="382.745" y1="66" x2="382.745" y2="450" stroke="#f2f2f2" stroke-width="0.6" />
  <line x1="501.107" y1="66" x2="501.107" y2="450" stroke="#f2f2f2" stroke-width="0.6" />
  <line x1="60.8" y1="376.227" x2="610" y2="376.227" stroke="#f2f2f2" stroke-width="0.6" />
  <line x1="60.8" y1="297.409" x2="610" y2="297.409" stroke="#f2f2f2" stroke-width="0.6" />
  <line x1="60.8" y1="218.591" x2="610" y2="218.591" stroke="#f2f2f2" stroke-width="0.6" />
  <line x1="60.8" y1="139.773" x2="610" y2="139.773" stroke="#f2f2f2" stroke-width="0.6" />
  <line x1="86.84" y1="66" x2="86.84" y2="450" stroke="#e6e6e6" stroke-width="1" />
  <line x1="205.202" y1="66" x2="205.202" y2="450" stroke="#e6e6e6" stroke-width="1" />
  <line x1="323.564" y1="66" x2="323.564" y2="450" stroke="#e6e6e6" stroke-width="1" />
  <line x1="441.926" y1="66" x2="441.926" y2="450" stroke="#e6e6e6" stroke-width="1" />
  <line x1="560.288" y1="66" x2="560.288" y2="450" stroke="#e6e6e6" stroke-width="1" />
  <line x1="60.8" y1="415.635" x2="610" y2="415.635" stroke="#e6e6e6" stroke-width="1" />
  <line x1="60.8" y1="336.818" x2="610" y2="336.818" stroke="#e6e6e6" stroke-width="1" />
  <line x1="60.8" y1="258" x2="610" y2="258" stroke="#e6e6e6" stroke-width="1" />
  <line x1="60.8" y1="179.182" x2="610" y2="179.182" stroke="#e6e6e6" stroke-width="1" />
  <line x1="60.8" y1="100.365" x2="610" y2="100.365" stroke="#e6e6e6" stroke-width="1" />
</g>
<g class="algraf-layer algraf-geom-point">
  <circle cx="98.676" cy="376.227" r="3" fill="#4E79A7" opacity="0.55" />
  <circle cx="157.857" cy="368.345" r="3" fill="#4E79A7" opacity="0.55" />
  <circle cx="264.383" cy="273.764" r="3" fill="#4E79A7" opacity="0.55" />
  <circle cx="240.71" cy="423.517" r="3" fill="#F28E2B" opacity="0.55" />
  <circle cx="288.055" cy="388.049" r="3" fill="#F28E2B" opacity="0.55" />
  <circle cx="335.4" cy="289.527" r="3" fill="#F28E2B" opacity="0.55" />
  <circle cx="441.926" cy="226.473" r="3" fill="#E15759" opacity="0.55" />
  <circle cx="512.943" cy="179.182" r="3" fill="#E15759" opacity="0.55" />
  <circle cx="572.124" cy="92.483" r="3" fill="#E15759" opacity="0.55" />
</g>
<g class="algraf-layer algraf-geom-smooth">
  <path d="M98.676 305.398 L104.669 308.016 L110.662 310.53 L116.655 312.933 L122.648 315.219 L128.641 317.378 L134.634 319.401 L140.627 321.272 L146.62 322.977 L152.613 324.494 L158.606 325.8 L164.599 326.863 L170.592 327.65 L176.585 328.115 L182.578 328.198 L188.571 327.806 L194.564 326.802 L200.557 325.03 L206.55 322.641 L212.543 321.075 L218.536 321.572 L224.529 321.884 L230.522 321.698 L236.515 320.986 L242.508 319.792 L248.501 318.124 L254.494 315.949 L260.487 313.238 L266.48 309.97 L272.473 306.359 L278.466 302.507 L284.459 297.808 L290.452 291.783 L296.445 284.089 L302.438 275.655 L308.431 270.756 L314.424 270.15 L320.417 269.242 L326.41 266.781 L332.403 263.122 L338.397 258.214 L344.39 252.605 L350.383 246.883 L356.376 241.044 L362.369 235.078 L368.362 228.993 L374.355 222.808 L380.348 217.007 L386.341 213.545 L392.334 211.668 L398.327 209.573 L404.32 206.725 L410.313 201.459 L416.306 194.268 L422.299 189.578 L428.292 185.973 L434.285 182.087 L440.278 177.953 L446.271 173.596 L452.264 169.039 L458.257 164.298 L464.25 159.379 L470.243 154.279 L476.236 148.996 L482.229 143.526 L488.222 137.863 L494.215 132.004 L500.208 125.946 L506.201 119.687 L512.194 113.228 L518.187 106.569 L524.18 99.711 L530.173 92.655 L536.166 85.405 L542.159 77.964 L548.152 70.335 L554.145 62.524 L560.138 54.535 L566.131 46.373 L572.124 38.044 L572.124 175.047 L566.131 177.933 L560.138 180.917 L554.145 184.003 L548.152 187.202 L542.159 190.519 L536.166 193.965 L530.173 197.546 L524.18 201.271 L518.187 205.147 L512.194 209.183 L506.201 213.384 L500.208 217.752 L494.215 222.29 L488.222 226.994 L482.229 231.865 L476.236 236.899 L470.243 242.095 L464.25 247.452 L458.257 252.975 L452.264 258.675 L446.271 264.565 L440.278 270.648 L434.285 276.854 L428.292 282.915 L422.299 288.361 L416.306 292.989 L410.313 296.515 L404.32 300.059 L398.327 305.451 L392.334 311.482 L386.341 317.707 L380.348 322.656 L374.355 325.44 L368.362 327.379 L362.369 329.641 L356.376 332.191 L350.383 334.985 L344.39 338.019 L338.397 341.302 L332.403 345.099 L326.41 349.689 L320.417 355.173 L314.424 361.858 L308.431 368.935 L302.438 373.214 L296.445 375.528 L290.452 378.787 L284.459 381.886 L278.466 384.161 L272.473 385.906 L266.48 388.368 L260.487 391.487 L254.494 394.761 L248.501 398.12 L242.508 401.487 L236.515 404.777 L230.522 407.896 L224.529 410.842 L218.536 413.913 L212.543 415.974 L206.55 414.92 L200.557 412.957 L194.564 411.911 L188.571 411.886 L182.578 412.613 L176.585 413.872 L170.592 415.523 L164.599 417.475 L158.606 419.667 L152.613 422.055 L146.62 424.606 L140.627 427.296 L134.634 430.107 L128.641 433.025 L122.648 436.04 L116.655 439.143 L110.662 442.328 L104.669 445.592 L98.676 448.933 Z" fill="#999999" stroke="none" opacity="0.2" />
  <path d="M98.676 377.165 L104.669 376.804 L110.662 376.429 L116.655 376.038 L122.648 375.629 L128.641 375.202 L134.634 374.754 L140.627 374.284 L146.62 373.791 L152.613 373.274 L158.606 372.733 L164.599 372.169 L170.592 371.587 L176.585 370.994 L182.578 370.405 L188.571 369.846 L194.564 369.357 L200.557 368.993 L206.55 368.781 L212.543 368.525 L218.536 367.742 L224.529 366.363 L230.522 364.797 L236.515 362.882 L242.508 360.64 L248.501 358.122 L254.494 355.355 L260.487 352.362 L266.48 349.169 L272.473 346.132 L278.466 343.334 L284.459 339.847 L290.452 335.285 L296.445 329.809 L302.438 324.434 L308.431 319.846 L314.424 316.004 L320.417 312.207 L326.41 308.235 L332.403 304.111 L338.397 299.758 L344.39 295.312 L350.383 290.934 L356.376 286.618 L362.369 282.359 L368.362 278.186 L374.355 274.124 L380.348 269.832 L386.341 265.626 L392.334 261.575 L398.327 257.512 L404.32 253.392 L410.313 248.987 L416.306 243.628 L422.299 238.969 L428.292 234.444 L434.285 229.471 L440.278 224.301 L446.271 219.08 L452.264 213.857 L458.257 208.637 L464.25 203.415 L470.243 198.187 L476.236 192.948 L482.229 187.696 L488.222 182.429 L494.215 177.147 L500.208 171.849 L506.201 166.535 L512.194 161.205 L518.187 155.858 L524.18 150.491 L530.173 145.101 L536.166 139.685 L542.159 134.242 L548.152 128.768 L554.145 123.264 L560.138 117.726 L566.131 112.153 L572.124 106.545" fill="none" stroke="#222222" stroke-width="2" opacity="1" />
</g>
<g class="algraf-axes">
  <line x1="60.8" y1="450" x2="610" y2="450" stroke="#333333" stroke-width="1" />
  <line x1="86.84" y1="450" x2="86.84" y2="455" stroke="#333333" stroke-width="1" />
  <text x="86.84" y="468" text-anchor="middle" font-family="system-ui, sans-serif" font-size="12" fill="#222222">180</text>
  <line x1="205.202" y1="450" x2="205.202" y2="455" stroke="#333333" stroke-width="1" />
  <text x="205.202" y="468" text-anchor="middle" font-family="system-ui, sans-serif" font-size="12" fill="#222222">190</text>
  <line x1="323.564" y1="450" x2="323.564" y2="455" stroke="#333333" stroke-width="1" />
  <text x="323.564" y="468" text-anchor="middle" font-family="system-ui, sans-serif" font-size="12" fill="#222222">200</text>
  <line x1="441.926" y1="450" x2="441.926" y2="455" stroke="#333333" stroke-width="1" />
  <text x="441.926" y="468" text-anchor="middle" font-family="system-ui, sans-serif" font-size="12" fill="#222222">210</text>
  <line x1="560.288" y1="450" x2="560.288" y2="455" stroke="#333333" stroke-width="1" />
  <text x="560.288" y="468" text-anchor="middle" font-family="system-ui, sans-serif" font-size="12" fill="#222222">220</text>
  <text x="335.4" y="488" text-anchor="middle" font-family="system-ui, sans-serif" font-size="12" fill="#222222">flipper length</text>
  <line x1="60.8" y1="66" x2="60.8" y2="450" stroke="#333333" stroke-width="1" />
  <line x1="55.8" y1="415.635" x2="60.8" y2="415.635" stroke="#333333" stroke-width="1" />
  <text x="52.8" y="419.635" text-anchor="end" font-family="system-ui, sans-serif" font-size="12" fill="#222222">3500</text>
  <line x1="55.8" y1="336.818" x2="60.8" y2="336.818" stroke="#333333" stroke-width="1" />
  <text x="52.8" y="340.818" text-anchor="end" font-family="system-ui, sans-serif" font-size="12" fill="#222222">4000</text>
  <line x1="55.8" y1="258" x2="60.8" y2="258" stroke="#333333" stroke-width="1" />
  <text x="52.8" y="262" text-anchor="end" font-family="system-ui, sans-serif" font-size="12" fill="#222222">4500</text>
  <line x1="55.8" y1="179.182" x2="60.8" y2="179.182" stroke="#333333" stroke-width="1" />
  <text x="52.8" y="183.182" text-anchor="end" font-family="system-ui, sans-serif" font-size="12" fill="#222222">5000</text>
  <line x1="55.8" y1="100.365" x2="60.8" y2="100.365" stroke="#333333" stroke-width="1" />
  <text x="52.8" y="104.365" text-anchor="end" font-family="system-ui, sans-serif" font-size="12" fill="#222222">5500</text>
  <text x="12" y="258" text-anchor="middle" transform="rotate(-90 12 258)" font-family="system-ui, sans-serif" font-size="12" fill="#222222">body mass</text>
</g>
<g class="algraf-legends">
  <text x="626" y="70" text-anchor="start" font-family="system-ui, sans-serif" font-size="12" fill="#222222">species</text>
  <rect x="626" y="78" width="12" height="12" fill="#4E79A7" />
  <text x="644" y="88" text-anchor="start" font-family="system-ui, sans-serif" font-size="12" fill="#222222">Adelie</text>
  <rect x="626" y="96" width="12" height="12" fill="#F28E2B" />
  <text x="644" y="106" text-anchor="start" font-family="system-ui, sans-serif" font-size="12" fill="#222222">Chinstrap</text>
  <rect x="626" y="114" width="12" height="12" fill="#E15759" />
  <text x="644" y="124" text-anchor="start" font-family="system-ui, sans-serif" font-size="12" fill="#222222">Gentoo</text>
</g>
</svg>
