<svg xmlns="http://www.w3.org/2000/svg" width="700" height="450" viewBox="0 0 700 450" role="img" aria-label="Programming Language Popularity">
<title>Programming Language Popularity</title>
<rect class="algraf-background" x="0" y="0" width="700" height="450" fill="#ffffff" />
<text class="algraf-title" x="60" y="24" font-family="system-ui, sans-serif" font-size="18" font-weight="600" fill="#222222">Programming Language Popularity</text>
<rect class="algraf-plot-area" x="60" y="66" width="464" height="334" fill="#ffffff" />
<g class="algraf-grid">
  <line x1="60" y1="372.583" x2="524" y2="372.583" stroke="#f2f2f2" stroke-width="0.6" />
  <line x1="60" y1="317.75" x2="524" y2="317.75" stroke="#f2f2f2" stroke-width="0.6" />
  <line x1="60" y1="262.917" x2="524" y2="262.917" stroke="#f2f2f2" stroke-width="0.6" />
  <line x1="60" y1="208.084" x2="524" y2="208.084" stroke="#f2f2f2" stroke-width="0.6" />
  <line x1="60" y1="153.251" x2="524" y2="153.251" stroke="#f2f2f2" stroke-width="0.6" />
  <line x1="60" y1="98.417" x2="524" y2="98.417" stroke="#f2f2f2" stroke-width="0.6" />
  <line x1="60" y1="400" x2="524" y2="400" stroke="#e6e6e6" stroke-width="1" />
  <line x1="60" y1="345.167" x2="524" y2="345.167" stroke="#e6e6e6" stroke-width="1" />
  <line x1="60" y1="290.334" x2="524" y2="290.334" stroke="#e6e6e6" stroke-width="1" />
  <line x1="60" y1="235.5" x2="524" y2="235.5" stroke="#e6e6e6" stroke-width="1" />
  <line x1="60" y1="180.667" x2="524" y2="180.667" stroke="#e6e6e6" stroke-width="1" />
  <line x1="60" y1="125.834" x2="524" y2="125.834" stroke="#e6e6e6" stroke-width="1" />
  <line x1="60" y1="71.001" x2="524" y2="71.001" stroke="#e6e6e6" stroke-width="1" />
</g>
<g class="algraf-layer algraf-geom-bar">
  <rect x="64.64" y="90.741" width="37.12" height="309.259" fill="#f3f3f3" stroke="#dddddd" stroke-width="1.5" opacity="1" />
  <rect x="111.04" y="219.05" width="37.12" height="180.95" fill="#f3f3f3" stroke="#dddddd" stroke-width="1.5" opacity="1" />
  <rect x="157.44" y="289.237" width="37.12" height="110.763" fill="#f3f3f3" stroke="#dddddd" stroke-width="1.5" opacity="1" />
  <rect x="203.84" y="325.427" width="37.12" height="74.573" fill="#f3f3f3" stroke="#dddddd" stroke-width="1.5" opacity="1" />
  <rect x="250.24" y="335.297" width="37.12" height="64.703" fill="#f3f3f3" stroke="#dddddd" stroke-width="1.5" opacity="1" />
  <rect x="296.64" y="342.973" width="37.12" height="57.027" fill="#f3f3f3" stroke="#dddddd" stroke-width="1.5" opacity="1" />
  <rect x="343.04" y="358.327" width="37.12" height="41.673" fill="#f3f3f3" stroke="#dddddd" stroke-width="1.5" opacity="1" />
  <rect x="389.44" y="376.97" width="37.12" height="23.03" fill="#f3f3f3" stroke="#dddddd" stroke-width="1.5" opacity="1" />
  <rect x="435.84" y="380.26" width="37.12" height="19.74" fill="#f3f3f3" stroke="#dddddd" stroke-width="1.5" opacity="1" />
  <rect x="482.24" y="383.55" width="37.12" height="16.45" fill="#f3f3f3" stroke="#dddddd" stroke-width="1.5" opacity="1" />
</g>
<g class="algraf-layer algraf-geom-point">
  <circle cx="83.2" cy="90.741" r="9" fill="#006BA4" opacity="1" />
  <circle cx="129.6" cy="219.05" r="9" fill="#FF800E" opacity="1" />
  <circle cx="176" cy="289.237" r="9" fill="#006BA4" opacity="1" />
  <circle cx="222.4" cy="325.427" r="9" fill="#006BA4" opacity="1" />
  <circle cx="268.8" cy="335.297" r="9" fill="#FF800E" opacity="1" />
  <circle cx="315.2" cy="342.973" r="9" fill="#006BA4" opacity="1" />
  <circle cx="361.6" cy="358.327" r="9" fill="#006BA4" opacity="1" />
  <circle cx="408" cy="376.97" r="9" fill="#ABABAB" opacity="1" />
  <circle cx="454.4" cy="380.26" r="9" fill="#595959" opacity="1" />
  <circle cx="500.8" cy="383.55" r="9" fill="#FF800E" opacity="1" />
</g>
<g class="algraf-axes">
  <line x1="60" y1="400" x2="524" y2="400" stroke="#333333" stroke-width="1" />
  <line x1="83.2" y1="400" x2="83.2" y2="405" stroke="#333333" stroke-width="1" />
  <text x="83.2" y="418" text-anchor="middle" font-family="system-ui, sans-serif" font-size="12" fill="#222222">Python</text>
  <line x1="129.6" y1="400" x2="129.6" y2="405" stroke="#333333" stroke-width="1" />
  <text x="129.6" y="418" text-anchor="middle" font-family="system-ui, sans-serif" font-size="12" fill="#222222">Java</text>
  <line x1="176" y1="400" x2="176" y2="405" stroke="#333333" stroke-width="1" />
  <line x1="222.4" y1="400" x2="222.4" y2="405" stroke="#333333" stroke-width="1" />
  <text x="222.4" y="418" text-anchor="middle" font-family="system-ui, sans-serif" font-size="12" fill="#222222">C++</text>
  <line x1="268.8" y1="400" x2="268.8" y2="405" stroke="#333333" stroke-width="1" />
  <text x="268.8" y="418" text-anchor="middle" font-family="system-ui, sans-serif" font-size="12" fill="#222222">C#</text>
  <line x1="315.2" y1="400" x2="315.2" y2="405" stroke="#333333" stroke-width="1" />
  <text x="315.2" y="418" text-anchor="middle" font-family="system-ui, sans-serif" font-size="12" fill="#222222">PHP</text>
  <line x1="361.6" y1="400" x2="361.6" y2="405" stroke="#333333" stroke-width="1" />
  <line x1="408" y1="400" x2="408" y2="405" stroke="#333333" stroke-width="1" />
  <text x="408" y="418" text-anchor="middle" font-family="system-ui, sans-serif" font-size="12" fill="#222222">Go</text>
  <line x1="454.4" y1="400" x2="454.4" y2="405" stroke="#333333" stroke-width="1" />
  <text x="454.4" y="418" text-anchor="middle" font-family="system-ui, sans-serif" font-size="12" fill="#222222">Rust</text>
  <line x1="500.8" y1="400" x2="500.8" y2="405" stroke="#333333" stroke-width="1" />
  <text x="500.8" y="418" text-anchor="middle" font-family="system-ui, sans-serif" font-size="12" fill="#222222">Kotlin</text>
  <text x="292" y="438" text-anchor="middle" font-family="system-ui, sans-serif" font-size="12" fill="#222222">Programming Language</text>
  <line x1="60" y1="66" x2="60" y2="400" stroke="#333333" stroke-width="1" />
  <line x1="55" y1="400" x2="60" y2="400" stroke="#333333" stroke-width="1" />
  <text x="52" y="404" text-anchor="end" font-family="system-ui, sans-serif" font-size="12" fill="#222222">0</text>
  <line x1="55" y1="345.167" x2="60" y2="345.167" stroke="#333333" stroke-width="1" />
  <text x="52" y="349.167" text-anchor="end" font-family="system-ui, sans-serif" font-size="12" fill="#222222">5</text>
  <line x1="55" y1="290.334" x2="60" y2="290.334" stroke="#333333" stroke-width="1" />
  <text x="52" y="294.334" text-anchor="end" font-family="system-ui, sans-serif" font-size="12" fill="#222222">10</text>
  <line x1="55" y1="235.5" x2="60" y2="235.5" stroke="#333333" stroke-width="1" />
  <text x="52" y="239.5" text-anchor="end" font-family="system-ui, sans-serif" font-size="12" fill="#222222">15</text>
  <line x1="55" y1="180.667" x2="60" y2="180.667" stroke="#333333" stroke-width="1" />
  <text x="52" y="184.667" text-anchor="end" font-family="system-ui, sans-serif" font-size="12" fill="#222222">20</text>
  <line x1="55" y1="125.834" x2="60" y2="125.834" stroke="#333333" stroke-width="1" />
  <text x="52" y="129.834" text-anchor="end" font-family="system-ui, sans-serif" font-size="12" fill="#222222">25</text>
  <line x1="55" y1="71.001" x2="60" y2="71.001" stroke="#333333" stroke-width="1" />
  <text x="52" y="75.001" text-anchor="end" font-family="system-ui, sans-serif" font-size="12" fill="#222222">30</text>
  <text x="25.6" y="233" text-anchor="middle" transform="rotate(-90 25.6 233)" font-family="system-ui, sans-serif" font-size="12" fill="#222222">Share (%)</text>
</g>
<g class="algraf-legends">
  <text x="540" y="70" text-anchor="start" font-family="system-ui, sans-serif" font-size="12" fill="#222222">paradigm</text>
  <rect x="540" y="78" width="12" height="12" fill="#006BA4" />
  <text x="558" y="88" text-anchor="start" font-family="system-ui, sans-serif" font-size="12" fill="#222222">Multi-paradigm</text>
  <rect x="540" y="96" width="12" height="12" fill="#FF800E" />
  <text x="558" y="106" text-anchor="start" font-family="system-ui, sans-serif" font-size="12" fill="#222222">Object-oriented</text>
  <rect x="540" y="114" width="12" height="12" fill="#ABABAB" />
  <text x="558" y="124" text-anchor="start" font-family="system-ui, sans-serif" font-size="12" fill="#222222">Concurrent</text>
  <rect x="540" y="132" width="12" height="12" fill="#595959" />
  <text x="558" y="142" text-anchor="start" font-family="system-ui, sans-serif" font-size="12" fill="#222222">Systems</text>
</g>
</svg>
