<svg xmlns="http://www.w3.org/2000/svg" width="800" height="520" viewBox="0 0 800 520" role="img" aria-label="Manual colors and renamed legend">
<title>Manual colors and renamed legend</title>
<rect class="algraf-background" x="0" y="0" width="800" height="520" fill="#ffffff" />
<text class="algraf-title" x="60" y="24" font-family="system-ui, sans-serif" font-size="18" font-weight="600" fill="#222222">Manual colors and renamed legend</text>
<rect class="algraf-plot-area" x="60" y="66" width="590" height="404" fill="#ffffff" />
<g class="algraf-grid">
  <line x1="87.974" y1="66" x2="87.974" y2="470" stroke="#e6e6e6" stroke-width="1" />
  <line x1="215.129" y1="66" x2="215.129" y2="470" stroke="#e6e6e6" stroke-width="1" />
  <line x1="342.284" y1="66" x2="342.284" y2="470" stroke="#e6e6e6" stroke-width="1" />
  <line x1="469.44" y1="66" x2="469.44" y2="470" stroke="#e6e6e6" stroke-width="1" />
  <line x1="596.595" y1="66" x2="596.595" y2="470" stroke="#e6e6e6" stroke-width="1" />
  <line x1="60" y1="433.846" x2="650" y2="433.846" stroke="#e6e6e6" stroke-width="1" />
  <line x1="60" y1="350.923" x2="650" y2="350.923" stroke="#e6e6e6" stroke-width="1" />
  <line x1="60" y1="268" x2="650" y2="268" stroke="#e6e6e6" stroke-width="1" />
  <line x1="60" y1="185.077" x2="650" y2="185.077" stroke="#e6e6e6" stroke-width="1" />
  <line x1="60" y1="102.154" x2="650" y2="102.154" stroke="#e6e6e6" stroke-width="1" />
</g>
<g class="algraf-layer algraf-geom-point">
  <circle cx="100.69" cy="392.384" r="3" fill="#4E79A7" opacity="0.8" />
  <circle cx="164.267" cy="384.092" r="3" fill="#4E79A7" opacity="0.8" />
  <circle cx="278.707" cy="284.585" r="3" fill="#4E79A7" opacity="0.8" />
  <circle cx="253.276" cy="442.138" r="3" fill="#E15759" opacity="0.8" />
  <circle cx="304.138" cy="404.823" r="3" fill="#E15759" opacity="0.8" />
  <circle cx="355" cy="301.169" r="3" fill="#E15759" opacity="0.8" />
  <circle cx="469.44" cy="234.831" r="3" fill="#59A14F" opacity="0.8" />
  <circle cx="545.733" cy="185.077" r="3" fill="#59A14F" opacity="0.8" />
  <circle cx="609.31" cy="93.862" r="3" fill="#59A14F" opacity="0.8" />
</g>
<g class="algraf-axes">
  <line x1="60" y1="470" x2="650" y2="470" stroke="#333333" stroke-width="1" />
  <line x1="87.974" y1="470" x2="87.974" y2="475" stroke="#333333" stroke-width="1" />
  <text x="87.974" y="488" text-anchor="middle" font-family="system-ui, sans-serif" font-size="12" fill="#222222">180</text>
  <line x1="215.129" y1="470" x2="215.129" y2="475" stroke="#333333" stroke-width="1" />
  <text x="215.129" y="488" text-anchor="middle" font-family="system-ui, sans-serif" font-size="12" fill="#222222">190</text>
  <line x1="342.284" y1="470" x2="342.284" y2="475" stroke="#333333" stroke-width="1" />
  <text x="342.284" y="488" text-anchor="middle" font-family="system-ui, sans-serif" font-size="12" fill="#222222">200</text>
  <line x1="469.44" y1="470" x2="469.44" y2="475" stroke="#333333" stroke-width="1" />
  <text x="469.44" y="488" text-anchor="middle" font-family="system-ui, sans-serif" font-size="12" fill="#222222">210</text>
  <line x1="596.595" y1="470" x2="596.595" y2="475" stroke="#333333" stroke-width="1" />
  <text x="596.595" y="488" text-anchor="middle" font-family="system-ui, sans-serif" font-size="12" fill="#222222">220</text>
  <text x="355" y="508" text-anchor="middle" font-family="system-ui, sans-serif" font-size="12" fill="#222222">flipper length</text>
  <line x1="60" y1="66" x2="60" y2="470" stroke="#333333" stroke-width="1" />
  <line x1="55" y1="433.846" x2="60" y2="433.846" stroke="#333333" stroke-width="1" />
  <text x="52" y="437.846" text-anchor="end" font-family="system-ui, sans-serif" font-size="12" fill="#222222">3500</text>
  <line x1="55" y1="350.923" x2="60" y2="350.923" stroke="#333333" stroke-width="1" />
  <text x="52" y="354.923" text-anchor="end" font-family="system-ui, sans-serif" font-size="12" fill="#222222">4000</text>
  <line x1="55" y1="268" x2="60" y2="268" stroke="#333333" stroke-width="1" />
  <text x="52" y="272" text-anchor="end" font-family="system-ui, sans-serif" font-size="12" fill="#222222">4500</text>
  <line x1="55" y1="185.077" x2="60" y2="185.077" stroke="#333333" stroke-width="1" />
  <text x="52" y="189.077" text-anchor="end" font-family="system-ui, sans-serif" font-size="12" fill="#222222">5000</text>
  <line x1="55" y1="102.154" x2="60" y2="102.154" stroke="#333333" stroke-width="1" />
  <text x="52" y="106.154" text-anchor="end" font-family="system-ui, sans-serif" font-size="12" fill="#222222">5500</text>
  <text x="17.2" y="268" text-anchor="middle" transform="rotate(-90 17.2 268)" font-family="system-ui, sans-serif" font-size="12" fill="#222222">body mass</text>
</g>
<g class="algraf-legends">
  <text x="666" y="70" text-anchor="start" font-family="system-ui, sans-serif" font-size="12" fill="#222222">Species</text>
  <rect x="666" y="78" width="12" height="12" fill="#4E79A7" />
  <text x="684" y="88" text-anchor="start" font-family="system-ui, sans-serif" font-size="12" fill="#222222">Adélie</text>
  <rect x="666" y="96" width="12" height="12" fill="#E15759" />
  <text x="684" y="106" text-anchor="start" font-family="system-ui, sans-serif" font-size="12" fill="#222222">Chinstrap</text>
  <rect x="666" y="114" width="12" height="12" fill="#59A14F" />
  <text x="684" y="124" text-anchor="start" font-family="system-ui, sans-serif" font-size="12" fill="#222222">Gentoo</text>
</g>
</svg>
