<svg xmlns="http://www.w3.org/2000/svg" width="800" height="520" viewBox="0 0 800 520" role="img" aria-label="Napoleon's Russian Campaign">
<title>Napoleon's Russian Campaign</title>
<desc>Inspired by the graphic of C.J. Minard</desc>
<rect class="algraf-background" x="0" y="0" width="800" height="520" fill="#ffffff" />
<text class="algraf-title" x="60" y="24" font-family="system-ui, sans-serif" font-size="18" font-weight="600" fill="#222222">Napoleon's Russian Campaign</text>
<text class="algraf-subtitle" x="60" y="50" font-family="system-ui, sans-serif" font-size="12" fill="#222222">Inspired by the graphic of C.J. Minard</text>
<rect class="algraf-plot-area" x="60" y="82" width="580" height="388" fill="#ffffff" />
<g class="algraf-grid">
  <line x1="100" y1="82" x2="100" y2="470" stroke="#e6e6e6" stroke-width="1" />
  <line x1="172.993" y1="82" x2="172.993" y2="470" stroke="#e6e6e6" stroke-width="1" />
  <line x1="245.985" y1="82" x2="245.985" y2="470" stroke="#e6e6e6" stroke-width="1" />
  <line x1="318.978" y1="82" x2="318.978" y2="470" stroke="#e6e6e6" stroke-width="1" />
  <line x1="391.971" y1="82" x2="391.971" y2="470" stroke="#e6e6e6" stroke-width="1" />
  <line x1="464.964" y1="82" x2="464.964" y2="470" stroke="#e6e6e6" stroke-width="1" />
  <line x1="537.956" y1="82" x2="537.956" y2="470" stroke="#e6e6e6" stroke-width="1" />
  <line x1="610.949" y1="82" x2="610.949" y2="470" stroke="#e6e6e6" stroke-width="1" />
  <line x1="60" y1="425.637" x2="640" y2="425.637" stroke="#e6e6e6" stroke-width="1" />
  <line x1="60" y1="337.615" x2="640" y2="337.615" stroke="#e6e6e6" stroke-width="1" />
  <line x1="60" y1="249.593" x2="640" y2="249.593" stroke="#e6e6e6" stroke-width="1" />
  <line x1="60" y1="161.572" x2="640" y2="161.572" stroke="#e6e6e6" stroke-width="1" />
</g>
<g class="algraf-layer algraf-geom-path">
  <line x1="100" y1="267.198" x2="118.248" y2="249.593" stroke="burlywood" stroke-width="30" stroke-linecap="round" opacity="1" />
  <line x1="118.248" y1="249.593" x2="154.745" y2="337.615" stroke="burlywood" stroke-width="30" stroke-linecap="round" opacity="1" />
  <line x1="154.745" y1="337.615" x2="172.993" y2="302.407" stroke="burlywood" stroke-width="29.118" stroke-linecap="round" opacity="1" />
  <line x1="172.993" y1="302.407" x2="209.489" y2="284.802" stroke="burlywood" stroke-width="27.353" stroke-linecap="round" opacity="1" />
  <line x1="209.489" y1="284.802" x2="245.985" y2="267.198" stroke="burlywood" stroke-width="25.588" stroke-linecap="round" opacity="1" />
  <line x1="245.985" y1="267.198" x2="264.234" y2="249.593" stroke="burlywood" stroke-width="22.941" stroke-linecap="round" opacity="1" />
  <line x1="264.234" y1="249.593" x2="282.482" y2="231.989" stroke="burlywood" stroke-width="19.853" stroke-linecap="round" opacity="1" />
  <line x1="282.482" y1="231.989" x2="318.978" y2="214.385" stroke="burlywood" stroke-width="17.206" stroke-linecap="round" opacity="1" />
  <line x1="318.978" y1="214.385" x2="329.927" y2="196.78" stroke="burlywood" stroke-width="15.662" stroke-linecap="round" opacity="1" />
  <line x1="329.927" y1="196.78" x2="391.971" y2="284.802" stroke="burlywood" stroke-width="14.118" stroke-linecap="round" opacity="1" />
  <line x1="391.971" y1="284.802" x2="435.766" y2="267.198" stroke="burlywood" stroke-width="12.574" stroke-linecap="round" opacity="1" />
  <line x1="435.766" y1="267.198" x2="479.562" y2="161.572" stroke="burlywood" stroke-width="11.784" stroke-linecap="round" opacity="1" />
  <line x1="479.562" y1="161.572" x2="519.708" y2="179.176" stroke="burlywood" stroke-width="10.019" stroke-linecap="round" opacity="1" />
  <line x1="519.708" y1="179.176" x2="537.956" y2="161.572" stroke="burlywood" stroke-width="8.824" stroke-linecap="round" opacity="1" />
  <line x1="537.956" y1="161.572" x2="596.35" y2="108.759" stroke="burlywood" stroke-width="8.824" stroke-linecap="round" opacity="1" />
  <line x1="596.35" y1="108.759" x2="600" y2="126.363" stroke="burlywood" stroke-width="8.824" stroke-linecap="round" opacity="1" />
  <line x1="600" y1="126.363" x2="592.701" y2="126.363" stroke="black" stroke-width="8.735" stroke-linecap="round" opacity="1" />
  <line x1="592.701" y1="126.363" x2="574.453" y2="249.593" stroke="black" stroke-width="8.603" stroke-linecap="round" opacity="1" />
  <line x1="574.453" y1="249.593" x2="567.153" y2="249.593" stroke="black" stroke-width="8.515" stroke-linecap="round" opacity="1" />
  <line x1="567.153" y1="249.593" x2="516.058" y2="196.78" stroke="black" stroke-width="8.074" stroke-linecap="round" opacity="1" />
  <line x1="516.058" y1="196.78" x2="475.912" y2="214.385" stroke="black" stroke-width="6.265" stroke-linecap="round" opacity="1" />
  <line x1="475.912" y1="214.385" x2="439.416" y2="284.802" stroke="black" stroke-width="4.059" stroke-linecap="round" opacity="1" />
  <line x1="439.416" y1="284.802" x2="391.971" y2="320.011" stroke="black" stroke-width="2.691" stroke-linecap="round" opacity="1" />
  <line x1="391.971" y1="320.011" x2="333.577" y2="355.22" stroke="black" stroke-width="1.941" stroke-linecap="round" opacity="1" />
  <line x1="333.577" y1="355.22" x2="289.781" y2="372.824" stroke="black" stroke-width="1.765" stroke-linecap="round" opacity="1" />
  <line x1="289.781" y1="372.824" x2="264.234" y2="390.428" stroke="black" stroke-width="1.765" stroke-linecap="round" opacity="1" />
  <line x1="264.234" y1="390.428" x2="256.934" y2="372.824" stroke="black" stroke-width="1.765" stroke-linecap="round" opacity="1" />
  <line x1="256.934" y1="372.824" x2="227.737" y2="337.615" stroke="black" stroke-width="1.765" stroke-linecap="round" opacity="1" />
  <line x1="227.737" y1="337.615" x2="202.19" y2="372.824" stroke="black" stroke-width="1.412" stroke-linecap="round" opacity="1" />
  <line x1="202.19" y1="372.824" x2="187.591" y2="355.22" stroke="black" stroke-width="1.147" stroke-linecap="round" opacity="1" />
  <line x1="187.591" y1="355.22" x2="136.496" y2="355.22" stroke="black" stroke-width="0.971" stroke-linecap="round" opacity="1" />
  <line x1="136.496" y1="355.22" x2="114.599" y2="355.22" stroke="black" stroke-width="0.529" stroke-linecap="round" opacity="1" />
  <line x1="114.599" y1="355.22" x2="107.299" y2="355.22" stroke="black" stroke-width="0.353" stroke-linecap="round" opacity="1" />
  <line x1="107.299" y1="355.22" x2="103.65" y2="355.22" stroke="black" stroke-width="0.353" stroke-linecap="round" opacity="1" />
  <line x1="100" y1="231.989" x2="118.248" y2="214.385" stroke="burlywood" stroke-width="5.294" stroke-linecap="round" opacity="1" />
  <line x1="118.248" y1="214.385" x2="154.745" y2="302.407" stroke="burlywood" stroke-width="5.294" stroke-linecap="round" opacity="1" />
  <line x1="154.745" y1="302.407" x2="194.891" y2="126.363" stroke="burlywood" stroke-width="4.412" stroke-linecap="round" opacity="1" />
  <line x1="194.891" y1="126.363" x2="224.088" y2="143.967" stroke="burlywood" stroke-width="3.221" stroke-linecap="round" opacity="1" />
  <line x1="224.088" y1="143.967" x2="271.533" y2="161.572" stroke="burlywood" stroke-width="2.912" stroke-linecap="round" opacity="1" />
  <line x1="271.533" y1="161.572" x2="271.533" y2="161.572" stroke="burlywood" stroke-width="2.912" stroke-linecap="round" opacity="1" />
  <line x1="271.533" y1="161.572" x2="289.781" y2="390.428" stroke="black" stroke-width="2.779" stroke-linecap="round" opacity="1" />
  <line x1="289.781" y1="390.428" x2="264.234" y2="408.033" stroke="black" stroke-width="2.647" stroke-linecap="round" opacity="1" />
  <line x1="264.234" y1="408.033" x2="256.934" y2="390.428" stroke="black" stroke-width="2.559" stroke-linecap="round" opacity="1" />
  <line x1="100" y1="214.385" x2="118.248" y2="196.78" stroke="burlywood" stroke-width="1.941" stroke-linecap="round" opacity="1" />
  <line x1="118.248" y1="196.78" x2="121.898" y2="108.759" stroke="burlywood" stroke-width="1.235" stroke-linecap="round" opacity="1" />
  <line x1="121.898" y1="108.759" x2="121.898" y2="108.759" stroke="burlywood" stroke-width="0.529" stroke-linecap="round" opacity="1" />
  <line x1="121.898" y1="108.759" x2="107.299" y2="355.22" stroke="black" stroke-width="0.529" stroke-linecap="round" opacity="1" />
  <line x1="107.299" y1="355.22" x2="103.65" y2="355.22" stroke="black" stroke-width="0.529" stroke-linecap="round" opacity="1" />
</g>
<g class="algraf-layer algraf-geom-text">
  <text x="100" y="249.593" text-anchor="middle" font-family="system-ui, sans-serif" font-size="6" fill="#222222" opacity="1">Kowno</text>
  <text x="147.445" y="302.407" text-anchor="middle" font-family="system-ui, sans-serif" font-size="6" fill="#222222" opacity="1">Wilna</text>
  <text x="187.591" y="355.22" text-anchor="middle" font-family="system-ui, sans-serif" font-size="6" fill="#222222" opacity="1">Smorgoni</text>
  <text x="202.19" y="372.824" text-anchor="middle" font-family="system-ui, sans-serif" font-size="6" fill="#222222" opacity="1">Moiodexno</text>
  <text x="235.036" y="214.385" text-anchor="middle" font-family="system-ui, sans-serif" font-size="6" fill="#222222" opacity="1">Gloubokoe</text>
  <text x="231.387" y="443.241" text-anchor="middle" font-family="system-ui, sans-serif" font-size="6" fill="#222222" opacity="1">Minsk</text>
  <text x="264.234" y="372.824" text-anchor="middle" font-family="system-ui, sans-serif" font-size="6" fill="#222222" opacity="1">Studienska</text>
  <text x="271.533" y="161.572" text-anchor="middle" font-family="system-ui, sans-serif" font-size="6" fill="#222222" opacity="1">Polotzk</text>
  <text x="289.781" y="355.22" text-anchor="middle" font-family="system-ui, sans-serif" font-size="6" fill="#222222" opacity="1">Bobr</text>
  <text x="326.277" y="196.78" text-anchor="middle" font-family="system-ui, sans-serif" font-size="6" fill="#222222" opacity="1">Witebsk</text>
  <text x="333.577" y="337.615" text-anchor="middle" font-family="system-ui, sans-serif" font-size="6" fill="#222222" opacity="1">Orscha</text>
  <text x="333.577" y="443.241" text-anchor="middle" font-family="system-ui, sans-serif" font-size="6" fill="#222222" opacity="1">Mohilow</text>
  <text x="391.971" y="284.802" text-anchor="middle" font-family="system-ui, sans-serif" font-size="6" fill="#222222" opacity="1">Smolensk</text>
  <text x="435.766" y="267.198" text-anchor="middle" font-family="system-ui, sans-serif" font-size="6" fill="#222222" opacity="1">Dorogobouge</text>
  <text x="475.912" y="214.385" text-anchor="middle" font-family="system-ui, sans-serif" font-size="6" fill="#222222" opacity="1">Wixma</text>
  <text x="479.562" y="161.572" text-anchor="middle" font-family="system-ui, sans-serif" font-size="6" fill="#222222" opacity="1">Chjat</text>
  <text x="537.956" y="161.572" text-anchor="middle" font-family="system-ui, sans-serif" font-size="6" fill="#222222" opacity="1">Mojaisk</text>
  <text x="596.35" y="108.759" text-anchor="middle" font-family="system-ui, sans-serif" font-size="6" fill="#222222" opacity="1">Moscou</text>
  <text x="559.854" y="196.78" text-anchor="middle" font-family="system-ui, sans-serif" font-size="6" fill="#222222" opacity="1">Tarantino</text>
  <text x="556.204" y="249.593" text-anchor="middle" font-family="system-ui, sans-serif" font-size="6" fill="#222222" opacity="1">Malo-Jarosewii</text>
</g>
<g class="algraf-axes">
  <line x1="60" y1="470" x2="640" y2="470" stroke="#333333" stroke-width="1" />
  <line x1="100" y1="470" x2="100" y2="475" stroke="#333333" stroke-width="1" />
  <text x="100" y="488" text-anchor="middle" font-family="system-ui, sans-serif" font-size="12" fill="#222222">24</text>
  <line x1="172.993" y1="470" x2="172.993" y2="475" stroke="#333333" stroke-width="1" />
  <text x="172.993" y="488" text-anchor="middle" font-family="system-ui, sans-serif" font-size="12" fill="#222222">26</text>
  <line x1="245.985" y1="470" x2="245.985" y2="475" stroke="#333333" stroke-width="1" />
  <text x="245.985" y="488" text-anchor="middle" font-family="system-ui, sans-serif" font-size="12" fill="#222222">28</text>
  <line x1="318.978" y1="470" x2="318.978" y2="475" stroke="#333333" stroke-width="1" />
  <text x="318.978" y="488" text-anchor="middle" font-family="system-ui, sans-serif" font-size="12" fill="#222222">30</text>
  <line x1="391.971" y1="470" x2="391.971" y2="475" stroke="#333333" stroke-width="1" />
  <text x="391.971" y="488" text-anchor="middle" font-family="system-ui, sans-serif" font-size="12" fill="#222222">32</text>
  <line x1="464.964" y1="470" x2="464.964" y2="475" stroke="#333333" stroke-width="1" />
  <text x="464.964" y="488" text-anchor="middle" font-family="system-ui, sans-serif" font-size="12" fill="#222222">34</text>
  <line x1="537.956" y1="470" x2="537.956" y2="475" stroke="#333333" stroke-width="1" />
  <text x="537.956" y="488" text-anchor="middle" font-family="system-ui, sans-serif" font-size="12" fill="#222222">36</text>
  <line x1="610.949" y1="470" x2="610.949" y2="475" stroke="#333333" stroke-width="1" />
  <text x="610.949" y="488" text-anchor="middle" font-family="system-ui, sans-serif" font-size="12" fill="#222222">38</text>
  <line x1="60" y1="82" x2="60" y2="470" stroke="#333333" stroke-width="1" />
  <line x1="55" y1="425.637" x2="60" y2="425.637" stroke="#333333" stroke-width="1" />
  <text x="52" y="429.637" text-anchor="end" font-family="system-ui, sans-serif" font-size="12" fill="#222222">54</text>
  <line x1="55" y1="337.615" x2="60" y2="337.615" stroke="#333333" stroke-width="1" />
  <text x="52" y="341.615" text-anchor="end" font-family="system-ui, sans-serif" font-size="12" fill="#222222">54.5</text>
  <line x1="55" y1="249.593" x2="60" y2="249.593" stroke="#333333" stroke-width="1" />
  <text x="52" y="253.593" text-anchor="end" font-family="system-ui, sans-serif" font-size="12" fill="#222222">55</text>
  <line x1="55" y1="161.572" x2="60" y2="161.572" stroke="#333333" stroke-width="1" />
  <text x="52" y="165.572" text-anchor="end" font-family="system-ui, sans-serif" font-size="12" fill="#222222">55.5</text>
</g>
<g class="algraf-legends">
  <text x="656" y="86" text-anchor="start" font-family="system-ui, sans-serif" font-size="12" fill="#222222">Direction</text>
  <rect x="656" y="94" width="12" height="12" fill="burlywood" />
  <text x="674" y="104" text-anchor="start" font-family="system-ui, sans-serif" font-size="12" fill="#222222">Advance</text>
  <rect x="656" y="112" width="12" height="12" fill="black" />
  <text x="674" y="122" text-anchor="start" font-family="system-ui, sans-serif" font-size="12" fill="#222222">Retreat</text>
  <text x="656" y="156" text-anchor="start" font-family="system-ui, sans-serif" font-size="12" fill="#222222">Troops</text>
  <text x="707" y="175" text-anchor="start" font-family="system-ui, sans-serif" font-size="12" fill="#222222">0</text>
  <line x1="656" y1="189" x2="684" y2="189" stroke="#222222" stroke-width="7.5" stroke-linecap="round" />
  <text x="707" y="193" text-anchor="start" font-family="system-ui, sans-serif" font-size="12" fill="#222222">85000</text>
  <line x1="656" y1="208.5" x2="684" y2="208.5" stroke="#222222" stroke-width="15" stroke-linecap="round" />
  <text x="707" y="212.5" text-anchor="start" font-family="system-ui, sans-serif" font-size="12" fill="#222222">170000</text>
  <line x1="656" y1="233.25" x2="684" y2="233.25" stroke="#222222" stroke-width="22.5" stroke-linecap="round" />
  <text x="707" y="237.25" text-anchor="start" font-family="system-ui, sans-serif" font-size="12" fill="#222222">255000</text>
  <line x1="656" y1="265.5" x2="684" y2="265.5" stroke="#222222" stroke-width="30" stroke-linecap="round" />
  <text x="707" y="269.5" text-anchor="start" font-family="system-ui, sans-serif" font-size="12" fill="#222222">340000</text>
</g>
</svg>
