<svg xmlns="http://www.w3.org/2000/svg" width="760" height="460" viewBox="0 0 760 460" role="img" aria-label="Astronaut Age Distribution">
<title>Astronaut Age Distribution</title>
<desc>Overlaid densities of age at selection and age at mission</desc>
<rect class="algraf-background" x="0" y="0" width="760" height="460" fill="#ffffff" />
<text class="algraf-title" x="60.8" y="24" font-family="system-ui, sans-serif" font-size="18" font-weight="600" fill="#222222">Astronaut Age Distribution</text>
<text class="algraf-subtitle" x="60.8" y="50" font-family="system-ui, sans-serif" font-size="12" fill="#222222">Overlaid densities of age at selection and age at mission</text>
<rect class="algraf-plot-area" x="60.8" y="82" width="549.2" height="328" fill="#ffffff" />
<g class="algraf-grid">
  <line x1="139.594" y1="82" x2="139.594" y2="410" stroke="#f2f2f2" stroke-width="0.6" />
  <line x1="215.615" y1="82" x2="215.615" y2="410" stroke="#f2f2f2" stroke-width="0.6" />
  <line x1="291.635" y1="82" x2="291.635" y2="410" stroke="#f2f2f2" stroke-width="0.6" />
  <line x1="367.656" y1="82" x2="367.656" y2="410" stroke="#f2f2f2" stroke-width="0.6" />
  <line x1="443.676" y1="82" x2="443.676" y2="410" stroke="#f2f2f2" stroke-width="0.6" />
  <line x1="519.697" y1="82" x2="519.697" y2="410" stroke="#f2f2f2" stroke-width="0.6" />
  <line x1="60.8" y1="379.793" x2="610" y2="379.793" stroke="#f2f2f2" stroke-width="0.6" />
  <line x1="60.8" y1="319.379" x2="610" y2="319.379" stroke="#f2f2f2" stroke-width="0.6" />
  <line x1="60.8" y1="258.966" x2="610" y2="258.966" stroke="#f2f2f2" stroke-width="0.6" />
  <line x1="60.8" y1="198.552" x2="610" y2="198.552" stroke="#f2f2f2" stroke-width="0.6" />
  <line x1="60.8" y1="138.138" x2="610" y2="138.138" stroke="#f2f2f2" stroke-width="0.6" />
  <line x1="101.584" y1="82" x2="101.584" y2="410" stroke="#e6e6e6" stroke-width="1" />
  <line x1="177.605" y1="82" x2="177.605" y2="410" stroke="#e6e6e6" stroke-width="1" />
  <line x1="253.625" y1="82" x2="253.625" y2="410" stroke="#e6e6e6" stroke-width="1" />
  <line x1="329.646" y1="82" x2="329.646" y2="410" stroke="#e6e6e6" stroke-width="1" />
  <line x1="405.666" y1="82" x2="405.666" y2="410" stroke="#e6e6e6" stroke-width="1" />
  <line x1="481.687" y1="82" x2="481.687" y2="410" stroke="#e6e6e6" stroke-width="1" />
  <line x1="557.707" y1="82" x2="557.707" y2="410" stroke="#e6e6e6" stroke-width="1" />
  <line x1="60.8" y1="410" x2="610" y2="410" stroke="#e6e6e6" stroke-width="1" />
  <line x1="60.8" y1="349.586" x2="610" y2="349.586" stroke="#e6e6e6" stroke-width="1" />
  <line x1="60.8" y1="289.172" x2="610" y2="289.172" stroke="#e6e6e6" stroke-width="1" />
  <line x1="60.8" y1="228.759" x2="610" y2="228.759" stroke="#e6e6e6" stroke-width="1" />
  <line x1="60.8" y1="168.345" x2="610" y2="168.345" stroke="#e6e6e6" stroke-width="1" />
  <line x1="60.8" y1="107.931" x2="610" y2="107.931" stroke="#e6e6e6" stroke-width="1" />
</g>
<g class="algraf-layer algraf-geom-area">
  <path d="M98.676 409.934 L99.981 409.896 L101.285 409.839 L102.59 409.758 L103.895 409.644 L105.199 409.486 L106.504 409.275 L107.809 408.996 L109.114 408.638 L110.418 408.188 L111.723 407.633 L113.028 406.964 L114.333 406.17 L115.637 405.245 L116.942 404.183 L118.247 402.978 L119.551 401.623 L120.856 400.111 L122.161 398.432 L123.466 396.569 L124.77 394.506 L126.075 392.223 L127.38 389.701 L128.685 386.925 L129.989 383.886 L131.294 380.586 L132.599 377.044 L133.903 373.294 L135.208 369.386 L136.513 365.389 L137.818 361.38 L139.122 357.447 L140.427 353.675 L141.732 350.14 L143.036 346.903 L144.341 344.001 L145.646 341.443 L146.951 339.206 L148.255 337.24 L149.56 335.468 L150.865 333.798 L152.17 332.128 L153.474 330.359 L154.779 328.404 L156.084 326.2 L157.388 323.705 L158.693 320.911 L159.998 317.833 L161.303 314.51 L162.607 310.995 L163.912 307.348 L165.217 303.624 L166.522 299.87 L167.826 296.111 L169.131 292.351 L170.436 288.569 L171.74 284.718 L173.045 280.73 L174.35 276.518 L175.655 271.99 L176.959 267.046 L178.264 261.599 L179.569 255.571 L180.873 248.913 L182.178 241.602 L183.483 233.647 L184.788 225.093 L186.092 216.019 L187.397 206.532 L188.702 196.762 L190.007 186.855 L191.311 176.965 L192.616 167.245 L193.921 157.844 L195.225 148.902 L196.53 140.545 L197.835 132.888 L199.14 126.036 L200.444 120.081 L201.749 115.107 L203.054 111.187 L204.359 108.384 L205.663 106.744 L206.968 106.296 L208.273 107.051 L209.577 108.993 L210.882 112.084 L212.187 116.263 L213.492 121.447 L214.796 127.534 L216.101 134.405 L217.406 141.93 L218.71 149.969 L220.015 158.374 L221.32 166.994 L222.625 175.676 L223.929 184.272 L225.234 192.648 L226.539 200.687 L227.844 208.301 L229.148 215.435 L230.453 222.074 L231.758 228.246 L233.062 234.014 L234.367 239.471 L235.672 244.727 L236.977 249.897 L238.281 255.082 L239.586 260.359 L240.891 265.769 L242.196 271.317 L243.5 276.968 L244.805 282.655 L246.11 288.289 L247.414 293.772 L248.719 299.01 L250.024 303.922 L251.329 308.454 L252.633 312.582 L253.938 316.312 L255.243 319.683 L256.548 322.757 L257.852 325.615 L259.157 328.345 L260.462 331.036 L261.766 333.766 L263.071 336.595 L264.376 339.561 L265.681 342.677 L266.985 345.932 L268.29 349.29 L269.595 352.699 L270.899 356.095 L272.204 359.411 L273.509 362.582 L274.814 365.555 L276.118 368.291 L277.423 370.769 L278.728 372.989 L280.033 374.967 L281.337 376.736 L282.642 378.334 L283.947 379.808 L285.251 381.201 L286.556 382.551 L287.861 383.885 L289.166 385.222 L290.47 386.568 L291.775 387.921 L293.08 389.271 L294.385 390.601 L295.689 391.896 L296.994 393.14 L298.299 394.32 L299.603 395.429 L300.908 396.464 L302.213 397.425 L303.518 398.319 L304.822 399.152 L306.127 399.934 L307.432 400.673 L308.736 401.377 L310.041 402.048 L311.346 402.688 L312.651 403.295 L313.955 403.864 L315.26 404.387 L316.565 404.857 L317.87 405.264 L319.174 405.601 L320.479 405.865 L321.784 406.052 L323.088 406.164 L324.393 406.207 L325.698 406.188 L327.003 406.118 L328.307 406.008 L329.612 405.871 L330.917 405.72 L332.222 405.565 L333.526 405.417 L334.831 405.282 L336.136 405.168 L337.44 405.077 L338.745 405.013 L340.05 404.977 L341.355 404.97 L342.659 404.992 L343.964 405.044 L345.269 405.125 L346.573 405.233 L347.878 405.367 L349.183 405.524 L350.488 405.699 L351.792 405.887 L353.097 406.082 L354.402 406.276 L355.707 406.464 L357.011 406.641 L358.316 406.801 L359.621 406.944 L360.925 407.069 L362.23 407.181 L363.535 407.282 L364.84 407.379 L366.144 407.476 L367.449 407.578 L368.754 407.686 L370.059 407.801 L371.363 407.918 L372.668 408.031 L373.973 408.132 L375.277 408.212 L376.582 408.261 L377.887 408.272 L379.192 408.236 L380.496 408.152 L381.801 408.019 L383.106 407.84 L384.41 407.62 L385.715 407.37 L387.02 407.099 L388.325 406.821 L389.629 406.546 L390.934 406.287 L392.239 406.054 L393.544 405.858 L394.848 405.704 L396.153 405.6 L397.458 405.549 L398.762 405.553 L400.067 405.612 L401.372 405.726 L402.677 405.89 L403.981 406.102 L405.286 406.353 L406.591 406.638 L407.896 406.947 L409.2 407.271 L410.505 407.6 L411.81 407.925 L413.114 408.238 L414.419 408.53 L415.724 408.796 L417.029 409.033 L418.333 409.239 L419.638 409.413 L420.943 409.556 L422.247 409.671 L423.552 409.761 L424.857 409.831 L426.162 409.882 L427.466 409.92 L428.771 409.947 L430.076 409.965 L431.381 409.978 L431.381 410 L98.676 410 Z" fill="#beaed4" opacity="0.6" />
  <path d="M109.973 409.967 L111.786 409.949 L113.598 409.922 L115.41 409.883 L117.223 409.829 L119.035 409.756 L120.847 409.656 L122.66 409.527 L124.472 409.36 L126.284 409.151 L128.097 408.894 L129.909 408.585 L131.722 408.223 L133.534 407.807 L135.346 407.338 L137.159 406.822 L138.971 406.265 L140.783 405.675 L142.596 405.062 L144.408 404.436 L146.22 403.807 L148.033 403.184 L149.845 402.575 L151.657 401.985 L153.47 401.419 L155.282 400.88 L157.094 400.372 L158.907 399.898 L160.719 399.46 L162.532 399.061 L164.344 398.705 L166.156 398.395 L167.969 398.131 L169.781 397.911 L171.593 397.73 L173.406 397.576 L175.218 397.434 L177.03 397.282 L178.843 397.095 L180.655 396.842 L182.467 396.492 L184.28 396.012 L186.092 395.371 L187.905 394.543 L189.717 393.504 L191.529 392.238 L193.342 390.734 L195.154 388.99 L196.966 387.005 L198.779 384.786 L200.591 382.34 L202.403 379.678 L204.216 376.808 L206.028 373.737 L207.84 370.471 L209.653 367.012 L211.465 363.362 L213.278 359.518 L215.09 355.481 L216.902 351.248 L218.715 346.821 L220.527 342.206 L222.339 337.41 L224.152 332.448 L225.964 327.34 L227.776 322.112 L229.589 316.797 L231.401 311.435 L233.213 306.069 L235.026 300.747 L236.838 295.522 L238.651 290.442 L240.463 285.555 L242.275 280.901 L244.088 276.508 L245.9 272.393 L247.712 268.556 L249.525 264.979 L251.337 261.63 L253.149 258.462 L254.962 255.422 L256.774 252.45 L258.586 249.491 L260.399 246.5 L262.211 243.45 L264.024 240.334 L265.836 237.168 L267.648 233.994 L269.461 230.878 L271.273 227.902 L273.085 225.159 L274.898 222.746 L276.71 220.754 L278.522 219.261 L280.335 218.32 L282.147 217.96 L283.959 218.179 L285.772 218.948 L287.584 220.214 L289.397 221.906 L291.209 223.944 L293.021 226.248 L294.834 228.745 L296.646 231.38 L298.458 234.113 L300.271 236.924 L302.083 239.809 L303.895 242.779 L305.708 245.847 L307.52 249.029 L309.332 252.334 L311.145 255.761 L312.957 259.296 L314.77 262.914 L316.582 266.577 L318.394 270.239 L320.207 273.849 L322.019 277.358 L323.831 280.718 L325.644 283.889 L327.456 286.845 L329.268 289.568 L331.081 292.058 L332.893 294.332 L334.705 296.419 L336.518 298.365 L338.33 300.228 L340.143 302.073 L341.955 303.972 L343.767 305.996 L345.58 308.211 L347.392 310.673 L349.204 313.426 L351.017 316.494 L352.829 319.884 L354.641 323.584 L356.454 327.563 L358.266 331.777 L360.078 336.167 L361.891 340.67 L363.703 345.217 L365.515 349.741 L367.328 354.177 L369.14 358.468 L370.953 362.563 L372.765 366.421 L374.577 370.01 L376.39 373.305 L378.202 376.294 L380.014 378.971 L381.827 381.338 L383.639 383.406 L385.451 385.192 L387.264 386.721 L389.076 388.021 L390.888 389.127 L392.701 390.075 L394.513 390.903 L396.326 391.648 L398.138 392.347 L399.95 393.033 L401.763 393.731 L403.575 394.466 L405.387 395.252 L407.2 396.097 L409.012 397.004 L410.824 397.968 L412.637 398.978 L414.449 400.02 L416.261 401.075 L418.074 402.124 L419.886 403.146 L421.699 404.122 L423.511 405.035 L425.323 405.872 L427.136 406.624 L428.948 407.284 L430.76 407.853 L432.573 408.332 L434.385 408.727 L436.197 409.046 L438.01 409.299 L439.822 409.494 L441.634 409.642 L443.447 409.751 L445.259 409.83 L447.072 409.887 L448.884 409.926 L450.696 409.952 L452.509 409.97 L454.321 409.982 L456.133 409.989 L457.946 409.993 L459.758 409.996 L461.57 409.998 L463.383 409.999 L465.195 409.999 L467.007 410 L468.82 410 L470.632 410 L472.445 410 L474.257 410 L476.069 410 L477.882 410 L479.694 410 L481.506 410 L483.319 410 L485.131 410 L486.943 409.999 L488.756 409.999 L490.568 409.998 L492.38 409.996 L494.193 409.994 L496.005 409.99 L497.818 409.985 L499.63 409.977 L501.442 409.965 L503.255 409.949 L505.067 409.927 L506.879 409.898 L508.692 409.859 L510.504 409.811 L512.316 409.75 L514.129 409.678 L515.941 409.593 L517.753 409.496 L519.566 409.39 L521.378 409.277 L523.191 409.161 L525.003 409.048 L526.815 408.941 L528.628 408.848 L530.44 408.773 L532.252 408.72 L534.065 408.694 L535.877 408.695 L537.689 408.724 L539.502 408.778 L541.314 408.855 L543.126 408.949 L544.939 409.056 L546.751 409.17 L548.564 409.286 L550.376 409.399 L552.188 409.504 L554.001 409.6 L555.813 409.684 L557.625 409.755 L559.438 409.815 L561.25 409.863 L563.062 409.9 L564.875 409.929 L566.687 409.951 L568.499 409.967 L570.312 409.978 L572.124 409.985 L572.124 410 L109.973 410 Z" fill="#7fc97f" opacity="0.6" />
</g>
<g class="algraf-axes">
  <line x1="60.8" y1="410" x2="610" y2="410" stroke="#333333" stroke-width="1" />
  <line x1="101.584" y1="410" x2="101.584" y2="415" stroke="#333333" stroke-width="1" />
  <text x="101.584" y="428" text-anchor="middle" font-family="system-ui, sans-serif" font-size="12" fill="#222222">20</text>
  <line x1="177.605" y1="410" x2="177.605" y2="415" stroke="#333333" stroke-width="1" />
  <text x="177.605" y="428" text-anchor="middle" font-family="system-ui, sans-serif" font-size="12" fill="#222222">30</text>
  <line x1="253.625" y1="410" x2="253.625" y2="415" stroke="#333333" stroke-width="1" />
  <text x="253.625" y="428" text-anchor="middle" font-family="system-ui, sans-serif" font-size="12" fill="#222222">40</text>
  <line x1="329.646" y1="410" x2="329.646" y2="415" stroke="#333333" stroke-width="1" />
  <text x="329.646" y="428" text-anchor="middle" font-family="system-ui, sans-serif" font-size="12" fill="#222222">50</text>
  <line x1="405.666" y1="410" x2="405.666" y2="415" stroke="#333333" stroke-width="1" />
  <text x="405.666" y="428" text-anchor="middle" font-family="system-ui, sans-serif" font-size="12" fill="#222222">60</text>
  <line x1="481.687" y1="410" x2="481.687" y2="415" stroke="#333333" stroke-width="1" />
  <text x="481.687" y="428" text-anchor="middle" font-family="system-ui, sans-serif" font-size="12" fill="#222222">70</text>
  <line x1="557.707" y1="410" x2="557.707" y2="415" stroke="#333333" stroke-width="1" />
  <text x="557.707" y="428" text-anchor="middle" font-family="system-ui, sans-serif" font-size="12" fill="#222222">80</text>
  <text x="335.4" y="448" text-anchor="middle" font-family="system-ui, sans-serif" font-size="12" fill="#222222">Age of astronaut (years)</text>
  <line x1="60.8" y1="82" x2="60.8" y2="410" stroke="#333333" stroke-width="1" />
  <line x1="55.8" y1="410" x2="60.8" y2="410" stroke="#333333" stroke-width="1" />
  <text x="52.8" y="414" text-anchor="end" font-family="system-ui, sans-serif" font-size="12" fill="#222222">0</text>
  <line x1="55.8" y1="349.586" x2="60.8" y2="349.586" stroke="#333333" stroke-width="1" />
  <text x="52.8" y="353.586" text-anchor="end" font-family="system-ui, sans-serif" font-size="12" fill="#222222">0.02</text>
  <line x1="55.8" y1="289.172" x2="60.8" y2="289.172" stroke="#333333" stroke-width="1" />
  <text x="52.8" y="293.172" text-anchor="end" font-family="system-ui, sans-serif" font-size="12" fill="#222222">0.04</text>
  <line x1="55.8" y1="228.759" x2="60.8" y2="228.759" stroke="#333333" stroke-width="1" />
  <text x="52.8" y="232.759" text-anchor="end" font-family="system-ui, sans-serif" font-size="12" fill="#222222">0.06</text>
  <line x1="55.8" y1="168.345" x2="60.8" y2="168.345" stroke="#333333" stroke-width="1" />
  <text x="52.8" y="172.345" text-anchor="end" font-family="system-ui, sans-serif" font-size="12" fill="#222222">0.08</text>
  <line x1="55.8" y1="107.931" x2="60.8" y2="107.931" stroke="#333333" stroke-width="1" />
  <text x="52.8" y="111.931" text-anchor="end" font-family="system-ui, sans-serif" font-size="12" fill="#222222">0.1</text>
  <text x="12" y="246" text-anchor="middle" transform="rotate(-90 12 246)" font-family="system-ui, sans-serif" font-size="12" fill="#222222">density</text>
</g>
<g class="algraf-legends">
  <rect x="626" y="76" width="12" height="12" fill="#beaed4" />
  <text x="644" y="86" text-anchor="start" font-family="system-ui, sans-serif" font-size="12" fill="#222222">Age at selection</text>
  <rect x="626" y="94" width="12" height="12" fill="#7fc97f" />
  <text x="644" y="104" text-anchor="start" font-family="system-ui, sans-serif" font-size="12" fill="#222222">Age at mission</text>
</g>
</svg>
