<svg xmlns="http://www.w3.org/2000/svg" width="760" height="460" viewBox="0 0 760 460" role="img" aria-label="Astronaut Age Distribution">
<title>Astronaut Age Distribution</title>
<desc>Overlaid densities of age at selection and age at mission</desc>
<rect class="algraf-background" x="0" y="0" width="760" height="460" fill="#ffffff" />
<text class="algraf-title" x="60" y="24" font-family="system-ui, sans-serif" font-size="18" font-weight="600" fill="#222222">Astronaut Age Distribution</text>
<text class="algraf-subtitle" x="60" y="50" font-family="system-ui, sans-serif" font-size="12" fill="#222222">Overlaid densities of age at selection and age at mission</text>
<rect class="algraf-plot-area" x="60" y="82" width="550" height="328" fill="#ffffff" />
<g class="algraf-grid">
  <line x1="100.844" y1="82" x2="100.844" y2="410" stroke="#e6e6e6" stroke-width="1" />
  <line x1="176.975" y1="82" x2="176.975" y2="410" stroke="#e6e6e6" stroke-width="1" />
  <line x1="253.106" y1="82" x2="253.106" y2="410" stroke="#e6e6e6" stroke-width="1" />
  <line x1="329.237" y1="82" x2="329.237" y2="410" stroke="#e6e6e6" stroke-width="1" />
  <line x1="405.368" y1="82" x2="405.368" y2="410" stroke="#e6e6e6" stroke-width="1" />
  <line x1="481.5" y1="82" x2="481.5" y2="410" stroke="#e6e6e6" stroke-width="1" />
  <line x1="557.631" y1="82" x2="557.631" y2="410" stroke="#e6e6e6" stroke-width="1" />
  <line x1="60" y1="410" x2="610" y2="410" stroke="#e6e6e6" stroke-width="1" />
  <line x1="60" y1="349.586" x2="610" y2="349.586" stroke="#e6e6e6" stroke-width="1" />
  <line x1="60" y1="289.172" x2="610" y2="289.172" stroke="#e6e6e6" stroke-width="1" />
  <line x1="60" y1="228.759" x2="610" y2="228.759" stroke="#e6e6e6" stroke-width="1" />
  <line x1="60" y1="168.345" x2="610" y2="168.345" stroke="#e6e6e6" stroke-width="1" />
  <line x1="60" y1="107.931" x2="610" y2="107.931" stroke="#e6e6e6" stroke-width="1" />
</g>
<g class="algraf-layer algraf-geom-area">
  <path d="M97.931 409.934 L99.238 409.896 L100.544 409.839 L101.851 409.758 L103.158 409.644 L104.464 409.486 L105.771 409.275 L107.077 408.996 L108.384 408.638 L109.691 408.188 L110.997 407.633 L112.304 406.964 L113.611 406.17 L114.917 405.245 L116.224 404.183 L117.53 402.978 L118.837 401.623 L120.144 400.111 L121.45 398.432 L122.757 396.569 L124.064 394.506 L125.37 392.223 L126.677 389.701 L127.983 386.925 L129.29 383.886 L130.597 380.586 L131.903 377.044 L133.21 373.294 L134.517 369.386 L135.823 365.389 L137.13 361.38 L138.436 357.447 L139.743 353.675 L141.05 350.14 L142.356 346.903 L143.663 344.001 L144.97 341.443 L146.276 339.206 L147.583 337.24 L148.889 335.468 L150.196 333.798 L151.503 332.128 L152.809 330.359 L154.116 328.404 L155.423 326.2 L156.729 323.705 L158.036 320.911 L159.342 317.833 L160.649 314.51 L161.956 310.995 L163.262 307.348 L164.569 303.624 L165.876 299.87 L167.182 296.111 L168.489 292.351 L169.795 288.569 L171.102 284.718 L172.409 280.73 L173.715 276.518 L175.022 271.99 L176.329 267.046 L177.635 261.599 L178.942 255.571 L180.248 248.913 L181.555 241.602 L182.862 233.647 L184.168 225.093 L185.475 216.019 L186.782 206.532 L188.088 196.762 L189.395 186.855 L190.701 176.965 L192.008 167.245 L193.315 157.844 L194.621 148.902 L195.928 140.545 L197.235 132.888 L198.541 126.036 L199.848 120.081 L201.154 115.107 L202.461 111.187 L203.768 108.384 L205.074 106.744 L206.381 106.296 L207.688 107.051 L208.994 108.993 L210.301 112.084 L211.607 116.263 L212.914 121.447 L214.221 127.534 L215.527 134.405 L216.834 141.93 L218.141 149.969 L219.447 158.374 L220.754 166.994 L222.06 175.676 L223.367 184.272 L224.674 192.648 L225.98 200.687 L227.287 208.301 L228.594 215.435 L229.9 222.074 L231.207 228.246 L232.513 234.014 L233.82 239.471 L235.127 244.727 L236.433 249.897 L237.74 255.082 L239.047 260.359 L240.353 265.769 L241.66 271.317 L242.966 276.968 L244.273 282.655 L245.58 288.289 L246.886 293.772 L248.193 299.01 L249.5 303.922 L250.806 308.454 L252.113 312.582 L253.419 316.312 L254.726 319.683 L256.033 322.757 L257.339 325.615 L258.646 328.345 L259.953 331.036 L261.259 333.766 L262.566 336.595 L263.872 339.561 L265.179 342.677 L266.486 345.932 L267.792 349.29 L269.099 352.699 L270.406 356.095 L271.712 359.411 L273.019 362.582 L274.325 365.555 L275.632 368.291 L276.939 370.769 L278.245 372.989 L279.552 374.967 L280.859 376.736 L282.165 378.334 L283.472 379.808 L284.778 381.201 L286.085 382.551 L287.392 383.885 L288.698 385.222 L290.005 386.568 L291.312 387.921 L292.618 389.271 L293.925 390.601 L295.231 391.896 L296.538 393.14 L297.845 394.32 L299.151 395.429 L300.458 396.464 L301.765 397.425 L303.071 398.319 L304.378 399.152 L305.684 399.934 L306.991 400.673 L308.298 401.377 L309.604 402.048 L310.911 402.688 L312.218 403.295 L313.524 403.864 L314.831 404.387 L316.137 404.857 L317.444 405.264 L318.751 405.601 L320.057 405.865 L321.364 406.052 L322.671 406.164 L323.977 406.207 L325.284 406.188 L326.59 406.118 L327.897 406.008 L329.204 405.871 L330.51 405.72 L331.817 405.565 L333.124 405.417 L334.43 405.282 L335.737 405.168 L337.043 405.077 L338.35 405.013 L339.657 404.977 L340.963 404.97 L342.27 404.992 L343.577 405.044 L344.883 405.125 L346.19 405.233 L347.496 405.367 L348.803 405.524 L350.11 405.699 L351.416 405.887 L352.723 406.082 L354.03 406.276 L355.336 406.464 L356.643 406.641 L357.949 406.801 L359.256 406.944 L360.563 407.069 L361.869 407.181 L363.176 407.282 L364.483 407.379 L365.789 407.476 L367.096 407.578 L368.402 407.686 L369.709 407.801 L371.016 407.918 L372.322 408.031 L373.629 408.132 L374.936 408.212 L376.242 408.261 L377.549 408.272 L378.855 408.236 L380.162 408.152 L381.469 408.019 L382.775 407.84 L384.082 407.62 L385.389 407.37 L386.695 407.099 L388.002 406.821 L389.308 406.546 L390.615 406.287 L391.922 406.054 L393.228 405.858 L394.535 405.704 L395.842 405.6 L397.148 405.549 L398.455 405.553 L399.761 405.612 L401.068 405.726 L402.375 405.89 L403.681 406.102 L404.988 406.353 L406.295 406.638 L407.601 406.947 L408.908 407.271 L410.214 407.6 L411.521 407.925 L412.828 408.238 L414.134 408.53 L415.441 408.796 L416.748 409.033 L418.054 409.239 L419.361 409.413 L420.667 409.556 L421.974 409.671 L423.281 409.761 L424.587 409.831 L425.894 409.882 L427.2 409.92 L428.507 409.947 L429.814 409.965 L431.12 409.978 L431.12 410 L97.931 410 Z" fill="#beaed4" opacity="0.6" />
  <path d="M109.245 409.967 L111.06 409.949 L112.875 409.922 L114.69 409.883 L116.505 409.829 L118.32 409.756 L120.135 409.656 L121.95 409.527 L123.765 409.36 L125.58 409.151 L127.395 408.894 L129.21 408.585 L131.025 408.223 L132.84 407.807 L134.655 407.338 L136.47 406.822 L138.285 406.265 L140.1 405.675 L141.915 405.062 L143.73 404.436 L145.545 403.807 L147.36 403.184 L149.175 402.575 L150.99 401.985 L152.805 401.419 L154.62 400.88 L156.435 400.372 L158.25 399.898 L160.065 399.46 L161.88 399.061 L163.695 398.705 L165.51 398.395 L167.325 398.131 L169.14 397.911 L170.955 397.73 L172.77 397.576 L174.585 397.434 L176.4 397.282 L178.215 397.095 L180.03 396.842 L181.845 396.492 L183.66 396.012 L185.475 395.371 L187.29 394.543 L189.105 393.504 L190.92 392.238 L192.735 390.734 L194.55 388.99 L196.365 387.005 L198.18 384.786 L199.995 382.34 L201.81 379.678 L203.625 376.808 L205.44 373.737 L207.255 370.471 L209.07 367.012 L210.885 363.362 L212.7 359.518 L214.515 355.481 L216.33 351.248 L218.145 346.821 L219.96 342.206 L221.775 337.41 L223.59 332.448 L225.405 327.34 L227.22 322.112 L229.035 316.797 L230.85 311.435 L232.665 306.069 L234.48 300.747 L236.295 295.522 L238.11 290.442 L239.925 285.555 L241.74 280.901 L243.555 276.508 L245.37 272.393 L247.185 268.556 L249 264.979 L250.815 261.63 L252.63 258.462 L254.445 255.422 L256.26 252.45 L258.075 249.491 L259.89 246.5 L261.705 243.45 L263.52 240.334 L265.335 237.168 L267.15 233.994 L268.965 230.878 L270.78 227.902 L272.595 225.159 L274.41 222.746 L276.225 220.754 L278.04 219.261 L279.855 218.32 L281.67 217.96 L283.485 218.179 L285.3 218.948 L287.115 220.214 L288.93 221.906 L290.745 223.944 L292.56 226.248 L294.374 228.745 L296.189 231.38 L298.004 234.113 L299.819 236.924 L301.634 239.809 L303.449 242.779 L305.264 245.847 L307.079 249.029 L308.894 252.334 L310.709 255.761 L312.524 259.296 L314.339 262.914 L316.154 266.577 L317.969 270.239 L319.784 273.849 L321.599 277.358 L323.414 280.718 L325.229 283.889 L327.044 286.845 L328.859 289.568 L330.674 292.058 L332.489 294.332 L334.304 296.419 L336.119 298.365 L337.934 300.228 L339.749 302.073 L341.564 303.972 L343.379 305.996 L345.194 308.211 L347.009 310.673 L348.824 313.426 L350.639 316.494 L352.454 319.884 L354.269 323.584 L356.084 327.563 L357.899 331.777 L359.714 336.167 L361.529 340.67 L363.344 345.217 L365.159 349.741 L366.974 354.177 L368.789 358.468 L370.604 362.563 L372.419 366.421 L374.234 370.01 L376.049 373.305 L377.864 376.294 L379.679 378.971 L381.494 381.338 L383.309 383.406 L385.124 385.192 L386.939 386.721 L388.754 388.021 L390.569 389.127 L392.384 390.075 L394.199 390.903 L396.014 391.648 L397.829 392.347 L399.644 393.033 L401.459 393.731 L403.274 394.466 L405.089 395.252 L406.904 396.097 L408.719 397.004 L410.534 397.968 L412.349 398.978 L414.164 400.02 L415.979 401.075 L417.794 402.124 L419.609 403.146 L421.424 404.122 L423.239 405.035 L425.054 405.872 L426.869 406.624 L428.684 407.284 L430.499 407.853 L432.314 408.332 L434.129 408.727 L435.944 409.046 L437.759 409.299 L439.574 409.494 L441.389 409.642 L443.204 409.751 L445.019 409.83 L446.834 409.887 L448.649 409.926 L450.464 409.952 L452.279 409.97 L454.094 409.982 L455.909 409.989 L457.724 409.993 L459.539 409.996 L461.354 409.998 L463.169 409.999 L464.984 409.999 L466.799 410 L468.614 410 L470.429 410 L472.244 410 L474.059 410 L475.874 410 L477.689 410 L479.504 410 L481.319 410 L483.134 410 L484.949 410 L486.764 409.999 L488.579 409.999 L490.394 409.998 L492.209 409.996 L494.024 409.994 L495.839 409.99 L497.654 409.985 L499.469 409.977 L501.284 409.965 L503.099 409.949 L504.914 409.927 L506.729 409.898 L508.544 409.859 L510.359 409.811 L512.174 409.75 L513.989 409.678 L515.804 409.593 L517.619 409.496 L519.434 409.39 L521.249 409.277 L523.064 409.161 L524.879 409.048 L526.694 408.941 L528.509 408.848 L530.324 408.773 L532.139 408.72 L533.954 408.694 L535.769 408.695 L537.584 408.724 L539.399 408.778 L541.214 408.855 L543.029 408.949 L544.844 409.056 L546.659 409.17 L548.474 409.286 L550.289 409.399 L552.104 409.504 L553.919 409.6 L555.734 409.684 L557.549 409.755 L559.364 409.815 L561.179 409.863 L562.994 409.9 L564.809 409.929 L566.624 409.951 L568.439 409.967 L570.254 409.978 L572.069 409.985 L572.069 410 L109.245 410 Z" fill="#7fc97f" opacity="0.6" />
</g>
<g class="algraf-axes">
  <line x1="60" y1="410" x2="610" y2="410" stroke="#333333" stroke-width="1" />
  <line x1="100.844" y1="410" x2="100.844" y2="415" stroke="#333333" stroke-width="1" />
  <text x="100.844" y="428" text-anchor="middle" font-family="system-ui, sans-serif" font-size="12" fill="#222222">20</text>
  <line x1="176.975" y1="410" x2="176.975" y2="415" stroke="#333333" stroke-width="1" />
  <text x="176.975" y="428" text-anchor="middle" font-family="system-ui, sans-serif" font-size="12" fill="#222222">30</text>
  <line x1="253.106" y1="410" x2="253.106" y2="415" stroke="#333333" stroke-width="1" />
  <text x="253.106" y="428" text-anchor="middle" font-family="system-ui, sans-serif" font-size="12" fill="#222222">40</text>
  <line x1="329.237" y1="410" x2="329.237" y2="415" stroke="#333333" stroke-width="1" />
  <text x="329.237" y="428" text-anchor="middle" font-family="system-ui, sans-serif" font-size="12" fill="#222222">50</text>
  <line x1="405.368" y1="410" x2="405.368" y2="415" stroke="#333333" stroke-width="1" />
  <text x="405.368" y="428" text-anchor="middle" font-family="system-ui, sans-serif" font-size="12" fill="#222222">60</text>
  <line x1="481.5" y1="410" x2="481.5" y2="415" stroke="#333333" stroke-width="1" />
  <text x="481.5" y="428" text-anchor="middle" font-family="system-ui, sans-serif" font-size="12" fill="#222222">70</text>
  <line x1="557.631" y1="410" x2="557.631" y2="415" stroke="#333333" stroke-width="1" />
  <text x="557.631" y="428" text-anchor="middle" font-family="system-ui, sans-serif" font-size="12" fill="#222222">80</text>
  <text x="335" y="448" text-anchor="middle" font-family="system-ui, sans-serif" font-size="12" fill="#222222">Age of astronaut (years)</text>
  <line x1="60" y1="82" x2="60" y2="410" stroke="#333333" stroke-width="1" />
  <line x1="55" y1="410" x2="60" y2="410" stroke="#333333" stroke-width="1" />
  <text x="52" y="414" text-anchor="end" font-family="system-ui, sans-serif" font-size="12" fill="#222222">0</text>
  <line x1="55" y1="349.586" x2="60" y2="349.586" stroke="#333333" stroke-width="1" />
  <text x="52" y="353.586" text-anchor="end" font-family="system-ui, sans-serif" font-size="12" fill="#222222">0.02</text>
  <line x1="55" y1="289.172" x2="60" y2="289.172" stroke="#333333" stroke-width="1" />
  <text x="52" y="293.172" text-anchor="end" font-family="system-ui, sans-serif" font-size="12" fill="#222222">0.04</text>
  <line x1="55" y1="228.759" x2="60" y2="228.759" stroke="#333333" stroke-width="1" />
  <text x="52" y="232.759" text-anchor="end" font-family="system-ui, sans-serif" font-size="12" fill="#222222">0.06</text>
  <line x1="55" y1="168.345" x2="60" y2="168.345" stroke="#333333" stroke-width="1" />
  <text x="52" y="172.345" text-anchor="end" font-family="system-ui, sans-serif" font-size="12" fill="#222222">0.08</text>
  <line x1="55" y1="107.931" x2="60" y2="107.931" stroke="#333333" stroke-width="1" />
  <text x="52" y="111.931" text-anchor="end" font-family="system-ui, sans-serif" font-size="12" fill="#222222">0.1</text>
  <text x="17.2" y="246" text-anchor="middle" transform="rotate(-90 17.2 246)" font-family="system-ui, sans-serif" font-size="12" fill="#222222">density</text>
</g>
<g class="algraf-legends">
  <rect x="626" y="76" width="12" height="12" fill="#beaed4" />
  <text x="644" y="86" text-anchor="start" font-family="system-ui, sans-serif" font-size="12" fill="#222222">Age at selection</text>
  <rect x="626" y="94" width="12" height="12" fill="#7fc97f" />
  <text x="644" y="104" text-anchor="start" font-family="system-ui, sans-serif" font-size="12" fill="#222222">Age at mission</text>
</g>
</svg>
