<svg xmlns="http://www.w3.org/2000/svg" width="760" height="460" viewBox="0 0 760 460" role="img" aria-label="Astronaut Age Distribution">
<title>Astronaut Age Distribution</title>
<desc>Overlaid densities of age at selection and age at mission</desc>
<rect class="algraf-background" x="0" y="0" width="760" height="460" fill="#ffffff" />
<text class="algraf-title" x="60.8" y="24" font-family="system-ui, sans-serif" font-size="18" font-weight="600" fill="#222222">Astronaut Age Distribution</text>
<text class="algraf-subtitle" x="60.8" y="50" font-family="system-ui, sans-serif" font-size="12" fill="#222222">Overlaid densities of age at selection and age at mission</text>
<rect class="algraf-plot-area" x="60.8" y="82" width="516" height="328" fill="#ffffff" />
<g class="algraf-grid">
  <line x1="134.831" y1="82" x2="134.831" y2="410" stroke="#f2f2f2" stroke-width="0.6" />
  <line x1="206.256" y1="82" x2="206.256" y2="410" stroke="#f2f2f2" stroke-width="0.6" />
  <line x1="277.681" y1="82" x2="277.681" y2="410" stroke="#f2f2f2" stroke-width="0.6" />
  <line x1="349.106" y1="82" x2="349.106" y2="410" stroke="#f2f2f2" stroke-width="0.6" />
  <line x1="420.531" y1="82" x2="420.531" y2="410" stroke="#f2f2f2" stroke-width="0.6" />
  <line x1="491.956" y1="82" x2="491.956" y2="410" stroke="#f2f2f2" stroke-width="0.6" />
  <line x1="60.8" y1="379.793" x2="576.8" y2="379.793" stroke="#f2f2f2" stroke-width="0.6" />
  <line x1="60.8" y1="319.379" x2="576.8" y2="319.379" stroke="#f2f2f2" stroke-width="0.6" />
  <line x1="60.8" y1="258.966" x2="576.8" y2="258.966" stroke="#f2f2f2" stroke-width="0.6" />
  <line x1="60.8" y1="198.552" x2="576.8" y2="198.552" stroke="#f2f2f2" stroke-width="0.6" />
  <line x1="60.8" y1="138.138" x2="576.8" y2="138.138" stroke="#f2f2f2" stroke-width="0.6" />
  <line x1="99.119" y1="82" x2="99.119" y2="410" stroke="#e6e6e6" stroke-width="1" />
  <line x1="170.544" y1="82" x2="170.544" y2="410" stroke="#e6e6e6" stroke-width="1" />
  <line x1="241.969" y1="82" x2="241.969" y2="410" stroke="#e6e6e6" stroke-width="1" />
  <line x1="313.393" y1="82" x2="313.393" y2="410" stroke="#e6e6e6" stroke-width="1" />
  <line x1="384.818" y1="82" x2="384.818" y2="410" stroke="#e6e6e6" stroke-width="1" />
  <line x1="456.243" y1="82" x2="456.243" y2="410" stroke="#e6e6e6" stroke-width="1" />
  <line x1="527.668" y1="82" x2="527.668" y2="410" stroke="#e6e6e6" stroke-width="1" />
  <line x1="60.8" y1="410" x2="576.8" y2="410" stroke="#e6e6e6" stroke-width="1" />
  <line x1="60.8" y1="349.586" x2="576.8" y2="349.586" stroke="#e6e6e6" stroke-width="1" />
  <line x1="60.8" y1="289.172" x2="576.8" y2="289.172" stroke="#e6e6e6" stroke-width="1" />
  <line x1="60.8" y1="228.759" x2="576.8" y2="228.759" stroke="#e6e6e6" stroke-width="1" />
  <line x1="60.8" y1="168.345" x2="576.8" y2="168.345" stroke="#e6e6e6" stroke-width="1" />
  <line x1="60.8" y1="107.931" x2="576.8" y2="107.931" stroke="#e6e6e6" stroke-width="1" />
</g>
<g class="algraf-layer algraf-geom-area">
  <path d="M96.386 409.934 L97.612 409.896 L98.838 409.839 L100.064 409.758 L101.29 409.644 L102.515 409.486 L103.741 409.275 L104.967 408.996 L106.193 408.638 L107.419 408.188 L108.645 407.633 L109.871 406.964 L111.096 406.17 L112.322 405.245 L113.548 404.183 L114.774 402.978 L116 401.623 L117.226 400.111 L118.452 398.432 L119.677 396.569 L120.903 394.506 L122.129 392.223 L123.355 389.701 L124.581 386.925 L125.807 383.886 L127.032 380.586 L128.258 377.044 L129.484 373.294 L130.71 369.386 L131.936 365.389 L133.162 361.38 L134.388 357.447 L135.613 353.675 L136.839 350.14 L138.065 346.903 L139.291 344.001 L140.517 341.443 L141.743 339.206 L142.969 337.24 L144.194 335.468 L145.42 333.798 L146.646 332.128 L147.872 330.359 L149.098 328.404 L150.324 326.2 L151.55 323.705 L152.775 320.911 L154.001 317.833 L155.227 314.51 L156.453 310.995 L157.679 307.348 L158.905 303.624 L160.13 299.87 L161.356 296.111 L162.582 292.351 L163.808 288.569 L165.034 284.718 L166.26 280.73 L167.486 276.518 L168.711 271.99 L169.937 267.046 L171.163 261.599 L172.389 255.571 L173.615 248.913 L174.841 241.602 L176.067 233.647 L177.292 225.093 L178.518 216.019 L179.744 206.532 L180.97 196.762 L182.196 186.855 L183.422 176.965 L184.648 167.245 L185.873 157.844 L187.099 148.902 L188.325 140.545 L189.551 132.888 L190.777 126.036 L192.003 120.081 L193.228 115.107 L194.454 111.187 L195.68 108.384 L196.906 106.744 L198.132 106.296 L199.358 107.051 L200.584 108.993 L201.809 112.084 L203.035 116.263 L204.261 121.447 L205.487 127.534 L206.713 134.405 L207.939 141.93 L209.165 149.969 L210.39 158.374 L211.616 166.994 L212.842 175.676 L214.068 184.272 L215.294 192.648 L216.52 200.687 L217.746 208.301 L218.971 215.435 L220.197 222.074 L221.423 228.246 L222.649 234.014 L223.875 239.471 L225.101 244.727 L226.326 249.897 L227.552 255.082 L228.778 260.359 L230.004 265.769 L231.23 271.317 L232.456 276.968 L233.682 282.655 L234.907 288.289 L236.133 293.772 L237.359 299.01 L238.585 303.922 L239.811 308.454 L241.037 312.582 L242.263 316.312 L243.488 319.683 L244.714 322.757 L245.94 325.615 L247.166 328.345 L248.392 331.036 L249.618 333.766 L250.844 336.595 L252.069 339.561 L253.295 342.677 L254.521 345.932 L255.747 349.29 L256.973 352.699 L258.199 356.095 L259.424 359.411 L260.65 362.582 L261.876 365.555 L263.102 368.291 L264.328 370.769 L265.554 372.989 L266.78 374.967 L268.005 376.736 L269.231 378.334 L270.457 379.808 L271.683 381.201 L272.909 382.551 L274.135 383.885 L275.361 385.222 L276.586 386.568 L277.812 387.921 L279.038 389.271 L280.264 390.601 L281.49 391.896 L282.716 393.14 L283.942 394.32 L285.167 395.429 L286.393 396.464 L287.619 397.425 L288.845 398.319 L290.071 399.152 L291.297 399.934 L292.522 400.673 L293.748 401.377 L294.974 402.048 L296.2 402.688 L297.426 403.295 L298.652 403.864 L299.878 404.387 L301.103 404.857 L302.329 405.264 L303.555 405.601 L304.781 405.865 L306.007 406.052 L307.233 406.164 L308.459 406.207 L309.684 406.188 L310.91 406.118 L312.136 406.008 L313.362 405.871 L314.588 405.72 L315.814 405.565 L317.04 405.417 L318.265 405.282 L319.491 405.168 L320.717 405.077 L321.943 405.013 L323.169 404.977 L324.395 404.97 L325.62 404.992 L326.846 405.044 L328.072 405.125 L329.298 405.233 L330.524 405.367 L331.75 405.524 L332.976 405.699 L334.201 405.887 L335.427 406.082 L336.653 406.276 L337.879 406.464 L339.105 406.641 L340.331 406.801 L341.557 406.944 L342.782 407.069 L344.008 407.181 L345.234 407.282 L346.46 407.379 L347.686 407.476 L348.912 407.578 L350.138 407.686 L351.363 407.801 L352.589 407.918 L353.815 408.031 L355.041 408.132 L356.267 408.212 L357.493 408.261 L358.718 408.272 L359.944 408.236 L361.17 408.152 L362.396 408.019 L363.622 407.84 L364.848 407.62 L366.074 407.37 L367.299 407.099 L368.525 406.821 L369.751 406.546 L370.977 406.287 L372.203 406.054 L373.429 405.858 L374.655 405.704 L375.88 405.6 L377.106 405.549 L378.332 405.553 L379.558 405.612 L380.784 405.726 L382.01 405.89 L383.236 406.102 L384.461 406.353 L385.687 406.638 L386.913 406.947 L388.139 407.271 L389.365 407.6 L390.591 407.925 L391.816 408.238 L393.042 408.53 L394.268 408.796 L395.494 409.033 L396.72 409.239 L397.946 409.413 L399.172 409.556 L400.397 409.671 L401.623 409.761 L402.849 409.831 L404.075 409.882 L405.301 409.92 L406.527 409.947 L407.753 409.965 L408.978 409.978 L408.978 410 L407.753 410 L406.527 410 L405.301 410 L404.075 410 L402.849 410 L401.623 410 L400.397 410 L399.172 410 L397.946 410 L396.72 410 L395.494 410 L394.268 410 L393.042 410 L391.816 410 L390.591 410 L389.365 410 L388.139 410 L386.913 410 L385.687 410 L384.461 410 L383.236 410 L382.01 410 L380.784 410 L379.558 410 L378.332 410 L377.106 410 L375.88 410 L374.655 410 L373.429 410 L372.203 410 L370.977 410 L369.751 410 L368.525 410 L367.299 410 L366.074 410 L364.848 410 L363.622 410 L362.396 410 L361.17 410 L359.944 410 L358.718 410 L357.493 410 L356.267 410 L355.041 410 L353.815 410 L352.589 410 L351.363 410 L350.138 410 L348.912 410 L347.686 410 L346.46 410 L345.234 410 L344.008 410 L342.782 410 L341.557 410 L340.331 410 L339.105 410 L337.879 410 L336.653 410 L335.427 410 L334.201 410 L332.976 410 L331.75 410 L330.524 410 L329.298 410 L328.072 410 L326.846 410 L325.62 410 L324.395 410 L323.169 410 L321.943 410 L320.717 410 L319.491 410 L318.265 410 L317.04 410 L315.814 410 L314.588 410 L313.362 410 L312.136 410 L310.91 410 L309.684 410 L308.459 410 L307.233 410 L306.007 410 L304.781 410 L303.555 410 L302.329 410 L301.103 410 L299.878 410 L298.652 410 L297.426 410 L296.2 410 L294.974 410 L293.748 410 L292.522 410 L291.297 410 L290.071 410 L288.845 410 L287.619 410 L286.393 410 L285.167 410 L283.942 410 L282.716 410 L281.49 410 L280.264 410 L279.038 410 L277.812 410 L276.586 410 L275.361 410 L274.135 410 L272.909 410 L271.683 410 L270.457 410 L269.231 410 L268.005 410 L266.78 410 L265.554 410 L264.328 410 L263.102 410 L261.876 410 L260.65 410 L259.424 410 L258.199 410 L256.973 410 L255.747 410 L254.521 410 L253.295 410 L252.069 410 L250.844 410 L249.618 410 L248.392 410 L247.166 410 L245.94 410 L244.714 410 L243.488 410 L242.263 410 L241.037 410 L239.811 410 L238.585 410 L237.359 410 L236.133 410 L234.907 410 L233.682 410 L232.456 410 L231.23 410 L230.004 410 L228.778 410 L227.552 410 L226.326 410 L225.101 410 L223.875 410 L222.649 410 L221.423 410 L220.197 410 L218.971 410 L217.746 410 L216.52 410 L215.294 410 L214.068 410 L212.842 410 L211.616 410 L210.39 410 L209.165 410 L207.939 410 L206.713 410 L205.487 410 L204.261 410 L203.035 410 L201.809 410 L200.584 410 L199.358 410 L198.132 410 L196.906 410 L195.68 410 L194.454 410 L193.228 410 L192.003 410 L190.777 410 L189.551 410 L188.325 410 L187.099 410 L185.873 410 L184.648 410 L183.422 410 L182.196 410 L180.97 410 L179.744 410 L178.518 410 L177.292 410 L176.067 410 L174.841 410 L173.615 410 L172.389 410 L171.163 410 L169.937 410 L168.711 410 L167.486 410 L166.26 410 L165.034 410 L163.808 410 L162.582 410 L161.356 410 L160.13 410 L158.905 410 L157.679 410 L156.453 410 L155.227 410 L154.001 410 L152.775 410 L151.55 410 L150.324 410 L149.098 410 L147.872 410 L146.646 410 L145.42 410 L144.194 410 L142.969 410 L141.743 410 L140.517 410 L139.291 410 L138.065 410 L136.839 410 L135.613 410 L134.388 410 L133.162 410 L131.936 410 L130.71 410 L129.484 410 L128.258 410 L127.032 410 L125.807 410 L124.581 410 L123.355 410 L122.129 410 L120.903 410 L119.677 410 L118.452 410 L117.226 410 L116 410 L114.774 410 L113.548 410 L112.322 410 L111.096 410 L109.871 410 L108.645 410 L107.419 410 L106.193 410 L104.967 410 L103.741 410 L102.515 410 L101.29 410 L100.064 410 L98.838 410 L97.612 410 L96.386 410 Z" fill="#beaed4" opacity="0.6" />
  <path d="M107.001 409.967 L108.703 409.949 L110.406 409.922 L112.109 409.883 L113.812 409.829 L115.515 409.756 L117.217 409.656 L118.92 409.527 L120.623 409.36 L122.326 409.151 L124.029 408.894 L125.731 408.585 L127.434 408.223 L129.137 407.807 L130.84 407.338 L132.543 406.822 L134.245 406.265 L135.948 405.675 L137.651 405.062 L139.354 404.436 L141.057 403.807 L142.759 403.184 L144.462 402.575 L146.165 401.985 L147.868 401.419 L149.571 400.88 L151.273 400.372 L152.976 399.898 L154.679 399.46 L156.382 399.061 L158.085 398.705 L159.787 398.395 L161.49 398.131 L163.193 397.911 L164.896 397.73 L166.599 397.576 L168.301 397.434 L170.004 397.282 L171.707 397.095 L173.41 396.842 L175.112 396.492 L176.815 396.012 L178.518 395.371 L180.221 394.543 L181.924 393.504 L183.626 392.238 L185.329 390.734 L187.032 388.99 L188.735 387.005 L190.438 384.786 L192.14 382.34 L193.843 379.678 L195.546 376.808 L197.249 373.737 L198.952 370.471 L200.654 367.012 L202.357 363.362 L204.06 359.518 L205.763 355.481 L207.466 351.248 L209.168 346.821 L210.871 342.206 L212.574 337.41 L214.277 332.448 L215.98 327.34 L217.682 322.112 L219.385 316.797 L221.088 311.435 L222.791 306.069 L224.494 300.747 L226.196 295.522 L227.899 290.442 L229.602 285.555 L231.305 280.901 L233.008 276.508 L234.71 272.393 L236.413 268.556 L238.116 264.979 L239.819 261.63 L241.522 258.462 L243.224 255.422 L244.927 252.45 L246.63 249.491 L248.333 246.5 L250.036 243.45 L251.738 240.334 L253.441 237.168 L255.144 233.994 L256.847 230.878 L258.55 227.902 L260.252 225.159 L261.955 222.746 L263.658 220.754 L265.361 219.261 L267.064 218.32 L268.766 217.96 L270.469 218.179 L272.172 218.948 L273.875 220.214 L275.578 221.906 L277.28 223.944 L278.983 226.248 L280.686 228.745 L282.389 231.38 L284.091 234.113 L285.794 236.924 L287.497 239.809 L289.2 242.779 L290.903 245.847 L292.605 249.029 L294.308 252.334 L296.011 255.761 L297.714 259.296 L299.417 262.914 L301.119 266.577 L302.822 270.239 L304.525 273.849 L306.228 277.358 L307.931 280.718 L309.633 283.889 L311.336 286.845 L313.039 289.568 L314.742 292.058 L316.445 294.332 L318.147 296.419 L319.85 298.365 L321.553 300.228 L323.256 302.073 L324.959 303.972 L326.661 305.996 L328.364 308.211 L330.067 310.673 L331.77 313.426 L333.473 316.494 L335.175 319.884 L336.878 323.584 L338.581 327.563 L340.284 331.777 L341.987 336.167 L343.689 340.67 L345.392 345.217 L347.095 349.741 L348.798 354.177 L350.501 358.468 L352.203 362.563 L353.906 366.421 L355.609 370.01 L357.312 373.305 L359.015 376.294 L360.717 378.971 L362.42 381.338 L364.123 383.406 L365.826 385.192 L367.529 386.721 L369.231 388.021 L370.934 389.127 L372.637 390.075 L374.34 390.903 L376.043 391.648 L377.745 392.347 L379.448 393.033 L381.151 393.731 L382.854 394.466 L384.556 395.252 L386.259 396.097 L387.962 397.004 L389.665 397.968 L391.368 398.978 L393.07 400.02 L394.773 401.075 L396.476 402.124 L398.179 403.146 L399.882 404.122 L401.584 405.035 L403.287 405.872 L404.99 406.624 L406.693 407.284 L408.396 407.853 L410.098 408.332 L411.801 408.727 L413.504 409.046 L415.207 409.299 L416.91 409.494 L418.612 409.642 L420.315 409.751 L422.018 409.83 L423.721 409.887 L425.424 409.926 L427.126 409.952 L428.829 409.97 L430.532 409.982 L432.235 409.989 L433.938 409.993 L435.64 409.996 L437.343 409.998 L439.046 409.999 L440.749 409.999 L442.452 410 L444.154 410 L445.857 410 L447.56 410 L449.263 410 L450.966 410 L452.668 410 L454.371 410 L456.074 410 L457.777 410 L459.48 410 L461.182 409.999 L462.885 409.999 L464.588 409.998 L466.291 409.996 L467.994 409.994 L469.696 409.99 L471.399 409.985 L473.102 409.977 L474.805 409.965 L476.508 409.949 L478.21 409.927 L479.913 409.898 L481.616 409.859 L483.319 409.811 L485.022 409.75 L486.724 409.678 L488.427 409.593 L490.13 409.496 L491.833 409.39 L493.535 409.277 L495.238 409.161 L496.941 409.048 L498.644 408.941 L500.347 408.848 L502.049 408.773 L503.752 408.72 L505.455 408.694 L507.158 408.695 L508.861 408.724 L510.563 408.778 L512.266 408.855 L513.969 408.949 L515.672 409.056 L517.375 409.17 L519.077 409.286 L520.78 409.399 L522.483 409.504 L524.186 409.6 L525.889 409.684 L527.591 409.755 L529.294 409.815 L530.997 409.863 L532.7 409.9 L534.403 409.929 L536.105 409.951 L537.808 409.967 L539.511 409.978 L541.214 409.985 L541.214 410 L539.511 410 L537.808 410 L536.105 410 L534.403 410 L532.7 410 L530.997 410 L529.294 410 L527.591 410 L525.889 410 L524.186 410 L522.483 410 L520.78 410 L519.077 410 L517.375 410 L515.672 410 L513.969 410 L512.266 410 L510.563 410 L508.861 410 L507.158 410 L505.455 410 L503.752 410 L502.049 410 L500.347 410 L498.644 410 L496.941 410 L495.238 410 L493.535 410 L491.833 410 L490.13 410 L488.427 410 L486.724 410 L485.022 410 L483.319 410 L481.616 410 L479.913 410 L478.21 410 L476.508 410 L474.805 410 L473.102 410 L471.399 410 L469.696 410 L467.994 410 L466.291 410 L464.588 410 L462.885 410 L461.182 410 L459.48 410 L457.777 410 L456.074 410 L454.371 410 L452.668 410 L450.966 410 L449.263 410 L447.56 410 L445.857 410 L444.154 410 L442.452 410 L440.749 410 L439.046 410 L437.343 410 L435.64 410 L433.938 410 L432.235 410 L430.532 410 L428.829 410 L427.126 410 L425.424 410 L423.721 410 L422.018 410 L420.315 410 L418.612 410 L416.91 410 L415.207 410 L413.504 410 L411.801 410 L410.098 410 L408.396 410 L406.693 410 L404.99 410 L403.287 410 L401.584 410 L399.882 410 L398.179 410 L396.476 410 L394.773 410 L393.07 410 L391.368 410 L389.665 410 L387.962 410 L386.259 410 L384.556 410 L382.854 410 L381.151 410 L379.448 410 L377.745 410 L376.043 410 L374.34 410 L372.637 410 L370.934 410 L369.231 410 L367.529 410 L365.826 410 L364.123 410 L362.42 410 L360.717 410 L359.015 410 L357.312 410 L355.609 410 L353.906 410 L352.203 410 L350.501 410 L348.798 410 L347.095 410 L345.392 410 L343.689 410 L341.987 410 L340.284 410 L338.581 410 L336.878 410 L335.175 410 L333.473 410 L331.77 410 L330.067 410 L328.364 410 L326.661 410 L324.959 410 L323.256 410 L321.553 410 L319.85 410 L318.147 410 L316.445 410 L314.742 410 L313.039 410 L311.336 410 L309.633 410 L307.931 410 L306.228 410 L304.525 410 L302.822 410 L301.119 410 L299.417 410 L297.714 410 L296.011 410 L294.308 410 L292.605 410 L290.903 410 L289.2 410 L287.497 410 L285.794 410 L284.091 410 L282.389 410 L280.686 410 L278.983 410 L277.28 410 L275.578 410 L273.875 410 L272.172 410 L270.469 410 L268.766 410 L267.064 410 L265.361 410 L263.658 410 L261.955 410 L260.252 410 L258.55 410 L256.847 410 L255.144 410 L253.441 410 L251.738 410 L250.036 410 L248.333 410 L246.63 410 L244.927 410 L243.224 410 L241.522 410 L239.819 410 L238.116 410 L236.413 410 L234.71 410 L233.008 410 L231.305 410 L229.602 410 L227.899 410 L226.196 410 L224.494 410 L222.791 410 L221.088 410 L219.385 410 L217.682 410 L215.98 410 L214.277 410 L212.574 410 L210.871 410 L209.168 410 L207.466 410 L205.763 410 L204.06 410 L202.357 410 L200.654 410 L198.952 410 L197.249 410 L195.546 410 L193.843 410 L192.14 410 L190.438 410 L188.735 410 L187.032 410 L185.329 410 L183.626 410 L181.924 410 L180.221 410 L178.518 410 L176.815 410 L175.112 410 L173.41 410 L171.707 410 L170.004 410 L168.301 410 L166.599 410 L164.896 410 L163.193 410 L161.49 410 L159.787 410 L158.085 410 L156.382 410 L154.679 410 L152.976 410 L151.273 410 L149.571 410 L147.868 410 L146.165 410 L144.462 410 L142.759 410 L141.057 410 L139.354 410 L137.651 410 L135.948 410 L134.245 410 L132.543 410 L130.84 410 L129.137 410 L127.434 410 L125.731 410 L124.029 410 L122.326 410 L120.623 410 L118.92 410 L117.217 410 L115.515 410 L113.812 410 L112.109 410 L110.406 410 L108.703 410 L107.001 410 Z" fill="#7fc97f" opacity="0.6" />
</g>
<g class="algraf-axes">
  <line x1="60.8" y1="410" x2="576.8" y2="410" stroke="#333333" stroke-width="1" />
  <line x1="99.119" y1="410" x2="99.119" y2="415" stroke="#333333" stroke-width="1" />
  <text x="99.119" y="428" text-anchor="middle" font-family="system-ui, sans-serif" font-size="12" fill="#222222">20</text>
  <line x1="170.544" y1="410" x2="170.544" y2="415" stroke="#333333" stroke-width="1" />
  <text x="170.544" y="428" text-anchor="middle" font-family="system-ui, sans-serif" font-size="12" fill="#222222">30</text>
  <line x1="241.969" y1="410" x2="241.969" y2="415" stroke="#333333" stroke-width="1" />
  <text x="241.969" y="428" text-anchor="middle" font-family="system-ui, sans-serif" font-size="12" fill="#222222">40</text>
  <line x1="313.393" y1="410" x2="313.393" y2="415" stroke="#333333" stroke-width="1" />
  <text x="313.393" y="428" text-anchor="middle" font-family="system-ui, sans-serif" font-size="12" fill="#222222">50</text>
  <line x1="384.818" y1="410" x2="384.818" y2="415" stroke="#333333" stroke-width="1" />
  <text x="384.818" y="428" text-anchor="middle" font-family="system-ui, sans-serif" font-size="12" fill="#222222">60</text>
  <line x1="456.243" y1="410" x2="456.243" y2="415" stroke="#333333" stroke-width="1" />
  <text x="456.243" y="428" text-anchor="middle" font-family="system-ui, sans-serif" font-size="12" fill="#222222">70</text>
  <line x1="527.668" y1="410" x2="527.668" y2="415" stroke="#333333" stroke-width="1" />
  <text x="527.668" y="428" text-anchor="middle" font-family="system-ui, sans-serif" font-size="12" fill="#222222">80</text>
  <text x="318.8" y="448" text-anchor="middle" font-family="system-ui, sans-serif" font-size="12" fill="#222222">Age of astronaut (years)</text>
  <line x1="60.8" y1="82" x2="60.8" y2="410" stroke="#333333" stroke-width="1" />
  <line x1="55.8" y1="410" x2="60.8" y2="410" stroke="#333333" stroke-width="1" />
  <text x="52.8" y="414" text-anchor="end" font-family="system-ui, sans-serif" font-size="12" fill="#222222">0</text>
  <line x1="55.8" y1="349.586" x2="60.8" y2="349.586" stroke="#333333" stroke-width="1" />
  <text x="52.8" y="353.586" text-anchor="end" font-family="system-ui, sans-serif" font-size="12" fill="#222222">0.02</text>
  <line x1="55.8" y1="289.172" x2="60.8" y2="289.172" stroke="#333333" stroke-width="1" />
  <text x="52.8" y="293.172" text-anchor="end" font-family="system-ui, sans-serif" font-size="12" fill="#222222">0.04</text>
  <line x1="55.8" y1="228.759" x2="60.8" y2="228.759" stroke="#333333" stroke-width="1" />
  <text x="52.8" y="232.759" text-anchor="end" font-family="system-ui, sans-serif" font-size="12" fill="#222222">0.06</text>
  <line x1="55.8" y1="168.345" x2="60.8" y2="168.345" stroke="#333333" stroke-width="1" />
  <text x="52.8" y="172.345" text-anchor="end" font-family="system-ui, sans-serif" font-size="12" fill="#222222">0.08</text>
  <line x1="55.8" y1="107.931" x2="60.8" y2="107.931" stroke="#333333" stroke-width="1" />
  <text x="52.8" y="111.931" text-anchor="end" font-family="system-ui, sans-serif" font-size="12" fill="#222222">0.1</text>
  <text x="12" y="246" text-anchor="middle" transform="rotate(-90 12 246)" font-family="system-ui, sans-serif" font-size="12" fill="#222222">density</text>
</g>
<g class="algraf-legends">
  <rect x="592.8" y="76" width="12" height="12" fill="#beaed4" />
  <text x="610.8" y="86" text-anchor="start" font-family="system-ui, sans-serif" font-size="12" fill="#222222">Age at selection</text>
  <rect x="592.8" y="94" width="12" height="12" fill="#7fc97f" />
  <text x="610.8" y="104" text-anchor="start" font-family="system-ui, sans-serif" font-size="12" fill="#222222">Age at mission</text>
</g>
</svg>
