<svg xmlns="http://www.w3.org/2000/svg" width="640" height="400" viewBox="0 0 640 400" role="img" aria-label="Linear fit">
<title>Linear fit</title>
<rect class="algraf-background" x="0" y="0" width="640" height="400" fill="#ffffff" />
<text class="algraf-title" x="60.8" y="24" font-family="system-ui, sans-serif" font-size="18" font-weight="600" fill="#222222">Linear fit</text>
<rect class="algraf-plot-area" x="60.8" y="66" width="549.2" height="284" fill="#ffffff" />
<g class="algraf-grid">
  <line x1="146.021" y1="66" x2="146.021" y2="350" stroke="#f2f2f2" stroke-width="0.6" />
  <line x1="264.383" y1="66" x2="264.383" y2="350" stroke="#f2f2f2" stroke-width="0.6" />
  <line x1="382.745" y1="66" x2="382.745" y2="350" stroke="#f2f2f2" stroke-width="0.6" />
  <line x1="501.107" y1="66" x2="501.107" y2="350" stroke="#f2f2f2" stroke-width="0.6" />
  <line x1="60.8" y1="295.438" x2="610" y2="295.438" stroke="#f2f2f2" stroke-width="0.6" />
  <line x1="60.8" y1="237.146" x2="610" y2="237.146" stroke="#f2f2f2" stroke-width="0.6" />
  <line x1="60.8" y1="178.854" x2="610" y2="178.854" stroke="#f2f2f2" stroke-width="0.6" />
  <line x1="60.8" y1="120.562" x2="610" y2="120.562" stroke="#f2f2f2" stroke-width="0.6" />
  <line x1="86.84" y1="66" x2="86.84" y2="350" stroke="#e6e6e6" stroke-width="1" />
  <line x1="205.202" y1="66" x2="205.202" y2="350" stroke="#e6e6e6" stroke-width="1" />
  <line x1="323.564" y1="66" x2="323.564" y2="350" stroke="#e6e6e6" stroke-width="1" />
  <line x1="441.926" y1="66" x2="441.926" y2="350" stroke="#e6e6e6" stroke-width="1" />
  <line x1="560.288" y1="66" x2="560.288" y2="350" stroke="#e6e6e6" stroke-width="1" />
  <line x1="60.8" y1="324.585" x2="610" y2="324.585" stroke="#e6e6e6" stroke-width="1" />
  <line x1="60.8" y1="266.292" x2="610" y2="266.292" stroke="#e6e6e6" stroke-width="1" />
  <line x1="60.8" y1="208" x2="610" y2="208" stroke="#e6e6e6" stroke-width="1" />
  <line x1="60.8" y1="149.708" x2="610" y2="149.708" stroke="#e6e6e6" stroke-width="1" />
  <line x1="60.8" y1="91.415" x2="610" y2="91.415" stroke="#e6e6e6" stroke-width="1" />
</g>
<g class="algraf-layer algraf-geom-point">
  <circle cx="98.676" cy="295.438" r="3" fill="#4E79A7" opacity="0.25" />
  <circle cx="157.857" cy="289.609" r="3" fill="#4E79A7" opacity="0.25" />
  <circle cx="264.383" cy="219.658" r="3" fill="#4E79A7" opacity="0.25" />
  <circle cx="240.71" cy="330.414" r="3" fill="#4E79A7" opacity="0.25" />
  <circle cx="288.055" cy="304.182" r="3" fill="#4E79A7" opacity="0.25" />
  <circle cx="335.4" cy="231.317" r="3" fill="#4E79A7" opacity="0.25" />
  <circle cx="441.926" cy="184.683" r="3" fill="#4E79A7" opacity="0.25" />
  <circle cx="512.943" cy="149.708" r="3" fill="#4E79A7" opacity="0.25" />
  <circle cx="572.124" cy="85.586" r="3" fill="#4E79A7" opacity="0.25" />
</g>
<g class="algraf-layer algraf-geom-smooth">
  <path d="M98.676 334.302 L572.124 119.537" fill="none" stroke="#333333" stroke-width="1.5" opacity="1" />
</g>
<g class="algraf-axes">
  <line x1="60.8" y1="350" x2="610" y2="350" stroke="#333333" stroke-width="1" />
  <line x1="86.84" y1="350" x2="86.84" y2="355" stroke="#333333" stroke-width="1" />
  <text x="86.84" y="368" text-anchor="middle" font-family="system-ui, sans-serif" font-size="12" fill="#222222">180</text>
  <line x1="205.202" y1="350" x2="205.202" y2="355" stroke="#333333" stroke-width="1" />
  <text x="205.202" y="368" text-anchor="middle" font-family="system-ui, sans-serif" font-size="12" fill="#222222">190</text>
  <line x1="323.564" y1="350" x2="323.564" y2="355" stroke="#333333" stroke-width="1" />
  <text x="323.564" y="368" text-anchor="middle" font-family="system-ui, sans-serif" font-size="12" fill="#222222">200</text>
  <line x1="441.926" y1="350" x2="441.926" y2="355" stroke="#333333" stroke-width="1" />
  <text x="441.926" y="368" text-anchor="middle" font-family="system-ui, sans-serif" font-size="12" fill="#222222">210</text>
  <line x1="560.288" y1="350" x2="560.288" y2="355" stroke="#333333" stroke-width="1" />
  <text x="560.288" y="368" text-anchor="middle" font-family="system-ui, sans-serif" font-size="12" fill="#222222">220</text>
  <text x="335.4" y="388" text-anchor="middle" font-family="system-ui, sans-serif" font-size="12" fill="#222222">flipper length</text>
  <line x1="60.8" y1="66" x2="60.8" y2="350" stroke="#333333" stroke-width="1" />
  <line x1="55.8" y1="324.585" x2="60.8" y2="324.585" stroke="#333333" stroke-width="1" />
  <text x="52.8" y="328.585" text-anchor="end" font-family="system-ui, sans-serif" font-size="12" fill="#222222">3500</text>
  <line x1="55.8" y1="266.292" x2="60.8" y2="266.292" stroke="#333333" stroke-width="1" />
  <text x="52.8" y="270.292" text-anchor="end" font-family="system-ui, sans-serif" font-size="12" fill="#222222">4000</text>
  <line x1="55.8" y1="208" x2="60.8" y2="208" stroke="#333333" stroke-width="1" />
  <text x="52.8" y="212" text-anchor="end" font-family="system-ui, sans-serif" font-size="12" fill="#222222">4500</text>
  <line x1="55.8" y1="149.708" x2="60.8" y2="149.708" stroke="#333333" stroke-width="1" />
  <text x="52.8" y="153.708" text-anchor="end" font-family="system-ui, sans-serif" font-size="12" fill="#222222">5000</text>
  <line x1="55.8" y1="91.415" x2="60.8" y2="91.415" stroke="#333333" stroke-width="1" />
  <text x="52.8" y="95.415" text-anchor="end" font-family="system-ui, sans-serif" font-size="12" fill="#222222">5500</text>
  <text x="12" y="208" text-anchor="middle" transform="rotate(-90 12 208)" font-family="system-ui, sans-serif" font-size="12" fill="#222222">body mass</text>
</g>
</svg>
