<svg xmlns="http://www.w3.org/2000/svg" width="640" height="400" viewBox="0 0 640 400" role="img" aria-label="Linear fit">
<title>Linear fit</title>
<rect class="algraf-background" x="0" y="0" width="640" height="400" fill="#ffffff" />
<text class="algraf-title" x="60" y="24" font-family="system-ui, sans-serif" font-size="18" font-weight="600" fill="#222222">Linear fit</text>
<rect class="algraf-plot-area" x="60" y="66" width="550" height="284" fill="#ffffff" />
<g class="algraf-grid">
  <line x1="86.078" y1="66" x2="86.078" y2="350" stroke="#e6e6e6" stroke-width="1" />
  <line x1="204.612" y1="66" x2="204.612" y2="350" stroke="#e6e6e6" stroke-width="1" />
  <line x1="323.147" y1="66" x2="323.147" y2="350" stroke="#e6e6e6" stroke-width="1" />
  <line x1="441.681" y1="66" x2="441.681" y2="350" stroke="#e6e6e6" stroke-width="1" />
  <line x1="560.216" y1="66" x2="560.216" y2="350" stroke="#e6e6e6" stroke-width="1" />
  <line x1="60" y1="324.585" x2="610" y2="324.585" stroke="#e6e6e6" stroke-width="1" />
  <line x1="60" y1="266.292" x2="610" y2="266.292" stroke="#e6e6e6" stroke-width="1" />
  <line x1="60" y1="208" x2="610" y2="208" stroke="#e6e6e6" stroke-width="1" />
  <line x1="60" y1="149.708" x2="610" y2="149.708" stroke="#e6e6e6" stroke-width="1" />
  <line x1="60" y1="91.415" x2="610" y2="91.415" stroke="#e6e6e6" stroke-width="1" />
</g>
<g class="algraf-layer algraf-geom-point">
  <circle cx="97.931" cy="295.438" r="3" fill="#4E79A7" opacity="0.25" />
  <circle cx="157.198" cy="289.609" r="3" fill="#4E79A7" opacity="0.25" />
  <circle cx="263.879" cy="219.658" r="3" fill="#4E79A7" opacity="0.25" />
  <circle cx="240.172" cy="330.414" r="3" fill="#4E79A7" opacity="0.25" />
  <circle cx="287.586" cy="304.182" r="3" fill="#4E79A7" opacity="0.25" />
  <circle cx="335" cy="231.317" r="3" fill="#4E79A7" opacity="0.25" />
  <circle cx="441.681" cy="184.683" r="3" fill="#4E79A7" opacity="0.25" />
  <circle cx="512.802" cy="149.708" r="3" fill="#4E79A7" opacity="0.25" />
  <circle cx="572.069" cy="85.586" r="3" fill="#4E79A7" opacity="0.25" />
</g>
<g class="algraf-layer algraf-geom-smooth">
  <path d="M97.931 334.302 L572.069 119.537" fill="none" stroke="#333333" stroke-width="1.5" opacity="1" />
</g>
<g class="algraf-axes">
  <line x1="60" y1="350" x2="610" y2="350" stroke="#333333" stroke-width="1" />
  <line x1="86.078" y1="350" x2="86.078" y2="355" stroke="#333333" stroke-width="1" />
  <text x="86.078" y="368" text-anchor="middle" font-family="system-ui, sans-serif" font-size="12" fill="#222222">180</text>
  <line x1="204.612" y1="350" x2="204.612" y2="355" stroke="#333333" stroke-width="1" />
  <text x="204.612" y="368" text-anchor="middle" font-family="system-ui, sans-serif" font-size="12" fill="#222222">190</text>
  <line x1="323.147" y1="350" x2="323.147" y2="355" stroke="#333333" stroke-width="1" />
  <text x="323.147" y="368" text-anchor="middle" font-family="system-ui, sans-serif" font-size="12" fill="#222222">200</text>
  <line x1="441.681" y1="350" x2="441.681" y2="355" stroke="#333333" stroke-width="1" />
  <text x="441.681" y="368" text-anchor="middle" font-family="system-ui, sans-serif" font-size="12" fill="#222222">210</text>
  <line x1="560.216" y1="350" x2="560.216" y2="355" stroke="#333333" stroke-width="1" />
  <text x="560.216" y="368" text-anchor="middle" font-family="system-ui, sans-serif" font-size="12" fill="#222222">220</text>
  <text x="335" y="388" text-anchor="middle" font-family="system-ui, sans-serif" font-size="12" fill="#222222">flipper length</text>
  <line x1="60" y1="66" x2="60" y2="350" stroke="#333333" stroke-width="1" />
  <line x1="55" y1="324.585" x2="60" y2="324.585" stroke="#333333" stroke-width="1" />
  <text x="52" y="328.585" text-anchor="end" font-family="system-ui, sans-serif" font-size="12" fill="#222222">3500</text>
  <line x1="55" y1="266.292" x2="60" y2="266.292" stroke="#333333" stroke-width="1" />
  <text x="52" y="270.292" text-anchor="end" font-family="system-ui, sans-serif" font-size="12" fill="#222222">4000</text>
  <line x1="55" y1="208" x2="60" y2="208" stroke="#333333" stroke-width="1" />
  <text x="52" y="212" text-anchor="end" font-family="system-ui, sans-serif" font-size="12" fill="#222222">4500</text>
  <line x1="55" y1="149.708" x2="60" y2="149.708" stroke="#333333" stroke-width="1" />
  <text x="52" y="153.708" text-anchor="end" font-family="system-ui, sans-serif" font-size="12" fill="#222222">5000</text>
  <line x1="55" y1="91.415" x2="60" y2="91.415" stroke="#333333" stroke-width="1" />
  <text x="52" y="95.415" text-anchor="end" font-family="system-ui, sans-serif" font-size="12" fill="#222222">5500</text>
  <text x="17.2" y="208" text-anchor="middle" transform="rotate(-90 17.2 208)" font-family="system-ui, sans-serif" font-size="12" fill="#222222">body mass</text>
</g>
</svg>
