<svg xmlns="http://www.w3.org/2000/svg" width="640" height="400" viewBox="0 0 640 400" role="img" aria-label="Observations">
<title>Observations</title>
<rect class="algraf-background" x="0" y="0" width="640" height="400" fill="#ffffff" />
<text class="algraf-title" x="60.8" y="24" font-family="system-ui, sans-serif" font-size="18" font-weight="600" fill="#222222">Observations</text>
<rect class="algraf-plot-area" x="60.8" y="66" width="429.2" height="284" fill="#ffffff" />
<g class="algraf-grid">
  <line x1="127.4" y1="66" x2="127.4" y2="350" stroke="#f2f2f2" stroke-width="0.6" />
  <line x1="219.9" y1="66" x2="219.9" y2="350" stroke="#f2f2f2" stroke-width="0.6" />
  <line x1="312.4" y1="66" x2="312.4" y2="350" stroke="#f2f2f2" stroke-width="0.6" />
  <line x1="404.9" y1="66" x2="404.9" y2="350" stroke="#f2f2f2" stroke-width="0.6" />
  <line x1="60.8" y1="295.438" x2="490" y2="295.438" stroke="#f2f2f2" stroke-width="0.6" />
  <line x1="60.8" y1="237.146" x2="490" y2="237.146" stroke="#f2f2f2" stroke-width="0.6" />
  <line x1="60.8" y1="178.854" x2="490" y2="178.854" stroke="#f2f2f2" stroke-width="0.6" />
  <line x1="60.8" y1="120.562" x2="490" y2="120.562" stroke="#f2f2f2" stroke-width="0.6" />
  <line x1="81.15" y1="66" x2="81.15" y2="350" stroke="#e6e6e6" stroke-width="1" />
  <line x1="173.65" y1="66" x2="173.65" y2="350" stroke="#e6e6e6" stroke-width="1" />
  <line x1="266.15" y1="66" x2="266.15" y2="350" stroke="#e6e6e6" stroke-width="1" />
  <line x1="358.65" y1="66" x2="358.65" y2="350" stroke="#e6e6e6" stroke-width="1" />
  <line x1="451.15" y1="66" x2="451.15" y2="350" stroke="#e6e6e6" stroke-width="1" />
  <line x1="60.8" y1="324.585" x2="490" y2="324.585" stroke="#e6e6e6" stroke-width="1" />
  <line x1="60.8" y1="266.292" x2="490" y2="266.292" stroke="#e6e6e6" stroke-width="1" />
  <line x1="60.8" y1="208" x2="490" y2="208" stroke="#e6e6e6" stroke-width="1" />
  <line x1="60.8" y1="149.708" x2="490" y2="149.708" stroke="#e6e6e6" stroke-width="1" />
  <line x1="60.8" y1="91.415" x2="490" y2="91.415" stroke="#e6e6e6" stroke-width="1" />
</g>
<g class="algraf-layer algraf-geom-point">
  <circle cx="90.4" cy="295.438" r="3" fill="#4E79A7" opacity="0.8" />
  <circle cx="136.65" cy="289.609" r="3" fill="#4E79A7" opacity="0.8" />
  <circle cx="219.9" cy="219.658" r="3" fill="#4E79A7" opacity="0.8" />
  <circle cx="201.4" cy="330.414" r="3" fill="#F28E2B" opacity="0.8" />
  <circle cx="238.4" cy="304.182" r="3" fill="#F28E2B" opacity="0.8" />
  <circle cx="275.4" cy="231.317" r="3" fill="#F28E2B" opacity="0.8" />
  <circle cx="358.65" cy="184.683" r="3" fill="#E15759" opacity="0.8" />
  <circle cx="414.15" cy="149.708" r="3" fill="#E15759" opacity="0.8" />
  <circle cx="460.4" cy="85.586" r="3" fill="#E15759" opacity="0.8" />
</g>
<g class="algraf-axes">
  <line x1="60.8" y1="350" x2="490" y2="350" stroke="#333333" stroke-width="1" />
  <line x1="81.15" y1="350" x2="81.15" y2="355" stroke="#333333" stroke-width="1" />
  <text x="81.15" y="368" text-anchor="middle" font-family="system-ui, sans-serif" font-size="12" fill="#222222">180</text>
  <line x1="173.65" y1="350" x2="173.65" y2="355" stroke="#333333" stroke-width="1" />
  <text x="173.65" y="368" text-anchor="middle" font-family="system-ui, sans-serif" font-size="12" fill="#222222">190</text>
  <line x1="266.15" y1="350" x2="266.15" y2="355" stroke="#333333" stroke-width="1" />
  <text x="266.15" y="368" text-anchor="middle" font-family="system-ui, sans-serif" font-size="12" fill="#222222">200</text>
  <line x1="358.65" y1="350" x2="358.65" y2="355" stroke="#333333" stroke-width="1" />
  <text x="358.65" y="368" text-anchor="middle" font-family="system-ui, sans-serif" font-size="12" fill="#222222">210</text>
  <line x1="451.15" y1="350" x2="451.15" y2="355" stroke="#333333" stroke-width="1" />
  <text x="451.15" y="368" text-anchor="middle" font-family="system-ui, sans-serif" font-size="12" fill="#222222">220</text>
  <text x="275.4" y="388" text-anchor="middle" font-family="system-ui, sans-serif" font-size="12" fill="#222222">flipper length</text>
  <line x1="60.8" y1="66" x2="60.8" y2="350" stroke="#333333" stroke-width="1" />
  <line x1="55.8" y1="324.585" x2="60.8" y2="324.585" stroke="#333333" stroke-width="1" />
  <text x="52.8" y="328.585" text-anchor="end" font-family="system-ui, sans-serif" font-size="12" fill="#222222">3500</text>
  <line x1="55.8" y1="266.292" x2="60.8" y2="266.292" stroke="#333333" stroke-width="1" />
  <text x="52.8" y="270.292" text-anchor="end" font-family="system-ui, sans-serif" font-size="12" fill="#222222">4000</text>
  <line x1="55.8" y1="208" x2="60.8" y2="208" stroke="#333333" stroke-width="1" />
  <text x="52.8" y="212" text-anchor="end" font-family="system-ui, sans-serif" font-size="12" fill="#222222">4500</text>
  <line x1="55.8" y1="149.708" x2="60.8" y2="149.708" stroke="#333333" stroke-width="1" />
  <text x="52.8" y="153.708" text-anchor="end" font-family="system-ui, sans-serif" font-size="12" fill="#222222">5000</text>
  <line x1="55.8" y1="91.415" x2="60.8" y2="91.415" stroke="#333333" stroke-width="1" />
  <text x="52.8" y="95.415" text-anchor="end" font-family="system-ui, sans-serif" font-size="12" fill="#222222">5500</text>
  <text x="12" y="208" text-anchor="middle" transform="rotate(-90 12 208)" font-family="system-ui, sans-serif" font-size="12" fill="#222222">body mass</text>
</g>
<g class="algraf-legends">
  <text x="506" y="70" text-anchor="start" font-family="system-ui, sans-serif" font-size="12" fill="#222222">species</text>
  <rect x="506" y="78" width="12" height="12" fill="#4E79A7" />
  <text x="524" y="88" text-anchor="start" font-family="system-ui, sans-serif" font-size="12" fill="#222222">Adelie</text>
  <rect x="506" y="96" width="12" height="12" fill="#F28E2B" />
  <text x="524" y="106" text-anchor="start" font-family="system-ui, sans-serif" font-size="12" fill="#222222">Chinstrap</text>
  <rect x="506" y="114" width="12" height="12" fill="#E15759" />
  <text x="524" y="124" text-anchor="start" font-family="system-ui, sans-serif" font-size="12" fill="#222222">Gentoo</text>
</g>
</svg>
