<svg xmlns="http://www.w3.org/2000/svg" width="560" height="380" viewBox="0 0 560 380" role="img" aria-label="Nested glyph marks">
<title>Nested glyph marks</title>
<rect class="algraf-background" x="0" y="0" width="560" height="380" fill="#ffffff" />
<text class="algraf-title" x="60" y="24" font-family="system-ui, sans-serif" font-size="18" font-weight="600" fill="#222222">Nested glyph marks</text>
<rect class="algraf-plot-area" x="60" y="66" width="350" height="264" fill="#ffffff" />
<g class="algraf-grid">
  <line x1="120.057" y1="66" x2="120.057" y2="330" stroke="#f2f2f2" stroke-width="0.6" />
  <line x1="191.897" y1="66" x2="191.897" y2="330" stroke="#f2f2f2" stroke-width="0.6" />
  <line x1="263.736" y1="66" x2="263.736" y2="330" stroke="#f2f2f2" stroke-width="0.6" />
  <line x1="335.575" y1="66" x2="335.575" y2="330" stroke="#f2f2f2" stroke-width="0.6" />
  <line x1="60" y1="289.034" x2="410" y2="289.034" stroke="#f2f2f2" stroke-width="0.6" />
  <line x1="60" y1="243.517" x2="410" y2="243.517" stroke="#f2f2f2" stroke-width="0.6" />
  <line x1="60" y1="198" x2="410" y2="198" stroke="#f2f2f2" stroke-width="0.6" />
  <line x1="60" y1="152.483" x2="410" y2="152.483" stroke="#f2f2f2" stroke-width="0.6" />
  <line x1="60" y1="106.966" x2="410" y2="106.966" stroke="#f2f2f2" stroke-width="0.6" />
  <line x1="84.138" y1="66" x2="84.138" y2="330" stroke="#e6e6e6" stroke-width="1" />
  <line x1="155.977" y1="66" x2="155.977" y2="330" stroke="#e6e6e6" stroke-width="1" />
  <line x1="227.816" y1="66" x2="227.816" y2="330" stroke="#e6e6e6" stroke-width="1" />
  <line x1="299.655" y1="66" x2="299.655" y2="330" stroke="#e6e6e6" stroke-width="1" />
  <line x1="371.494" y1="66" x2="371.494" y2="330" stroke="#e6e6e6" stroke-width="1" />
  <line x1="60" y1="311.793" x2="410" y2="311.793" stroke="#e6e6e6" stroke-width="1" />
  <line x1="60" y1="266.276" x2="410" y2="266.276" stroke="#e6e6e6" stroke-width="1" />
  <line x1="60" y1="220.759" x2="410" y2="220.759" stroke="#e6e6e6" stroke-width="1" />
  <line x1="60" y1="175.241" x2="410" y2="175.241" stroke="#e6e6e6" stroke-width="1" />
  <line x1="60" y1="129.724" x2="410" y2="129.724" stroke="#e6e6e6" stroke-width="1" />
  <line x1="60" y1="84.207" x2="410" y2="84.207" stroke="#e6e6e6" stroke-width="1" />
</g>
<g class="algraf-glyph">
  <defs>
  <clipPath id="algraf-clip-0"><circle cx="84.138" cy="311.793" r="23" /></clipPath>
  </defs>
  <g clip-path="url(#algraf-clip-0)">
    <g class="algraf-layer algraf-geom-bar">
      <path d="M 84.138 289.793 A 22 22 0 0 1 101.936 324.724 L 84.138 311.793 Z" fill="#4E79A7" opacity="1" />
      <path d="M 101.936 324.724 A 22 22 0 0 1 63.215 304.995 L 84.138 311.793 Z" fill="#F28E2B" opacity="1" />
      <path d="M 63.215 304.995 A 22 22 0 0 1 84.138 289.793 L 84.138 311.793 Z" fill="#59A14F" opacity="1" />
    </g>
    <g class="algraf-glyph">
      <defs>
      <clipPath id="algraf-clip-1"><rect x="84.939" y="302.799" width="18" height="8" /></clipPath>
      </defs>
      <g clip-path="url(#algraf-clip-1)">
        <g class="algraf-layer algraf-geom-line">
          <path d="M87.042 309.385 L93.939 307.661 L100.836 304.213" fill="none" stroke="#111827" stroke-width="0.7" opacity="1" />
        </g>
      </g>
    </g>
    <g class="algraf-glyph">
      <defs>
      <clipPath id="algraf-clip-2"><rect x="70.144" y="317.594" width="18" height="8" /></clipPath>
      </defs>
      <g clip-path="url(#algraf-clip-2)">
        <g class="algraf-layer algraf-geom-line">
          <path d="M72.247 324.18 L79.144 321.422 L86.041 319.008" fill="none" stroke="#111827" stroke-width="0.7" opacity="1" />
        </g>
      </g>
    </g>
    <g class="algraf-glyph">
      <defs>
      <clipPath id="algraf-clip-3"><rect x="68.672" y="298.894" width="18" height="8" /></clipPath>
      </defs>
      <g clip-path="url(#algraf-clip-3)">
        <g class="algraf-layer algraf-geom-line">
          <path d="M70.776 305.48 L77.672 302.894 L84.569 300.308" fill="none" stroke="#111827" stroke-width="0.7" opacity="1" />
        </g>
      </g>
    </g>
  </g>
</g>
<g class="algraf-glyph">
  <defs>
  <clipPath id="algraf-clip-4"><circle cx="256.552" cy="84.207" r="31" /></clipPath>
  </defs>
  <g clip-path="url(#algraf-clip-4)">
    <g class="algraf-layer algraf-geom-bar">
      <path d="M 256.552 54.207 A 30 30 0 0 1 285.083 74.936 L 256.552 84.207 Z" fill="#4E79A7" opacity="1" />
      <path d="M 285.083 74.936 A 30 30 0 0 1 256.552 114.207 L 256.552 84.207 Z" fill="#F28E2B" opacity="1" />
      <path d="M 256.552 114.207 A 30 30 0 0 1 256.552 54.207 L 256.552 84.207 Z" fill="#59A14F" opacity="1" />
    </g>
    <g class="algraf-glyph">
      <defs>
      <clipPath id="algraf-clip-5"><rect x="256.369" y="68.072" width="18" height="8" /></clipPath>
      </defs>
      <g clip-path="url(#algraf-clip-5)">
        <g class="algraf-layer algraf-geom-line">
          <path d="M258.472 74.658 L265.369 69.485 L272.265 71.21" fill="none" stroke="#111827" stroke-width="0.7" opacity="1" />
        </g>
      </g>
    </g>
    <g class="algraf-glyph">
      <defs>
      <clipPath id="algraf-clip-6"><rect x="259.687" y="89.024" width="18" height="8" /></clipPath>
      </defs>
      <g clip-path="url(#algraf-clip-6)">
        <g class="algraf-layer algraf-geom-line">
          <path d="M261.79 95.61 L268.687 93.67 L275.584 90.437" fill="none" stroke="#111827" stroke-width="0.7" opacity="1" />
        </g>
      </g>
    </g>
    <g class="algraf-glyph">
      <defs>
      <clipPath id="algraf-clip-7"><rect x="232.552" y="80.207" width="18" height="8" /></clipPath>
      </defs>
      <g clip-path="url(#algraf-clip-7)">
        <g class="algraf-layer algraf-geom-line">
          <path d="M234.655 86.793 L241.552 83.69 L248.448 81.621" fill="none" stroke="#111827" stroke-width="0.7" opacity="1" />
        </g>
      </g>
    </g>
  </g>
</g>
<g class="algraf-glyph">
  <defs>
  <clipPath id="algraf-clip-8"><circle cx="385.862" cy="243.517" r="19" /></clipPath>
  </defs>
  <g clip-path="url(#algraf-clip-8)">
    <g class="algraf-layer algraf-geom-bar">
      <path d="M 385.862 225.517 A 18 18 0 0 1 391.424 260.636 L 385.862 243.517 Z" fill="#4E79A7" opacity="1" />
      <path d="M 391.424 260.636 A 18 18 0 0 1 368.743 249.08 L 385.862 243.517 Z" fill="#F28E2B" opacity="1" />
      <path d="M 368.743 249.08 A 18 18 0 0 1 385.862 225.517 L 385.862 243.517 Z" fill="#59A14F" opacity="1" />
    </g>
    <g class="algraf-glyph">
      <defs>
      <clipPath id="algraf-clip-9"><rect x="385.751" y="238.109" width="18" height="8" /></clipPath>
      </defs>
      <g clip-path="url(#algraf-clip-9)">
        <g class="algraf-layer algraf-geom-line">
          <path d="M387.855 244.696 L394.751 242.397 L401.648 239.523" fill="none" stroke="#111827" stroke-width="0.7" opacity="1" />
        </g>
      </g>
    </g>
    <g class="algraf-glyph">
      <defs>
      <clipPath id="algraf-clip-10"><rect x="372.776" y="247.536" width="18" height="8" /></clipPath>
      </defs>
      <g clip-path="url(#algraf-clip-10)">
        <g class="algraf-layer algraf-geom-line">
          <path d="M374.88 251.536 L381.776 254.123 L388.673 248.95" fill="none" stroke="#111827" stroke-width="0.7" opacity="1" />
        </g>
      </g>
    </g>
    <g class="algraf-glyph">
      <defs>
      <clipPath id="algraf-clip-11"><rect x="369.581" y="234.227" width="18" height="8" /></clipPath>
      </defs>
      <g clip-path="url(#algraf-clip-11)">
        <g class="algraf-layer algraf-geom-line">
          <path d="M371.684 240.813 L378.581 237.71 L385.477 235.641" fill="none" stroke="#111827" stroke-width="0.7" opacity="1" />
        </g>
      </g>
    </g>
  </g>
</g>
<g class="algraf-layer algraf-geom-text">
  <text x="84.138" y="273.793" text-anchor="middle" font-family="system-ui, sans-serif" font-size="10" fill="#222222" opacity="1">A</text>
  <text x="256.552" y="46.207" text-anchor="middle" font-family="system-ui, sans-serif" font-size="10" fill="#222222" opacity="1">B</text>
  <text x="385.862" y="205.517" text-anchor="middle" font-family="system-ui, sans-serif" font-size="10" fill="#222222" opacity="1">C</text>
</g>
<g class="algraf-axes">
  <line x1="60" y1="330" x2="410" y2="330" stroke="#333333" stroke-width="1" />
  <line x1="84.138" y1="330" x2="84.138" y2="335" stroke="#333333" stroke-width="1" />
  <text x="84.138" y="348" text-anchor="middle" font-family="system-ui, sans-serif" font-size="12" fill="#222222">1</text>
  <line x1="155.977" y1="330" x2="155.977" y2="335" stroke="#333333" stroke-width="1" />
  <text x="155.977" y="348" text-anchor="middle" font-family="system-ui, sans-serif" font-size="12" fill="#222222">1.5</text>
  <line x1="227.816" y1="330" x2="227.816" y2="335" stroke="#333333" stroke-width="1" />
  <text x="227.816" y="348" text-anchor="middle" font-family="system-ui, sans-serif" font-size="12" fill="#222222">2</text>
  <line x1="299.655" y1="330" x2="299.655" y2="335" stroke="#333333" stroke-width="1" />
  <text x="299.655" y="348" text-anchor="middle" font-family="system-ui, sans-serif" font-size="12" fill="#222222">2.5</text>
  <line x1="371.494" y1="330" x2="371.494" y2="335" stroke="#333333" stroke-width="1" />
  <text x="371.494" y="348" text-anchor="middle" font-family="system-ui, sans-serif" font-size="12" fill="#222222">3</text>
  <text x="235" y="368" text-anchor="middle" font-family="system-ui, sans-serif" font-size="12" fill="#222222">x</text>
  <line x1="60" y1="66" x2="60" y2="330" stroke="#333333" stroke-width="1" />
  <line x1="55" y1="311.793" x2="60" y2="311.793" stroke="#333333" stroke-width="1" />
  <text x="52" y="315.793" text-anchor="end" font-family="system-ui, sans-serif" font-size="12" fill="#222222">1</text>
  <line x1="55" y1="266.276" x2="60" y2="266.276" stroke="#333333" stroke-width="1" />
  <text x="52" y="270.276" text-anchor="end" font-family="system-ui, sans-serif" font-size="12" fill="#222222">1.2</text>
  <line x1="55" y1="220.759" x2="60" y2="220.759" stroke="#333333" stroke-width="1" />
  <text x="52" y="224.759" text-anchor="end" font-family="system-ui, sans-serif" font-size="12" fill="#222222">1.4</text>
  <line x1="55" y1="175.241" x2="60" y2="175.241" stroke="#333333" stroke-width="1" />
  <text x="52" y="179.241" text-anchor="end" font-family="system-ui, sans-serif" font-size="12" fill="#222222">1.6</text>
  <line x1="55" y1="129.724" x2="60" y2="129.724" stroke="#333333" stroke-width="1" />
  <text x="52" y="133.724" text-anchor="end" font-family="system-ui, sans-serif" font-size="12" fill="#222222">1.8</text>
  <line x1="55" y1="84.207" x2="60" y2="84.207" stroke="#333333" stroke-width="1" />
  <text x="52" y="88.207" text-anchor="end" font-family="system-ui, sans-serif" font-size="12" fill="#222222">2</text>
  <text x="18.4" y="198" text-anchor="middle" transform="rotate(-90 18.4 198)" font-family="system-ui, sans-serif" font-size="12" fill="#222222">y</text>
</g>
<g class="algraf-legends">
  <text x="426" y="70" text-anchor="start" font-family="system-ui, sans-serif" font-size="12" fill="#222222">Category</text>
  <rect x="426" y="78" width="12" height="12" fill="#4E79A7" />
  <text x="444" y="88" text-anchor="start" font-family="system-ui, sans-serif" font-size="12" fill="#222222">hardware</text>
  <rect x="426" y="96" width="12" height="12" fill="#F28E2B" />
  <text x="444" y="106" text-anchor="start" font-family="system-ui, sans-serif" font-size="12" fill="#222222">software</text>
  <rect x="426" y="114" width="12" height="12" fill="#59A14F" />
  <text x="444" y="124" text-anchor="start" font-family="system-ui, sans-serif" font-size="12" fill="#222222">services</text>
  <text x="426" y="162" text-anchor="start" font-family="system-ui, sans-serif" font-size="12" fill="#222222">size</text>
  <circle cx="457" cy="190" r="19" fill="#222222" />
  <text x="496" y="194" text-anchor="start" font-family="system-ui, sans-serif" font-size="12" fill="#222222">44</text>
  <circle cx="457" cy="237" r="22" fill="#222222" />
  <text x="496" y="241" text-anchor="start" font-family="system-ui, sans-serif" font-size="12" fill="#222222">47</text>
  <circle cx="457" cy="290" r="25" fill="#222222" />
  <text x="496" y="294" text-anchor="start" font-family="system-ui, sans-serif" font-size="12" fill="#222222">50</text>
  <circle cx="457" cy="349" r="28" fill="#222222" />
  <text x="496" y="353" text-anchor="start" font-family="system-ui, sans-serif" font-size="12" fill="#222222">53</text>
  <circle cx="457" cy="414" r="31" fill="#222222" />
  <text x="496" y="418" text-anchor="start" font-family="system-ui, sans-serif" font-size="12" fill="#222222">56</text>
</g>
</svg>
