<svg xmlns="http://www.w3.org/2000/svg" width="720" height="420" viewBox="0 0 720 420" role="img" aria-label="Nudged point labels">
<title>Nudged point labels</title>
<rect class="algraf-background" x="0" y="0" width="720" height="420" fill="#ffffff" />
<text class="algraf-title" x="60" y="24" font-family="system-ui, sans-serif" font-size="18" font-weight="600" fill="#222222">Nudged point labels</text>
<rect class="algraf-plot-area" x="60" y="66" width="510" height="304" fill="#ffffff" />
<g class="algraf-grid">
  <line x1="137.549" y1="66" x2="137.549" y2="370" stroke="#f2f2f2" stroke-width="0.6" />
  <line x1="225.833" y1="66" x2="225.833" y2="370" stroke="#f2f2f2" stroke-width="0.6" />
  <line x1="314.117" y1="66" x2="314.117" y2="370" stroke="#f2f2f2" stroke-width="0.6" />
  <line x1="402.401" y1="66" x2="402.401" y2="370" stroke="#f2f2f2" stroke-width="0.6" />
  <line x1="490.686" y1="66" x2="490.686" y2="370" stroke="#f2f2f2" stroke-width="0.6" />
  <line x1="60" y1="335.479" x2="570" y2="335.479" stroke="#f2f2f2" stroke-width="0.6" />
  <line x1="60" y1="290.295" x2="570" y2="290.295" stroke="#f2f2f2" stroke-width="0.6" />
  <line x1="60" y1="245.111" x2="570" y2="245.111" stroke="#f2f2f2" stroke-width="0.6" />
  <line x1="60" y1="199.926" x2="570" y2="199.926" stroke="#f2f2f2" stroke-width="0.6" />
  <line x1="60" y1="154.742" x2="570" y2="154.742" stroke="#f2f2f2" stroke-width="0.6" />
  <line x1="60" y1="109.558" x2="570" y2="109.558" stroke="#f2f2f2" stroke-width="0.6" />
  <line x1="93.407" y1="66" x2="93.407" y2="370" stroke="#e6e6e6" stroke-width="1" />
  <line x1="181.691" y1="66" x2="181.691" y2="370" stroke="#e6e6e6" stroke-width="1" />
  <line x1="269.975" y1="66" x2="269.975" y2="370" stroke="#e6e6e6" stroke-width="1" />
  <line x1="358.259" y1="66" x2="358.259" y2="370" stroke="#e6e6e6" stroke-width="1" />
  <line x1="446.543" y1="66" x2="446.543" y2="370" stroke="#e6e6e6" stroke-width="1" />
  <line x1="534.828" y1="66" x2="534.828" y2="370" stroke="#e6e6e6" stroke-width="1" />
  <line x1="60" y1="358.071" x2="570" y2="358.071" stroke="#e6e6e6" stroke-width="1" />
  <line x1="60" y1="312.887" x2="570" y2="312.887" stroke="#e6e6e6" stroke-width="1" />
  <line x1="60" y1="267.703" x2="570" y2="267.703" stroke="#e6e6e6" stroke-width="1" />
  <line x1="60" y1="222.518" x2="570" y2="222.518" stroke="#e6e6e6" stroke-width="1" />
  <line x1="60" y1="177.334" x2="570" y2="177.334" stroke="#e6e6e6" stroke-width="1" />
  <line x1="60" y1="132.15" x2="570" y2="132.15" stroke="#e6e6e6" stroke-width="1" />
  <line x1="60" y1="86.966" x2="570" y2="86.966" stroke="#e6e6e6" stroke-width="1" />
</g>
<g class="algraf-layer algraf-geom-point">
  <circle cx="95.172" cy="349.034" r="4" fill="#4E79A7" opacity="1" />
  <circle cx="96.938" cy="339.998" r="4" fill="#4E79A7" opacity="1" />
  <circle cx="98.704" cy="330.961" r="4" fill="#4E79A7" opacity="1" />
  <circle cx="111.064" cy="321.924" r="4" fill="#4E79A7" opacity="1" />
  <circle cx="269.975" cy="249.629" r="4" fill="#F28E2B" opacity="1" />
  <circle cx="358.259" cy="195.408" r="4" fill="#F28E2B" opacity="1" />
  <circle cx="446.543" cy="132.15" r="4" fill="#F28E2B" opacity="1" />
  <circle cx="534.828" cy="86.966" r="4" fill="#F28E2B" opacity="1" />
</g>
<g class="algraf-layer algraf-geom-text">
  <text x="108.235" y="345.034" text-anchor="start" font-family="system-ui, sans-serif" font-size="11" fill="#4E79A7" opacity="1">A1</text>
  <text x="110.001" y="335.998" text-anchor="start" font-family="system-ui, sans-serif" font-size="11" fill="#4E79A7" opacity="1">A2</text>
  <text x="111.767" y="326.961" text-anchor="start" font-family="system-ui, sans-serif" font-size="11" fill="#4E79A7" opacity="1">A3</text>
  <text x="124.126" y="317.924" text-anchor="start" font-family="system-ui, sans-serif" font-size="11" fill="#4E79A7" opacity="1">A4</text>
  <text x="283.038" y="245.629" text-anchor="start" font-family="system-ui, sans-serif" font-size="11" fill="#F28E2B" opacity="1">B1</text>
  <text x="371.322" y="191.408" text-anchor="start" font-family="system-ui, sans-serif" font-size="11" fill="#F28E2B" opacity="1">B2</text>
  <text x="459.606" y="128.15" text-anchor="start" font-family="system-ui, sans-serif" font-size="11" fill="#F28E2B" opacity="1">B3</text>
  <text x="547.89" y="82.966" text-anchor="start" font-family="system-ui, sans-serif" font-size="11" fill="#F28E2B" opacity="1">B4</text>
</g>
<g class="algraf-axes">
  <line x1="60" y1="370" x2="570" y2="370" stroke="#333333" stroke-width="1" />
  <line x1="93.407" y1="370" x2="93.407" y2="375" stroke="#333333" stroke-width="1" />
  <text x="93.407" y="388" text-anchor="middle" font-family="system-ui, sans-serif" font-size="12" fill="#222222">0</text>
  <line x1="181.691" y1="370" x2="181.691" y2="375" stroke="#333333" stroke-width="1" />
  <text x="181.691" y="388" text-anchor="middle" font-family="system-ui, sans-serif" font-size="12" fill="#222222">50</text>
  <line x1="269.975" y1="370" x2="269.975" y2="375" stroke="#333333" stroke-width="1" />
  <text x="269.975" y="388" text-anchor="middle" font-family="system-ui, sans-serif" font-size="12" fill="#222222">100</text>
  <line x1="358.259" y1="370" x2="358.259" y2="375" stroke="#333333" stroke-width="1" />
  <text x="358.259" y="388" text-anchor="middle" font-family="system-ui, sans-serif" font-size="12" fill="#222222">150</text>
  <line x1="446.543" y1="370" x2="446.543" y2="375" stroke="#333333" stroke-width="1" />
  <text x="446.543" y="388" text-anchor="middle" font-family="system-ui, sans-serif" font-size="12" fill="#222222">200</text>
  <line x1="534.828" y1="370" x2="534.828" y2="375" stroke="#333333" stroke-width="1" />
  <text x="534.828" y="388" text-anchor="middle" font-family="system-ui, sans-serif" font-size="12" fill="#222222">250</text>
  <text x="315" y="408" text-anchor="middle" font-family="system-ui, sans-serif" font-size="12" fill="#222222">x</text>
  <line x1="60" y1="66" x2="60" y2="370" stroke="#333333" stroke-width="1" />
  <line x1="55" y1="358.071" x2="60" y2="358.071" stroke="#333333" stroke-width="1" />
  <text x="52" y="362.071" text-anchor="end" font-family="system-ui, sans-serif" font-size="12" fill="#222222">0</text>
  <line x1="55" y1="312.887" x2="60" y2="312.887" stroke="#333333" stroke-width="1" />
  <text x="52" y="316.887" text-anchor="end" font-family="system-ui, sans-serif" font-size="12" fill="#222222">5</text>
  <line x1="55" y1="267.703" x2="60" y2="267.703" stroke="#333333" stroke-width="1" />
  <text x="52" y="271.703" text-anchor="end" font-family="system-ui, sans-serif" font-size="12" fill="#222222">10</text>
  <line x1="55" y1="222.518" x2="60" y2="222.518" stroke="#333333" stroke-width="1" />
  <text x="52" y="226.518" text-anchor="end" font-family="system-ui, sans-serif" font-size="12" fill="#222222">15</text>
  <line x1="55" y1="177.334" x2="60" y2="177.334" stroke="#333333" stroke-width="1" />
  <text x="52" y="181.334" text-anchor="end" font-family="system-ui, sans-serif" font-size="12" fill="#222222">20</text>
  <line x1="55" y1="132.15" x2="60" y2="132.15" stroke="#333333" stroke-width="1" />
  <text x="52" y="136.15" text-anchor="end" font-family="system-ui, sans-serif" font-size="12" fill="#222222">25</text>
  <line x1="55" y1="86.966" x2="60" y2="86.966" stroke="#333333" stroke-width="1" />
  <text x="52" y="90.966" text-anchor="end" font-family="system-ui, sans-serif" font-size="12" fill="#222222">30</text>
  <text x="25.6" y="218" text-anchor="middle" transform="rotate(-90 25.6 218)" font-family="system-ui, sans-serif" font-size="12" fill="#222222">y</text>
</g>
<g class="algraf-legends">
  <text x="586" y="70" text-anchor="start" font-family="system-ui, sans-serif" font-size="12" fill="#222222">series</text>
  <rect x="586" y="78" width="12" height="12" fill="#4E79A7" />
  <text x="604" y="88" text-anchor="start" font-family="system-ui, sans-serif" font-size="12" fill="#222222">A</text>
  <rect x="586" y="96" width="12" height="12" fill="#F28E2B" />
  <text x="604" y="106" text-anchor="start" font-family="system-ui, sans-serif" font-size="12" fill="#222222">B</text>
</g>
</svg>
