<svg xmlns="http://www.w3.org/2000/svg" width="620" height="380" viewBox="0 0 620 380" role="img" aria-label="Day numbers as categories">
<title>Day numbers as categories</title>
<rect class="algraf-background" x="0" y="0" width="620" height="380" fill="#ffffff" />
<text class="algraf-title" x="60" y="24" font-family="system-ui, sans-serif" font-size="18" font-weight="600" fill="#222222">Day numbers as categories</text>
<rect class="algraf-plot-area" x="60" y="66" width="410" height="264" fill="#ffffff" />
<g class="algraf-grid">
  <line x1="60" y1="297" x2="470" y2="297" stroke="#f2f2f2" stroke-width="0.6" />
  <line x1="60" y1="231" x2="470" y2="231" stroke="#f2f2f2" stroke-width="0.6" />
  <line x1="60" y1="165" x2="470" y2="165" stroke="#f2f2f2" stroke-width="0.6" />
  <line x1="60" y1="99" x2="470" y2="99" stroke="#f2f2f2" stroke-width="0.6" />
  <line x1="60" y1="330" x2="470" y2="330" stroke="#e6e6e6" stroke-width="1" />
  <line x1="60" y1="264" x2="470" y2="264" stroke="#e6e6e6" stroke-width="1" />
  <line x1="60" y1="198" x2="470" y2="198" stroke="#e6e6e6" stroke-width="1" />
  <line x1="60" y1="132" x2="470" y2="132" stroke="#e6e6e6" stroke-width="1" />
  <line x1="60" y1="66" x2="470" y2="66" stroke="#e6e6e6" stroke-width="1" />
</g>
<defs>
<clipPath id="algraf-clip-0"><rect x="0" y="66" width="620" height="264" /></clipPath>
</defs>
<g clip-path="url(#algraf-clip-0)">
  <g class="algraf-layer algraf-geom-bar">
    <rect x="66.833" y="282.48" width="54.667" height="47.52" fill="#d8f3dc" opacity="1"><title>day_label: Day 1
value: 18</title></rect>
    <rect x="135.167" y="240.24" width="54.667" height="89.76" fill="#abd1bc" opacity="1"><title>day_label: Day 2
value: 34</title></rect>
    <rect x="203.5" y="203.28" width="54.667" height="126.72" fill="#84b4a1" opacity="1"><title>day_label: Day 3
value: 48</title></rect>
    <rect x="271.833" y="168.96" width="54.667" height="161.04" fill="#609887" opacity="1"><title>day_label: Day 4
value: 61</title></rect>
    <rect x="340.167" y="137.28" width="54.667" height="192.72" fill="#3e7f70" opacity="1"><title>day_label: Day 5
value: 73</title></rect>
    <rect x="408.5" y="97.68" width="54.667" height="232.32" fill="#145f52" opacity="1"><title>day_label: Day 6
value: 88</title></rect>
  </g>
  <g class="algraf-layer algraf-geom-text">
    <text x="94.167" y="274.48" text-anchor="middle" font-family="system-ui, sans-serif" font-size="10" fill="#222222" opacity="1">18</text>
    <text x="162.5" y="232.24" text-anchor="middle" font-family="system-ui, sans-serif" font-size="10" fill="#222222" opacity="1">34</text>
    <text x="230.833" y="195.28" text-anchor="middle" font-family="system-ui, sans-serif" font-size="10" fill="#222222" opacity="1">48</text>
    <text x="299.167" y="160.96" text-anchor="middle" font-family="system-ui, sans-serif" font-size="10" fill="#222222" opacity="1">61</text>
    <text x="367.5" y="129.28" text-anchor="middle" font-family="system-ui, sans-serif" font-size="10" fill="#222222" opacity="1">73</text>
    <text x="435.833" y="89.68" text-anchor="middle" font-family="system-ui, sans-serif" font-size="10" fill="#222222" opacity="1">88</text>
  </g>
</g>
<g class="algraf-axes">
  <line x1="60" y1="330" x2="470" y2="330" stroke="#333333" stroke-width="1" />
  <line x1="94.167" y1="330" x2="94.167" y2="335" stroke="#333333" stroke-width="1" />
  <text x="94.167" y="348" text-anchor="middle" font-family="system-ui, sans-serif" font-size="12" fill="#222222">1</text>
  <line x1="162.5" y1="330" x2="162.5" y2="335" stroke="#333333" stroke-width="1" />
  <text x="162.5" y="348" text-anchor="middle" font-family="system-ui, sans-serif" font-size="12" fill="#222222">2</text>
  <line x1="230.833" y1="330" x2="230.833" y2="335" stroke="#333333" stroke-width="1" />
  <text x="230.833" y="348" text-anchor="middle" font-family="system-ui, sans-serif" font-size="12" fill="#222222">3</text>
  <line x1="299.167" y1="330" x2="299.167" y2="335" stroke="#333333" stroke-width="1" />
  <text x="299.167" y="348" text-anchor="middle" font-family="system-ui, sans-serif" font-size="12" fill="#222222">4</text>
  <line x1="367.5" y1="330" x2="367.5" y2="335" stroke="#333333" stroke-width="1" />
  <text x="367.5" y="348" text-anchor="middle" font-family="system-ui, sans-serif" font-size="12" fill="#222222">5</text>
  <line x1="435.833" y1="330" x2="435.833" y2="335" stroke="#333333" stroke-width="1" />
  <text x="435.833" y="348" text-anchor="middle" font-family="system-ui, sans-serif" font-size="12" fill="#222222">6</text>
  <text x="265" y="368" text-anchor="middle" font-family="system-ui, sans-serif" font-size="12" fill="#222222">Day</text>
  <line x1="60" y1="66" x2="60" y2="330" stroke="#333333" stroke-width="1" />
  <line x1="55" y1="330" x2="60" y2="330" stroke="#333333" stroke-width="1" />
  <text x="52" y="334" text-anchor="end" font-family="system-ui, sans-serif" font-size="12" fill="#222222">0</text>
  <line x1="55" y1="264" x2="60" y2="264" stroke="#333333" stroke-width="1" />
  <text x="52" y="268" text-anchor="end" font-family="system-ui, sans-serif" font-size="12" fill="#222222">25</text>
  <line x1="55" y1="198" x2="60" y2="198" stroke="#333333" stroke-width="1" />
  <text x="52" y="202" text-anchor="end" font-family="system-ui, sans-serif" font-size="12" fill="#222222">50</text>
  <line x1="55" y1="132" x2="60" y2="132" stroke="#333333" stroke-width="1" />
  <text x="52" y="136" text-anchor="end" font-family="system-ui, sans-serif" font-size="12" fill="#222222">75</text>
  <line x1="55" y1="66" x2="60" y2="66" stroke="#333333" stroke-width="1" />
  <text x="52" y="70" text-anchor="end" font-family="system-ui, sans-serif" font-size="12" fill="#222222">100</text>
  <text x="18.4" y="198" text-anchor="middle" transform="rotate(-90 18.4 198)" font-family="system-ui, sans-serif" font-size="12" fill="#222222">Value</text>
</g>
<g class="algraf-legends">
  <text x="486" y="70" text-anchor="start" font-family="system-ui, sans-serif" font-size="12" fill="#222222">Value</text>
  <rect x="486" y="84" width="22" height="1.75" fill="#145f52" />
  <rect x="486" y="85" width="22" height="1.75" fill="#156053" />
  <rect x="486" y="86" width="22" height="1.75" fill="#166154" />
  <rect x="486" y="87" width="22" height="1.75" fill="#176154" />
  <rect x="486" y="88" width="22" height="1.75" fill="#186255" />
  <rect x="486" y="89" width="22" height="1.75" fill="#196355" />
  <rect x="486" y="90" width="22" height="1.75" fill="#1a6356" />
  <rect x="486" y="91" width="22" height="1.75" fill="#1b6457" />
  <rect x="486" y="92" width="22" height="1.75" fill="#1c6557" />
  <rect x="486" y="93" width="22" height="1.75" fill="#1c6558" />
  <rect x="486" y="94" width="22" height="1.75" fill="#1d6659" />
  <rect x="486" y="95" width="22" height="1.75" fill="#1e6759" />
  <rect x="486" y="96" width="22" height="1.75" fill="#1f675a" />
  <rect x="486" y="97" width="22" height="1.75" fill="#20685a" />
  <rect x="486" y="98" width="22" height="1.75" fill="#21695b" />
  <rect x="486" y="99" width="22" height="1.75" fill="#22695c" />
  <rect x="486" y="100" width="22" height="1.75" fill="#236a5c" />
  <rect x="486" y="101" width="22" height="1.75" fill="#246b5d" />
  <rect x="486" y="102" width="22" height="1.75" fill="#246b5e" />
  <rect x="486" y="103" width="22" height="1.75" fill="#256c5e" />
  <rect x="486" y="104" width="22" height="1.75" fill="#266d5f" />
  <rect x="486" y="105" width="22" height="1.75" fill="#276d5f" />
  <rect x="486" y="106" width="22" height="1.75" fill="#286e60" />
  <rect x="486" y="107" width="22" height="1.75" fill="#296f61" />
  <rect x="486" y="108" width="22" height="1.75" fill="#2a6f61" />
  <rect x="486" y="109" width="22" height="1.75" fill="#2b7062" />
  <rect x="486" y="110" width="22" height="1.75" fill="#2c7163" />
  <rect x="486" y="111" width="22" height="1.75" fill="#2d7263" />
  <rect x="486" y="112" width="22" height="1.75" fill="#2d7264" />
  <rect x="486" y="113" width="22" height="1.75" fill="#2e7365" />
  <rect x="486" y="114" width="22" height="1.75" fill="#2f7465" />
  <rect x="486" y="115" width="22" height="1.75" fill="#307466" />
  <rect x="486" y="116" width="22" height="1.75" fill="#317566" />
  <rect x="486" y="117" width="22" height="1.75" fill="#327667" />
  <rect x="486" y="118" width="22" height="1.75" fill="#337668" />
  <rect x="486" y="119" width="22" height="1.75" fill="#347768" />
  <rect x="486" y="120" width="22" height="1.75" fill="#357869" />
  <rect x="486" y="121" width="22" height="1.75" fill="#35786a" />
  <rect x="486" y="122" width="22" height="1.75" fill="#36796a" />
  <rect x="486" y="123" width="22" height="1.75" fill="#377a6b" />
  <rect x="486" y="124" width="22" height="1.75" fill="#387a6b" />
  <rect x="486" y="125" width="22" height="1.75" fill="#397b6c" />
  <rect x="486" y="126" width="22" height="1.75" fill="#3a7c6d" />
  <rect x="486" y="127" width="22" height="1.75" fill="#3b7c6d" />
  <rect x="486" y="128" width="22" height="1.75" fill="#3c7d6e" />
  <rect x="486" y="129" width="22" height="1.75" fill="#3d7e6f" />
  <rect x="486" y="130" width="22" height="1.75" fill="#3d7e6f" />
  <rect x="486" y="131" width="22" height="1.75" fill="#3e7f70" />
  <rect x="486" y="132" width="22" height="1.75" fill="#3f8070" />
  <rect x="486" y="133" width="22" height="1.75" fill="#408071" />
  <rect x="486" y="134" width="22" height="1.75" fill="#418172" />
  <rect x="486" y="135" width="22" height="1.75" fill="#428272" />
  <rect x="486" y="136" width="22" height="1.75" fill="#438273" />
  <rect x="486" y="137" width="22" height="1.75" fill="#448374" />
  <rect x="486" y="138" width="22" height="1.75" fill="#458474" />
  <rect x="486" y="139" width="22" height="1.75" fill="#458475" />
  <rect x="486" y="140" width="22" height="1.75" fill="#468575" />
  <rect x="486" y="141" width="22" height="1.75" fill="#478676" />
  <rect x="486" y="142" width="22" height="1.75" fill="#488677" />
  <rect x="486" y="143" width="22" height="1.75" fill="#498777" />
  <rect x="486" y="144" width="22" height="1.75" fill="#4a8878" />
  <rect x="486" y="145" width="22" height="1.75" fill="#4b8879" />
  <rect x="486" y="146" width="22" height="1.75" fill="#4c8979" />
  <rect x="486" y="147" width="22" height="1.75" fill="#4d8a7a" />
  <rect x="486" y="148" width="22" height="1.75" fill="#4d8a7a" />
  <rect x="486" y="149" width="22" height="1.75" fill="#4e8b7b" />
  <rect x="486" y="150" width="22" height="1.75" fill="#4f8c7c" />
  <rect x="486" y="151" width="22" height="1.75" fill="#508c7c" />
  <rect x="486" y="152" width="22" height="1.75" fill="#518d7d" />
  <rect x="486" y="153" width="22" height="1.75" fill="#528e7e" />
  <rect x="486" y="154" width="22" height="1.75" fill="#538e7e" />
  <rect x="486" y="155" width="22" height="1.75" fill="#548f7f" />
  <rect x="486" y="156" width="22" height="1.75" fill="#55907f" />
  <rect x="486" y="157" width="22" height="1.75" fill="#559080" />
  <rect x="486" y="158" width="22" height="1.75" fill="#569181" />
  <rect x="486" y="159" width="22" height="1.75" fill="#579281" />
  <rect x="486" y="160" width="22" height="1.75" fill="#589282" />
  <rect x="486" y="161" width="22" height="1.75" fill="#599383" />
  <rect x="486" y="162" width="22" height="1.75" fill="#5a9483" />
  <rect x="486" y="163" width="22" height="1.75" fill="#5b9484" />
  <rect x="486" y="164" width="22" height="1.75" fill="#5c9584" />
  <rect x="486" y="165" width="22" height="1.75" fill="#5d9685" />
  <rect x="486" y="166" width="22" height="1.75" fill="#5e9786" />
  <rect x="486" y="167" width="22" height="1.75" fill="#5e9786" />
  <rect x="486" y="168" width="22" height="1.75" fill="#5f9887" />
  <rect x="486" y="169" width="22" height="1.75" fill="#609988" />
  <rect x="486" y="170" width="22" height="1.75" fill="#619988" />
  <rect x="486" y="171" width="22" height="1.75" fill="#629a89" />
  <rect x="486" y="172" width="22" height="1.75" fill="#639b8a" />
  <rect x="486" y="173" width="22" height="1.75" fill="#649b8a" />
  <rect x="486" y="174" width="22" height="1.75" fill="#659c8b" />
  <rect x="486" y="175" width="22" height="1.75" fill="#669d8b" />
  <rect x="486" y="176" width="22" height="1.75" fill="#669d8c" />
  <rect x="486" y="177" width="22" height="1.75" fill="#679e8d" />
  <rect x="486" y="178" width="22" height="1.75" fill="#689f8d" />
  <rect x="486" y="179" width="22" height="1.75" fill="#699f8e" />
  <rect x="486" y="180" width="22" height="1.75" fill="#6aa08f" />
  <rect x="486" y="181" width="22" height="1.75" fill="#6ba18f" />
  <rect x="486" y="182" width="22" height="1.75" fill="#6ca190" />
  <rect x="486" y="183" width="22" height="1.75" fill="#6da290" />
  <rect x="486" y="184" width="22" height="1.75" fill="#6ea391" />
  <rect x="486" y="185" width="22" height="1.75" fill="#6ea392" />
  <rect x="486" y="186" width="22" height="1.75" fill="#6fa492" />
  <rect x="486" y="187" width="22" height="1.75" fill="#70a593" />
  <rect x="486" y="188" width="22" height="1.75" fill="#71a594" />
  <rect x="486" y="189" width="22" height="1.75" fill="#72a694" />
  <rect x="486" y="190" width="22" height="1.75" fill="#73a795" />
  <rect x="486" y="191" width="22" height="1.75" fill="#74a795" />
  <rect x="486" y="192" width="22" height="1.75" fill="#75a896" />
  <rect x="486" y="193" width="22" height="1.75" fill="#76a997" />
  <rect x="486" y="194" width="22" height="1.75" fill="#76a997" />
  <rect x="486" y="195" width="22" height="1.75" fill="#77aa98" />
  <rect x="486" y="196" width="22" height="1.75" fill="#78ab99" />
  <rect x="486" y="197" width="22" height="1.75" fill="#79ab99" />
  <rect x="486" y="198" width="22" height="1.75" fill="#7aac9a" />
  <rect x="486" y="199" width="22" height="1.75" fill="#7bad9a" />
  <rect x="486" y="200" width="22" height="1.75" fill="#7cad9b" />
  <rect x="486" y="201" width="22" height="1.75" fill="#7dae9c" />
  <rect x="486" y="202" width="22" height="1.75" fill="#7eaf9c" />
  <rect x="486" y="203" width="22" height="1.75" fill="#7eaf9d" />
  <rect x="486" y="204" width="22" height="1.75" fill="#7fb09e" />
  <rect x="486" y="205" width="22" height="1.75" fill="#80b19e" />
  <rect x="486" y="206" width="22" height="1.75" fill="#81b19f" />
  <rect x="486" y="207" width="22" height="1.75" fill="#82b29f" />
  <rect x="486" y="208" width="22" height="1.75" fill="#83b3a0" />
  <rect x="486" y="209" width="22" height="1.75" fill="#84b3a1" />
  <rect x="486" y="210" width="22" height="1.75" fill="#85b4a1" />
  <rect x="486" y="211" width="22" height="1.75" fill="#86b5a2" />
  <rect x="486" y="212" width="22" height="1.75" fill="#86b5a3" />
  <rect x="486" y="213" width="22" height="1.75" fill="#87b6a3" />
  <rect x="486" y="214" width="22" height="1.75" fill="#88b7a4" />
  <rect x="486" y="215" width="22" height="1.75" fill="#89b7a4" />
  <rect x="486" y="216" width="22" height="1.75" fill="#8ab8a5" />
  <rect x="486" y="217" width="22" height="1.75" fill="#8bb9a6" />
  <rect x="486" y="218" width="22" height="1.75" fill="#8cb9a6" />
  <rect x="486" y="219" width="22" height="1.75" fill="#8dbaa7" />
  <rect x="486" y="220" width="22" height="1.75" fill="#8ebba8" />
  <rect x="486" y="221" width="22" height="1.75" fill="#8fbca8" />
  <rect x="486" y="222" width="22" height="1.75" fill="#8fbca9" />
  <rect x="486" y="223" width="22" height="1.75" fill="#90bdaa" />
  <rect x="486" y="224" width="22" height="1.75" fill="#91beaa" />
  <rect x="486" y="225" width="22" height="1.75" fill="#92beab" />
  <rect x="486" y="226" width="22" height="1.75" fill="#93bfab" />
  <rect x="486" y="227" width="22" height="1.75" fill="#94c0ac" />
  <rect x="486" y="228" width="22" height="1.75" fill="#95c0ad" />
  <rect x="486" y="229" width="22" height="1.75" fill="#96c1ad" />
  <rect x="486" y="230" width="22" height="1.75" fill="#97c2ae" />
  <rect x="486" y="231" width="22" height="1.75" fill="#97c2af" />
  <rect x="486" y="232" width="22" height="1.75" fill="#98c3af" />
  <rect x="486" y="233" width="22" height="1.75" fill="#99c4b0" />
  <rect x="486" y="234" width="22" height="1.75" fill="#9ac4b0" />
  <rect x="486" y="235" width="22" height="1.75" fill="#9bc5b1" />
  <rect x="486" y="236" width="22" height="1.75" fill="#9cc6b2" />
  <rect x="486" y="237" width="22" height="1.75" fill="#9dc6b2" />
  <rect x="486" y="238" width="22" height="1.75" fill="#9ec7b3" />
  <rect x="486" y="239" width="22" height="1.75" fill="#9fc8b4" />
  <rect x="486" y="240" width="22" height="1.75" fill="#9fc8b4" />
  <rect x="486" y="241" width="22" height="1.75" fill="#a0c9b5" />
  <rect x="486" y="242" width="22" height="1.75" fill="#a1cab5" />
  <rect x="486" y="243" width="22" height="1.75" fill="#a2cab6" />
  <rect x="486" y="244" width="22" height="1.75" fill="#a3cbb7" />
  <rect x="486" y="245" width="22" height="1.75" fill="#a4ccb7" />
  <rect x="486" y="246" width="22" height="1.75" fill="#a5ccb8" />
  <rect x="486" y="247" width="22" height="1.75" fill="#a6cdb9" />
  <rect x="486" y="248" width="22" height="1.75" fill="#a7ceb9" />
  <rect x="486" y="249" width="22" height="1.75" fill="#a7ceba" />
  <rect x="486" y="250" width="22" height="1.75" fill="#a8cfba" />
  <rect x="486" y="251" width="22" height="1.75" fill="#a9d0bb" />
  <rect x="486" y="252" width="22" height="1.75" fill="#aad0bc" />
  <rect x="486" y="253" width="22" height="1.75" fill="#abd1bc" />
  <rect x="486" y="254" width="22" height="1.75" fill="#acd2bd" />
  <rect x="486" y="255" width="22" height="1.75" fill="#add2be" />
  <rect x="486" y="256" width="22" height="1.75" fill="#aed3be" />
  <rect x="486" y="257" width="22" height="1.75" fill="#afd4bf" />
  <rect x="486" y="258" width="22" height="1.75" fill="#afd4bf" />
  <rect x="486" y="259" width="22" height="1.75" fill="#b0d5c0" />
  <rect x="486" y="260" width="22" height="1.75" fill="#b1d6c1" />
  <rect x="486" y="261" width="22" height="1.75" fill="#b2d6c1" />
  <rect x="486" y="262" width="22" height="1.75" fill="#b3d7c2" />
  <rect x="486" y="263" width="22" height="1.75" fill="#b4d8c3" />
  <rect x="486" y="264" width="22" height="1.75" fill="#b5d8c3" />
  <rect x="486" y="265" width="22" height="1.75" fill="#b6d9c4" />
  <rect x="486" y="266" width="22" height="1.75" fill="#b7dac4" />
  <rect x="486" y="267" width="22" height="1.75" fill="#b7dac5" />
  <rect x="486" y="268" width="22" height="1.75" fill="#b8dbc6" />
  <rect x="486" y="269" width="22" height="1.75" fill="#b9dcc6" />
  <rect x="486" y="270" width="22" height="1.75" fill="#badcc7" />
  <rect x="486" y="271" width="22" height="1.75" fill="#bbddc8" />
  <rect x="486" y="272" width="22" height="1.75" fill="#bcdec8" />
  <rect x="486" y="273" width="22" height="1.75" fill="#bddec9" />
  <rect x="486" y="274" width="22" height="1.75" fill="#bedfc9" />
  <rect x="486" y="275" width="22" height="1.75" fill="#bfe0ca" />
  <rect x="486" y="276" width="22" height="1.75" fill="#c0e1cb" />
  <rect x="486" y="277" width="22" height="1.75" fill="#c0e1cb" />
  <rect x="486" y="278" width="22" height="1.75" fill="#c1e2cc" />
  <rect x="486" y="279" width="22" height="1.75" fill="#c2e3cd" />
  <rect x="486" y="280" width="22" height="1.75" fill="#c3e3cd" />
  <rect x="486" y="281" width="22" height="1.75" fill="#c4e4ce" />
  <rect x="486" y="282" width="22" height="1.75" fill="#c5e5cf" />
  <rect x="486" y="283" width="22" height="1.75" fill="#c6e5cf" />
  <rect x="486" y="284" width="22" height="1.75" fill="#c7e6d0" />
  <rect x="486" y="285" width="22" height="1.75" fill="#c8e7d0" />
  <rect x="486" y="286" width="22" height="1.75" fill="#c8e7d1" />
  <rect x="486" y="287" width="22" height="1.75" fill="#c9e8d2" />
  <rect x="486" y="288" width="22" height="1.75" fill="#cae9d2" />
  <rect x="486" y="289" width="22" height="1.75" fill="#cbe9d3" />
  <rect x="486" y="290" width="22" height="1.75" fill="#ccead4" />
  <rect x="486" y="291" width="22" height="1.75" fill="#cdebd4" />
  <rect x="486" y="292" width="22" height="1.75" fill="#ceebd5" />
  <rect x="486" y="293" width="22" height="1.75" fill="#cfecd5" />
  <rect x="486" y="294" width="22" height="1.75" fill="#d0edd6" />
  <rect x="486" y="295" width="22" height="1.75" fill="#d0edd7" />
  <rect x="486" y="296" width="22" height="1.75" fill="#d1eed7" />
  <rect x="486" y="297" width="22" height="1.75" fill="#d2efd8" />
  <rect x="486" y="298" width="22" height="1.75" fill="#d3efd9" />
  <rect x="486" y="299" width="22" height="1.75" fill="#d4f0d9" />
  <rect x="486" y="300" width="22" height="1.75" fill="#d5f1da" />
  <rect x="486" y="301" width="22" height="1.75" fill="#d6f1da" />
  <rect x="486" y="302" width="22" height="1.75" fill="#d7f2db" />
  <rect x="486" y="303" width="22" height="1" fill="#d8f3dc" />
  <text x="516" y="308" text-anchor="start" font-family="system-ui, sans-serif" font-size="12" fill="#222222">18</text>
  <text x="516" y="253" text-anchor="start" font-family="system-ui, sans-serif" font-size="12" fill="#222222">35.5</text>
  <text x="516" y="198" text-anchor="start" font-family="system-ui, sans-serif" font-size="12" fill="#222222">53</text>
  <text x="516" y="143" text-anchor="start" font-family="system-ui, sans-serif" font-size="12" fill="#222222">70.5</text>
  <text x="516" y="88" text-anchor="start" font-family="system-ui, sans-serif" font-size="12" fill="#222222">88</text>
</g>
</svg>
