<svg xmlns="http://www.w3.org/2000/svg" width="720" height="360" viewBox="0 0 720 360" role="img" aria-label="Release milestones">
<title>Release milestones</title>
<rect class="algraf-background" x="0" y="0" width="720" height="360" fill="#ffffff" />
<text class="algraf-title" x="60" y="24" font-family="system-ui, sans-serif" font-size="18" font-weight="600" fill="#222222">Release milestones</text>
<rect class="algraf-plot-area" x="60" y="66" width="630" height="244" fill="#ffffff" />
<g class="algraf-grid">
  <line x1="124.132" y1="66" x2="124.132" y2="310" stroke="#e6e6e6" stroke-width="1" />
  <line x1="229.76" y1="66" x2="229.76" y2="310" stroke="#e6e6e6" stroke-width="1" />
  <line x1="346.707" y1="66" x2="346.707" y2="310" stroke="#e6e6e6" stroke-width="1" />
  <line x1="459.88" y1="66" x2="459.88" y2="310" stroke="#e6e6e6" stroke-width="1" />
  <line x1="576.826" y1="66" x2="576.826" y2="310" stroke="#e6e6e6" stroke-width="1" />
  <line x1="690" y1="66" x2="690" y2="310" stroke="#e6e6e6" stroke-width="1" />
  <line x1="60" y1="266.879" x2="690" y2="266.879" stroke="#e6e6e6" stroke-width="1" />
  <line x1="60" y1="214.293" x2="690" y2="214.293" stroke="#e6e6e6" stroke-width="1" />
  <line x1="60" y1="161.707" x2="690" y2="161.707" stroke="#e6e6e6" stroke-width="1" />
  <line x1="60" y1="109.121" x2="690" y2="109.121" stroke="#e6e6e6" stroke-width="1" />
</g>
<g class="algraf-layer algraf-geom-point">
  <circle cx="60" cy="293.172" r="4" fill="#3b6ea5" opacity="1" />
  <circle cx="346.707" cy="174.853" r="4" fill="#3b6ea5" opacity="1" />
  <circle cx="690" cy="82.828" r="4" fill="#3b6ea5" opacity="1" />
</g>
<g class="algraf-layer algraf-geom-text">
  <text x="60" y="283.172" text-anchor="middle" font-family="system-ui, sans-serif" font-size="11" fill="#222222" opacity="1">Jan 15, 2026</text>
  <text x="346.707" y="164.853" text-anchor="middle" font-family="system-ui, sans-serif" font-size="11" fill="#222222" opacity="1">Apr 1, 2026</text>
  <text x="690" y="72.828" text-anchor="middle" font-family="system-ui, sans-serif" font-size="11" fill="#222222" opacity="1">Jul 1, 2026</text>
</g>
<g class="algraf-axes">
  <line x1="60" y1="310" x2="690" y2="310" stroke="#333333" stroke-width="1" />
  <line x1="124.132" y1="310" x2="124.132" y2="315" stroke="#333333" stroke-width="1" />
  <text x="124.132" y="328" text-anchor="middle" font-family="system-ui, sans-serif" font-size="12" fill="#222222">2026-02</text>
  <line x1="229.76" y1="310" x2="229.76" y2="315" stroke="#333333" stroke-width="1" />
  <text x="229.76" y="328" text-anchor="middle" font-family="system-ui, sans-serif" font-size="12" fill="#222222">2026-03</text>
  <line x1="346.707" y1="310" x2="346.707" y2="315" stroke="#333333" stroke-width="1" />
  <text x="346.707" y="328" text-anchor="middle" font-family="system-ui, sans-serif" font-size="12" fill="#222222">2026-04</text>
  <line x1="459.88" y1="310" x2="459.88" y2="315" stroke="#333333" stroke-width="1" />
  <text x="459.88" y="328" text-anchor="middle" font-family="system-ui, sans-serif" font-size="12" fill="#222222">2026-05</text>
  <line x1="576.826" y1="310" x2="576.826" y2="315" stroke="#333333" stroke-width="1" />
  <text x="576.826" y="328" text-anchor="middle" font-family="system-ui, sans-serif" font-size="12" fill="#222222">2026-06</text>
  <line x1="690" y1="310" x2="690" y2="315" stroke="#333333" stroke-width="1" />
  <text x="690" y="328" text-anchor="middle" font-family="system-ui, sans-serif" font-size="12" fill="#222222">2026-07</text>
  <text x="375" y="348" text-anchor="middle" font-family="system-ui, sans-serif" font-size="12" fill="#222222">due</text>
  <line x1="60" y1="66" x2="60" y2="310" stroke="#333333" stroke-width="1" />
  <line x1="55" y1="266.879" x2="60" y2="266.879" stroke="#333333" stroke-width="1" />
  <text x="52" y="270.879" text-anchor="end" font-family="system-ui, sans-serif" font-size="12" fill="#222222">20</text>
  <line x1="55" y1="214.293" x2="60" y2="214.293" stroke="#333333" stroke-width="1" />
  <text x="52" y="218.293" text-anchor="end" font-family="system-ui, sans-serif" font-size="12" fill="#222222">40</text>
  <line x1="55" y1="161.707" x2="60" y2="161.707" stroke="#333333" stroke-width="1" />
  <text x="52" y="165.707" text-anchor="end" font-family="system-ui, sans-serif" font-size="12" fill="#222222">60</text>
  <line x1="55" y1="109.121" x2="60" y2="109.121" stroke="#333333" stroke-width="1" />
  <text x="52" y="113.121" text-anchor="end" font-family="system-ui, sans-serif" font-size="12" fill="#222222">80</text>
  <text x="31.6" y="188" text-anchor="middle" transform="rotate(-90 31.6 188)" font-family="system-ui, sans-serif" font-size="12" fill="#222222">progress</text>
</g>
</svg>
