<svg xmlns="http://www.w3.org/2000/svg" width="800" height="520" viewBox="0 0 800 520" role="img" aria-label="Path with variable width">
<title>Path with variable width</title>
<rect class="algraf-background" x="0" y="0" width="800" height="520" fill="#ffffff" />
<text class="algraf-title" x="60" y="24" font-family="system-ui, sans-serif" font-size="18" font-weight="600" fill="#222222">Path with variable width</text>
<rect class="algraf-plot-area" x="60" y="66" width="590" height="404" fill="#ffffff" />
<g class="algraf-grid">
  <line x1="164.267" y1="66" x2="164.267" y2="470" stroke="#f2f2f2" stroke-width="0.6" />
  <line x1="291.422" y1="66" x2="291.422" y2="470" stroke="#f2f2f2" stroke-width="0.6" />
  <line x1="418.578" y1="66" x2="418.578" y2="470" stroke="#f2f2f2" stroke-width="0.6" />
  <line x1="545.733" y1="66" x2="545.733" y2="470" stroke="#f2f2f2" stroke-width="0.6" />
  <line x1="60" y1="413.115" x2="650" y2="413.115" stroke="#f2f2f2" stroke-width="0.6" />
  <line x1="60" y1="355.069" x2="650" y2="355.069" stroke="#f2f2f2" stroke-width="0.6" />
  <line x1="60" y1="297.023" x2="650" y2="297.023" stroke="#f2f2f2" stroke-width="0.6" />
  <line x1="60" y1="238.977" x2="650" y2="238.977" stroke="#f2f2f2" stroke-width="0.6" />
  <line x1="60" y1="180.931" x2="650" y2="180.931" stroke="#f2f2f2" stroke-width="0.6" />
  <line x1="60" y1="122.885" x2="650" y2="122.885" stroke="#f2f2f2" stroke-width="0.6" />
  <line x1="100.69" y1="66" x2="100.69" y2="470" stroke="#e6e6e6" stroke-width="1" />
  <line x1="227.845" y1="66" x2="227.845" y2="470" stroke="#e6e6e6" stroke-width="1" />
  <line x1="355" y1="66" x2="355" y2="470" stroke="#e6e6e6" stroke-width="1" />
  <line x1="482.155" y1="66" x2="482.155" y2="470" stroke="#e6e6e6" stroke-width="1" />
  <line x1="609.31" y1="66" x2="609.31" y2="470" stroke="#e6e6e6" stroke-width="1" />
  <line x1="60" y1="442.138" x2="650" y2="442.138" stroke="#e6e6e6" stroke-width="1" />
  <line x1="60" y1="384.092" x2="650" y2="384.092" stroke="#e6e6e6" stroke-width="1" />
  <line x1="60" y1="326.046" x2="650" y2="326.046" stroke="#e6e6e6" stroke-width="1" />
  <line x1="60" y1="268" x2="650" y2="268" stroke="#e6e6e6" stroke-width="1" />
  <line x1="60" y1="209.954" x2="650" y2="209.954" stroke="#e6e6e6" stroke-width="1" />
  <line x1="60" y1="151.908" x2="650" y2="151.908" stroke="#e6e6e6" stroke-width="1" />
  <line x1="60" y1="93.862" x2="650" y2="93.862" stroke="#e6e6e6" stroke-width="1" />
</g>
<defs>
<clipPath id="algraf-clip-0"><rect x="60" y="66" width="590" height="404" /></clipPath>
</defs>
<g clip-path="url(#algraf-clip-0)">
  <g class="algraf-layer algraf-geom-path">
    <line x1="100.69" y1="442.138" x2="227.845" y2="209.954" stroke="#4E79A7" stroke-width="4.036" stroke-linecap="round" opacity="1" />
    <line x1="227.845" y1="209.954" x2="482.155" y2="93.862" stroke="#4E79A7" stroke-width="8.893" stroke-linecap="round" opacity="1" />
    <line x1="482.155" y1="93.862" x2="609.31" y2="326.046" stroke="#4E79A7" stroke-width="14.964" stroke-linecap="round" opacity="1" />
    <line x1="609.31" y1="326.046" x2="355" y2="442.138" stroke="#4E79A7" stroke-width="14.357" stroke-linecap="round" opacity="1" />
    <line x1="355" y1="442.138" x2="100.69" y2="442.138" stroke="#4E79A7" stroke-width="7.071" stroke-linecap="round" opacity="1" />
  </g>
</g>
<g class="algraf-axes">
  <line x1="60" y1="470" x2="650" y2="470" stroke="#333333" stroke-width="1" />
  <line x1="100.69" y1="470" x2="100.69" y2="475" stroke="#333333" stroke-width="1" />
  <text x="100.69" y="488" text-anchor="middle" font-family="system-ui, sans-serif" font-size="12" fill="#222222">1</text>
  <line x1="227.845" y1="470" x2="227.845" y2="475" stroke="#333333" stroke-width="1" />
  <text x="227.845" y="488" text-anchor="middle" font-family="system-ui, sans-serif" font-size="12" fill="#222222">2</text>
  <line x1="355" y1="470" x2="355" y2="475" stroke="#333333" stroke-width="1" />
  <text x="355" y="488" text-anchor="middle" font-family="system-ui, sans-serif" font-size="12" fill="#222222">3</text>
  <line x1="482.155" y1="470" x2="482.155" y2="475" stroke="#333333" stroke-width="1" />
  <text x="482.155" y="488" text-anchor="middle" font-family="system-ui, sans-serif" font-size="12" fill="#222222">4</text>
  <line x1="609.31" y1="470" x2="609.31" y2="475" stroke="#333333" stroke-width="1" />
  <text x="609.31" y="488" text-anchor="middle" font-family="system-ui, sans-serif" font-size="12" fill="#222222">5</text>
  <text x="355" y="508" text-anchor="middle" font-family="system-ui, sans-serif" font-size="12" fill="#222222">x</text>
  <line x1="60" y1="66" x2="60" y2="470" stroke="#333333" stroke-width="1" />
  <line x1="55" y1="442.138" x2="60" y2="442.138" stroke="#333333" stroke-width="1" />
  <text x="52" y="446.138" text-anchor="end" font-family="system-ui, sans-serif" font-size="12" fill="#222222">1</text>
  <line x1="55" y1="384.092" x2="60" y2="384.092" stroke="#333333" stroke-width="1" />
  <text x="52" y="388.092" text-anchor="end" font-family="system-ui, sans-serif" font-size="12" fill="#222222">1.5</text>
  <line x1="55" y1="326.046" x2="60" y2="326.046" stroke="#333333" stroke-width="1" />
  <text x="52" y="330.046" text-anchor="end" font-family="system-ui, sans-serif" font-size="12" fill="#222222">2</text>
  <line x1="55" y1="268" x2="60" y2="268" stroke="#333333" stroke-width="1" />
  <text x="52" y="272" text-anchor="end" font-family="system-ui, sans-serif" font-size="12" fill="#222222">2.5</text>
  <line x1="55" y1="209.954" x2="60" y2="209.954" stroke="#333333" stroke-width="1" />
  <text x="52" y="213.954" text-anchor="end" font-family="system-ui, sans-serif" font-size="12" fill="#222222">3</text>
  <line x1="55" y1="151.908" x2="60" y2="151.908" stroke="#333333" stroke-width="1" />
  <text x="52" y="155.908" text-anchor="end" font-family="system-ui, sans-serif" font-size="12" fill="#222222">3.5</text>
  <line x1="55" y1="93.862" x2="60" y2="93.862" stroke="#333333" stroke-width="1" />
  <text x="52" y="97.862" text-anchor="end" font-family="system-ui, sans-serif" font-size="12" fill="#222222">4</text>
  <text x="18.4" y="268" text-anchor="middle" transform="rotate(-90 18.4 268)" font-family="system-ui, sans-serif" font-size="12" fill="#222222">y</text>
</g>
<g class="algraf-legends">
  <text x="666" y="70" text-anchor="start" font-family="system-ui, sans-serif" font-size="12" fill="#222222">Load</text>
  <line x1="666" y1="85" x2="694" y2="85" stroke="#222222" stroke-width="3.429" stroke-linecap="round" />
  <text x="711" y="89" text-anchor="start" font-family="system-ui, sans-serif" font-size="12" fill="#222222">10</text>
  <line x1="666" y1="103" x2="694" y2="103" stroke="#222222" stroke-width="7.071" stroke-linecap="round" />
  <text x="711" y="107" text-anchor="start" font-family="system-ui, sans-serif" font-size="12" fill="#222222">25</text>
  <line x1="666" y1="121" x2="694" y2="121" stroke="#222222" stroke-width="11.929" stroke-linecap="round" />
  <text x="711" y="125" text-anchor="start" font-family="system-ui, sans-serif" font-size="12" fill="#222222">45</text>
  <line x1="666" y1="142" x2="694" y2="142" stroke="#222222" stroke-width="18" stroke-linecap="round" />
  <text x="711" y="146" text-anchor="start" font-family="system-ui, sans-serif" font-size="12" fill="#222222">70</text>
</g>
</svg>
