<svg xmlns="http://www.w3.org/2000/svg" width="900" height="420" viewBox="0 0 900 420" role="img" aria-label="Palmer penguins across five channels">
<title>Palmer penguins across five channels</title>
<rect class="algraf-background" x="0" y="0" width="900" height="420" fill="#ffffff" />
<text class="algraf-title" x="60.8" y="24" font-family="system-ui, sans-serif" font-size="18" font-weight="600" fill="#222222">Palmer penguins across five channels</text>
<rect class="algraf-plot-area algraf-facet-panel" x="60.8" y="90" width="301" height="96" fill="#ffffff" />
<rect class="algraf-plot-area algraf-facet-panel" x="433.8" y="90" width="301" height="96" fill="#ffffff" />
<rect class="algraf-plot-area algraf-facet-panel" x="60.8" y="274" width="301" height="96" fill="#ffffff" />
<g class="algraf-facet-strip">
  <rect x="60.8" y="66" width="301" height="18" fill="#ffffff" />
  <text x="211.3" y="80" text-anchor="middle" font-family="system-ui, sans-serif" font-size="12" fill="#222222">Torgersen</text>
</g>
<g class="algraf-facet-strip">
  <rect x="433.8" y="66" width="301" height="18" fill="#ffffff" />
  <text x="584.3" y="80" text-anchor="middle" font-family="system-ui, sans-serif" font-size="12" fill="#222222">Biscoe</text>
</g>
<g class="algraf-facet-strip">
  <rect x="60.8" y="250" width="301" height="18" fill="#ffffff" />
  <text x="211.3" y="264" text-anchor="middle" font-family="system-ui, sans-serif" font-size="12" fill="#222222">Dream</text>
</g>
<g class="algraf-grid">
  <line x1="107.507" y1="90" x2="107.507" y2="186" stroke="#f2f2f2" stroke-width="0.6" />
  <line x1="159.403" y1="90" x2="159.403" y2="186" stroke="#f2f2f2" stroke-width="0.6" />
  <line x1="211.3" y1="90" x2="211.3" y2="186" stroke="#f2f2f2" stroke-width="0.6" />
  <line x1="263.197" y1="90" x2="263.197" y2="186" stroke="#f2f2f2" stroke-width="0.6" />
  <line x1="315.093" y1="90" x2="315.093" y2="186" stroke="#f2f2f2" stroke-width="0.6" />
  <line x1="60.8" y1="168.02" x2="361.8" y2="168.02" stroke="#f2f2f2" stroke-width="0.6" />
  <line x1="60.8" y1="151.793" x2="361.8" y2="151.793" stroke="#f2f2f2" stroke-width="0.6" />
  <line x1="60.8" y1="135.566" x2="361.8" y2="135.566" stroke="#f2f2f2" stroke-width="0.6" />
  <line x1="60.8" y1="119.339" x2="361.8" y2="119.339" stroke="#f2f2f2" stroke-width="0.6" />
  <line x1="60.8" y1="103.112" x2="361.8" y2="103.112" stroke="#f2f2f2" stroke-width="0.6" />
  <line x1="81.559" y1="90" x2="81.559" y2="186" stroke="#e6e6e6" stroke-width="1" />
  <line x1="133.455" y1="90" x2="133.455" y2="186" stroke="#e6e6e6" stroke-width="1" />
  <line x1="185.352" y1="90" x2="185.352" y2="186" stroke="#e6e6e6" stroke-width="1" />
  <line x1="237.248" y1="90" x2="237.248" y2="186" stroke="#e6e6e6" stroke-width="1" />
  <line x1="289.145" y1="90" x2="289.145" y2="186" stroke="#e6e6e6" stroke-width="1" />
  <line x1="341.041" y1="90" x2="341.041" y2="186" stroke="#e6e6e6" stroke-width="1" />
  <line x1="60.8" y1="176.134" x2="361.8" y2="176.134" stroke="#e6e6e6" stroke-width="1" />
  <line x1="60.8" y1="159.907" x2="361.8" y2="159.907" stroke="#e6e6e6" stroke-width="1" />
  <line x1="60.8" y1="143.68" x2="361.8" y2="143.68" stroke="#e6e6e6" stroke-width="1" />
  <line x1="60.8" y1="127.452" x2="361.8" y2="127.452" stroke="#e6e6e6" stroke-width="1" />
  <line x1="60.8" y1="111.225" x2="361.8" y2="111.225" stroke="#e6e6e6" stroke-width="1" />
  <line x1="60.8" y1="94.998" x2="361.8" y2="94.998" stroke="#e6e6e6" stroke-width="1" />
</g>
<g class="algraf-grid">
  <line x1="480.507" y1="90" x2="480.507" y2="186" stroke="#f2f2f2" stroke-width="0.6" />
  <line x1="532.403" y1="90" x2="532.403" y2="186" stroke="#f2f2f2" stroke-width="0.6" />
  <line x1="584.3" y1="90" x2="584.3" y2="186" stroke="#f2f2f2" stroke-width="0.6" />
  <line x1="636.197" y1="90" x2="636.197" y2="186" stroke="#f2f2f2" stroke-width="0.6" />
  <line x1="688.093" y1="90" x2="688.093" y2="186" stroke="#f2f2f2" stroke-width="0.6" />
  <line x1="433.8" y1="168.02" x2="734.8" y2="168.02" stroke="#f2f2f2" stroke-width="0.6" />
  <line x1="433.8" y1="151.793" x2="734.8" y2="151.793" stroke="#f2f2f2" stroke-width="0.6" />
  <line x1="433.8" y1="135.566" x2="734.8" y2="135.566" stroke="#f2f2f2" stroke-width="0.6" />
  <line x1="433.8" y1="119.339" x2="734.8" y2="119.339" stroke="#f2f2f2" stroke-width="0.6" />
  <line x1="433.8" y1="103.112" x2="734.8" y2="103.112" stroke="#f2f2f2" stroke-width="0.6" />
  <line x1="454.559" y1="90" x2="454.559" y2="186" stroke="#e6e6e6" stroke-width="1" />
  <line x1="506.455" y1="90" x2="506.455" y2="186" stroke="#e6e6e6" stroke-width="1" />
  <line x1="558.352" y1="90" x2="558.352" y2="186" stroke="#e6e6e6" stroke-width="1" />
  <line x1="610.248" y1="90" x2="610.248" y2="186" stroke="#e6e6e6" stroke-width="1" />
  <line x1="662.145" y1="90" x2="662.145" y2="186" stroke="#e6e6e6" stroke-width="1" />
  <line x1="714.041" y1="90" x2="714.041" y2="186" stroke="#e6e6e6" stroke-width="1" />
  <line x1="433.8" y1="176.134" x2="734.8" y2="176.134" stroke="#e6e6e6" stroke-width="1" />
  <line x1="433.8" y1="159.907" x2="734.8" y2="159.907" stroke="#e6e6e6" stroke-width="1" />
  <line x1="433.8" y1="143.68" x2="734.8" y2="143.68" stroke="#e6e6e6" stroke-width="1" />
  <line x1="433.8" y1="127.452" x2="734.8" y2="127.452" stroke="#e6e6e6" stroke-width="1" />
  <line x1="433.8" y1="111.225" x2="734.8" y2="111.225" stroke="#e6e6e6" stroke-width="1" />
  <line x1="433.8" y1="94.998" x2="734.8" y2="94.998" stroke="#e6e6e6" stroke-width="1" />
</g>
<g class="algraf-grid">
  <line x1="107.507" y1="274" x2="107.507" y2="370" stroke="#f2f2f2" stroke-width="0.6" />
  <line x1="159.403" y1="274" x2="159.403" y2="370" stroke="#f2f2f2" stroke-width="0.6" />
  <line x1="211.3" y1="274" x2="211.3" y2="370" stroke="#f2f2f2" stroke-width="0.6" />
  <line x1="263.197" y1="274" x2="263.197" y2="370" stroke="#f2f2f2" stroke-width="0.6" />
  <line x1="315.093" y1="274" x2="315.093" y2="370" stroke="#f2f2f2" stroke-width="0.6" />
  <line x1="60.8" y1="352.02" x2="361.8" y2="352.02" stroke="#f2f2f2" stroke-width="0.6" />
  <line x1="60.8" y1="335.793" x2="361.8" y2="335.793" stroke="#f2f2f2" stroke-width="0.6" />
  <line x1="60.8" y1="319.566" x2="361.8" y2="319.566" stroke="#f2f2f2" stroke-width="0.6" />
  <line x1="60.8" y1="303.339" x2="361.8" y2="303.339" stroke="#f2f2f2" stroke-width="0.6" />
  <line x1="60.8" y1="287.112" x2="361.8" y2="287.112" stroke="#f2f2f2" stroke-width="0.6" />
  <line x1="81.559" y1="274" x2="81.559" y2="370" stroke="#e6e6e6" stroke-width="1" />
  <line x1="133.455" y1="274" x2="133.455" y2="370" stroke="#e6e6e6" stroke-width="1" />
  <line x1="185.352" y1="274" x2="185.352" y2="370" stroke="#e6e6e6" stroke-width="1" />
  <line x1="237.248" y1="274" x2="237.248" y2="370" stroke="#e6e6e6" stroke-width="1" />
  <line x1="289.145" y1="274" x2="289.145" y2="370" stroke="#e6e6e6" stroke-width="1" />
  <line x1="341.041" y1="274" x2="341.041" y2="370" stroke="#e6e6e6" stroke-width="1" />
  <line x1="60.8" y1="360.134" x2="361.8" y2="360.134" stroke="#e6e6e6" stroke-width="1" />
  <line x1="60.8" y1="343.907" x2="361.8" y2="343.907" stroke="#e6e6e6" stroke-width="1" />
  <line x1="60.8" y1="327.68" x2="361.8" y2="327.68" stroke="#e6e6e6" stroke-width="1" />
  <line x1="60.8" y1="311.452" x2="361.8" y2="311.452" stroke="#e6e6e6" stroke-width="1" />
  <line x1="60.8" y1="295.225" x2="361.8" y2="295.225" stroke="#e6e6e6" stroke-width="1" />
  <line x1="60.8" y1="278.998" x2="361.8" y2="278.998" stroke="#e6e6e6" stroke-width="1" />
</g>
<g class="algraf-layer algraf-geom-point">
  <circle cx="138.645" cy="163.152" r="4.662" fill="#4E79A7" opacity="0.8" />
  <rect x="88.522" y="171.096" width="6.831" height="6.831" fill="#4E79A7" opacity="0.8" />
  <circle cx="159.403" cy="158.284" r="4.766" fill="#4E79A7" opacity="0.8" />
  <rect x="77.572" y="175.392" width="7.974" height="7.974" fill="#4E79A7" opacity="0.8" />
  <circle cx="149.024" cy="161.529" r="4.403" fill="#4E79A7" opacity="0.8" />
  <rect x="99.317" y="168.266" width="6" height="6" fill="#4E79A7" opacity="0.8" />
</g>
<g class="algraf-layer algraf-geom-point">
  <circle cx="506.455" cy="163.152" r="5.442" fill="#4E79A7" opacity="0.8" />
  <rect x="455.813" y="174.633" width="7.87" height="7.87" fill="#4E79A7" opacity="0.8" />
  <circle cx="537.593" cy="155.039" r="5.649" fill="#4E79A7" opacity="0.8" />
  <rect x="476.468" y="170.472" width="8.078" height="8.078" fill="#4E79A7" opacity="0.8" />
  <circle cx="667.334" cy="109.602" r="9.909" fill="#F28E2B" opacity="0.8" />
  <rect x="612.329" y="122.399" width="16.597" height="16.597" fill="#F28E2B" opacity="0.8" />
  <circle cx="688.093" cy="104.734" r="10.325" fill="#F28E2B" opacity="0.8" />
  <rect x="628.365" y="119.621" width="15.662" height="15.662" fill="#F28E2B" opacity="0.8" />
  <circle cx="714.041" cy="96.621" r="11" fill="#F28E2B" opacity="0.8" />
  <rect x="618.142" y="124.645" width="15.351" height="15.351" fill="#F28E2B" opacity="0.8" />
  <circle cx="703.662" cy="101.489" r="9.494" fill="#F28E2B" opacity="0.8" />
  <rect x="632.88" y="115.7" width="17.013" height="17.013" fill="#F28E2B" opacity="0.8" />
</g>
<g class="algraf-layer algraf-geom-point">
  <circle cx="143.834" cy="347.963" r="5.026" fill="#4E79A7" opacity="0.8" />
  <rect x="94.076" y="357.082" width="6.104" height="6.104" fill="#4E79A7" opacity="0.8" />
  <circle cx="154.214" cy="343.907" r="5.234" fill="#4E79A7" opacity="0.8" />
  <rect x="108.969" y="353.161" width="7.455" height="7.455" fill="#4E79A7" opacity="0.8" />
  <circle cx="164.593" cy="345.529" r="9.545" fill="#E15759" opacity="0.8" />
  <rect x="109.639" y="347.019" width="16.494" height="16.494" fill="#E15759" opacity="0.8" />
  <circle cx="190.541" cy="340.661" r="10.688" fill="#E15759" opacity="0.8" />
  <rect x="130.034" y="345.033" width="17.221" height="17.221" fill="#E15759" opacity="0.8" />
  <circle cx="174.972" cy="343.907" r="9.961" fill="#E15759" opacity="0.8" />
  <rect x="120.33" y="350.576" width="15.87" height="15.87" fill="#E15759" opacity="0.8" />
</g>
<g class="algraf-axes">
  <line x1="60.8" y1="186" x2="361.8" y2="186" stroke="#333333" stroke-width="1" />
  <line x1="81.559" y1="186" x2="81.559" y2="191" stroke="#333333" stroke-width="1" />
  <text x="81.559" y="204" text-anchor="middle" font-family="system-ui, sans-serif" font-size="12" fill="#222222">180</text>
  <line x1="133.455" y1="186" x2="133.455" y2="191" stroke="#333333" stroke-width="1" />
  <text x="133.455" y="204" text-anchor="middle" font-family="system-ui, sans-serif" font-size="12" fill="#222222">190</text>
  <line x1="185.352" y1="186" x2="185.352" y2="191" stroke="#333333" stroke-width="1" />
  <text x="185.352" y="204" text-anchor="middle" font-family="system-ui, sans-serif" font-size="12" fill="#222222">200</text>
  <line x1="237.248" y1="186" x2="237.248" y2="191" stroke="#333333" stroke-width="1" />
  <text x="237.248" y="204" text-anchor="middle" font-family="system-ui, sans-serif" font-size="12" fill="#222222">210</text>
  <line x1="289.145" y1="186" x2="289.145" y2="191" stroke="#333333" stroke-width="1" />
  <text x="289.145" y="204" text-anchor="middle" font-family="system-ui, sans-serif" font-size="12" fill="#222222">220</text>
  <line x1="341.041" y1="186" x2="341.041" y2="191" stroke="#333333" stroke-width="1" />
  <text x="341.041" y="204" text-anchor="middle" font-family="system-ui, sans-serif" font-size="12" fill="#222222">230</text>
  <text x="211.3" y="224" text-anchor="middle" font-family="system-ui, sans-serif" font-size="12" fill="#222222">Flipper length (mm)</text>
  <line x1="60.8" y1="90" x2="60.8" y2="186" stroke="#333333" stroke-width="1" />
  <line x1="55.8" y1="176.134" x2="60.8" y2="176.134" stroke="#333333" stroke-width="1" />
  <text x="52.8" y="180.134" text-anchor="end" font-family="system-ui, sans-serif" font-size="12" fill="#222222">3500</text>
  <line x1="55.8" y1="159.907" x2="60.8" y2="159.907" stroke="#333333" stroke-width="1" />
  <text x="52.8" y="163.907" text-anchor="end" font-family="system-ui, sans-serif" font-size="12" fill="#222222">4000</text>
  <line x1="55.8" y1="143.68" x2="60.8" y2="143.68" stroke="#333333" stroke-width="1" />
  <text x="52.8" y="147.68" text-anchor="end" font-family="system-ui, sans-serif" font-size="12" fill="#222222">4500</text>
  <line x1="55.8" y1="127.452" x2="60.8" y2="127.452" stroke="#333333" stroke-width="1" />
  <text x="52.8" y="131.452" text-anchor="end" font-family="system-ui, sans-serif" font-size="12" fill="#222222">5000</text>
  <line x1="55.8" y1="111.225" x2="60.8" y2="111.225" stroke="#333333" stroke-width="1" />
  <text x="52.8" y="115.225" text-anchor="end" font-family="system-ui, sans-serif" font-size="12" fill="#222222">5500</text>
  <line x1="55.8" y1="94.998" x2="60.8" y2="94.998" stroke="#333333" stroke-width="1" />
  <text x="52.8" y="98.998" text-anchor="end" font-family="system-ui, sans-serif" font-size="12" fill="#222222">6000</text>
  <text x="12" y="138" text-anchor="middle" transform="rotate(-90 12 138)" font-family="system-ui, sans-serif" font-size="12" fill="#222222">Body mass (g)</text>
</g>
<g class="algraf-axes">
  <line x1="433.8" y1="186" x2="734.8" y2="186" stroke="#333333" stroke-width="1" />
  <line x1="454.559" y1="186" x2="454.559" y2="191" stroke="#333333" stroke-width="1" />
  <text x="454.559" y="204" text-anchor="middle" font-family="system-ui, sans-serif" font-size="12" fill="#222222">180</text>
  <line x1="506.455" y1="186" x2="506.455" y2="191" stroke="#333333" stroke-width="1" />
  <text x="506.455" y="204" text-anchor="middle" font-family="system-ui, sans-serif" font-size="12" fill="#222222">190</text>
  <line x1="558.352" y1="186" x2="558.352" y2="191" stroke="#333333" stroke-width="1" />
  <text x="558.352" y="204" text-anchor="middle" font-family="system-ui, sans-serif" font-size="12" fill="#222222">200</text>
  <line x1="610.248" y1="186" x2="610.248" y2="191" stroke="#333333" stroke-width="1" />
  <text x="610.248" y="204" text-anchor="middle" font-family="system-ui, sans-serif" font-size="12" fill="#222222">210</text>
  <line x1="662.145" y1="186" x2="662.145" y2="191" stroke="#333333" stroke-width="1" />
  <text x="662.145" y="204" text-anchor="middle" font-family="system-ui, sans-serif" font-size="12" fill="#222222">220</text>
  <line x1="714.041" y1="186" x2="714.041" y2="191" stroke="#333333" stroke-width="1" />
  <text x="714.041" y="204" text-anchor="middle" font-family="system-ui, sans-serif" font-size="12" fill="#222222">230</text>
  <text x="584.3" y="224" text-anchor="middle" font-family="system-ui, sans-serif" font-size="12" fill="#222222">Flipper length (mm)</text>
  <line x1="433.8" y1="90" x2="433.8" y2="186" stroke="#333333" stroke-width="1" />
  <line x1="428.8" y1="176.134" x2="433.8" y2="176.134" stroke="#333333" stroke-width="1" />
  <text x="425.8" y="180.134" text-anchor="end" font-family="system-ui, sans-serif" font-size="12" fill="#222222">3500</text>
  <line x1="428.8" y1="159.907" x2="433.8" y2="159.907" stroke="#333333" stroke-width="1" />
  <text x="425.8" y="163.907" text-anchor="end" font-family="system-ui, sans-serif" font-size="12" fill="#222222">4000</text>
  <line x1="428.8" y1="143.68" x2="433.8" y2="143.68" stroke="#333333" stroke-width="1" />
  <text x="425.8" y="147.68" text-anchor="end" font-family="system-ui, sans-serif" font-size="12" fill="#222222">4500</text>
  <line x1="428.8" y1="127.452" x2="433.8" y2="127.452" stroke="#333333" stroke-width="1" />
  <text x="425.8" y="131.452" text-anchor="end" font-family="system-ui, sans-serif" font-size="12" fill="#222222">5000</text>
  <line x1="428.8" y1="111.225" x2="433.8" y2="111.225" stroke="#333333" stroke-width="1" />
  <text x="425.8" y="115.225" text-anchor="end" font-family="system-ui, sans-serif" font-size="12" fill="#222222">5500</text>
  <line x1="428.8" y1="94.998" x2="433.8" y2="94.998" stroke="#333333" stroke-width="1" />
  <text x="425.8" y="98.998" text-anchor="end" font-family="system-ui, sans-serif" font-size="12" fill="#222222">6000</text>
  <text x="385" y="138" text-anchor="middle" transform="rotate(-90 385 138)" font-family="system-ui, sans-serif" font-size="12" fill="#222222">Body mass (g)</text>
</g>
<g class="algraf-axes">
  <line x1="60.8" y1="370" x2="361.8" y2="370" stroke="#333333" stroke-width="1" />
  <line x1="81.559" y1="370" x2="81.559" y2="375" stroke="#333333" stroke-width="1" />
  <text x="81.559" y="388" text-anchor="middle" font-family="system-ui, sans-serif" font-size="12" fill="#222222">180</text>
  <line x1="133.455" y1="370" x2="133.455" y2="375" stroke="#333333" stroke-width="1" />
  <text x="133.455" y="388" text-anchor="middle" font-family="system-ui, sans-serif" font-size="12" fill="#222222">190</text>
  <line x1="185.352" y1="370" x2="185.352" y2="375" stroke="#333333" stroke-width="1" />
  <text x="185.352" y="388" text-anchor="middle" font-family="system-ui, sans-serif" font-size="12" fill="#222222">200</text>
  <line x1="237.248" y1="370" x2="237.248" y2="375" stroke="#333333" stroke-width="1" />
  <text x="237.248" y="388" text-anchor="middle" font-family="system-ui, sans-serif" font-size="12" fill="#222222">210</text>
  <line x1="289.145" y1="370" x2="289.145" y2="375" stroke="#333333" stroke-width="1" />
  <text x="289.145" y="388" text-anchor="middle" font-family="system-ui, sans-serif" font-size="12" fill="#222222">220</text>
  <line x1="341.041" y1="370" x2="341.041" y2="375" stroke="#333333" stroke-width="1" />
  <text x="341.041" y="388" text-anchor="middle" font-family="system-ui, sans-serif" font-size="12" fill="#222222">230</text>
  <text x="211.3" y="408" text-anchor="middle" font-family="system-ui, sans-serif" font-size="12" fill="#222222">Flipper length (mm)</text>
  <line x1="60.8" y1="274" x2="60.8" y2="370" stroke="#333333" stroke-width="1" />
  <line x1="55.8" y1="360.134" x2="60.8" y2="360.134" stroke="#333333" stroke-width="1" />
  <text x="52.8" y="364.134" text-anchor="end" font-family="system-ui, sans-serif" font-size="12" fill="#222222">3500</text>
  <line x1="55.8" y1="343.907" x2="60.8" y2="343.907" stroke="#333333" stroke-width="1" />
  <text x="52.8" y="347.907" text-anchor="end" font-family="system-ui, sans-serif" font-size="12" fill="#222222">4000</text>
  <line x1="55.8" y1="327.68" x2="60.8" y2="327.68" stroke="#333333" stroke-width="1" />
  <text x="52.8" y="331.68" text-anchor="end" font-family="system-ui, sans-serif" font-size="12" fill="#222222">4500</text>
  <line x1="55.8" y1="311.452" x2="60.8" y2="311.452" stroke="#333333" stroke-width="1" />
  <text x="52.8" y="315.452" text-anchor="end" font-family="system-ui, sans-serif" font-size="12" fill="#222222">5000</text>
  <line x1="55.8" y1="295.225" x2="60.8" y2="295.225" stroke="#333333" stroke-width="1" />
  <text x="52.8" y="299.225" text-anchor="end" font-family="system-ui, sans-serif" font-size="12" fill="#222222">5500</text>
  <line x1="55.8" y1="278.998" x2="60.8" y2="278.998" stroke="#333333" stroke-width="1" />
  <text x="52.8" y="282.998" text-anchor="end" font-family="system-ui, sans-serif" font-size="12" fill="#222222">6000</text>
  <text x="12" y="322" text-anchor="middle" transform="rotate(-90 12 322)" font-family="system-ui, sans-serif" font-size="12" fill="#222222">Body mass (g)</text>
</g>
<g class="algraf-legends">
  <text x="750.8" y="70" text-anchor="start" font-family="system-ui, sans-serif" font-size="12" fill="#222222">species</text>
  <rect x="750.8" y="78" width="12" height="12" fill="#4E79A7" />
  <text x="768.8" y="88" text-anchor="start" font-family="system-ui, sans-serif" font-size="12" fill="#222222">Adelie</text>
  <rect x="750.8" y="96" width="12" height="12" fill="#F28E2B" />
  <text x="768.8" y="106" text-anchor="start" font-family="system-ui, sans-serif" font-size="12" fill="#222222">Gentoo</text>
  <rect x="750.8" y="114" width="12" height="12" fill="#E15759" />
  <text x="768.8" y="124" text-anchor="start" font-family="system-ui, sans-serif" font-size="12" fill="#222222">Chinstrap</text>
  <text x="750.8" y="162" text-anchor="start" font-family="system-ui, sans-serif" font-size="12" fill="#222222">Bill length (mm)</text>
  <circle cx="761.8" cy="177" r="3.052" fill="#222222" />
  <text x="780.8" y="181" text-anchor="start" font-family="system-ui, sans-serif" font-size="12" fill="#222222">36</text>
  <circle cx="761.8" cy="195" r="5.13" fill="#222222" />
  <text x="780.8" y="199" text-anchor="start" font-family="system-ui, sans-serif" font-size="12" fill="#222222">40</text>
  <circle cx="761.8" cy="214.208" r="7.208" fill="#222222" />
  <text x="780.8" y="218.208" text-anchor="start" font-family="system-ui, sans-serif" font-size="12" fill="#222222">44</text>
  <circle cx="761.8" cy="236.701" r="9.286" fill="#222222" />
  <text x="780.8" y="240.701" text-anchor="start" font-family="system-ui, sans-serif" font-size="12" fill="#222222">48</text>
  <circle cx="761.8" cy="262.987" r="11" fill="#222222" />
  <text x="780.8" y="266.987" text-anchor="start" font-family="system-ui, sans-serif" font-size="12" fill="#222222">52</text>
  <text x="750.8" y="296.987" text-anchor="start" font-family="system-ui, sans-serif" font-size="12" fill="#222222">sex</text>
  <circle cx="756.8" cy="310.987" r="6" fill="#4E79A7" />
  <text x="768.8" y="314.987" text-anchor="start" font-family="system-ui, sans-serif" font-size="12" fill="#222222">male</text>
  <rect x="750.8" y="322.987" width="12" height="12" fill="#4E79A7" />
  <text x="768.8" y="332.987" text-anchor="start" font-family="system-ui, sans-serif" font-size="12" fill="#222222">female</text>
</g>
</svg>
