<svg xmlns="http://www.w3.org/2000/svg" width="420" height="420" viewBox="0 0 420 420" role="img" aria-label="Seasonal temperature">
<title>Seasonal temperature</title>
<rect class="algraf-background" x="0" y="0" width="420" height="420" fill="#ffffff" />
<text class="algraf-title" x="10" y="24" font-family="system-ui, sans-serif" font-size="18" font-weight="600" fill="#222222">Seasonal temperature</text>
<rect class="algraf-plot-area" x="10" y="36" width="400" height="374" fill="#ffffff" />
<g class="algraf-polar-grid">
  <circle cx="210" cy="223" r="31.522" fill="none" stroke="#e6e6e6" stroke-width="1" />
  <circle cx="210" cy="223" r="63.044" fill="none" stroke="#e6e6e6" stroke-width="1" />
  <circle cx="210" cy="223" r="94.565" fill="none" stroke="#e6e6e6" stroke-width="1" />
  <circle cx="210" cy="223" r="126.087" fill="none" stroke="#e6e6e6" stroke-width="1" />
  <circle cx="210" cy="223" r="157.609" fill="none" stroke="#e6e6e6" stroke-width="1" />
  <circle cx="210" cy="223" r="163.409" fill="none" stroke="#e6e6e6" stroke-width="1" />
  <line x1="210" y1="223" x2="252.293" y2="65.159" stroke="#e6e6e6" stroke-width="1" />
  <line x1="210" y1="223" x2="325.548" y2="107.452" stroke="#e6e6e6" stroke-width="1" />
  <line x1="210" y1="223" x2="367.841" y2="180.707" stroke="#e6e6e6" stroke-width="1" />
  <line x1="210" y1="223" x2="367.841" y2="265.293" stroke="#e6e6e6" stroke-width="1" />
  <line x1="210" y1="223" x2="325.548" y2="338.548" stroke="#e6e6e6" stroke-width="1" />
  <line x1="210" y1="223" x2="252.293" y2="380.841" stroke="#e6e6e6" stroke-width="1" />
  <line x1="210" y1="223" x2="167.707" y2="380.841" stroke="#e6e6e6" stroke-width="1" />
  <line x1="210" y1="223" x2="94.452" y2="338.548" stroke="#e6e6e6" stroke-width="1" />
  <line x1="210" y1="223" x2="52.159" y2="265.293" stroke="#e6e6e6" stroke-width="1" />
  <line x1="210" y1="223" x2="52.159" y2="180.707" stroke="#e6e6e6" stroke-width="1" />
  <line x1="210" y1="223" x2="94.452" y2="107.452" stroke="#e6e6e6" stroke-width="1" />
  <line x1="210" y1="223" x2="167.707" y2="65.159" stroke="#e6e6e6" stroke-width="1" />
</g>
<g class="algraf-layer algraf-geom-area">
  <path d="M216.527 198.642 L232.289 200.711 L264.806 208.315 L289.164 244.212 L285.783 298.783 L244.265 350.88 L170.84 369.149 L107.469 325.531 L94.299 254.002 L124.746 200.156 L169.879 182.879 L201.842 192.552 Z" fill="#bcd" opacity="0.4" />
</g>
<g class="algraf-layer algraf-geom-line">
  <path d="M216.527 198.642 L232.289 200.711 L264.806 208.315 L289.164 244.212 L285.783 298.783 L244.265 350.88 L170.84 369.149 L107.469 325.531 L94.299 254.002 L124.746 200.156 L169.879 182.879 L201.842 192.552Z" fill="none" stroke="#4E79A7" stroke-width="1.5" opacity="1" />
</g>
<g class="algraf-layer algraf-geom-point">
  <circle cx="216.527" cy="198.642" r="3" fill="#4E79A7" opacity="1" />
  <circle cx="232.289" cy="200.711" r="3" fill="#4E79A7" opacity="1" />
  <circle cx="264.806" cy="208.315" r="3" fill="#4E79A7" opacity="1" />
  <circle cx="289.164" cy="244.212" r="3" fill="#4E79A7" opacity="1" />
  <circle cx="285.783" cy="298.783" r="3" fill="#4E79A7" opacity="1" />
  <circle cx="244.265" cy="350.88" r="3" fill="#4E79A7" opacity="1" />
  <circle cx="170.84" cy="369.149" r="3" fill="#4E79A7" opacity="1" />
  <circle cx="107.469" cy="325.531" r="3" fill="#4E79A7" opacity="1" />
  <circle cx="94.299" cy="254.002" r="3" fill="#4E79A7" opacity="1" />
  <circle cx="124.746" cy="200.156" r="3" fill="#4E79A7" opacity="1" />
  <circle cx="169.879" cy="182.879" r="3" fill="#4E79A7" opacity="1" />
  <circle cx="201.842" cy="192.552" r="3" fill="#4E79A7" opacity="1" />
</g>
<g class="algraf-polar-theta-labels">
  <text x="255.399" y="53.568" text-anchor="start" font-family="system-ui, sans-serif" font-size="12" fill="#222222">Jan</text>
  <text x="334.033" y="98.967" text-anchor="start" font-family="system-ui, sans-serif" font-size="12" fill="#222222">Feb</text>
  <text x="379.432" y="177.601" text-anchor="start" font-family="system-ui, sans-serif" font-size="12" fill="#222222">Mar</text>
  <text x="379.432" y="268.399" text-anchor="start" font-family="system-ui, sans-serif" font-size="12" fill="#222222">Apr</text>
  <text x="334.033" y="347.033" text-anchor="start" font-family="system-ui, sans-serif" font-size="12" fill="#222222">May</text>
  <text x="255.399" y="392.432" text-anchor="start" font-family="system-ui, sans-serif" font-size="12" fill="#222222">Jun</text>
  <text x="164.601" y="392.432" text-anchor="end" font-family="system-ui, sans-serif" font-size="12" fill="#222222">Jul</text>
  <text x="85.967" y="347.033" text-anchor="end" font-family="system-ui, sans-serif" font-size="12" fill="#222222">Aug</text>
  <text x="40.568" y="268.399" text-anchor="end" font-family="system-ui, sans-serif" font-size="12" fill="#222222">Sep</text>
  <text x="40.568" y="177.601" text-anchor="end" font-family="system-ui, sans-serif" font-size="12" fill="#222222">Oct</text>
  <text x="85.967" y="98.967" text-anchor="end" font-family="system-ui, sans-serif" font-size="12" fill="#222222">Nov</text>
  <text x="164.601" y="53.568" text-anchor="end" font-family="system-ui, sans-serif" font-size="12" fill="#222222">Dec</text>
</g>
<g class="algraf-polar-radius-labels">
  <text x="213" y="221" text-anchor="start" font-family="system-ui, sans-serif" font-size="12" fill="#222222">0</text>
  <text x="213" y="189.478" text-anchor="start" font-family="system-ui, sans-serif" font-size="12" fill="#222222">5</text>
  <text x="213" y="157.956" text-anchor="start" font-family="system-ui, sans-serif" font-size="12" fill="#222222">10</text>
  <text x="213" y="126.435" text-anchor="start" font-family="system-ui, sans-serif" font-size="12" fill="#222222">15</text>
  <text x="213" y="94.913" text-anchor="start" font-family="system-ui, sans-serif" font-size="12" fill="#222222">20</text>
  <text x="213" y="63.391" text-anchor="start" font-family="system-ui, sans-serif" font-size="12" fill="#222222">25</text>
</g>
</svg>
