<svg xmlns="http://www.w3.org/2000/svg" width="460" height="460" viewBox="0 0 460 460" role="img" aria-label="Sales by rep (radial bar)">
<title>Sales by rep (radial bar)</title>
<rect class="algraf-background" x="0" y="0" width="460" height="460" fill="#ffffff" />
<text class="algraf-title" x="10" y="24" font-family="system-ui, sans-serif" font-size="18" font-weight="600" fill="#222222">Sales by rep (radial bar)</text>
<rect class="algraf-plot-area" x="10" y="36" width="320" height="414" fill="#ffffff" />
<g class="algraf-polar-grid">
  <circle cx="170" cy="243" r="160" fill="none" stroke="#e6e6e6" stroke-width="1" />
</g>
<g class="algraf-layer algraf-geom-bar">
  <path d="M 170 89 A 154 154 0 1 1 122.369 96.551 L 130.41 121.276 A 128 128 0 1 0 170 115 Z" fill="#4E79A7" opacity="1" />
  <path d="M 170 121 A 122 122 0 1 1 48.177 249.568 L 74.139 248.168 A 96 96 0 1 0 170 147 Z" fill="#F28E2B" opacity="1" />
  <path d="M 170 153 A 90 90 0 1 1 93.91 291.065 L 115.891 277.18 A 64 64 0 1 0 170 179 Z" fill="#E15759" opacity="1" />
  <path d="M 170 185 A 58 58 0 0 1 179.082 300.285 L 175.011 274.605 A 32 32 0 0 0 170 211 Z" fill="#76B7B2" opacity="1" />
  <path d="M 170 217 A 26 26 0 0 1 193.212 254.713 L 170 243 Z" fill="#59A14F" opacity="1" />
</g>
<g class="algraf-legends">
  <text x="346" y="40" text-anchor="start" font-family="system-ui, sans-serif" font-size="12" fill="#222222">rep</text>
  <rect x="346" y="48" width="12" height="12" fill="#4E79A7" />
  <text x="364" y="58" text-anchor="start" font-family="system-ui, sans-serif" font-size="12" fill="#222222">Alice</text>
  <rect x="346" y="66" width="12" height="12" fill="#F28E2B" />
  <text x="364" y="76" text-anchor="start" font-family="system-ui, sans-serif" font-size="12" fill="#222222">Bowman</text>
  <rect x="346" y="84" width="12" height="12" fill="#E15759" />
  <text x="364" y="94" text-anchor="start" font-family="system-ui, sans-serif" font-size="12" fill="#222222">Chen</text>
  <rect x="346" y="102" width="12" height="12" fill="#76B7B2" />
  <text x="364" y="112" text-anchor="start" font-family="system-ui, sans-serif" font-size="12" fill="#222222">Diaz</text>
  <rect x="346" y="120" width="12" height="12" fill="#59A14F" />
  <text x="364" y="130" text-anchor="start" font-family="system-ui, sans-serif" font-size="12" fill="#222222">Evans</text>
</g>
</svg>
