<svg xmlns="http://www.w3.org/2000/svg" width="760" height="460" viewBox="0 0 760 460" role="img">
<rect class="algraf-background" x="0" y="0" width="760" height="460" fill="#ffffff" />
<rect class="algraf-plot-area" x="60" y="40" width="670" height="370" fill="#ffffff" />
<g class="algraf-grid">
  <line x1="60" y1="40" x2="60" y2="410" stroke="#e6e6e6" stroke-width="1" />
  <line x1="194" y1="40" x2="194" y2="410" stroke="#e6e6e6" stroke-width="1" />
  <line x1="328" y1="40" x2="328" y2="410" stroke="#e6e6e6" stroke-width="1" />
  <line x1="462" y1="40" x2="462" y2="410" stroke="#e6e6e6" stroke-width="1" />
  <line x1="596" y1="40" x2="596" y2="410" stroke="#e6e6e6" stroke-width="1" />
  <line x1="730" y1="40" x2="730" y2="410" stroke="#e6e6e6" stroke-width="1" />
  <line x1="60" y1="384.483" x2="730" y2="384.483" stroke="#e6e6e6" stroke-width="1" />
  <line x1="60" y1="284.806" x2="730" y2="284.806" stroke="#e6e6e6" stroke-width="1" />
  <line x1="60" y1="185.129" x2="730" y2="185.129" stroke="#e6e6e6" stroke-width="1" />
  <line x1="60" y1="85.453" x2="730" y2="85.453" stroke="#e6e6e6" stroke-width="1" />
</g>
<g class="algraf-layer algraf-geom-ribbon">
  <path d="M60 304.741 L194 225 L328 165.194 L462 205.065 L596 105.388 L730 65.517 L730 244.935 L596 284.806 L462 364.547 L328 324.677 L194 344.612 L60 384.483 Z" fill="steelblue" opacity="0.25" />
</g>
<g class="algraf-axes">
  <line x1="60" y1="410" x2="730" y2="410" stroke="#333333" stroke-width="1" />
  <line x1="60" y1="410" x2="60" y2="415" stroke="#333333" stroke-width="1" />
  <text x="60" y="428" text-anchor="start" font-family="system-ui, sans-serif" font-size="12" fill="#222222">2026-01-01</text>
  <line x1="194" y1="410" x2="194" y2="415" stroke="#333333" stroke-width="1" />
  <text x="194" y="428" text-anchor="middle" font-family="system-ui, sans-serif" font-size="12" fill="#222222">2026-01-02</text>
  <line x1="328" y1="410" x2="328" y2="415" stroke="#333333" stroke-width="1" />
  <text x="328" y="428" text-anchor="middle" font-family="system-ui, sans-serif" font-size="12" fill="#222222">2026-01-03</text>
  <line x1="462" y1="410" x2="462" y2="415" stroke="#333333" stroke-width="1" />
  <text x="462" y="428" text-anchor="middle" font-family="system-ui, sans-serif" font-size="12" fill="#222222">2026-01-04</text>
  <line x1="596" y1="410" x2="596" y2="415" stroke="#333333" stroke-width="1" />
  <text x="596" y="428" text-anchor="middle" font-family="system-ui, sans-serif" font-size="12" fill="#222222">2026-01-05</text>
  <line x1="730" y1="410" x2="730" y2="415" stroke="#333333" stroke-width="1" />
  <text x="730" y="428" text-anchor="end" font-family="system-ui, sans-serif" font-size="12" fill="#222222">2026-01-06</text>
  <text x="395" y="448" text-anchor="middle" font-family="system-ui, sans-serif" font-size="12" fill="#222222">day</text>
  <line x1="60" y1="40" x2="60" y2="410" stroke="#333333" stroke-width="1" />
  <line x1="55" y1="384.483" x2="60" y2="384.483" stroke="#333333" stroke-width="1" />
  <text x="52" y="388.483" text-anchor="end" font-family="system-ui, sans-serif" font-size="12" fill="#222222">10</text>
  <line x1="55" y1="284.806" x2="60" y2="284.806" stroke="#333333" stroke-width="1" />
  <text x="52" y="288.806" text-anchor="end" font-family="system-ui, sans-serif" font-size="12" fill="#222222">15</text>
  <line x1="55" y1="185.129" x2="60" y2="185.129" stroke="#333333" stroke-width="1" />
  <text x="52" y="189.129" text-anchor="end" font-family="system-ui, sans-serif" font-size="12" fill="#222222">20</text>
  <line x1="55" y1="85.453" x2="60" y2="85.453" stroke="#333333" stroke-width="1" />
  <text x="52" y="89.453" text-anchor="end" font-family="system-ui, sans-serif" font-size="12" fill="#222222">25</text>
  <text x="31.6" y="225" text-anchor="middle" transform="rotate(-90 31.6 225)" font-family="system-ui, sans-serif" font-size="12" fill="#222222">lower + upper</text>
</g>
</svg>
