<svg xmlns="http://www.w3.org/2000/svg" width="760" height="460" viewBox="0 0 760 460" role="img">
<rect class="algraf-background" x="0" y="0" width="760" height="460" fill="#ffffff" />
<rect class="algraf-plot-area" x="60" y="40" width="650" height="370" fill="#ffffff" />
<g class="algraf-grid">
  <line x1="60" y1="40" x2="60" y2="410" stroke="#e6e6e6" stroke-width="1" />
  <line x1="190" y1="40" x2="190" y2="410" stroke="#e6e6e6" stroke-width="1" />
  <line x1="320" y1="40" x2="320" y2="410" stroke="#e6e6e6" stroke-width="1" />
  <line x1="450" y1="40" x2="450" y2="410" stroke="#e6e6e6" stroke-width="1" />
  <line x1="580" y1="40" x2="580" y2="410" stroke="#e6e6e6" stroke-width="1" />
  <line x1="710" y1="40" x2="710" y2="410" stroke="#e6e6e6" stroke-width="1" />
  <line x1="60" y1="384.483" x2="710" y2="384.483" stroke="#e6e6e6" stroke-width="1" />
  <line x1="60" y1="284.806" x2="710" y2="284.806" stroke="#e6e6e6" stroke-width="1" />
  <line x1="60" y1="185.129" x2="710" y2="185.129" stroke="#e6e6e6" stroke-width="1" />
  <line x1="60" y1="85.453" x2="710" y2="85.453" stroke="#e6e6e6" stroke-width="1" />
</g>
<g class="algraf-layer algraf-geom-ribbon">
  <path d="M60 304.741 L190 225 L320 165.194 L450 205.065 L580 105.388 L710 65.517 L710 244.935 L580 284.806 L450 364.547 L320 324.677 L190 344.612 L60 384.483 Z" fill="steelblue" opacity="0.25" />
</g>
<g class="algraf-axes">
  <line x1="60" y1="410" x2="710" y2="410" stroke="#333333" stroke-width="1" />
  <line x1="60" y1="410" x2="60" y2="415" stroke="#333333" stroke-width="1" />
  <text x="60" y="428" text-anchor="middle" font-family="system-ui, sans-serif" font-size="12" fill="#222222">2026-01-01</text>
  <line x1="190" y1="410" x2="190" y2="415" stroke="#333333" stroke-width="1" />
  <text x="190" y="428" text-anchor="middle" font-family="system-ui, sans-serif" font-size="12" fill="#222222">2026-01-02</text>
  <line x1="320" y1="410" x2="320" y2="415" stroke="#333333" stroke-width="1" />
  <text x="320" y="428" text-anchor="middle" font-family="system-ui, sans-serif" font-size="12" fill="#222222">2026-01-03</text>
  <line x1="450" y1="410" x2="450" y2="415" stroke="#333333" stroke-width="1" />
  <text x="450" y="428" text-anchor="middle" font-family="system-ui, sans-serif" font-size="12" fill="#222222">2026-01-04</text>
  <line x1="580" y1="410" x2="580" y2="415" stroke="#333333" stroke-width="1" />
  <text x="580" y="428" text-anchor="middle" font-family="system-ui, sans-serif" font-size="12" fill="#222222">2026-01-05</text>
  <line x1="710" y1="410" x2="710" y2="415" stroke="#333333" stroke-width="1" />
  <text x="710" y="428" text-anchor="middle" font-family="system-ui, sans-serif" font-size="12" fill="#222222">2026-01-06</text>
  <text x="385" y="448" text-anchor="middle" font-family="system-ui, sans-serif" font-size="12" fill="#222222">day</text>
  <line x1="60" y1="40" x2="60" y2="410" stroke="#333333" stroke-width="1" />
  <line x1="55" y1="384.483" x2="60" y2="384.483" stroke="#333333" stroke-width="1" />
  <text x="52" y="388.483" text-anchor="end" font-family="system-ui, sans-serif" font-size="12" fill="#222222">10</text>
  <line x1="55" y1="284.806" x2="60" y2="284.806" stroke="#333333" stroke-width="1" />
  <text x="52" y="288.806" text-anchor="end" font-family="system-ui, sans-serif" font-size="12" fill="#222222">15</text>
  <line x1="55" y1="185.129" x2="60" y2="185.129" stroke="#333333" stroke-width="1" />
  <text x="52" y="189.129" text-anchor="end" font-family="system-ui, sans-serif" font-size="12" fill="#222222">20</text>
  <line x1="55" y1="85.453" x2="60" y2="85.453" stroke="#333333" stroke-width="1" />
  <text x="52" y="89.453" text-anchor="end" font-family="system-ui, sans-serif" font-size="12" fill="#222222">25</text>
  <text x="25.6" y="225" text-anchor="middle" transform="rotate(-90 25.6 225)" font-family="system-ui, sans-serif" font-size="12" fill="#222222">lower + upper</text>
</g>
</svg>
