<svg xmlns="http://www.w3.org/2000/svg" width="760" height="760" viewBox="0 0 760 760" role="img" aria-label="Temperature over the Year">
<title>Temperature over the Year</title>
<rect class="algraf-background" x="0" y="0" width="760" height="760" fill="#ffffff" />
<text class="algraf-title" x="407.4" y="24" text-anchor="middle" font-family="system-ui, sans-serif" font-size="26" fill="#222222">Temperature over the Year</text>
<rect class="algraf-plot-area" x="84.8" y="74" width="645.2" height="636" fill="#fafafa" />
<g class="algraf-grid">
  <line x1="84.8" y1="74" x2="84.8" y2="710" stroke="#d2d2d2" stroke-width="0.25" stroke-dasharray="4 4" />
  <line x1="228.178" y1="74" x2="228.178" y2="710" stroke="#d2d2d2" stroke-width="0.25" stroke-dasharray="4 4" />
  <line x1="371.556" y1="74" x2="371.556" y2="710" stroke="#d2d2d2" stroke-width="0.25" stroke-dasharray="4 4" />
  <line x1="514.933" y1="74" x2="514.933" y2="710" stroke="#d2d2d2" stroke-width="0.25" stroke-dasharray="4 4" />
  <line x1="658.311" y1="74" x2="658.311" y2="710" stroke="#d2d2d2" stroke-width="0.25" stroke-dasharray="4 4" />
</g>
<defs>
<clipPath id="algraf-clip-0"><rect x="83.8" y="0" width="647.2" height="760" /></clipPath>
</defs>
<g clip-path="url(#algraf-clip-0)">
  <g class="algraf-layer algraf-geom-violin">
    <path d="M78.778 100.446 L81.924 100.417 L85.069 100.374 L88.214 100.314 L91.359 100.23 L94.505 100.117 L97.65 99.968 L100.795 99.776 L103.94 99.536 L107.086 99.243 L110.231 98.893 L113.376 98.488 L116.521 98.03 L119.667 97.525 L122.812 96.984 L125.957 96.419 L129.102 95.845 L132.248 95.276 L135.393 94.728 L138.538 94.212 L141.683 93.739 L144.829 93.314 L147.974 92.939 L151.119 92.611 L154.264 92.326 L157.41 92.073 L160.555 91.841 L163.7 91.615 L166.845 91.381 L169.991 91.122 L173.136 90.822 L176.281 90.467 L179.426 90.042 L182.572 89.536 L185.717 88.941 L188.862 88.256 L192.007 87.484 L195.153 86.632 L198.298 85.719 L201.443 84.764 L204.588 83.795 L207.734 82.844 L210.879 81.944 L214.024 81.128 L217.169 80.429 L220.315 79.877 L223.46 79.495 L226.605 79.3 L229.75 79.3 L232.896 79.495 L236.041 79.877 L239.186 80.429 L242.331 81.128 L245.477 81.944 L248.622 82.844 L251.767 83.795 L254.912 84.764 L258.058 85.719 L261.203 86.632 L264.348 87.484 L267.493 88.256 L270.639 88.941 L273.784 89.536 L276.929 90.042 L280.074 90.467 L283.22 90.822 L286.365 91.122 L289.51 91.381 L292.655 91.615 L295.801 91.841 L298.946 92.073 L302.091 92.326 L305.236 92.611 L308.382 92.939 L311.527 93.314 L314.672 93.739 L317.817 94.212 L320.963 94.728 L324.108 95.276 L327.253 95.845 L330.398 96.419 L333.544 96.984 L336.689 97.525 L339.834 98.03 L342.979 98.488 L346.125 98.893 L349.27 99.243 L352.415 99.536 L355.56 99.776 L358.706 99.968 L361.851 100.117 L364.996 100.23 L368.141 100.314 L371.287 100.374 L374.432 100.417 L377.577 100.446 L377.577 100.5 L374.432 100.5 L371.287 100.5 L368.141 100.5 L364.996 100.5 L361.851 100.5 L358.706 100.5 L355.56 100.5 L352.415 100.5 L349.27 100.5 L346.125 100.5 L342.979 100.5 L339.834 100.5 L336.689 100.5 L333.544 100.5 L330.398 100.5 L327.253 100.5 L324.108 100.5 L320.963 100.5 L317.817 100.5 L314.672 100.5 L311.527 100.5 L308.382 100.5 L305.236 100.5 L302.091 100.5 L298.946 100.5 L295.801 100.5 L292.655 100.5 L289.51 100.5 L286.365 100.5 L283.22 100.5 L280.074 100.5 L276.929 100.5 L273.784 100.5 L270.639 100.5 L267.493 100.5 L264.348 100.5 L261.203 100.5 L258.058 100.5 L254.912 100.5 L251.767 100.5 L248.622 100.5 L245.477 100.5 L242.331 100.5 L239.186 100.5 L236.041 100.5 L232.896 100.5 L229.75 100.5 L226.605 100.5 L223.46 100.5 L220.315 100.5 L217.169 100.5 L214.024 100.5 L210.879 100.5 L207.734 100.5 L204.588 100.5 L201.443 100.5 L198.298 100.5 L195.153 100.5 L192.007 100.5 L188.862 100.5 L185.717 100.5 L182.572 100.5 L179.426 100.5 L176.281 100.5 L173.136 100.5 L169.991 100.5 L166.845 100.5 L163.7 100.5 L160.555 100.5 L157.41 100.5 L154.264 100.5 L151.119 100.5 L147.974 100.5 L144.829 100.5 L141.683 100.5 L138.538 100.5 L135.393 100.5 L132.248 100.5 L129.102 100.5 L125.957 100.5 L122.812 100.5 L119.667 100.5 L116.521 100.5 L113.376 100.5 L110.231 100.5 L107.086 100.5 L103.94 100.5 L100.795 100.5 L97.65 100.5 L94.505 100.5 L91.359 100.5 L88.214 100.5 L85.069 100.5 L81.924 100.5 L78.778 100.5 Z" fill="#3722a3" opacity="0.85" />
    <path d="M93.116 153.446 L96.262 153.417 L99.407 153.374 L102.552 153.314 L105.697 153.23 L108.843 153.117 L111.988 152.968 L115.133 152.776 L118.278 152.536 L121.423 152.243 L124.569 151.893 L127.714 151.488 L130.859 151.03 L134.004 150.525 L137.15 149.984 L140.295 149.419 L143.44 148.845 L146.585 148.276 L149.731 147.728 L152.876 147.212 L156.021 146.739 L159.166 146.314 L162.312 145.939 L165.457 145.611 L168.602 145.326 L171.747 145.073 L174.893 144.841 L178.038 144.615 L181.183 144.381 L184.328 144.122 L187.474 143.822 L190.619 143.467 L193.764 143.042 L196.909 142.536 L200.055 141.941 L203.2 141.256 L206.345 140.484 L209.49 139.632 L212.636 138.719 L215.781 137.764 L218.926 136.795 L222.071 135.844 L225.217 134.944 L228.362 134.128 L231.507 133.429 L234.652 132.877 L237.798 132.495 L240.943 132.3 L244.088 132.3 L247.233 132.495 L250.379 132.877 L253.524 133.429 L256.669 134.128 L259.814 134.944 L262.96 135.844 L266.105 136.795 L269.25 137.764 L272.395 138.719 L275.541 139.632 L278.686 140.484 L281.831 141.256 L284.976 141.941 L288.122 142.536 L291.267 143.042 L294.412 143.467 L297.557 143.822 L300.703 144.122 L303.848 144.381 L306.993 144.615 L310.138 144.841 L313.284 145.073 L316.429 145.326 L319.574 145.611 L322.719 145.939 L325.865 146.314 L329.01 146.739 L332.155 147.212 L335.3 147.728 L338.446 148.276 L341.591 148.845 L344.736 149.419 L347.881 149.984 L351.027 150.525 L354.172 151.03 L357.317 151.488 L360.462 151.893 L363.608 152.243 L366.753 152.536 L369.898 152.776 L373.043 152.968 L376.189 153.117 L379.334 153.23 L382.479 153.314 L385.624 153.374 L388.77 153.417 L391.915 153.446 L391.915 153.5 L388.77 153.5 L385.624 153.5 L382.479 153.5 L379.334 153.5 L376.189 153.5 L373.043 153.5 L369.898 153.5 L366.753 153.5 L363.608 153.5 L360.462 153.5 L357.317 153.5 L354.172 153.5 L351.027 153.5 L347.881 153.5 L344.736 153.5 L341.591 153.5 L338.446 153.5 L335.3 153.5 L332.155 153.5 L329.01 153.5 L325.865 153.5 L322.719 153.5 L319.574 153.5 L316.429 153.5 L313.284 153.5 L310.138 153.5 L306.993 153.5 L303.848 153.5 L300.703 153.5 L297.557 153.5 L294.412 153.5 L291.267 153.5 L288.122 153.5 L284.976 153.5 L281.831 153.5 L278.686 153.5 L275.541 153.5 L272.395 153.5 L269.25 153.5 L266.105 153.5 L262.96 153.5 L259.814 153.5 L256.669 153.5 L253.524 153.5 L250.379 153.5 L247.233 153.5 L244.088 153.5 L240.943 153.5 L237.798 153.5 L234.652 153.5 L231.507 153.5 L228.362 153.5 L225.217 153.5 L222.071 153.5 L218.926 153.5 L215.781 153.5 L212.636 153.5 L209.49 153.5 L206.345 153.5 L203.2 153.5 L200.055 153.5 L196.909 153.5 L193.764 153.5 L190.619 153.5 L187.474 153.5 L184.328 153.5 L181.183 153.5 L178.038 153.5 L174.893 153.5 L171.747 153.5 L168.602 153.5 L165.457 153.5 L162.312 153.5 L159.166 153.5 L156.021 153.5 L152.876 153.5 L149.731 153.5 L146.585 153.5 L143.44 153.5 L140.295 153.5 L137.15 153.5 L134.004 153.5 L130.859 153.5 L127.714 153.5 L124.569 153.5 L121.423 153.5 L118.278 153.5 L115.133 153.5 L111.988 153.5 L108.843 153.5 L105.697 153.5 L102.552 153.5 L99.407 153.5 L96.262 153.5 L93.116 153.5 Z" fill="#3c229e" opacity="0.85" />
    <path d="M47.092 206.447 L52.112 206.417 L57.132 206.371 L62.151 206.305 L67.171 206.212 L72.191 206.086 L77.21 205.919 L82.23 205.705 L87.25 205.438 L92.27 205.117 L97.289 204.74 L102.309 204.315 L107.329 203.849 L112.349 203.357 L117.368 202.856 L122.388 202.364 L127.408 201.9 L132.427 201.48 L137.447 201.115 L142.467 200.809 L147.487 200.56 L152.506 200.361 L157.526 200.198 L162.546 200.055 L167.565 199.915 L172.585 199.762 L177.605 199.586 L182.625 199.377 L187.644 199.129 L192.664 198.839 L197.684 198.503 L202.704 198.117 L207.723 197.675 L212.743 197.169 L217.763 196.589 L222.782 195.927 L227.802 195.176 L232.822 194.335 L237.842 193.408 L242.861 192.41 L247.881 191.362 L252.901 190.294 L257.92 189.242 L262.94 188.245 L267.96 187.344 L272.98 186.576 L277.999 185.97 L283.019 185.549 L288.039 185.325 L293.058 185.3 L298.078 185.467 L303.098 185.811 L308.118 186.313 L313.137 186.953 L318.157 187.707 L323.177 188.557 L328.197 189.484 L333.216 190.471 L338.236 191.504 L343.256 192.567 L348.275 193.644 L353.295 194.717 L358.315 195.767 L363.335 196.77 L368.354 197.703 L373.374 198.545 L378.394 199.275 L383.413 199.881 L388.433 200.355 L393.453 200.701 L398.473 200.93 L403.492 201.063 L408.512 201.13 L413.532 201.161 L418.551 201.191 L423.571 201.251 L428.591 201.364 L433.611 201.547 L438.63 201.807 L443.65 202.14 L448.67 202.534 L453.69 202.974 L458.709 203.436 L463.729 203.901 L468.749 204.348 L473.768 204.761 L478.788 205.129 L483.808 205.446 L488.828 205.709 L493.847 205.921 L498.867 206.087 L503.887 206.213 L508.906 206.305 L513.926 206.371 L518.946 206.417 L523.966 206.448 L523.966 206.5 L518.946 206.5 L513.926 206.5 L508.906 206.5 L503.887 206.5 L498.867 206.5 L493.847 206.5 L488.828 206.5 L483.808 206.5 L478.788 206.5 L473.768 206.5 L468.749 206.5 L463.729 206.5 L458.709 206.5 L453.69 206.5 L448.67 206.5 L443.65 206.5 L438.63 206.5 L433.611 206.5 L428.591 206.5 L423.571 206.5 L418.551 206.5 L413.532 206.5 L408.512 206.5 L403.492 206.5 L398.473 206.5 L393.453 206.5 L388.433 206.5 L383.413 206.5 L378.394 206.5 L373.374 206.5 L368.354 206.5 L363.335 206.5 L358.315 206.5 L353.295 206.5 L348.275 206.5 L343.256 206.5 L338.236 206.5 L333.216 206.5 L328.197 206.5 L323.177 206.5 L318.157 206.5 L313.137 206.5 L308.118 206.5 L303.098 206.5 L298.078 206.5 L293.058 206.5 L288.039 206.5 L283.019 206.5 L277.999 206.5 L272.98 206.5 L267.96 206.5 L262.94 206.5 L257.92 206.5 L252.901 206.5 L247.881 206.5 L242.861 206.5 L237.842 206.5 L232.822 206.5 L227.802 206.5 L222.782 206.5 L217.763 206.5 L212.743 206.5 L207.723 206.5 L202.704 206.5 L197.684 206.5 L192.664 206.5 L187.644 206.5 L182.625 206.5 L177.605 206.5 L172.585 206.5 L167.565 206.5 L162.546 206.5 L157.526 206.5 L152.506 206.5 L147.487 206.5 L142.467 206.5 L137.447 206.5 L132.427 206.5 L127.408 206.5 L122.388 206.5 L117.368 206.5 L112.349 206.5 L107.329 206.5 L102.309 206.5 L97.289 206.5 L92.27 206.5 L87.25 206.5 L82.23 206.5 L77.21 206.5 L72.191 206.5 L67.171 206.5 L62.151 206.5 L57.132 206.5 L52.112 206.5 L47.092 206.5 Z" fill="#4c228c" opacity="0.85" />
    <path d="M54.651 259.446 L60.869 259.421 L67.088 259.386 L73.307 259.337 L79.526 259.272 L85.745 259.186 L91.964 259.075 L98.183 258.932 L104.402 258.752 L110.621 258.53 L116.84 258.262 L123.059 257.941 L129.277 257.567 L135.496 257.135 L141.715 256.648 L147.934 256.106 L154.153 255.514 L160.372 254.878 L166.591 254.206 L172.81 253.508 L179.029 252.793 L185.248 252.072 L191.467 251.354 L197.686 250.648 L203.904 249.96 L210.123 249.297 L216.342 248.659 L222.561 248.046 L228.78 247.457 L234.999 246.888 L241.218 246.334 L247.437 245.788 L253.656 245.246 L259.875 244.702 L266.094 244.153 L272.312 243.598 L278.531 243.037 L284.75 242.473 L290.969 241.911 L297.188 241.357 L303.407 240.821 L309.626 240.311 L315.845 239.839 L322.064 239.414 L328.283 239.047 L334.502 238.745 L340.721 238.517 L346.939 238.367 L353.158 238.3 L359.377 238.316 L365.596 238.415 L371.815 238.596 L378.034 238.854 L384.253 239.185 L390.472 239.583 L396.691 240.043 L402.91 240.558 L409.129 241.121 L415.347 241.726 L421.566 242.365 L427.785 243.032 L434.004 243.72 L440.223 244.423 L446.442 245.136 L452.661 245.852 L458.88 246.569 L465.099 247.284 L471.318 247.994 L477.537 248.7 L483.756 249.4 L489.974 250.096 L496.193 250.786 L502.412 251.472 L508.631 252.151 L514.85 252.822 L521.069 253.481 L527.288 254.124 L533.507 254.745 L539.726 255.339 L545.945 255.9 L552.164 256.422 L558.382 256.902 L564.601 257.336 L570.82 257.722 L577.039 258.059 L583.258 258.349 L589.477 258.594 L595.696 258.798 L601.915 258.964 L608.134 259.097 L614.353 259.202 L620.572 259.283 L626.791 259.344 L633.009 259.39 L639.228 259.424 L645.447 259.448 L645.447 259.5 L639.228 259.5 L633.009 259.5 L626.791 259.5 L620.572 259.5 L614.353 259.5 L608.134 259.5 L601.915 259.5 L595.696 259.5 L589.477 259.5 L583.258 259.5 L577.039 259.5 L570.82 259.5 L564.601 259.5 L558.382 259.5 L552.164 259.5 L545.945 259.5 L539.726 259.5 L533.507 259.5 L527.288 259.5 L521.069 259.5 L514.85 259.5 L508.631 259.5 L502.412 259.5 L496.193 259.5 L489.974 259.5 L483.756 259.5 L477.537 259.5 L471.318 259.5 L465.099 259.5 L458.88 259.5 L452.661 259.5 L446.442 259.5 L440.223 259.5 L434.004 259.5 L427.785 259.5 L421.566 259.5 L415.347 259.5 L409.129 259.5 L402.91 259.5 L396.691 259.5 L390.472 259.5 L384.253 259.5 L378.034 259.5 L371.815 259.5 L365.596 259.5 L359.377 259.5 L353.158 259.5 L346.939 259.5 L340.721 259.5 L334.502 259.5 L328.283 259.5 L322.064 259.5 L315.845 259.5 L309.626 259.5 L303.407 259.5 L297.188 259.5 L290.969 259.5 L284.75 259.5 L278.531 259.5 L272.312 259.5 L266.094 259.5 L259.875 259.5 L253.656 259.5 L247.437 259.5 L241.218 259.5 L234.999 259.5 L228.78 259.5 L222.561 259.5 L216.342 259.5 L210.123 259.5 L203.904 259.5 L197.686 259.5 L191.467 259.5 L185.248 259.5 L179.029 259.5 L172.81 259.5 L166.591 259.5 L160.372 259.5 L154.153 259.5 L147.934 259.5 L141.715 259.5 L135.496 259.5 L129.277 259.5 L123.059 259.5 L116.84 259.5 L110.621 259.5 L104.402 259.5 L98.183 259.5 L91.964 259.5 L85.745 259.5 L79.526 259.5 L73.307 259.5 L67.088 259.5 L60.869 259.5 L54.651 259.5 Z" fill="#612274" opacity="0.85" />
    <path d="M37.302 312.447 L45.395 312.42 L53.489 312.382 L61.582 312.33 L69.676 312.258 L77.769 312.163 L85.862 312.039 L93.956 311.88 L102.049 311.682 L110.142 311.438 L118.236 311.146 L126.329 310.802 L134.423 310.407 L142.516 309.962 L150.609 309.47 L158.703 308.939 L166.796 308.375 L174.89 307.79 L182.983 307.194 L191.076 306.596 L199.17 306.007 L207.263 305.434 L215.356 304.882 L223.45 304.356 L231.543 303.853 L239.637 303.372 L247.73 302.908 L255.823 302.453 L263.917 302 L272.01 301.54 L280.104 301.064 L288.197 300.564 L296.29 300.033 L304.384 299.467 L312.477 298.864 L320.57 298.222 L328.664 297.546 L336.757 296.841 L344.851 296.118 L352.944 295.389 L361.037 294.669 L369.131 293.975 L377.224 293.327 L385.318 292.742 L393.411 292.239 L401.504 291.833 L409.598 291.536 L417.691 291.357 L425.784 291.3 L433.878 291.366 L441.971 291.551 L450.065 291.847 L458.158 292.245 L466.251 292.73 L474.345 293.289 L482.438 293.908 L490.532 294.57 L498.625 295.262 L506.718 295.969 L514.812 296.68 L522.905 297.383 L530.998 298.07 L539.092 298.735 L547.185 299.372 L555.279 299.981 L563.372 300.562 L571.465 301.117 L579.559 301.652 L587.652 302.172 L595.746 302.686 L603.839 303.201 L611.932 303.724 L620.026 304.26 L628.119 304.813 L636.212 305.384 L644.306 305.973 L652.399 306.573 L660.493 307.178 L668.586 307.78 L676.679 308.369 L684.773 308.935 L692.866 309.468 L700.96 309.96 L709.053 310.406 L717.146 310.802 L725.24 311.146 L733.333 311.438 L741.427 311.682 L749.52 311.88 L757.613 312.039 L765.707 312.163 L773.8 312.258 L781.893 312.33 L789.987 312.382 L798.08 312.42 L806.174 312.447 L806.174 312.5 L798.08 312.5 L789.987 312.5 L781.893 312.5 L773.8 312.5 L765.707 312.5 L757.613 312.5 L749.52 312.5 L741.427 312.5 L733.333 312.5 L725.24 312.5 L717.146 312.5 L709.053 312.5 L700.96 312.5 L692.866 312.5 L684.773 312.5 L676.679 312.5 L668.586 312.5 L660.493 312.5 L652.399 312.5 L644.306 312.5 L636.212 312.5 L628.119 312.5 L620.026 312.5 L611.932 312.5 L603.839 312.5 L595.746 312.5 L587.652 312.5 L579.559 312.5 L571.465 312.5 L563.372 312.5 L555.279 312.5 L547.185 312.5 L539.092 312.5 L530.998 312.5 L522.905 312.5 L514.812 312.5 L506.718 312.5 L498.625 312.5 L490.532 312.5 L482.438 312.5 L474.345 312.5 L466.251 312.5 L458.158 312.5 L450.065 312.5 L441.971 312.5 L433.878 312.5 L425.784 312.5 L417.691 312.5 L409.598 312.5 L401.504 312.5 L393.411 312.5 L385.318 312.5 L377.224 312.5 L369.131 312.5 L361.037 312.5 L352.944 312.5 L344.851 312.5 L336.757 312.5 L328.664 312.5 L320.57 312.5 L312.477 312.5 L304.384 312.5 L296.29 312.5 L288.197 312.5 L280.104 312.5 L272.01 312.5 L263.917 312.5 L255.823 312.5 L247.73 312.5 L239.637 312.5 L231.543 312.5 L223.45 312.5 L215.356 312.5 L207.263 312.5 L199.17 312.5 L191.076 312.5 L182.983 312.5 L174.89 312.5 L166.796 312.5 L158.703 312.5 L150.609 312.5 L142.516 312.5 L134.423 312.5 L126.329 312.5 L118.236 312.5 L110.142 312.5 L102.049 312.5 L93.956 312.5 L85.862 312.5 L77.769 312.5 L69.676 312.5 L61.582 312.5 L53.489 312.5 L45.395 312.5 L37.302 312.5 Z" fill="#7b2257" opacity="0.85" />
    <path d="M33.533 365.447 L42.612 365.421 L51.69 365.382 L60.768 365.329 L69.846 365.255 L78.925 365.157 L88.003 365.028 L97.081 364.862 L106.159 364.653 L115.238 364.396 L124.316 364.086 L133.394 363.721 L142.473 363.298 L151.551 362.82 L160.629 362.29 L169.707 361.714 L178.786 361.1 L187.864 360.459 L196.942 359.8 L206.02 359.136 L215.099 358.476 L224.177 357.828 L233.255 357.2 L242.333 356.594 L251.412 356.014 L260.49 355.457 L269.568 354.922 L278.647 354.403 L287.725 353.896 L296.803 353.395 L305.881 352.896 L314.96 352.393 L324.038 351.882 L333.116 351.362 L342.194 350.829 L351.273 350.283 L360.351 349.724 L369.429 349.155 L378.508 348.577 L387.586 347.997 L396.664 347.42 L405.742 346.855 L414.821 346.312 L423.899 345.803 L432.977 345.343 L442.055 344.946 L451.134 344.63 L460.212 344.409 L469.29 344.3 L478.369 344.315 L487.447 344.464 L496.525 344.754 L505.603 345.189 L514.682 345.764 L523.76 346.473 L532.838 347.302 L541.916 348.235 L550.995 349.248 L560.073 350.317 L569.151 351.413 L578.229 352.507 L587.308 353.571 L596.386 354.577 L605.464 355.505 L614.543 356.337 L623.621 357.062 L632.699 357.677 L641.777 358.186 L650.856 358.6 L659.934 358.934 L669.012 359.21 L678.09 359.449 L687.169 359.673 L696.247 359.902 L705.325 360.153 L714.404 360.435 L723.482 360.755 L732.56 361.111 L741.638 361.499 L750.717 361.91 L759.795 362.332 L768.873 362.752 L777.951 363.159 L787.03 363.542 L796.108 363.893 L805.186 364.206 L814.265 364.477 L823.343 364.707 L832.421 364.897 L841.499 365.05 L850.578 365.171 L859.656 365.264 L868.734 365.334 L877.812 365.385 L886.891 365.422 L895.969 365.449 L895.969 365.5 L886.891 365.5 L877.812 365.5 L868.734 365.5 L859.656 365.5 L850.578 365.5 L841.499 365.5 L832.421 365.5 L823.343 365.5 L814.265 365.5 L805.186 365.5 L796.108 365.5 L787.03 365.5 L777.951 365.5 L768.873 365.5 L759.795 365.5 L750.717 365.5 L741.638 365.5 L732.56 365.5 L723.482 365.5 L714.404 365.5 L705.325 365.5 L696.247 365.5 L687.169 365.5 L678.09 365.5 L669.012 365.5 L659.934 365.5 L650.856 365.5 L641.777 365.5 L632.699 365.5 L623.621 365.5 L614.543 365.5 L605.464 365.5 L596.386 365.5 L587.308 365.5 L578.229 365.5 L569.151 365.5 L560.073 365.5 L550.995 365.5 L541.916 365.5 L532.838 365.5 L523.76 365.5 L514.682 365.5 L505.603 365.5 L496.525 365.5 L487.447 365.5 L478.369 365.5 L469.29 365.5 L460.212 365.5 L451.134 365.5 L442.055 365.5 L432.977 365.5 L423.899 365.5 L414.821 365.5 L405.742 365.5 L396.664 365.5 L387.586 365.5 L378.508 365.5 L369.429 365.5 L360.351 365.5 L351.273 365.5 L342.194 365.5 L333.116 365.5 L324.038 365.5 L314.96 365.5 L305.881 365.5 L296.803 365.5 L287.725 365.5 L278.647 365.5 L269.568 365.5 L260.49 365.5 L251.412 365.5 L242.333 365.5 L233.255 365.5 L224.177 365.5 L215.099 365.5 L206.02 365.5 L196.942 365.5 L187.864 365.5 L178.786 365.5 L169.707 365.5 L160.629 365.5 L151.551 365.5 L142.473 365.5 L133.394 365.5 L124.316 365.5 L115.238 365.5 L106.159 365.5 L97.081 365.5 L88.003 365.5 L78.925 365.5 L69.846 365.5 L60.768 365.5 L51.69 365.5 L42.612 365.5 L33.533 365.5 Z" fill="#8b2245" opacity="0.85" />
    <path d="M244.81 418.447 L250.346 418.421 L255.882 418.386 L261.418 418.337 L266.954 418.271 L272.49 418.183 L278.026 418.069 L283.561 417.924 L289.097 417.741 L294.633 417.516 L300.169 417.243 L305.705 416.918 L311.241 416.539 L316.777 416.103 L322.313 415.611 L327.848 415.065 L333.384 414.468 L338.92 413.826 L344.456 413.146 L349.992 412.435 L355.528 411.701 L361.064 410.954 L366.6 410.199 L372.135 409.443 L377.671 408.692 L383.207 407.949 L388.743 407.216 L394.279 406.495 L399.815 405.786 L405.351 405.089 L410.887 404.404 L416.422 403.73 L421.958 403.07 L427.494 402.423 L433.03 401.793 L438.566 401.183 L444.102 400.598 L449.638 400.041 L455.174 399.52 L460.709 399.04 L466.245 398.607 L471.781 398.227 L477.317 397.906 L482.853 397.648 L488.389 397.459 L493.925 397.342 L499.461 397.3 L504.997 397.334 L510.532 397.444 L516.068 397.631 L521.604 397.893 L527.14 398.228 L532.676 398.632 L538.212 399.1 L543.748 399.628 L549.284 400.209 L554.819 400.835 L560.355 401.499 L565.891 402.191 L571.427 402.902 L576.963 403.623 L582.499 404.344 L588.035 405.059 L593.571 405.759 L599.106 406.439 L604.642 407.096 L610.178 407.728 L615.714 408.337 L621.25 408.924 L626.786 409.495 L632.322 410.054 L637.858 410.606 L643.393 411.155 L648.929 411.706 L654.465 412.258 L660.001 412.812 L665.537 413.364 L671.073 413.91 L676.609 414.445 L682.145 414.96 L687.68 415.449 L693.216 415.906 L698.752 416.326 L704.288 416.704 L709.824 417.039 L715.36 417.329 L720.896 417.576 L726.432 417.783 L731.967 417.952 L737.503 418.088 L743.039 418.196 L748.575 418.279 L754.111 418.342 L759.647 418.389 L765.183 418.423 L770.719 418.448 L770.719 418.5 L765.183 418.5 L759.647 418.5 L754.111 418.5 L748.575 418.5 L743.039 418.5 L737.503 418.5 L731.967 418.5 L726.432 418.5 L720.896 418.5 L715.36 418.5 L709.824 418.5 L704.288 418.5 L698.752 418.5 L693.216 418.5 L687.68 418.5 L682.145 418.5 L676.609 418.5 L671.073 418.5 L665.537 418.5 L660.001 418.5 L654.465 418.5 L648.929 418.5 L643.393 418.5 L637.858 418.5 L632.322 418.5 L626.786 418.5 L621.25 418.5 L615.714 418.5 L610.178 418.5 L604.642 418.5 L599.106 418.5 L593.571 418.5 L588.035 418.5 L582.499 418.5 L576.963 418.5 L571.427 418.5 L565.891 418.5 L560.355 418.5 L554.819 418.5 L549.284 418.5 L543.748 418.5 L538.212 418.5 L532.676 418.5 L527.14 418.5 L521.604 418.5 L516.068 418.5 L510.532 418.5 L504.997 418.5 L499.461 418.5 L493.925 418.5 L488.389 418.5 L482.853 418.5 L477.317 418.5 L471.781 418.5 L466.245 418.5 L460.709 418.5 L455.174 418.5 L449.638 418.5 L444.102 418.5 L438.566 418.5 L433.03 418.5 L427.494 418.5 L421.958 418.5 L416.422 418.5 L410.887 418.5 L405.351 418.5 L399.815 418.5 L394.279 418.5 L388.743 418.5 L383.207 418.5 L377.671 418.5 L372.135 418.5 L366.6 418.5 L361.064 418.5 L355.528 418.5 L349.992 418.5 L344.456 418.5 L338.92 418.5 L333.384 418.5 L327.848 418.5 L322.313 418.5 L316.777 418.5 L311.241 418.5 L305.705 418.5 L300.169 418.5 L294.633 418.5 L289.097 418.5 L283.561 418.5 L278.026 418.5 L272.49 418.5 L266.954 418.5 L261.418 418.5 L255.882 418.5 L250.346 418.5 L244.81 418.5 Z" fill="#9a2234" opacity="0.85" />
    <path d="M291.592 471.447 L297.502 471.415 L303.411 471.367 L309.32 471.296 L315.23 471.197 L321.139 471.06 L327.048 470.878 L332.957 470.644 L338.867 470.351 L344.776 469.996 L350.685 469.581 L356.595 469.11 L362.504 468.593 L368.413 468.046 L374.323 467.485 L380.232 466.93 L386.141 466.398 L392.051 465.904 L397.96 465.458 L403.869 465.062 L409.778 464.713 L415.688 464.401 L421.597 464.113 L427.506 463.833 L433.416 463.545 L439.325 463.233 L445.234 462.884 L451.144 462.487 L457.053 462.033 L462.962 461.512 L468.872 460.918 L474.781 460.245 L480.69 459.491 L486.599 458.655 L492.509 457.744 L498.418 456.77 L504.327 455.754 L510.237 454.723 L516.146 453.713 L522.055 452.763 L527.965 451.916 L533.874 451.215 L539.783 450.694 L545.693 450.383 L551.602 450.3 L557.511 450.449 L563.42 450.822 L569.33 451.4 L575.239 452.151 L581.148 453.038 L587.058 454.022 L592.967 455.063 L598.876 456.125 L604.786 457.18 L610.695 458.207 L616.604 459.194 L622.514 460.137 L628.423 461.037 L634.332 461.9 L640.241 462.73 L646.151 463.53 L652.06 464.297 L657.969 465.023 L663.879 465.697 L669.788 466.299 L675.697 466.813 L681.607 467.219 L687.516 467.506 L693.425 467.668 L699.335 467.709 L705.244 467.641 L711.153 467.49 L717.062 467.286 L722.972 467.065 L728.881 466.863 L734.79 466.716 L740.7 466.651 L746.609 466.686 L752.518 466.829 L758.428 467.077 L764.337 467.415 L770.246 467.822 L776.156 468.274 L782.065 468.744 L787.974 469.207 L793.883 469.641 L799.793 470.033 L805.702 470.373 L811.611 470.656 L817.521 470.885 L823.43 471.064 L829.339 471.199 L835.249 471.297 L841.158 471.367 L847.067 471.415 L852.977 471.447 L852.977 471.5 L847.067 471.5 L841.158 471.5 L835.249 471.5 L829.339 471.5 L823.43 471.5 L817.521 471.5 L811.611 471.5 L805.702 471.5 L799.793 471.5 L793.883 471.5 L787.974 471.5 L782.065 471.5 L776.156 471.5 L770.246 471.5 L764.337 471.5 L758.428 471.5 L752.518 471.5 L746.609 471.5 L740.7 471.5 L734.79 471.5 L728.881 471.5 L722.972 471.5 L717.062 471.5 L711.153 471.5 L705.244 471.5 L699.335 471.5 L693.425 471.5 L687.516 471.5 L681.607 471.5 L675.697 471.5 L669.788 471.5 L663.879 471.5 L657.969 471.5 L652.06 471.5 L646.151 471.5 L640.241 471.5 L634.332 471.5 L628.423 471.5 L622.514 471.5 L616.604 471.5 L610.695 471.5 L604.786 471.5 L598.876 471.5 L592.967 471.5 L587.058 471.5 L581.148 471.5 L575.239 471.5 L569.33 471.5 L563.42 471.5 L557.511 471.5 L551.602 471.5 L545.693 471.5 L539.783 471.5 L533.874 471.5 L527.965 471.5 L522.055 471.5 L516.146 471.5 L510.237 471.5 L504.327 471.5 L498.418 471.5 L492.509 471.5 L486.599 471.5 L480.69 471.5 L474.781 471.5 L468.872 471.5 L462.962 471.5 L457.053 471.5 L451.144 471.5 L445.234 471.5 L439.325 471.5 L433.416 471.5 L427.506 471.5 L421.597 471.5 L415.688 471.5 L409.778 471.5 L403.869 471.5 L397.96 471.5 L392.051 471.5 L386.141 471.5 L380.232 471.5 L374.323 471.5 L368.413 471.5 L362.504 471.5 L356.595 471.5 L350.685 471.5 L344.776 471.5 L338.867 471.5 L332.957 471.5 L327.048 471.5 L321.139 471.5 L315.23 471.5 L309.32 471.5 L303.411 471.5 L297.502 471.5 L291.592 471.5 Z" fill="#aa2222" opacity="0.85" />
    <path d="M234.241 524.445 L238.943 524.419 L243.645 524.383 L248.347 524.333 L253.049 524.265 L257.751 524.175 L262.453 524.057 L267.155 523.905 L271.857 523.714 L276.558 523.478 L281.26 523.19 L285.962 522.846 L290.664 522.441 L295.366 521.974 L300.068 521.445 L304.77 520.855 L309.472 520.208 L314.174 519.513 L318.876 518.776 L323.578 518.011 L328.28 517.227 L332.981 516.437 L337.683 515.654 L342.385 514.887 L347.087 514.146 L351.789 513.437 L356.491 512.762 L361.193 512.123 L365.895 511.518 L370.597 510.941 L375.299 510.385 L380.001 509.844 L384.703 509.309 L389.404 508.773 L394.106 508.231 L398.808 507.681 L403.51 507.123 L408.212 506.562 L412.914 506.004 L417.616 505.461 L422.318 504.947 L427.02 504.476 L431.722 504.065 L436.424 503.73 L441.126 503.484 L445.827 503.338 L450.529 503.3 L455.231 503.373 L459.933 503.556 L464.635 503.843 L469.337 504.226 L474.039 504.691 L478.741 505.225 L483.443 505.813 L488.145 506.439 L492.847 507.088 L497.549 507.749 L502.25 508.41 L506.952 509.062 L511.654 509.699 L516.356 510.318 L521.058 510.918 L525.76 511.496 L530.462 512.057 L535.164 512.601 L539.866 513.134 L544.568 513.66 L549.27 514.182 L553.972 514.707 L558.673 515.238 L563.375 515.778 L568.077 516.331 L572.779 516.896 L577.481 517.473 L582.183 518.059 L586.885 518.649 L591.587 519.238 L596.289 519.818 L600.991 520.382 L605.693 520.921 L610.394 521.43 L615.096 521.901 L619.798 522.33 L624.5 522.713 L629.202 523.051 L633.904 523.342 L638.606 523.588 L643.308 523.793 L648.01 523.96 L652.712 524.095 L657.414 524.2 L662.116 524.282 L666.817 524.344 L671.519 524.39 L676.221 524.424 L680.923 524.448 L680.923 524.5 L676.221 524.5 L671.519 524.5 L666.817 524.5 L662.116 524.5 L657.414 524.5 L652.712 524.5 L648.01 524.5 L643.308 524.5 L638.606 524.5 L633.904 524.5 L629.202 524.5 L624.5 524.5 L619.798 524.5 L615.096 524.5 L610.394 524.5 L605.693 524.5 L600.991 524.5 L596.289 524.5 L591.587 524.5 L586.885 524.5 L582.183 524.5 L577.481 524.5 L572.779 524.5 L568.077 524.5 L563.375 524.5 L558.673 524.5 L553.972 524.5 L549.27 524.5 L544.568 524.5 L539.866 524.5 L535.164 524.5 L530.462 524.5 L525.76 524.5 L521.058 524.5 L516.356 524.5 L511.654 524.5 L506.952 524.5 L502.25 524.5 L497.549 524.5 L492.847 524.5 L488.145 524.5 L483.443 524.5 L478.741 524.5 L474.039 524.5 L469.337 524.5 L464.635 524.5 L459.933 524.5 L455.231 524.5 L450.529 524.5 L445.827 524.5 L441.126 524.5 L436.424 524.5 L431.722 524.5 L427.02 524.5 L422.318 524.5 L417.616 524.5 L412.914 524.5 L408.212 524.5 L403.51 524.5 L398.808 524.5 L394.106 524.5 L389.404 524.5 L384.703 524.5 L380.001 524.5 L375.299 524.5 L370.597 524.5 L365.895 524.5 L361.193 524.5 L356.491 524.5 L351.789 524.5 L347.087 524.5 L342.385 524.5 L337.683 524.5 L332.981 524.5 L328.28 524.5 L323.578 524.5 L318.876 524.5 L314.174 524.5 L309.472 524.5 L304.77 524.5 L300.068 524.5 L295.366 524.5 L290.664 524.5 L285.962 524.5 L281.26 524.5 L276.558 524.5 L271.857 524.5 L267.155 524.5 L262.453 524.5 L257.751 524.5 L253.049 524.5 L248.347 524.5 L243.645 524.5 L238.943 524.5 L234.241 524.5 Z" fill="#85224b" opacity="0.85" />
    <path d="M-76.642 577.447 L-67.508 577.42 L-58.375 577.38 L-49.241 577.324 L-40.107 577.247 L-30.973 577.143 L-21.839 577.008 L-12.705 576.834 L-3.571 576.617 L5.563 576.351 L14.697 576.034 L23.831 575.664 L32.964 575.243 L42.098 574.774 L51.232 574.265 L60.366 573.724 L69.5 573.163 L78.634 572.59 L87.768 572.019 L96.902 571.456 L106.036 570.909 L115.17 570.381 L124.303 569.871 L133.437 569.375 L142.571 568.887 L151.705 568.397 L160.839 567.896 L169.973 567.373 L179.107 566.819 L188.241 566.227 L197.375 565.591 L206.508 564.909 L215.642 564.181 L224.776 563.411 L233.91 562.606 L243.044 561.777 L252.178 560.939 L261.312 560.108 L270.446 559.306 L279.58 558.554 L288.714 557.876 L297.847 557.296 L306.981 556.833 L316.115 556.506 L325.249 556.326 L334.383 556.3 L343.517 556.429 L352.651 556.707 L361.785 557.123 L370.919 557.66 L380.053 558.298 L389.186 559.016 L398.32 559.791 L407.454 560.601 L416.588 561.427 L425.722 562.25 L434.856 563.057 L443.99 563.836 L453.124 564.578 L462.258 565.278 L471.391 565.931 L480.525 566.537 L489.659 567.094 L498.793 567.602 L507.927 568.062 L517.061 568.478 L526.195 568.851 L535.329 569.188 L544.463 569.494 L553.597 569.779 L562.73 570.052 L571.864 570.326 L580.998 570.611 L590.132 570.918 L599.266 571.254 L608.4 571.627 L617.534 572.036 L626.668 572.479 L635.802 572.949 L644.936 573.437 L654.069 573.93 L663.203 574.416 L672.337 574.883 L681.471 575.32 L690.605 575.717 L699.739 576.07 L708.873 576.375 L718.007 576.632 L727.141 576.844 L736.274 577.014 L745.408 577.147 L754.542 577.249 L763.676 577.325 L772.81 577.381 L781.944 577.42 L791.078 577.448 L791.078 577.5 L781.944 577.5 L772.81 577.5 L763.676 577.5 L754.542 577.5 L745.408 577.5 L736.274 577.5 L727.141 577.5 L718.007 577.5 L708.873 577.5 L699.739 577.5 L690.605 577.5 L681.471 577.5 L672.337 577.5 L663.203 577.5 L654.069 577.5 L644.936 577.5 L635.802 577.5 L626.668 577.5 L617.534 577.5 L608.4 577.5 L599.266 577.5 L590.132 577.5 L580.998 577.5 L571.864 577.5 L562.73 577.5 L553.597 577.5 L544.463 577.5 L535.329 577.5 L526.195 577.5 L517.061 577.5 L507.927 577.5 L498.793 577.5 L489.659 577.5 L480.525 577.5 L471.391 577.5 L462.258 577.5 L453.124 577.5 L443.99 577.5 L434.856 577.5 L425.722 577.5 L416.588 577.5 L407.454 577.5 L398.32 577.5 L389.186 577.5 L380.053 577.5 L370.919 577.5 L361.785 577.5 L352.651 577.5 L343.517 577.5 L334.383 577.5 L325.249 577.5 L316.115 577.5 L306.981 577.5 L297.847 577.5 L288.714 577.5 L279.58 577.5 L270.446 577.5 L261.312 577.5 L252.178 577.5 L243.044 577.5 L233.91 577.5 L224.776 577.5 L215.642 577.5 L206.508 577.5 L197.375 577.5 L188.241 577.5 L179.107 577.5 L169.973 577.5 L160.839 577.5 L151.705 577.5 L142.571 577.5 L133.437 577.5 L124.303 577.5 L115.17 577.5 L106.036 577.5 L96.902 577.5 L87.768 577.5 L78.634 577.5 L69.5 577.5 L60.366 577.5 L51.232 577.5 L42.098 577.5 L32.964 577.5 L23.831 577.5 L14.697 577.5 L5.563 577.5 L-3.571 577.5 L-12.705 577.5 L-21.839 577.5 L-30.973 577.5 L-40.107 577.5 L-49.241 577.5 L-58.375 577.5 L-67.508 577.5 L-76.642 577.5 Z" fill="#612274" opacity="0.85" />
    <path d="M103.685 630.446 L107.665 630.417 L111.644 630.374 L115.623 630.315 L119.602 630.234 L123.581 630.124 L127.561 629.98 L131.54 629.797 L135.519 629.568 L139.498 629.289 L143.477 628.96 L147.457 628.579 L151.436 628.152 L155.415 627.683 L159.394 627.185 L163.373 626.667 L167.353 626.145 L171.332 625.63 L175.311 625.136 L179.29 624.67 L183.27 624.237 L187.249 623.839 L191.228 623.47 L195.207 623.12 L199.186 622.779 L203.166 622.432 L207.145 622.063 L211.124 621.661 L215.103 621.212 L219.082 620.71 L223.062 620.147 L227.041 619.524 L231.02 618.842 L234.999 618.106 L238.978 617.324 L242.958 616.506 L246.937 615.667 L250.916 614.819 L254.895 613.979 L258.875 613.164 L262.854 612.39 L266.833 611.674 L270.812 611.03 L274.791 610.472 L278.771 610.013 L282.75 609.66 L286.729 609.421 L290.708 609.3 L294.687 609.3 L298.667 609.421 L302.646 609.66 L306.625 610.013 L310.604 610.472 L314.583 611.03 L318.563 611.674 L322.542 612.39 L326.521 613.164 L330.5 613.979 L334.479 614.819 L338.459 615.667 L342.438 616.506 L346.417 617.324 L350.396 618.106 L354.376 618.842 L358.355 619.524 L362.334 620.147 L366.313 620.71 L370.292 621.212 L374.272 621.661 L378.251 622.063 L382.23 622.432 L386.209 622.779 L390.188 623.12 L394.168 623.47 L398.147 623.839 L402.126 624.237 L406.105 624.67 L410.084 625.136 L414.064 625.63 L418.043 626.145 L422.022 626.667 L426.001 627.185 L429.98 627.683 L433.96 628.152 L437.939 628.579 L441.918 628.96 L445.897 629.289 L449.877 629.568 L453.856 629.797 L457.835 629.98 L461.814 630.124 L465.793 630.234 L469.773 630.315 L473.752 630.374 L477.731 630.417 L481.71 630.446 L481.71 630.5 L477.731 630.5 L473.752 630.5 L469.773 630.5 L465.793 630.5 L461.814 630.5 L457.835 630.5 L453.856 630.5 L449.877 630.5 L445.897 630.5 L441.918 630.5 L437.939 630.5 L433.96 630.5 L429.98 630.5 L426.001 630.5 L422.022 630.5 L418.043 630.5 L414.064 630.5 L410.084 630.5 L406.105 630.5 L402.126 630.5 L398.147 630.5 L394.168 630.5 L390.188 630.5 L386.209 630.5 L382.23 630.5 L378.251 630.5 L374.272 630.5 L370.292 630.5 L366.313 630.5 L362.334 630.5 L358.355 630.5 L354.376 630.5 L350.396 630.5 L346.417 630.5 L342.438 630.5 L338.459 630.5 L334.479 630.5 L330.5 630.5 L326.521 630.5 L322.542 630.5 L318.563 630.5 L314.583 630.5 L310.604 630.5 L306.625 630.5 L302.646 630.5 L298.667 630.5 L294.687 630.5 L290.708 630.5 L286.729 630.5 L282.75 630.5 L278.771 630.5 L274.791 630.5 L270.812 630.5 L266.833 630.5 L262.854 630.5 L258.875 630.5 L254.895 630.5 L250.916 630.5 L246.937 630.5 L242.958 630.5 L238.978 630.5 L234.999 630.5 L231.02 630.5 L227.041 630.5 L223.062 630.5 L219.082 630.5 L215.103 630.5 L211.124 630.5 L207.145 630.5 L203.166 630.5 L199.186 630.5 L195.207 630.5 L191.228 630.5 L187.249 630.5 L183.27 630.5 L179.29 630.5 L175.311 630.5 L171.332 630.5 L167.353 630.5 L163.373 630.5 L159.394 630.5 L155.415 630.5 L151.436 630.5 L147.457 630.5 L143.477 630.5 L139.498 630.5 L135.519 630.5 L131.54 630.5 L127.561 630.5 L123.581 630.5 L119.602 630.5 L115.623 630.5 L111.644 630.5 L107.665 630.5 L103.685 630.5 Z" fill="#4c228c" opacity="0.85" />
    <path d="M35.765 683.448 L38.759 683.421 L41.754 683.382 L44.748 683.329 L47.742 683.255 L50.737 683.156 L53.731 683.027 L56.725 682.862 L59.72 682.655 L62.714 682.402 L65.708 682.099 L68.703 681.745 L71.697 681.34 L74.691 680.886 L77.686 680.39 L80.68 679.857 L83.674 679.296 L86.669 678.716 L89.663 678.125 L92.657 677.531 L95.652 676.938 L98.646 676.349 L101.64 675.765 L104.635 675.181 L107.629 674.592 L110.623 673.994 L113.618 673.38 L116.612 672.743 L119.606 672.081 L122.601 671.392 L125.595 670.675 L128.589 669.934 L131.584 669.174 L134.578 668.4 L137.572 667.621 L140.567 666.846 L143.561 666.087 L146.555 665.355 L149.549 664.665 L152.544 664.032 L155.538 663.473 L158.532 663.004 L161.527 662.643 L164.521 662.404 L167.515 662.3 L170.51 662.341 L173.504 662.53 L176.498 662.867 L179.493 663.343 L182.487 663.947 L185.481 664.66 L188.476 665.461 L191.47 666.324 L194.464 667.222 L197.459 668.131 L200.453 669.024 L203.447 669.881 L206.442 670.682 L209.436 671.416 L212.43 672.072 L215.425 672.649 L218.419 673.146 L221.413 673.568 L224.408 673.925 L227.402 674.226 L230.396 674.485 L233.391 674.713 L236.385 674.926 L239.379 675.135 L242.374 675.355 L245.368 675.595 L248.362 675.866 L251.357 676.174 L254.351 676.525 L257.345 676.921 L260.339 677.359 L263.334 677.835 L266.328 678.34 L269.322 678.865 L272.317 679.398 L275.311 679.925 L278.305 680.434 L281.3 680.915 L284.294 681.358 L287.288 681.756 L290.283 682.106 L293.277 682.406 L296.271 682.657 L299.266 682.863 L302.26 683.028 L305.254 683.156 L308.249 683.255 L311.243 683.329 L314.237 683.382 L317.232 683.421 L320.226 683.448 L320.226 683.5 L317.232 683.5 L314.237 683.5 L311.243 683.5 L308.249 683.5 L305.254 683.5 L302.26 683.5 L299.266 683.5 L296.271 683.5 L293.277 683.5 L290.283 683.5 L287.288 683.5 L284.294 683.5 L281.3 683.5 L278.305 683.5 L275.311 683.5 L272.317 683.5 L269.322 683.5 L266.328 683.5 L263.334 683.5 L260.339 683.5 L257.345 683.5 L254.351 683.5 L251.357 683.5 L248.362 683.5 L245.368 683.5 L242.374 683.5 L239.379 683.5 L236.385 683.5 L233.391 683.5 L230.396 683.5 L227.402 683.5 L224.408 683.5 L221.413 683.5 L218.419 683.5 L215.425 683.5 L212.43 683.5 L209.436 683.5 L206.442 683.5 L203.447 683.5 L200.453 683.5 L197.459 683.5 L194.464 683.5 L191.47 683.5 L188.476 683.5 L185.481 683.5 L182.487 683.5 L179.493 683.5 L176.498 683.5 L173.504 683.5 L170.51 683.5 L167.515 683.5 L164.521 683.5 L161.527 683.5 L158.532 683.5 L155.538 683.5 L152.544 683.5 L149.549 683.5 L146.555 683.5 L143.561 683.5 L140.567 683.5 L137.572 683.5 L134.578 683.5 L131.584 683.5 L128.589 683.5 L125.595 683.5 L122.601 683.5 L119.606 683.5 L116.612 683.5 L113.618 683.5 L110.623 683.5 L107.629 683.5 L104.635 683.5 L101.64 683.5 L98.646 683.5 L95.652 683.5 L92.657 683.5 L89.663 683.5 L86.669 683.5 L83.674 683.5 L80.68 683.5 L77.686 683.5 L74.691 683.5 L71.697 683.5 L68.703 683.5 L65.708 683.5 L62.714 683.5 L59.72 683.5 L56.725 683.5 L53.731 683.5 L50.737 683.5 L47.742 683.5 L44.748 683.5 L41.754 683.5 L38.759 683.5 L35.765 683.5 Z" fill="#2222bb" opacity="0.85" />
  </g>
  <g class="algraf-layer algraf-geom-sina">
    <circle cx="142.151" cy="99.299" r="1" fill="#aaaaaa" opacity="1" />
    <circle cx="170.827" cy="96.936" r="1" fill="#aaaaaa" opacity="1" />
    <circle cx="199.502" cy="85.636" r="1" fill="#aaaaaa" opacity="1" />
    <circle cx="213.84" cy="97.297" r="1" fill="#aaaaaa" opacity="1" />
    <circle cx="228.178" cy="94.563" r="1" fill="#aaaaaa" opacity="1" />
    <circle cx="228.178" cy="87.255" r="1" fill="#aaaaaa" opacity="1" />
    <circle cx="242.516" cy="88.271" r="1" fill="#aaaaaa" opacity="1" />
    <circle cx="256.853" cy="93.759" r="1" fill="#aaaaaa" opacity="1" />
    <circle cx="285.529" cy="94.417" r="1" fill="#aaaaaa" opacity="1" />
    <circle cx="314.204" cy="97.541" r="1" fill="#aaaaaa" opacity="1" />
    <circle cx="156.489" cy="152.672" r="1" fill="#aaaaaa" opacity="1" />
    <circle cx="185.164" cy="150.657" r="1" fill="#aaaaaa" opacity="1" />
    <circle cx="213.84" cy="152.664" r="1" fill="#aaaaaa" opacity="1" />
    <circle cx="228.178" cy="151.425" r="1" fill="#aaaaaa" opacity="1" />
    <circle cx="242.516" cy="142.073" r="1" fill="#aaaaaa" opacity="1" />
    <circle cx="242.516" cy="152.976" r="1" fill="#aaaaaa" opacity="1" />
    <circle cx="256.853" cy="150.091" r="1" fill="#aaaaaa" opacity="1" />
    <circle cx="271.191" cy="149.947" r="1" fill="#aaaaaa" opacity="1" />
    <circle cx="299.867" cy="146.478" r="1" fill="#aaaaaa" opacity="1" />
    <circle cx="328.542" cy="148.512" r="1" fill="#aaaaaa" opacity="1" />
    <circle cx="142.151" cy="202.733" r="1" fill="#aaaaaa" opacity="1" />
    <circle cx="199.502" cy="204.375" r="1" fill="#aaaaaa" opacity="1" />
    <circle cx="242.516" cy="196.457" r="1" fill="#aaaaaa" opacity="1" />
    <circle cx="271.191" cy="187.576" r="1" fill="#aaaaaa" opacity="1" />
    <circle cx="285.529" cy="188.835" r="1" fill="#aaaaaa" opacity="1" />
    <circle cx="285.529" cy="197.7" r="1" fill="#aaaaaa" opacity="1" />
    <circle cx="314.204" cy="193.98" r="1" fill="#aaaaaa" opacity="1" />
    <circle cx="328.542" cy="201.075" r="1" fill="#aaaaaa" opacity="1" />
    <circle cx="357.218" cy="206.013" r="1" fill="#aaaaaa" opacity="1" />
    <circle cx="428.907" cy="205.898" r="1" fill="#aaaaaa" opacity="1" />
    <circle cx="199.502" cy="253.57" r="1" fill="#aaaaaa" opacity="1" />
    <circle cx="242.516" cy="256.495" r="1" fill="#aaaaaa" opacity="1" />
    <circle cx="285.529" cy="245.739" r="1" fill="#aaaaaa" opacity="1" />
    <circle cx="314.204" cy="259.211" r="1" fill="#aaaaaa" opacity="1" />
    <circle cx="342.88" cy="240.314" r="1" fill="#aaaaaa" opacity="1" />
    <circle cx="357.218" cy="242.747" r="1" fill="#aaaaaa" opacity="1" />
    <circle cx="385.893" cy="248.271" r="1" fill="#aaaaaa" opacity="1" />
    <circle cx="414.569" cy="243.411" r="1" fill="#aaaaaa" opacity="1" />
    <circle cx="443.244" cy="247.942" r="1" fill="#aaaaaa" opacity="1" />
    <circle cx="500.596" cy="252.693" r="1" fill="#aaaaaa" opacity="1" />
    <circle cx="213.84" cy="307.223" r="1" fill="#aaaaaa" opacity="1" />
    <circle cx="285.529" cy="301.077" r="1" fill="#aaaaaa" opacity="1" />
    <circle cx="342.88" cy="298.827" r="1" fill="#aaaaaa" opacity="1" />
    <circle cx="385.893" cy="309.625" r="1" fill="#aaaaaa" opacity="1" />
    <circle cx="414.569" cy="297.935" r="1" fill="#aaaaaa" opacity="1" />
    <circle cx="428.907" cy="297.516" r="1" fill="#aaaaaa" opacity="1" />
    <circle cx="471.92" cy="307.358" r="1" fill="#aaaaaa" opacity="1" />
    <circle cx="500.596" cy="308.585" r="1" fill="#aaaaaa" opacity="1" />
    <circle cx="557.947" cy="301.508" r="1" fill="#aaaaaa" opacity="1" />
    <circle cx="629.636" cy="307.522" r="1" fill="#aaaaaa" opacity="1" />
    <circle cx="228.178" cy="358.186" r="1" fill="#aaaaaa" opacity="1" />
    <circle cx="299.867" cy="364.815" r="1" fill="#aaaaaa" opacity="1" />
    <circle cx="357.218" cy="351.275" r="1" fill="#aaaaaa" opacity="1" />
    <circle cx="400.231" cy="349.972" r="1" fill="#aaaaaa" opacity="1" />
    <circle cx="443.244" cy="363.187" r="1" fill="#aaaaaa" opacity="1" />
    <circle cx="471.92" cy="360.322" r="1" fill="#aaaaaa" opacity="1" />
    <circle cx="500.596" cy="346.813" r="1" fill="#aaaaaa" opacity="1" />
    <circle cx="529.271" cy="355.04" r="1" fill="#aaaaaa" opacity="1" />
    <circle cx="572.284" cy="365.098" r="1" fill="#aaaaaa" opacity="1" />
    <circle cx="701.324" cy="362.122" r="1" fill="#aaaaaa" opacity="1" />
    <circle cx="371.556" cy="416.134" r="1" fill="#aaaaaa" opacity="1" />
    <circle cx="414.569" cy="412.633" r="1" fill="#aaaaaa" opacity="1" />
    <circle cx="443.244" cy="405.085" r="1" fill="#aaaaaa" opacity="1" />
    <circle cx="471.92" cy="405.033" r="1" fill="#aaaaaa" opacity="1" />
    <circle cx="486.258" cy="401.513" r="1" fill="#aaaaaa" opacity="1" />
    <circle cx="514.933" cy="406.976" r="1" fill="#aaaaaa" opacity="1" />
    <circle cx="529.271" cy="408.144" r="1" fill="#aaaaaa" opacity="1" />
    <circle cx="557.947" cy="408.835" r="1" fill="#aaaaaa" opacity="1" />
    <circle cx="586.622" cy="411.904" r="1" fill="#aaaaaa" opacity="1" />
    <circle cx="643.973" cy="415.322" r="1" fill="#aaaaaa" opacity="1" />
    <circle cx="400.231" cy="470.451" r="1" fill="#aaaaaa" opacity="1" />
    <circle cx="457.582" cy="465.54" r="1" fill="#aaaaaa" opacity="1" />
    <circle cx="500.596" cy="465.903" r="1" fill="#aaaaaa" opacity="1" />
    <circle cx="529.271" cy="470.439" r="1" fill="#aaaaaa" opacity="1" />
    <circle cx="543.609" cy="452.529" r="1" fill="#aaaaaa" opacity="1" />
    <circle cx="557.947" cy="459.074" r="1" fill="#aaaaaa" opacity="1" />
    <circle cx="572.284" cy="469.956" r="1" fill="#aaaaaa" opacity="1" />
    <circle cx="600.96" cy="464.621" r="1" fill="#aaaaaa" opacity="1" />
    <circle cx="643.973" cy="463.376" r="1" fill="#aaaaaa" opacity="1" />
    <circle cx="744.338" cy="471.136" r="1" fill="#aaaaaa" opacity="1" />
    <circle cx="342.88" cy="524.276" r="1" fill="#aaaaaa" opacity="1" />
    <circle cx="371.556" cy="518.581" r="1" fill="#aaaaaa" opacity="1" />
    <circle cx="400.231" cy="524.065" r="1" fill="#aaaaaa" opacity="1" />
    <circle cx="428.907" cy="511.337" r="1" fill="#aaaaaa" opacity="1" />
    <circle cx="443.244" cy="509.013" r="1" fill="#aaaaaa" opacity="1" />
    <circle cx="457.582" cy="511.406" r="1" fill="#aaaaaa" opacity="1" />
    <circle cx="471.92" cy="514.017" r="1" fill="#aaaaaa" opacity="1" />
    <circle cx="500.596" cy="519.78" r="1" fill="#aaaaaa" opacity="1" />
    <circle cx="529.271" cy="517.184" r="1" fill="#aaaaaa" opacity="1" />
    <circle cx="572.284" cy="520.927" r="1" fill="#aaaaaa" opacity="1" />
    <circle cx="113.476" cy="576.207" r="1" fill="#aaaaaa" opacity="1" />
    <circle cx="199.502" cy="566.908" r="1" fill="#aaaaaa" opacity="1" />
    <circle cx="256.853" cy="569.698" r="1" fill="#aaaaaa" opacity="1" />
    <circle cx="299.867" cy="571.485" r="1" fill="#aaaaaa" opacity="1" />
    <circle cx="328.542" cy="576.584" r="1" fill="#aaaaaa" opacity="1" />
    <circle cx="342.88" cy="558.915" r="1" fill="#aaaaaa" opacity="1" />
    <circle cx="385.893" cy="563.892" r="1" fill="#aaaaaa" opacity="1" />
    <circle cx="428.907" cy="566.339" r="1" fill="#aaaaaa" opacity="1" />
    <circle cx="500.596" cy="568.697" r="1" fill="#aaaaaa" opacity="1" />
    <circle cx="600.96" cy="571.97" r="1" fill="#aaaaaa" opacity="1" />
    <circle cx="185.164" cy="628.086" r="1" fill="#aaaaaa" opacity="1" />
    <circle cx="228.178" cy="628.663" r="1" fill="#aaaaaa" opacity="1" />
    <circle cx="256.853" cy="617.861" r="1" fill="#aaaaaa" opacity="1" />
    <circle cx="271.191" cy="630.205" r="1" fill="#aaaaaa" opacity="1" />
    <circle cx="285.529" cy="620.052" r="1" fill="#aaaaaa" opacity="1" />
    <circle cx="299.867" cy="616.31" r="1" fill="#aaaaaa" opacity="1" />
    <circle cx="314.204" cy="611.071" r="1" fill="#aaaaaa" opacity="1" />
    <circle cx="328.542" cy="617.695" r="1" fill="#aaaaaa" opacity="1" />
    <circle cx="357.218" cy="625.828" r="1" fill="#aaaaaa" opacity="1" />
    <circle cx="400.231" cy="630.286" r="1" fill="#aaaaaa" opacity="1" />
    <circle cx="99.138" cy="676.603" r="1" fill="#aaaaaa" opacity="1" />
    <circle cx="127.813" cy="681.086" r="1" fill="#aaaaaa" opacity="1" />
    <circle cx="142.151" cy="672.379" r="1" fill="#aaaaaa" opacity="1" />
    <circle cx="156.489" cy="664.405" r="1" fill="#aaaaaa" opacity="1" />
    <circle cx="170.827" cy="678.67" r="1" fill="#aaaaaa" opacity="1" />
    <circle cx="170.827" cy="672.913" r="1" fill="#aaaaaa" opacity="1" />
    <circle cx="185.164" cy="669.26" r="1" fill="#aaaaaa" opacity="1" />
    <circle cx="199.502" cy="669.242" r="1" fill="#aaaaaa" opacity="1" />
    <circle cx="228.178" cy="674.609" r="1" fill="#aaaaaa" opacity="1" />
    <circle cx="256.853" cy="681.153" r="1" fill="#aaaaaa" opacity="1" />
  </g>
</g>
<g class="algraf-axes">
  <text x="84.8" y="728" text-anchor="middle" font-family="system-ui, sans-serif" font-size="12" fill="#222222">0°C</text>
  <text x="228.178" y="728" text-anchor="middle" font-family="system-ui, sans-serif" font-size="12" fill="#222222">10°C</text>
  <text x="371.556" y="728" text-anchor="middle" font-family="system-ui, sans-serif" font-size="12" fill="#222222">20°C</text>
  <text x="514.933" y="728" text-anchor="middle" font-family="system-ui, sans-serif" font-size="12" fill="#222222">30°C</text>
  <text x="658.311" y="728" text-anchor="middle" font-family="system-ui, sans-serif" font-size="12" fill="#222222">40°C</text>
  <text x="76.8" y="687.5" text-anchor="end" font-family="system-ui, sans-serif" font-size="12" fill="#222222">December</text>
  <text x="76.8" y="634.5" text-anchor="end" font-family="system-ui, sans-serif" font-size="12" fill="#222222">November</text>
  <text x="76.8" y="581.5" text-anchor="end" font-family="system-ui, sans-serif" font-size="12" fill="#222222">October</text>
  <text x="76.8" y="528.5" text-anchor="end" font-family="system-ui, sans-serif" font-size="12" fill="#222222">September</text>
  <text x="76.8" y="475.5" text-anchor="end" font-family="system-ui, sans-serif" font-size="12" fill="#222222">August</text>
  <text x="76.8" y="422.5" text-anchor="end" font-family="system-ui, sans-serif" font-size="12" fill="#222222">July</text>
  <text x="76.8" y="369.5" text-anchor="end" font-family="system-ui, sans-serif" font-size="12" fill="#222222">June</text>
  <text x="76.8" y="316.5" text-anchor="end" font-family="system-ui, sans-serif" font-size="12" fill="#222222">May</text>
  <text x="76.8" y="263.5" text-anchor="end" font-family="system-ui, sans-serif" font-size="12" fill="#222222">April</text>
  <text x="76.8" y="210.5" text-anchor="end" font-family="system-ui, sans-serif" font-size="12" fill="#222222">March</text>
  <text x="76.8" y="157.5" text-anchor="end" font-family="system-ui, sans-serif" font-size="12" fill="#222222">February</text>
  <text x="76.8" y="104.5" text-anchor="end" font-family="system-ui, sans-serif" font-size="12" fill="#222222">January</text>
</g>
</svg>
