<svg xmlns="http://www.w3.org/2000/svg" width="760" height="480" viewBox="0 0 760 480" role="img" aria-label="Customer Satisfaction Shift (2024 vs 2026)">
<title>Customer Satisfaction Shift (2024 vs 2026)</title>
<rect class="algraf-background" x="0" y="0" width="760" height="480" fill="#ffffff" />
<text class="algraf-title" x="60" y="24" font-family="system-ui, sans-serif" font-size="18" font-weight="600" fill="#222222">Customer Satisfaction Shift (2024 vs 2026)</text>
<rect class="algraf-plot-area" x="60" y="66" width="550" height="364" fill="#ffffff" />
<g class="algraf-grid">
  <line x1="197.5" y1="66" x2="197.5" y2="430" stroke="#f2f2f2" stroke-width="0.6" />
  <line x1="472.5" y1="66" x2="472.5" y2="430" stroke="#f2f2f2" stroke-width="0.6" />
  <line x1="60" y1="393.6" x2="610" y2="393.6" stroke="#f2f2f2" stroke-width="0.6" />
  <line x1="60" y1="320.8" x2="610" y2="320.8" stroke="#f2f2f2" stroke-width="0.6" />
  <line x1="60" y1="248" x2="610" y2="248" stroke="#f2f2f2" stroke-width="0.6" />
  <line x1="60" y1="175.2" x2="610" y2="175.2" stroke="#f2f2f2" stroke-width="0.6" />
  <line x1="60" y1="102.4" x2="610" y2="102.4" stroke="#f2f2f2" stroke-width="0.6" />
  <line x1="60" y1="66" x2="60" y2="430" stroke="#e6e6e6" stroke-width="1" />
  <line x1="335" y1="66" x2="335" y2="430" stroke="#e6e6e6" stroke-width="1" />
  <line x1="610" y1="66" x2="610" y2="430" stroke="#e6e6e6" stroke-width="1" />
  <line x1="60" y1="430" x2="610" y2="430" stroke="#e6e6e6" stroke-width="1" />
  <line x1="60" y1="357.2" x2="610" y2="357.2" stroke="#e6e6e6" stroke-width="1" />
  <line x1="60" y1="284.4" x2="610" y2="284.4" stroke="#e6e6e6" stroke-width="1" />
  <line x1="60" y1="211.6" x2="610" y2="211.6" stroke="#e6e6e6" stroke-width="1" />
  <line x1="60" y1="138.8" x2="610" y2="138.8" stroke="#e6e6e6" stroke-width="1" />
  <line x1="60" y1="66" x2="610" y2="66" stroke="#e6e6e6" stroke-width="1" />
</g>
<defs>
<clipPath id="algraf-clip-0"><rect x="60" y="66" width="550" height="364" /></clipPath>
</defs>
<g clip-path="url(#algraf-clip-0)">
  <g class="algraf-layer algraf-geom-line">
    <path d="M60 269.84 L610 153.36" fill="none" stroke="#006BA4" stroke-width="3" opacity="1" />
    <path d="M60 320.8 L610 197.04" fill="none" stroke="#FF800E" stroke-width="3" opacity="1" />
    <path d="M60 211.6 L610 248" fill="none" stroke="#ABABAB" stroke-width="3" opacity="1" />
    <path d="M60 393.6 L610 284.4" fill="none" stroke="#595959" stroke-width="3" opacity="1" />
    <path d="M60 182.48 L610 204.32" fill="none" stroke="#5F9ED1" stroke-width="3" opacity="1" />
  </g>
  <g class="algraf-layer algraf-geom-point">
    <circle cx="60" cy="269.84" r="6" fill="#006BA4" opacity="1" />
    <circle cx="610" cy="153.36" r="6" fill="#006BA4" opacity="1" />
    <circle cx="60" cy="320.8" r="6" fill="#FF800E" opacity="1" />
    <circle cx="610" cy="197.04" r="6" fill="#FF800E" opacity="1" />
    <circle cx="60" cy="211.6" r="6" fill="#ABABAB" opacity="1" />
    <circle cx="610" cy="248" r="6" fill="#ABABAB" opacity="1" />
    <circle cx="60" cy="393.6" r="6" fill="#595959" opacity="1" />
    <circle cx="610" cy="284.4" r="6" fill="#595959" opacity="1" />
    <circle cx="60" cy="182.48" r="6" fill="#5F9ED1" opacity="1" />
    <circle cx="610" cy="204.32" r="6" fill="#5F9ED1" opacity="1" />
  </g>
  <g class="algraf-layer algraf-geom-text">
    <text x="620" y="151.36" text-anchor="start" font-family="system-ui, sans-serif" font-size="10" fill="#444444" opacity="1">Product Quality (+16)</text>
    <text x="620" y="192.68" text-anchor="start" font-family="system-ui, sans-serif" font-size="10" fill="#444444" opacity="1">Customer Support (+17)</text>
    <text x="620" y="246" text-anchor="start" font-family="system-ui, sans-serif" font-size="10" fill="#444444" opacity="1">Pricing Value (-5)</text>
    <text x="620" y="282.4" text-anchor="start" font-family="system-ui, sans-serif" font-size="10" fill="#444444" opacity="1">Delivery Speed (+15)</text>
    <text x="620" y="204.68" text-anchor="start" font-family="system-ui, sans-serif" font-size="10" fill="#444444" opacity="1">Platform Ease (-3)</text>
  </g>
</g>
<g class="algraf-axes">
  <line x1="60" y1="430" x2="610" y2="430" stroke="#333333" stroke-width="1" />
  <line x1="60" y1="430" x2="60" y2="435" stroke="#333333" stroke-width="1" />
  <text x="60" y="448" text-anchor="middle" font-family="system-ui, sans-serif" font-size="12" fill="#222222">2024</text>
  <line x1="335" y1="430" x2="335" y2="435" stroke="#333333" stroke-width="1" />
  <text x="335" y="448" text-anchor="middle" font-family="system-ui, sans-serif" font-size="12" fill="#222222">2025</text>
  <line x1="610" y1="430" x2="610" y2="435" stroke="#333333" stroke-width="1" />
  <text x="610" y="448" text-anchor="middle" font-family="system-ui, sans-serif" font-size="12" fill="#222222">2026</text>
  <text x="335" y="468" text-anchor="middle" font-family="system-ui, sans-serif" font-size="12" fill="#222222">Year</text>
  <line x1="60" y1="66" x2="60" y2="430" stroke="#333333" stroke-width="1" />
  <line x1="55" y1="430" x2="60" y2="430" stroke="#333333" stroke-width="1" />
  <text x="52" y="434" text-anchor="end" font-family="system-ui, sans-serif" font-size="12" fill="#222222">50</text>
  <line x1="55" y1="357.2" x2="60" y2="357.2" stroke="#333333" stroke-width="1" />
  <text x="52" y="361.2" text-anchor="end" font-family="system-ui, sans-serif" font-size="12" fill="#222222">60</text>
  <line x1="55" y1="284.4" x2="60" y2="284.4" stroke="#333333" stroke-width="1" />
  <text x="52" y="288.4" text-anchor="end" font-family="system-ui, sans-serif" font-size="12" fill="#222222">70</text>
  <line x1="55" y1="211.6" x2="60" y2="211.6" stroke="#333333" stroke-width="1" />
  <text x="52" y="215.6" text-anchor="end" font-family="system-ui, sans-serif" font-size="12" fill="#222222">80</text>
  <line x1="55" y1="138.8" x2="60" y2="138.8" stroke="#333333" stroke-width="1" />
  <text x="52" y="142.8" text-anchor="end" font-family="system-ui, sans-serif" font-size="12" fill="#222222">90</text>
  <line x1="55" y1="66" x2="60" y2="66" stroke="#333333" stroke-width="1" />
  <text x="52" y="70" text-anchor="end" font-family="system-ui, sans-serif" font-size="12" fill="#222222">100</text>
  <text x="18.4" y="248" text-anchor="middle" transform="rotate(-90 18.4 248)" font-family="system-ui, sans-serif" font-size="12" fill="#222222">Satisfaction Score (%)</text>
</g>
</svg>
