<svg xmlns="http://www.w3.org/2000/svg" width="720" height="480" viewBox="0 0 720 480" role="img">
<rect class="algraf-background" x="0" y="0" width="720" height="480" fill="#ffffff" />
<rect class="algraf-plot-area" x="60.8" y="40" width="509.2" height="390" fill="#ffffff" />
<g class="algraf-grid">
  <line x1="139.814" y1="40" x2="139.814" y2="430" stroke="#f2f2f2" stroke-width="0.6" />
  <line x1="249.555" y1="40" x2="249.555" y2="430" stroke="#f2f2f2" stroke-width="0.6" />
  <line x1="359.297" y1="40" x2="359.297" y2="430" stroke="#f2f2f2" stroke-width="0.6" />
  <line x1="469.038" y1="40" x2="469.038" y2="430" stroke="#f2f2f2" stroke-width="0.6" />
  <line x1="60.8" y1="405.625" x2="570" y2="405.625" stroke="#f2f2f2" stroke-width="0.6" />
  <line x1="60.8" y1="356.875" x2="570" y2="356.875" stroke="#f2f2f2" stroke-width="0.6" />
  <line x1="60.8" y1="308.125" x2="570" y2="308.125" stroke="#f2f2f2" stroke-width="0.6" />
  <line x1="60.8" y1="259.375" x2="570" y2="259.375" stroke="#f2f2f2" stroke-width="0.6" />
  <line x1="60.8" y1="210.625" x2="570" y2="210.625" stroke="#f2f2f2" stroke-width="0.6" />
  <line x1="60.8" y1="161.875" x2="570" y2="161.875" stroke="#f2f2f2" stroke-width="0.6" />
  <line x1="60.8" y1="113.125" x2="570" y2="113.125" stroke="#f2f2f2" stroke-width="0.6" />
  <line x1="60.8" y1="64.375" x2="570" y2="64.375" stroke="#f2f2f2" stroke-width="0.6" />
  <line x1="84.943" y1="40" x2="84.943" y2="430" stroke="#e6e6e6" stroke-width="1" />
  <line x1="194.684" y1="40" x2="194.684" y2="430" stroke="#e6e6e6" stroke-width="1" />
  <line x1="304.426" y1="40" x2="304.426" y2="430" stroke="#e6e6e6" stroke-width="1" />
  <line x1="414.167" y1="40" x2="414.167" y2="430" stroke="#e6e6e6" stroke-width="1" />
  <line x1="523.909" y1="40" x2="523.909" y2="430" stroke="#e6e6e6" stroke-width="1" />
  <line x1="60.8" y1="430" x2="570" y2="430" stroke="#e6e6e6" stroke-width="1" />
  <line x1="60.8" y1="381.25" x2="570" y2="381.25" stroke="#e6e6e6" stroke-width="1" />
  <line x1="60.8" y1="332.5" x2="570" y2="332.5" stroke="#e6e6e6" stroke-width="1" />
  <line x1="60.8" y1="283.75" x2="570" y2="283.75" stroke="#e6e6e6" stroke-width="1" />
  <line x1="60.8" y1="235" x2="570" y2="235" stroke="#e6e6e6" stroke-width="1" />
  <line x1="60.8" y1="186.25" x2="570" y2="186.25" stroke="#e6e6e6" stroke-width="1" />
  <line x1="60.8" y1="137.5" x2="570" y2="137.5" stroke="#e6e6e6" stroke-width="1" />
  <line x1="60.8" y1="88.75" x2="570" y2="88.75" stroke="#e6e6e6" stroke-width="1" />
  <line x1="60.8" y1="40" x2="570" y2="40" stroke="#e6e6e6" stroke-width="1" />
</g>
<g class="algraf-layer algraf-geom-point">
  <circle cx="95.917" cy="308.125" r="3" fill="#4E79A7" opacity="0.7" />
  <circle cx="150.788" cy="303.25" r="3" fill="#4E79A7" opacity="0.7" />
  <circle cx="249.555" cy="244.75" r="3" fill="#4E79A7" opacity="0.7" />
  <circle cx="227.607" cy="337.375" r="3" fill="#F28E2B" opacity="0.7" />
  <circle cx="271.503" cy="315.438" r="3" fill="#F28E2B" opacity="0.7" />
  <circle cx="315.4" cy="254.5" r="3" fill="#F28E2B" opacity="0.7" />
  <circle cx="414.167" cy="215.5" r="3" fill="#E15759" opacity="0.7" />
  <circle cx="480.012" cy="186.25" r="3" fill="#E15759" opacity="0.7" />
  <circle cx="534.883" cy="132.625" r="3" fill="#E15759" opacity="0.7" />
</g>
<g class="algraf-axes">
  <line x1="60.8" y1="430" x2="570" y2="430" stroke="#333333" stroke-width="1" />
  <line x1="84.943" y1="430" x2="84.943" y2="435" stroke="#333333" stroke-width="1" />
  <text x="84.943" y="448" text-anchor="middle" font-family="system-ui, sans-serif" font-size="12" fill="#222222">180</text>
  <line x1="194.684" y1="430" x2="194.684" y2="435" stroke="#333333" stroke-width="1" />
  <text x="194.684" y="448" text-anchor="middle" font-family="system-ui, sans-serif" font-size="12" fill="#222222">190</text>
  <line x1="304.426" y1="430" x2="304.426" y2="435" stroke="#333333" stroke-width="1" />
  <text x="304.426" y="448" text-anchor="middle" font-family="system-ui, sans-serif" font-size="12" fill="#222222">200</text>
  <line x1="414.167" y1="430" x2="414.167" y2="435" stroke="#333333" stroke-width="1" />
  <text x="414.167" y="448" text-anchor="middle" font-family="system-ui, sans-serif" font-size="12" fill="#222222">210</text>
  <line x1="523.909" y1="430" x2="523.909" y2="435" stroke="#333333" stroke-width="1" />
  <text x="523.909" y="448" text-anchor="middle" font-family="system-ui, sans-serif" font-size="12" fill="#222222">220</text>
  <text x="315.4" y="468" text-anchor="middle" font-family="system-ui, sans-serif" font-size="12" fill="#222222">flipper length</text>
  <line x1="60.8" y1="40" x2="60.8" y2="430" stroke="#333333" stroke-width="1" />
  <line x1="55.8" y1="430" x2="60.8" y2="430" stroke="#333333" stroke-width="1" />
  <text x="52.8" y="434" text-anchor="end" font-family="system-ui, sans-serif" font-size="12" fill="#222222">2500</text>
  <line x1="55.8" y1="381.25" x2="60.8" y2="381.25" stroke="#333333" stroke-width="1" />
  <text x="52.8" y="385.25" text-anchor="end" font-family="system-ui, sans-serif" font-size="12" fill="#222222">3000</text>
  <line x1="55.8" y1="332.5" x2="60.8" y2="332.5" stroke="#333333" stroke-width="1" />
  <text x="52.8" y="336.5" text-anchor="end" font-family="system-ui, sans-serif" font-size="12" fill="#222222">3500</text>
  <line x1="55.8" y1="283.75" x2="60.8" y2="283.75" stroke="#333333" stroke-width="1" />
  <text x="52.8" y="287.75" text-anchor="end" font-family="system-ui, sans-serif" font-size="12" fill="#222222">4000</text>
  <line x1="55.8" y1="235" x2="60.8" y2="235" stroke="#333333" stroke-width="1" />
  <text x="52.8" y="239" text-anchor="end" font-family="system-ui, sans-serif" font-size="12" fill="#222222">4500</text>
  <line x1="55.8" y1="186.25" x2="60.8" y2="186.25" stroke="#333333" stroke-width="1" />
  <text x="52.8" y="190.25" text-anchor="end" font-family="system-ui, sans-serif" font-size="12" fill="#222222">5000</text>
  <line x1="55.8" y1="137.5" x2="60.8" y2="137.5" stroke="#333333" stroke-width="1" />
  <text x="52.8" y="141.5" text-anchor="end" font-family="system-ui, sans-serif" font-size="12" fill="#222222">5500</text>
  <line x1="55.8" y1="88.75" x2="60.8" y2="88.75" stroke="#333333" stroke-width="1" />
  <text x="52.8" y="92.75" text-anchor="end" font-family="system-ui, sans-serif" font-size="12" fill="#222222">6000</text>
  <line x1="55.8" y1="40" x2="60.8" y2="40" stroke="#333333" stroke-width="1" />
  <text x="52.8" y="44" text-anchor="end" font-family="system-ui, sans-serif" font-size="12" fill="#222222">6500</text>
  <text x="12" y="235" text-anchor="middle" transform="rotate(-90 12 235)" font-family="system-ui, sans-serif" font-size="12" fill="#222222">Body mass (g), pinned axis</text>
</g>
<g class="algraf-legends">
  <text x="586" y="44" text-anchor="start" font-family="system-ui, sans-serif" font-size="12" fill="#222222">species</text>
  <rect x="586" y="52" width="12" height="12" fill="#4E79A7" />
  <text x="604" y="62" text-anchor="start" font-family="system-ui, sans-serif" font-size="12" fill="#222222">Adelie</text>
  <rect x="586" y="70" width="12" height="12" fill="#F28E2B" />
  <text x="604" y="80" text-anchor="start" font-family="system-ui, sans-serif" font-size="12" fill="#222222">Chinstrap</text>
  <rect x="586" y="88" width="12" height="12" fill="#E15759" />
  <text x="604" y="98" text-anchor="start" font-family="system-ui, sans-serif" font-size="12" fill="#222222">Gentoo</text>
</g>
</svg>
