<svg xmlns="http://www.w3.org/2000/svg" width="720" height="480" viewBox="0 0 720 480" role="img">
<rect class="algraf-background" x="0" y="0" width="720" height="480" fill="#ffffff" />
<rect class="algraf-plot-area" x="60" y="40" width="510" height="390" fill="#ffffff" />
<g class="algraf-grid">
  <line x1="84.181" y1="40" x2="84.181" y2="430" stroke="#e6e6e6" stroke-width="1" />
  <line x1="194.095" y1="40" x2="194.095" y2="430" stroke="#e6e6e6" stroke-width="1" />
  <line x1="304.009" y1="40" x2="304.009" y2="430" stroke="#e6e6e6" stroke-width="1" />
  <line x1="413.922" y1="40" x2="413.922" y2="430" stroke="#e6e6e6" stroke-width="1" />
  <line x1="523.836" y1="40" x2="523.836" y2="430" stroke="#e6e6e6" stroke-width="1" />
  <line x1="60" y1="430" x2="570" y2="430" stroke="#e6e6e6" stroke-width="1" />
  <line x1="60" y1="381.25" x2="570" y2="381.25" stroke="#e6e6e6" stroke-width="1" />
  <line x1="60" y1="332.5" x2="570" y2="332.5" stroke="#e6e6e6" stroke-width="1" />
  <line x1="60" y1="283.75" x2="570" y2="283.75" stroke="#e6e6e6" stroke-width="1" />
  <line x1="60" y1="235" x2="570" y2="235" stroke="#e6e6e6" stroke-width="1" />
  <line x1="60" y1="186.25" x2="570" y2="186.25" stroke="#e6e6e6" stroke-width="1" />
  <line x1="60" y1="137.5" x2="570" y2="137.5" stroke="#e6e6e6" stroke-width="1" />
  <line x1="60" y1="88.75" x2="570" y2="88.75" stroke="#e6e6e6" stroke-width="1" />
  <line x1="60" y1="40" x2="570" y2="40" stroke="#e6e6e6" stroke-width="1" />
</g>
<g class="algraf-layer algraf-geom-point">
  <circle cx="95.172" cy="308.125" r="3" fill="#4E79A7" opacity="0.7" />
  <circle cx="150.129" cy="303.25" r="3" fill="#4E79A7" opacity="0.7" />
  <circle cx="249.052" cy="244.75" r="3" fill="#4E79A7" opacity="0.7" />
  <circle cx="227.069" cy="337.375" r="3" fill="#F28E2B" opacity="0.7" />
  <circle cx="271.034" cy="315.438" r="3" fill="#F28E2B" opacity="0.7" />
  <circle cx="315" cy="254.5" r="3" fill="#F28E2B" opacity="0.7" />
  <circle cx="413.922" cy="215.5" r="3" fill="#E15759" opacity="0.7" />
  <circle cx="479.871" cy="186.25" r="3" fill="#E15759" opacity="0.7" />
  <circle cx="534.828" cy="132.625" r="3" fill="#E15759" opacity="0.7" />
</g>
<g class="algraf-axes">
  <line x1="60" y1="430" x2="570" y2="430" stroke="#333333" stroke-width="1" />
  <line x1="84.181" y1="430" x2="84.181" y2="435" stroke="#333333" stroke-width="1" />
  <text x="84.181" y="448" text-anchor="middle" font-family="system-ui, sans-serif" font-size="12" fill="#222222">180</text>
  <line x1="194.095" y1="430" x2="194.095" y2="435" stroke="#333333" stroke-width="1" />
  <text x="194.095" y="448" text-anchor="middle" font-family="system-ui, sans-serif" font-size="12" fill="#222222">190</text>
  <line x1="304.009" y1="430" x2="304.009" y2="435" stroke="#333333" stroke-width="1" />
  <text x="304.009" y="448" text-anchor="middle" font-family="system-ui, sans-serif" font-size="12" fill="#222222">200</text>
  <line x1="413.922" y1="430" x2="413.922" y2="435" stroke="#333333" stroke-width="1" />
  <text x="413.922" y="448" text-anchor="middle" font-family="system-ui, sans-serif" font-size="12" fill="#222222">210</text>
  <line x1="523.836" y1="430" x2="523.836" y2="435" stroke="#333333" stroke-width="1" />
  <text x="523.836" y="448" text-anchor="middle" font-family="system-ui, sans-serif" font-size="12" fill="#222222">220</text>
  <text x="315" y="468" text-anchor="middle" font-family="system-ui, sans-serif" font-size="12" fill="#222222">flipper length</text>
  <line x1="60" y1="40" x2="60" y2="430" stroke="#333333" stroke-width="1" />
  <line x1="55" y1="430" x2="60" y2="430" stroke="#333333" stroke-width="1" />
  <text x="52" y="434" text-anchor="end" font-family="system-ui, sans-serif" font-size="12" fill="#222222">2500</text>
  <line x1="55" y1="381.25" x2="60" y2="381.25" stroke="#333333" stroke-width="1" />
  <text x="52" y="385.25" text-anchor="end" font-family="system-ui, sans-serif" font-size="12" fill="#222222">3000</text>
  <line x1="55" y1="332.5" x2="60" y2="332.5" stroke="#333333" stroke-width="1" />
  <text x="52" y="336.5" text-anchor="end" font-family="system-ui, sans-serif" font-size="12" fill="#222222">3500</text>
  <line x1="55" y1="283.75" x2="60" y2="283.75" stroke="#333333" stroke-width="1" />
  <text x="52" y="287.75" text-anchor="end" font-family="system-ui, sans-serif" font-size="12" fill="#222222">4000</text>
  <line x1="55" y1="235" x2="60" y2="235" stroke="#333333" stroke-width="1" />
  <text x="52" y="239" text-anchor="end" font-family="system-ui, sans-serif" font-size="12" fill="#222222">4500</text>
  <line x1="55" y1="186.25" x2="60" y2="186.25" stroke="#333333" stroke-width="1" />
  <text x="52" y="190.25" text-anchor="end" font-family="system-ui, sans-serif" font-size="12" fill="#222222">5000</text>
  <line x1="55" y1="137.5" x2="60" y2="137.5" stroke="#333333" stroke-width="1" />
  <text x="52" y="141.5" text-anchor="end" font-family="system-ui, sans-serif" font-size="12" fill="#222222">5500</text>
  <line x1="55" y1="88.75" x2="60" y2="88.75" stroke="#333333" stroke-width="1" />
  <text x="52" y="92.75" text-anchor="end" font-family="system-ui, sans-serif" font-size="12" fill="#222222">6000</text>
  <line x1="55" y1="40" x2="60" y2="40" stroke="#333333" stroke-width="1" />
  <text x="52" y="44" text-anchor="end" font-family="system-ui, sans-serif" font-size="12" fill="#222222">6500</text>
  <text x="17.2" y="235" text-anchor="middle" transform="rotate(-90 17.2 235)" font-family="system-ui, sans-serif" font-size="12" fill="#222222">Body mass (g), pinned axis</text>
</g>
<g class="algraf-legends">
  <text x="586" y="44" text-anchor="start" font-family="system-ui, sans-serif" font-size="12" fill="#222222">species</text>
  <rect x="586" y="52" width="12" height="12" fill="#4E79A7" />
  <text x="604" y="62" text-anchor="start" font-family="system-ui, sans-serif" font-size="12" fill="#222222">Adelie</text>
  <rect x="586" y="70" width="12" height="12" fill="#F28E2B" />
  <text x="604" y="80" text-anchor="start" font-family="system-ui, sans-serif" font-size="12" fill="#222222">Chinstrap</text>
  <rect x="586" y="88" width="12" height="12" fill="#E15759" />
  <text x="604" y="98" text-anchor="start" font-family="system-ui, sans-serif" font-size="12" fill="#222222">Gentoo</text>
</g>
</svg>
