<svg xmlns="http://www.w3.org/2000/svg" width="760" height="500" viewBox="0 0 760 500" role="img">
<rect class="algraf-background" x="0" y="0" width="760" height="500" fill="#ffffff" />
<rect class="algraf-plot-area" x="60.8" y="40" width="549.2" height="410" fill="#ffffff" />
<g class="algraf-grid">
  <line x1="146.021" y1="40" x2="146.021" y2="450" stroke="#f2f2f2" stroke-width="0.6" />
  <line x1="264.383" y1="40" x2="264.383" y2="450" stroke="#f2f2f2" stroke-width="0.6" />
  <line x1="382.745" y1="40" x2="382.745" y2="450" stroke="#f2f2f2" stroke-width="0.6" />
  <line x1="501.107" y1="40" x2="501.107" y2="450" stroke="#f2f2f2" stroke-width="0.6" />
  <line x1="60.8" y1="371.232" x2="610" y2="371.232" stroke="#f2f2f2" stroke-width="0.6" />
  <line x1="60.8" y1="287.077" x2="610" y2="287.077" stroke="#f2f2f2" stroke-width="0.6" />
  <line x1="60.8" y1="202.923" x2="610" y2="202.923" stroke="#f2f2f2" stroke-width="0.6" />
  <line x1="60.8" y1="118.768" x2="610" y2="118.768" stroke="#f2f2f2" stroke-width="0.6" />
  <line x1="86.84" y1="40" x2="86.84" y2="450" stroke="#e6e6e6" stroke-width="1" />
  <line x1="205.202" y1="40" x2="205.202" y2="450" stroke="#e6e6e6" stroke-width="1" />
  <line x1="323.564" y1="40" x2="323.564" y2="450" stroke="#e6e6e6" stroke-width="1" />
  <line x1="441.926" y1="40" x2="441.926" y2="450" stroke="#e6e6e6" stroke-width="1" />
  <line x1="560.288" y1="40" x2="560.288" y2="450" stroke="#e6e6e6" stroke-width="1" />
  <line x1="60.8" y1="413.309" x2="610" y2="413.309" stroke="#e6e6e6" stroke-width="1" />
  <line x1="60.8" y1="329.154" x2="610" y2="329.154" stroke="#e6e6e6" stroke-width="1" />
  <line x1="60.8" y1="245" x2="610" y2="245" stroke="#e6e6e6" stroke-width="1" />
  <line x1="60.8" y1="160.846" x2="610" y2="160.846" stroke="#e6e6e6" stroke-width="1" />
  <line x1="60.8" y1="76.691" x2="610" y2="76.691" stroke="#e6e6e6" stroke-width="1" />
</g>
<g class="algraf-layer algraf-geom-point">
  <circle cx="98.676" cy="371.232" r="4" fill="#4E79A7" opacity="0.82" />
  <circle cx="157.857" cy="362.816" r="4" fill="#4E79A7" opacity="0.82" />
  <circle cx="264.383" cy="261.831" r="4" fill="#4E79A7" opacity="0.82" />
  <circle cx="240.71" cy="421.724" r="4" fill="#F28E2B" opacity="0.82" />
  <circle cx="288.055" cy="383.855" r="4" fill="#F28E2B" opacity="0.82" />
  <circle cx="335.4" cy="278.662" r="4" fill="#F28E2B" opacity="0.82" />
  <circle cx="441.926" cy="211.338" r="4" fill="#E15759" opacity="0.82" />
  <circle cx="512.943" cy="160.846" r="4" fill="#E15759" opacity="0.82" />
  <circle cx="572.124" cy="68.276" r="4" fill="#E15759" opacity="0.82" />
</g>
<g class="algraf-axes">
  <line x1="60.8" y1="450" x2="610" y2="450" stroke="#333333" stroke-width="1" />
  <line x1="86.84" y1="450" x2="86.84" y2="455" stroke="#333333" stroke-width="1" />
  <text x="86.84" y="468" text-anchor="middle" font-family="system-ui, sans-serif" font-size="12" fill="#222222">180</text>
  <line x1="205.202" y1="450" x2="205.202" y2="455" stroke="#333333" stroke-width="1" />
  <text x="205.202" y="468" text-anchor="middle" font-family="system-ui, sans-serif" font-size="12" fill="#222222">190</text>
  <line x1="323.564" y1="450" x2="323.564" y2="455" stroke="#333333" stroke-width="1" />
  <text x="323.564" y="468" text-anchor="middle" font-family="system-ui, sans-serif" font-size="12" fill="#222222">200</text>
  <line x1="441.926" y1="450" x2="441.926" y2="455" stroke="#333333" stroke-width="1" />
  <text x="441.926" y="468" text-anchor="middle" font-family="system-ui, sans-serif" font-size="12" fill="#222222">210</text>
  <line x1="560.288" y1="450" x2="560.288" y2="455" stroke="#333333" stroke-width="1" />
  <text x="560.288" y="468" text-anchor="middle" font-family="system-ui, sans-serif" font-size="12" fill="#222222">220</text>
  <text x="335.4" y="488" text-anchor="middle" font-family="system-ui, sans-serif" font-size="12" fill="#222222">flipper length</text>
  <line x1="60.8" y1="40" x2="60.8" y2="450" stroke="#333333" stroke-width="1" />
  <line x1="55.8" y1="413.309" x2="60.8" y2="413.309" stroke="#333333" stroke-width="1" />
  <text x="52.8" y="417.309" text-anchor="end" font-family="system-ui, sans-serif" font-size="12" fill="#222222">3500</text>
  <line x1="55.8" y1="329.154" x2="60.8" y2="329.154" stroke="#333333" stroke-width="1" />
  <text x="52.8" y="333.154" text-anchor="end" font-family="system-ui, sans-serif" font-size="12" fill="#222222">4000</text>
  <line x1="55.8" y1="245" x2="60.8" y2="245" stroke="#333333" stroke-width="1" />
  <text x="52.8" y="249" text-anchor="end" font-family="system-ui, sans-serif" font-size="12" fill="#222222">4500</text>
  <line x1="55.8" y1="160.846" x2="60.8" y2="160.846" stroke="#333333" stroke-width="1" />
  <text x="52.8" y="164.846" text-anchor="end" font-family="system-ui, sans-serif" font-size="12" fill="#222222">5000</text>
  <line x1="55.8" y1="76.691" x2="60.8" y2="76.691" stroke="#333333" stroke-width="1" />
  <text x="52.8" y="80.691" text-anchor="end" font-family="system-ui, sans-serif" font-size="12" fill="#222222">5500</text>
  <text x="12" y="245" text-anchor="middle" transform="rotate(-90 12 245)" font-family="system-ui, sans-serif" font-size="12" fill="#222222">body mass</text>
</g>
<g class="algraf-legends">
  <text x="626" y="44" text-anchor="start" font-family="system-ui, sans-serif" font-size="12" fill="#222222">species</text>
  <rect x="626" y="52" width="12" height="12" fill="#4E79A7" />
  <text x="644" y="62" text-anchor="start" font-family="system-ui, sans-serif" font-size="12" fill="#222222">Adelie</text>
  <rect x="626" y="70" width="12" height="12" fill="#F28E2B" />
  <text x="644" y="80" text-anchor="start" font-family="system-ui, sans-serif" font-size="12" fill="#222222">Chinstrap</text>
  <rect x="626" y="88" width="12" height="12" fill="#E15759" />
  <text x="644" y="98" text-anchor="start" font-family="system-ui, sans-serif" font-size="12" fill="#222222">Gentoo</text>
</g>
</svg>
