<svg xmlns="http://www.w3.org/2000/svg" width="720" height="480" viewBox="0 0 720 480" role="img">
<rect class="algraf-background" x="0" y="0" width="720" height="480" fill="#ffffff" />
<rect class="algraf-plot-area" x="60.8" y="40" width="509.2" height="390" fill="#ffffff" />
<g class="algraf-grid">
  <line x1="175.729" y1="40" x2="175.729" y2="430" stroke="#f2f2f2" stroke-width="0.6" />
  <line x1="255.541" y1="40" x2="255.541" y2="430" stroke="#f2f2f2" stroke-width="0.6" />
  <line x1="335.353" y1="40" x2="335.353" y2="430" stroke="#f2f2f2" stroke-width="0.6" />
  <line x1="415.165" y1="40" x2="415.165" y2="430" stroke="#f2f2f2" stroke-width="0.6" />
  <line x1="494.977" y1="40" x2="494.977" y2="430" stroke="#f2f2f2" stroke-width="0.6" />
  <line x1="60.8" y1="375.086" x2="570" y2="375.086" stroke="#f2f2f2" stroke-width="0.6" />
  <line x1="60.8" y1="319.052" x2="570" y2="319.052" stroke="#f2f2f2" stroke-width="0.6" />
  <line x1="60.8" y1="263.017" x2="570" y2="263.017" stroke="#f2f2f2" stroke-width="0.6" />
  <line x1="60.8" y1="206.983" x2="570" y2="206.983" stroke="#f2f2f2" stroke-width="0.6" />
  <line x1="60.8" y1="150.948" x2="570" y2="150.948" stroke="#f2f2f2" stroke-width="0.6" />
  <line x1="60.8" y1="94.914" x2="570" y2="94.914" stroke="#f2f2f2" stroke-width="0.6" />
  <line x1="135.823" y1="40" x2="135.823" y2="430" stroke="#e6e6e6" stroke-width="1" />
  <line x1="215.635" y1="40" x2="215.635" y2="430" stroke="#e6e6e6" stroke-width="1" />
  <line x1="295.447" y1="40" x2="295.447" y2="430" stroke="#e6e6e6" stroke-width="1" />
  <line x1="375.259" y1="40" x2="375.259" y2="430" stroke="#e6e6e6" stroke-width="1" />
  <line x1="455.071" y1="40" x2="455.071" y2="430" stroke="#e6e6e6" stroke-width="1" />
  <line x1="534.883" y1="40" x2="534.883" y2="430" stroke="#e6e6e6" stroke-width="1" />
  <line x1="60.8" y1="403.103" x2="570" y2="403.103" stroke="#e6e6e6" stroke-width="1" />
  <line x1="60.8" y1="347.069" x2="570" y2="347.069" stroke="#e6e6e6" stroke-width="1" />
  <line x1="60.8" y1="291.034" x2="570" y2="291.034" stroke="#e6e6e6" stroke-width="1" />
  <line x1="60.8" y1="235" x2="570" y2="235" stroke="#e6e6e6" stroke-width="1" />
  <line x1="60.8" y1="178.966" x2="570" y2="178.966" stroke="#e6e6e6" stroke-width="1" />
  <line x1="60.8" y1="122.931" x2="570" y2="122.931" stroke="#e6e6e6" stroke-width="1" />
  <line x1="60.8" y1="66.897" x2="570" y2="66.897" stroke="#e6e6e6" stroke-width="1" />
</g>
<defs>
<clipPath id="algraf-clip-0"><rect x="60.8" y="40" width="509.2" height="390" /></clipPath>
</defs>
<g clip-path="url(#algraf-clip-0)">
  <g class="algraf-layer algraf-geom-point">
    <circle cx="143.804" cy="319.052" r="3" fill="#4E79A7" opacity="0.7" />
    <circle cx="183.71" cy="313.448" r="3" fill="#4E79A7" opacity="0.7" />
    <circle cx="255.541" cy="246.207" r="3" fill="#4E79A7" opacity="0.7" />
    <circle cx="239.579" cy="352.672" r="3" fill="#F28E2B" opacity="0.7" />
    <circle cx="271.503" cy="327.457" r="3" fill="#F28E2B" opacity="0.7" />
    <circle cx="303.428" cy="257.414" r="3" fill="#F28E2B" opacity="0.7" />
    <circle cx="375.259" cy="212.586" r="3" fill="#E15759" opacity="0.7" />
    <circle cx="423.146" cy="178.966" r="3" fill="#E15759" opacity="0.7" />
    <circle cx="463.052" cy="117.328" r="3" fill="#E15759" opacity="0.7" />
  </g>
  <g class="algraf-layer algraf-geom-segment">
    <line x1="95.917" y1="403.103" x2="534.883" y2="66.897" stroke="#d62728" stroke-width="2" opacity="1" />
  </g>
</g>
<g class="algraf-axes">
  <line x1="60.8" y1="430" x2="570" y2="430" stroke="#333333" stroke-width="1" />
  <line x1="135.823" y1="430" x2="135.823" y2="435" stroke="#333333" stroke-width="1" />
  <text x="135.823" y="448" text-anchor="middle" font-family="system-ui, sans-serif" font-size="12" fill="#222222">180</text>
  <line x1="215.635" y1="430" x2="215.635" y2="435" stroke="#333333" stroke-width="1" />
  <text x="215.635" y="448" text-anchor="middle" font-family="system-ui, sans-serif" font-size="12" fill="#222222">190</text>
  <line x1="295.447" y1="430" x2="295.447" y2="435" stroke="#333333" stroke-width="1" />
  <text x="295.447" y="448" text-anchor="middle" font-family="system-ui, sans-serif" font-size="12" fill="#222222">200</text>
  <line x1="375.259" y1="430" x2="375.259" y2="435" stroke="#333333" stroke-width="1" />
  <text x="375.259" y="448" text-anchor="middle" font-family="system-ui, sans-serif" font-size="12" fill="#222222">210</text>
  <line x1="455.071" y1="430" x2="455.071" y2="435" stroke="#333333" stroke-width="1" />
  <text x="455.071" y="448" text-anchor="middle" font-family="system-ui, sans-serif" font-size="12" fill="#222222">220</text>
  <line x1="534.883" y1="430" x2="534.883" y2="435" stroke="#333333" stroke-width="1" />
  <text x="534.883" y="448" text-anchor="middle" font-family="system-ui, sans-serif" font-size="12" fill="#222222">230</text>
  <text x="315.4" y="468" text-anchor="middle" font-family="system-ui, sans-serif" font-size="12" fill="#222222">flipper length</text>
  <line x1="60.8" y1="40" x2="60.8" y2="430" stroke="#333333" stroke-width="1" />
  <line x1="55.8" y1="403.103" x2="60.8" y2="403.103" stroke="#333333" stroke-width="1" />
  <text x="52.8" y="407.103" text-anchor="end" font-family="system-ui, sans-serif" font-size="12" fill="#222222">3000</text>
  <line x1="55.8" y1="347.069" x2="60.8" y2="347.069" stroke="#333333" stroke-width="1" />
  <text x="52.8" y="351.069" text-anchor="end" font-family="system-ui, sans-serif" font-size="12" fill="#222222">3500</text>
  <line x1="55.8" y1="291.034" x2="60.8" y2="291.034" stroke="#333333" stroke-width="1" />
  <text x="52.8" y="295.034" text-anchor="end" font-family="system-ui, sans-serif" font-size="12" fill="#222222">4000</text>
  <line x1="55.8" y1="235" x2="60.8" y2="235" stroke="#333333" stroke-width="1" />
  <text x="52.8" y="239" text-anchor="end" font-family="system-ui, sans-serif" font-size="12" fill="#222222">4500</text>
  <line x1="55.8" y1="178.966" x2="60.8" y2="178.966" stroke="#333333" stroke-width="1" />
  <text x="52.8" y="182.966" text-anchor="end" font-family="system-ui, sans-serif" font-size="12" fill="#222222">5000</text>
  <line x1="55.8" y1="122.931" x2="60.8" y2="122.931" stroke="#333333" stroke-width="1" />
  <text x="52.8" y="126.931" text-anchor="end" font-family="system-ui, sans-serif" font-size="12" fill="#222222">5500</text>
  <line x1="55.8" y1="66.897" x2="60.8" y2="66.897" stroke="#333333" stroke-width="1" />
  <text x="52.8" y="70.897" text-anchor="end" font-family="system-ui, sans-serif" font-size="12" fill="#222222">6000</text>
  <text x="12" y="235" text-anchor="middle" transform="rotate(-90 12 235)" font-family="system-ui, sans-serif" font-size="12" fill="#222222">body mass</text>
</g>
<g class="algraf-legends">
  <text x="586" y="44" text-anchor="start" font-family="system-ui, sans-serif" font-size="12" fill="#222222">species</text>
  <rect x="586" y="52" width="12" height="12" fill="#4E79A7" />
  <text x="604" y="62" text-anchor="start" font-family="system-ui, sans-serif" font-size="12" fill="#222222">Adelie</text>
  <rect x="586" y="70" width="12" height="12" fill="#F28E2B" />
  <text x="604" y="80" text-anchor="start" font-family="system-ui, sans-serif" font-size="12" fill="#222222">Chinstrap</text>
  <rect x="586" y="88" width="12" height="12" fill="#E15759" />
  <text x="604" y="98" text-anchor="start" font-family="system-ui, sans-serif" font-size="12" fill="#222222">Gentoo</text>
</g>
</svg>
