<svg xmlns="http://www.w3.org/2000/svg" width="500" height="360" viewBox="0 0 500 360" role="img" aria-label="Sensors Tagged by Zone">
<title>Sensors Tagged by Zone</title>
<desc>SpatialJoin assigns each point the zone polygon that contains it</desc>
<rect class="algraf-background" x="0" y="0" width="500" height="360" fill="#ffffff" />
<text class="algraf-title" x="10" y="24" font-family="system-ui, sans-serif" font-size="18" font-weight="600" fill="#222222">Sensors Tagged by Zone</text>
<text class="algraf-subtitle" x="10" y="50" font-family="system-ui, sans-serif" font-size="12" fill="#222222">SpatialJoin assigns each point the zone polygon that contains it</text>
<rect class="algraf-plot-area" x="10" y="52" width="360" height="298" fill="#ffffff" />
<g class="algraf-layer algraf-geom-geo">
  <path d="M10 321L130 321L130 201L130 81L10 81L10 201L10 321Z" fill="#4E79A7" fill-rule="evenodd" stroke="#999999" stroke-width="1"/>
  <path d="M130 321L250 321L250 201L250 81L130 81L130 201L130 321Z" fill="#4E79A7" fill-rule="evenodd" stroke="#999999" stroke-width="1"/>
  <path d="M250 321L370 321L370 201L370 81L250 81L250 201L250 321Z" fill="#4E79A7" fill-rule="evenodd" stroke="#999999" stroke-width="1"/>
</g>
<g class="algraf-layer algraf-geom-geo">
  <circle cx="58" cy="249" r="2.5" fill="#006BA4"/>
  <circle cx="82" cy="153" r="2.5" fill="#006BA4"/>
  <circle cx="178" cy="273" r="2.5" fill="#FF800E"/>
  <circle cx="202" cy="129" r="2.5" fill="#FF800E"/>
  <circle cx="298" cy="201" r="2.5" fill="#ABABAB"/>
  <circle cx="322" cy="105" r="2.5" fill="#ABABAB"/>
</g>
<g class="algraf-legends">
  <text x="386" y="56" text-anchor="start" font-family="system-ui, sans-serif" font-size="12" fill="#222222">Zone</text>
  <rect x="386" y="64" width="12" height="12" fill="#006BA4" />
  <text x="404" y="74" text-anchor="start" font-family="system-ui, sans-serif" font-size="12" fill="#222222">West</text>
  <rect x="386" y="82" width="12" height="12" fill="#FF800E" />
  <text x="404" y="92" text-anchor="start" font-family="system-ui, sans-serif" font-size="12" fill="#222222">Central</text>
  <rect x="386" y="100" width="12" height="12" fill="#ABABAB" />
  <text x="404" y="110" text-anchor="start" font-family="system-ui, sans-serif" font-size="12" fill="#222222">East</text>
</g>
</svg>
