<svg xmlns="http://www.w3.org/2000/svg" width="760" height="460" viewBox="0 0 760 460" role="img">
<rect class="algraf-background" x="0" y="0" width="760" height="460" fill="#ffffff" />
<rect class="algraf-plot-area" x="60" y="40" width="550" height="370" fill="#ffffff" />
<g class="algraf-grid">
  <line x1="60" y1="381.919" x2="610" y2="381.919" stroke="#f2f2f2" stroke-width="0.6" />
  <line x1="60" y1="325.756" x2="610" y2="325.756" stroke="#f2f2f2" stroke-width="0.6" />
  <line x1="60" y1="269.593" x2="610" y2="269.593" stroke="#f2f2f2" stroke-width="0.6" />
  <line x1="60" y1="213.43" x2="610" y2="213.43" stroke="#f2f2f2" stroke-width="0.6" />
  <line x1="60" y1="157.268" x2="610" y2="157.268" stroke="#f2f2f2" stroke-width="0.6" />
  <line x1="60" y1="101.105" x2="610" y2="101.105" stroke="#f2f2f2" stroke-width="0.6" />
  <line x1="60" y1="410" x2="610" y2="410" stroke="#e6e6e6" stroke-width="1" />
  <line x1="60" y1="353.837" x2="610" y2="353.837" stroke="#e6e6e6" stroke-width="1" />
  <line x1="60" y1="297.675" x2="610" y2="297.675" stroke="#e6e6e6" stroke-width="1" />
  <line x1="60" y1="241.512" x2="610" y2="241.512" stroke="#e6e6e6" stroke-width="1" />
  <line x1="60" y1="185.349" x2="610" y2="185.349" stroke="#e6e6e6" stroke-width="1" />
  <line x1="60" y1="129.186" x2="610" y2="129.186" stroke="#e6e6e6" stroke-width="1" />
  <line x1="60" y1="73.024" x2="610" y2="73.024" stroke="#e6e6e6" stroke-width="1" />
</g>
<g class="algraf-layer algraf-geom-bar">
  <rect x="73.75" y="292.058" width="110" height="117.942" fill="#4E79A7" opacity="1" />
  <rect x="73.75" y="224.663" width="110" height="67.395" fill="#F28E2B" opacity="1" />
  <rect x="73.75" y="174.117" width="110" height="50.546" fill="#E15759" opacity="1" />
  <rect x="211.25" y="278.018" width="110" height="131.982" fill="#4E79A7" opacity="1" />
  <rect x="211.25" y="196.582" width="110" height="81.436" fill="#F28E2B" opacity="1" />
  <rect x="211.25" y="151.651" width="110" height="44.93" fill="#E15759" opacity="1" />
  <rect x="348.75" y="261.169" width="110" height="148.831" fill="#4E79A7" opacity="1" />
  <rect x="348.75" y="174.117" width="110" height="87.052" fill="#F28E2B" opacity="1" />
  <rect x="348.75" y="115.146" width="110" height="58.971" fill="#E15759" opacity="1" />
  <rect x="486.25" y="238.704" width="110" height="171.296" fill="#4E79A7" opacity="1" />
  <rect x="486.25" y="137.611" width="110" height="101.093" fill="#F28E2B" opacity="1" />
  <rect x="486.25" y="67.407" width="110" height="70.203" fill="#E15759" opacity="1" />
</g>
<g class="algraf-axes">
  <line x1="60" y1="410" x2="610" y2="410" stroke="#333333" stroke-width="1" />
  <line x1="128.75" y1="410" x2="128.75" y2="415" stroke="#333333" stroke-width="1" />
  <text x="128.75" y="428" text-anchor="middle" font-family="system-ui, sans-serif" font-size="12" fill="#222222">Q1</text>
  <line x1="266.25" y1="410" x2="266.25" y2="415" stroke="#333333" stroke-width="1" />
  <text x="266.25" y="428" text-anchor="middle" font-family="system-ui, sans-serif" font-size="12" fill="#222222">Q2</text>
  <line x1="403.75" y1="410" x2="403.75" y2="415" stroke="#333333" stroke-width="1" />
  <text x="403.75" y="428" text-anchor="middle" font-family="system-ui, sans-serif" font-size="12" fill="#222222">Q3</text>
  <line x1="541.25" y1="410" x2="541.25" y2="415" stroke="#333333" stroke-width="1" />
  <text x="541.25" y="428" text-anchor="middle" font-family="system-ui, sans-serif" font-size="12" fill="#222222">Q4</text>
  <text x="335" y="448" text-anchor="middle" font-family="system-ui, sans-serif" font-size="12" fill="#222222">quarter</text>
  <line x1="60" y1="40" x2="60" y2="410" stroke="#333333" stroke-width="1" />
  <line x1="55" y1="410" x2="60" y2="410" stroke="#333333" stroke-width="1" />
  <text x="52" y="414" text-anchor="end" font-family="system-ui, sans-serif" font-size="12" fill="#222222">0</text>
  <line x1="55" y1="353.837" x2="60" y2="353.837" stroke="#333333" stroke-width="1" />
  <text x="52" y="357.837" text-anchor="end" font-family="system-ui, sans-serif" font-size="12" fill="#222222">20</text>
  <line x1="55" y1="297.675" x2="60" y2="297.675" stroke="#333333" stroke-width="1" />
  <text x="52" y="301.675" text-anchor="end" font-family="system-ui, sans-serif" font-size="12" fill="#222222">40</text>
  <line x1="55" y1="241.512" x2="60" y2="241.512" stroke="#333333" stroke-width="1" />
  <text x="52" y="245.512" text-anchor="end" font-family="system-ui, sans-serif" font-size="12" fill="#222222">60</text>
  <line x1="55" y1="185.349" x2="60" y2="185.349" stroke="#333333" stroke-width="1" />
  <text x="52" y="189.349" text-anchor="end" font-family="system-ui, sans-serif" font-size="12" fill="#222222">80</text>
  <line x1="55" y1="129.186" x2="60" y2="129.186" stroke="#333333" stroke-width="1" />
  <text x="52" y="133.186" text-anchor="end" font-family="system-ui, sans-serif" font-size="12" fill="#222222">100</text>
  <line x1="55" y1="73.024" x2="60" y2="73.024" stroke="#333333" stroke-width="1" />
  <text x="52" y="77.024" text-anchor="end" font-family="system-ui, sans-serif" font-size="12" fill="#222222">120</text>
  <text x="18.4" y="225" text-anchor="middle" transform="rotate(-90 18.4 225)" font-family="system-ui, sans-serif" font-size="12" fill="#222222">amount</text>
</g>
<g class="algraf-legends">
  <text x="626" y="44" text-anchor="start" font-family="system-ui, sans-serif" font-size="12" fill="#222222">type</text>
  <rect x="626" y="52" width="12" height="12" fill="#4E79A7" />
  <text x="644" y="62" text-anchor="start" font-family="system-ui, sans-serif" font-size="12" fill="#222222">software</text>
  <rect x="626" y="70" width="12" height="12" fill="#F28E2B" />
  <text x="644" y="80" text-anchor="start" font-family="system-ui, sans-serif" font-size="12" fill="#222222">services</text>
  <rect x="626" y="88" width="12" height="12" fill="#E15759" />
  <text x="644" y="98" text-anchor="start" font-family="system-ui, sans-serif" font-size="12" fill="#222222">hardware</text>
</g>
</svg>
