<svg xmlns="http://www.w3.org/2000/svg" width="600" height="560" viewBox="0 0 600 560" role="img" aria-label="Oil spill">
<title>Oil spill</title>
<desc>Crude-oil strategic reserves*, m barrels
1 Russia invades Ukraine
2 US-Israeli air strikes on Iran begin
*Excludes private reserves</desc>
<rect class="algraf-background" x="0" y="0" width="600" height="560" fill="#f3f0eb" />
<text class="algraf-title" x="30" y="24" font-family="system-ui, sans-serif" font-size="18" font-weight="600" fill="#7a7a7a">Oil spill</text>
<text class="algraf-subtitle" x="30" y="50" font-family="system-ui, sans-serif" font-size="11" fill="#7a7a7a">Crude-oil strategic reserves*, m barrels</text>
<text class="algraf-caption" x="584" y="504" text-anchor="end" font-family="system-ui, sans-serif" font-size="11" fill="#7a7a7a">1 Russia invades Ukraine</text>
<text class="algraf-caption" x="584" y="519" text-anchor="end" font-family="system-ui, sans-serif" font-size="11" fill="#7a7a7a">2 US-Israeli air strikes on Iran begin</text>
<text class="algraf-caption" x="584" y="534" text-anchor="end" font-family="system-ui, sans-serif" font-size="11" fill="#7a7a7a">*Excludes private reserves</text>
<text class="algraf-source" x="584" y="548" text-anchor="end" font-family="system-ui, sans-serif" font-size="10" fill="#9a9a9a">Sources: EIA; Japan's Ministry of Economy, Trade and Industry</text>
<rect class="algraf-plot-area" x="30" y="81" width="506" height="362" fill="#f3f0eb" />
<g class="algraf-grid">
  <line x1="30" y1="397.75" x2="536" y2="397.75" stroke="#f2f2f2" stroke-width="0.6" />
  <line x1="30" y1="307.25" x2="536" y2="307.25" stroke="#f2f2f2" stroke-width="0.6" />
  <line x1="30" y1="216.75" x2="536" y2="216.75" stroke="#f2f2f2" stroke-width="0.6" />
  <line x1="30" y1="126.25" x2="536" y2="126.25" stroke="#f2f2f2" stroke-width="0.6" />
  <line x1="30" y1="443" x2="536" y2="443" stroke="#d8d4cc" stroke-width="1" />
  <line x1="30" y1="352.5" x2="536" y2="352.5" stroke="#d8d4cc" stroke-width="1" />
  <line x1="30" y1="262" x2="536" y2="262" stroke="#d8d4cc" stroke-width="1" />
  <line x1="30" y1="171.5" x2="536" y2="171.5" stroke="#d8d4cc" stroke-width="1" />
  <line x1="30" y1="81" x2="536" y2="81" stroke="#d8d4cc" stroke-width="1" />
</g>
<defs>
<clipPath id="algraf-clip-0"><rect x="30" y="81" width="506" height="362" /></clipPath>
</defs>
<g clip-path="url(#algraf-clip-0)">
  <g class="algraf-layer algraf-geom-line">
    <path d="M64.897 198.198 L81.674 196.388 L98.451 171.953 L115.228 154.305 L132.005 137.11 L148.782 133.038 L165.56 131.228 L182.337 127.608 L199.114 123.082 L215.891 114.033 L232.668 114.033 L249.446 128.06 L266.223 128.512 L283 128.06 L299.777 130.322 L316.554 128.512 L333.332 128.512 L350.109 142.993 L366.886 149.328 L383.663 155.663 L400.44 154.305 L417.218 174.215 L433.995 274.67 L450.772 282.363 L467.549 268.788 L484.326 262 L501.103 257.475" fill="none" stroke="#e3120b" stroke-width="3" opacity="1" />
    <path d="M64.897 307.25 L81.674 304.988 L98.451 303.63 L115.228 301.82 L132.005 300.463 L148.782 299.105 L165.56 298.2 L182.337 297.295 L199.114 295.938 L215.891 294.58 L232.668 293.675 L249.446 295.485 L266.223 296.39 L283 297.295 L299.777 298.2 L316.554 297.295 L333.332 296.39 L350.109 295.938 L366.886 295.033 L383.663 293.675 L400.44 292.77 L417.218 293.675 L433.995 299.105 L450.772 302.725 L467.549 301.82 L484.326 300.463 L501.103 299.105" fill="none" stroke="#f6a6a1" stroke-width="3" opacity="1" />
  </g>
  <g class="algraf-layer algraf-geom-vline">
    <line x1="433.995" y1="81" x2="433.995" y2="443" stroke="#111111" stroke-width="1.5" opacity="1" />
    <circle cx="433.995" cy="91.5" r="8.5" fill="#111111" />
    <text x="433.995" y="95.35" text-anchor="middle" font-family="system-ui, sans-serif" font-size="11" fill="#ffffff">1</text>
  </g>
  <g class="algraf-layer algraf-geom-vline">
    <line x1="484.326" y1="81" x2="484.326" y2="443" stroke="#111111" stroke-width="1.5" opacity="1" />
    <circle cx="484.326" cy="91.5" r="8.5" fill="#111111" />
    <text x="484.326" y="95.35" text-anchor="middle" font-family="system-ui, sans-serif" font-size="11" fill="#ffffff">2</text>
  </g>
  <g class="algraf-layer algraf-geom-text">
    <text x="199.114" y="153.4" text-anchor="middle" font-family="system-ui, sans-serif" font-size="13" fill="#e3120b" opacity="1">United States</text>
  </g>
  <g class="algraf-layer algraf-geom-text">
    <text x="232.668" y="329.875" text-anchor="middle" font-family="system-ui, sans-serif" font-size="13" fill="#d98884" opacity="1">Japan</text>
  </g>
</g>
<g class="algraf-axes">
  <line x1="30" y1="443" x2="536" y2="443" stroke="#333333" stroke-width="1" />
  <line x1="64.897" y1="443" x2="64.897" y2="448" stroke="#333333" stroke-width="1" />
  <text x="64.897" y="461" text-anchor="middle" font-family="system-ui, sans-serif" font-size="11" fill="#7a7a7a">2000</text>
  <line x1="148.782" y1="443" x2="148.782" y2="448" stroke="#333333" stroke-width="1" />
  <text x="148.782" y="461" text-anchor="middle" font-family="system-ui, sans-serif" font-size="11" fill="#7a7a7a">2005</text>
  <line x1="232.668" y1="443" x2="232.668" y2="448" stroke="#333333" stroke-width="1" />
  <text x="232.668" y="461" text-anchor="middle" font-family="system-ui, sans-serif" font-size="11" fill="#7a7a7a">2010</text>
  <line x1="316.554" y1="443" x2="316.554" y2="448" stroke="#333333" stroke-width="1" />
  <text x="316.554" y="461" text-anchor="middle" font-family="system-ui, sans-serif" font-size="11" fill="#7a7a7a">2015</text>
  <line x1="400.44" y1="443" x2="400.44" y2="448" stroke="#333333" stroke-width="1" />
  <text x="400.44" y="461" text-anchor="middle" font-family="system-ui, sans-serif" font-size="11" fill="#7a7a7a">2020</text>
  <line x1="484.326" y1="443" x2="484.326" y2="448" stroke="#333333" stroke-width="1" />
  <text x="484.326" y="461" text-anchor="middle" font-family="system-ui, sans-serif" font-size="11" fill="#7a7a7a">2025</text>
  <line x1="536" y1="81" x2="536" y2="443" stroke="#333333" stroke-width="1" />
  <line x1="536" y1="443" x2="541" y2="443" stroke="#333333" stroke-width="1" />
  <text x="544" y="447" text-anchor="start" font-family="system-ui, sans-serif" font-size="11" fill="#7a7a7a">0</text>
  <line x1="536" y1="352.5" x2="541" y2="352.5" stroke="#333333" stroke-width="1" />
  <text x="544" y="356.5" text-anchor="start" font-family="system-ui, sans-serif" font-size="11" fill="#7a7a7a">200</text>
  <line x1="536" y1="262" x2="541" y2="262" stroke="#333333" stroke-width="1" />
  <text x="544" y="266" text-anchor="start" font-family="system-ui, sans-serif" font-size="11" fill="#7a7a7a">400</text>
  <line x1="536" y1="171.5" x2="541" y2="171.5" stroke="#333333" stroke-width="1" />
  <text x="544" y="175.5" text-anchor="start" font-family="system-ui, sans-serif" font-size="11" fill="#7a7a7a">600</text>
  <line x1="536" y1="81" x2="541" y2="81" stroke="#333333" stroke-width="1" />
  <text x="544" y="85" text-anchor="start" font-family="system-ui, sans-serif" font-size="11" fill="#7a7a7a">800</text>
</g>
</svg>
