<svg xmlns="http://www.w3.org/2000/svg" width="720" height="500" viewBox="0 0 720 500" role="img" aria-label="Mean signal by hex bin">
<title>Mean signal by hex bin</title>
<rect class="algraf-background" x="0" y="0" width="720" height="500" fill="#ffffff" />
<text class="algraf-title" x="60" y="24" font-family="system-ui, sans-serif" font-size="18" font-weight="600" fill="#222222">Mean signal by hex bin</text>
<rect class="algraf-plot-area" x="60" y="66" width="510" height="384" fill="#ffffff" />
<g class="algraf-layer algraf-geom-geo">
  <path d="M91.875 374.845L60 386.529L60 409.898L91.875 421.583L123.75 409.898L123.75 386.529L91.875 374.845Z" fill="#f7fcf0" fill-rule="evenodd" stroke="#ffffff" stroke-width="0.25"/>
  <path d="M123.75 339.791L91.875 351.476L91.875 374.845L123.75 386.529L155.625 374.845L155.625 351.476L123.75 339.791Z" fill="#e3f3e0" fill-rule="evenodd" stroke="#ffffff" stroke-width="0.25"/>
  <path d="M123.75 129.471L91.875 141.155L91.875 164.524L123.75 176.209L155.625 164.524L155.625 141.155L123.75 129.471Z" fill="#b0ddb7" fill-rule="evenodd" stroke="#ffffff" stroke-width="0.25"/>
  <path d="M155.625 374.845L123.75 386.529L123.75 409.898L155.625 421.583L187.5 409.898L187.5 386.529L155.625 374.845Z" fill="#cfeacf" fill-rule="evenodd" stroke="#ffffff" stroke-width="0.25"/>
  <path d="M155.625 304.738L123.75 316.422L123.75 339.791L155.625 351.476L187.5 339.791L187.5 316.422L155.625 304.738Z" fill="#92cf9e" fill-rule="evenodd" stroke="#ffffff" stroke-width="0.25"/>
  <path d="M155.625 164.524L123.75 176.209L123.75 199.578L155.625 211.262L187.5 199.578L187.5 176.209L155.625 164.524Z" fill="#7ec68e" fill-rule="evenodd" stroke="#ffffff" stroke-width="0.25"/>
  <path d="M187.5 339.791L155.625 351.476L155.625 374.845L187.5 386.529L219.375 374.845L219.375 351.476L187.5 339.791Z" fill="#b0ddb7" fill-rule="evenodd" stroke="#ffffff" stroke-width="0.25"/>
  <path d="M251.25 269.684L219.375 281.369L219.375 304.738L251.25 316.422L283.125 304.738L283.125 281.369L251.25 269.684Z" fill="#4bb065" fill-rule="evenodd" stroke="#ffffff" stroke-width="0.25"/>
  <path d="M251.25 129.471L219.375 141.155L219.375 164.524L251.25 176.209L283.125 164.524L283.125 141.155L251.25 129.471Z" fill="#55b46d" fill-rule="evenodd" stroke="#ffffff" stroke-width="0.25"/>
  <path d="M283.125 304.738L251.25 316.422L251.25 339.791L283.125 351.476L315 339.791L315 316.422L283.125 304.738Z" fill="#4bb065" fill-rule="evenodd" stroke="#ffffff" stroke-width="0.25"/>
  <path d="M283.125 234.631L251.25 246.316L251.25 269.684L283.125 281.369L315 269.684L315 246.316L283.125 234.631Z" fill="#2b8947" fill-rule="evenodd" stroke="#ffffff" stroke-width="0.25"/>
  <path d="M283.125 164.524L251.25 176.209L251.25 199.578L283.125 211.262L315 199.578L315 176.209L283.125 164.524Z" fill="#2f8e4b" fill-rule="evenodd" stroke="#ffffff" stroke-width="0.25"/>
  <path d="M315 129.471L283.125 141.155L283.125 164.524L315 176.209L346.875 164.524L346.875 141.155L315 129.471Z" fill="#196c35" fill-rule="evenodd" stroke="#ffffff" stroke-width="0.25"/>
  <path d="M346.875 234.631L315 246.316L315 269.684L346.875 281.369L378.75 269.684L378.75 246.316L346.875 234.631Z" fill="#1b6f37" fill-rule="evenodd" stroke="#ffffff" stroke-width="0.25"/>
  <path d="M346.875 164.524L315 176.209L315 199.578L346.875 211.262L378.75 199.578L378.75 176.209L346.875 164.524Z" fill="#12612d" fill-rule="evenodd" stroke="#ffffff" stroke-width="0.25"/>
  <path d="M378.75 199.578L346.875 211.262L346.875 234.631L378.75 246.316L410.625 234.631L410.625 211.262L378.75 199.578Z" fill="#0b5526" fill-rule="evenodd" stroke="#ffffff" stroke-width="0.25"/>
  <path d="M378.75 129.471L346.875 141.155L346.875 164.524L378.75 176.209L410.625 164.524L410.625 141.155L378.75 129.471Z" fill="#074f22" fill-rule="evenodd" stroke="#ffffff" stroke-width="0.25"/>
  <path d="M410.625 164.524L378.75 176.209L378.75 199.578L410.625 211.262L442.5 199.578L442.5 176.209L410.625 164.524Z" fill="#00441b" fill-rule="evenodd" stroke="#ffffff" stroke-width="0.25"/>
  <path d="M442.5 199.578L410.625 211.262L410.625 234.631L442.5 246.316L474.375 234.631L474.375 211.262L442.5 199.578Z" fill="#0e5b2a" fill-rule="evenodd" stroke="#ffffff" stroke-width="0.25"/>
  <path d="M442.5 129.471L410.625 141.155L410.625 164.524L442.5 176.209L474.375 164.524L474.375 141.155L442.5 129.471Z" fill="#12612d" fill-rule="evenodd" stroke="#ffffff" stroke-width="0.25"/>
  <path d="M474.375 164.524L442.5 176.209L442.5 199.578L474.375 211.262L506.25 199.578L506.25 176.209L474.375 164.524Z" fill="#1d7238" fill-rule="evenodd" stroke="#ffffff" stroke-width="0.25"/>
  <path d="M474.375 94.417L442.5 106.102L442.5 129.471L474.375 141.155L506.25 129.471L506.25 106.102L474.375 94.417Z" fill="#247d40" fill-rule="evenodd" stroke="#ffffff" stroke-width="0.25"/>
  <path d="M506.25 129.471L474.375 141.155L474.375 164.524L506.25 176.209L538.125 164.524L538.125 141.155L506.25 129.471Z" fill="#2b8947" fill-rule="evenodd" stroke="#ffffff" stroke-width="0.25"/>
  <path d="M538.125 164.524L506.25 176.209L506.25 199.578L538.125 211.262L570 199.578L570 176.209L538.125 164.524Z" fill="#369a52" fill-rule="evenodd" stroke="#ffffff" stroke-width="0.25"/>
  <path d="M538.125 94.417L506.25 106.102L506.25 129.471L538.125 141.155L570 129.471L570 106.102L538.125 94.417Z" fill="#33944e" fill-rule="evenodd" stroke="#ffffff" stroke-width="0.25"/>
</g>
<g class="algraf-legends">
  <text x="586" y="70" text-anchor="start" font-family="system-ui, sans-serif" font-size="12" fill="#222222">value</text>
  <rect x="586" y="84" width="22" height="1.75" fill="#00441b" />
  <rect x="586" y="85" width="22" height="1.75" fill="#01451c" />
  <rect x="586" y="86" width="22" height="1.75" fill="#01461c" />
  <rect x="586" y="87" width="22" height="1.75" fill="#02471d" />
  <rect x="586" y="88" width="22" height="1.75" fill="#03481e" />
  <rect x="586" y="89" width="22" height="1.75" fill="#03491e" />
  <rect x="586" y="90" width="22" height="1.75" fill="#044a1f" />
  <rect x="586" y="91" width="22" height="1.75" fill="#044b1f" />
  <rect x="586" y="92" width="22" height="1.75" fill="#054c20" />
  <rect x="586" y="93" width="22" height="1.75" fill="#064d21" />
  <rect x="586" y="94" width="22" height="1.75" fill="#064e21" />
  <rect x="586" y="95" width="22" height="1.75" fill="#074f22" />
  <rect x="586" y="96" width="22" height="1.75" fill="#075023" />
  <rect x="586" y="97" width="22" height="1.75" fill="#085123" />
  <rect x="586" y="98" width="22" height="1.75" fill="#095224" />
  <rect x="586" y="99" width="22" height="1.75" fill="#095324" />
  <rect x="586" y="100" width="22" height="1.75" fill="#0a5325" />
  <rect x="586" y="101" width="22" height="1.75" fill="#0a5426" />
  <rect x="586" y="102" width="22" height="1.75" fill="#0b5526" />
  <rect x="586" y="103" width="22" height="1.75" fill="#0c5627" />
  <rect x="586" y="104" width="22" height="1.75" fill="#0c5727" />
  <rect x="586" y="105" width="22" height="1.75" fill="#0d5828" />
  <rect x="586" y="106" width="22" height="1.75" fill="#0d5928" />
  <rect x="586" y="107" width="22" height="1.75" fill="#0e5a29" />
  <rect x="586" y="108" width="22" height="1.75" fill="#0e5b2a" />
  <rect x="586" y="109" width="22" height="1.75" fill="#0f5c2a" />
  <rect x="586" y="110" width="22" height="1.75" fill="#105d2b" />
  <rect x="586" y="111" width="22" height="1.75" fill="#105e2c" />
  <rect x="586" y="112" width="22" height="1.75" fill="#115f2c" />
  <rect x="586" y="113" width="22" height="1.75" fill="#11602d" />
  <rect x="586" y="114" width="22" height="1.75" fill="#12612d" />
  <rect x="586" y="115" width="22" height="1.75" fill="#13612e" />
  <rect x="586" y="116" width="22" height="1.75" fill="#13622e" />
  <rect x="586" y="117" width="22" height="1.75" fill="#14632f" />
  <rect x="586" y="118" width="22" height="1.75" fill="#146430" />
  <rect x="586" y="119" width="22" height="1.75" fill="#156530" />
  <rect x="586" y="120" width="22" height="1.75" fill="#166631" />
  <rect x="586" y="121" width="22" height="1.75" fill="#166731" />
  <rect x="586" y="122" width="22" height="1.75" fill="#176832" />
  <rect x="586" y="123" width="22" height="1.75" fill="#176933" />
  <rect x="586" y="124" width="22" height="1.75" fill="#186a33" />
  <rect x="586" y="125" width="22" height="1.75" fill="#196b34" />
  <rect x="586" y="126" width="22" height="1.75" fill="#196c34" />
  <rect x="586" y="127" width="22" height="1.75" fill="#1a6d35" />
  <rect x="586" y="128" width="22" height="1.75" fill="#1a6e36" />
  <rect x="586" y="129" width="22" height="1.75" fill="#1b6f36" />
  <rect x="586" y="130" width="22" height="1.75" fill="#1b7037" />
  <rect x="586" y="131" width="22" height="1.75" fill="#1c7038" />
  <rect x="586" y="132" width="22" height="1.75" fill="#1d7138" />
  <rect x="586" y="133" width="22" height="1.75" fill="#1d7239" />
  <rect x="586" y="134" width="22" height="1.75" fill="#1e7339" />
  <rect x="586" y="135" width="22" height="1.75" fill="#1e743a" />
  <rect x="586" y="136" width="22" height="1.75" fill="#1f753b" />
  <rect x="586" y="137" width="22" height="1.75" fill="#20763b" />
  <rect x="586" y="138" width="22" height="1.75" fill="#20773c" />
  <rect x="586" y="139" width="22" height="1.75" fill="#21783c" />
  <rect x="586" y="140" width="22" height="1.75" fill="#21793d" />
  <rect x="586" y="141" width="22" height="1.75" fill="#227a3d" />
  <rect x="586" y="142" width="22" height="1.75" fill="#237b3e" />
  <rect x="586" y="143" width="22" height="1.75" fill="#237c3f" />
  <rect x="586" y="144" width="22" height="1.75" fill="#247d3f" />
  <rect x="586" y="145" width="22" height="1.75" fill="#247e40" />
  <rect x="586" y="146" width="22" height="1.75" fill="#257f41" />
  <rect x="586" y="147" width="22" height="1.75" fill="#267f41" />
  <rect x="586" y="148" width="22" height="1.75" fill="#268042" />
  <rect x="586" y="149" width="22" height="1.75" fill="#278142" />
  <rect x="586" y="150" width="22" height="1.75" fill="#278243" />
  <rect x="586" y="151" width="22" height="1.75" fill="#288344" />
  <rect x="586" y="152" width="22" height="1.75" fill="#288444" />
  <rect x="586" y="153" width="22" height="1.75" fill="#298545" />
  <rect x="586" y="154" width="22" height="1.75" fill="#2a8645" />
  <rect x="586" y="155" width="22" height="1.75" fill="#2a8746" />
  <rect x="586" y="156" width="22" height="1.75" fill="#2b8847" />
  <rect x="586" y="157" width="22" height="1.75" fill="#2b8947" />
  <rect x="586" y="158" width="22" height="1.75" fill="#2c8a48" />
  <rect x="586" y="159" width="22" height="1.75" fill="#2d8b48" />
  <rect x="586" y="160" width="22" height="1.75" fill="#2d8c49" />
  <rect x="586" y="161" width="22" height="1.75" fill="#2e8d4a" />
  <rect x="586" y="162" width="22" height="1.75" fill="#2e8e4a" />
  <rect x="586" y="163" width="22" height="1.75" fill="#2f8e4b" />
  <rect x="586" y="164" width="22" height="1.75" fill="#308f4b" />
  <rect x="586" y="165" width="22" height="1.75" fill="#30904c" />
  <rect x="586" y="166" width="22" height="1.75" fill="#31914d" />
  <rect x="586" y="167" width="22" height="1.75" fill="#31924d" />
  <rect x="586" y="168" width="22" height="1.75" fill="#32934e" />
  <rect x="586" y="169" width="22" height="1.75" fill="#33944e" />
  <rect x="586" y="170" width="22" height="1.75" fill="#33954f" />
  <rect x="586" y="171" width="22" height="1.75" fill="#34964f" />
  <rect x="586" y="172" width="22" height="1.75" fill="#349750" />
  <rect x="586" y="173" width="22" height="1.75" fill="#359851" />
  <rect x="586" y="174" width="22" height="1.75" fill="#359951" />
  <rect x="586" y="175" width="22" height="1.75" fill="#369a52" />
  <rect x="586" y="176" width="22" height="1.75" fill="#379b53" />
  <rect x="586" y="177" width="22" height="1.75" fill="#379c53" />
  <rect x="586" y="178" width="22" height="1.75" fill="#389c54" />
  <rect x="586" y="179" width="22" height="1.75" fill="#389d54" />
  <rect x="586" y="180" width="22" height="1.75" fill="#399e55" />
  <rect x="586" y="181" width="22" height="1.75" fill="#3a9f55" />
  <rect x="586" y="182" width="22" height="1.75" fill="#3aa056" />
  <rect x="586" y="183" width="22" height="1.75" fill="#3ba157" />
  <rect x="586" y="184" width="22" height="1.75" fill="#3ba257" />
  <rect x="586" y="185" width="22" height="1.75" fill="#3ca358" />
  <rect x="586" y="186" width="22" height="1.75" fill="#3da458" />
  <rect x="586" y="187" width="22" height="1.75" fill="#3da559" />
  <rect x="586" y="188" width="22" height="1.75" fill="#3ea65a" />
  <rect x="586" y="189" width="22" height="1.75" fill="#3ea75a" />
  <rect x="586" y="190" width="22" height="1.75" fill="#3fa85b" />
  <rect x="586" y="191" width="22" height="1.75" fill="#40a95c" />
  <rect x="586" y="192" width="22" height="1.75" fill="#40aa5c" />
  <rect x="586" y="193" width="22" height="1.75" fill="#41ab5d" />
  <rect x="586" y="194" width="22" height="1.75" fill="#42ab5e" />
  <rect x="586" y="195" width="22" height="1.75" fill="#43ac5f" />
  <rect x="586" y="196" width="22" height="1.75" fill="#45ad60" />
  <rect x="586" y="197" width="22" height="1.75" fill="#47ae62" />
  <rect x="586" y="198" width="22" height="1.75" fill="#48ae63" />
  <rect x="586" y="199" width="22" height="1.75" fill="#4aaf64" />
  <rect x="586" y="200" width="22" height="1.75" fill="#4cb066" />
  <rect x="586" y="201" width="22" height="1.75" fill="#4db167" />
  <rect x="586" y="202" width="22" height="1.75" fill="#4fb168" />
  <rect x="586" y="203" width="22" height="1.75" fill="#51b26a" />
  <rect x="586" y="204" width="22" height="1.75" fill="#52b36b" />
  <rect x="586" y="205" width="22" height="1.75" fill="#54b36c" />
  <rect x="586" y="206" width="22" height="1.75" fill="#56b46e" />
  <rect x="586" y="207" width="22" height="1.75" fill="#57b56f" />
  <rect x="586" y="208" width="22" height="1.75" fill="#59b670" />
  <rect x="586" y="209" width="22" height="1.75" fill="#5bb672" />
  <rect x="586" y="210" width="22" height="1.75" fill="#5cb773" />
  <rect x="586" y="211" width="22" height="1.75" fill="#5eb874" />
  <rect x="586" y="212" width="22" height="1.75" fill="#60b976" />
  <rect x="586" y="213" width="22" height="1.75" fill="#61b977" />
  <rect x="586" y="214" width="22" height="1.75" fill="#63ba78" />
  <rect x="586" y="215" width="22" height="1.75" fill="#65bb7a" />
  <rect x="586" y="216" width="22" height="1.75" fill="#66bc7b" />
  <rect x="586" y="217" width="22" height="1.75" fill="#68bc7c" />
  <rect x="586" y="218" width="22" height="1.75" fill="#6abd7e" />
  <rect x="586" y="219" width="22" height="1.75" fill="#6bbe7f" />
  <rect x="586" y="220" width="22" height="1.75" fill="#6dbf80" />
  <rect x="586" y="221" width="22" height="1.75" fill="#6fbf82" />
  <rect x="586" y="222" width="22" height="1.75" fill="#70c083" />
  <rect x="586" y="223" width="22" height="1.75" fill="#72c184" />
  <rect x="586" y="224" width="22" height="1.75" fill="#73c186" />
  <rect x="586" y="225" width="22" height="1.75" fill="#75c287" />
  <rect x="586" y="226" width="22" height="1.75" fill="#77c388" />
  <rect x="586" y="227" width="22" height="1.75" fill="#78c48a" />
  <rect x="586" y="228" width="22" height="1.75" fill="#7ac48b" />
  <rect x="586" y="229" width="22" height="1.75" fill="#7cc58c" />
  <rect x="586" y="230" width="22" height="1.75" fill="#7dc68e" />
  <rect x="586" y="231" width="22" height="1.75" fill="#7fc78f" />
  <rect x="586" y="232" width="22" height="1.75" fill="#81c790" />
  <rect x="586" y="233" width="22" height="1.75" fill="#82c892" />
  <rect x="586" y="234" width="22" height="1.75" fill="#84c993" />
  <rect x="586" y="235" width="22" height="1.75" fill="#86ca94" />
  <rect x="586" y="236" width="22" height="1.75" fill="#87ca96" />
  <rect x="586" y="237" width="22" height="1.75" fill="#89cb97" />
  <rect x="586" y="238" width="22" height="1.75" fill="#8bcc98" />
  <rect x="586" y="239" width="22" height="1.75" fill="#8ccd9a" />
  <rect x="586" y="240" width="22" height="1.75" fill="#8ecd9b" />
  <rect x="586" y="241" width="22" height="1.75" fill="#90ce9c" />
  <rect x="586" y="242" width="22" height="1.75" fill="#91cf9e" />
  <rect x="586" y="243" width="22" height="1.75" fill="#93cf9f" />
  <rect x="586" y="244" width="22" height="1.75" fill="#95d0a0" />
  <rect x="586" y="245" width="22" height="1.75" fill="#96d1a2" />
  <rect x="586" y="246" width="22" height="1.75" fill="#98d2a3" />
  <rect x="586" y="247" width="22" height="1.75" fill="#9ad2a4" />
  <rect x="586" y="248" width="22" height="1.75" fill="#9bd3a6" />
  <rect x="586" y="249" width="22" height="1.75" fill="#9dd4a7" />
  <rect x="586" y="250" width="22" height="1.75" fill="#9ed5a9" />
  <rect x="586" y="251" width="22" height="1.75" fill="#a0d5aa" />
  <rect x="586" y="252" width="22" height="1.75" fill="#a2d6ab" />
  <rect x="586" y="253" width="22" height="1.75" fill="#a3d7ad" />
  <rect x="586" y="254" width="22" height="1.75" fill="#a5d8ae" />
  <rect x="586" y="255" width="22" height="1.75" fill="#a7d8af" />
  <rect x="586" y="256" width="22" height="1.75" fill="#a8d9b1" />
  <rect x="586" y="257" width="22" height="1.75" fill="#aadab2" />
  <rect x="586" y="258" width="22" height="1.75" fill="#acdab3" />
  <rect x="586" y="259" width="22" height="1.75" fill="#addbb5" />
  <rect x="586" y="260" width="22" height="1.75" fill="#afdcb6" />
  <rect x="586" y="261" width="22" height="1.75" fill="#b1ddb7" />
  <rect x="586" y="262" width="22" height="1.75" fill="#b2ddb9" />
  <rect x="586" y="263" width="22" height="1.75" fill="#b4deba" />
  <rect x="586" y="264" width="22" height="1.75" fill="#b6dfbb" />
  <rect x="586" y="265" width="22" height="1.75" fill="#b7e0bd" />
  <rect x="586" y="266" width="22" height="1.75" fill="#b9e0be" />
  <rect x="586" y="267" width="22" height="1.75" fill="#bbe1bf" />
  <rect x="586" y="268" width="22" height="1.75" fill="#bce2c1" />
  <rect x="586" y="269" width="22" height="1.75" fill="#bee3c2" />
  <rect x="586" y="270" width="22" height="1.75" fill="#c0e3c3" />
  <rect x="586" y="271" width="22" height="1.75" fill="#c1e4c5" />
  <rect x="586" y="272" width="22" height="1.75" fill="#c3e5c6" />
  <rect x="586" y="273" width="22" height="1.75" fill="#c5e6c7" />
  <rect x="586" y="274" width="22" height="1.75" fill="#c6e6c9" />
  <rect x="586" y="275" width="22" height="1.75" fill="#c8e7ca" />
  <rect x="586" y="276" width="22" height="1.75" fill="#cae8cb" />
  <rect x="586" y="277" width="22" height="1.75" fill="#cbe8cd" />
  <rect x="586" y="278" width="22" height="1.75" fill="#cde9ce" />
  <rect x="586" y="279" width="22" height="1.75" fill="#ceeacf" />
  <rect x="586" y="280" width="22" height="1.75" fill="#d0ebd1" />
  <rect x="586" y="281" width="22" height="1.75" fill="#d2ebd2" />
  <rect x="586" y="282" width="22" height="1.75" fill="#d3ecd3" />
  <rect x="586" y="283" width="22" height="1.75" fill="#d5edd5" />
  <rect x="586" y="284" width="22" height="1.75" fill="#d7eed6" />
  <rect x="586" y="285" width="22" height="1.75" fill="#d8eed7" />
  <rect x="586" y="286" width="22" height="1.75" fill="#daefd9" />
  <rect x="586" y="287" width="22" height="1.75" fill="#dcf0da" />
  <rect x="586" y="288" width="22" height="1.75" fill="#ddf1db" />
  <rect x="586" y="289" width="22" height="1.75" fill="#dff1dd" />
  <rect x="586" y="290" width="22" height="1.75" fill="#e1f2de" />
  <rect x="586" y="291" width="22" height="1.75" fill="#e2f3df" />
  <rect x="586" y="292" width="22" height="1.75" fill="#e4f4e1" />
  <rect x="586" y="293" width="22" height="1.75" fill="#e6f4e2" />
  <rect x="586" y="294" width="22" height="1.75" fill="#e7f5e3" />
  <rect x="586" y="295" width="22" height="1.75" fill="#e9f6e5" />
  <rect x="586" y="296" width="22" height="1.75" fill="#ebf6e6" />
  <rect x="586" y="297" width="22" height="1.75" fill="#ecf7e7" />
  <rect x="586" y="298" width="22" height="1.75" fill="#eef8e9" />
  <rect x="586" y="299" width="22" height="1.75" fill="#f0f9ea" />
  <rect x="586" y="300" width="22" height="1.75" fill="#f1f9eb" />
  <rect x="586" y="301" width="22" height="1.75" fill="#f3faed" />
  <rect x="586" y="302" width="22" height="1.75" fill="#f5fbee" />
  <rect x="586" y="303" width="22" height="1" fill="#f6fcef" />
  <text x="616" y="308" text-anchor="start" font-family="system-ui, sans-serif" font-size="12" fill="#222222">12</text>
  <text x="616" y="253" text-anchor="start" font-family="system-ui, sans-serif" font-size="12" fill="#222222">21</text>
  <text x="616" y="198" text-anchor="start" font-family="system-ui, sans-serif" font-size="12" fill="#222222">30</text>
  <text x="616" y="143" text-anchor="start" font-family="system-ui, sans-serif" font-size="12" fill="#222222">39</text>
  <text x="616" y="88" text-anchor="start" font-family="system-ui, sans-serif" font-size="12" fill="#222222">48</text>
</g>
</svg>
