<svg xmlns="http://www.w3.org/2000/svg" width="760" height="430" viewBox="0 0 760 430" role="img" aria-label="Average conversion by traffic bin">
<title>Average conversion by traffic bin</title>
<rect class="algraf-background" x="0" y="0" width="760" height="430" fill="#ffffff" />
<text class="algraf-title" x="60" y="24" font-family="system-ui, sans-serif" font-size="18" font-weight="600" fill="#222222">Average conversion by traffic bin</text>
<rect class="algraf-plot-area" x="60" y="66" width="670" height="314" fill="#ffffff" />
<g class="algraf-grid">
  <line x1="159.251" y1="66" x2="159.251" y2="380" stroke="#f2f2f2" stroke-width="0.6" />
  <line x1="264.028" y1="66" x2="264.028" y2="380" stroke="#f2f2f2" stroke-width="0.6" />
  <line x1="368.806" y1="66" x2="368.806" y2="380" stroke="#f2f2f2" stroke-width="0.6" />
  <line x1="473.583" y1="66" x2="473.583" y2="380" stroke="#f2f2f2" stroke-width="0.6" />
  <line x1="578.361" y1="66" x2="578.361" y2="380" stroke="#f2f2f2" stroke-width="0.6" />
  <line x1="60" y1="348.6" x2="730" y2="348.6" stroke="#f2f2f2" stroke-width="0.6" />
  <line x1="60" y1="285.8" x2="730" y2="285.8" stroke="#f2f2f2" stroke-width="0.6" />
  <line x1="60" y1="223" x2="730" y2="223" stroke="#f2f2f2" stroke-width="0.6" />
  <line x1="60" y1="160.2" x2="730" y2="160.2" stroke="#f2f2f2" stroke-width="0.6" />
  <line x1="60" y1="97.4" x2="730" y2="97.4" stroke="#f2f2f2" stroke-width="0.6" />
  <line x1="106.862" y1="66" x2="106.862" y2="380" stroke="#e6e6e6" stroke-width="1" />
  <line x1="211.639" y1="66" x2="211.639" y2="380" stroke="#e6e6e6" stroke-width="1" />
  <line x1="316.417" y1="66" x2="316.417" y2="380" stroke="#e6e6e6" stroke-width="1" />
  <line x1="421.194" y1="66" x2="421.194" y2="380" stroke="#e6e6e6" stroke-width="1" />
  <line x1="525.972" y1="66" x2="525.972" y2="380" stroke="#e6e6e6" stroke-width="1" />
  <line x1="630.749" y1="66" x2="630.749" y2="380" stroke="#e6e6e6" stroke-width="1" />
  <line x1="60" y1="380" x2="730" y2="380" stroke="#e6e6e6" stroke-width="1" />
  <line x1="60" y1="317.2" x2="730" y2="317.2" stroke="#e6e6e6" stroke-width="1" />
  <line x1="60" y1="254.4" x2="730" y2="254.4" stroke="#e6e6e6" stroke-width="1" />
  <line x1="60" y1="191.6" x2="730" y2="191.6" stroke="#e6e6e6" stroke-width="1" />
  <line x1="60" y1="128.8" x2="730" y2="128.8" stroke="#e6e6e6" stroke-width="1" />
  <line x1="60" y1="66" x2="730" y2="66" stroke="#e6e6e6" stroke-width="1" />
</g>
<defs>
<clipPath id="algraf-clip-0"><rect x="60" y="66" width="670" height="314" /></clipPath>
</defs>
<g clip-path="url(#algraf-clip-0)">
  <g class="algraf-layer algraf-geom-line">
    <path d="M106.207 329.76 L188.719 310.92 L271.232 258.587 L353.744 216.72 L436.256 172.76 L518.768 141.36 L601.281 128.8 L683.793 97.4" fill="none" stroke="#111827" stroke-width="2" opacity="1" />
  </g>
  <g class="algraf-layer algraf-geom-point">
    <circle cx="106.207" cy="329.76" r="2.6" fill="#111827" opacity="1" />
    <circle cx="188.719" cy="310.92" r="2.6" fill="#111827" opacity="1" />
    <circle cx="271.232" cy="258.587" r="2.6" fill="#111827" opacity="1" />
    <circle cx="353.744" cy="216.72" r="2.6" fill="#111827" opacity="1" />
    <circle cx="436.256" cy="172.76" r="2.6" fill="#111827" opacity="1" />
    <circle cx="518.768" cy="141.36" r="2.6" fill="#111827" opacity="1" />
    <circle cx="601.281" cy="128.8" r="2.6" fill="#111827" opacity="1" />
    <circle cx="683.793" cy="97.4" r="2.6" fill="#111827" opacity="1" />
  </g>
</g>
<g class="algraf-axes">
  <line x1="60" y1="380" x2="730" y2="380" stroke="#333333" stroke-width="1" />
  <line x1="106.862" y1="380" x2="106.862" y2="385" stroke="#333333" stroke-width="1" />
  <text x="106.862" y="398" text-anchor="middle" font-family="system-ui, sans-serif" font-size="12" fill="#222222">20</text>
  <line x1="211.639" y1="380" x2="211.639" y2="385" stroke="#333333" stroke-width="1" />
  <text x="211.639" y="398" text-anchor="middle" font-family="system-ui, sans-serif" font-size="12" fill="#222222">40</text>
  <line x1="316.417" y1="380" x2="316.417" y2="385" stroke="#333333" stroke-width="1" />
  <text x="316.417" y="398" text-anchor="middle" font-family="system-ui, sans-serif" font-size="12" fill="#222222">60</text>
  <line x1="421.194" y1="380" x2="421.194" y2="385" stroke="#333333" stroke-width="1" />
  <text x="421.194" y="398" text-anchor="middle" font-family="system-ui, sans-serif" font-size="12" fill="#222222">80</text>
  <line x1="525.972" y1="380" x2="525.972" y2="385" stroke="#333333" stroke-width="1" />
  <text x="525.972" y="398" text-anchor="middle" font-family="system-ui, sans-serif" font-size="12" fill="#222222">100</text>
  <line x1="630.749" y1="380" x2="630.749" y2="385" stroke="#333333" stroke-width="1" />
  <text x="630.749" y="398" text-anchor="middle" font-family="system-ui, sans-serif" font-size="12" fill="#222222">120</text>
  <text x="395" y="418" text-anchor="middle" font-family="system-ui, sans-serif" font-size="12" fill="#222222">Traffic</text>
  <line x1="60" y1="66" x2="60" y2="380" stroke="#333333" stroke-width="1" />
  <line x1="55" y1="380" x2="60" y2="380" stroke="#333333" stroke-width="1" />
  <text x="52" y="384" text-anchor="end" font-family="system-ui, sans-serif" font-size="12" fill="#222222">0</text>
  <line x1="55" y1="317.2" x2="60" y2="317.2" stroke="#333333" stroke-width="1" />
  <text x="52" y="321.2" text-anchor="end" font-family="system-ui, sans-serif" font-size="12" fill="#222222">5%</text>
  <line x1="55" y1="254.4" x2="60" y2="254.4" stroke="#333333" stroke-width="1" />
  <text x="52" y="258.4" text-anchor="end" font-family="system-ui, sans-serif" font-size="12" fill="#222222">10%</text>
  <line x1="55" y1="191.6" x2="60" y2="191.6" stroke="#333333" stroke-width="1" />
  <text x="52" y="195.6" text-anchor="end" font-family="system-ui, sans-serif" font-size="12" fill="#222222">15%</text>
  <line x1="55" y1="128.8" x2="60" y2="128.8" stroke="#333333" stroke-width="1" />
  <text x="52" y="132.8" text-anchor="end" font-family="system-ui, sans-serif" font-size="12" fill="#222222">20%</text>
  <line x1="55" y1="66" x2="60" y2="66" stroke="#333333" stroke-width="1" />
  <text x="52" y="70" text-anchor="end" font-family="system-ui, sans-serif" font-size="12" fill="#222222">25%</text>
  <text x="18.4" y="223" text-anchor="middle" transform="rotate(-90 18.4 223)" font-family="system-ui, sans-serif" font-size="12" fill="#222222">Mean conversion rate</text>
</g>
</svg>
