<svg xmlns="http://www.w3.org/2000/svg" width="760" height="500" viewBox="0 0 760 500" role="img" aria-label="Mean signal by rectangular bin">
<title>Mean signal by rectangular bin</title>
<rect class="algraf-background" x="0" y="0" width="760" height="500" fill="#ffffff" />
<text class="algraf-title" x="60" y="24" font-family="system-ui, sans-serif" font-size="18" font-weight="600" fill="#222222">Mean signal by rectangular bin</text>
<rect class="algraf-plot-area" x="60" y="66" width="550" height="384" fill="#ffffff" />
<g class="algraf-grid">
  <line x1="173.492" y1="66" x2="173.492" y2="450" stroke="#f2f2f2" stroke-width="0.6" />
  <line x1="260.794" y1="66" x2="260.794" y2="450" stroke="#f2f2f2" stroke-width="0.6" />
  <line x1="348.095" y1="66" x2="348.095" y2="450" stroke="#f2f2f2" stroke-width="0.6" />
  <line x1="435.397" y1="66" x2="435.397" y2="450" stroke="#f2f2f2" stroke-width="0.6" />
  <line x1="522.698" y1="66" x2="522.698" y2="450" stroke="#f2f2f2" stroke-width="0.6" />
  <line x1="60" y1="406.966" x2="610" y2="406.966" stroke="#f2f2f2" stroke-width="0.6" />
  <line x1="60" y1="324.207" x2="610" y2="324.207" stroke="#f2f2f2" stroke-width="0.6" />
  <line x1="60" y1="241.448" x2="610" y2="241.448" stroke="#f2f2f2" stroke-width="0.6" />
  <line x1="60" y1="158.69" x2="610" y2="158.69" stroke="#f2f2f2" stroke-width="0.6" />
  <line x1="129.841" y1="66" x2="129.841" y2="450" stroke="#e6e6e6" stroke-width="1" />
  <line x1="217.143" y1="66" x2="217.143" y2="450" stroke="#e6e6e6" stroke-width="1" />
  <line x1="304.444" y1="66" x2="304.444" y2="450" stroke="#e6e6e6" stroke-width="1" />
  <line x1="391.746" y1="66" x2="391.746" y2="450" stroke="#e6e6e6" stroke-width="1" />
  <line x1="479.048" y1="66" x2="479.048" y2="450" stroke="#e6e6e6" stroke-width="1" />
  <line x1="566.349" y1="66" x2="566.349" y2="450" stroke="#e6e6e6" stroke-width="1" />
  <line x1="60" y1="448.345" x2="610" y2="448.345" stroke="#e6e6e6" stroke-width="1" />
  <line x1="60" y1="365.586" x2="610" y2="365.586" stroke="#e6e6e6" stroke-width="1" />
  <line x1="60" y1="282.828" x2="610" y2="282.828" stroke="#e6e6e6" stroke-width="1" />
  <line x1="60" y1="200.069" x2="610" y2="200.069" stroke="#e6e6e6" stroke-width="1" />
  <line x1="60" y1="117.31" x2="610" y2="117.31" stroke="#e6e6e6" stroke-width="1" />
</g>
<g class="algraf-layer algraf-geom-rect">
  <rect x="60" y="340.759" width="91.667" height="82.759" fill="#f7fbff" stroke="#ffffff" stroke-width="0.35" opacity="1" />
  <rect x="151.667" y="340.759" width="91.667" height="82.759" fill="#a4c6e2" stroke="#ffffff" stroke-width="0.35" opacity="1" />
  <rect x="151.667" y="258" width="91.667" height="82.759" fill="#5190c6" stroke="#ffffff" stroke-width="0.35" opacity="1" />
  <rect x="243.333" y="258" width="91.667" height="82.759" fill="#1f6bae" stroke="#ffffff" stroke-width="0.35" opacity="1" />
  <rect x="335" y="258" width="91.667" height="82.759" fill="#134d8c" stroke="#ffffff" stroke-width="0.35" opacity="1" />
  <rect x="151.667" y="175.241" width="91.667" height="82.759" fill="#7babd4" stroke="#ffffff" stroke-width="0.35" opacity="1" />
  <rect x="335" y="175.241" width="91.667" height="82.759" fill="#0c3a77" stroke="#ffffff" stroke-width="0.35" opacity="1" />
  <rect x="426.667" y="175.241" width="91.667" height="82.759" fill="#08306b" stroke="#ffffff" stroke-width="0.35" opacity="1" />
  <rect x="60" y="92.483" width="91.667" height="82.759" fill="#c0d7ec" stroke="#ffffff" stroke-width="0.35" opacity="1" />
  <rect x="151.667" y="92.483" width="91.667" height="82.759" fill="#4487c1" stroke="#ffffff" stroke-width="0.35" opacity="1" />
  <rect x="243.333" y="92.483" width="91.667" height="82.759" fill="#155291" stroke="#ffffff" stroke-width="0.35" opacity="1" />
  <rect x="335" y="92.483" width="91.667" height="82.759" fill="#0d3d79" stroke="#ffffff" stroke-width="0.35" opacity="1" />
  <rect x="426.667" y="92.483" width="91.667" height="82.759" fill="#0a3672" stroke="#ffffff" stroke-width="0.35" opacity="1" />
  <rect x="518.333" y="92.483" width="91.667" height="82.759" fill="#18599a" stroke="#ffffff" stroke-width="0.35" opacity="1" />
</g>
<g class="algraf-axes">
  <line x1="60" y1="450" x2="610" y2="450" stroke="#333333" stroke-width="1" />
  <line x1="129.841" y1="450" x2="129.841" y2="455" stroke="#333333" stroke-width="1" />
  <text x="129.841" y="468" text-anchor="middle" font-family="system-ui, sans-serif" font-size="12" fill="#222222">1</text>
  <line x1="217.143" y1="450" x2="217.143" y2="455" stroke="#333333" stroke-width="1" />
  <text x="217.143" y="468" text-anchor="middle" font-family="system-ui, sans-serif" font-size="12" fill="#222222">2</text>
  <line x1="304.444" y1="450" x2="304.444" y2="455" stroke="#333333" stroke-width="1" />
  <text x="304.444" y="468" text-anchor="middle" font-family="system-ui, sans-serif" font-size="12" fill="#222222">3</text>
  <line x1="391.746" y1="450" x2="391.746" y2="455" stroke="#333333" stroke-width="1" />
  <text x="391.746" y="468" text-anchor="middle" font-family="system-ui, sans-serif" font-size="12" fill="#222222">4</text>
  <line x1="479.048" y1="450" x2="479.048" y2="455" stroke="#333333" stroke-width="1" />
  <text x="479.048" y="468" text-anchor="middle" font-family="system-ui, sans-serif" font-size="12" fill="#222222">5</text>
  <line x1="566.349" y1="450" x2="566.349" y2="455" stroke="#333333" stroke-width="1" />
  <text x="566.349" y="468" text-anchor="middle" font-family="system-ui, sans-serif" font-size="12" fill="#222222">6</text>
  <text x="335" y="488" text-anchor="middle" font-family="system-ui, sans-serif" font-size="12" fill="#222222">Sensor x</text>
  <line x1="60" y1="66" x2="60" y2="450" stroke="#333333" stroke-width="1" />
  <line x1="55" y1="448.345" x2="60" y2="448.345" stroke="#333333" stroke-width="1" />
  <text x="52" y="452.345" text-anchor="end" font-family="system-ui, sans-serif" font-size="12" fill="#222222">0</text>
  <line x1="55" y1="365.586" x2="60" y2="365.586" stroke="#333333" stroke-width="1" />
  <text x="52" y="369.586" text-anchor="end" font-family="system-ui, sans-serif" font-size="12" fill="#222222">1</text>
  <line x1="55" y1="282.828" x2="60" y2="282.828" stroke="#333333" stroke-width="1" />
  <text x="52" y="286.828" text-anchor="end" font-family="system-ui, sans-serif" font-size="12" fill="#222222">2</text>
  <line x1="55" y1="200.069" x2="60" y2="200.069" stroke="#333333" stroke-width="1" />
  <text x="52" y="204.069" text-anchor="end" font-family="system-ui, sans-serif" font-size="12" fill="#222222">3</text>
  <line x1="55" y1="117.31" x2="60" y2="117.31" stroke="#333333" stroke-width="1" />
  <text x="52" y="121.31" text-anchor="end" font-family="system-ui, sans-serif" font-size="12" fill="#222222">4</text>
  <text x="32.8" y="258" text-anchor="middle" transform="rotate(-90 32.8 258)" font-family="system-ui, sans-serif" font-size="12" fill="#222222">Sensor y</text>
</g>
<g class="algraf-legends">
  <text x="626" y="70" text-anchor="start" font-family="system-ui, sans-serif" font-size="12" fill="#222222">value</text>
  <rect x="626" y="84" width="22" height="1.75" fill="#08306b" />
  <rect x="626" y="85" width="22" height="1.75" fill="#08316c" />
  <rect x="626" y="86" width="22" height="1.75" fill="#09316d" />
  <rect x="626" y="87" width="22" height="1.75" fill="#09326d" />
  <rect x="626" y="88" width="22" height="1.75" fill="#09336e" />
  <rect x="626" y="89" width="22" height="1.75" fill="#09336f" />
  <rect x="626" y="90" width="22" height="1.75" fill="#09346f" />
  <rect x="626" y="91" width="22" height="1.75" fill="#0a3470" />
  <rect x="626" y="92" width="22" height="1.75" fill="#0a3571" />
  <rect x="626" y="93" width="22" height="1.75" fill="#0a3671" />
  <rect x="626" y="94" width="22" height="1.75" fill="#0a3672" />
  <rect x="626" y="95" width="22" height="1.75" fill="#0b3773" />
  <rect x="626" y="96" width="22" height="1.75" fill="#0b3773" />
  <rect x="626" y="97" width="22" height="1.75" fill="#0b3874" />
  <rect x="626" y="98" width="22" height="1.75" fill="#0b3975" />
  <rect x="626" y="99" width="22" height="1.75" fill="#0c3975" />
  <rect x="626" y="100" width="22" height="1.75" fill="#0c3a76" />
  <rect x="626" y="101" width="22" height="1.75" fill="#0c3a77" />
  <rect x="626" y="102" width="22" height="1.75" fill="#0c3b77" />
  <rect x="626" y="103" width="22" height="1.75" fill="#0c3c78" />
  <rect x="626" y="104" width="22" height="1.75" fill="#0d3c79" />
  <rect x="626" y="105" width="22" height="1.75" fill="#0d3d79" />
  <rect x="626" y="106" width="22" height="1.75" fill="#0d3d7a" />
  <rect x="626" y="107" width="22" height="1.75" fill="#0d3e7b" />
  <rect x="626" y="108" width="22" height="1.75" fill="#0e3e7b" />
  <rect x="626" y="109" width="22" height="1.75" fill="#0e3f7c" />
  <rect x="626" y="110" width="22" height="1.75" fill="#0e407d" />
  <rect x="626" y="111" width="22" height="1.75" fill="#0e407e" />
  <rect x="626" y="112" width="22" height="1.75" fill="#0e417e" />
  <rect x="626" y="113" width="22" height="1.75" fill="#0f417f" />
  <rect x="626" y="114" width="22" height="1.75" fill="#0f4280" />
  <rect x="626" y="115" width="22" height="1.75" fill="#0f4380" />
  <rect x="626" y="116" width="22" height="1.75" fill="#0f4381" />
  <rect x="626" y="117" width="22" height="1.75" fill="#104482" />
  <rect x="626" y="118" width="22" height="1.75" fill="#104482" />
  <rect x="626" y="119" width="22" height="1.75" fill="#104583" />
  <rect x="626" y="120" width="22" height="1.75" fill="#104684" />
  <rect x="626" y="121" width="22" height="1.75" fill="#114684" />
  <rect x="626" y="122" width="22" height="1.75" fill="#114785" />
  <rect x="626" y="123" width="22" height="1.75" fill="#114786" />
  <rect x="626" y="124" width="22" height="1.75" fill="#114886" />
  <rect x="626" y="125" width="22" height="1.75" fill="#114987" />
  <rect x="626" y="126" width="22" height="1.75" fill="#124988" />
  <rect x="626" y="127" width="22" height="1.75" fill="#124a88" />
  <rect x="626" y="128" width="22" height="1.75" fill="#124a89" />
  <rect x="626" y="129" width="22" height="1.75" fill="#124b8a" />
  <rect x="626" y="130" width="22" height="1.75" fill="#134b8a" />
  <rect x="626" y="131" width="22" height="1.75" fill="#134c8b" />
  <rect x="626" y="132" width="22" height="1.75" fill="#134d8c" />
  <rect x="626" y="133" width="22" height="1.75" fill="#134d8c" />
  <rect x="626" y="134" width="22" height="1.75" fill="#134e8d" />
  <rect x="626" y="135" width="22" height="1.75" fill="#144e8e" />
  <rect x="626" y="136" width="22" height="1.75" fill="#144f8e" />
  <rect x="626" y="137" width="22" height="1.75" fill="#14508f" />
  <rect x="626" y="138" width="22" height="1.75" fill="#145090" />
  <rect x="626" y="139" width="22" height="1.75" fill="#155190" />
  <rect x="626" y="140" width="22" height="1.75" fill="#155191" />
  <rect x="626" y="141" width="22" height="1.75" fill="#155292" />
  <rect x="626" y="142" width="22" height="1.75" fill="#155392" />
  <rect x="626" y="143" width="22" height="1.75" fill="#165393" />
  <rect x="626" y="144" width="22" height="1.75" fill="#165494" />
  <rect x="626" y="145" width="22" height="1.75" fill="#165494" />
  <rect x="626" y="146" width="22" height="1.75" fill="#165595" />
  <rect x="626" y="147" width="22" height="1.75" fill="#165696" />
  <rect x="626" y="148" width="22" height="1.75" fill="#175696" />
  <rect x="626" y="149" width="22" height="1.75" fill="#175797" />
  <rect x="626" y="150" width="22" height="1.75" fill="#175798" />
  <rect x="626" y="151" width="22" height="1.75" fill="#175898" />
  <rect x="626" y="152" width="22" height="1.75" fill="#185899" />
  <rect x="626" y="153" width="22" height="1.75" fill="#18599a" />
  <rect x="626" y="154" width="22" height="1.75" fill="#185a9a" />
  <rect x="626" y="155" width="22" height="1.75" fill="#185a9b" />
  <rect x="626" y="156" width="22" height="1.75" fill="#185b9c" />
  <rect x="626" y="157" width="22" height="1.75" fill="#195b9c" />
  <rect x="626" y="158" width="22" height="1.75" fill="#195c9d" />
  <rect x="626" y="159" width="22" height="1.75" fill="#195d9e" />
  <rect x="626" y="160" width="22" height="1.75" fill="#195d9e" />
  <rect x="626" y="161" width="22" height="1.75" fill="#1a5e9f" />
  <rect x="626" y="162" width="22" height="1.75" fill="#1a5ea0" />
  <rect x="626" y="163" width="22" height="1.75" fill="#1a5fa0" />
  <rect x="626" y="164" width="22" height="1.75" fill="#1a60a1" />
  <rect x="626" y="165" width="22" height="1.75" fill="#1b60a2" />
  <rect x="626" y="166" width="22" height="1.75" fill="#1b61a3" />
  <rect x="626" y="167" width="22" height="1.75" fill="#1b61a3" />
  <rect x="626" y="168" width="22" height="1.75" fill="#1b62a4" />
  <rect x="626" y="169" width="22" height="1.75" fill="#1b63a5" />
  <rect x="626" y="170" width="22" height="1.75" fill="#1c63a5" />
  <rect x="626" y="171" width="22" height="1.75" fill="#1c64a6" />
  <rect x="626" y="172" width="22" height="1.75" fill="#1c64a7" />
  <rect x="626" y="173" width="22" height="1.75" fill="#1c65a7" />
  <rect x="626" y="174" width="22" height="1.75" fill="#1d65a8" />
  <rect x="626" y="175" width="22" height="1.75" fill="#1d66a9" />
  <rect x="626" y="176" width="22" height="1.75" fill="#1d67a9" />
  <rect x="626" y="177" width="22" height="1.75" fill="#1d67aa" />
  <rect x="626" y="178" width="22" height="1.75" fill="#1d68ab" />
  <rect x="626" y="179" width="22" height="1.75" fill="#1e68ab" />
  <rect x="626" y="180" width="22" height="1.75" fill="#1e69ac" />
  <rect x="626" y="181" width="22" height="1.75" fill="#1e6aad" />
  <rect x="626" y="182" width="22" height="1.75" fill="#1e6aad" />
  <rect x="626" y="183" width="22" height="1.75" fill="#1f6bae" />
  <rect x="626" y="184" width="22" height="1.75" fill="#1f6baf" />
  <rect x="626" y="185" width="22" height="1.75" fill="#1f6caf" />
  <rect x="626" y="186" width="22" height="1.75" fill="#1f6db0" />
  <rect x="626" y="187" width="22" height="1.75" fill="#206db1" />
  <rect x="626" y="188" width="22" height="1.75" fill="#206eb1" />
  <rect x="626" y="189" width="22" height="1.75" fill="#206eb2" />
  <rect x="626" y="190" width="22" height="1.75" fill="#206fb3" />
  <rect x="626" y="191" width="22" height="1.75" fill="#2070b3" />
  <rect x="626" y="192" width="22" height="1.75" fill="#2170b4" />
  <rect x="626" y="193" width="22" height="1.75" fill="#2171b5" />
  <rect x="626" y="194" width="22" height="1.75" fill="#2272b5" />
  <rect x="626" y="195" width="22" height="1.75" fill="#2473b6" />
  <rect x="626" y="196" width="22" height="1.75" fill="#2674b7" />
  <rect x="626" y="197" width="22" height="1.75" fill="#2875b7" />
  <rect x="626" y="198" width="22" height="1.75" fill="#2a77b8" />
  <rect x="626" y="199" width="22" height="1.75" fill="#2c78b9" />
  <rect x="626" y="200" width="22" height="1.75" fill="#2e79b9" />
  <rect x="626" y="201" width="22" height="1.75" fill="#307aba" />
  <rect x="626" y="202" width="22" height="1.75" fill="#327cbb" />
  <rect x="626" y="203" width="22" height="1.75" fill="#337dbb" />
  <rect x="626" y="204" width="22" height="1.75" fill="#357ebc" />
  <rect x="626" y="205" width="22" height="1.75" fill="#377fbd" />
  <rect x="626" y="206" width="22" height="1.75" fill="#3981bd" />
  <rect x="626" y="207" width="22" height="1.75" fill="#3b82be" />
  <rect x="626" y="208" width="22" height="1.75" fill="#3d83bf" />
  <rect x="626" y="209" width="22" height="1.75" fill="#3f84bf" />
  <rect x="626" y="210" width="22" height="1.75" fill="#4186c0" />
  <rect x="626" y="211" width="22" height="1.75" fill="#4387c1" />
  <rect x="626" y="212" width="22" height="1.75" fill="#4588c1" />
  <rect x="626" y="213" width="22" height="1.75" fill="#4789c2" />
  <rect x="626" y="214" width="22" height="1.75" fill="#498bc3" />
  <rect x="626" y="215" width="22" height="1.75" fill="#4b8cc3" />
  <rect x="626" y="216" width="22" height="1.75" fill="#4d8dc4" />
  <rect x="626" y="217" width="22" height="1.75" fill="#4f8ec5" />
  <rect x="626" y="218" width="22" height="1.75" fill="#5190c5" />
  <rect x="626" y="219" width="22" height="1.75" fill="#5391c6" />
  <rect x="626" y="220" width="22" height="1.75" fill="#5592c7" />
  <rect x="626" y="221" width="22" height="1.75" fill="#5794c8" />
  <rect x="626" y="222" width="22" height="1.75" fill="#5895c8" />
  <rect x="626" y="223" width="22" height="1.75" fill="#5a96c9" />
  <rect x="626" y="224" width="22" height="1.75" fill="#5c97ca" />
  <rect x="626" y="225" width="22" height="1.75" fill="#5e99ca" />
  <rect x="626" y="226" width="22" height="1.75" fill="#609acb" />
  <rect x="626" y="227" width="22" height="1.75" fill="#629bcc" />
  <rect x="626" y="228" width="22" height="1.75" fill="#649ccc" />
  <rect x="626" y="229" width="22" height="1.75" fill="#669ecd" />
  <rect x="626" y="230" width="22" height="1.75" fill="#689fce" />
  <rect x="626" y="231" width="22" height="1.75" fill="#6aa0ce" />
  <rect x="626" y="232" width="22" height="1.75" fill="#6ca1cf" />
  <rect x="626" y="233" width="22" height="1.75" fill="#6ea3d0" />
  <rect x="626" y="234" width="22" height="1.75" fill="#70a4d0" />
  <rect x="626" y="235" width="22" height="1.75" fill="#72a5d1" />
  <rect x="626" y="236" width="22" height="1.75" fill="#74a6d2" />
  <rect x="626" y="237" width="22" height="1.75" fill="#76a8d2" />
  <rect x="626" y="238" width="22" height="1.75" fill="#78a9d3" />
  <rect x="626" y="239" width="22" height="1.75" fill="#7aaad4" />
  <rect x="626" y="240" width="22" height="1.75" fill="#7babd4" />
  <rect x="626" y="241" width="22" height="1.75" fill="#7dadd5" />
  <rect x="626" y="242" width="22" height="1.75" fill="#7faed6" />
  <rect x="626" y="243" width="22" height="1.75" fill="#81afd6" />
  <rect x="626" y="244" width="22" height="1.75" fill="#83b0d7" />
  <rect x="626" y="245" width="22" height="1.75" fill="#85b2d8" />
  <rect x="626" y="246" width="22" height="1.75" fill="#87b3d8" />
  <rect x="626" y="247" width="22" height="1.75" fill="#89b4d9" />
  <rect x="626" y="248" width="22" height="1.75" fill="#8bb5da" />
  <rect x="626" y="249" width="22" height="1.75" fill="#8db7da" />
  <rect x="626" y="250" width="22" height="1.75" fill="#8fb8db" />
  <rect x="626" y="251" width="22" height="1.75" fill="#91b9dc" />
  <rect x="626" y="252" width="22" height="1.75" fill="#93badc" />
  <rect x="626" y="253" width="22" height="1.75" fill="#95bcdd" />
  <rect x="626" y="254" width="22" height="1.75" fill="#97bdde" />
  <rect x="626" y="255" width="22" height="1.75" fill="#99bede" />
  <rect x="626" y="256" width="22" height="1.75" fill="#9bbfdf" />
  <rect x="626" y="257" width="22" height="1.75" fill="#9dc1e0" />
  <rect x="626" y="258" width="22" height="1.75" fill="#9ec2e0" />
  <rect x="626" y="259" width="22" height="1.75" fill="#a0c3e1" />
  <rect x="626" y="260" width="22" height="1.75" fill="#a2c4e2" />
  <rect x="626" y="261" width="22" height="1.75" fill="#a4c6e2" />
  <rect x="626" y="262" width="22" height="1.75" fill="#a6c7e3" />
  <rect x="626" y="263" width="22" height="1.75" fill="#a8c8e4" />
  <rect x="626" y="264" width="22" height="1.75" fill="#aac9e4" />
  <rect x="626" y="265" width="22" height="1.75" fill="#accbe5" />
  <rect x="626" y="266" width="22" height="1.75" fill="#aecce6" />
  <rect x="626" y="267" width="22" height="1.75" fill="#b0cde6" />
  <rect x="626" y="268" width="22" height="1.75" fill="#b2cee7" />
  <rect x="626" y="269" width="22" height="1.75" fill="#b4d0e8" />
  <rect x="626" y="270" width="22" height="1.75" fill="#b6d1e8" />
  <rect x="626" y="271" width="22" height="1.75" fill="#b8d2e9" />
  <rect x="626" y="272" width="22" height="1.75" fill="#bad3ea" />
  <rect x="626" y="273" width="22" height="1.75" fill="#bcd5ea" />
  <rect x="626" y="274" width="22" height="1.75" fill="#bed6eb" />
  <rect x="626" y="275" width="22" height="1.75" fill="#c0d7ec" />
  <rect x="626" y="276" width="22" height="1.75" fill="#c2d9ed" />
  <rect x="626" y="277" width="22" height="1.75" fill="#c3daed" />
  <rect x="626" y="278" width="22" height="1.75" fill="#c5dbee" />
  <rect x="626" y="279" width="22" height="1.75" fill="#c7dcef" />
  <rect x="626" y="280" width="22" height="1.75" fill="#c9deef" />
  <rect x="626" y="281" width="22" height="1.75" fill="#cbdff0" />
  <rect x="626" y="282" width="22" height="1.75" fill="#cde0f1" />
  <rect x="626" y="283" width="22" height="1.75" fill="#cfe1f1" />
  <rect x="626" y="284" width="22" height="1.75" fill="#d1e3f2" />
  <rect x="626" y="285" width="22" height="1.75" fill="#d3e4f3" />
  <rect x="626" y="286" width="22" height="1.75" fill="#d5e5f3" />
  <rect x="626" y="287" width="22" height="1.75" fill="#d7e6f4" />
  <rect x="626" y="288" width="22" height="1.75" fill="#d9e8f5" />
  <rect x="626" y="289" width="22" height="1.75" fill="#dbe9f5" />
  <rect x="626" y="290" width="22" height="1.75" fill="#ddeaf6" />
  <rect x="626" y="291" width="22" height="1.75" fill="#dfebf7" />
  <rect x="626" y="292" width="22" height="1.75" fill="#e1edf7" />
  <rect x="626" y="293" width="22" height="1.75" fill="#e3eef8" />
  <rect x="626" y="294" width="22" height="1.75" fill="#e5eff9" />
  <rect x="626" y="295" width="22" height="1.75" fill="#e6f0f9" />
  <rect x="626" y="296" width="22" height="1.75" fill="#e8f2fa" />
  <rect x="626" y="297" width="22" height="1.75" fill="#eaf3fb" />
  <rect x="626" y="298" width="22" height="1.75" fill="#ecf4fb" />
  <rect x="626" y="299" width="22" height="1.75" fill="#eef5fc" />
  <rect x="626" y="300" width="22" height="1.75" fill="#f0f7fd" />
  <rect x="626" y="301" width="22" height="1.75" fill="#f2f8fd" />
  <rect x="626" y="302" width="22" height="1.75" fill="#f4f9fe" />
  <rect x="626" y="303" width="22" height="1" fill="#f6faff" />
  <text x="656" y="308" text-anchor="start" font-family="system-ui, sans-serif" font-size="12" fill="#222222">15</text>
  <text x="656" y="253" text-anchor="start" font-family="system-ui, sans-serif" font-size="12" fill="#222222">22.75</text>
  <text x="656" y="198" text-anchor="start" font-family="system-ui, sans-serif" font-size="12" fill="#222222">30.5</text>
  <text x="656" y="143" text-anchor="start" font-family="system-ui, sans-serif" font-size="12" fill="#222222">38.25</text>
  <text x="656" y="88" text-anchor="start" font-family="system-ui, sans-serif" font-size="12" fill="#222222">46</text>
</g>
</svg>
