<svg xmlns="http://www.w3.org/2000/svg" width="720" height="420" viewBox="0 0 720 420" role="img" aria-label="Tapered flow ribbon">
<title>Tapered flow ribbon</title>
<rect class="algraf-background" x="0" y="0" width="720" height="420" fill="#ffffff" />
<text class="algraf-title" x="60" y="24" font-family="system-ui, sans-serif" font-size="18" font-weight="600" fill="#222222">Tapered flow ribbon</text>
<rect class="algraf-plot-area" x="60" y="66" width="510" height="304" fill="#ffffff" />
<g class="algraf-grid">
  <line x1="126.576" y1="66" x2="126.576" y2="370" stroke="#f2f2f2" stroke-width="0.6" />
  <line x1="189.384" y1="66" x2="189.384" y2="370" stroke="#f2f2f2" stroke-width="0.6" />
  <line x1="252.192" y1="66" x2="252.192" y2="370" stroke="#f2f2f2" stroke-width="0.6" />
  <line x1="315" y1="66" x2="315" y2="370" stroke="#f2f2f2" stroke-width="0.6" />
  <line x1="377.808" y1="66" x2="377.808" y2="370" stroke="#f2f2f2" stroke-width="0.6" />
  <line x1="440.616" y1="66" x2="440.616" y2="370" stroke="#f2f2f2" stroke-width="0.6" />
  <line x1="503.424" y1="66" x2="503.424" y2="370" stroke="#f2f2f2" stroke-width="0.6" />
  <line x1="60" y1="329.765" x2="570" y2="329.765" stroke="#f2f2f2" stroke-width="0.6" />
  <line x1="60" y1="291.225" x2="570" y2="291.225" stroke="#f2f2f2" stroke-width="0.6" />
  <line x1="60" y1="252.686" x2="570" y2="252.686" stroke="#f2f2f2" stroke-width="0.6" />
  <line x1="60" y1="214.146" x2="570" y2="214.146" stroke="#f2f2f2" stroke-width="0.6" />
  <line x1="60" y1="175.606" x2="570" y2="175.606" stroke="#f2f2f2" stroke-width="0.6" />
  <line x1="60" y1="137.067" x2="570" y2="137.067" stroke="#f2f2f2" stroke-width="0.6" />
  <line x1="60" y1="98.527" x2="570" y2="98.527" stroke="#f2f2f2" stroke-width="0.6" />
  <line x1="95.172" y1="66" x2="95.172" y2="370" stroke="#e6e6e6" stroke-width="1" />
  <line x1="157.98" y1="66" x2="157.98" y2="370" stroke="#e6e6e6" stroke-width="1" />
  <line x1="220.788" y1="66" x2="220.788" y2="370" stroke="#e6e6e6" stroke-width="1" />
  <line x1="283.596" y1="66" x2="283.596" y2="370" stroke="#e6e6e6" stroke-width="1" />
  <line x1="346.404" y1="66" x2="346.404" y2="370" stroke="#e6e6e6" stroke-width="1" />
  <line x1="409.212" y1="66" x2="409.212" y2="370" stroke="#e6e6e6" stroke-width="1" />
  <line x1="472.02" y1="66" x2="472.02" y2="370" stroke="#e6e6e6" stroke-width="1" />
  <line x1="534.828" y1="66" x2="534.828" y2="370" stroke="#e6e6e6" stroke-width="1" />
  <line x1="60" y1="349.034" x2="570" y2="349.034" stroke="#e6e6e6" stroke-width="1" />
  <line x1="60" y1="310.495" x2="570" y2="310.495" stroke="#e6e6e6" stroke-width="1" />
  <line x1="60" y1="271.955" x2="570" y2="271.955" stroke="#e6e6e6" stroke-width="1" />
  <line x1="60" y1="233.416" x2="570" y2="233.416" stroke="#e6e6e6" stroke-width="1" />
  <line x1="60" y1="194.876" x2="570" y2="194.876" stroke="#e6e6e6" stroke-width="1" />
  <line x1="60" y1="156.337" x2="570" y2="156.337" stroke="#e6e6e6" stroke-width="1" />
  <line x1="60" y1="117.797" x2="570" y2="117.797" stroke="#e6e6e6" stroke-width="1" />
  <line x1="60" y1="79.258" x2="570" y2="79.258" stroke="#e6e6e6" stroke-width="1" />
</g>
<g class="algraf-layer algraf-geom-path">
  <path d="M103.473 360.308 L166.007 312.872 L223.496 260.164 L285.631 271.666 L349.626 206.092 L410.784 150.785 L472.511 111.102 L534.973 87.36 L534.682 86.571 L471.529 109.077 L407.64 146.473 L343.182 199.077 L281.561 256.828 L218.081 237.5 L149.954 292.702 L86.871 337.761 Z" fill="#8b5a2b" stroke="none" opacity="1" />
</g>
<g class="algraf-axes">
  <line x1="60" y1="370" x2="570" y2="370" stroke="#333333" stroke-width="1" />
  <line x1="95.172" y1="370" x2="95.172" y2="375" stroke="#333333" stroke-width="1" />
  <text x="95.172" y="388" text-anchor="middle" font-family="system-ui, sans-serif" font-size="12" fill="#222222">0</text>
  <line x1="157.98" y1="370" x2="157.98" y2="375" stroke="#333333" stroke-width="1" />
  <text x="157.98" y="388" text-anchor="middle" font-family="system-ui, sans-serif" font-size="12" fill="#222222">1</text>
  <line x1="220.788" y1="370" x2="220.788" y2="375" stroke="#333333" stroke-width="1" />
  <text x="220.788" y="388" text-anchor="middle" font-family="system-ui, sans-serif" font-size="12" fill="#222222">2</text>
  <line x1="283.596" y1="370" x2="283.596" y2="375" stroke="#333333" stroke-width="1" />
  <text x="283.596" y="388" text-anchor="middle" font-family="system-ui, sans-serif" font-size="12" fill="#222222">3</text>
  <line x1="346.404" y1="370" x2="346.404" y2="375" stroke="#333333" stroke-width="1" />
  <text x="346.404" y="388" text-anchor="middle" font-family="system-ui, sans-serif" font-size="12" fill="#222222">4</text>
  <line x1="409.212" y1="370" x2="409.212" y2="375" stroke="#333333" stroke-width="1" />
  <text x="409.212" y="388" text-anchor="middle" font-family="system-ui, sans-serif" font-size="12" fill="#222222">5</text>
  <line x1="472.02" y1="370" x2="472.02" y2="375" stroke="#333333" stroke-width="1" />
  <text x="472.02" y="388" text-anchor="middle" font-family="system-ui, sans-serif" font-size="12" fill="#222222">6</text>
  <line x1="534.828" y1="370" x2="534.828" y2="375" stroke="#333333" stroke-width="1" />
  <text x="534.828" y="388" text-anchor="middle" font-family="system-ui, sans-serif" font-size="12" fill="#222222">7</text>
  <text x="315" y="408" text-anchor="middle" font-family="system-ui, sans-serif" font-size="12" fill="#222222">Distance</text>
  <line x1="60" y1="66" x2="60" y2="370" stroke="#333333" stroke-width="1" />
  <line x1="55" y1="349.034" x2="60" y2="349.034" stroke="#333333" stroke-width="1" />
  <text x="52" y="353.034" text-anchor="end" font-family="system-ui, sans-serif" font-size="12" fill="#222222">0</text>
  <line x1="55" y1="310.495" x2="60" y2="310.495" stroke="#333333" stroke-width="1" />
  <text x="52" y="314.495" text-anchor="end" font-family="system-ui, sans-serif" font-size="12" fill="#222222">0.5</text>
  <line x1="55" y1="271.955" x2="60" y2="271.955" stroke="#333333" stroke-width="1" />
  <text x="52" y="275.955" text-anchor="end" font-family="system-ui, sans-serif" font-size="12" fill="#222222">1</text>
  <line x1="55" y1="233.416" x2="60" y2="233.416" stroke="#333333" stroke-width="1" />
  <text x="52" y="237.416" text-anchor="end" font-family="system-ui, sans-serif" font-size="12" fill="#222222">1.5</text>
  <line x1="55" y1="194.876" x2="60" y2="194.876" stroke="#333333" stroke-width="1" />
  <text x="52" y="198.876" text-anchor="end" font-family="system-ui, sans-serif" font-size="12" fill="#222222">2</text>
  <line x1="55" y1="156.337" x2="60" y2="156.337" stroke="#333333" stroke-width="1" />
  <text x="52" y="160.337" text-anchor="end" font-family="system-ui, sans-serif" font-size="12" fill="#222222">2.5</text>
  <line x1="55" y1="117.797" x2="60" y2="117.797" stroke="#333333" stroke-width="1" />
  <text x="52" y="121.797" text-anchor="end" font-family="system-ui, sans-serif" font-size="12" fill="#222222">3</text>
  <line x1="55" y1="79.258" x2="60" y2="79.258" stroke="#333333" stroke-width="1" />
  <text x="52" y="83.258" text-anchor="end" font-family="system-ui, sans-serif" font-size="12" fill="#222222">3.5</text>
  <text x="18.4" y="218" text-anchor="middle" transform="rotate(-90 18.4 218)" font-family="system-ui, sans-serif" font-size="12" fill="#222222">Elevation</text>
</g>
<g class="algraf-legends">
  <text x="586" y="70" text-anchor="start" font-family="system-ui, sans-serif" font-size="12" fill="#222222">Volume</text>
  <text x="636" y="89" text-anchor="start" font-family="system-ui, sans-serif" font-size="12" fill="#222222">0</text>
  <line x1="586" y1="103" x2="614" y2="103" stroke="#222222" stroke-width="7" stroke-linecap="round" />
  <text x="636" y="107" text-anchor="start" font-family="system-ui, sans-serif" font-size="12" fill="#222222">25</text>
  <line x1="586" y1="122" x2="614" y2="122" stroke="#222222" stroke-width="14" stroke-linecap="round" />
  <text x="636" y="126" text-anchor="start" font-family="system-ui, sans-serif" font-size="12" fill="#222222">50</text>
  <line x1="586" y1="145.5" x2="614" y2="145.5" stroke="#222222" stroke-width="21" stroke-linecap="round" />
  <text x="636" y="149.5" text-anchor="start" font-family="system-ui, sans-serif" font-size="12" fill="#222222">75</text>
  <line x1="586" y1="176" x2="614" y2="176" stroke="#222222" stroke-width="28" stroke-linecap="round" />
  <text x="636" y="180" text-anchor="start" font-family="system-ui, sans-serif" font-size="12" fill="#222222">100</text>
</g>
</svg>
