<svg xmlns="http://www.w3.org/2000/svg" width="760" height="460" viewBox="0 0 760 460" role="img" aria-label="Signups over the launch quarter">
<title>Signups over the launch quarter</title>
<rect class="algraf-background" x="0" y="0" width="760" height="460" fill="#ffffff" />
<text class="algraf-title" x="60" y="24" font-family="system-ui, sans-serif" font-size="18" font-weight="600" fill="#222222">Signups over the launch quarter</text>
<rect class="algraf-plot-area" x="60" y="66" width="670" height="344" fill="#ffffff" />
<g class="algraf-grid">
  <line x1="85.769" y1="66" x2="85.769" y2="410" stroke="#e6e6e6" stroke-width="1" />
  <line x1="188.846" y1="66" x2="188.846" y2="410" stroke="#e6e6e6" stroke-width="1" />
  <line x1="291.923" y1="66" x2="291.923" y2="410" stroke="#e6e6e6" stroke-width="1" />
  <line x1="395" y1="66" x2="395" y2="410" stroke="#e6e6e6" stroke-width="1" />
  <line x1="498.077" y1="66" x2="498.077" y2="410" stroke="#e6e6e6" stroke-width="1" />
  <line x1="601.154" y1="66" x2="601.154" y2="410" stroke="#e6e6e6" stroke-width="1" />
  <line x1="704.231" y1="66" x2="704.231" y2="410" stroke="#e6e6e6" stroke-width="1" />
  <line x1="60" y1="410" x2="730" y2="410" stroke="#e6e6e6" stroke-width="1" />
  <line x1="60" y1="330.37" x2="730" y2="330.37" stroke="#e6e6e6" stroke-width="1" />
  <line x1="60" y1="250.741" x2="730" y2="250.741" stroke="#e6e6e6" stroke-width="1" />
  <line x1="60" y1="171.111" x2="730" y2="171.111" stroke="#e6e6e6" stroke-width="1" />
  <line x1="60" y1="91.481" x2="730" y2="91.481" stroke="#e6e6e6" stroke-width="1" />
</g>
<g class="algraf-layer algraf-geom-rect">
  <rect x="60" y="402.037" width="51.538" height="7.963" fill="steelblue" stroke="#ffffff" stroke-width="1" opacity="0.86" />
  <rect x="111.538" y="354.259" width="51.538" height="55.741" fill="steelblue" stroke="#ffffff" stroke-width="1" opacity="0.86" />
  <rect x="163.077" y="242.778" width="51.538" height="167.222" fill="steelblue" stroke="#ffffff" stroke-width="1" opacity="0.86" />
  <rect x="214.615" y="91.481" width="51.538" height="318.519" fill="steelblue" stroke="#ffffff" stroke-width="1" opacity="0.86" />
  <rect x="266.154" y="274.63" width="51.538" height="135.37" fill="steelblue" stroke="#ffffff" stroke-width="1" opacity="0.86" />
  <rect x="317.692" y="370.185" width="51.538" height="39.815" fill="steelblue" stroke="#ffffff" stroke-width="1" opacity="0.86" />
  <rect x="369.231" y="346.296" width="51.538" height="63.704" fill="steelblue" stroke="#ffffff" stroke-width="1" opacity="0.86" />
  <rect x="420.769" y="306.481" width="51.538" height="103.519" fill="steelblue" stroke="#ffffff" stroke-width="1" opacity="0.86" />
  <rect x="472.308" y="195" width="51.538" height="215" fill="steelblue" stroke="#ffffff" stroke-width="1" opacity="0.86" />
  <rect x="523.846" y="107.407" width="51.538" height="302.593" fill="steelblue" stroke="#ffffff" stroke-width="1" opacity="0.86" />
  <rect x="575.385" y="234.815" width="51.538" height="175.185" fill="steelblue" stroke="#ffffff" stroke-width="1" opacity="0.86" />
  <rect x="626.923" y="298.519" width="51.538" height="111.481" fill="steelblue" stroke="#ffffff" stroke-width="1" opacity="0.86" />
  <rect x="678.462" y="354.259" width="51.538" height="55.741" fill="steelblue" stroke="#ffffff" stroke-width="1" opacity="0.86" />
</g>
<g class="algraf-axes">
  <line x1="60" y1="410" x2="730" y2="410" stroke="#333333" stroke-width="1" />
  <line x1="85.769" y1="410" x2="85.769" y2="415" stroke="#333333" stroke-width="1" />
  <text x="85.769" y="428" text-anchor="middle" font-family="system-ui, sans-serif" font-size="12" fill="#222222">2026-01-01</text>
  <line x1="188.846" y1="410" x2="188.846" y2="415" stroke="#333333" stroke-width="1" />
  <text x="188.846" y="428" text-anchor="middle" font-family="system-ui, sans-serif" font-size="12" fill="#222222">2026-01-15</text>
  <line x1="291.923" y1="410" x2="291.923" y2="415" stroke="#333333" stroke-width="1" />
  <text x="291.923" y="428" text-anchor="middle" font-family="system-ui, sans-serif" font-size="12" fill="#222222">2026-01-29</text>
  <line x1="395" y1="410" x2="395" y2="415" stroke="#333333" stroke-width="1" />
  <text x="395" y="428" text-anchor="middle" font-family="system-ui, sans-serif" font-size="12" fill="#222222">2026-02-12</text>
  <line x1="498.077" y1="410" x2="498.077" y2="415" stroke="#333333" stroke-width="1" />
  <text x="498.077" y="428" text-anchor="middle" font-family="system-ui, sans-serif" font-size="12" fill="#222222">2026-02-26</text>
  <line x1="601.154" y1="410" x2="601.154" y2="415" stroke="#333333" stroke-width="1" />
  <text x="601.154" y="428" text-anchor="middle" font-family="system-ui, sans-serif" font-size="12" fill="#222222">2026-03-12</text>
  <line x1="704.231" y1="410" x2="704.231" y2="415" stroke="#333333" stroke-width="1" />
  <text x="704.231" y="428" text-anchor="middle" font-family="system-ui, sans-serif" font-size="12" fill="#222222">2026-03-26</text>
  <text x="395" y="448" text-anchor="middle" font-family="system-ui, sans-serif" font-size="12" fill="#222222">Signup date</text>
  <line x1="60" y1="66" x2="60" y2="410" stroke="#333333" stroke-width="1" />
  <line x1="55" y1="410" x2="60" y2="410" stroke="#333333" stroke-width="1" />
  <text x="52" y="414" text-anchor="end" font-family="system-ui, sans-serif" font-size="12" fill="#222222">0</text>
  <line x1="55" y1="330.37" x2="60" y2="330.37" stroke="#333333" stroke-width="1" />
  <text x="52" y="334.37" text-anchor="end" font-family="system-ui, sans-serif" font-size="12" fill="#222222">10</text>
  <line x1="55" y1="250.741" x2="60" y2="250.741" stroke="#333333" stroke-width="1" />
  <text x="52" y="254.741" text-anchor="end" font-family="system-ui, sans-serif" font-size="12" fill="#222222">20</text>
  <line x1="55" y1="171.111" x2="60" y2="171.111" stroke="#333333" stroke-width="1" />
  <text x="52" y="175.111" text-anchor="end" font-family="system-ui, sans-serif" font-size="12" fill="#222222">30</text>
  <line x1="55" y1="91.481" x2="60" y2="91.481" stroke="#333333" stroke-width="1" />
  <text x="52" y="95.481" text-anchor="end" font-family="system-ui, sans-serif" font-size="12" fill="#222222">40</text>
  <text x="25.6" y="238" text-anchor="middle" transform="rotate(-90 25.6 238)" font-family="system-ui, sans-serif" font-size="12" fill="#222222">count</text>
</g>
</svg>
