<svg xmlns="http://www.w3.org/2000/svg" width="860" height="420" viewBox="0 0 860 420" role="img" aria-label="Daily signups with Monday week ticks">
<title>Daily signups with Monday week ticks</title>
<rect class="algraf-background" x="0" y="0" width="860" height="420" fill="#ffffff" />
<text class="algraf-title" x="60" y="24" font-family="system-ui, sans-serif" font-size="18" font-weight="600" fill="#222222">Daily signups with Monday week ticks</text>
<rect class="algraf-plot-area" x="60" y="66" width="770" height="304" fill="#ffffff" />
<g class="algraf-grid">
  <line x1="116.467" y1="66" x2="116.467" y2="370" stroke="#f2f2f2" stroke-width="0.6" />
  <line x1="188.333" y1="66" x2="188.333" y2="370" stroke="#f2f2f2" stroke-width="0.6" />
  <line x1="260.2" y1="66" x2="260.2" y2="370" stroke="#f2f2f2" stroke-width="0.6" />
  <line x1="332.067" y1="66" x2="332.067" y2="370" stroke="#f2f2f2" stroke-width="0.6" />
  <line x1="403.933" y1="66" x2="403.933" y2="370" stroke="#f2f2f2" stroke-width="0.6" />
  <line x1="475.8" y1="66" x2="475.8" y2="370" stroke="#f2f2f2" stroke-width="0.6" />
  <line x1="547.667" y1="66" x2="547.667" y2="370" stroke="#f2f2f2" stroke-width="0.6" />
  <line x1="619.533" y1="66" x2="619.533" y2="370" stroke="#f2f2f2" stroke-width="0.6" />
  <line x1="691.4" y1="66" x2="691.4" y2="370" stroke="#f2f2f2" stroke-width="0.6" />
  <line x1="763.267" y1="66" x2="763.267" y2="370" stroke="#f2f2f2" stroke-width="0.6" />
  <line x1="60" y1="337.122" x2="830" y2="337.122" stroke="#f2f2f2" stroke-width="0.6" />
  <line x1="60" y1="297.415" x2="830" y2="297.415" stroke="#f2f2f2" stroke-width="0.6" />
  <line x1="60" y1="257.707" x2="830" y2="257.707" stroke="#f2f2f2" stroke-width="0.6" />
  <line x1="60" y1="218" x2="830" y2="218" stroke="#f2f2f2" stroke-width="0.6" />
  <line x1="60" y1="178.293" x2="830" y2="178.293" stroke="#f2f2f2" stroke-width="0.6" />
  <line x1="60" y1="138.585" x2="830" y2="138.585" stroke="#f2f2f2" stroke-width="0.6" />
  <line x1="60" y1="98.878" x2="830" y2="98.878" stroke="#f2f2f2" stroke-width="0.6" />
  <line x1="80.533" y1="66" x2="80.533" y2="370" stroke="#e6e6e6" stroke-width="1" />
  <line x1="152.4" y1="66" x2="152.4" y2="370" stroke="#e6e6e6" stroke-width="1" />
  <line x1="224.267" y1="66" x2="224.267" y2="370" stroke="#e6e6e6" stroke-width="1" />
  <line x1="296.133" y1="66" x2="296.133" y2="370" stroke="#e6e6e6" stroke-width="1" />
  <line x1="368" y1="66" x2="368" y2="370" stroke="#e6e6e6" stroke-width="1" />
  <line x1="439.867" y1="66" x2="439.867" y2="370" stroke="#e6e6e6" stroke-width="1" />
  <line x1="511.733" y1="66" x2="511.733" y2="370" stroke="#e6e6e6" stroke-width="1" />
  <line x1="583.6" y1="66" x2="583.6" y2="370" stroke="#e6e6e6" stroke-width="1" />
  <line x1="655.467" y1="66" x2="655.467" y2="370" stroke="#e6e6e6" stroke-width="1" />
  <line x1="727.333" y1="66" x2="727.333" y2="370" stroke="#e6e6e6" stroke-width="1" />
  <line x1="799.2" y1="66" x2="799.2" y2="370" stroke="#e6e6e6" stroke-width="1" />
  <line x1="60" y1="356.976" x2="830" y2="356.976" stroke="#e6e6e6" stroke-width="1" />
  <line x1="60" y1="317.269" x2="830" y2="317.269" stroke="#e6e6e6" stroke-width="1" />
  <line x1="60" y1="277.561" x2="830" y2="277.561" stroke="#e6e6e6" stroke-width="1" />
  <line x1="60" y1="237.854" x2="830" y2="237.854" stroke="#e6e6e6" stroke-width="1" />
  <line x1="60" y1="198.146" x2="830" y2="198.146" stroke="#e6e6e6" stroke-width="1" />
  <line x1="60" y1="158.439" x2="830" y2="158.439" stroke="#e6e6e6" stroke-width="1" />
  <line x1="60" y1="118.731" x2="830" y2="118.731" stroke="#e6e6e6" stroke-width="1" />
  <line x1="60" y1="79.024" x2="830" y2="79.024" stroke="#e6e6e6" stroke-width="1" />
</g>
<defs>
<clipPath id="algraf-clip-0"><rect x="60" y="66" width="770" height="304" /></clipPath>
</defs>
<g clip-path="url(#algraf-clip-0)">
  <g class="algraf-layer algraf-geom-line">
    <path d="M60 293.444 L70.267 269.62 L80.533 146.527 L90.8 126.673 L101.067 106.819 L111.333 130.644 L121.6 114.761 L131.867 206.088 L142.133 198.146 L152.4 86.966 L162.667 126.673 L172.933 122.702 L183.2 126.673 L193.467 130.644 L203.733 237.854 L214 281.532 L224.267 186.234 L234.533 194.176 L244.8 198.146 L255.067 202.117 L265.333 245.795 L275.6 349.034 L285.867 345.064 L296.133 237.854 L306.4 229.912 L316.667 257.707 L326.933 245.795 L337.2 229.912 L347.467 313.298 L357.733 293.444 L368 210.059 L378.267 186.234 L388.533 166.38 L398.8 142.556 L409.067 122.702 L419.333 245.795 L429.6 229.912 L439.867 110.79 L450.133 98.878 L460.4 86.966 L470.667 118.731 L480.933 114.761 L491.2 218 L501.467 218 L511.733 114.761 L522 162.41 L532.267 166.38 L542.533 174.322 L552.8 178.293 L563.067 289.473 L573.333 333.152 L583.6 233.883 L593.867 233.883 L604.133 233.883 L614.4 229.912 L624.667 261.678 L634.933 349.034 L645.2 345.064 L655.467 225.941 L665.733 206.088 L676 229.912 L686.267 206.088 L696.533 186.234 L706.8 265.649 L717.067 245.795 L727.333 158.439 L737.6 138.585 L747.867 122.702 L758.133 106.819 L768.4 90.936 L778.667 221.971 L788.933 214.029 L799.2 106.819 L809.467 102.848 L819.733 102.848 L830 142.556" fill="none" stroke="#54a24b" stroke-width="1.5" opacity="1" />
  </g>
  <g class="algraf-layer algraf-geom-point">
    <circle cx="60" cy="293.444" r="2" fill="#54a24b" opacity="1" />
    <circle cx="70.267" cy="269.62" r="2" fill="#54a24b" opacity="1" />
    <circle cx="80.533" cy="146.527" r="2" fill="#54a24b" opacity="1" />
    <circle cx="90.8" cy="126.673" r="2" fill="#54a24b" opacity="1" />
    <circle cx="101.067" cy="106.819" r="2" fill="#54a24b" opacity="1" />
    <circle cx="111.333" cy="130.644" r="2" fill="#54a24b" opacity="1" />
    <circle cx="121.6" cy="114.761" r="2" fill="#54a24b" opacity="1" />
    <circle cx="131.867" cy="206.088" r="2" fill="#54a24b" opacity="1" />
    <circle cx="142.133" cy="198.146" r="2" fill="#54a24b" opacity="1" />
    <circle cx="152.4" cy="86.966" r="2" fill="#54a24b" opacity="1" />
    <circle cx="162.667" cy="126.673" r="2" fill="#54a24b" opacity="1" />
    <circle cx="172.933" cy="122.702" r="2" fill="#54a24b" opacity="1" />
    <circle cx="183.2" cy="126.673" r="2" fill="#54a24b" opacity="1" />
    <circle cx="193.467" cy="130.644" r="2" fill="#54a24b" opacity="1" />
    <circle cx="203.733" cy="237.854" r="2" fill="#54a24b" opacity="1" />
    <circle cx="214" cy="281.532" r="2" fill="#54a24b" opacity="1" />
    <circle cx="224.267" cy="186.234" r="2" fill="#54a24b" opacity="1" />
    <circle cx="234.533" cy="194.176" r="2" fill="#54a24b" opacity="1" />
    <circle cx="244.8" cy="198.146" r="2" fill="#54a24b" opacity="1" />
    <circle cx="255.067" cy="202.117" r="2" fill="#54a24b" opacity="1" />
    <circle cx="265.333" cy="245.795" r="2" fill="#54a24b" opacity="1" />
    <circle cx="275.6" cy="349.034" r="2" fill="#54a24b" opacity="1" />
    <circle cx="285.867" cy="345.064" r="2" fill="#54a24b" opacity="1" />
    <circle cx="296.133" cy="237.854" r="2" fill="#54a24b" opacity="1" />
    <circle cx="306.4" cy="229.912" r="2" fill="#54a24b" opacity="1" />
    <circle cx="316.667" cy="257.707" r="2" fill="#54a24b" opacity="1" />
    <circle cx="326.933" cy="245.795" r="2" fill="#54a24b" opacity="1" />
    <circle cx="337.2" cy="229.912" r="2" fill="#54a24b" opacity="1" />
    <circle cx="347.467" cy="313.298" r="2" fill="#54a24b" opacity="1" />
    <circle cx="357.733" cy="293.444" r="2" fill="#54a24b" opacity="1" />
    <circle cx="368" cy="210.059" r="2" fill="#54a24b" opacity="1" />
    <circle cx="378.267" cy="186.234" r="2" fill="#54a24b" opacity="1" />
    <circle cx="388.533" cy="166.38" r="2" fill="#54a24b" opacity="1" />
    <circle cx="398.8" cy="142.556" r="2" fill="#54a24b" opacity="1" />
    <circle cx="409.067" cy="122.702" r="2" fill="#54a24b" opacity="1" />
    <circle cx="419.333" cy="245.795" r="2" fill="#54a24b" opacity="1" />
    <circle cx="429.6" cy="229.912" r="2" fill="#54a24b" opacity="1" />
    <circle cx="439.867" cy="110.79" r="2" fill="#54a24b" opacity="1" />
    <circle cx="450.133" cy="98.878" r="2" fill="#54a24b" opacity="1" />
    <circle cx="460.4" cy="86.966" r="2" fill="#54a24b" opacity="1" />
    <circle cx="470.667" cy="118.731" r="2" fill="#54a24b" opacity="1" />
    <circle cx="480.933" cy="114.761" r="2" fill="#54a24b" opacity="1" />
    <circle cx="491.2" cy="218" r="2" fill="#54a24b" opacity="1" />
    <circle cx="501.467" cy="218" r="2" fill="#54a24b" opacity="1" />
    <circle cx="511.733" cy="114.761" r="2" fill="#54a24b" opacity="1" />
    <circle cx="522" cy="162.41" r="2" fill="#54a24b" opacity="1" />
    <circle cx="532.267" cy="166.38" r="2" fill="#54a24b" opacity="1" />
    <circle cx="542.533" cy="174.322" r="2" fill="#54a24b" opacity="1" />
    <circle cx="552.8" cy="178.293" r="2" fill="#54a24b" opacity="1" />
    <circle cx="563.067" cy="289.473" r="2" fill="#54a24b" opacity="1" />
    <circle cx="573.333" cy="333.152" r="2" fill="#54a24b" opacity="1" />
    <circle cx="583.6" cy="233.883" r="2" fill="#54a24b" opacity="1" />
    <circle cx="593.867" cy="233.883" r="2" fill="#54a24b" opacity="1" />
    <circle cx="604.133" cy="233.883" r="2" fill="#54a24b" opacity="1" />
    <circle cx="614.4" cy="229.912" r="2" fill="#54a24b" opacity="1" />
    <circle cx="624.667" cy="261.678" r="2" fill="#54a24b" opacity="1" />
    <circle cx="634.933" cy="349.034" r="2" fill="#54a24b" opacity="1" />
    <circle cx="645.2" cy="345.064" r="2" fill="#54a24b" opacity="1" />
    <circle cx="655.467" cy="225.941" r="2" fill="#54a24b" opacity="1" />
    <circle cx="665.733" cy="206.088" r="2" fill="#54a24b" opacity="1" />
    <circle cx="676" cy="229.912" r="2" fill="#54a24b" opacity="1" />
    <circle cx="686.267" cy="206.088" r="2" fill="#54a24b" opacity="1" />
    <circle cx="696.533" cy="186.234" r="2" fill="#54a24b" opacity="1" />
    <circle cx="706.8" cy="265.649" r="2" fill="#54a24b" opacity="1" />
    <circle cx="717.067" cy="245.795" r="2" fill="#54a24b" opacity="1" />
    <circle cx="727.333" cy="158.439" r="2" fill="#54a24b" opacity="1" />
    <circle cx="737.6" cy="138.585" r="2" fill="#54a24b" opacity="1" />
    <circle cx="747.867" cy="122.702" r="2" fill="#54a24b" opacity="1" />
    <circle cx="758.133" cy="106.819" r="2" fill="#54a24b" opacity="1" />
    <circle cx="768.4" cy="90.936" r="2" fill="#54a24b" opacity="1" />
    <circle cx="778.667" cy="221.971" r="2" fill="#54a24b" opacity="1" />
    <circle cx="788.933" cy="214.029" r="2" fill="#54a24b" opacity="1" />
    <circle cx="799.2" cy="106.819" r="2" fill="#54a24b" opacity="1" />
    <circle cx="809.467" cy="102.848" r="2" fill="#54a24b" opacity="1" />
    <circle cx="819.733" cy="102.848" r="2" fill="#54a24b" opacity="1" />
    <circle cx="830" cy="142.556" r="2" fill="#54a24b" opacity="1" />
  </g>
</g>
<g class="algraf-axes">
  <line x1="60" y1="370" x2="830" y2="370" stroke="#333333" stroke-width="1" />
  <line x1="80.533" y1="370" x2="80.533" y2="375" stroke="#333333" stroke-width="1" />
  <text x="80.533" y="388" text-anchor="middle" font-family="system-ui, sans-serif" font-size="12" fill="#222222">Mar 3</text>
  <line x1="152.4" y1="370" x2="152.4" y2="375" stroke="#333333" stroke-width="1" />
  <text x="152.4" y="388" text-anchor="middle" font-family="system-ui, sans-serif" font-size="12" fill="#222222">Mar 10</text>
  <line x1="224.267" y1="370" x2="224.267" y2="375" stroke="#333333" stroke-width="1" />
  <text x="224.267" y="388" text-anchor="middle" font-family="system-ui, sans-serif" font-size="12" fill="#222222">Mar 17</text>
  <line x1="296.133" y1="370" x2="296.133" y2="375" stroke="#333333" stroke-width="1" />
  <text x="296.133" y="388" text-anchor="middle" font-family="system-ui, sans-serif" font-size="12" fill="#222222">Mar 24</text>
  <line x1="368" y1="370" x2="368" y2="375" stroke="#333333" stroke-width="1" />
  <text x="368" y="388" text-anchor="middle" font-family="system-ui, sans-serif" font-size="12" fill="#222222">Mar 31</text>
  <line x1="439.867" y1="370" x2="439.867" y2="375" stroke="#333333" stroke-width="1" />
  <text x="439.867" y="388" text-anchor="middle" font-family="system-ui, sans-serif" font-size="12" fill="#222222">Apr 7</text>
  <line x1="511.733" y1="370" x2="511.733" y2="375" stroke="#333333" stroke-width="1" />
  <text x="511.733" y="388" text-anchor="middle" font-family="system-ui, sans-serif" font-size="12" fill="#222222">Apr 14</text>
  <line x1="583.6" y1="370" x2="583.6" y2="375" stroke="#333333" stroke-width="1" />
  <text x="583.6" y="388" text-anchor="middle" font-family="system-ui, sans-serif" font-size="12" fill="#222222">Apr 21</text>
  <line x1="655.467" y1="370" x2="655.467" y2="375" stroke="#333333" stroke-width="1" />
  <text x="655.467" y="388" text-anchor="middle" font-family="system-ui, sans-serif" font-size="12" fill="#222222">Apr 28</text>
  <line x1="727.333" y1="370" x2="727.333" y2="375" stroke="#333333" stroke-width="1" />
  <text x="727.333" y="388" text-anchor="middle" font-family="system-ui, sans-serif" font-size="12" fill="#222222">May 5</text>
  <line x1="799.2" y1="370" x2="799.2" y2="375" stroke="#333333" stroke-width="1" />
  <text x="799.2" y="388" text-anchor="middle" font-family="system-ui, sans-serif" font-size="12" fill="#222222">May 12</text>
  <text x="445" y="408" text-anchor="middle" font-family="system-ui, sans-serif" font-size="12" fill="#222222">Week starting</text>
  <line x1="60" y1="66" x2="60" y2="370" stroke="#333333" stroke-width="1" />
  <line x1="55" y1="356.976" x2="60" y2="356.976" stroke="#333333" stroke-width="1" />
  <text x="52" y="360.976" text-anchor="end" font-family="system-ui, sans-serif" font-size="12" fill="#222222">0</text>
  <line x1="55" y1="317.269" x2="60" y2="317.269" stroke="#333333" stroke-width="1" />
  <text x="52" y="321.269" text-anchor="end" font-family="system-ui, sans-serif" font-size="12" fill="#222222">10</text>
  <line x1="55" y1="277.561" x2="60" y2="277.561" stroke="#333333" stroke-width="1" />
  <text x="52" y="281.561" text-anchor="end" font-family="system-ui, sans-serif" font-size="12" fill="#222222">20</text>
  <line x1="55" y1="237.854" x2="60" y2="237.854" stroke="#333333" stroke-width="1" />
  <text x="52" y="241.854" text-anchor="end" font-family="system-ui, sans-serif" font-size="12" fill="#222222">30</text>
  <line x1="55" y1="198.146" x2="60" y2="198.146" stroke="#333333" stroke-width="1" />
  <text x="52" y="202.146" text-anchor="end" font-family="system-ui, sans-serif" font-size="12" fill="#222222">40</text>
  <line x1="55" y1="158.439" x2="60" y2="158.439" stroke="#333333" stroke-width="1" />
  <text x="52" y="162.439" text-anchor="end" font-family="system-ui, sans-serif" font-size="12" fill="#222222">50</text>
  <line x1="55" y1="118.731" x2="60" y2="118.731" stroke="#333333" stroke-width="1" />
  <text x="52" y="122.731" text-anchor="end" font-family="system-ui, sans-serif" font-size="12" fill="#222222">60</text>
  <line x1="55" y1="79.024" x2="60" y2="79.024" stroke="#333333" stroke-width="1" />
  <text x="52" y="83.024" text-anchor="end" font-family="system-ui, sans-serif" font-size="12" fill="#222222">70</text>
  <text x="25.6" y="218" text-anchor="middle" transform="rotate(-90 25.6 218)" font-family="system-ui, sans-serif" font-size="12" fill="#222222">Signups</text>
</g>
</svg>
