<svg xmlns="http://www.w3.org/2000/svg" width="760" height="420" viewBox="0 0 760 420" role="img" aria-label="Explicit temporal parsing">
<title>Explicit temporal parsing</title>
<rect class="algraf-background" x="0" y="0" width="760" height="420" fill="#ffffff" />
<text class="algraf-title" x="60" y="24" font-family="system-ui, sans-serif" font-size="18" font-weight="600" fill="#222222">Explicit temporal parsing</text>
<rect class="algraf-plot-area" x="60" y="66" width="670" height="304" fill="#ffffff" />
<g class="algraf-grid">
  <line x1="134.444" y1="66" x2="134.444" y2="370" stroke="#f2f2f2" stroke-width="0.6" />
  <line x1="283.333" y1="66" x2="283.333" y2="370" stroke="#f2f2f2" stroke-width="0.6" />
  <line x1="432.222" y1="66" x2="432.222" y2="370" stroke="#f2f2f2" stroke-width="0.6" />
  <line x1="581.111" y1="66" x2="581.111" y2="370" stroke="#f2f2f2" stroke-width="0.6" />
  <line x1="60" y1="349.034" x2="730" y2="349.034" stroke="#f2f2f2" stroke-width="0.6" />
  <line x1="60" y1="311.596" x2="730" y2="311.596" stroke="#f2f2f2" stroke-width="0.6" />
  <line x1="60" y1="274.158" x2="730" y2="274.158" stroke="#f2f2f2" stroke-width="0.6" />
  <line x1="60" y1="236.719" x2="730" y2="236.719" stroke="#f2f2f2" stroke-width="0.6" />
  <line x1="60" y1="199.281" x2="730" y2="199.281" stroke="#f2f2f2" stroke-width="0.6" />
  <line x1="60" y1="161.842" x2="730" y2="161.842" stroke="#f2f2f2" stroke-width="0.6" />
  <line x1="60" y1="124.404" x2="730" y2="124.404" stroke="#f2f2f2" stroke-width="0.6" />
  <line x1="60" y1="86.966" x2="730" y2="86.966" stroke="#f2f2f2" stroke-width="0.6" />
  <line x1="60" y1="66" x2="60" y2="370" stroke="#e6e6e6" stroke-width="1" />
  <line x1="208.889" y1="66" x2="208.889" y2="370" stroke="#e6e6e6" stroke-width="1" />
  <line x1="357.778" y1="66" x2="357.778" y2="370" stroke="#e6e6e6" stroke-width="1" />
  <line x1="506.667" y1="66" x2="506.667" y2="370" stroke="#e6e6e6" stroke-width="1" />
  <line x1="655.556" y1="66" x2="655.556" y2="370" stroke="#e6e6e6" stroke-width="1" />
  <line x1="60" y1="367.754" x2="730" y2="367.754" stroke="#e6e6e6" stroke-width="1" />
  <line x1="60" y1="330.315" x2="730" y2="330.315" stroke="#e6e6e6" stroke-width="1" />
  <line x1="60" y1="292.877" x2="730" y2="292.877" stroke="#e6e6e6" stroke-width="1" />
  <line x1="60" y1="255.438" x2="730" y2="255.438" stroke="#e6e6e6" stroke-width="1" />
  <line x1="60" y1="218" x2="730" y2="218" stroke="#e6e6e6" stroke-width="1" />
  <line x1="60" y1="180.562" x2="730" y2="180.562" stroke="#e6e6e6" stroke-width="1" />
  <line x1="60" y1="143.123" x2="730" y2="143.123" stroke="#e6e6e6" stroke-width="1" />
  <line x1="60" y1="105.685" x2="730" y2="105.685" stroke="#e6e6e6" stroke-width="1" />
  <line x1="60" y1="68.246" x2="730" y2="68.246" stroke="#e6e6e6" stroke-width="1" />
</g>
<g class="algraf-layer algraf-geom-line">
  <path d="M60 255.438 L283.333 86.966 L506.667 349.034 L730 143.123" fill="none" stroke="#cc6633" stroke-width="2.5" opacity="1" />
</g>
<g class="algraf-layer algraf-geom-point">
  <circle cx="60" cy="255.438" r="5" fill="#cc6633" opacity="1" />
  <circle cx="283.333" cy="86.966" r="5" fill="#cc6633" opacity="1" />
  <circle cx="506.667" cy="349.034" r="5" fill="#cc6633" opacity="1" />
  <circle cx="730" cy="143.123" r="5" fill="#cc6633" opacity="1" />
</g>
<g class="algraf-axes">
  <line x1="60" y1="370" x2="730" y2="370" stroke="#333333" stroke-width="1" />
  <line x1="60" y1="370" x2="60" y2="375" stroke="#333333" stroke-width="1" />
  <text x="60" y="388" text-anchor="middle" font-family="system-ui, sans-serif" font-size="12" fill="#222222">May 27 02:30</text>
  <line x1="208.889" y1="370" x2="208.889" y2="375" stroke="#333333" stroke-width="1" />
  <text x="208.889" y="388" text-anchor="middle" font-family="system-ui, sans-serif" font-size="12" fill="#222222">May 27 03:00</text>
  <line x1="357.778" y1="370" x2="357.778" y2="375" stroke="#333333" stroke-width="1" />
  <text x="357.778" y="388" text-anchor="middle" font-family="system-ui, sans-serif" font-size="12" fill="#222222">May 27 03:30</text>
  <line x1="506.667" y1="370" x2="506.667" y2="375" stroke="#333333" stroke-width="1" />
  <text x="506.667" y="388" text-anchor="middle" font-family="system-ui, sans-serif" font-size="12" fill="#222222">May 27 04:00</text>
  <line x1="655.556" y1="370" x2="655.556" y2="375" stroke="#333333" stroke-width="1" />
  <text x="655.556" y="388" text-anchor="middle" font-family="system-ui, sans-serif" font-size="12" fill="#222222">May 27 04:30</text>
  <text x="395" y="408" text-anchor="middle" font-family="system-ui, sans-serif" font-size="12" fill="#222222">Start time</text>
  <line x1="60" y1="66" x2="60" y2="370" stroke="#333333" stroke-width="1" />
  <line x1="55" y1="367.754" x2="60" y2="367.754" stroke="#333333" stroke-width="1" />
  <text x="52" y="371.754" text-anchor="end" font-family="system-ui, sans-serif" font-size="12" fill="#222222">76</text>
  <line x1="55" y1="330.315" x2="60" y2="330.315" stroke="#333333" stroke-width="1" />
  <text x="52" y="334.315" text-anchor="end" font-family="system-ui, sans-serif" font-size="12" fill="#222222">78</text>
  <line x1="55" y1="292.877" x2="60" y2="292.877" stroke="#333333" stroke-width="1" />
  <text x="52" y="296.877" text-anchor="end" font-family="system-ui, sans-serif" font-size="12" fill="#222222">80</text>
  <line x1="55" y1="255.438" x2="60" y2="255.438" stroke="#333333" stroke-width="1" />
  <text x="52" y="259.438" text-anchor="end" font-family="system-ui, sans-serif" font-size="12" fill="#222222">82</text>
  <line x1="55" y1="218" x2="60" y2="218" stroke="#333333" stroke-width="1" />
  <text x="52" y="222" text-anchor="end" font-family="system-ui, sans-serif" font-size="12" fill="#222222">84</text>
  <line x1="55" y1="180.562" x2="60" y2="180.562" stroke="#333333" stroke-width="1" />
  <text x="52" y="184.562" text-anchor="end" font-family="system-ui, sans-serif" font-size="12" fill="#222222">86</text>
  <line x1="55" y1="143.123" x2="60" y2="143.123" stroke="#333333" stroke-width="1" />
  <text x="52" y="147.123" text-anchor="end" font-family="system-ui, sans-serif" font-size="12" fill="#222222">88</text>
  <line x1="55" y1="105.685" x2="60" y2="105.685" stroke="#333333" stroke-width="1" />
  <text x="52" y="109.685" text-anchor="end" font-family="system-ui, sans-serif" font-size="12" fill="#222222">90</text>
  <line x1="55" y1="68.246" x2="60" y2="68.246" stroke="#333333" stroke-width="1" />
  <text x="52" y="72.246" text-anchor="end" font-family="system-ui, sans-serif" font-size="12" fill="#222222">92</text>
  <text x="25.6" y="218" text-anchor="middle" transform="rotate(-90 25.6 218)" font-family="system-ui, sans-serif" font-size="12" fill="#222222">Latency (ms)</text>
</g>
</svg>
