<svg xmlns="http://www.w3.org/2000/svg" width="760" height="460" viewBox="0 0 760 460" role="img" aria-label="Monthly temperature (JSON source)">
<title>Monthly temperature (JSON source)</title>
<rect class="algraf-background" x="0" y="0" width="760" height="460" fill="#ffffff" />
<text class="algraf-title" x="60" y="24" font-family="system-ui, sans-serif" font-size="18" font-weight="600" fill="#222222">Monthly temperature (JSON source)</text>
<rect class="algraf-plot-area" x="60" y="66" width="550" height="344" fill="#ffffff" />
<g class="algraf-grid">
  <line x1="127.222" y1="66" x2="127.222" y2="410" stroke="#f2f2f2" stroke-width="0.6" />
  <line x1="212.778" y1="66" x2="212.778" y2="410" stroke="#f2f2f2" stroke-width="0.6" />
  <line x1="298.333" y1="66" x2="298.333" y2="410" stroke="#f2f2f2" stroke-width="0.6" />
  <line x1="383.889" y1="66" x2="383.889" y2="410" stroke="#f2f2f2" stroke-width="0.6" />
  <line x1="469.444" y1="66" x2="469.444" y2="410" stroke="#f2f2f2" stroke-width="0.6" />
  <line x1="555" y1="66" x2="555" y2="410" stroke="#f2f2f2" stroke-width="0.6" />
  <line x1="60" y1="279.292" x2="610" y2="279.292" stroke="#f2f2f2" stroke-width="0.6" />
  <line x1="60" y1="185.447" x2="610" y2="185.447" stroke="#f2f2f2" stroke-width="0.6" />
  <line x1="84.444" y1="66" x2="84.444" y2="410" stroke="#e6e6e6" stroke-width="1" />
  <line x1="170" y1="66" x2="170" y2="410" stroke="#e6e6e6" stroke-width="1" />
  <line x1="255.556" y1="66" x2="255.556" y2="410" stroke="#e6e6e6" stroke-width="1" />
  <line x1="341.111" y1="66" x2="341.111" y2="410" stroke="#e6e6e6" stroke-width="1" />
  <line x1="426.667" y1="66" x2="426.667" y2="410" stroke="#e6e6e6" stroke-width="1" />
  <line x1="512.222" y1="66" x2="512.222" y2="410" stroke="#e6e6e6" stroke-width="1" />
  <line x1="597.778" y1="66" x2="597.778" y2="410" stroke="#e6e6e6" stroke-width="1" />
  <line x1="60" y1="326.215" x2="610" y2="326.215" stroke="#e6e6e6" stroke-width="1" />
  <line x1="60" y1="232.369" x2="610" y2="232.369" stroke="#e6e6e6" stroke-width="1" />
  <line x1="60" y1="138.524" x2="610" y2="138.524" stroke="#e6e6e6" stroke-width="1" />
</g>
<g class="algraf-layer algraf-geom-line">
  <path d="M60 386.276 L249.444 359.999 L420.556 281.169 L610 211.723" fill="none" stroke="#4E79A7" stroke-width="2" opacity="1" />
  <path d="M60 224.862 L249.444 196.708 L420.556 153.539 L610 89.724" fill="none" stroke="#F28E2B" stroke-width="2" opacity="1" />
</g>
<g class="algraf-layer algraf-geom-point">
  <circle cx="60" cy="386.276" r="5" fill="#4E79A7" opacity="1" />
  <circle cx="249.444" cy="359.999" r="5" fill="#4E79A7" opacity="1" />
  <circle cx="420.556" cy="281.169" r="5" fill="#4E79A7" opacity="1" />
  <circle cx="610" cy="211.723" r="5" fill="#4E79A7" opacity="1" />
  <circle cx="60" cy="224.862" r="5" fill="#F28E2B" opacity="1" />
  <circle cx="249.444" cy="196.708" r="5" fill="#F28E2B" opacity="1" />
  <circle cx="420.556" cy="153.539" r="5" fill="#F28E2B" opacity="1" />
  <circle cx="610" cy="89.724" r="5" fill="#F28E2B" opacity="1" />
</g>
<g class="algraf-axes">
  <line x1="60" y1="410" x2="610" y2="410" stroke="#333333" stroke-width="1" />
  <line x1="84.444" y1="410" x2="84.444" y2="415" stroke="#333333" stroke-width="1" />
  <text x="84.444" y="428" text-anchor="middle" font-family="system-ui, sans-serif" font-size="12" fill="#222222">2026-01-05</text>
  <line x1="170" y1="410" x2="170" y2="415" stroke="#333333" stroke-width="1" />
  <text x="170" y="428" text-anchor="middle" font-family="system-ui, sans-serif" font-size="12" fill="#222222">2026-01-19</text>
  <line x1="255.556" y1="410" x2="255.556" y2="415" stroke="#333333" stroke-width="1" />
  <text x="255.556" y="428" text-anchor="middle" font-family="system-ui, sans-serif" font-size="12" fill="#222222">2026-02-02</text>
  <line x1="341.111" y1="410" x2="341.111" y2="415" stroke="#333333" stroke-width="1" />
  <text x="341.111" y="428" text-anchor="middle" font-family="system-ui, sans-serif" font-size="12" fill="#222222">2026-02-16</text>
  <line x1="426.667" y1="410" x2="426.667" y2="415" stroke="#333333" stroke-width="1" />
  <text x="426.667" y="428" text-anchor="middle" font-family="system-ui, sans-serif" font-size="12" fill="#222222">2026-03-02</text>
  <line x1="512.222" y1="410" x2="512.222" y2="415" stroke="#333333" stroke-width="1" />
  <text x="512.222" y="428" text-anchor="middle" font-family="system-ui, sans-serif" font-size="12" fill="#222222">2026-03-16</text>
  <line x1="597.778" y1="410" x2="597.778" y2="415" stroke="#333333" stroke-width="1" />
  <text x="597.778" y="428" text-anchor="middle" font-family="system-ui, sans-serif" font-size="12" fill="#222222">2026-03-30</text>
  <text x="335" y="448" text-anchor="middle" font-family="system-ui, sans-serif" font-size="12" fill="#222222">date</text>
  <line x1="60" y1="66" x2="60" y2="410" stroke="#333333" stroke-width="1" />
  <line x1="55" y1="326.215" x2="60" y2="326.215" stroke="#333333" stroke-width="1" />
  <text x="52" y="330.215" text-anchor="end" font-family="system-ui, sans-serif" font-size="12" fill="#222222">0</text>
  <line x1="55" y1="232.369" x2="60" y2="232.369" stroke="#333333" stroke-width="1" />
  <text x="52" y="236.369" text-anchor="end" font-family="system-ui, sans-serif" font-size="12" fill="#222222">5</text>
  <line x1="55" y1="138.524" x2="60" y2="138.524" stroke="#333333" stroke-width="1" />
  <text x="52" y="142.524" text-anchor="end" font-family="system-ui, sans-serif" font-size="12" fill="#222222">10</text>
  <text x="25.6" y="238" text-anchor="middle" transform="rotate(-90 25.6 238)" font-family="system-ui, sans-serif" font-size="12" fill="#222222">temp</text>
</g>
<g class="algraf-legends">
  <text x="626" y="70" text-anchor="start" font-family="system-ui, sans-serif" font-size="12" fill="#222222">city</text>
  <rect x="626" y="78" width="12" height="12" fill="#4E79A7" stroke="#4E79A7" stroke-width="2" />
  <text x="644" y="88" text-anchor="start" font-family="system-ui, sans-serif" font-size="12" fill="#222222">Oslo</text>
  <rect x="626" y="96" width="12" height="12" fill="#F28E2B" stroke="#F28E2B" stroke-width="2" />
  <text x="644" y="106" text-anchor="start" font-family="system-ui, sans-serif" font-size="12" fill="#222222">Lisbon</text>
</g>
</svg>
