<svg xmlns="http://www.w3.org/2000/svg" width="820" height="420" viewBox="0 0 820 420" role="img" aria-label="Four decades with five-year ticks">
<title>Four decades with five-year ticks</title>
<rect class="algraf-background" x="0" y="0" width="820" height="420" fill="#ffffff" />
<text class="algraf-title" x="60" y="24" font-family="system-ui, sans-serif" font-size="18" font-weight="600" fill="#222222">Four decades with five-year ticks</text>
<rect class="algraf-plot-area" x="60" y="66" width="730" height="304" fill="#ffffff" />
<g class="algraf-grid">
  <line x1="122.344" y1="66" x2="122.344" y2="370" stroke="#f2f2f2" stroke-width="0.6" />
  <line x1="211.352" y1="66" x2="211.352" y2="370" stroke="#f2f2f2" stroke-width="0.6" />
  <line x1="300.36" y1="66" x2="300.36" y2="370" stroke="#f2f2f2" stroke-width="0.6" />
  <line x1="389.392" y1="66" x2="389.392" y2="370" stroke="#f2f2f2" stroke-width="0.6" />
  <line x1="478.424" y1="66" x2="478.424" y2="370" stroke="#f2f2f2" stroke-width="0.6" />
  <line x1="567.432" y1="66" x2="567.432" y2="370" stroke="#f2f2f2" stroke-width="0.6" />
  <line x1="656.44" y1="66" x2="656.44" y2="370" stroke="#f2f2f2" stroke-width="0.6" />
  <line x1="745.472" y1="66" x2="745.472" y2="370" stroke="#f2f2f2" stroke-width="0.6" />
  <line x1="60" y1="325.656" x2="790" y2="325.656" stroke="#f2f2f2" stroke-width="0.6" />
  <line x1="60" y1="278.9" x2="790" y2="278.9" stroke="#f2f2f2" stroke-width="0.6" />
  <line x1="60" y1="232.144" x2="790" y2="232.144" stroke="#f2f2f2" stroke-width="0.6" />
  <line x1="60" y1="185.387" x2="790" y2="185.387" stroke="#f2f2f2" stroke-width="0.6" />
  <line x1="60" y1="138.631" x2="790" y2="138.631" stroke="#f2f2f2" stroke-width="0.6" />
  <line x1="60" y1="91.875" x2="790" y2="91.875" stroke="#f2f2f2" stroke-width="0.6" />
  <line x1="77.841" y1="66" x2="77.841" y2="370" stroke="#e6e6e6" stroke-width="1" />
  <line x1="166.848" y1="66" x2="166.848" y2="370" stroke="#e6e6e6" stroke-width="1" />
  <line x1="255.856" y1="66" x2="255.856" y2="370" stroke="#e6e6e6" stroke-width="1" />
  <line x1="344.864" y1="66" x2="344.864" y2="370" stroke="#e6e6e6" stroke-width="1" />
  <line x1="433.92" y1="66" x2="433.92" y2="370" stroke="#e6e6e6" stroke-width="1" />
  <line x1="522.928" y1="66" x2="522.928" y2="370" stroke="#e6e6e6" stroke-width="1" />
  <line x1="611.936" y1="66" x2="611.936" y2="370" stroke="#e6e6e6" stroke-width="1" />
  <line x1="700.944" y1="66" x2="700.944" y2="370" stroke="#e6e6e6" stroke-width="1" />
  <line x1="790" y1="66" x2="790" y2="370" stroke="#e6e6e6" stroke-width="1" />
  <line x1="60" y1="349.034" x2="790" y2="349.034" stroke="#e6e6e6" stroke-width="1" />
  <line x1="60" y1="302.278" x2="790" y2="302.278" stroke="#e6e6e6" stroke-width="1" />
  <line x1="60" y1="255.522" x2="790" y2="255.522" stroke="#e6e6e6" stroke-width="1" />
  <line x1="60" y1="208.766" x2="790" y2="208.766" stroke="#e6e6e6" stroke-width="1" />
  <line x1="60" y1="162.009" x2="790" y2="162.009" stroke="#e6e6e6" stroke-width="1" />
  <line x1="60" y1="115.253" x2="790" y2="115.253" stroke="#e6e6e6" stroke-width="1" />
  <line x1="60" y1="68.497" x2="790" y2="68.497" stroke="#e6e6e6" stroke-width="1" />
</g>
<g class="algraf-layer algraf-geom-line">
  <path d="M60 349.034 L77.841 336.177 L95.632 324.254 L113.424 313.5 L131.216 304.616 L149.056 297.603 L166.848 292.927 L184.64 290.122 L202.432 289.186 L220.272 289.42 L238.064 290.122 L255.856 290.589 L273.648 290.122 L291.488 288.251 L309.28 284.511 L327.072 278.666 L344.864 270.718 L362.704 260.899 L380.496 249.21 L398.288 236.819 L416.08 223.961 L433.92 211.571 L451.712 200.116 L469.504 190.063 L487.296 182.348 L505.136 176.504 L522.928 172.763 L540.72 171.127 L558.512 170.893 L576.352 171.361 L594.144 171.828 L611.936 172.062 L629.728 170.893 L647.568 168.321 L665.36 163.412 L683.152 156.399 L700.944 147.281 L718.784 136.527 L736.576 124.371 L754.368 111.746 L772.159 98.888 L790 86.966" fill="none" stroke="#b279a2" stroke-width="2" opacity="1" />
</g>
<g class="algraf-axes">
  <line x1="60" y1="370" x2="790" y2="370" stroke="#333333" stroke-width="1" />
  <line x1="77.841" y1="370" x2="77.841" y2="375" stroke="#333333" stroke-width="1" />
  <text x="77.841" y="388" text-anchor="middle" font-family="system-ui, sans-serif" font-size="12" fill="#222222">1985</text>
  <line x1="166.848" y1="370" x2="166.848" y2="375" stroke="#333333" stroke-width="1" />
  <text x="166.848" y="388" text-anchor="middle" font-family="system-ui, sans-serif" font-size="12" fill="#222222">1990</text>
  <line x1="255.856" y1="370" x2="255.856" y2="375" stroke="#333333" stroke-width="1" />
  <text x="255.856" y="388" text-anchor="middle" font-family="system-ui, sans-serif" font-size="12" fill="#222222">1995</text>
  <line x1="344.864" y1="370" x2="344.864" y2="375" stroke="#333333" stroke-width="1" />
  <text x="344.864" y="388" text-anchor="middle" font-family="system-ui, sans-serif" font-size="12" fill="#222222">2000</text>
  <line x1="433.92" y1="370" x2="433.92" y2="375" stroke="#333333" stroke-width="1" />
  <text x="433.92" y="388" text-anchor="middle" font-family="system-ui, sans-serif" font-size="12" fill="#222222">2005</text>
  <line x1="522.928" y1="370" x2="522.928" y2="375" stroke="#333333" stroke-width="1" />
  <text x="522.928" y="388" text-anchor="middle" font-family="system-ui, sans-serif" font-size="12" fill="#222222">2010</text>
  <line x1="611.936" y1="370" x2="611.936" y2="375" stroke="#333333" stroke-width="1" />
  <text x="611.936" y="388" text-anchor="middle" font-family="system-ui, sans-serif" font-size="12" fill="#222222">2015</text>
  <line x1="700.944" y1="370" x2="700.944" y2="375" stroke="#333333" stroke-width="1" />
  <text x="700.944" y="388" text-anchor="middle" font-family="system-ui, sans-serif" font-size="12" fill="#222222">2020</text>
  <line x1="790" y1="370" x2="790" y2="375" stroke="#333333" stroke-width="1" />
  <text x="790" y="388" text-anchor="middle" font-family="system-ui, sans-serif" font-size="12" fill="#222222">2025</text>
  <text x="425" y="408" text-anchor="middle" font-family="system-ui, sans-serif" font-size="12" fill="#222222">Year</text>
  <line x1="60" y1="66" x2="60" y2="370" stroke="#333333" stroke-width="1" />
  <line x1="55" y1="349.034" x2="60" y2="349.034" stroke="#333333" stroke-width="1" />
  <text x="52" y="353.034" text-anchor="end" font-family="system-ui, sans-serif" font-size="12" fill="#222222">100</text>
  <line x1="55" y1="302.278" x2="60" y2="302.278" stroke="#333333" stroke-width="1" />
  <text x="52" y="306.278" text-anchor="end" font-family="system-ui, sans-serif" font-size="12" fill="#222222">120</text>
  <line x1="55" y1="255.522" x2="60" y2="255.522" stroke="#333333" stroke-width="1" />
  <text x="52" y="259.522" text-anchor="end" font-family="system-ui, sans-serif" font-size="12" fill="#222222">140</text>
  <line x1="55" y1="208.766" x2="60" y2="208.766" stroke="#333333" stroke-width="1" />
  <text x="52" y="212.766" text-anchor="end" font-family="system-ui, sans-serif" font-size="12" fill="#222222">160</text>
  <line x1="55" y1="162.009" x2="60" y2="162.009" stroke="#333333" stroke-width="1" />
  <text x="52" y="166.009" text-anchor="end" font-family="system-ui, sans-serif" font-size="12" fill="#222222">180</text>
  <line x1="55" y1="115.253" x2="60" y2="115.253" stroke="#333333" stroke-width="1" />
  <text x="52" y="119.253" text-anchor="end" font-family="system-ui, sans-serif" font-size="12" fill="#222222">200</text>
  <line x1="55" y1="68.497" x2="60" y2="68.497" stroke="#333333" stroke-width="1" />
  <text x="52" y="72.497" text-anchor="end" font-family="system-ui, sans-serif" font-size="12" fill="#222222">220</text>
  <text x="18.4" y="218" text-anchor="middle" transform="rotate(-90 18.4 218)" font-family="system-ui, sans-serif" font-size="12" fill="#222222">Index</text>
</g>
</svg>
