<svg xmlns="http://www.w3.org/2000/svg" width="760" height="420" viewBox="0 0 760 420" role="img" aria-label="Temporal legend labels">
<title>Temporal legend labels</title>
<desc>Scale(timeFormat:) formats temporal color legend entries</desc>
<rect class="algraf-background" x="0" y="0" width="760" height="420" fill="#ffffff" />
<text class="algraf-title" x="60" y="24" font-family="system-ui, sans-serif" font-size="18" font-weight="600" fill="#222222">Temporal legend labels</text>
<text class="algraf-subtitle" x="60" y="50" font-family="system-ui, sans-serif" font-size="12" fill="#222222">Scale(timeFormat:) formats temporal color legend entries</text>
<rect class="algraf-plot-area" x="60" y="82" width="550" height="288" fill="#ffffff" />
<g class="algraf-grid">
  <line x1="128.75" y1="82" x2="128.75" y2="370" stroke="#f2f2f2" stroke-width="0.6" />
  <line x1="266.25" y1="82" x2="266.25" y2="370" stroke="#f2f2f2" stroke-width="0.6" />
  <line x1="403.75" y1="82" x2="403.75" y2="370" stroke="#f2f2f2" stroke-width="0.6" />
  <line x1="541.25" y1="82" x2="541.25" y2="370" stroke="#f2f2f2" stroke-width="0.6" />
  <line x1="60" y1="353.916" x2="610" y2="353.916" stroke="#f2f2f2" stroke-width="0.6" />
  <line x1="60" y1="321.749" x2="610" y2="321.749" stroke="#f2f2f2" stroke-width="0.6" />
  <line x1="60" y1="289.582" x2="610" y2="289.582" stroke="#f2f2f2" stroke-width="0.6" />
  <line x1="60" y1="257.415" x2="610" y2="257.415" stroke="#f2f2f2" stroke-width="0.6" />
  <line x1="60" y1="225.247" x2="610" y2="225.247" stroke="#f2f2f2" stroke-width="0.6" />
  <line x1="60" y1="193.08" x2="610" y2="193.08" stroke="#f2f2f2" stroke-width="0.6" />
  <line x1="60" y1="160.913" x2="610" y2="160.913" stroke="#f2f2f2" stroke-width="0.6" />
  <line x1="60" y1="128.745" x2="610" y2="128.745" stroke="#f2f2f2" stroke-width="0.6" />
  <line x1="60" y1="82" x2="60" y2="370" stroke="#e6e6e6" stroke-width="1" />
  <line x1="197.5" y1="82" x2="197.5" y2="370" stroke="#e6e6e6" stroke-width="1" />
  <line x1="335" y1="82" x2="335" y2="370" stroke="#e6e6e6" stroke-width="1" />
  <line x1="472.5" y1="82" x2="472.5" y2="370" stroke="#e6e6e6" stroke-width="1" />
  <line x1="610" y1="82" x2="610" y2="370" stroke="#e6e6e6" stroke-width="1" />
  <line x1="60" y1="370" x2="610" y2="370" stroke="#e6e6e6" stroke-width="1" />
  <line x1="60" y1="337.833" x2="610" y2="337.833" stroke="#e6e6e6" stroke-width="1" />
  <line x1="60" y1="305.665" x2="610" y2="305.665" stroke="#e6e6e6" stroke-width="1" />
  <line x1="60" y1="273.498" x2="610" y2="273.498" stroke="#e6e6e6" stroke-width="1" />
  <line x1="60" y1="241.331" x2="610" y2="241.331" stroke="#e6e6e6" stroke-width="1" />
  <line x1="60" y1="209.164" x2="610" y2="209.164" stroke="#e6e6e6" stroke-width="1" />
  <line x1="60" y1="176.996" x2="610" y2="176.996" stroke="#e6e6e6" stroke-width="1" />
  <line x1="60" y1="144.829" x2="610" y2="144.829" stroke="#e6e6e6" stroke-width="1" />
  <line x1="60" y1="112.662" x2="610" y2="112.662" stroke="#e6e6e6" stroke-width="1" />
</g>
<defs>
<clipPath id="algraf-clip-0"><rect x="0" y="0" width="760" height="370" /></clipPath>
</defs>
<g clip-path="url(#algraf-clip-0)">
  <g class="algraf-layer algraf-geom-area">
    <path d="M60 234.897 L197.5 250.981 L335 263.848 L472.5 271.89 L610 278.002 L610 370 L472.5 370 L335 370 L197.5 370 L60 370 Z" fill="#006BA4" opacity="0.76" />
    <path d="M60 234.897 L197.5 193.08 L335 212.38 L472.5 226.212 L610 233.611 L610 278.002 L472.5 271.89 L335 263.848 L197.5 250.981 L60 234.897 Z" fill="#FF800E" opacity="0.76" />
    <path d="M60 234.897 L197.5 193.08 L335 144.829 L472.5 162.521 L610 174.101 L610 233.611 L472.5 226.212 L335 212.38 L197.5 193.08 L60 234.897 Z" fill="#ABABAB" opacity="0.76" />
    <path d="M60 234.897 L197.5 193.08 L335 144.829 L472.5 131.641 L610 145.794 L610 174.101 L472.5 162.521 L335 144.829 L197.5 193.08 L60 234.897 Z" fill="#595959" opacity="0.76" />
    <path d="M60 234.897 L197.5 193.08 L335 144.829 L472.5 131.641 L610 103.333 L610 145.794 L472.5 131.641 L335 144.829 L197.5 193.08 L60 234.897 Z" fill="#5F9ED1" opacity="0.76" />
  </g>
</g>
<g class="algraf-axes">
  <line x1="60" y1="370" x2="610" y2="370" stroke="#333333" stroke-width="1" />
  <line x1="60" y1="370" x2="60" y2="375" stroke="#333333" stroke-width="1" />
  <text x="60" y="388" text-anchor="middle" font-family="system-ui, sans-serif" font-size="12" fill="#222222">May 19</text>
  <line x1="197.5" y1="370" x2="197.5" y2="375" stroke="#333333" stroke-width="1" />
  <text x="197.5" y="388" text-anchor="middle" font-family="system-ui, sans-serif" font-size="12" fill="#222222">May 20</text>
  <line x1="335" y1="370" x2="335" y2="375" stroke="#333333" stroke-width="1" />
  <text x="335" y="388" text-anchor="middle" font-family="system-ui, sans-serif" font-size="12" fill="#222222">May 21</text>
  <line x1="472.5" y1="370" x2="472.5" y2="375" stroke="#333333" stroke-width="1" />
  <text x="472.5" y="388" text-anchor="middle" font-family="system-ui, sans-serif" font-size="12" fill="#222222">May 22</text>
  <line x1="610" y1="370" x2="610" y2="375" stroke="#333333" stroke-width="1" />
  <text x="610" y="388" text-anchor="middle" font-family="system-ui, sans-serif" font-size="12" fill="#222222">May 23</text>
  <text x="335" y="408" text-anchor="middle" font-family="system-ui, sans-serif" font-size="12" fill="#222222">Snapshot</text>
  <line x1="60" y1="82" x2="60" y2="370" stroke="#333333" stroke-width="1" />
  <line x1="55" y1="370" x2="60" y2="370" stroke="#333333" stroke-width="1" />
  <text x="52" y="374" text-anchor="end" font-family="system-ui, sans-serif" font-size="12" fill="#222222">0</text>
  <line x1="55" y1="337.833" x2="60" y2="337.833" stroke="#333333" stroke-width="1" />
  <text x="52" y="341.833" text-anchor="end" font-family="system-ui, sans-serif" font-size="12" fill="#222222">100</text>
  <line x1="55" y1="305.665" x2="60" y2="305.665" stroke="#333333" stroke-width="1" />
  <text x="52" y="309.665" text-anchor="end" font-family="system-ui, sans-serif" font-size="12" fill="#222222">200</text>
  <line x1="55" y1="273.498" x2="60" y2="273.498" stroke="#333333" stroke-width="1" />
  <text x="52" y="277.498" text-anchor="end" font-family="system-ui, sans-serif" font-size="12" fill="#222222">300</text>
  <line x1="55" y1="241.331" x2="60" y2="241.331" stroke="#333333" stroke-width="1" />
  <text x="52" y="245.331" text-anchor="end" font-family="system-ui, sans-serif" font-size="12" fill="#222222">400</text>
  <line x1="55" y1="209.164" x2="60" y2="209.164" stroke="#333333" stroke-width="1" />
  <text x="52" y="213.164" text-anchor="end" font-family="system-ui, sans-serif" font-size="12" fill="#222222">500</text>
  <line x1="55" y1="176.996" x2="60" y2="176.996" stroke="#333333" stroke-width="1" />
  <text x="52" y="180.996" text-anchor="end" font-family="system-ui, sans-serif" font-size="12" fill="#222222">600</text>
  <line x1="55" y1="144.829" x2="60" y2="144.829" stroke="#333333" stroke-width="1" />
  <text x="52" y="148.829" text-anchor="end" font-family="system-ui, sans-serif" font-size="12" fill="#222222">700</text>
  <line x1="55" y1="112.662" x2="60" y2="112.662" stroke="#333333" stroke-width="1" />
  <text x="52" y="116.662" text-anchor="end" font-family="system-ui, sans-serif" font-size="12" fill="#222222">800</text>
  <text x="18.4" y="226" text-anchor="middle" transform="rotate(-90 18.4 226)" font-family="system-ui, sans-serif" font-size="12" fill="#222222">Surviving lines</text>
</g>
<g class="algraf-legends">
  <text x="626" y="86" text-anchor="start" font-family="system-ui, sans-serif" font-size="12" fill="#222222">Origin day</text>
  <rect x="626" y="94" width="12" height="12" fill="#006BA4" />
  <text x="644" y="104" text-anchor="start" font-family="system-ui, sans-serif" font-size="12" fill="#222222">2026-05-19</text>
  <rect x="626" y="112" width="12" height="12" fill="#FF800E" />
  <text x="644" y="122" text-anchor="start" font-family="system-ui, sans-serif" font-size="12" fill="#222222">2026-05-20</text>
  <rect x="626" y="130" width="12" height="12" fill="#ABABAB" />
  <text x="644" y="140" text-anchor="start" font-family="system-ui, sans-serif" font-size="12" fill="#222222">2026-05-21</text>
  <rect x="626" y="148" width="12" height="12" fill="#595959" />
  <text x="644" y="158" text-anchor="start" font-family="system-ui, sans-serif" font-size="12" fill="#222222">2026-05-22</text>
  <rect x="626" y="166" width="12" height="12" fill="#5F9ED1" />
  <text x="644" y="176" text-anchor="start" font-family="system-ui, sans-serif" font-size="12" fill="#222222">2026-05-23</text>
</g>
</svg>
