<svg xmlns="http://www.w3.org/2000/svg" width="820" height="420" viewBox="0 0 820 420" role="img" aria-label="Daily additions as temporal bars">
<title>Daily additions as temporal bars</title>
<desc>Missing dates remain gaps on the time axis</desc>
<rect class="algraf-background" x="0" y="0" width="820" height="420" fill="#ffffff" />
<text class="algraf-title" x="68" y="24" font-family="system-ui, sans-serif" font-size="18" font-weight="600" fill="#222222">Daily additions as temporal bars</text>
<text class="algraf-subtitle" x="68" y="50" font-family="system-ui, sans-serif" font-size="12" fill="#222222">Missing dates remain gaps on the time axis</text>
<rect class="algraf-plot-area" x="68" y="82" width="722" height="265.392" fill="#ffffff" />
<g class="algraf-grid">
  <line x1="123.538" y1="82" x2="123.538" y2="347.392" stroke="#f2f2f2" stroke-width="0.6" />
  <line x1="179.077" y1="82" x2="179.077" y2="347.392" stroke="#f2f2f2" stroke-width="0.6" />
  <line x1="234.615" y1="82" x2="234.615" y2="347.392" stroke="#f2f2f2" stroke-width="0.6" />
  <line x1="290.154" y1="82" x2="290.154" y2="347.392" stroke="#f2f2f2" stroke-width="0.6" />
  <line x1="345.692" y1="82" x2="345.692" y2="347.392" stroke="#f2f2f2" stroke-width="0.6" />
  <line x1="401.231" y1="82" x2="401.231" y2="347.392" stroke="#f2f2f2" stroke-width="0.6" />
  <line x1="456.769" y1="82" x2="456.769" y2="347.392" stroke="#f2f2f2" stroke-width="0.6" />
  <line x1="512.308" y1="82" x2="512.308" y2="347.392" stroke="#f2f2f2" stroke-width="0.6" />
  <line x1="567.846" y1="82" x2="567.846" y2="347.392" stroke="#f2f2f2" stroke-width="0.6" />
  <line x1="623.385" y1="82" x2="623.385" y2="347.392" stroke="#f2f2f2" stroke-width="0.6" />
  <line x1="678.923" y1="82" x2="678.923" y2="347.392" stroke="#f2f2f2" stroke-width="0.6" />
  <line x1="734.462" y1="82" x2="734.462" y2="347.392" stroke="#f2f2f2" stroke-width="0.6" />
  <line x1="68" y1="329.216" x2="790" y2="329.216" stroke="#f2f2f2" stroke-width="0.6" />
  <line x1="68" y1="292.865" x2="790" y2="292.865" stroke="#f2f2f2" stroke-width="0.6" />
  <line x1="68" y1="256.514" x2="790" y2="256.514" stroke="#f2f2f2" stroke-width="0.6" />
  <line x1="68" y1="220.163" x2="790" y2="220.163" stroke="#f2f2f2" stroke-width="0.6" />
  <line x1="68" y1="183.812" x2="790" y2="183.812" stroke="#f2f2f2" stroke-width="0.6" />
  <line x1="68" y1="147.461" x2="790" y2="147.461" stroke="#f2f2f2" stroke-width="0.6" />
  <line x1="68" y1="111.11" x2="790" y2="111.11" stroke="#f2f2f2" stroke-width="0.6" />
  <line x1="95.769" y1="82" x2="95.769" y2="347.392" stroke="#e6e6e6" stroke-width="1" />
  <line x1="151.308" y1="82" x2="151.308" y2="347.392" stroke="#e6e6e6" stroke-width="1" />
  <line x1="206.846" y1="82" x2="206.846" y2="347.392" stroke="#e6e6e6" stroke-width="1" />
  <line x1="262.385" y1="82" x2="262.385" y2="347.392" stroke="#e6e6e6" stroke-width="1" />
  <line x1="317.923" y1="82" x2="317.923" y2="347.392" stroke="#e6e6e6" stroke-width="1" />
  <line x1="373.462" y1="82" x2="373.462" y2="347.392" stroke="#e6e6e6" stroke-width="1" />
  <line x1="429" y1="82" x2="429" y2="347.392" stroke="#e6e6e6" stroke-width="1" />
  <line x1="484.538" y1="82" x2="484.538" y2="347.392" stroke="#e6e6e6" stroke-width="1" />
  <line x1="540.077" y1="82" x2="540.077" y2="347.392" stroke="#e6e6e6" stroke-width="1" />
  <line x1="595.615" y1="82" x2="595.615" y2="347.392" stroke="#e6e6e6" stroke-width="1" />
  <line x1="651.154" y1="82" x2="651.154" y2="347.392" stroke="#e6e6e6" stroke-width="1" />
  <line x1="706.692" y1="82" x2="706.692" y2="347.392" stroke="#e6e6e6" stroke-width="1" />
  <line x1="762.231" y1="82" x2="762.231" y2="347.392" stroke="#e6e6e6" stroke-width="1" />
  <line x1="68" y1="347.392" x2="790" y2="347.392" stroke="#e6e6e6" stroke-width="1" />
  <line x1="68" y1="311.041" x2="790" y2="311.041" stroke="#e6e6e6" stroke-width="1" />
  <line x1="68" y1="274.69" x2="790" y2="274.69" stroke="#e6e6e6" stroke-width="1" />
  <line x1="68" y1="238.339" x2="790" y2="238.339" stroke="#e6e6e6" stroke-width="1" />
  <line x1="68" y1="201.988" x2="790" y2="201.988" stroke="#e6e6e6" stroke-width="1" />
  <line x1="68" y1="165.636" x2="790" y2="165.636" stroke="#e6e6e6" stroke-width="1" />
  <line x1="68" y1="129.285" x2="790" y2="129.285" stroke="#e6e6e6" stroke-width="1" />
  <line x1="68" y1="92.934" x2="790" y2="92.934" stroke="#e6e6e6" stroke-width="1" />
</g>
<defs>
<clipPath id="algraf-clip-0"><rect x="0" y="0" width="820" height="347.392" /></clipPath>
</defs>
<g clip-path="url(#algraf-clip-0)">
  <g class="algraf-layer algraf-geom-bar">
    <rect x="73.554" y="343.611" width="44.431" height="3.781" fill="#2563eb" opacity="0.86"><title>day: 2026-03-05T00:00:00+00:00
lines_added: 520</title></rect>
    <rect x="129.092" y="101.659" width="44.431" height="245.733" fill="#2563eb" opacity="0.86"><title>day: 2026-03-06T00:00:00+00:00
lines_added: 33800</title></rect>
    <rect x="184.631" y="272.509" width="44.431" height="74.883" fill="#2563eb" opacity="0.86"><title>day: 2026-03-07T00:00:00+00:00
lines_added: 10300</title></rect>
    <rect x="295.708" y="110.383" width="44.431" height="237.009" fill="#2563eb" opacity="0.86"><title>day: 2026-03-09T00:00:00+00:00
lines_added: 32600</title></rect>
    <rect x="351.246" y="158.366" width="44.431" height="189.025" fill="#2563eb" opacity="0.86"><title>day: 2026-03-10T00:00:00+00:00
lines_added: 26000</title></rect>
    <rect x="462.323" y="344.265" width="44.431" height="3.126" fill="#2563eb" opacity="0.86"><title>day: 2026-03-12T00:00:00+00:00
lines_added: 430</title></rect>
    <rect x="628.938" y="329.943" width="44.431" height="17.448" fill="#2563eb" opacity="0.86"><title>day: 2026-03-15T00:00:00+00:00
lines_added: 2400</title></rect>
    <rect x="740.015" y="342.666" width="44.431" height="4.726" fill="#2563eb" opacity="0.86"><title>day: 2026-03-17T00:00:00+00:00
lines_added: 650</title></rect>
  </g>
</g>
<g class="algraf-axes">
  <line x1="68" y1="347.392" x2="790" y2="347.392" stroke="#333333" stroke-width="1" />
  <line x1="95.769" y1="347.392" x2="95.769" y2="352.392" stroke="#333333" stroke-width="1" />
  <text x="95.769" y="365.392" text-anchor="end" transform="rotate(-35 95.769 365.392)" font-family="system-ui, sans-serif" font-size="12" fill="#222222">Mar 5</text>
  <line x1="151.308" y1="347.392" x2="151.308" y2="352.392" stroke="#333333" stroke-width="1" />
  <text x="151.308" y="365.392" text-anchor="end" transform="rotate(-35 151.308 365.392)" font-family="system-ui, sans-serif" font-size="12" fill="#222222">Mar 6</text>
  <line x1="206.846" y1="347.392" x2="206.846" y2="352.392" stroke="#333333" stroke-width="1" />
  <text x="206.846" y="365.392" text-anchor="end" transform="rotate(-35 206.846 365.392)" font-family="system-ui, sans-serif" font-size="12" fill="#222222">Mar 7</text>
  <line x1="262.385" y1="347.392" x2="262.385" y2="352.392" stroke="#333333" stroke-width="1" />
  <text x="262.385" y="365.392" text-anchor="end" transform="rotate(-35 262.385 365.392)" font-family="system-ui, sans-serif" font-size="12" fill="#222222">Mar 8</text>
  <line x1="317.923" y1="347.392" x2="317.923" y2="352.392" stroke="#333333" stroke-width="1" />
  <text x="317.923" y="365.392" text-anchor="end" transform="rotate(-35 317.923 365.392)" font-family="system-ui, sans-serif" font-size="12" fill="#222222">Mar 9</text>
  <line x1="373.462" y1="347.392" x2="373.462" y2="352.392" stroke="#333333" stroke-width="1" />
  <text x="373.462" y="365.392" text-anchor="end" transform="rotate(-35 373.462 365.392)" font-family="system-ui, sans-serif" font-size="12" fill="#222222">Mar 10</text>
  <line x1="429" y1="347.392" x2="429" y2="352.392" stroke="#333333" stroke-width="1" />
  <text x="429" y="365.392" text-anchor="end" transform="rotate(-35 429 365.392)" font-family="system-ui, sans-serif" font-size="12" fill="#222222">Mar 11</text>
  <line x1="484.538" y1="347.392" x2="484.538" y2="352.392" stroke="#333333" stroke-width="1" />
  <text x="484.538" y="365.392" text-anchor="end" transform="rotate(-35 484.538 365.392)" font-family="system-ui, sans-serif" font-size="12" fill="#222222">Mar 12</text>
  <line x1="540.077" y1="347.392" x2="540.077" y2="352.392" stroke="#333333" stroke-width="1" />
  <text x="540.077" y="365.392" text-anchor="end" transform="rotate(-35 540.077 365.392)" font-family="system-ui, sans-serif" font-size="12" fill="#222222">Mar 13</text>
  <line x1="595.615" y1="347.392" x2="595.615" y2="352.392" stroke="#333333" stroke-width="1" />
  <text x="595.615" y="365.392" text-anchor="end" transform="rotate(-35 595.615 365.392)" font-family="system-ui, sans-serif" font-size="12" fill="#222222">Mar 14</text>
  <line x1="651.154" y1="347.392" x2="651.154" y2="352.392" stroke="#333333" stroke-width="1" />
  <text x="651.154" y="365.392" text-anchor="end" transform="rotate(-35 651.154 365.392)" font-family="system-ui, sans-serif" font-size="12" fill="#222222">Mar 15</text>
  <line x1="706.692" y1="347.392" x2="706.692" y2="352.392" stroke="#333333" stroke-width="1" />
  <text x="706.692" y="365.392" text-anchor="end" transform="rotate(-35 706.692 365.392)" font-family="system-ui, sans-serif" font-size="12" fill="#222222">Mar 16</text>
  <line x1="762.231" y1="347.392" x2="762.231" y2="352.392" stroke="#333333" stroke-width="1" />
  <text x="762.231" y="365.392" text-anchor="end" transform="rotate(-35 762.231 365.392)" font-family="system-ui, sans-serif" font-size="12" fill="#222222">Mar 17</text>
  <text x="429" y="408" text-anchor="middle" font-family="system-ui, sans-serif" font-size="12" fill="#222222">Date</text>
  <line x1="68" y1="82" x2="68" y2="347.392" stroke="#333333" stroke-width="1" />
  <line x1="63" y1="347.392" x2="68" y2="347.392" stroke="#333333" stroke-width="1" />
  <text x="60" y="351.392" text-anchor="end" font-family="system-ui, sans-serif" font-size="12" fill="#222222">0</text>
  <line x1="63" y1="311.041" x2="68" y2="311.041" stroke="#333333" stroke-width="1" />
  <text x="60" y="315.041" text-anchor="end" font-family="system-ui, sans-serif" font-size="12" fill="#222222">5000</text>
  <line x1="63" y1="274.69" x2="68" y2="274.69" stroke="#333333" stroke-width="1" />
  <text x="60" y="278.69" text-anchor="end" font-family="system-ui, sans-serif" font-size="12" fill="#222222">10000</text>
  <line x1="63" y1="238.339" x2="68" y2="238.339" stroke="#333333" stroke-width="1" />
  <text x="60" y="242.339" text-anchor="end" font-family="system-ui, sans-serif" font-size="12" fill="#222222">15000</text>
  <line x1="63" y1="201.988" x2="68" y2="201.988" stroke="#333333" stroke-width="1" />
  <text x="60" y="205.988" text-anchor="end" font-family="system-ui, sans-serif" font-size="12" fill="#222222">20000</text>
  <line x1="63" y1="165.636" x2="68" y2="165.636" stroke="#333333" stroke-width="1" />
  <text x="60" y="169.636" text-anchor="end" font-family="system-ui, sans-serif" font-size="12" fill="#222222">25000</text>
  <line x1="63" y1="129.285" x2="68" y2="129.285" stroke="#333333" stroke-width="1" />
  <text x="60" y="133.285" text-anchor="end" font-family="system-ui, sans-serif" font-size="12" fill="#222222">30000</text>
  <line x1="63" y1="92.934" x2="68" y2="92.934" stroke="#333333" stroke-width="1" />
  <text x="60" y="96.934" text-anchor="end" font-family="system-ui, sans-serif" font-size="12" fill="#222222">35000</text>
  <text x="12" y="214.696" text-anchor="middle" transform="rotate(-90 12 214.696)" font-family="system-ui, sans-serif" font-size="12" fill="#222222">Lines added</text>
</g>
</svg>
