<svg xmlns="http://www.w3.org/2000/svg" width="800" height="520" viewBox="0 0 800 520" role="img">
<rect class="algraf-background" x="0" y="0" width="800" height="520" fill="#ffffff" />
<rect class="algraf-plot-area" x="60" y="40" width="710" height="430" fill="#ffffff" />
<g class="algraf-grid">
  <line x1="104.375" y1="40" x2="104.375" y2="470" stroke="#f2f2f2" stroke-width="0.6" />
  <line x1="193.125" y1="40" x2="193.125" y2="470" stroke="#f2f2f2" stroke-width="0.6" />
  <line x1="281.875" y1="40" x2="281.875" y2="470" stroke="#f2f2f2" stroke-width="0.6" />
  <line x1="370.625" y1="40" x2="370.625" y2="470" stroke="#f2f2f2" stroke-width="0.6" />
  <line x1="459.375" y1="40" x2="459.375" y2="470" stroke="#f2f2f2" stroke-width="0.6" />
  <line x1="548.125" y1="40" x2="548.125" y2="470" stroke="#f2f2f2" stroke-width="0.6" />
  <line x1="636.875" y1="40" x2="636.875" y2="470" stroke="#f2f2f2" stroke-width="0.6" />
  <line x1="725.625" y1="40" x2="725.625" y2="470" stroke="#f2f2f2" stroke-width="0.6" />
  <line x1="60" y1="427" x2="770" y2="427" stroke="#f2f2f2" stroke-width="0.6" />
  <line x1="60" y1="341" x2="770" y2="341" stroke="#f2f2f2" stroke-width="0.6" />
  <line x1="60" y1="255" x2="770" y2="255" stroke="#f2f2f2" stroke-width="0.6" />
  <line x1="60" y1="169" x2="770" y2="169" stroke="#f2f2f2" stroke-width="0.6" />
  <line x1="60" y1="83" x2="770" y2="83" stroke="#f2f2f2" stroke-width="0.6" />
  <line x1="60" y1="40" x2="60" y2="470" stroke="#e6e6e6" stroke-width="1" />
  <line x1="148.75" y1="40" x2="148.75" y2="470" stroke="#e6e6e6" stroke-width="1" />
  <line x1="237.5" y1="40" x2="237.5" y2="470" stroke="#e6e6e6" stroke-width="1" />
  <line x1="326.25" y1="40" x2="326.25" y2="470" stroke="#e6e6e6" stroke-width="1" />
  <line x1="415" y1="40" x2="415" y2="470" stroke="#e6e6e6" stroke-width="1" />
  <line x1="503.75" y1="40" x2="503.75" y2="470" stroke="#e6e6e6" stroke-width="1" />
  <line x1="592.5" y1="40" x2="592.5" y2="470" stroke="#e6e6e6" stroke-width="1" />
  <line x1="681.25" y1="40" x2="681.25" y2="470" stroke="#e6e6e6" stroke-width="1" />
  <line x1="770" y1="40" x2="770" y2="470" stroke="#e6e6e6" stroke-width="1" />
  <line x1="60" y1="470" x2="770" y2="470" stroke="#e6e6e6" stroke-width="1" />
  <line x1="60" y1="384" x2="770" y2="384" stroke="#e6e6e6" stroke-width="1" />
  <line x1="60" y1="298" x2="770" y2="298" stroke="#e6e6e6" stroke-width="1" />
  <line x1="60" y1="212" x2="770" y2="212" stroke="#e6e6e6" stroke-width="1" />
  <line x1="60" y1="126" x2="770" y2="126" stroke="#e6e6e6" stroke-width="1" />
  <line x1="60" y1="40" x2="770" y2="40" stroke="#e6e6e6" stroke-width="1" />
</g>
<g class="algraf-layer algraf-geom-text">
  <text x="361.75" y="186.2" text-anchor="middle" font-family="system-ui, sans-serif" font-size="12" fill="#222222" opacity="1">Mean age at selection = 34</text>
  <text x="450.5" y="259.3" text-anchor="middle" font-family="system-ui, sans-serif" font-size="12" fill="#222222" opacity="1">Mean age at mission = 44</text>
  <text x="592.5" y="384" text-anchor="middle" font-family="system-ui, sans-serif" font-size="12" fill="#222222" opacity="1"><tspan x="592.5" dy="0">John Glenn was 77</tspan><tspan x="592.5" dy="1.2em">on his last mission -</tspan><tspan x="592.5" dy="1.2em">the oldest person to</tspan><tspan x="592.5" dy="1.2em">travel in space!</tspan></text>
</g>
<g class="algraf-axes">
  <line x1="60" y1="470" x2="770" y2="470" stroke="#333333" stroke-width="1" />
  <line x1="60" y1="470" x2="60" y2="475" stroke="#333333" stroke-width="1" />
  <text x="60" y="488" text-anchor="middle" font-family="system-ui, sans-serif" font-size="12" fill="#222222">0</text>
  <line x1="148.75" y1="470" x2="148.75" y2="475" stroke="#333333" stroke-width="1" />
  <text x="148.75" y="488" text-anchor="middle" font-family="system-ui, sans-serif" font-size="12" fill="#222222">10</text>
  <line x1="237.5" y1="470" x2="237.5" y2="475" stroke="#333333" stroke-width="1" />
  <text x="237.5" y="488" text-anchor="middle" font-family="system-ui, sans-serif" font-size="12" fill="#222222">20</text>
  <line x1="326.25" y1="470" x2="326.25" y2="475" stroke="#333333" stroke-width="1" />
  <text x="326.25" y="488" text-anchor="middle" font-family="system-ui, sans-serif" font-size="12" fill="#222222">30</text>
  <line x1="415" y1="470" x2="415" y2="475" stroke="#333333" stroke-width="1" />
  <text x="415" y="488" text-anchor="middle" font-family="system-ui, sans-serif" font-size="12" fill="#222222">40</text>
  <line x1="503.75" y1="470" x2="503.75" y2="475" stroke="#333333" stroke-width="1" />
  <text x="503.75" y="488" text-anchor="middle" font-family="system-ui, sans-serif" font-size="12" fill="#222222">50</text>
  <line x1="592.5" y1="470" x2="592.5" y2="475" stroke="#333333" stroke-width="1" />
  <text x="592.5" y="488" text-anchor="middle" font-family="system-ui, sans-serif" font-size="12" fill="#222222">60</text>
  <line x1="681.25" y1="470" x2="681.25" y2="475" stroke="#333333" stroke-width="1" />
  <text x="681.25" y="488" text-anchor="middle" font-family="system-ui, sans-serif" font-size="12" fill="#222222">70</text>
  <line x1="770" y1="470" x2="770" y2="475" stroke="#333333" stroke-width="1" />
  <text x="770" y="488" text-anchor="middle" font-family="system-ui, sans-serif" font-size="12" fill="#222222">80</text>
  <text x="415" y="508" text-anchor="middle" font-family="system-ui, sans-serif" font-size="12" fill="#222222">x</text>
  <line x1="60" y1="40" x2="60" y2="470" stroke="#333333" stroke-width="1" />
  <line x1="55" y1="470" x2="60" y2="470" stroke="#333333" stroke-width="1" />
  <text x="52" y="474" text-anchor="end" font-family="system-ui, sans-serif" font-size="12" fill="#222222">0</text>
  <line x1="55" y1="384" x2="60" y2="384" stroke="#333333" stroke-width="1" />
  <text x="52" y="388" text-anchor="end" font-family="system-ui, sans-serif" font-size="12" fill="#222222">20</text>
  <line x1="55" y1="298" x2="60" y2="298" stroke="#333333" stroke-width="1" />
  <text x="52" y="302" text-anchor="end" font-family="system-ui, sans-serif" font-size="12" fill="#222222">40</text>
  <line x1="55" y1="212" x2="60" y2="212" stroke="#333333" stroke-width="1" />
  <text x="52" y="216" text-anchor="end" font-family="system-ui, sans-serif" font-size="12" fill="#222222">60</text>
  <line x1="55" y1="126" x2="60" y2="126" stroke="#333333" stroke-width="1" />
  <text x="52" y="130" text-anchor="end" font-family="system-ui, sans-serif" font-size="12" fill="#222222">80</text>
  <line x1="55" y1="40" x2="60" y2="40" stroke="#333333" stroke-width="1" />
  <text x="52" y="44" text-anchor="end" font-family="system-ui, sans-serif" font-size="12" fill="#222222">100</text>
  <text x="18.4" y="255" text-anchor="middle" transform="rotate(-90 18.4 255)" font-family="system-ui, sans-serif" font-size="12" fill="#222222">y</text>
</g>
</svg>
