<svg xmlns="http://www.w3.org/2000/svg" width="780" height="420" viewBox="0 0 780 420" role="img" aria-label="Sparse checks keep real elapsed time">
<title>Sparse checks keep real elapsed time</title>
<rect class="algraf-background" x="0" y="0" width="780" height="420" fill="#ffffff" />
<text class="algraf-title" x="60" y="24" font-family="system-ui, sans-serif" font-size="18" font-weight="600" fill="#222222">Sparse checks keep real elapsed time</text>
<rect class="algraf-plot-area" x="60" y="66" width="690" height="304" fill="#ffffff" />
<g class="algraf-grid">
  <line x1="104.231" y1="66" x2="104.231" y2="370" stroke="#f2f2f2" stroke-width="0.6" />
  <line x1="192.692" y1="66" x2="192.692" y2="370" stroke="#f2f2f2" stroke-width="0.6" />
  <line x1="281.154" y1="66" x2="281.154" y2="370" stroke="#f2f2f2" stroke-width="0.6" />
  <line x1="369.615" y1="66" x2="369.615" y2="370" stroke="#f2f2f2" stroke-width="0.6" />
  <line x1="458.077" y1="66" x2="458.077" y2="370" stroke="#f2f2f2" stroke-width="0.6" />
  <line x1="546.538" y1="66" x2="546.538" y2="370" stroke="#f2f2f2" stroke-width="0.6" />
  <line x1="635" y1="66" x2="635" y2="370" stroke="#f2f2f2" stroke-width="0.6" />
  <line x1="60" y1="285.677" x2="750" y2="285.677" stroke="#f2f2f2" stroke-width="0.6" />
  <line x1="60" y1="228.08" x2="750" y2="228.08" stroke="#f2f2f2" stroke-width="0.6" />
  <line x1="60" y1="170.482" x2="750" y2="170.482" stroke="#f2f2f2" stroke-width="0.6" />
  <line x1="60" y1="112.884" x2="750" y2="112.884" stroke="#f2f2f2" stroke-width="0.6" />
  <line x1="60" y1="66" x2="60" y2="370" stroke="#e6e6e6" stroke-width="1" />
  <line x1="148.462" y1="66" x2="148.462" y2="370" stroke="#e6e6e6" stroke-width="1" />
  <line x1="236.923" y1="66" x2="236.923" y2="370" stroke="#e6e6e6" stroke-width="1" />
  <line x1="325.385" y1="66" x2="325.385" y2="370" stroke="#e6e6e6" stroke-width="1" />
  <line x1="413.846" y1="66" x2="413.846" y2="370" stroke="#e6e6e6" stroke-width="1" />
  <line x1="502.308" y1="66" x2="502.308" y2="370" stroke="#e6e6e6" stroke-width="1" />
  <line x1="590.769" y1="66" x2="590.769" y2="370" stroke="#e6e6e6" stroke-width="1" />
  <line x1="679.231" y1="66" x2="679.231" y2="370" stroke="#e6e6e6" stroke-width="1" />
  <line x1="60" y1="314.476" x2="750" y2="314.476" stroke="#e6e6e6" stroke-width="1" />
  <line x1="60" y1="256.878" x2="750" y2="256.878" stroke="#e6e6e6" stroke-width="1" />
  <line x1="60" y1="199.281" x2="750" y2="199.281" stroke="#e6e6e6" stroke-width="1" />
  <line x1="60" y1="141.683" x2="750" y2="141.683" stroke="#e6e6e6" stroke-width="1" />
  <line x1="60" y1="84.086" x2="750" y2="84.086" stroke="#e6e6e6" stroke-width="1" />
</g>
<g class="algraf-layer algraf-geom-line">
  <path d="M60 349.034 L77.692 314.476 L95.385 268.398 L113.077 216.56 L130.769 158.962 L183.846 138.803 L201.538 107.125 L219.231 92.725 L236.923 86.966 L254.615 95.605 L466.923 187.761 L484.615 135.923 L502.308 86.966 L555.385 127.284 L573.077 124.404 L590.769 133.044 L608.462 150.323 L626.154 170.482 L679.231 337.515 L696.923 334.635 L714.615 320.236 L732.308 291.437 L750 253.998" fill="none" stroke="#4c78a8" stroke-width="1.5" opacity="1" />
</g>
<g class="algraf-layer algraf-geom-point">
  <circle cx="60" cy="349.034" r="2.5" fill="#4c78a8" opacity="1" />
  <circle cx="77.692" cy="314.476" r="2.5" fill="#4c78a8" opacity="1" />
  <circle cx="95.385" cy="268.398" r="2.5" fill="#4c78a8" opacity="1" />
  <circle cx="113.077" cy="216.56" r="2.5" fill="#4c78a8" opacity="1" />
  <circle cx="130.769" cy="158.962" r="2.5" fill="#4c78a8" opacity="1" />
  <circle cx="183.846" cy="138.803" r="2.5" fill="#4c78a8" opacity="1" />
  <circle cx="201.538" cy="107.125" r="2.5" fill="#4c78a8" opacity="1" />
  <circle cx="219.231" cy="92.725" r="2.5" fill="#4c78a8" opacity="1" />
  <circle cx="236.923" cy="86.966" r="2.5" fill="#4c78a8" opacity="1" />
  <circle cx="254.615" cy="95.605" r="2.5" fill="#4c78a8" opacity="1" />
  <circle cx="466.923" cy="187.761" r="2.5" fill="#4c78a8" opacity="1" />
  <circle cx="484.615" cy="135.923" r="2.5" fill="#4c78a8" opacity="1" />
  <circle cx="502.308" cy="86.966" r="2.5" fill="#4c78a8" opacity="1" />
  <circle cx="555.385" cy="127.284" r="2.5" fill="#4c78a8" opacity="1" />
  <circle cx="573.077" cy="124.404" r="2.5" fill="#4c78a8" opacity="1" />
  <circle cx="590.769" cy="133.044" r="2.5" fill="#4c78a8" opacity="1" />
  <circle cx="608.462" cy="150.323" r="2.5" fill="#4c78a8" opacity="1" />
  <circle cx="626.154" cy="170.482" r="2.5" fill="#4c78a8" opacity="1" />
  <circle cx="679.231" cy="337.515" r="2.5" fill="#4c78a8" opacity="1" />
  <circle cx="696.923" cy="334.635" r="2.5" fill="#4c78a8" opacity="1" />
  <circle cx="714.615" cy="320.236" r="2.5" fill="#4c78a8" opacity="1" />
  <circle cx="732.308" cy="291.437" r="2.5" fill="#4c78a8" opacity="1" />
  <circle cx="750" cy="253.998" r="2.5" fill="#4c78a8" opacity="1" />
</g>
<g class="algraf-axes">
  <line x1="60" y1="370" x2="750" y2="370" stroke="#333333" stroke-width="1" />
  <line x1="60" y1="370" x2="60" y2="375" stroke="#333333" stroke-width="1" />
  <text x="60" y="388" text-anchor="middle" font-family="system-ui, sans-serif" font-size="12" fill="#222222">Jan 6</text>
  <line x1="148.462" y1="370" x2="148.462" y2="375" stroke="#333333" stroke-width="1" />
  <text x="148.462" y="388" text-anchor="middle" font-family="system-ui, sans-serif" font-size="12" fill="#222222">Jan 11</text>
  <line x1="236.923" y1="370" x2="236.923" y2="375" stroke="#333333" stroke-width="1" />
  <text x="236.923" y="388" text-anchor="middle" font-family="system-ui, sans-serif" font-size="12" fill="#222222">Jan 16</text>
  <line x1="325.385" y1="370" x2="325.385" y2="375" stroke="#333333" stroke-width="1" />
  <text x="325.385" y="388" text-anchor="middle" font-family="system-ui, sans-serif" font-size="12" fill="#222222">Jan 21</text>
  <line x1="413.846" y1="370" x2="413.846" y2="375" stroke="#333333" stroke-width="1" />
  <text x="413.846" y="388" text-anchor="middle" font-family="system-ui, sans-serif" font-size="12" fill="#222222">Jan 26</text>
  <line x1="502.308" y1="370" x2="502.308" y2="375" stroke="#333333" stroke-width="1" />
  <text x="502.308" y="388" text-anchor="middle" font-family="system-ui, sans-serif" font-size="12" fill="#222222">Jan 31</text>
  <line x1="590.769" y1="370" x2="590.769" y2="375" stroke="#333333" stroke-width="1" />
  <text x="590.769" y="388" text-anchor="middle" font-family="system-ui, sans-serif" font-size="12" fill="#222222">Feb 5</text>
  <line x1="679.231" y1="370" x2="679.231" y2="375" stroke="#333333" stroke-width="1" />
  <text x="679.231" y="388" text-anchor="middle" font-family="system-ui, sans-serif" font-size="12" fill="#222222">Feb 10</text>
  <text x="405" y="408" text-anchor="middle" font-family="system-ui, sans-serif" font-size="12" fill="#222222">Day</text>
  <line x1="60" y1="66" x2="60" y2="370" stroke="#333333" stroke-width="1" />
  <line x1="55" y1="314.476" x2="60" y2="314.476" stroke="#333333" stroke-width="1" />
  <text x="52" y="318.476" text-anchor="end" font-family="system-ui, sans-serif" font-size="12" fill="#222222">100</text>
  <line x1="55" y1="256.878" x2="60" y2="256.878" stroke="#333333" stroke-width="1" />
  <text x="52" y="260.878" text-anchor="end" font-family="system-ui, sans-serif" font-size="12" fill="#222222">120</text>
  <line x1="55" y1="199.281" x2="60" y2="199.281" stroke="#333333" stroke-width="1" />
  <text x="52" y="203.281" text-anchor="end" font-family="system-ui, sans-serif" font-size="12" fill="#222222">140</text>
  <line x1="55" y1="141.683" x2="60" y2="141.683" stroke="#333333" stroke-width="1" />
  <text x="52" y="145.683" text-anchor="end" font-family="system-ui, sans-serif" font-size="12" fill="#222222">160</text>
  <line x1="55" y1="84.086" x2="60" y2="84.086" stroke="#333333" stroke-width="1" />
  <text x="52" y="88.086" text-anchor="end" font-family="system-ui, sans-serif" font-size="12" fill="#222222">180</text>
  <text x="18.4" y="218" text-anchor="middle" transform="rotate(-90 18.4 218)" font-family="system-ui, sans-serif" font-size="12" fill="#222222">Response (ms)</text>
</g>
</svg>
