<svg xmlns="http://www.w3.org/2000/svg" width="400" height="400" viewBox="0 0 400 400" role="img" aria-label="TopoJSON Grid">
<title>TopoJSON Grid</title>
<desc>Arcs decode to the same geometry column as GeoJSON</desc>
<rect class="algraf-background" x="0" y="0" width="400" height="400" fill="#ffffff" />
<text class="algraf-title" x="10" y="24" font-family="system-ui, sans-serif" font-size="18" font-weight="600" fill="#222222">TopoJSON Grid</text>
<text class="algraf-subtitle" x="10" y="50" font-family="system-ui, sans-serif" font-size="12" fill="#222222">Arcs decode to the same geometry column as GeoJSON</text>
<rect class="algraf-plot-area" x="10" y="52" width="260" height="338" fill="#ffffff" />
<g class="algraf-layer algraf-geom-geo">
  <path d="M10 351L140 351L140 221L10 221L10 351Z" fill="#edf8e9" fill-rule="evenodd" stroke="#ffffff" stroke-width="1"/>
  <path d="M140 351L270 351L270 221L140 221L140 351Z" fill="#9ecaaa" fill-rule="evenodd" stroke="#ffffff" stroke-width="1"/>
  <path d="M10 221L140 221L140 91L10 91L10 221Z" fill="#4f9b6b" fill-rule="evenodd" stroke="#ffffff" stroke-width="1"/>
  <path d="M140 221L270 221L270 91L140 91L140 221Z" fill="#006d2c" fill-rule="evenodd" stroke="#ffffff" stroke-width="1"/>
</g>
<g class="algraf-layer algraf-geom-graticule">
  <path d="M10 351L10 346.667L10 342.333L10 338L10 333.667L10 329.333L10 325L10 320.667L10 316.333L10 312L10 307.667L10 303.333L10 299L10 294.667L10 290.333L10 286L10 281.667L10 277.333L10 273L10 268.667L10 264.333L10 260L10 255.667L10 251.333L10 247L10 242.667L10 238.333L10 234L10 229.667L10 225.333L10 221L10 216.667L10 212.333L10 208L10 203.667L10 199.333L10 195L10 190.667L10 186.333L10 182L10 177.667L10 173.333L10 169L10 164.667L10 160.333L10 156L10 151.667L10 147.333L10 143L10 138.667L10 134.333L10 130L10 125.667L10 121.333L10 117L10 112.667L10 108.333L10 104L10 99.667L10 95.333L10 91M140 351L140 346.667L140 342.333L140 338L140 333.667L140 329.333L140 325L140 320.667L140 316.333L140 312L140 307.667L140 303.333L140 299L140 294.667L140 290.333L140 286L140 281.667L140 277.333L140 273L140 268.667L140 264.333L140 260L140 255.667L140 251.333L140 247L140 242.667L140 238.333L140 234L140 229.667L140 225.333L140 221L140 216.667L140 212.333L140 208L140 203.667L140 199.333L140 195L140 190.667L140 186.333L140 182L140 177.667L140 173.333L140 169L140 164.667L140 160.333L140 156L140 151.667L140 147.333L140 143L140 138.667L140 134.333L140 130L140 125.667L140 121.333L140 117L140 112.667L140 108.333L140 104L140 99.667L140 95.333L140 91M270 351L270 346.667L270 342.333L270 338L270 333.667L270 329.333L270 325L270 320.667L270 316.333L270 312L270 307.667L270 303.333L270 299L270 294.667L270 290.333L270 286L270 281.667L270 277.333L270 273L270 268.667L270 264.333L270 260L270 255.667L270 251.333L270 247L270 242.667L270 238.333L270 234L270 229.667L270 225.333L270 221L270 216.667L270 212.333L270 208L270 203.667L270 199.333L270 195L270 190.667L270 186.333L270 182L270 177.667L270 173.333L270 169L270 164.667L270 160.333L270 156L270 151.667L270 147.333L270 143L270 138.667L270 134.333L270 130L270 125.667L270 121.333L270 117L270 112.667L270 108.333L270 104L270 99.667L270 95.333L270 91M10 351L14.333 351L18.667 351L23 351L27.333 351L31.667 351L36 351L40.333 351L44.667 351L49 351L53.333 351L57.667 351L62 351L66.333 351L70.667 351L75 351L79.333 351L83.667 351L88 351L92.333 351L96.667 351L101 351L105.333 351L109.667 351L114 351L118.333 351L122.667 351L127 351L131.333 351L135.667 351L140 351L144.333 351L148.667 351L153 351L157.333 351L161.667 351L166 351L170.333 351L174.667 351L179 351L183.333 351L187.667 351L192 351L196.333 351L200.667 351L205 351L209.333 351L213.667 351L218 351L222.333 351L226.667 351L231 351L235.333 351L239.667 351L244 351L248.333 351L252.667 351L257 351L261.333 351L265.667 351L270 351M10 221L14.333 221L18.667 221L23 221L27.333 221L31.667 221L36 221L40.333 221L44.667 221L49 221L53.333 221L57.667 221L62 221L66.333 221L70.667 221L75 221L79.333 221L83.667 221L88 221L92.333 221L96.667 221L101 221L105.333 221L109.667 221L114 221L118.333 221L122.667 221L127 221L131.333 221L135.667 221L140 221L144.333 221L148.667 221L153 221L157.333 221L161.667 221L166 221L170.333 221L174.667 221L179 221L183.333 221L187.667 221L192 221L196.333 221L200.667 221L205 221L209.333 221L213.667 221L218 221L222.333 221L226.667 221L231 221L235.333 221L239.667 221L244 221L248.333 221L252.667 221L257 221L261.333 221L265.667 221L270 221M10 91L14.333 91L18.667 91L23 91L27.333 91L31.667 91L36 91L40.333 91L44.667 91L49 91L53.333 91L57.667 91L62 91L66.333 91L70.667 91L75 91L79.333 91L83.667 91L88 91L92.333 91L96.667 91L101 91L105.333 91L109.667 91L114 91L118.333 91L122.667 91L127 91L131.333 91L135.667 91L140 91L144.333 91L148.667 91L153 91L157.333 91L161.667 91L166 91L170.333 91L174.667 91L179 91L183.333 91L187.667 91L192 91L196.333 91L200.667 91L205 91L209.333 91L213.667 91L218 91L222.333 91L226.667 91L231 91L235.333 91L239.667 91L244 91L248.333 91L252.667 91L257 91L261.333 91L265.667 91L270 91" fill="none" stroke="#bbbbbb" stroke-width="0.5"/>
</g>
<g class="algraf-legends">
  <text x="286" y="56" text-anchor="start" font-family="system-ui, sans-serif" font-size="12" fill="#222222">Value</text>
  <rect x="286" y="70" width="22" height="1.75" fill="#016d2c" />
  <rect x="286" y="71" width="22" height="1.75" fill="#026e2d" />
  <rect x="286" y="72" width="22" height="1.75" fill="#036f2e" />
  <rect x="286" y="73" width="22" height="1.75" fill="#046f2f" />
  <rect x="286" y="74" width="22" height="1.75" fill="#057030" />
  <rect x="286" y="75" width="22" height="1.75" fill="#067031" />
  <rect x="286" y="76" width="22" height="1.75" fill="#077132" />
  <rect x="286" y="77" width="22" height="1.75" fill="#087232" />
  <rect x="286" y="78" width="22" height="1.75" fill="#097233" />
  <rect x="286" y="79" width="22" height="1.75" fill="#0a7334" />
  <rect x="286" y="80" width="22" height="1.75" fill="#0b7435" />
  <rect x="286" y="81" width="22" height="1.75" fill="#0c7436" />
  <rect x="286" y="82" width="22" height="1.75" fill="#0d7537" />
  <rect x="286" y="83" width="22" height="1.75" fill="#0f7638" />
  <rect x="286" y="84" width="22" height="1.75" fill="#107638" />
  <rect x="286" y="85" width="22" height="1.75" fill="#117739" />
  <rect x="286" y="86" width="22" height="1.75" fill="#12773a" />
  <rect x="286" y="87" width="22" height="1.75" fill="#13783b" />
  <rect x="286" y="88" width="22" height="1.75" fill="#14793c" />
  <rect x="286" y="89" width="22" height="1.75" fill="#15793d" />
  <rect x="286" y="90" width="22" height="1.75" fill="#167a3e" />
  <rect x="286" y="91" width="22" height="1.75" fill="#177b3e" />
  <rect x="286" y="92" width="22" height="1.75" fill="#187b3f" />
  <rect x="286" y="93" width="22" height="1.75" fill="#197c40" />
  <rect x="286" y="94" width="22" height="1.75" fill="#1a7c41" />
  <rect x="286" y="95" width="22" height="1.75" fill="#1b7d42" />
  <rect x="286" y="96" width="22" height="1.75" fill="#1d7e43" />
  <rect x="286" y="97" width="22" height="1.75" fill="#1e7e44" />
  <rect x="286" y="98" width="22" height="1.75" fill="#1f7f44" />
  <rect x="286" y="99" width="22" height="1.75" fill="#208045" />
  <rect x="286" y="100" width="22" height="1.75" fill="#218046" />
  <rect x="286" y="101" width="22" height="1.75" fill="#228147" />
  <rect x="286" y="102" width="22" height="1.75" fill="#238248" />
  <rect x="286" y="103" width="22" height="1.75" fill="#248249" />
  <rect x="286" y="104" width="22" height="1.75" fill="#25834a" />
  <rect x="286" y="105" width="22" height="1.75" fill="#26834a" />
  <rect x="286" y="106" width="22" height="1.75" fill="#27844b" />
  <rect x="286" y="107" width="22" height="1.75" fill="#28854c" />
  <rect x="286" y="108" width="22" height="1.75" fill="#29854d" />
  <rect x="286" y="109" width="22" height="1.75" fill="#2b864e" />
  <rect x="286" y="110" width="22" height="1.75" fill="#2c874f" />
  <rect x="286" y="111" width="22" height="1.75" fill="#2d8750" />
  <rect x="286" y="112" width="22" height="1.75" fill="#2e8851" />
  <rect x="286" y="113" width="22" height="1.75" fill="#2f8851" />
  <rect x="286" y="114" width="22" height="1.75" fill="#308952" />
  <rect x="286" y="115" width="22" height="1.75" fill="#318a53" />
  <rect x="286" y="116" width="22" height="1.75" fill="#328a54" />
  <rect x="286" y="117" width="22" height="1.75" fill="#338b55" />
  <rect x="286" y="118" width="22" height="1.75" fill="#348c56" />
  <rect x="286" y="119" width="22" height="1.75" fill="#358c57" />
  <rect x="286" y="120" width="22" height="1.75" fill="#368d57" />
  <rect x="286" y="121" width="22" height="1.75" fill="#378e58" />
  <rect x="286" y="122" width="22" height="1.75" fill="#398e59" />
  <rect x="286" y="123" width="22" height="1.75" fill="#3a8f5a" />
  <rect x="286" y="124" width="22" height="1.75" fill="#3b8f5b" />
  <rect x="286" y="125" width="22" height="1.75" fill="#3c905c" />
  <rect x="286" y="126" width="22" height="1.75" fill="#3d915d" />
  <rect x="286" y="127" width="22" height="1.75" fill="#3e915d" />
  <rect x="286" y="128" width="22" height="1.75" fill="#3f925e" />
  <rect x="286" y="129" width="22" height="1.75" fill="#40935f" />
  <rect x="286" y="130" width="22" height="1.75" fill="#419360" />
  <rect x="286" y="131" width="22" height="1.75" fill="#429461" />
  <rect x="286" y="132" width="22" height="1.75" fill="#439462" />
  <rect x="286" y="133" width="22" height="1.75" fill="#449563" />
  <rect x="286" y="134" width="22" height="1.75" fill="#459663" />
  <rect x="286" y="135" width="22" height="1.75" fill="#479664" />
  <rect x="286" y="136" width="22" height="1.75" fill="#489765" />
  <rect x="286" y="137" width="22" height="1.75" fill="#499866" />
  <rect x="286" y="138" width="22" height="1.75" fill="#4a9867" />
  <rect x="286" y="139" width="22" height="1.75" fill="#4b9968" />
  <rect x="286" y="140" width="22" height="1.75" fill="#4c9a69" />
  <rect x="286" y="141" width="22" height="1.75" fill="#4d9a69" />
  <rect x="286" y="142" width="22" height="1.75" fill="#4e9b6a" />
  <rect x="286" y="143" width="22" height="1.75" fill="#4f9b6b" />
  <rect x="286" y="144" width="22" height="1.75" fill="#509c6c" />
  <rect x="286" y="145" width="22" height="1.75" fill="#519d6d" />
  <rect x="286" y="146" width="22" height="1.75" fill="#529d6e" />
  <rect x="286" y="147" width="22" height="1.75" fill="#539e6f" />
  <rect x="286" y="148" width="22" height="1.75" fill="#559f6f" />
  <rect x="286" y="149" width="22" height="1.75" fill="#569f70" />
  <rect x="286" y="150" width="22" height="1.75" fill="#57a071" />
  <rect x="286" y="151" width="22" height="1.75" fill="#58a072" />
  <rect x="286" y="152" width="22" height="1.75" fill="#59a173" />
  <rect x="286" y="153" width="22" height="1.75" fill="#5aa274" />
  <rect x="286" y="154" width="22" height="1.75" fill="#5ba275" />
  <rect x="286" y="155" width="22" height="1.75" fill="#5ca375" />
  <rect x="286" y="156" width="22" height="1.75" fill="#5da476" />
  <rect x="286" y="157" width="22" height="1.75" fill="#5ea477" />
  <rect x="286" y="158" width="22" height="1.75" fill="#5fa578" />
  <rect x="286" y="159" width="22" height="1.75" fill="#60a679" />
  <rect x="286" y="160" width="22" height="1.75" fill="#61a67a" />
  <rect x="286" y="161" width="22" height="1.75" fill="#63a77b" />
  <rect x="286" y="162" width="22" height="1.75" fill="#64a77b" />
  <rect x="286" y="163" width="22" height="1.75" fill="#65a87c" />
  <rect x="286" y="164" width="22" height="1.75" fill="#66a97d" />
  <rect x="286" y="165" width="22" height="1.75" fill="#67a97e" />
  <rect x="286" y="166" width="22" height="1.75" fill="#68aa7f" />
  <rect x="286" y="167" width="22" height="1.75" fill="#69ab80" />
  <rect x="286" y="168" width="22" height="1.75" fill="#6aab81" />
  <rect x="286" y="169" width="22" height="1.75" fill="#6bac81" />
  <rect x="286" y="170" width="22" height="1.75" fill="#6cac82" />
  <rect x="286" y="171" width="22" height="1.75" fill="#6dad83" />
  <rect x="286" y="172" width="22" height="1.75" fill="#6eae84" />
  <rect x="286" y="173" width="22" height="1.75" fill="#6fae85" />
  <rect x="286" y="174" width="22" height="1.75" fill="#71af86" />
  <rect x="286" y="175" width="22" height="1.75" fill="#72b087" />
  <rect x="286" y="176" width="22" height="1.75" fill="#73b087" />
  <rect x="286" y="177" width="22" height="1.75" fill="#74b188" />
  <rect x="286" y="178" width="22" height="1.75" fill="#75b289" />
  <rect x="286" y="179" width="22" height="1.75" fill="#76b28a" />
  <rect x="286" y="180" width="22" height="1.75" fill="#77b38b" />
  <rect x="286" y="181" width="22" height="1.75" fill="#78b38c" />
  <rect x="286" y="182" width="22" height="1.75" fill="#79b48d" />
  <rect x="286" y="183" width="22" height="1.75" fill="#7ab58e" />
  <rect x="286" y="184" width="22" height="1.75" fill="#7bb58e" />
  <rect x="286" y="185" width="22" height="1.75" fill="#7cb68f" />
  <rect x="286" y="186" width="22" height="1.75" fill="#7eb790" />
  <rect x="286" y="187" width="22" height="1.75" fill="#7fb791" />
  <rect x="286" y="188" width="22" height="1.75" fill="#80b892" />
  <rect x="286" y="189" width="22" height="1.75" fill="#81b993" />
  <rect x="286" y="190" width="22" height="1.75" fill="#82b994" />
  <rect x="286" y="191" width="22" height="1.75" fill="#83ba94" />
  <rect x="286" y="192" width="22" height="1.75" fill="#84ba95" />
  <rect x="286" y="193" width="22" height="1.75" fill="#85bb96" />
  <rect x="286" y="194" width="22" height="1.75" fill="#86bc97" />
  <rect x="286" y="195" width="22" height="1.75" fill="#87bc98" />
  <rect x="286" y="196" width="22" height="1.75" fill="#88bd99" />
  <rect x="286" y="197" width="22" height="1.75" fill="#89be9a" />
  <rect x="286" y="198" width="22" height="1.75" fill="#8abe9a" />
  <rect x="286" y="199" width="22" height="1.75" fill="#8cbf9b" />
  <rect x="286" y="200" width="22" height="1.75" fill="#8dbf9c" />
  <rect x="286" y="201" width="22" height="1.75" fill="#8ec09d" />
  <rect x="286" y="202" width="22" height="1.75" fill="#8fc19e" />
  <rect x="286" y="203" width="22" height="1.75" fill="#90c19f" />
  <rect x="286" y="204" width="22" height="1.75" fill="#91c2a0" />
  <rect x="286" y="205" width="22" height="1.75" fill="#92c3a0" />
  <rect x="286" y="206" width="22" height="1.75" fill="#93c3a1" />
  <rect x="286" y="207" width="22" height="1.75" fill="#94c4a2" />
  <rect x="286" y="208" width="22" height="1.75" fill="#95c5a3" />
  <rect x="286" y="209" width="22" height="1.75" fill="#96c5a4" />
  <rect x="286" y="210" width="22" height="1.75" fill="#97c6a5" />
  <rect x="286" y="211" width="22" height="1.75" fill="#98c6a6" />
  <rect x="286" y="212" width="22" height="1.75" fill="#9ac7a6" />
  <rect x="286" y="213" width="22" height="1.75" fill="#9bc8a7" />
  <rect x="286" y="214" width="22" height="1.75" fill="#9cc8a8" />
  <rect x="286" y="215" width="22" height="1.75" fill="#9dc9a9" />
  <rect x="286" y="216" width="22" height="1.75" fill="#9ecaaa" />
  <rect x="286" y="217" width="22" height="1.75" fill="#9fcaab" />
  <rect x="286" y="218" width="22" height="1.75" fill="#a0cbac" />
  <rect x="286" y="219" width="22" height="1.75" fill="#a1cbac" />
  <rect x="286" y="220" width="22" height="1.75" fill="#a2ccad" />
  <rect x="286" y="221" width="22" height="1.75" fill="#a3cdae" />
  <rect x="286" y="222" width="22" height="1.75" fill="#a4cdaf" />
  <rect x="286" y="223" width="22" height="1.75" fill="#a5ceb0" />
  <rect x="286" y="224" width="22" height="1.75" fill="#a6cfb1" />
  <rect x="286" y="225" width="22" height="1.75" fill="#a8cfb2" />
  <rect x="286" y="226" width="22" height="1.75" fill="#a9d0b2" />
  <rect x="286" y="227" width="22" height="1.75" fill="#aad1b3" />
  <rect x="286" y="228" width="22" height="1.75" fill="#abd1b4" />
  <rect x="286" y="229" width="22" height="1.75" fill="#acd2b5" />
  <rect x="286" y="230" width="22" height="1.75" fill="#add2b6" />
  <rect x="286" y="231" width="22" height="1.75" fill="#aed3b7" />
  <rect x="286" y="232" width="22" height="1.75" fill="#afd4b8" />
  <rect x="286" y="233" width="22" height="1.75" fill="#b0d4b8" />
  <rect x="286" y="234" width="22" height="1.75" fill="#b1d5b9" />
  <rect x="286" y="235" width="22" height="1.75" fill="#b2d6ba" />
  <rect x="286" y="236" width="22" height="1.75" fill="#b3d6bb" />
  <rect x="286" y="237" width="22" height="1.75" fill="#b4d7bc" />
  <rect x="286" y="238" width="22" height="1.75" fill="#b6d7bd" />
  <rect x="286" y="239" width="22" height="1.75" fill="#b7d8be" />
  <rect x="286" y="240" width="22" height="1.75" fill="#b8d9be" />
  <rect x="286" y="241" width="22" height="1.75" fill="#b9d9bf" />
  <rect x="286" y="242" width="22" height="1.75" fill="#badac0" />
  <rect x="286" y="243" width="22" height="1.75" fill="#bbdbc1" />
  <rect x="286" y="244" width="22" height="1.75" fill="#bcdbc2" />
  <rect x="286" y="245" width="22" height="1.75" fill="#bddcc3" />
  <rect x="286" y="246" width="22" height="1.75" fill="#beddc4" />
  <rect x="286" y="247" width="22" height="1.75" fill="#bfddc4" />
  <rect x="286" y="248" width="22" height="1.75" fill="#c0dec5" />
  <rect x="286" y="249" width="22" height="1.75" fill="#c1dec6" />
  <rect x="286" y="250" width="22" height="1.75" fill="#c2dfc7" />
  <rect x="286" y="251" width="22" height="1.75" fill="#c4e0c8" />
  <rect x="286" y="252" width="22" height="1.75" fill="#c5e0c9" />
  <rect x="286" y="253" width="22" height="1.75" fill="#c6e1ca" />
  <rect x="286" y="254" width="22" height="1.75" fill="#c7e2cb" />
  <rect x="286" y="255" width="22" height="1.75" fill="#c8e2cb" />
  <rect x="286" y="256" width="22" height="1.75" fill="#c9e3cc" />
  <rect x="286" y="257" width="22" height="1.75" fill="#cae3cd" />
  <rect x="286" y="258" width="22" height="1.75" fill="#cbe4ce" />
  <rect x="286" y="259" width="22" height="1.75" fill="#cce5cf" />
  <rect x="286" y="260" width="22" height="1.75" fill="#cde5d0" />
  <rect x="286" y="261" width="22" height="1.75" fill="#cee6d1" />
  <rect x="286" y="262" width="22" height="1.75" fill="#cfe7d1" />
  <rect x="286" y="263" width="22" height="1.75" fill="#d0e7d2" />
  <rect x="286" y="264" width="22" height="1.75" fill="#d2e8d3" />
  <rect x="286" y="265" width="22" height="1.75" fill="#d3e9d4" />
  <rect x="286" y="266" width="22" height="1.75" fill="#d4e9d5" />
  <rect x="286" y="267" width="22" height="1.75" fill="#d5ead6" />
  <rect x="286" y="268" width="22" height="1.75" fill="#d6ead7" />
  <rect x="286" y="269" width="22" height="1.75" fill="#d7ebd7" />
  <rect x="286" y="270" width="22" height="1.75" fill="#d8ecd8" />
  <rect x="286" y="271" width="22" height="1.75" fill="#d9ecd9" />
  <rect x="286" y="272" width="22" height="1.75" fill="#daedda" />
  <rect x="286" y="273" width="22" height="1.75" fill="#dbeedb" />
  <rect x="286" y="274" width="22" height="1.75" fill="#dceedc" />
  <rect x="286" y="275" width="22" height="1.75" fill="#ddefdd" />
  <rect x="286" y="276" width="22" height="1.75" fill="#deefdd" />
  <rect x="286" y="277" width="22" height="1.75" fill="#e0f0de" />
  <rect x="286" y="278" width="22" height="1.75" fill="#e1f1df" />
  <rect x="286" y="279" width="22" height="1.75" fill="#e2f1e0" />
  <rect x="286" y="280" width="22" height="1.75" fill="#e3f2e1" />
  <rect x="286" y="281" width="22" height="1.75" fill="#e4f3e2" />
  <rect x="286" y="282" width="22" height="1.75" fill="#e5f3e3" />
  <rect x="286" y="283" width="22" height="1.75" fill="#e6f4e3" />
  <rect x="286" y="284" width="22" height="1.75" fill="#e7f5e4" />
  <rect x="286" y="285" width="22" height="1.75" fill="#e8f5e5" />
  <rect x="286" y="286" width="22" height="1.75" fill="#e9f6e6" />
  <rect x="286" y="287" width="22" height="1.75" fill="#eaf6e7" />
  <rect x="286" y="288" width="22" height="1.75" fill="#ebf7e8" />
  <rect x="286" y="289" width="22" height="1" fill="#ecf8e9" />
  <text x="316" y="294" text-anchor="start" font-family="system-ui, sans-serif" font-size="12" fill="#222222">10</text>
  <text x="316" y="239" text-anchor="start" font-family="system-ui, sans-serif" font-size="12" fill="#222222">17.5</text>
  <text x="316" y="184" text-anchor="start" font-family="system-ui, sans-serif" font-size="12" fill="#222222">25</text>
  <text x="316" y="129" text-anchor="start" font-family="system-ui, sans-serif" font-size="12" fill="#222222">32.5</text>
  <text x="316" y="74" text-anchor="start" font-family="system-ui, sans-serif" font-size="12" fill="#222222">40</text>
</g>
</svg>
