<svg xmlns="http://www.w3.org/2000/svg" width="720" height="440" viewBox="0 0 720 440" role="img" aria-label="Dose response intervals">
<title>Dose response intervals</title>
<rect class="algraf-background" x="0" y="0" width="720" height="440" fill="#ffffff" />
<text class="algraf-title" x="60" y="24" font-family="system-ui, sans-serif" font-size="18" font-weight="600" fill="#222222">Dose response intervals</text>
<rect class="algraf-plot-area" x="60" y="66" width="510" height="324" fill="#ffffff" />
<g class="algraf-grid">
  <line x1="163.395" y1="66" x2="163.395" y2="390" stroke="#f2f2f2" stroke-width="0.6" />
  <line x1="264.465" y1="66" x2="264.465" y2="390" stroke="#f2f2f2" stroke-width="0.6" />
  <line x1="365.535" y1="66" x2="365.535" y2="390" stroke="#f2f2f2" stroke-width="0.6" />
  <line x1="466.605" y1="66" x2="466.605" y2="390" stroke="#f2f2f2" stroke-width="0.6" />
  <line x1="60" y1="310.653" x2="570" y2="310.653" stroke="#f2f2f2" stroke-width="0.6" />
  <line x1="60" y1="253.651" x2="570" y2="253.651" stroke="#f2f2f2" stroke-width="0.6" />
  <line x1="60" y1="196.649" x2="570" y2="196.649" stroke="#f2f2f2" stroke-width="0.6" />
  <line x1="60" y1="139.647" x2="570" y2="139.647" stroke="#f2f2f2" stroke-width="0.6" />
  <line x1="112.86" y1="66" x2="112.86" y2="390" stroke="#e6e6e6" stroke-width="1" />
  <line x1="213.93" y1="66" x2="213.93" y2="390" stroke="#e6e6e6" stroke-width="1" />
  <line x1="315" y1="66" x2="315" y2="390" stroke="#e6e6e6" stroke-width="1" />
  <line x1="416.07" y1="66" x2="416.07" y2="390" stroke="#e6e6e6" stroke-width="1" />
  <line x1="517.14" y1="66" x2="517.14" y2="390" stroke="#e6e6e6" stroke-width="1" />
  <line x1="60" y1="339.154" x2="570" y2="339.154" stroke="#e6e6e6" stroke-width="1" />
  <line x1="60" y1="282.152" x2="570" y2="282.152" stroke="#e6e6e6" stroke-width="1" />
  <line x1="60" y1="225.15" x2="570" y2="225.15" stroke="#e6e6e6" stroke-width="1" />
  <line x1="60" y1="168.148" x2="570" y2="168.148" stroke="#e6e6e6" stroke-width="1" />
  <line x1="60" y1="111.146" x2="570" y2="111.146" stroke="#e6e6e6" stroke-width="1" />
</g>
<g class="algraf-layer algraf-geom-segment">
  <line x1="112.86" y1="367.655" x2="112.86" y2="287.852" stroke="#333333" stroke-width="1.2" opacity="1" />
  <line x1="95.172" y1="367.655" x2="130.547" y2="367.655" stroke="#333333" stroke-width="1.2" opacity="1" />
  <line x1="95.172" y1="287.852" x2="130.547" y2="287.852" stroke="#333333" stroke-width="1.2" opacity="1" />
  <line x1="213.93" y1="316.353" x2="213.93" y2="236.55" stroke="#333333" stroke-width="1.2" opacity="1" />
  <line x1="196.243" y1="316.353" x2="231.617" y2="316.353" stroke="#333333" stroke-width="1.2" opacity="1" />
  <line x1="196.243" y1="236.55" x2="231.617" y2="236.55" stroke="#333333" stroke-width="1.2" opacity="1" />
  <line x1="315" y1="242.251" x2="315" y2="156.747" stroke="#333333" stroke-width="1.2" opacity="1" />
  <line x1="297.313" y1="242.251" x2="332.687" y2="242.251" stroke="#333333" stroke-width="1.2" opacity="1" />
  <line x1="297.313" y1="156.747" x2="332.687" y2="156.747" stroke="#333333" stroke-width="1.2" opacity="1" />
  <line x1="416.07" y1="219.45" x2="416.07" y2="122.546" stroke="#333333" stroke-width="1.2" opacity="1" />
  <line x1="398.383" y1="219.45" x2="433.757" y2="219.45" stroke="#333333" stroke-width="1.2" opacity="1" />
  <line x1="398.383" y1="122.546" x2="433.757" y2="122.546" stroke="#333333" stroke-width="1.2" opacity="1" />
  <line x1="517.14" y1="179.548" x2="517.14" y2="88.345" stroke="#333333" stroke-width="1.2" opacity="1" />
  <line x1="499.453" y1="179.548" x2="534.828" y2="179.548" stroke="#333333" stroke-width="1.2" opacity="1" />
  <line x1="499.453" y1="88.345" x2="534.828" y2="88.345" stroke="#333333" stroke-width="1.2" opacity="1" />
</g>
<g class="algraf-layer algraf-geom-point">
  <circle cx="112.86" cy="327.754" r="4" fill="#006BA4" opacity="1" />
  <circle cx="213.93" cy="276.452" r="4" fill="#FF800E" opacity="1" />
  <circle cx="315" cy="202.349" r="4" fill="#ABABAB" opacity="1" />
  <circle cx="416.07" cy="173.848" r="4" fill="#595959" opacity="1" />
  <circle cx="517.14" cy="133.947" r="4" fill="#5F9ED1" opacity="1" />
</g>
<g class="algraf-axes">
  <line x1="60" y1="390" x2="570" y2="390" stroke="#333333" stroke-width="1" />
  <line x1="112.86" y1="390" x2="112.86" y2="395" stroke="#333333" stroke-width="1" />
  <text x="112.86" y="408" text-anchor="middle" font-family="system-ui, sans-serif" font-size="12" fill="#222222">1</text>
  <line x1="213.93" y1="390" x2="213.93" y2="395" stroke="#333333" stroke-width="1" />
  <text x="213.93" y="408" text-anchor="middle" font-family="system-ui, sans-serif" font-size="12" fill="#222222">2</text>
  <line x1="315" y1="390" x2="315" y2="395" stroke="#333333" stroke-width="1" />
  <text x="315" y="408" text-anchor="middle" font-family="system-ui, sans-serif" font-size="12" fill="#222222">3</text>
  <line x1="416.07" y1="390" x2="416.07" y2="395" stroke="#333333" stroke-width="1" />
  <text x="416.07" y="408" text-anchor="middle" font-family="system-ui, sans-serif" font-size="12" fill="#222222">4</text>
  <line x1="517.14" y1="390" x2="517.14" y2="395" stroke="#333333" stroke-width="1" />
  <text x="517.14" y="408" text-anchor="middle" font-family="system-ui, sans-serif" font-size="12" fill="#222222">5</text>
  <text x="315" y="428" text-anchor="middle" font-family="system-ui, sans-serif" font-size="12" fill="#222222">Dose</text>
  <line x1="60" y1="66" x2="60" y2="390" stroke="#333333" stroke-width="1" />
  <line x1="55" y1="339.154" x2="60" y2="339.154" stroke="#333333" stroke-width="1" />
  <text x="52" y="343.154" text-anchor="end" font-family="system-ui, sans-serif" font-size="12" fill="#222222">4</text>
  <line x1="55" y1="282.152" x2="60" y2="282.152" stroke="#333333" stroke-width="1" />
  <text x="52" y="286.152" text-anchor="end" font-family="system-ui, sans-serif" font-size="12" fill="#222222">5</text>
  <line x1="55" y1="225.15" x2="60" y2="225.15" stroke="#333333" stroke-width="1" />
  <text x="52" y="229.15" text-anchor="end" font-family="system-ui, sans-serif" font-size="12" fill="#222222">6</text>
  <line x1="55" y1="168.148" x2="60" y2="168.148" stroke="#333333" stroke-width="1" />
  <text x="52" y="172.148" text-anchor="end" font-family="system-ui, sans-serif" font-size="12" fill="#222222">7</text>
  <line x1="55" y1="111.146" x2="60" y2="111.146" stroke="#333333" stroke-width="1" />
  <text x="52" y="115.146" text-anchor="end" font-family="system-ui, sans-serif" font-size="12" fill="#222222">8</text>
  <text x="32.8" y="228" text-anchor="middle" transform="rotate(-90 32.8 228)" font-family="system-ui, sans-serif" font-size="12" fill="#222222">Estimated response</text>
</g>
<g class="algraf-legends">
  <text x="586" y="70" text-anchor="start" font-family="system-ui, sans-serif" font-size="12" fill="#222222">cohort</text>
  <rect x="586" y="78" width="12" height="12" fill="#006BA4" />
  <text x="604" y="88" text-anchor="start" font-family="system-ui, sans-serif" font-size="12" fill="#222222">Alpha</text>
  <rect x="586" y="96" width="12" height="12" fill="#FF800E" />
  <text x="604" y="106" text-anchor="start" font-family="system-ui, sans-serif" font-size="12" fill="#222222">Beta</text>
  <rect x="586" y="114" width="12" height="12" fill="#ABABAB" />
  <text x="604" y="124" text-anchor="start" font-family="system-ui, sans-serif" font-size="12" fill="#222222">Gamma</text>
  <rect x="586" y="132" width="12" height="12" fill="#595959" />
  <text x="604" y="142" text-anchor="start" font-family="system-ui, sans-serif" font-size="12" fill="#222222">Delta</text>
  <rect x="586" y="150" width="12" height="12" fill="#5F9ED1" />
  <text x="604" y="160" text-anchor="start" font-family="system-ui, sans-serif" font-size="12" fill="#222222">Epsilon</text>
</g>
</svg>
