<svg xmlns="http://www.w3.org/2000/svg" width="760" height="460" viewBox="0 0 760 460" role="img" aria-label="Quarterly amount with reversed y axis">
<title>Quarterly amount with reversed y axis</title>
<rect class="algraf-background" x="0" y="0" width="760" height="460" fill="#ffffff" />
<text class="algraf-title" x="60" y="24" font-family="system-ui, sans-serif" font-size="18" font-weight="600" fill="#222222">Quarterly amount with reversed y axis</text>
<rect class="algraf-plot-area" x="60" y="66" width="550" height="344" fill="#ffffff" />
<g class="algraf-grid">
  <line x1="60" y1="92.108" x2="610" y2="92.108" stroke="#f2f2f2" stroke-width="0.6" />
  <line x1="60" y1="144.324" x2="610" y2="144.324" stroke="#f2f2f2" stroke-width="0.6" />
  <line x1="60" y1="196.54" x2="610" y2="196.54" stroke="#f2f2f2" stroke-width="0.6" />
  <line x1="60" y1="248.757" x2="610" y2="248.757" stroke="#f2f2f2" stroke-width="0.6" />
  <line x1="60" y1="300.973" x2="610" y2="300.973" stroke="#f2f2f2" stroke-width="0.6" />
  <line x1="60" y1="353.189" x2="610" y2="353.189" stroke="#f2f2f2" stroke-width="0.6" />
  <line x1="60" y1="66" x2="610" y2="66" stroke="#e6e6e6" stroke-width="1" />
  <line x1="60" y1="118.216" x2="610" y2="118.216" stroke="#e6e6e6" stroke-width="1" />
  <line x1="60" y1="170.432" x2="610" y2="170.432" stroke="#e6e6e6" stroke-width="1" />
  <line x1="60" y1="222.648" x2="610" y2="222.648" stroke="#e6e6e6" stroke-width="1" />
  <line x1="60" y1="274.865" x2="610" y2="274.865" stroke="#e6e6e6" stroke-width="1" />
  <line x1="60" y1="327.081" x2="610" y2="327.081" stroke="#e6e6e6" stroke-width="1" />
  <line x1="60" y1="379.297" x2="610" y2="379.297" stroke="#e6e6e6" stroke-width="1" />
</g>
<g class="algraf-layer algraf-geom-bar">
  <rect x="73.75" y="66" width="110" height="109.654" fill="#4E79A7" opacity="0.88" />
  <rect x="73.75" y="175.654" width="110" height="62.659" fill="#F28E2B" opacity="0.88" />
  <rect x="73.75" y="238.313" width="110" height="46.995" fill="#E15759" opacity="0.88" />
  <rect x="211.25" y="66" width="110" height="122.708" fill="#4E79A7" opacity="0.88" />
  <rect x="211.25" y="188.708" width="110" height="75.713" fill="#F28E2B" opacity="0.88" />
  <rect x="211.25" y="264.421" width="110" height="41.773" fill="#E15759" opacity="0.88" />
  <rect x="348.75" y="66" width="110" height="138.373" fill="#4E79A7" opacity="0.88" />
  <rect x="348.75" y="204.373" width="110" height="80.935" fill="#F28E2B" opacity="0.88" />
  <rect x="348.75" y="285.308" width="110" height="54.827" fill="#E15759" opacity="0.88" />
  <rect x="486.25" y="66" width="110" height="159.259" fill="#4E79A7" opacity="0.88" />
  <rect x="486.25" y="225.259" width="110" height="93.989" fill="#F28E2B" opacity="0.88" />
  <rect x="486.25" y="319.248" width="110" height="65.27" fill="#E15759" opacity="0.88" />
</g>
<g class="algraf-axes">
  <line x1="60" y1="410" x2="610" y2="410" stroke="#333333" stroke-width="1" />
  <line x1="128.75" y1="410" x2="128.75" y2="415" stroke="#333333" stroke-width="1" />
  <text x="128.75" y="428" text-anchor="middle" font-family="system-ui, sans-serif" font-size="12" fill="#222222">Q1</text>
  <line x1="266.25" y1="410" x2="266.25" y2="415" stroke="#333333" stroke-width="1" />
  <text x="266.25" y="428" text-anchor="middle" font-family="system-ui, sans-serif" font-size="12" fill="#222222">Q2</text>
  <line x1="403.75" y1="410" x2="403.75" y2="415" stroke="#333333" stroke-width="1" />
  <text x="403.75" y="428" text-anchor="middle" font-family="system-ui, sans-serif" font-size="12" fill="#222222">Q3</text>
  <line x1="541.25" y1="410" x2="541.25" y2="415" stroke="#333333" stroke-width="1" />
  <text x="541.25" y="428" text-anchor="middle" font-family="system-ui, sans-serif" font-size="12" fill="#222222">Q4</text>
  <text x="335" y="448" text-anchor="middle" font-family="system-ui, sans-serif" font-size="12" fill="#222222">Quarter</text>
  <line x1="60" y1="66" x2="60" y2="410" stroke="#333333" stroke-width="1" />
  <line x1="55" y1="66" x2="60" y2="66" stroke="#333333" stroke-width="1" />
  <text x="52" y="70" text-anchor="end" font-family="system-ui, sans-serif" font-size="12" fill="#222222">0</text>
  <line x1="55" y1="118.216" x2="60" y2="118.216" stroke="#333333" stroke-width="1" />
  <text x="52" y="122.216" text-anchor="end" font-family="system-ui, sans-serif" font-size="12" fill="#222222">20</text>
  <line x1="55" y1="170.432" x2="60" y2="170.432" stroke="#333333" stroke-width="1" />
  <text x="52" y="174.432" text-anchor="end" font-family="system-ui, sans-serif" font-size="12" fill="#222222">40</text>
  <line x1="55" y1="222.648" x2="60" y2="222.648" stroke="#333333" stroke-width="1" />
  <text x="52" y="226.648" text-anchor="end" font-family="system-ui, sans-serif" font-size="12" fill="#222222">60</text>
  <line x1="55" y1="274.865" x2="60" y2="274.865" stroke="#333333" stroke-width="1" />
  <text x="52" y="278.865" text-anchor="end" font-family="system-ui, sans-serif" font-size="12" fill="#222222">80</text>
  <line x1="55" y1="327.081" x2="60" y2="327.081" stroke="#333333" stroke-width="1" />
  <text x="52" y="331.081" text-anchor="end" font-family="system-ui, sans-serif" font-size="12" fill="#222222">100</text>
  <line x1="55" y1="379.297" x2="60" y2="379.297" stroke="#333333" stroke-width="1" />
  <text x="52" y="383.297" text-anchor="end" font-family="system-ui, sans-serif" font-size="12" fill="#222222">120</text>
  <text x="18.4" y="238" text-anchor="middle" transform="rotate(-90 18.4 238)" font-family="system-ui, sans-serif" font-size="12" fill="#222222">Amount</text>
</g>
<g class="algraf-legends">
  <text x="626" y="70" text-anchor="start" font-family="system-ui, sans-serif" font-size="12" fill="#222222">type</text>
  <rect x="626" y="78" width="12" height="12" fill="#E15759" />
  <text x="644" y="88" text-anchor="start" font-family="system-ui, sans-serif" font-size="12" fill="#222222">hardware</text>
  <rect x="626" y="96" width="12" height="12" fill="#F28E2B" />
  <text x="644" y="106" text-anchor="start" font-family="system-ui, sans-serif" font-size="12" fill="#222222">services</text>
  <rect x="626" y="114" width="12" height="12" fill="#4E79A7" />
  <text x="644" y="124" text-anchor="start" font-family="system-ui, sans-serif" font-size="12" fill="#222222">software</text>
</g>
</svg>
