<svg xmlns="http://www.w3.org/2000/svg" width="900" height="400" viewBox="0 0 900 400" role="img" aria-label="Urban Population of Major US Cities">
<title>Urban Population of Major US Cities</title>
<desc>Comparison of top metropolitan areas</desc>
<rect class="algraf-background" x="0" y="0" width="900" height="400" fill="#ffffff" />
<text class="algraf-title" x="82.4" y="24" font-family="system-ui, sans-serif" font-size="18" font-weight="600" fill="#222222">Urban Population of Major US Cities</text>
<text class="algraf-subtitle" x="82.4" y="50" font-family="system-ui, sans-serif" font-size="12" fill="#222222">Comparison of top metropolitan areas</text>
<rect class="algraf-plot-area" x="82.4" y="82" width="667.6" height="210.421" fill="#ffffff" />
<g class="algraf-grid">
  <line x1="82.4" y1="269.226" x2="750" y2="269.226" stroke="#f2f2f2" stroke-width="0.6" />
  <line x1="82.4" y1="222.837" x2="750" y2="222.837" stroke="#f2f2f2" stroke-width="0.6" />
  <line x1="82.4" y1="176.448" x2="750" y2="176.448" stroke="#f2f2f2" stroke-width="0.6" />
  <line x1="82.4" y1="130.059" x2="750" y2="130.059" stroke="#f2f2f2" stroke-width="0.6" />
  <line x1="82.4" y1="292.421" x2="750" y2="292.421" stroke="#e6e6e6" stroke-width="1" />
  <line x1="82.4" y1="246.032" x2="750" y2="246.032" stroke="#e6e6e6" stroke-width="1" />
  <line x1="82.4" y1="199.643" x2="750" y2="199.643" stroke="#e6e6e6" stroke-width="1" />
  <line x1="82.4" y1="153.254" x2="750" y2="153.254" stroke="#e6e6e6" stroke-width="1" />
  <line x1="82.4" y1="106.865" x2="750" y2="106.865" stroke="#e6e6e6" stroke-width="1" />
</g>
<g class="algraf-layer algraf-geom-bar">
  <rect x="87.963" y="97.587" width="44.507" height="194.834" fill="#f03b20" opacity="1" />
  <rect x="143.597" y="201.962" width="44.507" height="90.459" fill="#f87f39" opacity="1" />
  <rect x="199.23" y="229.795" width="44.507" height="62.625" fill="#fa9140" opacity="1" />
  <rect x="254.863" y="239.073" width="44.507" height="53.347" fill="#fb9742" opacity="1" />
  <rect x="310.497" y="255.309" width="44.507" height="37.111" fill="#fca146" opacity="1" />
  <rect x="366.13" y="255.773" width="44.507" height="36.647" fill="#fca146" opacity="1" />
  <rect x="421.763" y="257.629" width="44.507" height="34.792" fill="#fca346" opacity="1" />
  <rect x="477.397" y="259.948" width="44.507" height="32.472" fill="#fca447" opacity="1" />
  <rect x="533.03" y="262.268" width="44.507" height="30.153" fill="#fda647" opacity="1" />
  <rect x="588.663" y="275.837" width="44.507" height="16.584" fill="#feae4b" opacity="1" />
  <rect x="644.297" y="275.025" width="44.507" height="17.396" fill="#feae4a" opacity="1" />
  <rect x="699.93" y="281.519" width="44.507" height="10.901" fill="#feb24c" opacity="1" />
</g>
<g class="algraf-axes">
  <line x1="82.4" y1="292.421" x2="750" y2="292.421" stroke="#333333" stroke-width="1" />
  <line x1="110.217" y1="292.421" x2="110.217" y2="297.421" stroke="#333333" stroke-width="1" />
  <text x="110.217" y="310.421" text-anchor="end" transform="rotate(-45 110.217 310.421)" font-family="system-ui, sans-serif" font-size="12" fill="#222222">New York</text>
  <line x1="165.85" y1="292.421" x2="165.85" y2="297.421" stroke="#333333" stroke-width="1" />
  <text x="165.85" y="310.421" text-anchor="end" transform="rotate(-45 165.85 310.421)" font-family="system-ui, sans-serif" font-size="12" fill="#222222">Los Angeles</text>
  <line x1="221.483" y1="292.421" x2="221.483" y2="297.421" stroke="#333333" stroke-width="1" />
  <text x="221.483" y="310.421" text-anchor="end" transform="rotate(-45 221.483 310.421)" font-family="system-ui, sans-serif" font-size="12" fill="#222222">Chicago</text>
  <line x1="277.117" y1="292.421" x2="277.117" y2="297.421" stroke="#333333" stroke-width="1" />
  <text x="277.117" y="310.421" text-anchor="end" transform="rotate(-45 277.117 310.421)" font-family="system-ui, sans-serif" font-size="12" fill="#222222">Houston</text>
  <line x1="332.75" y1="292.421" x2="332.75" y2="297.421" stroke="#333333" stroke-width="1" />
  <text x="332.75" y="310.421" text-anchor="end" transform="rotate(-45 332.75 310.421)" font-family="system-ui, sans-serif" font-size="12" fill="#222222">Phoenix</text>
  <line x1="388.383" y1="292.421" x2="388.383" y2="297.421" stroke="#333333" stroke-width="1" />
  <text x="388.383" y="310.421" text-anchor="end" transform="rotate(-45 388.383 310.421)" font-family="system-ui, sans-serif" font-size="12" fill="#222222">Philadelphia</text>
  <line x1="444.017" y1="292.421" x2="444.017" y2="297.421" stroke="#333333" stroke-width="1" />
  <text x="444.017" y="310.421" text-anchor="end" transform="rotate(-45 444.017 310.421)" font-family="system-ui, sans-serif" font-size="12" fill="#222222">San Antonio</text>
  <line x1="499.65" y1="292.421" x2="499.65" y2="297.421" stroke="#333333" stroke-width="1" />
  <text x="499.65" y="310.421" text-anchor="end" transform="rotate(-45 499.65 310.421)" font-family="system-ui, sans-serif" font-size="12" fill="#222222">San Diego</text>
  <line x1="555.283" y1="292.421" x2="555.283" y2="297.421" stroke="#333333" stroke-width="1" />
  <text x="555.283" y="310.421" text-anchor="end" transform="rotate(-45 555.283 310.421)" font-family="system-ui, sans-serif" font-size="12" fill="#222222">Dallas</text>
  <line x1="610.917" y1="292.421" x2="610.917" y2="297.421" stroke="#333333" stroke-width="1" />
  <text x="610.917" y="310.421" text-anchor="end" transform="rotate(-45 610.917 310.421)" font-family="system-ui, sans-serif" font-size="12" fill="#222222">Denver</text>
  <line x1="666.55" y1="292.421" x2="666.55" y2="297.421" stroke="#333333" stroke-width="1" />
  <text x="666.55" y="310.421" text-anchor="end" transform="rotate(-45 666.55 310.421)" font-family="system-ui, sans-serif" font-size="12" fill="#222222">Seattle</text>
  <line x1="722.183" y1="292.421" x2="722.183" y2="297.421" stroke="#333333" stroke-width="1" />
  <text x="722.183" y="310.421" text-anchor="end" transform="rotate(-45 722.183 310.421)" font-family="system-ui, sans-serif" font-size="12" fill="#222222">Miami</text>
  <text x="416.2" y="388" text-anchor="middle" font-family="system-ui, sans-serif" font-size="12" fill="#222222">City</text>
  <line x1="82.4" y1="82" x2="82.4" y2="292.421" stroke="#333333" stroke-width="1" />
  <line x1="77.4" y1="292.421" x2="82.4" y2="292.421" stroke="#333333" stroke-width="1" />
  <text x="74.4" y="296.421" text-anchor="end" font-family="system-ui, sans-serif" font-size="12" fill="#222222">0</text>
  <line x1="77.4" y1="246.032" x2="82.4" y2="246.032" stroke="#333333" stroke-width="1" />
  <text x="74.4" y="250.032" text-anchor="end" font-family="system-ui, sans-serif" font-size="12" fill="#222222">2000000</text>
  <line x1="77.4" y1="199.643" x2="82.4" y2="199.643" stroke="#333333" stroke-width="1" />
  <text x="74.4" y="203.643" text-anchor="end" font-family="system-ui, sans-serif" font-size="12" fill="#222222">4000000</text>
  <line x1="77.4" y1="153.254" x2="82.4" y2="153.254" stroke="#333333" stroke-width="1" />
  <text x="74.4" y="157.254" text-anchor="end" font-family="system-ui, sans-serif" font-size="12" fill="#222222">6000000</text>
  <line x1="77.4" y1="106.865" x2="82.4" y2="106.865" stroke="#333333" stroke-width="1" />
  <text x="74.4" y="110.865" text-anchor="end" font-family="system-ui, sans-serif" font-size="12" fill="#222222">8000000</text>
  <text x="12" y="187.21" text-anchor="middle" transform="rotate(-90 12 187.21)" font-family="system-ui, sans-serif" font-size="12" fill="#222222">Population</text>
</g>
<g class="algraf-legends">
  <text x="766" y="86" text-anchor="start" font-family="system-ui, sans-serif" font-size="12" fill="#222222">Population</text>
  <rect x="766" y="94" width="12" height="16" fill="#f03b20" />
  <text x="784" y="104" text-anchor="start" font-family="system-ui, sans-serif" font-size="12" fill="#222222">8400000</text>
  <rect x="766" y="110" width="12" height="16" fill="#f4592b" />
  <text x="784" y="120" text-anchor="start" font-family="system-ui, sans-serif" font-size="12" fill="#222222">6417500</text>
  <rect x="766" y="126" width="12" height="16" fill="#f77736" />
  <text x="784" y="136" text-anchor="start" font-family="system-ui, sans-serif" font-size="12" fill="#222222">4435000</text>
  <rect x="766" y="142" width="12" height="16" fill="#fb9441" />
  <text x="784" y="152" text-anchor="start" font-family="system-ui, sans-serif" font-size="12" fill="#222222">2452500</text>
  <rect x="766" y="158" width="12" height="16" fill="#feb24c" />
  <text x="784" y="168" text-anchor="start" font-family="system-ui, sans-serif" font-size="12" fill="#222222">470000</text>
</g>
</svg>
