<svg xmlns="http://www.w3.org/2000/svg" width="900" height="400" viewBox="0 0 900 400" role="img" aria-label="Urban Population of Major US Cities">
<title>Urban Population of Major US Cities</title>
<desc>Comparison of top metropolitan areas</desc>
<rect class="algraf-background" x="0" y="0" width="900" height="400" fill="#ffffff" />
<text class="algraf-title" x="76.4" y="24" font-family="system-ui, sans-serif" font-size="18" font-weight="600" fill="#222222">Urban Population of Major US Cities</text>
<text class="algraf-subtitle" x="76.4" y="50" font-family="system-ui, sans-serif" font-size="12" fill="#222222">Comparison of top metropolitan areas</text>
<rect class="algraf-plot-area" x="76.4" y="82" width="673.6" height="210.421" fill="#ffffff" />
<g class="algraf-grid">
  <line x1="76.4" y1="292.421" x2="750" y2="292.421" stroke="#e6e6e6" stroke-width="1" />
  <line x1="76.4" y1="246.032" x2="750" y2="246.032" stroke="#e6e6e6" stroke-width="1" />
  <line x1="76.4" y1="199.643" x2="750" y2="199.643" stroke="#e6e6e6" stroke-width="1" />
  <line x1="76.4" y1="153.254" x2="750" y2="153.254" stroke="#e6e6e6" stroke-width="1" />
  <line x1="76.4" y1="106.865" x2="750" y2="106.865" stroke="#e6e6e6" stroke-width="1" />
</g>
<g class="algraf-layer algraf-geom-bar">
  <rect x="82.013" y="97.587" width="44.907" height="194.834" fill="#f03b20" opacity="1" />
  <rect x="138.147" y="201.962" width="44.907" height="90.459" fill="#f87f39" opacity="1" />
  <rect x="194.28" y="229.795" width="44.907" height="62.625" fill="#fa9140" opacity="1" />
  <rect x="250.413" y="239.073" width="44.907" height="53.347" fill="#fb9742" opacity="1" />
  <rect x="306.547" y="255.309" width="44.907" height="37.111" fill="#fca146" opacity="1" />
  <rect x="362.68" y="255.773" width="44.907" height="36.647" fill="#fca146" opacity="1" />
  <rect x="418.813" y="257.629" width="44.907" height="34.792" fill="#fca346" opacity="1" />
  <rect x="474.947" y="259.948" width="44.907" height="32.472" fill="#fca447" opacity="1" />
  <rect x="531.08" y="262.268" width="44.907" height="30.153" fill="#fda647" opacity="1" />
  <rect x="587.213" y="275.837" width="44.907" height="16.584" fill="#feae4b" opacity="1" />
  <rect x="643.347" y="275.025" width="44.907" height="17.396" fill="#feae4a" opacity="1" />
  <rect x="699.48" y="281.519" width="44.907" height="10.901" fill="#feb24c" opacity="1" />
</g>
<g class="algraf-axes">
  <line x1="76.4" y1="292.421" x2="750" y2="292.421" stroke="#333333" stroke-width="1" />
  <line x1="104.467" y1="292.421" x2="104.467" y2="297.421" stroke="#333333" stroke-width="1" />
  <text x="104.467" y="310.421" text-anchor="end" transform="rotate(-45 104.467 310.421)" font-family="system-ui, sans-serif" font-size="12" fill="#222222">New York</text>
  <line x1="160.6" y1="292.421" x2="160.6" y2="297.421" stroke="#333333" stroke-width="1" />
  <text x="160.6" y="310.421" text-anchor="end" transform="rotate(-45 160.6 310.421)" font-family="system-ui, sans-serif" font-size="12" fill="#222222">Los Angeles</text>
  <line x1="216.733" y1="292.421" x2="216.733" y2="297.421" stroke="#333333" stroke-width="1" />
  <text x="216.733" y="310.421" text-anchor="end" transform="rotate(-45 216.733 310.421)" font-family="system-ui, sans-serif" font-size="12" fill="#222222">Chicago</text>
  <line x1="272.867" y1="292.421" x2="272.867" y2="297.421" stroke="#333333" stroke-width="1" />
  <text x="272.867" y="310.421" text-anchor="end" transform="rotate(-45 272.867 310.421)" font-family="system-ui, sans-serif" font-size="12" fill="#222222">Houston</text>
  <line x1="329" y1="292.421" x2="329" y2="297.421" stroke="#333333" stroke-width="1" />
  <text x="329" y="310.421" text-anchor="end" transform="rotate(-45 329 310.421)" font-family="system-ui, sans-serif" font-size="12" fill="#222222">Phoenix</text>
  <line x1="385.133" y1="292.421" x2="385.133" y2="297.421" stroke="#333333" stroke-width="1" />
  <text x="385.133" y="310.421" text-anchor="end" transform="rotate(-45 385.133 310.421)" font-family="system-ui, sans-serif" font-size="12" fill="#222222">Philadelphia</text>
  <line x1="441.267" y1="292.421" x2="441.267" y2="297.421" stroke="#333333" stroke-width="1" />
  <text x="441.267" y="310.421" text-anchor="end" transform="rotate(-45 441.267 310.421)" font-family="system-ui, sans-serif" font-size="12" fill="#222222">San Antonio</text>
  <line x1="497.4" y1="292.421" x2="497.4" y2="297.421" stroke="#333333" stroke-width="1" />
  <text x="497.4" y="310.421" text-anchor="end" transform="rotate(-45 497.4 310.421)" font-family="system-ui, sans-serif" font-size="12" fill="#222222">San Diego</text>
  <line x1="553.533" y1="292.421" x2="553.533" y2="297.421" stroke="#333333" stroke-width="1" />
  <text x="553.533" y="310.421" text-anchor="end" transform="rotate(-45 553.533 310.421)" font-family="system-ui, sans-serif" font-size="12" fill="#222222">Dallas</text>
  <line x1="609.667" y1="292.421" x2="609.667" y2="297.421" stroke="#333333" stroke-width="1" />
  <text x="609.667" y="310.421" text-anchor="end" transform="rotate(-45 609.667 310.421)" font-family="system-ui, sans-serif" font-size="12" fill="#222222">Denver</text>
  <line x1="665.8" y1="292.421" x2="665.8" y2="297.421" stroke="#333333" stroke-width="1" />
  <text x="665.8" y="310.421" text-anchor="end" transform="rotate(-45 665.8 310.421)" font-family="system-ui, sans-serif" font-size="12" fill="#222222">Seattle</text>
  <line x1="721.933" y1="292.421" x2="721.933" y2="297.421" stroke="#333333" stroke-width="1" />
  <text x="721.933" y="310.421" text-anchor="end" transform="rotate(-45 721.933 310.421)" font-family="system-ui, sans-serif" font-size="12" fill="#222222">Miami</text>
  <text x="413.2" y="388" text-anchor="middle" font-family="system-ui, sans-serif" font-size="12" fill="#222222">City</text>
  <line x1="76.4" y1="82" x2="76.4" y2="292.421" stroke="#333333" stroke-width="1" />
  <line x1="71.4" y1="292.421" x2="76.4" y2="292.421" stroke="#333333" stroke-width="1" />
  <text x="68.4" y="296.421" text-anchor="end" font-family="system-ui, sans-serif" font-size="12" fill="#222222">0</text>
  <line x1="71.4" y1="246.032" x2="76.4" y2="246.032" stroke="#333333" stroke-width="1" />
  <text x="68.4" y="250.032" text-anchor="end" font-family="system-ui, sans-serif" font-size="12" fill="#222222">2000000</text>
  <line x1="71.4" y1="199.643" x2="76.4" y2="199.643" stroke="#333333" stroke-width="1" />
  <text x="68.4" y="203.643" text-anchor="end" font-family="system-ui, sans-serif" font-size="12" fill="#222222">4000000</text>
  <line x1="71.4" y1="153.254" x2="76.4" y2="153.254" stroke="#333333" stroke-width="1" />
  <text x="68.4" y="157.254" text-anchor="end" font-family="system-ui, sans-serif" font-size="12" fill="#222222">6000000</text>
  <line x1="71.4" y1="106.865" x2="76.4" y2="106.865" stroke="#333333" stroke-width="1" />
  <text x="68.4" y="110.865" text-anchor="end" font-family="system-ui, sans-serif" font-size="12" fill="#222222">8000000</text>
  <text x="12" y="187.21" text-anchor="middle" transform="rotate(-90 12 187.21)" font-family="system-ui, sans-serif" font-size="12" fill="#222222">Population</text>
</g>
<g class="algraf-legends">
  <text x="766" y="86" text-anchor="start" font-family="system-ui, sans-serif" font-size="12" fill="#222222">Population</text>
  <rect x="766" y="94" width="12" height="16" fill="#f03b20" />
  <text x="784" y="104" text-anchor="start" font-family="system-ui, sans-serif" font-size="12" fill="#222222">8400000</text>
  <rect x="766" y="110" width="12" height="16" fill="#f4592b" />
  <text x="784" y="120" text-anchor="start" font-family="system-ui, sans-serif" font-size="12" fill="#222222">6417500</text>
  <rect x="766" y="126" width="12" height="16" fill="#f77736" />
  <text x="784" y="136" text-anchor="start" font-family="system-ui, sans-serif" font-size="12" fill="#222222">4435000</text>
  <rect x="766" y="142" width="12" height="16" fill="#fb9441" />
  <text x="784" y="152" text-anchor="start" font-family="system-ui, sans-serif" font-size="12" fill="#222222">2452500</text>
  <rect x="766" y="158" width="12" height="16" fill="#feb24c" />
  <text x="784" y="168" text-anchor="start" font-family="system-ui, sans-serif" font-size="12" fill="#222222">470000</text>
</g>
</svg>
