<svg xmlns="http://www.w3.org/2000/svg" width="900" height="451.579" viewBox="0 0 900 451.579" role="img" aria-label="Urban Population of Major US Cities">
<title>Urban Population of Major US Cities</title>
<desc>Comparison of top metropolitan areas</desc>
<rect class="algraf-background" x="0" y="0" width="900" height="451.579" fill="#ffffff" />
<text class="algraf-title" x="82.4" y="24" font-family="system-ui, sans-serif" font-size="18" font-weight="600" fill="#222222">Urban Population of Major US Cities</text>
<text class="algraf-subtitle" x="82.4" y="50" font-family="system-ui, sans-serif" font-size="12" fill="#222222">Comparison of top metropolitan areas</text>
<rect class="algraf-plot-area" x="82.4" y="82" width="667.6" height="210.421" fill="#ffffff" />
<g class="algraf-grid">
  <line x1="82.4" y1="269.226" x2="750" y2="269.226" stroke="#f2f2f2" stroke-width="0.6" />
  <line x1="82.4" y1="222.837" x2="750" y2="222.837" stroke="#f2f2f2" stroke-width="0.6" />
  <line x1="82.4" y1="176.448" x2="750" y2="176.448" stroke="#f2f2f2" stroke-width="0.6" />
  <line x1="82.4" y1="130.059" x2="750" y2="130.059" stroke="#f2f2f2" stroke-width="0.6" />
  <line x1="82.4" y1="292.421" x2="750" y2="292.421" stroke="#e6e6e6" stroke-width="1" />
  <line x1="82.4" y1="246.032" x2="750" y2="246.032" stroke="#e6e6e6" stroke-width="1" />
  <line x1="82.4" y1="199.643" x2="750" y2="199.643" stroke="#e6e6e6" stroke-width="1" />
  <line x1="82.4" y1="153.254" x2="750" y2="153.254" stroke="#e6e6e6" stroke-width="1" />
  <line x1="82.4" y1="106.865" x2="750" y2="106.865" stroke="#e6e6e6" stroke-width="1" />
</g>
<g class="algraf-layer algraf-geom-bar">
  <rect x="87.963" y="97.587" width="44.507" height="194.834" fill="#f03b20" opacity="1" />
  <rect x="143.597" y="201.962" width="44.507" height="90.459" fill="#f87f39" opacity="1" />
  <rect x="199.23" y="229.795" width="44.507" height="62.625" fill="#fa9140" opacity="1" />
  <rect x="254.863" y="239.073" width="44.507" height="53.347" fill="#fb9742" opacity="1" />
  <rect x="310.497" y="255.309" width="44.507" height="37.111" fill="#fca146" opacity="1" />
  <rect x="366.13" y="255.773" width="44.507" height="36.647" fill="#fca146" opacity="1" />
  <rect x="421.763" y="257.629" width="44.507" height="34.792" fill="#fca346" opacity="1" />
  <rect x="477.397" y="259.948" width="44.507" height="32.472" fill="#fca447" opacity="1" />
  <rect x="533.03" y="262.268" width="44.507" height="30.153" fill="#fda647" opacity="1" />
  <rect x="588.663" y="275.837" width="44.507" height="16.584" fill="#feae4b" opacity="1" />
  <rect x="644.297" y="275.025" width="44.507" height="17.396" fill="#feae4a" opacity="1" />
  <rect x="699.93" y="281.519" width="44.507" height="10.901" fill="#feb24c" opacity="1" />
</g>
<g class="algraf-axes">
  <line x1="82.4" y1="292.421" x2="750" y2="292.421" stroke="#333333" stroke-width="1" />
  <line x1="110.217" y1="292.421" x2="110.217" y2="297.421" stroke="#333333" stroke-width="1" />
  <text x="110.217" y="310.421" text-anchor="end" transform="rotate(-45 110.217 310.421)" font-family="system-ui, sans-serif" font-size="12" fill="#222222">New York</text>
  <line x1="165.85" y1="292.421" x2="165.85" y2="297.421" stroke="#333333" stroke-width="1" />
  <text x="165.85" y="310.421" text-anchor="end" transform="rotate(-45 165.85 310.421)" font-family="system-ui, sans-serif" font-size="12" fill="#222222">Los Angeles</text>
  <line x1="221.483" y1="292.421" x2="221.483" y2="297.421" stroke="#333333" stroke-width="1" />
  <text x="221.483" y="310.421" text-anchor="end" transform="rotate(-45 221.483 310.421)" font-family="system-ui, sans-serif" font-size="12" fill="#222222">Chicago</text>
  <line x1="277.117" y1="292.421" x2="277.117" y2="297.421" stroke="#333333" stroke-width="1" />
  <text x="277.117" y="310.421" text-anchor="end" transform="rotate(-45 277.117 310.421)" font-family="system-ui, sans-serif" font-size="12" fill="#222222">Houston</text>
  <line x1="332.75" y1="292.421" x2="332.75" y2="297.421" stroke="#333333" stroke-width="1" />
  <text x="332.75" y="310.421" text-anchor="end" transform="rotate(-45 332.75 310.421)" font-family="system-ui, sans-serif" font-size="12" fill="#222222">Phoenix</text>
  <line x1="388.383" y1="292.421" x2="388.383" y2="297.421" stroke="#333333" stroke-width="1" />
  <text x="388.383" y="310.421" text-anchor="end" transform="rotate(-45 388.383 310.421)" font-family="system-ui, sans-serif" font-size="12" fill="#222222">Philadelphia</text>
  <line x1="444.017" y1="292.421" x2="444.017" y2="297.421" stroke="#333333" stroke-width="1" />
  <text x="444.017" y="310.421" text-anchor="end" transform="rotate(-45 444.017 310.421)" font-family="system-ui, sans-serif" font-size="12" fill="#222222">San Antonio</text>
  <line x1="499.65" y1="292.421" x2="499.65" y2="297.421" stroke="#333333" stroke-width="1" />
  <text x="499.65" y="310.421" text-anchor="end" transform="rotate(-45 499.65 310.421)" font-family="system-ui, sans-serif" font-size="12" fill="#222222">San Diego</text>
  <line x1="555.283" y1="292.421" x2="555.283" y2="297.421" stroke="#333333" stroke-width="1" />
  <text x="555.283" y="310.421" text-anchor="end" transform="rotate(-45 555.283 310.421)" font-family="system-ui, sans-serif" font-size="12" fill="#222222">Dallas</text>
  <line x1="610.917" y1="292.421" x2="610.917" y2="297.421" stroke="#333333" stroke-width="1" />
  <text x="610.917" y="310.421" text-anchor="end" transform="rotate(-45 610.917 310.421)" font-family="system-ui, sans-serif" font-size="12" fill="#222222">Denver</text>
  <line x1="666.55" y1="292.421" x2="666.55" y2="297.421" stroke="#333333" stroke-width="1" />
  <text x="666.55" y="310.421" text-anchor="end" transform="rotate(-45 666.55 310.421)" font-family="system-ui, sans-serif" font-size="12" fill="#222222">Seattle</text>
  <line x1="722.183" y1="292.421" x2="722.183" y2="297.421" stroke="#333333" stroke-width="1" />
  <text x="722.183" y="310.421" text-anchor="end" transform="rotate(-45 722.183 310.421)" font-family="system-ui, sans-serif" font-size="12" fill="#222222">Miami</text>
  <text x="416.2" y="388" text-anchor="middle" font-family="system-ui, sans-serif" font-size="12" fill="#222222">City</text>
  <line x1="82.4" y1="82" x2="82.4" y2="292.421" stroke="#333333" stroke-width="1" />
  <line x1="77.4" y1="292.421" x2="82.4" y2="292.421" stroke="#333333" stroke-width="1" />
  <text x="74.4" y="296.421" text-anchor="end" font-family="system-ui, sans-serif" font-size="12" fill="#222222">0</text>
  <line x1="77.4" y1="246.032" x2="82.4" y2="246.032" stroke="#333333" stroke-width="1" />
  <text x="74.4" y="250.032" text-anchor="end" font-family="system-ui, sans-serif" font-size="12" fill="#222222">2000000</text>
  <line x1="77.4" y1="199.643" x2="82.4" y2="199.643" stroke="#333333" stroke-width="1" />
  <text x="74.4" y="203.643" text-anchor="end" font-family="system-ui, sans-serif" font-size="12" fill="#222222">4000000</text>
  <line x1="77.4" y1="153.254" x2="82.4" y2="153.254" stroke="#333333" stroke-width="1" />
  <text x="74.4" y="157.254" text-anchor="end" font-family="system-ui, sans-serif" font-size="12" fill="#222222">6000000</text>
  <line x1="77.4" y1="106.865" x2="82.4" y2="106.865" stroke="#333333" stroke-width="1" />
  <text x="74.4" y="110.865" text-anchor="end" font-family="system-ui, sans-serif" font-size="12" fill="#222222">8000000</text>
  <text x="12" y="187.21" text-anchor="middle" transform="rotate(-90 12 187.21)" font-family="system-ui, sans-serif" font-size="12" fill="#222222">Population</text>
</g>
<g class="algraf-legends">
  <text x="766" y="86" text-anchor="start" font-family="system-ui, sans-serif" font-size="12" fill="#222222">Population</text>
  <rect x="766" y="100" width="22" height="1.75" fill="#f03b20" />
  <rect x="766" y="101" width="22" height="1.75" fill="#f03c20" />
  <rect x="766" y="102" width="22" height="1.75" fill="#f03c21" />
  <rect x="766" y="103" width="22" height="1.75" fill="#f03d21" />
  <rect x="766" y="104" width="22" height="1.75" fill="#f03d21" />
  <rect x="766" y="105" width="22" height="1.75" fill="#f03e21" />
  <rect x="766" y="106" width="22" height="1.75" fill="#f03f21" />
  <rect x="766" y="107" width="22" height="1.75" fill="#f03f22" />
  <rect x="766" y="108" width="22" height="1.75" fill="#f14022" />
  <rect x="766" y="109" width="22" height="1.75" fill="#f14022" />
  <rect x="766" y="110" width="22" height="1.75" fill="#f14122" />
  <rect x="766" y="111" width="22" height="1.75" fill="#f14122" />
  <rect x="766" y="112" width="22" height="1.75" fill="#f14223" />
  <rect x="766" y="113" width="22" height="1.75" fill="#f14223" />
  <rect x="766" y="114" width="22" height="1.75" fill="#f14323" />
  <rect x="766" y="115" width="22" height="1.75" fill="#f14323" />
  <rect x="766" y="116" width="22" height="1.75" fill="#f14423" />
  <rect x="766" y="117" width="22" height="1.75" fill="#f14424" />
  <rect x="766" y="118" width="22" height="1.75" fill="#f14524" />
  <rect x="766" y="119" width="22" height="1.75" fill="#f14624" />
  <rect x="766" y="120" width="22" height="1.75" fill="#f14624" />
  <rect x="766" y="121" width="22" height="1.75" fill="#f14724" />
  <rect x="766" y="122" width="22" height="1.75" fill="#f14725" />
  <rect x="766" y="123" width="22" height="1.75" fill="#f14825" />
  <rect x="766" y="124" width="22" height="1.75" fill="#f24825" />
  <rect x="766" y="125" width="22" height="1.75" fill="#f24925" />
  <rect x="766" y="126" width="22" height="1.75" fill="#f24925" />
  <rect x="766" y="127" width="22" height="1.75" fill="#f24a26" />
  <rect x="766" y="128" width="22" height="1.75" fill="#f24a26" />
  <rect x="766" y="129" width="22" height="1.75" fill="#f24b26" />
  <rect x="766" y="130" width="22" height="1.75" fill="#f24b26" />
  <rect x="766" y="131" width="22" height="1.75" fill="#f24c26" />
  <rect x="766" y="132" width="22" height="1.75" fill="#f24d27" />
  <rect x="766" y="133" width="22" height="1.75" fill="#f24d27" />
  <rect x="766" y="134" width="22" height="1.75" fill="#f24e27" />
  <rect x="766" y="135" width="22" height="1.75" fill="#f24e27" />
  <rect x="766" y="136" width="22" height="1.75" fill="#f24f27" />
  <rect x="766" y="137" width="22" height="1.75" fill="#f24f28" />
  <rect x="766" y="138" width="22" height="1.75" fill="#f25028" />
  <rect x="766" y="139" width="22" height="1.75" fill="#f35028" />
  <rect x="766" y="140" width="22" height="1.75" fill="#f35128" />
  <rect x="766" y="141" width="22" height="1.75" fill="#f35128" />
  <rect x="766" y="142" width="22" height="1.75" fill="#f35229" />
  <rect x="766" y="143" width="22" height="1.75" fill="#f35329" />
  <rect x="766" y="144" width="22" height="1.75" fill="#f35329" />
  <rect x="766" y="145" width="22" height="1.75" fill="#f35429" />
  <rect x="766" y="146" width="22" height="1.75" fill="#f35429" />
  <rect x="766" y="147" width="22" height="1.75" fill="#f3552a" />
  <rect x="766" y="148" width="22" height="1.75" fill="#f3552a" />
  <rect x="766" y="149" width="22" height="1.75" fill="#f3562a" />
  <rect x="766" y="150" width="22" height="1.75" fill="#f3562a" />
  <rect x="766" y="151" width="22" height="1.75" fill="#f3572a" />
  <rect x="766" y="152" width="22" height="1.75" fill="#f3572b" />
  <rect x="766" y="153" width="22" height="1.75" fill="#f3582b" />
  <rect x="766" y="154" width="22" height="1.75" fill="#f3582b" />
  <rect x="766" y="155" width="22" height="1.75" fill="#f4592b" />
  <rect x="766" y="156" width="22" height="1.75" fill="#f45a2b" />
  <rect x="766" y="157" width="22" height="1.75" fill="#f45a2c" />
  <rect x="766" y="158" width="22" height="1.75" fill="#f45b2c" />
  <rect x="766" y="159" width="22" height="1.75" fill="#f45b2c" />
  <rect x="766" y="160" width="22" height="1.75" fill="#f45c2c" />
  <rect x="766" y="161" width="22" height="1.75" fill="#f45c2c" />
  <rect x="766" y="162" width="22" height="1.75" fill="#f45d2d" />
  <rect x="766" y="163" width="22" height="1.75" fill="#f45d2d" />
  <rect x="766" y="164" width="22" height="1.75" fill="#f45e2d" />
  <rect x="766" y="165" width="22" height="1.75" fill="#f45e2d" />
  <rect x="766" y="166" width="22" height="1.75" fill="#f45f2d" />
  <rect x="766" y="167" width="22" height="1.75" fill="#f4602e" />
  <rect x="766" y="168" width="22" height="1.75" fill="#f4602e" />
  <rect x="766" y="169" width="22" height="1.75" fill="#f4612e" />
  <rect x="766" y="170" width="22" height="1.75" fill="#f4612e" />
  <rect x="766" y="171" width="22" height="1.75" fill="#f5622e" />
  <rect x="766" y="172" width="22" height="1.75" fill="#f5622f" />
  <rect x="766" y="173" width="22" height="1.75" fill="#f5632f" />
  <rect x="766" y="174" width="22" height="1.75" fill="#f5632f" />
  <rect x="766" y="175" width="22" height="1.75" fill="#f5642f" />
  <rect x="766" y="176" width="22" height="1.75" fill="#f5642f" />
  <rect x="766" y="177" width="22" height="1.75" fill="#f56530" />
  <rect x="766" y="178" width="22" height="1.75" fill="#f56530" />
  <rect x="766" y="179" width="22" height="1.75" fill="#f56630" />
  <rect x="766" y="180" width="22" height="1.75" fill="#f56730" />
  <rect x="766" y="181" width="22" height="1.75" fill="#f56730" />
  <rect x="766" y="182" width="22" height="1.75" fill="#f56831" />
  <rect x="766" y="183" width="22" height="1.75" fill="#f56831" />
  <rect x="766" y="184" width="22" height="1.75" fill="#f56931" />
  <rect x="766" y="185" width="22" height="1.75" fill="#f56931" />
  <rect x="766" y="186" width="22" height="1.75" fill="#f66a31" />
  <rect x="766" y="187" width="22" height="1.75" fill="#f66a32" />
  <rect x="766" y="188" width="22" height="1.75" fill="#f66b32" />
  <rect x="766" y="189" width="22" height="1.75" fill="#f66b32" />
  <rect x="766" y="190" width="22" height="1.75" fill="#f66c32" />
  <rect x="766" y="191" width="22" height="1.75" fill="#f66c32" />
  <rect x="766" y="192" width="22" height="1.75" fill="#f66d33" />
  <rect x="766" y="193" width="22" height="1.75" fill="#f66e33" />
  <rect x="766" y="194" width="22" height="1.75" fill="#f66e33" />
  <rect x="766" y="195" width="22" height="1.75" fill="#f66f33" />
  <rect x="766" y="196" width="22" height="1.75" fill="#f66f33" />
  <rect x="766" y="197" width="22" height="1.75" fill="#f67034" />
  <rect x="766" y="198" width="22" height="1.75" fill="#f67034" />
  <rect x="766" y="199" width="22" height="1.75" fill="#f67134" />
  <rect x="766" y="200" width="22" height="1.75" fill="#f67134" />
  <rect x="766" y="201" width="22" height="1.75" fill="#f67234" />
  <rect x="766" y="202" width="22" height="1.75" fill="#f77235" />
  <rect x="766" y="203" width="22" height="1.75" fill="#f77335" />
  <rect x="766" y="204" width="22" height="1.75" fill="#f77435" />
  <rect x="766" y="205" width="22" height="1.75" fill="#f77435" />
  <rect x="766" y="206" width="22" height="1.75" fill="#f77535" />
  <rect x="766" y="207" width="22" height="1.75" fill="#f77536" />
  <rect x="766" y="208" width="22" height="1.75" fill="#f77636" />
  <rect x="766" y="209" width="22" height="1.75" fill="#f77636" />
  <rect x="766" y="210" width="22" height="1.75" fill="#f77736" />
  <rect x="766" y="211" width="22" height="1.75" fill="#f77736" />
  <rect x="766" y="212" width="22" height="1.75" fill="#f77837" />
  <rect x="766" y="213" width="22" height="1.75" fill="#f77837" />
  <rect x="766" y="214" width="22" height="1.75" fill="#f77937" />
  <rect x="766" y="215" width="22" height="1.75" fill="#f77937" />
  <rect x="766" y="216" width="22" height="1.75" fill="#f77a37" />
  <rect x="766" y="217" width="22" height="1.75" fill="#f77b38" />
  <rect x="766" y="218" width="22" height="1.75" fill="#f87b38" />
  <rect x="766" y="219" width="22" height="1.75" fill="#f87c38" />
  <rect x="766" y="220" width="22" height="1.75" fill="#f87c38" />
  <rect x="766" y="221" width="22" height="1.75" fill="#f87d38" />
  <rect x="766" y="222" width="22" height="1.75" fill="#f87d39" />
  <rect x="766" y="223" width="22" height="1.75" fill="#f87e39" />
  <rect x="766" y="224" width="22" height="1.75" fill="#f87e39" />
  <rect x="766" y="225" width="22" height="1.75" fill="#f87f39" />
  <rect x="766" y="226" width="22" height="1.75" fill="#f87f39" />
  <rect x="766" y="227" width="22" height="1.75" fill="#f8803a" />
  <rect x="766" y="228" width="22" height="1.75" fill="#f8813a" />
  <rect x="766" y="229" width="22" height="1.75" fill="#f8813a" />
  <rect x="766" y="230" width="22" height="1.75" fill="#f8823a" />
  <rect x="766" y="231" width="22" height="1.75" fill="#f8823a" />
  <rect x="766" y="232" width="22" height="1.75" fill="#f8833b" />
  <rect x="766" y="233" width="22" height="1.75" fill="#f8833b" />
  <rect x="766" y="234" width="22" height="1.75" fill="#f9843b" />
  <rect x="766" y="235" width="22" height="1.75" fill="#f9843b" />
  <rect x="766" y="236" width="22" height="1.75" fill="#f9853b" />
  <rect x="766" y="237" width="22" height="1.75" fill="#f9853c" />
  <rect x="766" y="238" width="22" height="1.75" fill="#f9863c" />
  <rect x="766" y="239" width="22" height="1.75" fill="#f9863c" />
  <rect x="766" y="240" width="22" height="1.75" fill="#f9873c" />
  <rect x="766" y="241" width="22" height="1.75" fill="#f9883c" />
  <rect x="766" y="242" width="22" height="1.75" fill="#f9883d" />
  <rect x="766" y="243" width="22" height="1.75" fill="#f9893d" />
  <rect x="766" y="244" width="22" height="1.75" fill="#f9893d" />
  <rect x="766" y="245" width="22" height="1.75" fill="#f98a3d" />
  <rect x="766" y="246" width="22" height="1.75" fill="#f98a3d" />
  <rect x="766" y="247" width="22" height="1.75" fill="#f98b3e" />
  <rect x="766" y="248" width="22" height="1.75" fill="#f98b3e" />
  <rect x="766" y="249" width="22" height="1.75" fill="#fa8c3e" />
  <rect x="766" y="250" width="22" height="1.75" fill="#fa8c3e" />
  <rect x="766" y="251" width="22" height="1.75" fill="#fa8d3e" />
  <rect x="766" y="252" width="22" height="1.75" fill="#fa8d3f" />
  <rect x="766" y="253" width="22" height="1.75" fill="#fa8e3f" />
  <rect x="766" y="254" width="22" height="1.75" fill="#fa8f3f" />
  <rect x="766" y="255" width="22" height="1.75" fill="#fa8f3f" />
  <rect x="766" y="256" width="22" height="1.75" fill="#fa903f" />
  <rect x="766" y="257" width="22" height="1.75" fill="#fa9040" />
  <rect x="766" y="258" width="22" height="1.75" fill="#fa9140" />
  <rect x="766" y="259" width="22" height="1.75" fill="#fa9140" />
  <rect x="766" y="260" width="22" height="1.75" fill="#fa9240" />
  <rect x="766" y="261" width="22" height="1.75" fill="#fa9240" />
  <rect x="766" y="262" width="22" height="1.75" fill="#fa9341" />
  <rect x="766" y="263" width="22" height="1.75" fill="#fa9341" />
  <rect x="766" y="264" width="22" height="1.75" fill="#fa9441" />
  <rect x="766" y="265" width="22" height="1.75" fill="#fb9541" />
  <rect x="766" y="266" width="22" height="1.75" fill="#fb9541" />
  <rect x="766" y="267" width="22" height="1.75" fill="#fb9642" />
  <rect x="766" y="268" width="22" height="1.75" fill="#fb9642" />
  <rect x="766" y="269" width="22" height="1.75" fill="#fb9742" />
  <rect x="766" y="270" width="22" height="1.75" fill="#fb9742" />
  <rect x="766" y="271" width="22" height="1.75" fill="#fb9842" />
  <rect x="766" y="272" width="22" height="1.75" fill="#fb9843" />
  <rect x="766" y="273" width="22" height="1.75" fill="#fb9943" />
  <rect x="766" y="274" width="22" height="1.75" fill="#fb9943" />
  <rect x="766" y="275" width="22" height="1.75" fill="#fb9a43" />
  <rect x="766" y="276" width="22" height="1.75" fill="#fb9a43" />
  <rect x="766" y="277" width="22" height="1.75" fill="#fb9b44" />
  <rect x="766" y="278" width="22" height="1.75" fill="#fb9c44" />
  <rect x="766" y="279" width="22" height="1.75" fill="#fb9c44" />
  <rect x="766" y="280" width="22" height="1.75" fill="#fb9d44" />
  <rect x="766" y="281" width="22" height="1.75" fill="#fc9d44" />
  <rect x="766" y="282" width="22" height="1.75" fill="#fc9e45" />
  <rect x="766" y="283" width="22" height="1.75" fill="#fc9e45" />
  <rect x="766" y="284" width="22" height="1.75" fill="#fc9f45" />
  <rect x="766" y="285" width="22" height="1.75" fill="#fc9f45" />
  <rect x="766" y="286" width="22" height="1.75" fill="#fca045" />
  <rect x="766" y="287" width="22" height="1.75" fill="#fca046" />
  <rect x="766" y="288" width="22" height="1.75" fill="#fca146" />
  <rect x="766" y="289" width="22" height="1.75" fill="#fca246" />
  <rect x="766" y="290" width="22" height="1.75" fill="#fca246" />
  <rect x="766" y="291" width="22" height="1.75" fill="#fca346" />
  <rect x="766" y="292" width="22" height="1.75" fill="#fca347" />
  <rect x="766" y="293" width="22" height="1.75" fill="#fca447" />
  <rect x="766" y="294" width="22" height="1.75" fill="#fca447" />
  <rect x="766" y="295" width="22" height="1.75" fill="#fca547" />
  <rect x="766" y="296" width="22" height="1.75" fill="#fda547" />
  <rect x="766" y="297" width="22" height="1.75" fill="#fda648" />
  <rect x="766" y="298" width="22" height="1.75" fill="#fda648" />
  <rect x="766" y="299" width="22" height="1.75" fill="#fda748" />
  <rect x="766" y="300" width="22" height="1.75" fill="#fda748" />
  <rect x="766" y="301" width="22" height="1.75" fill="#fda848" />
  <rect x="766" y="302" width="22" height="1.75" fill="#fda949" />
  <rect x="766" y="303" width="22" height="1.75" fill="#fda949" />
  <rect x="766" y="304" width="22" height="1.75" fill="#fdaa49" />
  <rect x="766" y="305" width="22" height="1.75" fill="#fdaa49" />
  <rect x="766" y="306" width="22" height="1.75" fill="#fdab49" />
  <rect x="766" y="307" width="22" height="1.75" fill="#fdab4a" />
  <rect x="766" y="308" width="22" height="1.75" fill="#fdac4a" />
  <rect x="766" y="309" width="22" height="1.75" fill="#fdac4a" />
  <rect x="766" y="310" width="22" height="1.75" fill="#fdad4a" />
  <rect x="766" y="311" width="22" height="1.75" fill="#fdad4a" />
  <rect x="766" y="312" width="22" height="1.75" fill="#feae4b" />
  <rect x="766" y="313" width="22" height="1.75" fill="#feae4b" />
  <rect x="766" y="314" width="22" height="1.75" fill="#feaf4b" />
  <rect x="766" y="315" width="22" height="1.75" fill="#feb04b" />
  <rect x="766" y="316" width="22" height="1.75" fill="#feb04b" />
  <rect x="766" y="317" width="22" height="1.75" fill="#feb14c" />
  <rect x="766" y="318" width="22" height="1.75" fill="#feb14c" />
  <rect x="766" y="319" width="22" height="1" fill="#feb24c" />
  <text x="796" y="324" text-anchor="start" font-family="system-ui, sans-serif" font-size="12" fill="#222222">470000</text>
  <text x="796" y="269" text-anchor="start" font-family="system-ui, sans-serif" font-size="12" fill="#222222">2452500</text>
  <text x="796" y="214" text-anchor="start" font-family="system-ui, sans-serif" font-size="12" fill="#222222">4435000</text>
  <text x="796" y="159" text-anchor="start" font-family="system-ui, sans-serif" font-size="12" fill="#222222">6417500</text>
  <text x="796" y="104" text-anchor="start" font-family="system-ui, sans-serif" font-size="12" fill="#222222">8400000</text>
</g>
</svg>
