<svg xmlns="http://www.w3.org/2000/svg" width="800" height="520" viewBox="0 0 800 520" role="img">
<rect class="algraf-background" x="0" y="0" width="800" height="520" fill="#ffffff" />
<rect class="algraf-plot-area" x="60.8" y="40" width="709.2" height="430" fill="#ffffff" />
<g class="algraf-grid">
  <line x1="170.848" y1="40" x2="170.848" y2="470" stroke="#f2f2f2" stroke-width="0.6" />
  <line x1="323.693" y1="40" x2="323.693" y2="470" stroke="#f2f2f2" stroke-width="0.6" />
  <line x1="476.538" y1="40" x2="476.538" y2="470" stroke="#f2f2f2" stroke-width="0.6" />
  <line x1="629.383" y1="40" x2="629.383" y2="470" stroke="#f2f2f2" stroke-width="0.6" />
  <line x1="60.8" y1="387.389" x2="770" y2="387.389" stroke="#f2f2f2" stroke-width="0.6" />
  <line x1="60.8" y1="299.13" x2="770" y2="299.13" stroke="#f2f2f2" stroke-width="0.6" />
  <line x1="60.8" y1="210.87" x2="770" y2="210.87" stroke="#f2f2f2" stroke-width="0.6" />
  <line x1="60.8" y1="122.611" x2="770" y2="122.611" stroke="#f2f2f2" stroke-width="0.6" />
  <line x1="94.426" y1="40" x2="94.426" y2="470" stroke="#e6e6e6" stroke-width="1" />
  <line x1="247.271" y1="40" x2="247.271" y2="470" stroke="#e6e6e6" stroke-width="1" />
  <line x1="400.116" y1="40" x2="400.116" y2="470" stroke="#e6e6e6" stroke-width="1" />
  <line x1="552.96" y1="40" x2="552.96" y2="470" stroke="#e6e6e6" stroke-width="1" />
  <line x1="705.805" y1="40" x2="705.805" y2="470" stroke="#e6e6e6" stroke-width="1" />
  <line x1="60.8" y1="431.519" x2="770" y2="431.519" stroke="#e6e6e6" stroke-width="1" />
  <line x1="60.8" y1="343.259" x2="770" y2="343.259" stroke="#e6e6e6" stroke-width="1" />
  <line x1="60.8" y1="255" x2="770" y2="255" stroke="#e6e6e6" stroke-width="1" />
  <line x1="60.8" y1="166.741" x2="770" y2="166.741" stroke="#e6e6e6" stroke-width="1" />
  <line x1="60.8" y1="78.481" x2="770" y2="78.481" stroke="#e6e6e6" stroke-width="1" />
</g>
<defs>
<clipPath id="algraf-clip-0"><rect x="60.8" y="40" width="709.2" height="430" /></clipPath>
</defs>
<g clip-path="url(#algraf-clip-0)">
  <g class="algraf-layer algraf-geom-point">
    <circle cx="109.71" cy="387.389" r="3" fill="#6b7280" opacity="0.55" />
    <circle cx="186.133" cy="378.563" r="3" fill="#6b7280" opacity="0.55" />
    <circle cx="323.693" cy="272.652" r="3" fill="#6b7280" opacity="0.55" />
    <circle cx="293.124" cy="440.345" r="3" fill="#6b7280" opacity="0.55" />
    <circle cx="354.262" cy="400.628" r="3" fill="#6b7280" opacity="0.55" />
    <circle cx="415.4" cy="290.304" r="3" fill="#6b7280" opacity="0.55" />
    <circle cx="552.96" cy="219.696" r="3" fill="#6b7280" opacity="0.55" />
    <circle cx="644.667" cy="166.741" r="3" fill="#6b7280" opacity="0.55" />
    <circle cx="721.09" cy="69.655" r="3" fill="#6b7280" opacity="0.55" />
  </g>
</g>
<g class="algraf-axes">
  <line x1="60.8" y1="470" x2="770" y2="470" stroke="#333333" stroke-width="1" />
  <line x1="94.426" y1="470" x2="94.426" y2="475" stroke="#333333" stroke-width="1" />
  <text x="94.426" y="488" text-anchor="middle" font-family="system-ui, sans-serif" font-size="12" fill="#222222">180</text>
  <line x1="247.271" y1="470" x2="247.271" y2="475" stroke="#333333" stroke-width="1" />
  <text x="247.271" y="488" text-anchor="middle" font-family="system-ui, sans-serif" font-size="12" fill="#222222">190</text>
  <line x1="400.116" y1="470" x2="400.116" y2="475" stroke="#333333" stroke-width="1" />
  <text x="400.116" y="488" text-anchor="middle" font-family="system-ui, sans-serif" font-size="12" fill="#222222">200</text>
  <line x1="552.96" y1="470" x2="552.96" y2="475" stroke="#333333" stroke-width="1" />
  <text x="552.96" y="488" text-anchor="middle" font-family="system-ui, sans-serif" font-size="12" fill="#222222">210</text>
  <line x1="705.805" y1="470" x2="705.805" y2="475" stroke="#333333" stroke-width="1" />
  <text x="705.805" y="488" text-anchor="middle" font-family="system-ui, sans-serif" font-size="12" fill="#222222">220</text>
  <text x="415.4" y="508" text-anchor="middle" font-family="system-ui, sans-serif" font-size="12" fill="#222222">flipper length</text>
  <line x1="60.8" y1="40" x2="60.8" y2="470" stroke="#333333" stroke-width="1" />
  <line x1="55.8" y1="431.519" x2="60.8" y2="431.519" stroke="#333333" stroke-width="1" />
  <text x="52.8" y="435.519" text-anchor="end" font-family="system-ui, sans-serif" font-size="12" fill="#222222">3500</text>
  <line x1="55.8" y1="343.259" x2="60.8" y2="343.259" stroke="#333333" stroke-width="1" />
  <text x="52.8" y="347.259" text-anchor="end" font-family="system-ui, sans-serif" font-size="12" fill="#222222">4000</text>
  <line x1="55.8" y1="255" x2="60.8" y2="255" stroke="#333333" stroke-width="1" />
  <text x="52.8" y="259" text-anchor="end" font-family="system-ui, sans-serif" font-size="12" fill="#222222">4500</text>
  <line x1="55.8" y1="166.741" x2="60.8" y2="166.741" stroke="#333333" stroke-width="1" />
  <text x="52.8" y="170.741" text-anchor="end" font-family="system-ui, sans-serif" font-size="12" fill="#222222">5000</text>
  <line x1="55.8" y1="78.481" x2="60.8" y2="78.481" stroke="#333333" stroke-width="1" />
  <text x="52.8" y="82.481" text-anchor="end" font-family="system-ui, sans-serif" font-size="12" fill="#222222">5500</text>
  <text x="12" y="255" text-anchor="middle" transform="rotate(-90 12 255)" font-family="system-ui, sans-serif" font-size="12" fill="#222222">body mass</text>
</g>
</svg>
