<svg xmlns="http://www.w3.org/2000/svg" width="720" height="460" viewBox="0 0 720 460" role="img" aria-label="Height Distribution by Group (Violin + Boxplot)">
<title>Height Distribution by Group (Violin + Boxplot)</title>
<rect class="algraf-background" x="0" y="0" width="720" height="460" fill="#ffffff" />
<text class="algraf-title" x="60" y="24" font-family="system-ui, sans-serif" font-size="18" font-weight="600" fill="#222222">Height Distribution by Group (Violin + Boxplot)</text>
<rect class="algraf-plot-area" x="60" y="66" width="510" height="344" fill="#ffffff" />
<g class="algraf-grid">
  <line x1="60" y1="387.169" x2="570" y2="387.169" stroke="#f2f2f2" stroke-width="0.6" />
  <line x1="60" y1="345.247" x2="570" y2="345.247" stroke="#f2f2f2" stroke-width="0.6" />
  <line x1="60" y1="303.324" x2="570" y2="303.324" stroke="#f2f2f2" stroke-width="0.6" />
  <line x1="60" y1="261.402" x2="570" y2="261.402" stroke="#f2f2f2" stroke-width="0.6" />
  <line x1="60" y1="219.48" x2="570" y2="219.48" stroke="#f2f2f2" stroke-width="0.6" />
  <line x1="60" y1="177.557" x2="570" y2="177.557" stroke="#f2f2f2" stroke-width="0.6" />
  <line x1="60" y1="135.635" x2="570" y2="135.635" stroke="#f2f2f2" stroke-width="0.6" />
  <line x1="60" y1="93.713" x2="570" y2="93.713" stroke="#f2f2f2" stroke-width="0.6" />
  <line x1="60" y1="408.13" x2="570" y2="408.13" stroke="#e6e6e6" stroke-width="1" />
  <line x1="60" y1="366.208" x2="570" y2="366.208" stroke="#e6e6e6" stroke-width="1" />
  <line x1="60" y1="324.285" x2="570" y2="324.285" stroke="#e6e6e6" stroke-width="1" />
  <line x1="60" y1="282.363" x2="570" y2="282.363" stroke="#e6e6e6" stroke-width="1" />
  <line x1="60" y1="240.441" x2="570" y2="240.441" stroke="#e6e6e6" stroke-width="1" />
  <line x1="60" y1="198.518" x2="570" y2="198.518" stroke="#e6e6e6" stroke-width="1" />
  <line x1="60" y1="156.596" x2="570" y2="156.596" stroke="#e6e6e6" stroke-width="1" />
  <line x1="60" y1="114.674" x2="570" y2="114.674" stroke="#e6e6e6" stroke-width="1" />
  <line x1="60" y1="72.751" x2="570" y2="72.751" stroke="#e6e6e6" stroke-width="1" />
</g>
<defs>
<clipPath id="algraf-clip-0"><rect x="60" y="66" width="510" height="344" /></clipPath>
</defs>
<g clip-path="url(#algraf-clip-0)">
  <g class="algraf-layer algraf-geom-violin">
    <path d="M145.312 386.276 L145.352 385.444 L145.397 384.613 L145.447 383.782 L145.502 382.95 L145.563 382.119 L145.631 381.287 L145.706 380.456 L145.788 379.624 L145.879 378.793 L145.978 377.961 L146.087 377.13 L146.206 376.299 L146.336 375.467 L146.478 374.636 L146.633 373.804 L146.801 372.973 L146.983 372.141 L147.181 371.31 L147.394 370.478 L147.625 369.647 L147.873 368.816 L148.14 367.984 L148.426 367.153 L148.733 366.321 L149.062 365.49 L149.412 364.658 L149.786 363.827 L150.184 362.995 L150.606 362.164 L151.055 361.333 L151.529 360.501 L152.03 359.67 L152.559 358.838 L153.115 358.007 L153.7 357.175 L154.314 356.344 L154.957 355.513 L155.629 354.681 L156.33 353.85 L157.061 353.018 L157.82 352.187 L158.608 351.355 L159.425 350.524 L160.27 349.692 L161.142 348.861 L162.04 348.03 L162.964 347.198 L163.913 346.367 L164.885 345.535 L165.879 344.704 L166.894 343.872 L167.929 343.041 L168.981 342.209 L170.05 341.378 L171.132 340.547 L172.227 339.715 L173.333 338.884 L174.447 338.052 L175.567 337.221 L176.691 336.389 L177.817 335.558 L178.943 334.726 L180.067 333.895 L181.186 333.064 L182.298 332.232 L183.401 331.401 L184.492 330.569 L185.57 329.738 L186.633 328.906 L187.678 328.075 L188.703 327.243 L189.708 326.412 L190.689 325.581 L191.646 324.749 L192.576 323.918 L193.479 323.086 L194.353 322.255 L195.197 321.423 L196.01 320.592 L196.791 319.761 L197.539 318.929 L198.255 318.098 L198.936 317.266 L199.584 316.435 L200.197 315.603 L200.776 314.772 L201.322 313.94 L201.833 313.109 L202.311 312.278 L202.756 311.446 L203.168 310.615 L203.549 309.783 L203.899 308.952 L204.219 308.12 L204.51 307.289 L204.772 306.457 L205.008 305.626 L205.218 304.795 L205.404 303.963 L205.566 303.132 L205.707 302.3 L205.826 301.469 L205.927 300.637 L206.009 299.806 L206.075 298.974 L206.125 298.143 L206.162 297.312 L206.185 296.48 L206.198 295.649 L206.2 294.817 L206.193 293.986 L206.179 293.154 L206.158 292.323 L206.131 291.492 L206.1 290.66 L206.065 289.829 L206.028 288.997 L205.989 288.166 L205.95 287.334 L205.91 286.503 L205.87 285.671 L205.832 284.84 L205.796 284.009 L205.762 283.177 L205.73 282.346 L205.701 281.514 L205.676 280.683 L205.653 279.851 L205.635 279.02 L205.619 278.188 L205.608 277.357 L205.599 276.526 L205.594 275.694 L205.592 274.863 L205.592 274.031 L205.594 273.2 L205.597 272.368 L205.602 271.537 L205.607 270.705 L205.611 269.874 L205.614 269.043 L205.615 268.211 L205.612 267.38 L205.606 266.548 L205.594 265.717 L205.575 264.885 L205.549 264.054 L205.514 263.222 L205.469 262.391 L205.412 261.56 L205.342 260.728 L205.258 259.897 L205.158 259.065 L205.041 258.234 L204.905 257.402 L204.749 256.571 L204.571 255.74 L204.371 254.908 L204.146 254.077 L203.896 253.245 L203.619 252.414 L203.315 251.582 L202.981 250.751 L202.617 249.919 L202.223 249.088 L201.796 248.257 L201.337 247.425 L200.845 246.594 L200.32 245.762 L199.76 244.931 L199.166 244.099 L198.539 243.268 L197.877 242.436 L197.181 241.605 L196.452 240.774 L195.689 239.942 L194.895 239.111 L194.069 238.279 L193.212 237.448 L192.326 236.616 L191.412 235.785 L190.471 234.953 L189.504 234.122 L188.514 233.291 L187.502 232.459 L186.47 231.628 L185.42 230.796 L184.353 229.965 L183.273 229.133 L182.18 228.302 L181.078 227.47 L179.968 226.639 L178.853 225.808 L177.735 224.976 L176.616 224.145 L175.499 223.313 L174.385 222.482 L173.277 221.65 L172.177 220.819 L171.087 219.988 L170.008 219.156 L168.944 218.325 L167.896 217.493 L166.865 216.662 L165.852 215.83 L164.861 214.999 L163.891 214.167 L162.945 213.336 L162.023 212.505 L161.127 211.673 L160.257 210.842 L159.414 210.01 L158.598 209.179 L157.811 208.347 L157.053 207.516 L156.323 206.684 L155.623 205.853 L154.952 205.022 L154.31 204.19 L153.696 203.359 L153.112 202.527 L152.556 201.696 L152.028 200.864 L151.527 200.033 L151.053 199.201 L150.605 198.37 L150.182 197.539 L149.785 196.707 L149.411 195.876 L149.061 195.044 L148.732 194.213 L148.425 193.381 L148.139 192.55 L147.872 191.718 L147.624 190.887 L147.394 190.056 L147.181 189.224 L146.983 188.393 L146.801 187.561 L146.633 186.73 L146.478 185.898 L146.336 185.067 L146.206 184.236 L146.087 183.404 L145.978 182.573 L145.879 181.741 L145.788 180.91 L145.706 180.078 L145.631 179.247 L145.563 178.415 L145.502 177.584 L145.447 176.753 L145.397 175.921 L145.352 175.09 L145.312 174.258 L144.688 174.258 L144.648 175.09 L144.603 175.921 L144.553 176.753 L144.498 177.584 L144.437 178.415 L144.369 179.247 L144.294 180.078 L144.212 180.91 L144.121 181.741 L144.022 182.573 L143.913 183.404 L143.794 184.236 L143.664 185.067 L143.522 185.898 L143.367 186.73 L143.199 187.561 L143.017 188.393 L142.819 189.224 L142.606 190.056 L142.376 190.887 L142.128 191.718 L141.861 192.55 L141.575 193.381 L141.268 194.213 L140.939 195.044 L140.589 195.876 L140.215 196.707 L139.818 197.539 L139.395 198.37 L138.947 199.201 L138.473 200.033 L137.972 200.864 L137.444 201.696 L136.888 202.527 L136.304 203.359 L135.69 204.19 L135.048 205.022 L134.377 205.853 L133.677 206.684 L132.947 207.516 L132.189 208.347 L131.402 209.179 L130.586 210.01 L129.743 210.842 L128.873 211.673 L127.977 212.505 L127.055 213.336 L126.109 214.167 L125.139 214.999 L124.148 215.83 L123.135 216.662 L122.104 217.493 L121.056 218.325 L119.992 219.156 L118.913 219.988 L117.823 220.819 L116.723 221.65 L115.615 222.482 L114.501 223.313 L113.384 224.145 L112.265 224.976 L111.147 225.808 L110.032 226.639 L108.922 227.47 L107.82 228.302 L106.727 229.133 L105.647 229.965 L104.58 230.796 L103.53 231.628 L102.498 232.459 L101.486 233.291 L100.496 234.122 L99.529 234.953 L98.588 235.785 L97.674 236.616 L96.788 237.448 L95.931 238.279 L95.105 239.111 L94.311 239.942 L93.548 240.774 L92.819 241.605 L92.123 242.436 L91.461 243.268 L90.834 244.099 L90.24 244.931 L89.68 245.762 L89.155 246.594 L88.663 247.425 L88.204 248.257 L87.777 249.088 L87.383 249.919 L87.019 250.751 L86.685 251.582 L86.381 252.414 L86.104 253.245 L85.854 254.077 L85.629 254.908 L85.429 255.74 L85.251 256.571 L85.095 257.402 L84.959 258.234 L84.842 259.065 L84.742 259.897 L84.658 260.728 L84.588 261.56 L84.531 262.391 L84.486 263.222 L84.451 264.054 L84.425 264.885 L84.406 265.717 L84.394 266.548 L84.388 267.38 L84.385 268.211 L84.386 269.043 L84.389 269.874 L84.393 270.705 L84.398 271.537 L84.403 272.368 L84.406 273.2 L84.408 274.031 L84.408 274.863 L84.406 275.694 L84.401 276.526 L84.392 277.357 L84.381 278.188 L84.365 279.02 L84.347 279.851 L84.324 280.683 L84.299 281.514 L84.27 282.346 L84.238 283.177 L84.204 284.009 L84.168 284.84 L84.13 285.671 L84.09 286.503 L84.05 287.334 L84.011 288.166 L83.972 288.997 L83.935 289.829 L83.9 290.66 L83.869 291.492 L83.842 292.323 L83.821 293.154 L83.807 293.986 L83.8 294.817 L83.802 295.649 L83.815 296.48 L83.838 297.312 L83.875 298.143 L83.925 298.974 L83.991 299.806 L84.073 300.637 L84.174 301.469 L84.293 302.3 L84.434 303.132 L84.596 303.963 L84.782 304.795 L84.992 305.626 L85.228 306.457 L85.49 307.289 L85.781 308.12 L86.101 308.952 L86.451 309.783 L86.832 310.615 L87.244 311.446 L87.689 312.278 L88.167 313.109 L88.678 313.94 L89.224 314.772 L89.803 315.603 L90.416 316.435 L91.064 317.266 L91.745 318.098 L92.461 318.929 L93.209 319.761 L93.99 320.592 L94.803 321.423 L95.647 322.255 L96.521 323.086 L97.424 323.918 L98.354 324.749 L99.311 325.581 L100.292 326.412 L101.297 327.243 L102.322 328.075 L103.367 328.906 L104.43 329.738 L105.508 330.569 L106.599 331.401 L107.702 332.232 L108.814 333.064 L109.933 333.895 L111.057 334.726 L112.183 335.558 L113.309 336.389 L114.433 337.221 L115.553 338.052 L116.667 338.884 L117.773 339.715 L118.868 340.547 L119.95 341.378 L121.019 342.209 L122.071 343.041 L123.106 343.872 L124.121 344.704 L125.115 345.535 L126.087 346.367 L127.036 347.198 L127.96 348.03 L128.858 348.861 L129.73 349.692 L130.575 350.524 L131.392 351.355 L132.18 352.187 L132.939 353.018 L133.67 353.85 L134.371 354.681 L135.043 355.513 L135.686 356.344 L136.3 357.175 L136.885 358.007 L137.441 358.838 L137.97 359.67 L138.471 360.501 L138.945 361.333 L139.394 362.164 L139.816 362.995 L140.214 363.827 L140.588 364.658 L140.938 365.49 L141.267 366.321 L141.574 367.153 L141.86 367.984 L142.127 368.816 L142.375 369.647 L142.606 370.478 L142.819 371.31 L143.017 372.141 L143.199 372.973 L143.367 373.804 L143.522 374.636 L143.664 375.467 L143.794 376.299 L143.913 377.13 L144.022 377.961 L144.121 378.793 L144.212 379.624 L144.294 380.456 L144.369 381.287 L144.437 382.119 L144.498 382.95 L144.553 383.782 L144.603 384.613 L144.648 385.444 L144.688 386.276 Z" fill="#4E79A7" opacity="0.45" />
    <path d="M315.332 245.268 L315.376 244.658 L315.424 244.048 L315.477 243.438 L315.537 242.828 L315.603 242.218 L315.676 241.608 L315.757 240.998 L315.846 240.388 L315.945 239.778 L316.053 239.168 L316.172 238.558 L316.302 237.948 L316.445 237.338 L316.6 236.728 L316.77 236.118 L316.955 235.508 L317.156 234.898 L317.374 234.288 L317.611 233.678 L317.866 233.068 L318.142 232.458 L318.439 231.848 L318.759 231.238 L319.102 230.628 L319.469 230.018 L319.863 229.408 L320.283 228.798 L320.731 228.188 L321.207 227.578 L321.713 226.968 L322.25 226.359 L322.818 225.749 L323.419 225.139 L324.052 224.529 L324.718 223.919 L325.418 223.309 L326.152 222.699 L326.92 222.089 L327.723 221.479 L328.56 220.869 L329.431 220.259 L330.336 219.649 L331.275 219.039 L332.245 218.429 L333.248 217.819 L334.281 217.209 L335.344 216.599 L336.435 215.989 L337.553 215.379 L338.696 214.769 L339.861 214.159 L341.048 213.549 L342.253 212.939 L343.475 212.329 L344.711 211.719 L345.958 211.109 L347.214 210.499 L348.476 209.889 L349.741 209.279 L351.005 208.669 L352.266 208.059 L353.521 207.449 L354.767 206.839 L356 206.229 L357.217 205.619 L358.416 205.009 L359.593 204.399 L360.745 203.789 L361.869 203.179 L362.964 202.569 L364.025 201.96 L365.051 201.35 L366.04 200.74 L366.989 200.13 L367.895 199.52 L368.759 198.91 L369.577 198.3 L370.349 197.69 L371.074 197.08 L371.75 196.47 L372.378 195.86 L372.956 195.25 L373.484 194.64 L373.964 194.03 L374.394 193.42 L374.775 192.81 L375.109 192.2 L375.395 191.59 L375.636 190.98 L375.831 190.37 L375.984 189.76 L376.095 189.15 L376.167 188.54 L376.2 187.93 L376.197 187.32 L376.16 186.71 L376.092 186.1 L375.993 185.49 L375.867 184.88 L375.716 184.27 L375.541 183.66 L375.346 183.05 L375.132 182.44 L374.901 181.83 L374.656 181.22 L374.398 180.61 L374.129 180 L373.852 179.39 L373.569 178.78 L373.28 178.171 L372.987 177.561 L372.692 176.951 L372.397 176.341 L372.102 175.731 L371.808 175.121 L371.518 174.511 L371.23 173.901 L370.948 173.291 L370.67 172.681 L370.398 172.071 L370.132 171.461 L369.873 170.851 L369.62 170.241 L369.375 169.631 L369.136 169.021 L368.904 168.411 L368.68 167.801 L368.462 167.191 L368.251 166.581 L368.046 165.971 L367.847 165.361 L367.654 164.751 L367.466 164.141 L367.283 163.531 L367.105 162.921 L366.929 162.311 L366.757 161.701 L366.588 161.091 L366.42 160.481 L366.254 159.871 L366.088 159.261 L365.921 158.651 L365.754 158.041 L365.585 157.431 L365.414 156.821 L365.24 156.211 L365.061 155.601 L364.878 154.991 L364.69 154.381 L364.495 153.772 L364.293 153.162 L364.083 152.552 L363.864 151.942 L363.636 151.332 L363.397 150.722 L363.147 150.112 L362.885 149.502 L362.611 148.892 L362.323 148.282 L362.02 147.672 L361.703 147.062 L361.37 146.452 L361.02 145.842 L360.654 145.232 L360.27 144.622 L359.867 144.012 L359.446 143.402 L359.006 142.792 L358.546 142.182 L358.066 141.572 L357.566 140.962 L357.045 140.352 L356.504 139.742 L355.942 139.132 L355.359 138.522 L354.756 137.912 L354.132 137.302 L353.489 136.692 L352.826 136.082 L352.144 135.472 L351.443 134.862 L350.725 134.252 L349.989 133.642 L349.237 133.032 L348.47 132.422 L347.689 131.812 L346.895 131.202 L346.088 130.592 L345.271 129.982 L344.445 129.373 L343.611 128.763 L342.77 128.153 L341.924 127.543 L341.075 126.933 L340.224 126.323 L339.372 125.713 L338.521 125.103 L337.673 124.493 L336.829 123.883 L335.991 123.273 L335.16 122.663 L334.338 122.053 L333.526 121.443 L332.725 120.833 L331.937 120.223 L331.163 119.613 L330.403 119.003 L329.66 118.393 L328.935 117.783 L328.227 117.173 L327.538 116.563 L326.868 115.953 L326.219 115.343 L325.591 114.733 L324.984 114.123 L324.398 113.513 L323.834 112.903 L323.292 112.293 L322.773 111.683 L322.275 111.073 L321.799 110.463 L321.346 109.853 L320.913 109.243 L320.503 108.633 L320.113 108.023 L319.744 107.413 L319.395 106.803 L319.065 106.193 L318.755 105.583 L318.463 104.974 L318.189 104.364 L317.933 103.754 L317.693 103.144 L317.468 102.534 L317.26 101.924 L317.065 101.314 L316.885 100.704 L316.717 100.094 L316.562 99.484 L316.419 98.874 L316.287 98.264 L316.166 97.654 L316.054 97.044 L315.952 96.434 L315.858 95.824 L315.772 95.214 L315.694 94.604 L315.623 93.994 L315.558 93.384 L315.499 92.774 L315.446 92.164 L315.397 91.554 L315.354 90.944 L315.314 90.334 L315.279 89.724 L314.721 89.724 L314.686 90.334 L314.646 90.944 L314.603 91.554 L314.554 92.164 L314.501 92.774 L314.442 93.384 L314.377 93.994 L314.306 94.604 L314.228 95.214 L314.142 95.824 L314.048 96.434 L313.946 97.044 L313.834 97.654 L313.713 98.264 L313.581 98.874 L313.438 99.484 L313.283 100.094 L313.115 100.704 L312.935 101.314 L312.74 101.924 L312.532 102.534 L312.307 103.144 L312.067 103.754 L311.811 104.364 L311.537 104.974 L311.245 105.583 L310.935 106.193 L310.605 106.803 L310.256 107.413 L309.887 108.023 L309.497 108.633 L309.087 109.243 L308.654 109.853 L308.201 110.463 L307.725 111.073 L307.227 111.683 L306.708 112.293 L306.166 112.903 L305.602 113.513 L305.016 114.123 L304.409 114.733 L303.781 115.343 L303.132 115.953 L302.462 116.563 L301.773 117.173 L301.065 117.783 L300.34 118.393 L299.597 119.003 L298.837 119.613 L298.063 120.223 L297.275 120.833 L296.474 121.443 L295.662 122.053 L294.84 122.663 L294.009 123.273 L293.171 123.883 L292.327 124.493 L291.479 125.103 L290.628 125.713 L289.776 126.323 L288.925 126.933 L288.076 127.543 L287.23 128.153 L286.389 128.763 L285.555 129.373 L284.729 129.982 L283.912 130.592 L283.105 131.202 L282.311 131.812 L281.53 132.422 L280.763 133.032 L280.011 133.642 L279.275 134.252 L278.557 134.862 L277.856 135.472 L277.174 136.082 L276.511 136.692 L275.868 137.302 L275.244 137.912 L274.641 138.522 L274.058 139.132 L273.496 139.742 L272.955 140.352 L272.434 140.962 L271.934 141.572 L271.454 142.182 L270.994 142.792 L270.554 143.402 L270.133 144.012 L269.73 144.622 L269.346 145.232 L268.98 145.842 L268.63 146.452 L268.297 147.062 L267.98 147.672 L267.677 148.282 L267.389 148.892 L267.115 149.502 L266.853 150.112 L266.603 150.722 L266.364 151.332 L266.136 151.942 L265.917 152.552 L265.707 153.162 L265.505 153.772 L265.31 154.381 L265.122 154.991 L264.939 155.601 L264.76 156.211 L264.586 156.821 L264.415 157.431 L264.246 158.041 L264.079 158.651 L263.912 159.261 L263.746 159.871 L263.58 160.481 L263.412 161.091 L263.243 161.701 L263.071 162.311 L262.895 162.921 L262.717 163.531 L262.534 164.141 L262.346 164.751 L262.153 165.361 L261.954 165.971 L261.749 166.581 L261.538 167.191 L261.32 167.801 L261.096 168.411 L260.864 169.021 L260.625 169.631 L260.38 170.241 L260.127 170.851 L259.868 171.461 L259.602 172.071 L259.33 172.681 L259.052 173.291 L258.77 173.901 L258.482 174.511 L258.192 175.121 L257.898 175.731 L257.603 176.341 L257.308 176.951 L257.013 177.561 L256.72 178.171 L256.431 178.78 L256.148 179.39 L255.871 180 L255.602 180.61 L255.344 181.22 L255.099 181.83 L254.868 182.44 L254.654 183.05 L254.459 183.66 L254.284 184.27 L254.133 184.88 L254.007 185.49 L253.908 186.1 L253.84 186.71 L253.803 187.32 L253.8 187.93 L253.833 188.54 L253.905 189.15 L254.016 189.76 L254.169 190.37 L254.364 190.98 L254.605 191.59 L254.891 192.2 L255.225 192.81 L255.606 193.42 L256.036 194.03 L256.516 194.64 L257.044 195.25 L257.622 195.86 L258.25 196.47 L258.926 197.08 L259.651 197.69 L260.423 198.3 L261.241 198.91 L262.105 199.52 L263.011 200.13 L263.96 200.74 L264.949 201.35 L265.975 201.96 L267.036 202.569 L268.131 203.179 L269.255 203.789 L270.407 204.399 L271.584 205.009 L272.783 205.619 L274 206.229 L275.233 206.839 L276.479 207.449 L277.734 208.059 L278.995 208.669 L280.259 209.279 L281.524 209.889 L282.786 210.499 L284.042 211.109 L285.289 211.719 L286.525 212.329 L287.747 212.939 L288.952 213.549 L290.139 214.159 L291.304 214.769 L292.447 215.379 L293.565 215.989 L294.656 216.599 L295.719 217.209 L296.752 217.819 L297.755 218.429 L298.725 219.039 L299.664 219.649 L300.569 220.259 L301.44 220.869 L302.277 221.479 L303.08 222.089 L303.848 222.699 L304.582 223.309 L305.282 223.919 L305.948 224.529 L306.581 225.139 L307.182 225.749 L307.75 226.359 L308.287 226.968 L308.793 227.578 L309.269 228.188 L309.717 228.798 L310.137 229.408 L310.531 230.018 L310.898 230.628 L311.241 231.238 L311.561 231.848 L311.858 232.458 L312.134 233.068 L312.389 233.678 L312.626 234.288 L312.844 234.898 L313.045 235.508 L313.23 236.118 L313.4 236.728 L313.555 237.338 L313.698 237.948 L313.828 238.558 L313.947 239.168 L314.055 239.778 L314.154 240.388 L314.243 240.998 L314.324 241.608 L314.397 242.218 L314.463 242.828 L314.523 243.438 L314.576 244.048 L314.624 244.658 L314.668 245.268 Z" fill="#F28E2B" opacity="0.45" />
    <path d="M485.392 288.895 L485.44 288.406 L485.493 287.918 L485.552 287.429 L485.618 286.941 L485.689 286.452 L485.769 285.964 L485.856 285.475 L485.952 284.987 L486.056 284.498 L486.171 284.009 L486.297 283.521 L486.434 283.032 L486.583 282.544 L486.746 282.055 L486.922 281.567 L487.114 281.078 L487.321 280.59 L487.545 280.101 L487.787 279.613 L488.048 279.124 L488.328 278.636 L488.63 278.147 L488.953 277.658 L489.299 277.17 L489.669 276.681 L490.065 276.193 L490.486 275.704 L490.934 275.216 L491.411 274.727 L491.916 274.239 L492.451 273.75 L493.016 273.262 L493.613 272.773 L494.242 272.285 L494.904 271.796 L495.599 271.308 L496.328 270.819 L497.091 270.33 L497.888 269.842 L498.719 269.353 L499.585 268.865 L500.485 268.376 L501.419 267.888 L502.386 267.399 L503.387 266.911 L504.419 266.422 L505.483 265.934 L506.577 265.445 L507.7 264.957 L508.85 264.468 L510.026 263.979 L511.226 263.491 L512.449 263.002 L513.691 262.514 L514.952 262.025 L516.227 261.537 L517.516 261.048 L518.814 260.56 L520.119 260.071 L521.429 259.583 L522.739 259.094 L524.047 258.606 L525.35 258.117 L526.643 257.628 L527.924 257.14 L529.188 256.651 L530.432 256.163 L531.654 255.674 L532.848 255.186 L534.011 254.697 L535.14 254.209 L536.232 253.72 L537.282 253.232 L538.288 252.743 L539.245 252.255 L540.152 251.766 L541.005 251.278 L541.801 250.789 L542.537 250.3 L543.212 249.812 L543.822 249.323 L544.366 248.835 L544.842 248.346 L545.249 247.858 L545.584 247.369 L545.848 246.881 L546.038 246.392 L546.156 245.904 L546.2 245.415 L546.171 244.927 L546.068 244.438 L545.894 243.949 L545.648 243.461 L545.332 242.972 L544.947 242.484 L544.495 241.995 L543.978 241.507 L543.399 241.018 L542.76 240.53 L542.063 240.041 L541.312 239.553 L540.51 239.064 L539.661 238.576 L538.767 238.087 L537.833 237.599 L536.862 237.11 L535.859 236.621 L534.827 236.133 L533.771 235.644 L532.694 235.156 L531.602 234.667 L530.498 234.179 L529.387 233.69 L528.273 233.202 L527.16 232.713 L526.053 232.225 L524.955 231.736 L523.87 231.248 L522.804 230.759 L521.758 230.27 L520.738 229.782 L519.746 229.293 L518.785 228.805 L517.86 228.316 L516.972 227.828 L516.125 227.339 L515.321 226.851 L514.562 226.362 L513.85 225.874 L513.188 225.385 L512.576 224.897 L512.016 224.408 L511.508 223.919 L511.055 223.431 L510.655 222.942 L510.31 222.454 L510.019 221.965 L509.782 221.477 L509.598 220.988 L509.466 220.5 L509.386 220.011 L509.356 219.523 L509.374 219.034 L509.438 218.546 L509.547 218.057 L509.698 217.569 L509.889 217.08 L510.116 216.591 L510.378 216.103 L510.672 215.614 L510.994 215.126 L511.34 214.637 L511.709 214.149 L512.095 213.66 L512.497 213.172 L512.91 212.683 L513.33 212.195 L513.755 211.706 L514.18 211.218 L514.602 210.729 L515.018 210.24 L515.424 209.752 L515.817 209.263 L516.194 208.775 L516.551 208.286 L516.885 207.798 L517.195 207.309 L517.476 206.821 L517.727 206.332 L517.945 205.844 L518.128 205.355 L518.275 204.867 L518.384 204.378 L518.452 203.89 L518.48 203.401 L518.467 202.912 L518.41 202.424 L518.311 201.935 L518.169 201.447 L517.984 200.958 L517.755 200.47 L517.485 199.981 L517.173 199.493 L516.82 199.004 L516.427 198.516 L515.996 198.027 L515.529 197.539 L515.026 197.05 L514.49 196.561 L513.923 196.073 L513.326 195.584 L512.703 195.096 L512.054 194.607 L511.383 194.119 L510.691 193.63 L509.982 193.142 L509.257 192.653 L508.52 192.165 L507.772 191.676 L507.016 191.188 L506.255 190.699 L505.49 190.21 L504.724 189.722 L503.959 189.233 L503.198 188.745 L502.441 188.256 L501.692 187.768 L500.952 187.279 L500.223 186.791 L499.506 186.302 L498.802 185.814 L498.114 185.325 L497.442 184.837 L496.787 184.348 L496.15 183.86 L495.533 183.371 L494.935 182.882 L494.357 182.394 L493.801 181.905 L493.265 181.417 L492.751 180.928 L492.258 180.44 L491.786 179.951 L491.336 179.463 L490.907 178.974 L490.499 178.486 L490.112 177.997 L489.745 177.509 L489.399 177.02 L489.071 176.531 L488.763 176.043 L488.472 175.554 L488.2 175.066 L487.944 174.577 L487.705 174.089 L487.482 173.6 L487.274 173.112 L487.08 172.623 L486.9 172.135 L486.733 171.646 L486.579 171.158 L486.436 170.669 L486.304 170.181 L486.183 169.692 L486.071 169.203 L485.968 168.715 L485.874 168.226 L485.788 167.738 L485.71 167.249 L485.638 166.761 L485.573 166.272 L485.513 165.784 L485.459 165.295 L485.411 164.807 L485.366 164.318 L484.634 164.318 L484.589 164.807 L484.541 165.295 L484.487 165.784 L484.427 166.272 L484.362 166.761 L484.29 167.249 L484.212 167.738 L484.126 168.226 L484.032 168.715 L483.929 169.203 L483.817 169.692 L483.696 170.181 L483.564 170.669 L483.421 171.158 L483.267 171.646 L483.1 172.135 L482.92 172.623 L482.726 173.112 L482.518 173.6 L482.295 174.089 L482.056 174.577 L481.8 175.066 L481.528 175.554 L481.237 176.043 L480.929 176.531 L480.601 177.02 L480.255 177.509 L479.888 177.997 L479.501 178.486 L479.093 178.974 L478.664 179.463 L478.214 179.951 L477.742 180.44 L477.249 180.928 L476.735 181.417 L476.199 181.905 L475.643 182.394 L475.065 182.882 L474.467 183.371 L473.85 183.86 L473.213 184.348 L472.558 184.837 L471.886 185.325 L471.198 185.814 L470.494 186.302 L469.777 186.791 L469.048 187.279 L468.308 187.768 L467.559 188.256 L466.802 188.745 L466.041 189.233 L465.276 189.722 L464.51 190.21 L463.745 190.699 L462.984 191.188 L462.228 191.676 L461.48 192.165 L460.743 192.653 L460.018 193.142 L459.309 193.63 L458.617 194.119 L457.946 194.607 L457.297 195.096 L456.674 195.584 L456.077 196.073 L455.51 196.561 L454.974 197.05 L454.471 197.539 L454.004 198.027 L453.573 198.516 L453.18 199.004 L452.827 199.493 L452.515 199.981 L452.245 200.47 L452.016 200.958 L451.831 201.447 L451.689 201.935 L451.59 202.424 L451.533 202.912 L451.52 203.401 L451.548 203.89 L451.616 204.378 L451.725 204.867 L451.872 205.355 L452.055 205.844 L452.273 206.332 L452.524 206.821 L452.805 207.309 L453.115 207.798 L453.449 208.286 L453.806 208.775 L454.183 209.263 L454.576 209.752 L454.982 210.24 L455.398 210.729 L455.82 211.218 L456.245 211.706 L456.67 212.195 L457.09 212.683 L457.503 213.172 L457.905 213.66 L458.291 214.149 L458.66 214.637 L459.006 215.126 L459.328 215.614 L459.622 216.103 L459.884 216.591 L460.111 217.08 L460.302 217.569 L460.453 218.057 L460.562 218.546 L460.626 219.034 L460.644 219.523 L460.614 220.011 L460.534 220.5 L460.402 220.988 L460.218 221.477 L459.981 221.965 L459.69 222.454 L459.345 222.942 L458.945 223.431 L458.492 223.919 L457.984 224.408 L457.424 224.897 L456.812 225.385 L456.15 225.874 L455.438 226.362 L454.679 226.851 L453.875 227.339 L453.028 227.828 L452.14 228.316 L451.215 228.805 L450.254 229.293 L449.262 229.782 L448.242 230.27 L447.196 230.759 L446.13 231.248 L445.045 231.736 L443.947 232.225 L442.84 232.713 L441.727 233.202 L440.613 233.69 L439.502 234.179 L438.398 234.667 L437.306 235.156 L436.229 235.644 L435.173 236.133 L434.141 236.621 L433.138 237.11 L432.167 237.599 L431.233 238.087 L430.339 238.576 L429.49 239.064 L428.688 239.553 L427.937 240.041 L427.24 240.53 L426.601 241.018 L426.022 241.507 L425.505 241.995 L425.053 242.484 L424.668 242.972 L424.352 243.461 L424.106 243.949 L423.932 244.438 L423.829 244.927 L423.8 245.415 L423.844 245.904 L423.962 246.392 L424.152 246.881 L424.416 247.369 L424.751 247.858 L425.158 248.346 L425.634 248.835 L426.178 249.323 L426.788 249.812 L427.463 250.3 L428.199 250.789 L428.995 251.278 L429.848 251.766 L430.755 252.255 L431.712 252.743 L432.718 253.232 L433.768 253.72 L434.86 254.209 L435.989 254.697 L437.152 255.186 L438.346 255.674 L439.568 256.163 L440.812 256.651 L442.076 257.14 L443.357 257.628 L444.65 258.117 L445.953 258.606 L447.261 259.094 L448.571 259.583 L449.881 260.071 L451.186 260.56 L452.484 261.048 L453.773 261.537 L455.048 262.025 L456.309 262.514 L457.551 263.002 L458.774 263.491 L459.974 263.979 L461.15 264.468 L462.3 264.957 L463.423 265.445 L464.517 265.934 L465.581 266.422 L466.613 266.911 L467.614 267.399 L468.581 267.888 L469.515 268.376 L470.415 268.865 L471.281 269.353 L472.112 269.842 L472.909 270.33 L473.672 270.819 L474.401 271.308 L475.096 271.796 L475.758 272.285 L476.387 272.773 L476.984 273.262 L477.549 273.75 L478.084 274.239 L478.589 274.727 L479.066 275.216 L479.514 275.704 L479.935 276.193 L480.331 276.681 L480.701 277.17 L481.047 277.658 L481.37 278.147 L481.672 278.636 L481.952 279.124 L482.213 279.613 L482.455 280.101 L482.679 280.59 L482.886 281.078 L483.078 281.567 L483.254 282.055 L483.417 282.544 L483.566 283.032 L483.703 283.521 L483.829 284.009 L483.944 284.498 L484.048 284.987 L484.144 285.475 L484.231 285.964 L484.311 286.452 L484.382 286.941 L484.448 287.429 L484.507 287.918 L484.56 288.406 L484.608 288.895 Z" fill="#E15759" opacity="0.45" />
  </g>
  <g class="algraf-layer algraf-geom-boxplot">
    <line x1="145" y1="324.285" x2="145" y2="236.249" stroke="#2b2b2b" stroke-width="1.5" opacity="1" />
    <line x1="142" y1="324.285" x2="148" y2="324.285" stroke="#2b2b2b" stroke-width="1.5" opacity="1" />
    <line x1="142" y1="236.249" x2="148" y2="236.249" stroke="#2b2b2b" stroke-width="1.5" opacity="1" />
    <rect x="137.5" y="256.371" width="15" height="47.791" fill="#ffffff" stroke="#2b2b2b" stroke-width="1.5" opacity="1" />
    <line x1="137.5" y1="280.686" x2="152.5" y2="280.686" stroke="#2b2b2b" stroke-width="1.5" opacity="1" />
    <line x1="315" y1="199.357" x2="315" y2="135.635" stroke="#2b2b2b" stroke-width="1.5" opacity="1" />
    <line x1="312" y1="199.357" x2="318" y2="199.357" stroke="#2b2b2b" stroke-width="1.5" opacity="1" />
    <line x1="312" y1="135.635" x2="318" y2="135.635" stroke="#2b2b2b" stroke-width="1.5" opacity="1" />
    <rect x="307.5" y="154.919" width="15" height="36.892" fill="#ffffff" stroke="#2b2b2b" stroke-width="1.5" opacity="1" />
    <line x1="307.5" y1="173.365" x2="322.5" y2="173.365" stroke="#2b2b2b" stroke-width="1.5" opacity="1" />
    <line x1="485" y1="250.502" x2="485" y2="202.711" stroke="#2b2b2b" stroke-width="1.5" opacity="1" />
    <line x1="482" y1="250.502" x2="488" y2="250.502" stroke="#2b2b2b" stroke-width="1.5" opacity="1" />
    <line x1="482" y1="202.711" x2="488" y2="202.711" stroke="#2b2b2b" stroke-width="1.5" opacity="1" />
    <rect x="477.5" y="221.576" width="15" height="23.896" fill="#ffffff" stroke="#2b2b2b" stroke-width="1.5" opacity="1" />
    <line x1="477.5" y1="240.441" x2="492.5" y2="240.441" stroke="#2b2b2b" stroke-width="1.5" opacity="1" />
  </g>
</g>
<g class="algraf-axes">
  <line x1="60" y1="410" x2="570" y2="410" stroke="#333333" stroke-width="1" />
  <line x1="145" y1="410" x2="145" y2="415" stroke="#333333" stroke-width="1" />
  <text x="145" y="428" text-anchor="middle" font-family="system-ui, sans-serif" font-size="12" fill="#222222">Female</text>
  <line x1="315" y1="410" x2="315" y2="415" stroke="#333333" stroke-width="1" />
  <text x="315" y="428" text-anchor="middle" font-family="system-ui, sans-serif" font-size="12" fill="#222222">Male</text>
  <line x1="485" y1="410" x2="485" y2="415" stroke="#333333" stroke-width="1" />
  <text x="485" y="428" text-anchor="middle" font-family="system-ui, sans-serif" font-size="12" fill="#222222">Non-binary</text>
  <text x="315" y="448" text-anchor="middle" font-family="system-ui, sans-serif" font-size="12" fill="#222222">Gender Group</text>
  <line x1="60" y1="66" x2="60" y2="410" stroke="#333333" stroke-width="1" />
  <line x1="55" y1="408.13" x2="60" y2="408.13" stroke="#333333" stroke-width="1" />
  <text x="52" y="412.13" text-anchor="end" font-family="system-ui, sans-serif" font-size="12" fill="#222222">150</text>
  <line x1="55" y1="366.208" x2="60" y2="366.208" stroke="#333333" stroke-width="1" />
  <text x="52" y="370.208" text-anchor="end" font-family="system-ui, sans-serif" font-size="12" fill="#222222">155</text>
  <line x1="55" y1="324.285" x2="60" y2="324.285" stroke="#333333" stroke-width="1" />
  <text x="52" y="328.285" text-anchor="end" font-family="system-ui, sans-serif" font-size="12" fill="#222222">160</text>
  <line x1="55" y1="282.363" x2="60" y2="282.363" stroke="#333333" stroke-width="1" />
  <text x="52" y="286.363" text-anchor="end" font-family="system-ui, sans-serif" font-size="12" fill="#222222">165</text>
  <line x1="55" y1="240.441" x2="60" y2="240.441" stroke="#333333" stroke-width="1" />
  <text x="52" y="244.441" text-anchor="end" font-family="system-ui, sans-serif" font-size="12" fill="#222222">170</text>
  <line x1="55" y1="198.518" x2="60" y2="198.518" stroke="#333333" stroke-width="1" />
  <text x="52" y="202.518" text-anchor="end" font-family="system-ui, sans-serif" font-size="12" fill="#222222">175</text>
  <line x1="55" y1="156.596" x2="60" y2="156.596" stroke="#333333" stroke-width="1" />
  <text x="52" y="160.596" text-anchor="end" font-family="system-ui, sans-serif" font-size="12" fill="#222222">180</text>
  <line x1="55" y1="114.674" x2="60" y2="114.674" stroke="#333333" stroke-width="1" />
  <text x="52" y="118.674" text-anchor="end" font-family="system-ui, sans-serif" font-size="12" fill="#222222">185</text>
  <line x1="55" y1="72.751" x2="60" y2="72.751" stroke="#333333" stroke-width="1" />
  <text x="52" y="76.751" text-anchor="end" font-family="system-ui, sans-serif" font-size="12" fill="#222222">190</text>
  <text x="18.4" y="238" text-anchor="middle" transform="rotate(-90 18.4 238)" font-family="system-ui, sans-serif" font-size="12" fill="#222222">Height (cm)</text>
</g>
<g class="algraf-legends">
  <text x="586" y="70" text-anchor="start" font-family="system-ui, sans-serif" font-size="12" fill="#222222">gender</text>
  <rect x="586" y="78" width="12" height="12" fill="#4E79A7" />
  <text x="604" y="88" text-anchor="start" font-family="system-ui, sans-serif" font-size="12" fill="#222222">Female</text>
  <rect x="586" y="96" width="12" height="12" fill="#F28E2B" />
  <text x="604" y="106" text-anchor="start" font-family="system-ui, sans-serif" font-size="12" fill="#222222">Male</text>
  <rect x="586" y="114" width="12" height="12" fill="#E15759" />
  <text x="604" y="124" text-anchor="start" font-family="system-ui, sans-serif" font-size="12" fill="#222222">Non-binary</text>
</g>
</svg>
