<svg xmlns="http://www.w3.org/2000/svg" width="760" height="420" viewBox="0 0 760 420" role="img" aria-label="7-Day Weather Forecast &amp; Observations">
<title>7-Day Weather Forecast &amp; Observations</title>
<rect class="algraf-background" x="0" y="0" width="760" height="420" fill="#ffffff" />
<text class="algraf-title" x="60" y="24" font-family="system-ui, sans-serif" font-size="18" font-weight="600" fill="#222222">7-Day Weather Forecast &amp; Observations</text>
<rect class="algraf-plot-area" x="60" y="66" width="650" height="304" fill="#ffffff" />
<g class="algraf-grid">
  <line x1="114.167" y1="66" x2="114.167" y2="370" stroke="#f2f2f2" stroke-width="0.6" />
  <line x1="222.5" y1="66" x2="222.5" y2="370" stroke="#f2f2f2" stroke-width="0.6" />
  <line x1="330.833" y1="66" x2="330.833" y2="370" stroke="#f2f2f2" stroke-width="0.6" />
  <line x1="439.167" y1="66" x2="439.167" y2="370" stroke="#f2f2f2" stroke-width="0.6" />
  <line x1="547.5" y1="66" x2="547.5" y2="370" stroke="#f2f2f2" stroke-width="0.6" />
  <line x1="655.833" y1="66" x2="655.833" y2="370" stroke="#f2f2f2" stroke-width="0.6" />
  <line x1="60" y1="301.6" x2="710" y2="301.6" stroke="#f2f2f2" stroke-width="0.6" />
  <line x1="60" y1="225.6" x2="710" y2="225.6" stroke="#f2f2f2" stroke-width="0.6" />
  <line x1="60" y1="149.6" x2="710" y2="149.6" stroke="#f2f2f2" stroke-width="0.6" />
  <line x1="60" y1="66" x2="60" y2="370" stroke="#e6e6e6" stroke-width="1" />
  <line x1="168.333" y1="66" x2="168.333" y2="370" stroke="#e6e6e6" stroke-width="1" />
  <line x1="276.667" y1="66" x2="276.667" y2="370" stroke="#e6e6e6" stroke-width="1" />
  <line x1="385" y1="66" x2="385" y2="370" stroke="#e6e6e6" stroke-width="1" />
  <line x1="493.333" y1="66" x2="493.333" y2="370" stroke="#e6e6e6" stroke-width="1" />
  <line x1="601.667" y1="66" x2="601.667" y2="370" stroke="#e6e6e6" stroke-width="1" />
  <line x1="710" y1="66" x2="710" y2="370" stroke="#e6e6e6" stroke-width="1" />
  <line x1="60" y1="339.6" x2="710" y2="339.6" stroke="#e6e6e6" stroke-width="1" />
  <line x1="60" y1="263.6" x2="710" y2="263.6" stroke="#e6e6e6" stroke-width="1" />
  <line x1="60" y1="187.6" x2="710" y2="187.6" stroke="#e6e6e6" stroke-width="1" />
  <line x1="60" y1="111.6" x2="710" y2="111.6" stroke="#e6e6e6" stroke-width="1" />
</g>
<defs>
<clipPath id="algraf-clip-0"><rect x="0" y="64.5" width="760" height="307" /></clipPath>
</defs>
<g clip-path="url(#algraf-clip-0)">
  <g class="algraf-layer algraf-geom-ribbon">
    <path d="M60 218 L168.333 233.2 L276.667 202.8 L385 157.2 L493.333 126.8 L601.667 111.6 L710 172.4 L710 294 L601.667 263.6 L493.333 278.8 L385 294 L276.667 339.6 L168.333 324.4 L60 309.2 Z" fill="#add8e6" opacity="0.4" />
  </g>
  <g class="algraf-layer algraf-geom-line">
    <path d="M60 263.6 L168.333 278.8 L276.667 271.2 L385 225.6 L493.333 202.8 L601.667 187.6 L710 233.2" fill="none" stroke="#4a90e2" stroke-width="3" opacity="1" />
  </g>
</g>
<defs>
<clipPath id="algraf-clip-1"><rect x="0" y="60" width="760" height="316" /></clipPath>
</defs>
<g clip-path="url(#algraf-clip-1)">
  <g class="algraf-layer algraf-geom-point">
    <circle cx="60" cy="271.2" r="6" fill="#ff6b6b" opacity="1" />
    <circle cx="168.333" cy="260.56" r="6" fill="#ff6b6b" opacity="1" />
    <circle cx="276.667" cy="281.84" r="6" fill="#ff6b6b" opacity="1" />
    <circle cx="385" cy="218" r="6" fill="#ff6b6b" opacity="1" />
    <circle cx="493.333" cy="195.2" r="6" fill="#ff6b6b" opacity="1" />
    <circle cx="601.667" cy="169.36" r="6" fill="#ff6b6b" opacity="1" />
    <circle cx="710" cy="240.8" r="6" fill="#ff6b6b" opacity="1" />
  </g>
</g>
<g class="algraf-axes">
  <line x1="60" y1="370" x2="710" y2="370" stroke="#333333" stroke-width="1" />
  <line x1="60" y1="370" x2="60" y2="375" stroke="#333333" stroke-width="1" />
  <text x="60" y="388" text-anchor="middle" font-family="system-ui, sans-serif" font-size="12" fill="#222222">2026-05-25</text>
  <line x1="168.333" y1="370" x2="168.333" y2="375" stroke="#333333" stroke-width="1" />
  <text x="168.333" y="388" text-anchor="middle" font-family="system-ui, sans-serif" font-size="12" fill="#222222">2026-05-26</text>
  <line x1="276.667" y1="370" x2="276.667" y2="375" stroke="#333333" stroke-width="1" />
  <text x="276.667" y="388" text-anchor="middle" font-family="system-ui, sans-serif" font-size="12" fill="#222222">2026-05-27</text>
  <line x1="385" y1="370" x2="385" y2="375" stroke="#333333" stroke-width="1" />
  <text x="385" y="388" text-anchor="middle" font-family="system-ui, sans-serif" font-size="12" fill="#222222">2026-05-28</text>
  <line x1="493.333" y1="370" x2="493.333" y2="375" stroke="#333333" stroke-width="1" />
  <text x="493.333" y="388" text-anchor="middle" font-family="system-ui, sans-serif" font-size="12" fill="#222222">2026-05-29</text>
  <line x1="601.667" y1="370" x2="601.667" y2="375" stroke="#333333" stroke-width="1" />
  <text x="601.667" y="388" text-anchor="middle" font-family="system-ui, sans-serif" font-size="12" fill="#222222">2026-05-30</text>
  <line x1="710" y1="370" x2="710" y2="375" stroke="#333333" stroke-width="1" />
  <text x="710" y="388" text-anchor="middle" font-family="system-ui, sans-serif" font-size="12" fill="#222222">2026-05-31</text>
  <text x="385" y="408" text-anchor="middle" font-family="system-ui, sans-serif" font-size="12" fill="#222222">Date</text>
  <line x1="60" y1="66" x2="60" y2="370" stroke="#333333" stroke-width="1" />
  <line x1="55" y1="339.6" x2="60" y2="339.6" stroke="#333333" stroke-width="1" />
  <text x="52" y="343.6" text-anchor="end" font-family="system-ui, sans-serif" font-size="12" fill="#222222">10</text>
  <line x1="55" y1="263.6" x2="60" y2="263.6" stroke="#333333" stroke-width="1" />
  <text x="52" y="267.6" text-anchor="end" font-family="system-ui, sans-serif" font-size="12" fill="#222222">15</text>
  <line x1="55" y1="187.6" x2="60" y2="187.6" stroke="#333333" stroke-width="1" />
  <text x="52" y="191.6" text-anchor="end" font-family="system-ui, sans-serif" font-size="12" fill="#222222">20</text>
  <line x1="55" y1="111.6" x2="60" y2="111.6" stroke="#333333" stroke-width="1" />
  <text x="52" y="115.6" text-anchor="end" font-family="system-ui, sans-serif" font-size="12" fill="#222222">25</text>
  <text x="25.6" y="218" text-anchor="middle" transform="rotate(-90 25.6 218)" font-family="system-ui, sans-serif" font-size="12" fill="#222222">Temperature (°C)</text>
</g>
</svg>
