<svg xmlns="http://www.w3.org/2000/svg" width="420" height="420" viewBox="0 0 420 420" role="img" aria-label="Wind rose">
<title>Wind rose</title>
<rect class="algraf-background" x="0" y="0" width="420" height="420" fill="#ffffff" />
<text class="algraf-title" x="60" y="24" font-family="system-ui, sans-serif" font-size="18" font-weight="600" fill="#222222">Wind rose</text>
<rect class="algraf-plot-area" x="60" y="66" width="210" height="304" fill="#ffffff" />
<g class="algraf-polar-grid">
  <circle cx="165" cy="218" r="17.677" fill="none" stroke="#e6e6e6" stroke-width="1" />
  <circle cx="165" cy="218" r="35.354" fill="none" stroke="#e6e6e6" stroke-width="1" />
  <circle cx="165" cy="218" r="53.03" fill="none" stroke="#e6e6e6" stroke-width="1" />
  <circle cx="165" cy="218" r="70.707" fill="none" stroke="#e6e6e6" stroke-width="1" />
  <circle cx="165" cy="218" r="88.384" fill="none" stroke="#e6e6e6" stroke-width="1" />
  <circle cx="165" cy="218" r="105" fill="none" stroke="#e6e6e6" stroke-width="1" />
  <line x1="165" y1="218" x2="205.182" y2="120.993" stroke="#e6e6e6" stroke-width="1" />
  <line x1="165" y1="218" x2="262.007" y2="177.818" stroke="#e6e6e6" stroke-width="1" />
  <line x1="165" y1="218" x2="262.007" y2="258.182" stroke="#e6e6e6" stroke-width="1" />
  <line x1="165" y1="218" x2="205.182" y2="315.007" stroke="#e6e6e6" stroke-width="1" />
  <line x1="165" y1="218" x2="124.818" y2="315.007" stroke="#e6e6e6" stroke-width="1" />
  <line x1="165" y1="218" x2="67.993" y2="258.182" stroke="#e6e6e6" stroke-width="1" />
  <line x1="165" y1="218" x2="67.993" y2="177.818" stroke="#e6e6e6" stroke-width="1" />
  <line x1="165" y1="218" x2="124.818" y2="120.993" stroke="#e6e6e6" stroke-width="1" />
</g>
<g class="algraf-polar-theta-labels">
  <text x="209.774" y="109.906" text-anchor="start" font-family="system-ui, sans-serif" font-size="12" fill="#222222">N</text>
  <text x="273.094" y="173.226" text-anchor="start" font-family="system-ui, sans-serif" font-size="12" fill="#222222">NE</text>
  <text x="273.094" y="262.774" text-anchor="start" font-family="system-ui, sans-serif" font-size="12" fill="#222222">E</text>
  <text x="209.774" y="326.094" text-anchor="start" font-family="system-ui, sans-serif" font-size="12" fill="#222222">SE</text>
  <text x="120.226" y="326.094" text-anchor="end" font-family="system-ui, sans-serif" font-size="12" fill="#222222">S</text>
  <text x="56.906" y="262.774" text-anchor="end" font-family="system-ui, sans-serif" font-size="12" fill="#222222">SW</text>
  <text x="56.906" y="173.226" text-anchor="end" font-family="system-ui, sans-serif" font-size="12" fill="#222222">W</text>
  <text x="120.226" y="109.906" text-anchor="end" font-family="system-ui, sans-serif" font-size="12" fill="#222222">NW</text>
</g>
<g class="algraf-polar-radius-labels">
  <text x="168" y="216" text-anchor="start" font-family="system-ui, sans-serif" font-size="12" fill="#222222">0</text>
  <text x="168" y="198.323" text-anchor="start" font-family="system-ui, sans-serif" font-size="12" fill="#222222">2</text>
  <text x="168" y="180.646" text-anchor="start" font-family="system-ui, sans-serif" font-size="12" fill="#222222">4</text>
  <text x="168" y="162.97" text-anchor="start" font-family="system-ui, sans-serif" font-size="12" fill="#222222">6</text>
  <text x="168" y="145.293" text-anchor="start" font-family="system-ui, sans-serif" font-size="12" fill="#222222">8</text>
  <text x="168" y="127.616" text-anchor="start" font-family="system-ui, sans-serif" font-size="12" fill="#222222">10</text>
</g>
<g class="algraf-layer algraf-geom-bar">
  <path d="M 165 173.808 A 44.192 44.192 0 0 1 196.248 186.752 L 165 218 Z" fill="#4E79A7" opacity="1" />
  <path d="M 165 147.293 A 70.707 70.707 0 0 1 214.997 168.003 L 196.248 186.752 A 44.192 44.192 0 0 0 165 173.808 Z" fill="#F28E2B" opacity="1" />
  <path d="M 189.999 193.001 A 35.354 35.354 0 0 1 200.354 218 L 165 218 Z" fill="#4E79A7" opacity="1" />
  <path d="M 202.498 180.502 A 53.03 53.03 0 0 1 218.03 218 L 200.354 218 A 35.354 35.354 0 0 0 189.999 193.001 Z" fill="#F28E2B" opacity="1" />
  <path d="M 218.03 218 A 53.03 53.03 0 0 1 202.498 255.498 L 165 218 Z" fill="#4E79A7" opacity="1" />
  <path d="M 226.869 218 A 61.869 61.869 0 0 1 208.748 261.748 L 202.498 255.498 A 53.03 53.03 0 0 0 218.03 218 Z" fill="#F28E2B" opacity="1" />
  <path d="M 183.749 236.749 A 26.515 26.515 0 0 1 165 244.515 L 165 218 Z" fill="#4E79A7" opacity="1" />
  <path d="M 196.248 249.248 A 44.192 44.192 0 0 1 165 262.192 L 165 244.515 A 26.515 26.515 0 0 0 183.749 236.749 Z" fill="#F28E2B" opacity="1" />
  <path d="M 165 279.869 A 61.869 61.869 0 0 1 121.252 261.748 L 165 218 Z" fill="#4E79A7" opacity="1" />
  <path d="M 165 315.222 A 97.222 97.222 0 0 1 96.254 286.746 L 121.252 261.748 A 61.869 61.869 0 0 0 165 279.869 Z" fill="#F28E2B" opacity="1" />
  <path d="M 133.752 249.248 A 44.192 44.192 0 0 1 120.808 218 L 165 218 Z" fill="#4E79A7" opacity="1" />
  <path d="M 115.003 267.997 A 70.707 70.707 0 0 1 94.293 218 L 120.808 218 A 44.192 44.192 0 0 0 133.752 249.248 Z" fill="#F28E2B" opacity="1" />
  <path d="M 129.646 218 A 35.354 35.354 0 0 1 140.001 193.001 L 165 218 Z" fill="#4E79A7" opacity="1" />
  <path d="M 111.97 218 A 53.03 53.03 0 0 1 127.502 180.502 L 140.001 193.001 A 35.354 35.354 0 0 0 129.646 218 Z" fill="#F28E2B" opacity="1" />
  <path d="M 146.251 199.251 A 26.515 26.515 0 0 1 165 191.485 L 165 218 Z" fill="#4E79A7" opacity="1" />
  <path d="M 140.001 193.001 A 35.354 35.354 0 0 1 165 182.646 L 165 191.485 A 26.515 26.515 0 0 0 146.251 199.251 Z" fill="#F28E2B" opacity="1" />
</g>
<g class="algraf-legends">
  <text x="286" y="70" text-anchor="start" font-family="system-ui, sans-serif" font-size="12" fill="#222222">speed</text>
  <rect x="286" y="78" width="12" height="12" fill="#4E79A7" />
  <text x="304" y="88" text-anchor="start" font-family="system-ui, sans-serif" font-size="12" fill="#222222">low</text>
  <rect x="286" y="96" width="12" height="12" fill="#F28E2B" />
  <text x="304" y="106" text-anchor="start" font-family="system-ui, sans-serif" font-size="12" fill="#222222">high</text>
</g>
</svg>
