<svg xmlns="http://www.w3.org/2000/svg" width="420" height="420" viewBox="0 0 420 420" role="img" aria-label="Wind rose">
<title>Wind rose</title>
<rect class="algraf-background" x="0" y="0" width="420" height="420" fill="#ffffff" />
<text class="algraf-title" x="10" y="24" font-family="system-ui, sans-serif" font-size="18" font-weight="600" fill="#222222">Wind rose</text>
<rect class="algraf-plot-area" x="10" y="36" width="280" height="374" fill="#ffffff" />
<g class="algraf-polar-grid">
  <circle cx="150" cy="223" r="19.309" fill="none" stroke="#e6e6e6" stroke-width="1" />
  <circle cx="150" cy="223" r="38.618" fill="none" stroke="#e6e6e6" stroke-width="1" />
  <circle cx="150" cy="223" r="57.927" fill="none" stroke="#e6e6e6" stroke-width="1" />
  <circle cx="150" cy="223" r="77.236" fill="none" stroke="#e6e6e6" stroke-width="1" />
  <circle cx="150" cy="223" r="96.546" fill="none" stroke="#e6e6e6" stroke-width="1" />
  <circle cx="150" cy="223" r="114.696" fill="none" stroke="#e6e6e6" stroke-width="1" />
  <line x1="150" y1="223" x2="193.892" y2="117.035" stroke="#e6e6e6" stroke-width="1" />
  <line x1="150" y1="223" x2="255.965" y2="179.108" stroke="#e6e6e6" stroke-width="1" />
  <line x1="150" y1="223" x2="255.965" y2="266.892" stroke="#e6e6e6" stroke-width="1" />
  <line x1="150" y1="223" x2="193.892" y2="328.965" stroke="#e6e6e6" stroke-width="1" />
  <line x1="150" y1="223" x2="106.108" y2="328.965" stroke="#e6e6e6" stroke-width="1" />
  <line x1="150" y1="223" x2="44.035" y2="266.892" stroke="#e6e6e6" stroke-width="1" />
  <line x1="150" y1="223" x2="44.035" y2="179.108" stroke="#e6e6e6" stroke-width="1" />
  <line x1="150" y1="223" x2="106.108" y2="117.035" stroke="#e6e6e6" stroke-width="1" />
</g>
<g class="algraf-layer algraf-geom-bar">
  <path d="M 150 174.727 A 48.273 48.273 0 0 1 184.134 188.866 L 150 223 Z" fill="#4E79A7" opacity="1" />
  <path d="M 150 145.764 A 77.236 77.236 0 0 1 204.614 168.386 L 184.134 188.866 A 48.273 48.273 0 0 0 150 174.727 Z" fill="#F28E2B" opacity="1" />
  <path d="M 177.307 195.693 A 38.618 38.618 0 0 1 188.618 223 L 150 223 Z" fill="#4E79A7" opacity="1" />
  <path d="M 190.961 182.039 A 57.927 57.927 0 0 1 207.927 223 L 188.618 223 A 38.618 38.618 0 0 0 177.307 195.693 Z" fill="#F28E2B" opacity="1" />
  <path d="M 207.927 223 A 57.927 57.927 0 0 1 190.961 263.961 L 150 223 Z" fill="#4E79A7" opacity="1" />
  <path d="M 217.582 223 A 67.582 67.582 0 0 1 197.788 270.788 L 190.961 263.961 A 57.927 57.927 0 0 0 207.927 223 Z" fill="#F28E2B" opacity="1" />
  <path d="M 170.48 243.48 A 28.964 28.964 0 0 1 150 251.964 L 150 223 Z" fill="#4E79A7" opacity="1" />
  <path d="M 184.134 257.134 A 48.273 48.273 0 0 1 150 271.273 L 150 251.964 A 28.964 28.964 0 0 0 170.48 243.48 Z" fill="#F28E2B" opacity="1" />
  <path d="M 150 290.582 A 67.582 67.582 0 0 1 102.212 270.788 L 150 223 Z" fill="#4E79A7" opacity="1" />
  <path d="M 150 329.2 A 106.2 106.2 0 0 1 74.905 298.095 L 102.212 270.788 A 67.582 67.582 0 0 0 150 290.582 Z" fill="#F28E2B" opacity="1" />
  <path d="M 115.866 257.134 A 48.273 48.273 0 0 1 101.727 223 L 150 223 Z" fill="#4E79A7" opacity="1" />
  <path d="M 95.386 277.614 A 77.236 77.236 0 0 1 72.764 223 L 101.727 223 A 48.273 48.273 0 0 0 115.866 257.134 Z" fill="#F28E2B" opacity="1" />
  <path d="M 111.382 223 A 38.618 38.618 0 0 1 122.693 195.693 L 150 223 Z" fill="#4E79A7" opacity="1" />
  <path d="M 92.073 223 A 57.927 57.927 0 0 1 109.039 182.039 L 122.693 195.693 A 38.618 38.618 0 0 0 111.382 223 Z" fill="#F28E2B" opacity="1" />
  <path d="M 129.52 202.52 A 28.964 28.964 0 0 1 150 194.036 L 150 223 Z" fill="#4E79A7" opacity="1" />
  <path d="M 122.693 195.693 A 38.618 38.618 0 0 1 150 184.382 L 150 194.036 A 28.964 28.964 0 0 0 129.52 202.52 Z" fill="#F28E2B" opacity="1" />
</g>
<g class="algraf-polar-theta-labels">
  <text x="198.485" y="105.948" text-anchor="start" font-family="system-ui, sans-serif" font-size="12" fill="#222222">N</text>
  <text x="267.052" y="174.515" text-anchor="start" font-family="system-ui, sans-serif" font-size="12" fill="#222222">NE</text>
  <text x="267.052" y="271.485" text-anchor="start" font-family="system-ui, sans-serif" font-size="12" fill="#222222">E</text>
  <text x="198.485" y="340.052" text-anchor="start" font-family="system-ui, sans-serif" font-size="12" fill="#222222">SE</text>
  <text x="101.515" y="340.052" text-anchor="end" font-family="system-ui, sans-serif" font-size="12" fill="#222222">S</text>
  <text x="32.948" y="271.485" text-anchor="end" font-family="system-ui, sans-serif" font-size="12" fill="#222222">SW</text>
  <text x="32.948" y="174.515" text-anchor="end" font-family="system-ui, sans-serif" font-size="12" fill="#222222">W</text>
  <text x="101.515" y="105.948" text-anchor="end" font-family="system-ui, sans-serif" font-size="12" fill="#222222">NW</text>
</g>
<g class="algraf-polar-radius-labels">
  <text x="153" y="221" text-anchor="start" font-family="system-ui, sans-serif" font-size="12" fill="#222222">0</text>
  <text x="153" y="201.691" text-anchor="start" font-family="system-ui, sans-serif" font-size="12" fill="#222222">2</text>
  <text x="153" y="182.382" text-anchor="start" font-family="system-ui, sans-serif" font-size="12" fill="#222222">4</text>
  <text x="153" y="163.073" text-anchor="start" font-family="system-ui, sans-serif" font-size="12" fill="#222222">6</text>
  <text x="153" y="143.764" text-anchor="start" font-family="system-ui, sans-serif" font-size="12" fill="#222222">8</text>
  <text x="153" y="124.454" text-anchor="start" font-family="system-ui, sans-serif" font-size="12" fill="#222222">10</text>
</g>
<g class="algraf-legends">
  <text x="306" y="40" text-anchor="start" font-family="system-ui, sans-serif" font-size="12" fill="#222222">speed</text>
  <rect x="306" y="48" width="12" height="12" fill="#4E79A7" />
  <text x="324" y="58" text-anchor="start" font-family="system-ui, sans-serif" font-size="12" fill="#222222">low</text>
  <rect x="306" y="66" width="12" height="12" fill="#F28E2B" />
  <text x="324" y="76" text-anchor="start" font-family="system-ui, sans-serif" font-size="12" fill="#222222">high</text>
</g>
</svg>
