<svg xmlns="http://www.w3.org/2000/svg" width="720" height="480" viewBox="0 0 720 480" role="img" aria-label="Regular raster field">
<title>Regular raster field</title>
<rect class="algraf-background" x="0" y="0" width="720" height="480" fill="#ffffff" />
<text class="algraf-title" x="60" y="24" font-family="system-ui, sans-serif" font-size="18" font-weight="600" fill="#222222">Regular raster field</text>
<rect class="algraf-plot-area" x="60" y="66" width="510" height="364" fill="#ffffff" />
<g class="algraf-grid">
  <line x1="132.857" y1="66" x2="132.857" y2="430" stroke="#f2f2f2" stroke-width="0.6" />
  <line x1="205.714" y1="66" x2="205.714" y2="430" stroke="#f2f2f2" stroke-width="0.6" />
  <line x1="278.571" y1="66" x2="278.571" y2="430" stroke="#f2f2f2" stroke-width="0.6" />
  <line x1="351.429" y1="66" x2="351.429" y2="430" stroke="#f2f2f2" stroke-width="0.6" />
  <line x1="424.286" y1="66" x2="424.286" y2="430" stroke="#f2f2f2" stroke-width="0.6" />
  <line x1="497.143" y1="66" x2="497.143" y2="430" stroke="#f2f2f2" stroke-width="0.6" />
  <line x1="60" y1="404.897" x2="570" y2="404.897" stroke="#f2f2f2" stroke-width="0.6" />
  <line x1="60" y1="360.069" x2="570" y2="360.069" stroke="#f2f2f2" stroke-width="0.6" />
  <line x1="60" y1="315.241" x2="570" y2="315.241" stroke="#f2f2f2" stroke-width="0.6" />
  <line x1="60" y1="270.414" x2="570" y2="270.414" stroke="#f2f2f2" stroke-width="0.6" />
  <line x1="60" y1="225.586" x2="570" y2="225.586" stroke="#f2f2f2" stroke-width="0.6" />
  <line x1="60" y1="180.759" x2="570" y2="180.759" stroke="#f2f2f2" stroke-width="0.6" />
  <line x1="60" y1="135.931" x2="570" y2="135.931" stroke="#f2f2f2" stroke-width="0.6" />
  <line x1="60" y1="91.103" x2="570" y2="91.103" stroke="#f2f2f2" stroke-width="0.6" />
  <line x1="96.429" y1="66" x2="96.429" y2="430" stroke="#e6e6e6" stroke-width="1" />
  <line x1="169.286" y1="66" x2="169.286" y2="430" stroke="#e6e6e6" stroke-width="1" />
  <line x1="242.143" y1="66" x2="242.143" y2="430" stroke="#e6e6e6" stroke-width="1" />
  <line x1="315" y1="66" x2="315" y2="430" stroke="#e6e6e6" stroke-width="1" />
  <line x1="387.857" y1="66" x2="387.857" y2="430" stroke="#e6e6e6" stroke-width="1" />
  <line x1="460.714" y1="66" x2="460.714" y2="430" stroke="#e6e6e6" stroke-width="1" />
  <line x1="533.571" y1="66" x2="533.571" y2="430" stroke="#e6e6e6" stroke-width="1" />
  <line x1="60" y1="427.31" x2="570" y2="427.31" stroke="#e6e6e6" stroke-width="1" />
  <line x1="60" y1="382.483" x2="570" y2="382.483" stroke="#e6e6e6" stroke-width="1" />
  <line x1="60" y1="337.655" x2="570" y2="337.655" stroke="#e6e6e6" stroke-width="1" />
  <line x1="60" y1="292.828" x2="570" y2="292.828" stroke="#e6e6e6" stroke-width="1" />
  <line x1="60" y1="248" x2="570" y2="248" stroke="#e6e6e6" stroke-width="1" />
  <line x1="60" y1="203.172" x2="570" y2="203.172" stroke="#e6e6e6" stroke-width="1" />
  <line x1="60" y1="158.345" x2="570" y2="158.345" stroke="#e6e6e6" stroke-width="1" />
  <line x1="60" y1="113.517" x2="570" y2="113.517" stroke="#e6e6e6" stroke-width="1" />
  <line x1="60" y1="68.69" x2="570" y2="68.69" stroke="#e6e6e6" stroke-width="1" />
</g>
<g class="algraf-layer algraf-geom-rect">
  <rect x="60" y="360.069" width="72.857" height="44.828" fill="#2b6cb0" stroke="#ffffff" stroke-width="0.2" opacity="1" />
  <rect x="132.857" y="360.069" width="72.857" height="44.828" fill="#4880bb" stroke="#ffffff" stroke-width="0.2" opacity="1" />
  <rect x="205.714" y="360.069" width="72.857" height="44.828" fill="#6595c6" stroke="#ffffff" stroke-width="0.2" opacity="1" />
  <rect x="278.571" y="360.069" width="72.857" height="44.828" fill="#82a9d1" stroke="#ffffff" stroke-width="0.2" opacity="1" />
  <rect x="351.429" y="360.069" width="72.857" height="44.828" fill="#6595c6" stroke="#ffffff" stroke-width="0.2" opacity="1" />
  <rect x="424.286" y="360.069" width="72.857" height="44.828" fill="#4880bb" stroke="#ffffff" stroke-width="0.2" opacity="1" />
  <rect x="497.143" y="360.069" width="72.857" height="44.828" fill="#2b6cb0" stroke="#ffffff" stroke-width="0.2" opacity="1" />
  <rect x="60" y="315.241" width="72.857" height="44.828" fill="#4880bb" stroke="#ffffff" stroke-width="0.2" opacity="1" />
  <rect x="132.857" y="315.241" width="72.857" height="44.828" fill="#82a9d1" stroke="#ffffff" stroke-width="0.2" opacity="1" />
  <rect x="205.714" y="315.241" width="72.857" height="44.828" fill="#bdd1e6" stroke="#ffffff" stroke-width="0.2" opacity="1" />
  <rect x="278.571" y="315.241" width="72.857" height="44.828" fill="#dae6f1" stroke="#ffffff" stroke-width="0.2" opacity="1" />
  <rect x="351.429" y="315.241" width="72.857" height="44.828" fill="#bdd1e6" stroke="#ffffff" stroke-width="0.2" opacity="1" />
  <rect x="424.286" y="315.241" width="72.857" height="44.828" fill="#82a9d1" stroke="#ffffff" stroke-width="0.2" opacity="1" />
  <rect x="497.143" y="315.241" width="72.857" height="44.828" fill="#4880bb" stroke="#ffffff" stroke-width="0.2" opacity="1" />
  <rect x="60" y="270.414" width="72.857" height="44.828" fill="#6595c6" stroke="#ffffff" stroke-width="0.2" opacity="1" />
  <rect x="132.857" y="270.414" width="72.857" height="44.828" fill="#bdd1e6" stroke="#ffffff" stroke-width="0.2" opacity="1" />
  <rect x="205.714" y="270.414" width="72.857" height="44.828" fill="#e9c0c2" stroke="#ffffff" stroke-width="0.2" opacity="1" />
  <rect x="278.571" y="270.414" width="72.857" height="44.828" fill="#da8787" stroke="#ffffff" stroke-width="0.2" opacity="1" />
  <rect x="351.429" y="270.414" width="72.857" height="44.828" fill="#e9c0c2" stroke="#ffffff" stroke-width="0.2" opacity="1" />
  <rect x="424.286" y="270.414" width="72.857" height="44.828" fill="#bdd1e6" stroke="#ffffff" stroke-width="0.2" opacity="1" />
  <rect x="497.143" y="270.414" width="72.857" height="44.828" fill="#6595c6" stroke="#ffffff" stroke-width="0.2" opacity="1" />
  <rect x="60" y="225.586" width="72.857" height="44.828" fill="#82a9d1" stroke="#ffffff" stroke-width="0.2" opacity="1" />
  <rect x="132.857" y="225.586" width="72.857" height="44.828" fill="#dae6f1" stroke="#ffffff" stroke-width="0.2" opacity="1" />
  <rect x="205.714" y="225.586" width="72.857" height="44.828" fill="#da8787" stroke="#ffffff" stroke-width="0.2" opacity="1" />
  <rect x="278.571" y="225.586" width="72.857" height="44.828" fill="#c53030" stroke="#ffffff" stroke-width="0.2" opacity="1" />
  <rect x="351.429" y="225.586" width="72.857" height="44.828" fill="#da8787" stroke="#ffffff" stroke-width="0.2" opacity="1" />
  <rect x="424.286" y="225.586" width="72.857" height="44.828" fill="#dae6f1" stroke="#ffffff" stroke-width="0.2" opacity="1" />
  <rect x="497.143" y="225.586" width="72.857" height="44.828" fill="#82a9d1" stroke="#ffffff" stroke-width="0.2" opacity="1" />
  <rect x="60" y="180.759" width="72.857" height="44.828" fill="#6595c6" stroke="#ffffff" stroke-width="0.2" opacity="1" />
  <rect x="132.857" y="180.759" width="72.857" height="44.828" fill="#bdd1e6" stroke="#ffffff" stroke-width="0.2" opacity="1" />
  <rect x="205.714" y="180.759" width="72.857" height="44.828" fill="#e9c0c2" stroke="#ffffff" stroke-width="0.2" opacity="1" />
  <rect x="278.571" y="180.759" width="72.857" height="44.828" fill="#da8787" stroke="#ffffff" stroke-width="0.2" opacity="1" />
  <rect x="351.429" y="180.759" width="72.857" height="44.828" fill="#e9c0c2" stroke="#ffffff" stroke-width="0.2" opacity="1" />
  <rect x="424.286" y="180.759" width="72.857" height="44.828" fill="#bdd1e6" stroke="#ffffff" stroke-width="0.2" opacity="1" />
  <rect x="497.143" y="180.759" width="72.857" height="44.828" fill="#6595c6" stroke="#ffffff" stroke-width="0.2" opacity="1" />
  <rect x="60" y="135.931" width="72.857" height="44.828" fill="#4880bb" stroke="#ffffff" stroke-width="0.2" opacity="1" />
  <rect x="132.857" y="135.931" width="72.857" height="44.828" fill="#82a9d1" stroke="#ffffff" stroke-width="0.2" opacity="1" />
  <rect x="205.714" y="135.931" width="72.857" height="44.828" fill="#bdd1e6" stroke="#ffffff" stroke-width="0.2" opacity="1" />
  <rect x="278.571" y="135.931" width="72.857" height="44.828" fill="#dae6f1" stroke="#ffffff" stroke-width="0.2" opacity="1" />
  <rect x="351.429" y="135.931" width="72.857" height="44.828" fill="#bdd1e6" stroke="#ffffff" stroke-width="0.2" opacity="1" />
  <rect x="424.286" y="135.931" width="72.857" height="44.828" fill="#82a9d1" stroke="#ffffff" stroke-width="0.2" opacity="1" />
  <rect x="497.143" y="135.931" width="72.857" height="44.828" fill="#4880bb" stroke="#ffffff" stroke-width="0.2" opacity="1" />
  <rect x="60" y="91.103" width="72.857" height="44.828" fill="#2b6cb0" stroke="#ffffff" stroke-width="0.2" opacity="1" />
  <rect x="132.857" y="91.103" width="72.857" height="44.828" fill="#4880bb" stroke="#ffffff" stroke-width="0.2" opacity="1" />
  <rect x="205.714" y="91.103" width="72.857" height="44.828" fill="#6595c6" stroke="#ffffff" stroke-width="0.2" opacity="1" />
  <rect x="278.571" y="91.103" width="72.857" height="44.828" fill="#82a9d1" stroke="#ffffff" stroke-width="0.2" opacity="1" />
  <rect x="351.429" y="91.103" width="72.857" height="44.828" fill="#6595c6" stroke="#ffffff" stroke-width="0.2" opacity="1" />
  <rect x="424.286" y="91.103" width="72.857" height="44.828" fill="#4880bb" stroke="#ffffff" stroke-width="0.2" opacity="1" />
  <rect x="497.143" y="91.103" width="72.857" height="44.828" fill="#2b6cb0" stroke="#ffffff" stroke-width="0.2" opacity="1" />
</g>
<g class="algraf-axes">
  <line x1="60" y1="430" x2="570" y2="430" stroke="#333333" stroke-width="1" />
  <line x1="96.429" y1="430" x2="96.429" y2="435" stroke="#333333" stroke-width="1" />
  <text x="96.429" y="448" text-anchor="middle" font-family="system-ui, sans-serif" font-size="12" fill="#222222">0</text>
  <line x1="169.286" y1="430" x2="169.286" y2="435" stroke="#333333" stroke-width="1" />
  <text x="169.286" y="448" text-anchor="middle" font-family="system-ui, sans-serif" font-size="12" fill="#222222">1</text>
  <line x1="242.143" y1="430" x2="242.143" y2="435" stroke="#333333" stroke-width="1" />
  <text x="242.143" y="448" text-anchor="middle" font-family="system-ui, sans-serif" font-size="12" fill="#222222">2</text>
  <line x1="315" y1="430" x2="315" y2="435" stroke="#333333" stroke-width="1" />
  <text x="315" y="448" text-anchor="middle" font-family="system-ui, sans-serif" font-size="12" fill="#222222">3</text>
  <line x1="387.857" y1="430" x2="387.857" y2="435" stroke="#333333" stroke-width="1" />
  <text x="387.857" y="448" text-anchor="middle" font-family="system-ui, sans-serif" font-size="12" fill="#222222">4</text>
  <line x1="460.714" y1="430" x2="460.714" y2="435" stroke="#333333" stroke-width="1" />
  <text x="460.714" y="448" text-anchor="middle" font-family="system-ui, sans-serif" font-size="12" fill="#222222">5</text>
  <line x1="533.571" y1="430" x2="533.571" y2="435" stroke="#333333" stroke-width="1" />
  <text x="533.571" y="448" text-anchor="middle" font-family="system-ui, sans-serif" font-size="12" fill="#222222">6</text>
  <text x="315" y="468" text-anchor="middle" font-family="system-ui, sans-serif" font-size="12" fill="#222222">Grid x</text>
  <line x1="60" y1="66" x2="60" y2="430" stroke="#333333" stroke-width="1" />
  <line x1="55" y1="427.31" x2="60" y2="427.31" stroke="#333333" stroke-width="1" />
  <text x="52" y="431.31" text-anchor="end" font-family="system-ui, sans-serif" font-size="12" fill="#222222">-1</text>
  <line x1="55" y1="382.483" x2="60" y2="382.483" stroke="#333333" stroke-width="1" />
  <text x="52" y="386.483" text-anchor="end" font-family="system-ui, sans-serif" font-size="12" fill="#222222">0</text>
  <line x1="55" y1="337.655" x2="60" y2="337.655" stroke="#333333" stroke-width="1" />
  <text x="52" y="341.655" text-anchor="end" font-family="system-ui, sans-serif" font-size="12" fill="#222222">1</text>
  <line x1="55" y1="292.828" x2="60" y2="292.828" stroke="#333333" stroke-width="1" />
  <text x="52" y="296.828" text-anchor="end" font-family="system-ui, sans-serif" font-size="12" fill="#222222">2</text>
  <line x1="55" y1="248" x2="60" y2="248" stroke="#333333" stroke-width="1" />
  <text x="52" y="252" text-anchor="end" font-family="system-ui, sans-serif" font-size="12" fill="#222222">3</text>
  <line x1="55" y1="203.172" x2="60" y2="203.172" stroke="#333333" stroke-width="1" />
  <text x="52" y="207.172" text-anchor="end" font-family="system-ui, sans-serif" font-size="12" fill="#222222">4</text>
  <line x1="55" y1="158.345" x2="60" y2="158.345" stroke="#333333" stroke-width="1" />
  <text x="52" y="162.345" text-anchor="end" font-family="system-ui, sans-serif" font-size="12" fill="#222222">5</text>
  <line x1="55" y1="113.517" x2="60" y2="113.517" stroke="#333333" stroke-width="1" />
  <text x="52" y="117.517" text-anchor="end" font-family="system-ui, sans-serif" font-size="12" fill="#222222">6</text>
  <line x1="55" y1="68.69" x2="60" y2="68.69" stroke="#333333" stroke-width="1" />
  <text x="52" y="72.69" text-anchor="end" font-family="system-ui, sans-serif" font-size="12" fill="#222222">7</text>
  <text x="25.6" y="248" text-anchor="middle" transform="rotate(-90 25.6 248)" font-family="system-ui, sans-serif" font-size="12" fill="#222222">Grid y</text>
</g>
<g class="algraf-legends">
  <text x="586" y="70" text-anchor="start" font-family="system-ui, sans-serif" font-size="12" fill="#222222">z</text>
  <rect x="586" y="84" width="22" height="1.75" fill="#c53131" />
  <rect x="586" y="85" width="22" height="1.75" fill="#c63333" />
  <rect x="586" y="86" width="22" height="1.75" fill="#c63535" />
  <rect x="586" y="87" width="22" height="1.75" fill="#c73636" />
  <rect x="586" y="88" width="22" height="1.75" fill="#c73838" />
  <rect x="586" y="89" width="22" height="1.75" fill="#c83a3a" />
  <rect x="586" y="90" width="22" height="1.75" fill="#c83c3c" />
  <rect x="586" y="91" width="22" height="1.75" fill="#c83e3e" />
  <rect x="586" y="92" width="22" height="1.75" fill="#c94040" />
  <rect x="586" y="93" width="22" height="1.75" fill="#c94142" />
  <rect x="586" y="94" width="22" height="1.75" fill="#ca4343" />
  <rect x="586" y="95" width="22" height="1.75" fill="#ca4545" />
  <rect x="586" y="96" width="22" height="1.75" fill="#cb4747" />
  <rect x="586" y="97" width="22" height="1.75" fill="#cb4949" />
  <rect x="586" y="98" width="22" height="1.75" fill="#cc4b4b" />
  <rect x="586" y="99" width="22" height="1.75" fill="#cc4c4d" />
  <rect x="586" y="100" width="22" height="1.75" fill="#cd4e4f" />
  <rect x="586" y="101" width="22" height="1.75" fill="#cd5050" />
  <rect x="586" y="102" width="22" height="1.75" fill="#cd5252" />
  <rect x="586" y="103" width="22" height="1.75" fill="#ce5454" />
  <rect x="586" y="104" width="22" height="1.75" fill="#ce5656" />
  <rect x="586" y="105" width="22" height="1.75" fill="#cf5758" />
  <rect x="586" y="106" width="22" height="1.75" fill="#cf595a" />
  <rect x="586" y="107" width="22" height="1.75" fill="#d05b5c" />
  <rect x="586" y="108" width="22" height="1.75" fill="#d05d5d" />
  <rect x="586" y="109" width="22" height="1.75" fill="#d15f5f" />
  <rect x="586" y="110" width="22" height="1.75" fill="#d16161" />
  <rect x="586" y="111" width="22" height="1.75" fill="#d26363" />
  <rect x="586" y="112" width="22" height="1.75" fill="#d26465" />
  <rect x="586" y="113" width="22" height="1.75" fill="#d26667" />
  <rect x="586" y="114" width="22" height="1.75" fill="#d36869" />
  <rect x="586" y="115" width="22" height="1.75" fill="#d36a6a" />
  <rect x="586" y="116" width="22" height="1.75" fill="#d46c6c" />
  <rect x="586" y="117" width="22" height="1.75" fill="#d46e6e" />
  <rect x="586" y="118" width="22" height="1.75" fill="#d56f70" />
  <rect x="586" y="119" width="22" height="1.75" fill="#d57172" />
  <rect x="586" y="120" width="22" height="1.75" fill="#d67374" />
  <rect x="586" y="121" width="22" height="1.75" fill="#d67576" />
  <rect x="586" y="122" width="22" height="1.75" fill="#d77777" />
  <rect x="586" y="123" width="22" height="1.75" fill="#d77979" />
  <rect x="586" y="124" width="22" height="1.75" fill="#d77a7b" />
  <rect x="586" y="125" width="22" height="1.75" fill="#d87c7d" />
  <rect x="586" y="126" width="22" height="1.75" fill="#d87e7f" />
  <rect x="586" y="127" width="22" height="1.75" fill="#d98081" />
  <rect x="586" y="128" width="22" height="1.75" fill="#d98283" />
  <rect x="586" y="129" width="22" height="1.75" fill="#da8484" />
  <rect x="586" y="130" width="22" height="1.75" fill="#da8586" />
  <rect x="586" y="131" width="22" height="1.75" fill="#db8788" />
  <rect x="586" y="132" width="22" height="1.75" fill="#db898a" />
  <rect x="586" y="133" width="22" height="1.75" fill="#dc8b8c" />
  <rect x="586" y="134" width="22" height="1.75" fill="#dc8d8e" />
  <rect x="586" y="135" width="22" height="1.75" fill="#dc8f90" />
  <rect x="586" y="136" width="22" height="1.75" fill="#dd9091" />
  <rect x="586" y="137" width="22" height="1.75" fill="#dd9293" />
  <rect x="586" y="138" width="22" height="1.75" fill="#de9495" />
  <rect x="586" y="139" width="22" height="1.75" fill="#de9697" />
  <rect x="586" y="140" width="22" height="1.75" fill="#df9899" />
  <rect x="586" y="141" width="22" height="1.75" fill="#df9a9b" />
  <rect x="586" y="142" width="22" height="1.75" fill="#e09b9c" />
  <rect x="586" y="143" width="22" height="1.75" fill="#e09d9e" />
  <rect x="586" y="144" width="22" height="1.75" fill="#e19fa0" />
  <rect x="586" y="145" width="22" height="1.75" fill="#e1a1a2" />
  <rect x="586" y="146" width="22" height="1.75" fill="#e1a3a4" />
  <rect x="586" y="147" width="22" height="1.75" fill="#e2a5a6" />
  <rect x="586" y="148" width="22" height="1.75" fill="#e2a6a8" />
  <rect x="586" y="149" width="22" height="1.75" fill="#e3a8a9" />
  <rect x="586" y="150" width="22" height="1.75" fill="#e3aaab" />
  <rect x="586" y="151" width="22" height="1.75" fill="#e4acad" />
  <rect x="586" y="152" width="22" height="1.75" fill="#e4aeaf" />
  <rect x="586" y="153" width="22" height="1.75" fill="#e5b0b1" />
  <rect x="586" y="154" width="22" height="1.75" fill="#e5b1b3" />
  <rect x="586" y="155" width="22" height="1.75" fill="#e6b3b5" />
  <rect x="586" y="156" width="22" height="1.75" fill="#e6b5b6" />
  <rect x="586" y="157" width="22" height="1.75" fill="#e6b7b8" />
  <rect x="586" y="158" width="22" height="1.75" fill="#e7b9ba" />
  <rect x="586" y="159" width="22" height="1.75" fill="#e7bbbc" />
  <rect x="586" y="160" width="22" height="1.75" fill="#e8bcbe" />
  <rect x="586" y="161" width="22" height="1.75" fill="#e8bec0" />
  <rect x="586" y="162" width="22" height="1.75" fill="#e9c0c2" />
  <rect x="586" y="163" width="22" height="1.75" fill="#e9c2c3" />
  <rect x="586" y="164" width="22" height="1.75" fill="#eac4c5" />
  <rect x="586" y="165" width="22" height="1.75" fill="#eac6c7" />
  <rect x="586" y="166" width="22" height="1.75" fill="#ebc8c9" />
  <rect x="586" y="167" width="22" height="1.75" fill="#ebc9cb" />
  <rect x="586" y="168" width="22" height="1.75" fill="#ebcbcd" />
  <rect x="586" y="169" width="22" height="1.75" fill="#eccdcf" />
  <rect x="586" y="170" width="22" height="1.75" fill="#eccfd0" />
  <rect x="586" y="171" width="22" height="1.75" fill="#edd1d2" />
  <rect x="586" y="172" width="22" height="1.75" fill="#edd3d4" />
  <rect x="586" y="173" width="22" height="1.75" fill="#eed4d6" />
  <rect x="586" y="174" width="22" height="1.75" fill="#eed6d8" />
  <rect x="586" y="175" width="22" height="1.75" fill="#efd8da" />
  <rect x="586" y="176" width="22" height="1.75" fill="#efdadc" />
  <rect x="586" y="177" width="22" height="1.75" fill="#f0dcdd" />
  <rect x="586" y="178" width="22" height="1.75" fill="#f0dedf" />
  <rect x="586" y="179" width="22" height="1.75" fill="#f0dfe1" />
  <rect x="586" y="180" width="22" height="1.75" fill="#f1e1e3" />
  <rect x="586" y="181" width="22" height="1.75" fill="#f1e3e5" />
  <rect x="586" y="182" width="22" height="1.75" fill="#f2e5e7" />
  <rect x="586" y="183" width="22" height="1.75" fill="#f2e7e9" />
  <rect x="586" y="184" width="22" height="1.75" fill="#f3e9ea" />
  <rect x="586" y="185" width="22" height="1.75" fill="#f3eaec" />
  <rect x="586" y="186" width="22" height="1.75" fill="#f4ecee" />
  <rect x="586" y="187" width="22" height="1.75" fill="#f4eef0" />
  <rect x="586" y="188" width="22" height="1.75" fill="#f5f0f2" />
  <rect x="586" y="189" width="22" height="1.75" fill="#f5f2f4" />
  <rect x="586" y="190" width="22" height="1.75" fill="#f5f4f6" />
  <rect x="586" y="191" width="22" height="1.75" fill="#f6f5f7" />
  <rect x="586" y="192" width="22" height="1.75" fill="#f6f7f9" />
  <rect x="586" y="193" width="22" height="1.75" fill="#f7f9fb" />
  <rect x="586" y="194" width="22" height="1.75" fill="#f6f9fc" />
  <rect x="586" y="195" width="22" height="1.75" fill="#f4f8fb" />
  <rect x="586" y="196" width="22" height="1.75" fill="#f2f7fa" />
  <rect x="586" y="197" width="22" height="1.75" fill="#f1f5fa" />
  <rect x="586" y="198" width="22" height="1.75" fill="#eff4f9" />
  <rect x="586" y="199" width="22" height="1.75" fill="#edf3f8" />
  <rect x="586" y="200" width="22" height="1.75" fill="#ebf2f8" />
  <rect x="586" y="201" width="22" height="1.75" fill="#e9f0f7" />
  <rect x="586" y="202" width="22" height="1.75" fill="#e7eff6" />
  <rect x="586" y="203" width="22" height="1.75" fill="#e5eef5" />
  <rect x="586" y="204" width="22" height="1.75" fill="#e4ecf5" />
  <rect x="586" y="205" width="22" height="1.75" fill="#e2ebf4" />
  <rect x="586" y="206" width="22" height="1.75" fill="#e0eaf3" />
  <rect x="586" y="207" width="22" height="1.75" fill="#dee9f3" />
  <rect x="586" y="208" width="22" height="1.75" fill="#dce7f2" />
  <rect x="586" y="209" width="22" height="1.75" fill="#dae6f1" />
  <rect x="586" y="210" width="22" height="1.75" fill="#d8e5f1" />
  <rect x="586" y="211" width="22" height="1.75" fill="#d7e3f0" />
  <rect x="586" y="212" width="22" height="1.75" fill="#d5e2ef" />
  <rect x="586" y="213" width="22" height="1.75" fill="#d3e1ef" />
  <rect x="586" y="214" width="22" height="1.75" fill="#d1e0ee" />
  <rect x="586" y="215" width="22" height="1.75" fill="#cfdeed" />
  <rect x="586" y="216" width="22" height="1.75" fill="#cdddec" />
  <rect x="586" y="217" width="22" height="1.75" fill="#cbdcec" />
  <rect x="586" y="218" width="22" height="1.75" fill="#cadaeb" />
  <rect x="586" y="219" width="22" height="1.75" fill="#c8d9ea" />
  <rect x="586" y="220" width="22" height="1.75" fill="#c6d8ea" />
  <rect x="586" y="221" width="22" height="1.75" fill="#c4d7e9" />
  <rect x="586" y="222" width="22" height="1.75" fill="#c2d5e8" />
  <rect x="586" y="223" width="22" height="1.75" fill="#c0d4e8" />
  <rect x="586" y="224" width="22" height="1.75" fill="#bed3e7" />
  <rect x="586" y="225" width="22" height="1.75" fill="#bdd1e6" />
  <rect x="586" y="226" width="22" height="1.75" fill="#bbd0e6" />
  <rect x="586" y="227" width="22" height="1.75" fill="#b9cfe5" />
  <rect x="586" y="228" width="22" height="1.75" fill="#b7cde4" />
  <rect x="586" y="229" width="22" height="1.75" fill="#b5cce3" />
  <rect x="586" y="230" width="22" height="1.75" fill="#b3cbe3" />
  <rect x="586" y="231" width="22" height="1.75" fill="#b1cae2" />
  <rect x="586" y="232" width="22" height="1.75" fill="#b0c8e1" />
  <rect x="586" y="233" width="22" height="1.75" fill="#aec7e1" />
  <rect x="586" y="234" width="22" height="1.75" fill="#acc6e0" />
  <rect x="586" y="235" width="22" height="1.75" fill="#aac4df" />
  <rect x="586" y="236" width="22" height="1.75" fill="#a8c3df" />
  <rect x="586" y="237" width="22" height="1.75" fill="#a6c2de" />
  <rect x="586" y="238" width="22" height="1.75" fill="#a4c1dd" />
  <rect x="586" y="239" width="22" height="1.75" fill="#a3bfdd" />
  <rect x="586" y="240" width="22" height="1.75" fill="#a1bedc" />
  <rect x="586" y="241" width="22" height="1.75" fill="#9fbddb" />
  <rect x="586" y="242" width="22" height="1.75" fill="#9dbbda" />
  <rect x="586" y="243" width="22" height="1.75" fill="#9bbada" />
  <rect x="586" y="244" width="22" height="1.75" fill="#99b9d9" />
  <rect x="586" y="245" width="22" height="1.75" fill="#97b8d8" />
  <rect x="586" y="246" width="22" height="1.75" fill="#96b6d8" />
  <rect x="586" y="247" width="22" height="1.75" fill="#94b5d7" />
  <rect x="586" y="248" width="22" height="1.75" fill="#92b4d6" />
  <rect x="586" y="249" width="22" height="1.75" fill="#90b2d6" />
  <rect x="586" y="250" width="22" height="1.75" fill="#8eb1d5" />
  <rect x="586" y="251" width="22" height="1.75" fill="#8cb0d4" />
  <rect x="586" y="252" width="22" height="1.75" fill="#8baed4" />
  <rect x="586" y="253" width="22" height="1.75" fill="#89add3" />
  <rect x="586" y="254" width="22" height="1.75" fill="#87acd2" />
  <rect x="586" y="255" width="22" height="1.75" fill="#85abd2" />
  <rect x="586" y="256" width="22" height="1.75" fill="#83a9d1" />
  <rect x="586" y="257" width="22" height="1.75" fill="#81a8d0" />
  <rect x="586" y="258" width="22" height="1.75" fill="#7fa7cf" />
  <rect x="586" y="259" width="22" height="1.75" fill="#7ea5cf" />
  <rect x="586" y="260" width="22" height="1.75" fill="#7ca4ce" />
  <rect x="586" y="261" width="22" height="1.75" fill="#7aa3cd" />
  <rect x="586" y="262" width="22" height="1.75" fill="#78a2cd" />
  <rect x="586" y="263" width="22" height="1.75" fill="#76a0cc" />
  <rect x="586" y="264" width="22" height="1.75" fill="#749fcb" />
  <rect x="586" y="265" width="22" height="1.75" fill="#729ecb" />
  <rect x="586" y="266" width="22" height="1.75" fill="#719cca" />
  <rect x="586" y="267" width="22" height="1.75" fill="#6f9bc9" />
  <rect x="586" y="268" width="22" height="1.75" fill="#6d9ac9" />
  <rect x="586" y="269" width="22" height="1.75" fill="#6b99c8" />
  <rect x="586" y="270" width="22" height="1.75" fill="#6997c7" />
  <rect x="586" y="271" width="22" height="1.75" fill="#6796c6" />
  <rect x="586" y="272" width="22" height="1.75" fill="#6595c6" />
  <rect x="586" y="273" width="22" height="1.75" fill="#6493c5" />
  <rect x="586" y="274" width="22" height="1.75" fill="#6292c4" />
  <rect x="586" y="275" width="22" height="1.75" fill="#6091c4" />
  <rect x="586" y="276" width="22" height="1.75" fill="#5e90c3" />
  <rect x="586" y="277" width="22" height="1.75" fill="#5c8ec2" />
  <rect x="586" y="278" width="22" height="1.75" fill="#5a8dc2" />
  <rect x="586" y="279" width="22" height="1.75" fill="#588cc1" />
  <rect x="586" y="280" width="22" height="1.75" fill="#578ac0" />
  <rect x="586" y="281" width="22" height="1.75" fill="#5589c0" />
  <rect x="586" y="282" width="22" height="1.75" fill="#5388bf" />
  <rect x="586" y="283" width="22" height="1.75" fill="#5186be" />
  <rect x="586" y="284" width="22" height="1.75" fill="#4f85bd" />
  <rect x="586" y="285" width="22" height="1.75" fill="#4d84bd" />
  <rect x="586" y="286" width="22" height="1.75" fill="#4b83bc" />
  <rect x="586" y="287" width="22" height="1.75" fill="#4a81bb" />
  <rect x="586" y="288" width="22" height="1.75" fill="#4880bb" />
  <rect x="586" y="289" width="22" height="1.75" fill="#467fba" />
  <rect x="586" y="290" width="22" height="1.75" fill="#447db9" />
  <rect x="586" y="291" width="22" height="1.75" fill="#427cb9" />
  <rect x="586" y="292" width="22" height="1.75" fill="#407bb8" />
  <rect x="586" y="293" width="22" height="1.75" fill="#3e7ab7" />
  <rect x="586" y="294" width="22" height="1.75" fill="#3d78b7" />
  <rect x="586" y="295" width="22" height="1.75" fill="#3b77b6" />
  <rect x="586" y="296" width="22" height="1.75" fill="#3976b5" />
  <rect x="586" y="297" width="22" height="1.75" fill="#3774b4" />
  <rect x="586" y="298" width="22" height="1.75" fill="#3573b4" />
  <rect x="586" y="299" width="22" height="1.75" fill="#3372b3" />
  <rect x="586" y="300" width="22" height="1.75" fill="#3171b2" />
  <rect x="586" y="301" width="22" height="1.75" fill="#306fb2" />
  <rect x="586" y="302" width="22" height="1.75" fill="#2e6eb1" />
  <rect x="586" y="303" width="22" height="1" fill="#2c6db0" />
  <text x="616" y="308" text-anchor="start" font-family="system-ui, sans-serif" font-size="12" fill="#222222">2</text>
  <text x="616" y="253" text-anchor="start" font-family="system-ui, sans-serif" font-size="12" fill="#222222">5.5</text>
  <text x="616" y="198" text-anchor="start" font-family="system-ui, sans-serif" font-size="12" fill="#222222">9</text>
  <text x="616" y="143" text-anchor="start" font-family="system-ui, sans-serif" font-size="12" fill="#222222">12.5</text>
  <text x="616" y="88" text-anchor="start" font-family="system-ui, sans-serif" font-size="12" fill="#222222">16</text>
</g>
</svg>
