<svg xmlns="http://www.w3.org/2000/svg" width="720" height="480" viewBox="0 0 720 480" role="img" aria-label="Regular raster field">
<title>Regular raster field</title>
<rect class="algraf-background" x="0" y="0" width="720" height="480" fill="#ffffff" />
<text class="algraf-title" x="60" y="24" font-family="system-ui, sans-serif" font-size="18" font-weight="600" fill="#222222">Regular raster field</text>
<rect class="algraf-plot-area" x="60" y="66" width="510" height="364" fill="#ffffff" />
<g class="algraf-grid">
  <line x1="132.857" y1="66" x2="132.857" y2="430" stroke="#f2f2f2" stroke-width="0.6" />
  <line x1="205.714" y1="66" x2="205.714" y2="430" stroke="#f2f2f2" stroke-width="0.6" />
  <line x1="278.571" y1="66" x2="278.571" y2="430" stroke="#f2f2f2" stroke-width="0.6" />
  <line x1="351.429" y1="66" x2="351.429" y2="430" stroke="#f2f2f2" stroke-width="0.6" />
  <line x1="424.286" y1="66" x2="424.286" y2="430" stroke="#f2f2f2" stroke-width="0.6" />
  <line x1="497.143" y1="66" x2="497.143" y2="430" stroke="#f2f2f2" stroke-width="0.6" />
  <line x1="60" y1="404.897" x2="570" y2="404.897" stroke="#f2f2f2" stroke-width="0.6" />
  <line x1="60" y1="360.069" x2="570" y2="360.069" stroke="#f2f2f2" stroke-width="0.6" />
  <line x1="60" y1="315.241" x2="570" y2="315.241" stroke="#f2f2f2" stroke-width="0.6" />
  <line x1="60" y1="270.414" x2="570" y2="270.414" stroke="#f2f2f2" stroke-width="0.6" />
  <line x1="60" y1="225.586" x2="570" y2="225.586" stroke="#f2f2f2" stroke-width="0.6" />
  <line x1="60" y1="180.759" x2="570" y2="180.759" stroke="#f2f2f2" stroke-width="0.6" />
  <line x1="60" y1="135.931" x2="570" y2="135.931" stroke="#f2f2f2" stroke-width="0.6" />
  <line x1="60" y1="91.103" x2="570" y2="91.103" stroke="#f2f2f2" stroke-width="0.6" />
  <line x1="96.429" y1="66" x2="96.429" y2="430" stroke="#e6e6e6" stroke-width="1" />
  <line x1="169.286" y1="66" x2="169.286" y2="430" stroke="#e6e6e6" stroke-width="1" />
  <line x1="242.143" y1="66" x2="242.143" y2="430" stroke="#e6e6e6" stroke-width="1" />
  <line x1="315" y1="66" x2="315" y2="430" stroke="#e6e6e6" stroke-width="1" />
  <line x1="387.857" y1="66" x2="387.857" y2="430" stroke="#e6e6e6" stroke-width="1" />
  <line x1="460.714" y1="66" x2="460.714" y2="430" stroke="#e6e6e6" stroke-width="1" />
  <line x1="533.571" y1="66" x2="533.571" y2="430" stroke="#e6e6e6" stroke-width="1" />
  <line x1="60" y1="427.31" x2="570" y2="427.31" stroke="#e6e6e6" stroke-width="1" />
  <line x1="60" y1="382.483" x2="570" y2="382.483" stroke="#e6e6e6" stroke-width="1" />
  <line x1="60" y1="337.655" x2="570" y2="337.655" stroke="#e6e6e6" stroke-width="1" />
  <line x1="60" y1="292.828" x2="570" y2="292.828" stroke="#e6e6e6" stroke-width="1" />
  <line x1="60" y1="248" x2="570" y2="248" stroke="#e6e6e6" stroke-width="1" />
  <line x1="60" y1="203.172" x2="570" y2="203.172" stroke="#e6e6e6" stroke-width="1" />
  <line x1="60" y1="158.345" x2="570" y2="158.345" stroke="#e6e6e6" stroke-width="1" />
  <line x1="60" y1="113.517" x2="570" y2="113.517" stroke="#e6e6e6" stroke-width="1" />
  <line x1="60" y1="68.69" x2="570" y2="68.69" stroke="#e6e6e6" stroke-width="1" />
</g>
<defs>
<clipPath id="algraf-clip-0"><rect x="60" y="66" width="510" height="364" /></clipPath>
</defs>
<g clip-path="url(#algraf-clip-0)">
  <g class="algraf-layer algraf-geom-rect">
    <rect x="60" y="360.069" width="72.857" height="44.828" fill="#2b6cb0" stroke="#ffffff" stroke-width="0.2" opacity="1" />
    <rect x="132.857" y="360.069" width="72.857" height="44.828" fill="#4880bb" stroke="#ffffff" stroke-width="0.2" opacity="1" />
    <rect x="205.714" y="360.069" width="72.857" height="44.828" fill="#6595c6" stroke="#ffffff" stroke-width="0.2" opacity="1" />
    <rect x="278.571" y="360.069" width="72.857" height="44.828" fill="#82a9d1" stroke="#ffffff" stroke-width="0.2" opacity="1" />
    <rect x="351.429" y="360.069" width="72.857" height="44.828" fill="#6595c6" stroke="#ffffff" stroke-width="0.2" opacity="1" />
    <rect x="424.286" y="360.069" width="72.857" height="44.828" fill="#4880bb" stroke="#ffffff" stroke-width="0.2" opacity="1" />
    <rect x="497.143" y="360.069" width="72.857" height="44.828" fill="#2b6cb0" stroke="#ffffff" stroke-width="0.2" opacity="1" />
    <rect x="60" y="315.241" width="72.857" height="44.828" fill="#4880bb" stroke="#ffffff" stroke-width="0.2" opacity="1" />
    <rect x="132.857" y="315.241" width="72.857" height="44.828" fill="#82a9d1" stroke="#ffffff" stroke-width="0.2" opacity="1" />
    <rect x="205.714" y="315.241" width="72.857" height="44.828" fill="#bdd1e6" stroke="#ffffff" stroke-width="0.2" opacity="1" />
    <rect x="278.571" y="315.241" width="72.857" height="44.828" fill="#dae6f1" stroke="#ffffff" stroke-width="0.2" opacity="1" />
    <rect x="351.429" y="315.241" width="72.857" height="44.828" fill="#bdd1e6" stroke="#ffffff" stroke-width="0.2" opacity="1" />
    <rect x="424.286" y="315.241" width="72.857" height="44.828" fill="#82a9d1" stroke="#ffffff" stroke-width="0.2" opacity="1" />
    <rect x="497.143" y="315.241" width="72.857" height="44.828" fill="#4880bb" stroke="#ffffff" stroke-width="0.2" opacity="1" />
    <rect x="60" y="270.414" width="72.857" height="44.828" fill="#6595c6" stroke="#ffffff" stroke-width="0.2" opacity="1" />
    <rect x="132.857" y="270.414" width="72.857" height="44.828" fill="#bdd1e6" stroke="#ffffff" stroke-width="0.2" opacity="1" />
    <rect x="205.714" y="270.414" width="72.857" height="44.828" fill="#e9c0c2" stroke="#ffffff" stroke-width="0.2" opacity="1" />
    <rect x="278.571" y="270.414" width="72.857" height="44.828" fill="#da8787" stroke="#ffffff" stroke-width="0.2" opacity="1" />
    <rect x="351.429" y="270.414" width="72.857" height="44.828" fill="#e9c0c2" stroke="#ffffff" stroke-width="0.2" opacity="1" />
    <rect x="424.286" y="270.414" width="72.857" height="44.828" fill="#bdd1e6" stroke="#ffffff" stroke-width="0.2" opacity="1" />
    <rect x="497.143" y="270.414" width="72.857" height="44.828" fill="#6595c6" stroke="#ffffff" stroke-width="0.2" opacity="1" />
    <rect x="60" y="225.586" width="72.857" height="44.828" fill="#82a9d1" stroke="#ffffff" stroke-width="0.2" opacity="1" />
    <rect x="132.857" y="225.586" width="72.857" height="44.828" fill="#dae6f1" stroke="#ffffff" stroke-width="0.2" opacity="1" />
    <rect x="205.714" y="225.586" width="72.857" height="44.828" fill="#da8787" stroke="#ffffff" stroke-width="0.2" opacity="1" />
    <rect x="278.571" y="225.586" width="72.857" height="44.828" fill="#c53030" stroke="#ffffff" stroke-width="0.2" opacity="1" />
    <rect x="351.429" y="225.586" width="72.857" height="44.828" fill="#da8787" stroke="#ffffff" stroke-width="0.2" opacity="1" />
    <rect x="424.286" y="225.586" width="72.857" height="44.828" fill="#dae6f1" stroke="#ffffff" stroke-width="0.2" opacity="1" />
    <rect x="497.143" y="225.586" width="72.857" height="44.828" fill="#82a9d1" stroke="#ffffff" stroke-width="0.2" opacity="1" />
    <rect x="60" y="180.759" width="72.857" height="44.828" fill="#6595c6" stroke="#ffffff" stroke-width="0.2" opacity="1" />
    <rect x="132.857" y="180.759" width="72.857" height="44.828" fill="#bdd1e6" stroke="#ffffff" stroke-width="0.2" opacity="1" />
    <rect x="205.714" y="180.759" width="72.857" height="44.828" fill="#e9c0c2" stroke="#ffffff" stroke-width="0.2" opacity="1" />
    <rect x="278.571" y="180.759" width="72.857" height="44.828" fill="#da8787" stroke="#ffffff" stroke-width="0.2" opacity="1" />
    <rect x="351.429" y="180.759" width="72.857" height="44.828" fill="#e9c0c2" stroke="#ffffff" stroke-width="0.2" opacity="1" />
    <rect x="424.286" y="180.759" width="72.857" height="44.828" fill="#bdd1e6" stroke="#ffffff" stroke-width="0.2" opacity="1" />
    <rect x="497.143" y="180.759" width="72.857" height="44.828" fill="#6595c6" stroke="#ffffff" stroke-width="0.2" opacity="1" />
    <rect x="60" y="135.931" width="72.857" height="44.828" fill="#4880bb" stroke="#ffffff" stroke-width="0.2" opacity="1" />
    <rect x="132.857" y="135.931" width="72.857" height="44.828" fill="#82a9d1" stroke="#ffffff" stroke-width="0.2" opacity="1" />
    <rect x="205.714" y="135.931" width="72.857" height="44.828" fill="#bdd1e6" stroke="#ffffff" stroke-width="0.2" opacity="1" />
    <rect x="278.571" y="135.931" width="72.857" height="44.828" fill="#dae6f1" stroke="#ffffff" stroke-width="0.2" opacity="1" />
    <rect x="351.429" y="135.931" width="72.857" height="44.828" fill="#bdd1e6" stroke="#ffffff" stroke-width="0.2" opacity="1" />
    <rect x="424.286" y="135.931" width="72.857" height="44.828" fill="#82a9d1" stroke="#ffffff" stroke-width="0.2" opacity="1" />
    <rect x="497.143" y="135.931" width="72.857" height="44.828" fill="#4880bb" stroke="#ffffff" stroke-width="0.2" opacity="1" />
    <rect x="60" y="91.103" width="72.857" height="44.828" fill="#2b6cb0" stroke="#ffffff" stroke-width="0.2" opacity="1" />
    <rect x="132.857" y="91.103" width="72.857" height="44.828" fill="#4880bb" stroke="#ffffff" stroke-width="0.2" opacity="1" />
    <rect x="205.714" y="91.103" width="72.857" height="44.828" fill="#6595c6" stroke="#ffffff" stroke-width="0.2" opacity="1" />
    <rect x="278.571" y="91.103" width="72.857" height="44.828" fill="#82a9d1" stroke="#ffffff" stroke-width="0.2" opacity="1" />
    <rect x="351.429" y="91.103" width="72.857" height="44.828" fill="#6595c6" stroke="#ffffff" stroke-width="0.2" opacity="1" />
    <rect x="424.286" y="91.103" width="72.857" height="44.828" fill="#4880bb" stroke="#ffffff" stroke-width="0.2" opacity="1" />
    <rect x="497.143" y="91.103" width="72.857" height="44.828" fill="#2b6cb0" stroke="#ffffff" stroke-width="0.2" opacity="1" />
  </g>
</g>
<g class="algraf-axes">
  <line x1="60" y1="430" x2="570" y2="430" stroke="#333333" stroke-width="1" />
  <line x1="96.429" y1="430" x2="96.429" y2="435" stroke="#333333" stroke-width="1" />
  <text x="96.429" y="448" text-anchor="middle" font-family="system-ui, sans-serif" font-size="12" fill="#222222">0</text>
  <line x1="169.286" y1="430" x2="169.286" y2="435" stroke="#333333" stroke-width="1" />
  <text x="169.286" y="448" text-anchor="middle" font-family="system-ui, sans-serif" font-size="12" fill="#222222">1</text>
  <line x1="242.143" y1="430" x2="242.143" y2="435" stroke="#333333" stroke-width="1" />
  <text x="242.143" y="448" text-anchor="middle" font-family="system-ui, sans-serif" font-size="12" fill="#222222">2</text>
  <line x1="315" y1="430" x2="315" y2="435" stroke="#333333" stroke-width="1" />
  <text x="315" y="448" text-anchor="middle" font-family="system-ui, sans-serif" font-size="12" fill="#222222">3</text>
  <line x1="387.857" y1="430" x2="387.857" y2="435" stroke="#333333" stroke-width="1" />
  <text x="387.857" y="448" text-anchor="middle" font-family="system-ui, sans-serif" font-size="12" fill="#222222">4</text>
  <line x1="460.714" y1="430" x2="460.714" y2="435" stroke="#333333" stroke-width="1" />
  <text x="460.714" y="448" text-anchor="middle" font-family="system-ui, sans-serif" font-size="12" fill="#222222">5</text>
  <line x1="533.571" y1="430" x2="533.571" y2="435" stroke="#333333" stroke-width="1" />
  <text x="533.571" y="448" text-anchor="middle" font-family="system-ui, sans-serif" font-size="12" fill="#222222">6</text>
  <text x="315" y="468" text-anchor="middle" font-family="system-ui, sans-serif" font-size="12" fill="#222222">Grid x</text>
  <line x1="60" y1="66" x2="60" y2="430" stroke="#333333" stroke-width="1" />
  <line x1="55" y1="427.31" x2="60" y2="427.31" stroke="#333333" stroke-width="1" />
  <text x="52" y="431.31" text-anchor="end" font-family="system-ui, sans-serif" font-size="12" fill="#222222">-1</text>
  <line x1="55" y1="382.483" x2="60" y2="382.483" stroke="#333333" stroke-width="1" />
  <text x="52" y="386.483" text-anchor="end" font-family="system-ui, sans-serif" font-size="12" fill="#222222">0</text>
  <line x1="55" y1="337.655" x2="60" y2="337.655" stroke="#333333" stroke-width="1" />
  <text x="52" y="341.655" text-anchor="end" font-family="system-ui, sans-serif" font-size="12" fill="#222222">1</text>
  <line x1="55" y1="292.828" x2="60" y2="292.828" stroke="#333333" stroke-width="1" />
  <text x="52" y="296.828" text-anchor="end" font-family="system-ui, sans-serif" font-size="12" fill="#222222">2</text>
  <line x1="55" y1="248" x2="60" y2="248" stroke="#333333" stroke-width="1" />
  <text x="52" y="252" text-anchor="end" font-family="system-ui, sans-serif" font-size="12" fill="#222222">3</text>
  <line x1="55" y1="203.172" x2="60" y2="203.172" stroke="#333333" stroke-width="1" />
  <text x="52" y="207.172" text-anchor="end" font-family="system-ui, sans-serif" font-size="12" fill="#222222">4</text>
  <line x1="55" y1="158.345" x2="60" y2="158.345" stroke="#333333" stroke-width="1" />
  <text x="52" y="162.345" text-anchor="end" font-family="system-ui, sans-serif" font-size="12" fill="#222222">5</text>
  <line x1="55" y1="113.517" x2="60" y2="113.517" stroke="#333333" stroke-width="1" />
  <text x="52" y="117.517" text-anchor="end" font-family="system-ui, sans-serif" font-size="12" fill="#222222">6</text>
  <line x1="55" y1="68.69" x2="60" y2="68.69" stroke="#333333" stroke-width="1" />
  <text x="52" y="72.69" text-anchor="end" font-family="system-ui, sans-serif" font-size="12" fill="#222222">7</text>
  <text x="25.6" y="248" text-anchor="middle" transform="rotate(-90 25.6 248)" font-family="system-ui, sans-serif" font-size="12" fill="#222222">Grid y</text>
</g>
<g class="algraf-legends">
  <text x="586" y="70" text-anchor="start" font-family="system-ui, sans-serif" font-size="12" fill="#222222">z</text>
  <rect x="586" y="78" width="12" height="16" fill="#c53030" />
  <text x="604" y="88" text-anchor="start" font-family="system-ui, sans-serif" font-size="12" fill="#222222">16</text>
  <rect x="586" y="94" width="12" height="16" fill="#de9596" />
  <text x="604" y="104" text-anchor="start" font-family="system-ui, sans-serif" font-size="12" fill="#222222">12.5</text>
  <rect x="586" y="110" width="12" height="16" fill="#f7fafc" />
  <text x="604" y="120" text-anchor="start" font-family="system-ui, sans-serif" font-size="12" fill="#222222">9</text>
  <rect x="586" y="126" width="12" height="16" fill="#91b3d6" />
  <text x="604" y="136" text-anchor="start" font-family="system-ui, sans-serif" font-size="12" fill="#222222">5.5</text>
  <rect x="586" y="142" width="12" height="16" fill="#2b6cb0" />
  <text x="604" y="152" text-anchor="start" font-family="system-ui, sans-serif" font-size="12" fill="#222222">2</text>
</g>
</svg>
